<svg width="20" height="20" viewBox="0 0 20 20" fill="none" xmlns="http://www.w3.org/2000/svg">
<g clipPath="url(#clip0_999_3667)">
<path d="M8.73833 5.18768C8.73833 4.88804 8.85722 4.60081 9.06912 4.38891C9.28102 4.17716 9.56825 4.05812 9.86789 4.05812C10.1674 4.05812 10.4548 4.17716 10.6665 4.38906C10.8784 4.6008 10.9973 4.88819 10.9973 5.18768C10.9973 5.48731 10.8784 5.77454 10.6665 5.98645C10.4548 6.19819 10.1674 6.31724 9.86773 6.31724C9.56825 6.31724 9.28087 6.19819 9.06912 5.98645C8.85722 5.77455 8.73833 5.48732 8.73833 5.18768ZM11.6341 14.8226C11.3145 14.7202 10.9237 14.4196 10.9237 13.5626V7.93555C10.9238 7.89509 10.9077 7.85649 10.8792 7.82782C10.8507 7.79929 10.8121 7.78317 10.7716 7.78317H8.52864C8.37689 7.78317 8.23149 7.84347 8.12436 7.95074C8.01709 8.05801 7.95694 8.20341 7.95694 8.35503C7.95803 8.47795 7.99818 8.59731 8.07165 8.69574C8.14513 8.79433 8.24821 8.86672 8.36571 8.90268C8.68534 9.00514 9.07611 9.3057 9.07611 10.1628V13.5628C9.07611 14.4198 8.68532 14.7204 8.36555 14.8229C8.24805 14.8588 8.14497 14.9312 8.07149 15.0298C7.99801 15.1282 7.95787 15.2476 7.95678 15.3705C7.95678 15.5221 8.01708 15.6675 8.1242 15.7748C8.23146 15.8819 8.37687 15.9422 8.5286 15.9422H11.471C11.6228 15.9422 11.7682 15.8819 11.8754 15.7748C11.9825 15.6675 12.0428 15.5221 12.0428 15.3705C12.0417 15.2476 12.0016 15.1282 11.9281 15.0298C11.8546 14.9312 11.7516 14.8588 11.6341 14.8229L11.6341 14.8226ZM20 10C20 12.6522 18.9464 15.1957 17.0711 17.0711C15.1957 18.9464 12.652 20 10 20C7.348 20 4.80434 18.9464 2.92894 17.0711C1.05362 15.1957 0 12.652 0 10C0 7.34801 1.05362 4.80434 2.92894 2.92894C4.80426 1.05362 7.348 0 10 0C12.6513 0.00294521 15.1929 1.05746 17.0679 2.93219C18.9426 4.80704 19.9971 7.34888 20.0001 10.0001L20 10ZM18.6666 10C18.6666 7.7015 17.7536 5.4972 16.1283 3.8718C14.5028 2.24652 12.2984 1.3335 10.0001 1.3335C7.70174 1.3335 5.49728 2.24652 3.87188 3.8718C2.2466 5.49724 1.33358 7.70166 1.33358 10C1.33358 12.2983 2.2466 14.5028 3.87188 16.1282C5.49732 17.7535 7.70174 18.6665 10.0001 18.6665C12.2978 18.664 14.5009 17.7501 16.1255 16.1253C17.7503 14.5006 18.6643 12.2976 18.6667 9.99984L18.6666 10Z" fill="black"/>
</g>
<defs>
<clipPath id="clip0_999_3667">
<rect width="20" height="20" fill="white"/>
</clipPath>
</defs>
</svg>
