<svg width="84" height="66" viewBox="0 0 84 66" fill="none" xmlns="http://www.w3.org/2000/svg">
<path d="M62.8239 0.961914L62.8249 8.47425C61.4844 8.49703 57.7383 8.67314 57.7383 9.99183C57.7383 11.4951 63.8964 11.5117 64.1601 11.5117C64.4205 11.5117 70.5778 11.4951 70.5778 9.99183C70.5778 8.67316 66.8349 8.497 65.4954 8.47425L65.4945 3.58983H80.9953V65.0382H83.6675V0.962331L62.8239 0.961914Z" fill="#9e7b74"/>
<path d="M64.502 12.7197H63.8145L64.1582 15.6738L64.502 12.7197Z" fill="#9e7b74"/>
<path d="M64.1582 20.4404L64.5033 17.4854H63.8145L64.1582 20.4404Z" fill="#9e7b74"/>
<path d="M61.8662 17.4854H61.1787L61.5215 20.3633L61.8662 17.4854Z" fill="#9e7b74"/>
<path d="M66.4502 17.4854L66.7952 20.4404L67.1377 17.4854H66.4502Z" fill="#9e7b74"/>
<path d="M59.8604 12.7197L60.2051 15.6738L60.5479 12.7197H59.8604Z" fill="#9e7b74"/>
<path d="M67.7695 12.7197L68.1133 15.6738L68.4557 12.7197H67.7695Z" fill="#9e7b74"/>
<path d="M64.1589 25.2119L64.5039 22.2578H63.8164L64.1589 25.2119Z" fill="#9e7b74"/>
<path d="M1.45396 46.2415C1.45396 49.1478 5.40712 63.0165 10.8723 63.5207V65.0402H67.0106V63.5207C72.4761 63.0174 76.4273 49.1474 76.4273 46.2415V45.877H1.45312L1.45396 46.2415Z" fill="#9e7b74"/>
<path d="M76.3169 41.4817H74.6379C74.0692 38.1256 71.1265 35.6161 67.7047 35.6161C65.0578 35.6161 62.6857 37.0787 61.4806 39.3589C60.2756 37.0796 57.9035 35.6161 55.2557 35.6161C53.2993 35.6161 51.4683 36.414 50.1392 37.8254C48.8102 36.0722 46.761 35.0442 44.5361 35.0442C42.5621 35.0442 40.7164 35.8567 39.3841 37.2909C38.0517 35.8567 36.206 35.0442 34.2321 35.0442C33.0956 35.0442 31.9706 35.3245 30.9602 35.8547C28.9394 34.7922 26.4361 34.7922 24.4143 35.8547C23.4039 35.3235 22.2789 35.0442 21.1416 35.0442C19.2812 35.0442 17.5176 35.7724 16.2041 37.0631C14.9166 35.0266 12.6979 33.7871 10.2571 33.7871C6.37173 33.7871 3.21031 36.9486 3.21031 40.8359C3.21031 41.0391 3.22594 41.2536 3.24872 41.4808H1.57847C0.894232 41.4818 0.337891 42.3037 0.337891 43.308C0.337891 44.3151 0.894207 45.1361 1.57847 45.1361H76.3135C76.9958 45.1361 77.5541 44.3152 77.5541 43.308C77.5554 42.3037 77 41.4841 76.3167 41.4818L76.3169 41.4817ZM4.23273 41.2473C4.22231 41.1119 4.21515 40.9745 4.21515 40.8359C4.21515 37.5035 6.9254 34.7923 10.2578 34.7923C12.5557 34.7923 14.6243 36.0735 15.6588 38.136L16.0026 38.8226L16.4941 38.233C17.6471 36.8444 19.3421 36.0488 21.1419 36.0488C22.1982 36.0488 23.2428 36.33 24.1627 36.8623L24.4146 37.0091L24.6666 36.8623C26.5084 35.7978 28.8664 35.7978 30.7083 36.8623L30.9602 37.0091L31.2112 36.8623C32.1321 36.3291 33.1757 36.0488 34.232 36.0488C36.0985 36.0488 37.8329 36.8958 38.9892 38.3736L39.384 38.8788L39.7799 38.3736C40.9361 36.8954 42.6705 36.0488 44.536 36.0488C46.6383 36.0488 48.555 37.1185 49.6682 38.9124L50.0474 39.525L50.4911 38.9573C51.6474 37.471 53.385 36.6207 55.2558 36.6207C57.8818 36.6207 60.1914 38.2988 61.0025 40.7997L61.1484 41.2476L4.23273 41.2473ZM61.8136 41.2473L61.9594 40.7994C62.7686 38.2994 65.0782 36.6204 67.7051 36.6204C70.502 36.6204 72.9281 38.5716 73.573 41.2464H61.8138L61.8136 41.2473Z" fill="#9e7b74"/>
</svg>
