<svg width="33" height="33" viewBox="0 0 33 33" fill="none" xmlns="http://www.w3.org/2000/svg">
<g clipPath="url(#clip0_405_13419)">
<path d="M30.8 20.3499V22.5499C30.8026 24.3012 30.1081 25.9814 28.8698 27.2197C27.6315 28.458 25.9512 29.1526 24.2 29.1499H8.79996C7.04872 29.1526 5.36846 28.458 4.13015 27.2197C2.89184 25.9814 2.19733 24.3012 2.19996 22.5499L2.19995 17.0499H8.46446C9.78409 17.0506 11.0592 17.5271 12.056 18.3919C13.2274 19.3908 14.6611 20.0322 16.1865 20.2399V20.2454C16.6543 20.316 17.1268 20.3509 17.6 20.3499H18.7V25.2999C18.7018 25.9067 19.1932 26.3981 19.8 26.3999H26.07C26.6767 26.3981 27.1681 25.9067 27.17 25.2999V20.3499H30.8Z" fill="#00BCD4"/>
<path d="M14.5365 20.2399V20.2454C15.0043 20.316 15.4768 20.3509 15.95 20.3499H17.05V25.2999C17.0518 25.9067 17.5432 26.3981 18.15 26.3999H19.8C19.1932 26.3981 18.7018 25.9067 18.7 25.2999V20.3499H17.6C17.1268 20.3509 16.6543 20.316 16.1865 20.2454V20.2399C14.6611 20.0322 13.2274 19.3908 12.056 18.3919C11.0592 17.5271 9.78408 17.0506 8.46445 17.0499H6.81445C8.13408 17.0506 9.40922 17.5271 10.406 18.3919C11.5774 19.3908 13.0111 20.0322 14.5365 20.2399Z" fill="#00838F"/>
<path d="M29.15 20.3501V22.5501C29.1526 24.3013 28.4581 25.9816 27.2198 27.2199C25.9815 28.4582 24.3012 29.1527 22.55 29.1501L24.2 29.1501C25.9512 29.1527 27.6315 28.4582 28.8698 27.2199C30.1081 25.9816 30.8026 24.3013 30.8 22.5501L30.8 20.3501H29.15Z" fill="#00838F"/>
<path d="M18.7 18.9749L18.7 20.35L17.6 20.3499C17.1269 20.3509 16.6543 20.316 16.1865 20.2454V20.2399C14.6611 20.0322 13.2274 19.3908 12.056 18.3919C11.0593 17.5271 9.78412 17.0506 8.46449 17.0499H1.09999C0.796231 17.0499 0.549988 16.8037 0.549988 16.4999V15.9499C0.549988 15.0387 1.28872 14.2999 2.19999 14.2999H8.24999C10.2732 14.2653 12.2413 14.9604 13.794 16.2579C14.0148 16.4509 14.2522 16.6239 14.5035 16.7749C15.3505 17.3036 16.3266 17.589 17.325 17.5999C17.8811 17.5985 18.3829 17.9331 18.5955 18.4469C18.6659 18.614 18.7015 18.7937 18.7 18.9749Z" fill="#F5F5F5"/>
<path d="M15.675 17.6C16.2311 17.5986 16.7329 17.9331 16.9455 18.447C17.0159 18.614 17.0515 18.7937 17.05 18.975V20.3302C17.2331 20.3406 17.4163 20.35 17.6 20.35H18.7V18.975C18.7015 18.7937 18.6659 18.614 18.5955 18.447C18.3829 17.9331 17.8811 17.5986 17.325 17.6" fill="#CFD8DC"/>
<path d="M32.45 19.25V19.8C32.45 20.1037 32.2037 20.35 31.9 20.35H27.17V18.975C27.1696 18.503 27.0762 18.0358 26.895 17.6H30.8C31.7112 17.6 32.45 18.3387 32.45 19.25Z" fill="#F5F5F5"/>
<path d="M30.8 17.6H29.15C30.0612 17.6 30.8 18.3387 30.8 19.25V19.8C30.8 20.1037 30.5537 20.35 30.25 20.35H31.9C32.2037 20.35 32.45 20.1037 32.45 19.8V19.25C32.45 18.3387 31.7112 17.6 30.8 17.6Z" fill="#CFD8DC"/>
<path d="M9.81199 29.15C8.89586 29.7996 8.32827 30.8334 8.27199 31.955C8.24385 32.235 8.0089 32.4486 7.72749 32.45H3.84999C3.54623 32.45 3.29999 32.2038 3.29999 31.9V31.35C3.3018 30.7433 3.79323 30.2518 4.39999 30.25H5.49999V28.27C6.50297 28.8496 7.64158 29.1533 8.79999 29.15H9.81199Z" fill="#FFDC00"/>
<path d="M8.8 29.15C7.64159 29.1533 6.50298 28.8496 5.5 28.27V28.9383C6.03892 29.0779 6.59329 29.149 7.15 29.15H8.162C7.24588 29.7996 6.67828 30.8334 6.622 31.955C6.59386 32.235 6.35891 32.4486 6.0775 32.45H7.7275C8.00891 32.4486 8.24386 32.235 8.272 31.955C8.32828 30.8334 8.89588 29.7996 9.812 29.15H8.8Z" fill="#FEC108"/>
<path d="M29.7 31.35V31.9C29.7 32.2038 29.4537 32.45 29.15 32.45H25.2725C24.9911 32.4486 24.7561 32.235 24.728 31.955C24.6717 30.8334 24.1041 29.7996 23.188 29.15H24.2C25.3584 29.1533 26.497 28.8496 27.5 28.27V30.25H28.6C29.2067 30.2518 29.6982 30.7433 29.7 31.35Z" fill="#FFDC00"/>
<path d="M28.6 30.25H27.5V28.27C26.9832 28.5673 26.428 28.7921 25.85 28.9383V30.25H26.95C27.5567 30.2518 28.0482 30.7433 28.05 31.35V31.9C28.05 32.2038 27.8037 32.45 27.5 32.45H29.15C29.4537 32.45 29.7 32.2038 29.7 31.9V31.35C29.6982 30.7433 29.2067 30.2518 28.6 30.25Z" fill="#FEC108"/>
<path d="M22 26.4H19.8C19.1932 26.3982 18.7018 25.9068 18.7 25.3C18.7 18.4162 18.7423 18.7979 18.5955 18.447C18.3829 17.9332 17.881 17.5986 17.325 17.6C16.3266 17.5891 15.3505 17.3037 14.5035 16.775C15.4456 15.5774 17.0424 15.1071 18.4833 15.6026C19.9242 16.0982 20.8938 17.4513 20.9 18.975V25.3C20.9018 25.9068 21.3932 26.3982 22 26.4Z" fill="#AD1457"/>
<path d="M27.225 18.975V25.3C27.2232 25.9068 26.7317 26.3982 26.125 26.4H22.055C21.4482 26.3982 20.9568 25.9068 20.955 25.3V18.975C20.9555 17.0866 19.485 15.5245 17.6 15.411V15.4H23.65C25.6244 15.4 27.225 17.0006 27.225 18.975Z" fill="#E91E63"/>
<path d="M26.95 17.6C26.3928 16.2696 25.0924 15.4027 23.65 15.4H22C23.9744 15.4 25.575 17.0006 25.575 18.975V25.3C25.5732 25.9068 25.0818 26.3982 24.475 26.4H26.125C26.7318 26.3982 27.2232 25.9068 27.225 25.3V18.975C27.2247 18.5031 27.1312 18.0358 26.95 17.6Z" fill="#AD1457"/>
<path d="M13.6565 3.30546L11.8745 1.51796C11.2566 0.895019 10.4144 0.546265 9.53699 0.549956H6.59999C4.77745 0.549956 3.29999 2.02742 3.29999 3.84996V14.3H5.49999V3.84996C5.5018 3.2432 5.99323 2.75177 6.59999 2.74996H9.53699C9.8303 2.74905 10.1117 2.86596 10.318 3.07446L11.4675 4.22396" fill="#7F8E94"/>
<path d="M17.0445 6.63848C17.0275 6.9265 16.7885 7.15107 16.5 7.14998H11C10.6962 7.14998 10.45 6.90374 10.45 6.59998C10.448 5.70176 10.816 4.84236 11.4675 4.22398C12.4266 3.3096 13.8396 3.05761 15.0557 3.58409C16.2717 4.11057 17.0549 5.31339 17.0445 6.63848Z" fill="#9E9E9E"/>
<path d="M12.925 3.41652C14.3712 3.82451 15.3763 5.13585 15.3945 6.63842C15.3776 6.92643 15.1385 7.151 14.85 7.14992H16.5C16.7885 7.151 17.0276 6.92643 17.0445 6.63842C17.0508 5.61489 16.5823 4.64624 15.7761 4.01566C14.9698 3.38509 13.9169 3.16381 12.925 3.41652Z" fill="#707070"/>
<path fill-rule="evenodd" clip-rule="evenodd" d="M17.05 6.59998V6.71548C17.0509 6.68969 17.0491 6.66387 17.0445 6.63848C17.049 6.62617 17.0509 6.61305 17.05 6.59998Z" stroke="black" stroke-width="1.3" stroke-linecap="round" stroke-linejoin="round"/>
<path d="M8.79998 27.5C6.06742 27.497 3.85301 25.2826 3.84998 22.55C3.84998 22.2462 4.09622 22 4.39998 22C4.70373 22 4.94998 22.2462 4.94998 22.55C4.9524 24.6753 6.67468 26.3976 8.79998 26.4C9.10373 26.4 9.34998 26.6462 9.34998 26.95C9.34998 27.2538 9.10373 27.5 8.79998 27.5Z" fill="#F5F5F5"/>
<path d="M31.35 22.55V20.9H31.9C32.5075 20.9 33 20.4075 33 19.8V19.25C33 18.035 32.015 17.05 30.8 17.05H27.2305C26.5213 15.6985 25.1214 14.8513 23.595 14.85H17.545C16.3791 14.7917 15.2427 15.2276 14.415 16.0507C12.8469 14.8759 11.3432 13.75 8.25 13.75H6.05V3.85002C6.05 3.54626 6.29624 3.30002 6.6 3.30002H9.537C9.68466 3.29969 9.82615 3.35922 9.92915 3.46502L10.7107 4.24657C10.1871 4.9195 9.90189 5.74736 9.9 6.60002C9.9 7.20753 10.3925 7.70002 11 7.70002H16.5C17.0622 7.69358 17.5327 7.27157 17.6 6.71332C17.6295 4.74815 16.1969 3.0659 14.2522 2.78192C14.1295 2.76652 14.0069 2.75882 13.8842 2.75497L12.265 1.12917C11.5432 0.403252 10.5607 -0.00339675 9.537 2.13755e-05H6.6C4.47471 0.00244613 2.75242 1.72473 2.75 3.85002V13.75H2.2C0.984973 13.75 0 14.735 0 15.95V16.5C0 17.1075 0.492487 17.6 1.1 17.6H1.65V22.55C1.65245 24.9866 2.89635 27.254 4.95 28.5654V29.7H4.4C3.48873 29.7 2.75 30.4388 2.75 31.35V31.9H0.55C0.246243 31.9 0 32.1463 0 32.45C0 32.7538 0.246243 33 0.55 33H32.45C32.7538 33 33 32.7538 33 32.45C33 32.1463 32.7538 31.9 32.45 31.9H30.25V31.35C30.25 30.4388 29.5113 29.7 28.6 29.7H28.05V28.5654C30.1037 27.254 31.3475 24.9866 31.35 22.55ZM31.9 19.25V19.8H27.72V18.975C27.7199 18.6979 27.6917 18.4215 27.6359 18.15H30.8C31.4075 18.15 31.9 18.6425 31.9 19.25ZM26.3874 17.8107C26.5411 18.1796 26.6201 18.5753 26.62 18.975V25.3C26.62 25.6038 26.3738 25.85 26.07 25.85H22C21.6962 25.85 21.45 25.6038 21.45 25.3V18.975C21.4508 17.826 20.9707 16.7291 20.1262 15.95H23.595C24.816 15.9499 25.9174 16.6837 26.3874 17.8107ZM19.25 18.975C19.2519 18.7214 19.2019 18.47 19.1032 18.2364C18.8074 17.5196 18.1092 17.0514 17.3338 17.05C16.6716 17.042 16.018 16.8995 15.4127 16.6309C16.3177 15.8925 17.5671 15.7411 18.6224 16.2421C19.6776 16.7431 20.3501 17.8069 20.35 18.975V25.3C20.3518 25.4878 20.3861 25.6739 20.4512 25.85H19.8C19.4962 25.85 19.25 25.6038 19.25 25.3V18.975ZM16.5 6.60002H11C11.0054 5.08499 12.2311 3.85756 13.7462 3.85002C15.2578 3.86866 16.4792 5.08842 16.5 6.60002ZM3.85 3.85002C3.85182 2.33199 5.08197 1.10184 6.6 1.10002H9.537C10.268 1.09784 10.9695 1.38817 11.4851 1.90632L12.5301 2.95407C12.1624 3.07624 11.8153 3.25332 11.5005 3.47932L10.7069 2.68567C10.3975 2.37393 9.97619 2.19903 9.537 2.20002H6.6C5.68873 2.20002 4.95 2.93875 4.95 3.85002V13.75H3.85V3.85002ZM1.1 15.95C1.1 15.3425 1.59249 14.85 2.2 14.85H8.25C10.1403 14.8141 11.9802 15.4611 13.4321 16.6722C13.675 16.8847 13.9361 17.0754 14.2126 17.242C15.1453 17.8236 16.2198 18.1377 17.319 18.15H17.325C17.7806 18.15 18.15 18.5194 18.15 18.975V19.8H17.6C15.7093 19.8338 13.8695 19.1867 12.4163 17.9768C11.3196 17.025 9.91654 16.5007 8.4645 16.5H1.1V15.95ZM2.75 22.55V17.6H8.4645C9.65122 17.6006 10.798 18.0288 11.6947 18.8062C13.347 20.192 15.4437 20.9354 17.6 20.9H18.15V25.3C18.15 26.2113 18.8887 26.95 19.8 26.95H26.07C26.9813 26.95 27.72 26.2113 27.72 25.3V20.9H30.25V22.55C30.2461 25.8897 27.5397 28.5961 24.2 28.6H8.8C5.46031 28.5961 2.75394 25.8897 2.75 22.55ZM10.0001 29.7H22.9999C23.6786 30.2385 24.1013 31.0361 24.1659 31.9H8.83355C8.8986 31.0361 9.32148 30.2386 10.0001 29.7ZM3.85 31.9V31.35C3.85 31.0463 4.09624 30.8 4.4 30.8H5.5C5.80376 30.8 6.05 30.5538 6.05 30.25V29.15C6.83134 29.4741 7.6643 29.6558 8.5096 29.6868C8.05445 30.3407 7.78425 31.1053 7.7275 31.9H3.85ZM27.5 30.8H28.6C28.9038 30.8 29.15 31.0463 29.15 31.35V31.9H25.2753C25.2172 31.1047 24.9461 30.3396 24.4904 29.6852C25.3356 29.6547 26.1686 29.4735 26.95 29.15V30.25C26.95 30.5538 27.1962 30.8 27.5 30.8Z" fill="black"/>
<path d="M13.2 9.35005V12.1C13.2 12.4038 13.4463 12.65 13.75 12.65C14.0538 12.65 14.3 12.4038 14.3 12.1V9.35005C14.3 9.04629 14.0538 8.80005 13.75 8.80005C13.4463 8.80005 13.2 9.04629 13.2 9.35005Z" fill="black"/>
<path d="M11.0391 9.14538L9.93906 11.8954C9.82607 12.1776 9.96322 12.4979 10.2454 12.6109C10.5276 12.7239 10.848 12.5868 10.961 12.3046L12.061 9.55458C12.174 9.27239 12.0368 8.95202 11.7546 8.83903C11.4724 8.72603 11.1521 8.86319 11.0391 9.14538Z" fill="black"/>
<path d="M16.461 9.14538C16.348 8.86319 16.0276 8.72603 15.7454 8.83903C15.4632 8.95202 15.3261 9.27239 15.4391 9.55458L16.5391 12.3046C16.6122 12.4871 16.7771 12.6168 16.9717 12.6448C17.1664 12.6727 17.3611 12.5947 17.4827 12.4402C17.6042 12.2856 17.6341 12.0779 17.561 11.8954L16.461 9.14538Z" fill="black"/>
</g>
<defs>
<clipPath id="clip0_405_13419">
<rect width="33" height="33" fill="white"/>
</clipPath>
</defs>
</svg>
