<svg width="144" height="144" viewBox="0 0 144 144" fill="none" xmlns="http://www.w3.org/2000/svg">
<g clipPath="url(#clip0_443_386)">
<path d="M17.8654 137.441C16.5727 139.379 17.0967 141.999 19.0354 143.291C19.7548 143.771 20.5676 144 21.3717 144C22.7349 144 24.0728 143.34 24.8856 142.121L28.1009 137.298C25.4982 136.156 23.0184 134.783 20.6902 133.203L17.8654 137.441Z" fill="#9E7B74"/>
<path d="M123.311 133.203C120.983 134.783 118.503 136.156 115.9 137.298L119.116 142.121C119.929 143.34 121.266 144 122.63 144C123.434 144 124.247 143.771 124.966 143.291C126.905 141.999 127.429 139.379 126.136 137.441L123.311 133.203Z" fill="#9E7B74"/>
<path d="M8.71973 81.6016V94.7804C8.71973 115.716 25.7525 132.749 46.6885 132.749H97.3135C118.249 132.749 135.282 115.716 135.282 94.7804V92.3239H65.5722C45.9598 92.3239 26.8691 88.7178 8.71973 81.6016Z" fill="#9E7B74"/>
<path d="M22.7803 49.7219V15.4688C22.7803 11.5917 25.9345 8.4375 29.8115 8.4375H35.4365C39.3136 8.4375 42.4678 11.5917 42.4678 15.4688V17.4704C35.9461 19.3494 31.2178 25.47 31.2178 32.5786V33.75C31.2178 36.0799 33.1066 37.9688 35.4365 37.9688H57.9365C60.2664 37.9688 62.1553 36.0799 62.1553 33.75V32.3438C62.1553 25.2768 57.3901 19.305 50.9053 17.4637V15.4688C50.9053 6.93928 43.966 0 35.4365 0H29.8115C21.2821 0 14.3428 6.93928 14.3428 15.4688V46.3343C15.0071 46.5384 15.663 46.7783 16.3067 47.0638C18.4468 48.015 20.6054 48.8995 22.7803 49.7219Z" fill="#9E7B74"/>
<path d="M134.754 65.9611H65.5719C47.301 65.9611 29.5786 62.1994 12.8895 54.7814C8.35745 52.7738 3.06685 54.8078 1.0562 59.3309C-0.954459 63.8542 1.08235 69.1535 5.6057 71.1642C24.6033 79.6096 44.7768 83.8905 65.5721 83.8905H134.754C139.707 83.8905 143.719 79.8779 143.719 74.9256C143.719 69.9734 139.706 65.9611 134.754 65.9611Z" fill="#9E7B74"/>
</g>
<defs>
<clipPath id="clip0_443_386">
<rect width="144" height="144" fill="white"/>
</clipPath>
</defs>
</svg>
