<svg width="155" height="155" viewBox="0 0 155 155" fill="none" xmlns="http://www.w3.org/2000/svg">
<g clipPath="url(#clip0_443_418)">
<path d="M16.146 61.3516H32.2917C31.2972 61.3516 30.3605 60.8929 29.7472 60.1116C29.1336 59.3302 28.9204 58.3097 29.1596 57.3409L31.1682 49.3133C32.2469 44.9927 36.1152 41.9766 40.5651 41.9766H61.3545C66.6956 41.9766 71.042 46.3229 71.042 51.6641V58.1223C71.042 59.9048 69.5952 61.3516 67.8127 61.3516H87.1877C85.4052 61.3516 83.9585 59.9048 83.9585 58.1223V51.6641C83.9585 46.3229 88.3048 41.9766 93.646 41.9766H114.435C118.885 41.9766 122.754 44.9927 123.832 49.3133L125.841 57.3409C126.086 58.3033 125.867 59.3302 125.253 60.1116C124.64 60.8929 123.703 61.3516 122.709 61.3516H138.854C140.637 61.3516 142.084 59.9048 142.084 58.1223V38.7473C142.084 29.8478 134.838 22.6016 125.938 22.6016H29.0627C20.1632 22.6016 12.917 29.8478 12.917 38.7473V58.1223C12.917 59.9048 14.3635 61.3516 16.146 61.3516Z" fill="#9E7B74"/>
<path d="M138.854 67.8125H16.1457C7.24625 67.8125 0 75.0588 0 83.9582V129.166C0 130.949 1.44677 132.396 3.22927 132.396C5.01177 132.396 6.45854 130.949 6.45854 129.166V119.479H148.542V129.166C148.542 130.949 149.989 132.396 151.771 132.396C153.554 132.396 155 130.949 155 129.166V83.9582C155 75.0588 147.754 67.8125 138.854 67.8125ZM148.542 113.021H6.45823V106.562H148.541V113.021H148.542Z" fill="#9E7B74"/>
</g>
<defs>
<clipPath id="clip0_443_418">
<rect width="155" height="155" fill="white"/>
</clipPath>
</defs>
</svg>
