<svg width="43" height="34" viewBox="0 0 43 34" fill="none" xmlns="http://www.w3.org/2000/svg">
<path d="M5.84105 17.1275H37.4091C37.6516 17.1275 37.8878 17.1545 38.1155 17.2044V7.20231C38.1155 5.56242 36.7861 4.23303 35.1462 4.23303H8.10401C6.46412 4.23303 5.13464 5.56242 5.13464 7.20231V17.2044C5.36239 17.1545 5.59852 17.1275 5.84105 17.1275Z" fill="#F6A96C"/>
<path d="M35.1463 4.23303H31.6867C33.3266 4.23303 34.656 5.56242 34.656 7.20231V17.1275H37.4093C37.6518 17.1275 37.8879 17.1545 38.1157 17.2044V7.20231C38.1157 5.56242 36.7863 4.23303 35.1463 4.23303Z" fill="#EA9B58"/>
<path d="M38.1155 17.1189V7.20231C38.1155 5.56242 36.7861 4.23303 35.1462 4.23303H14.4795C14.4419 4.25884 14.4102 4.29279 14.3883 4.33313L13.4905 5.97459C13.3797 6.17703 13.089 6.17703 12.9784 5.97459L12.0806 4.33313C12.0585 4.29279 12.0269 4.25893 11.9893 4.23303H8.10401C6.46412 4.23303 5.13464 5.56242 5.13464 7.20231V9.44319" stroke="black" stroke-width="0.875251" stroke-miterlimit="10" stroke-linecap="round" stroke-linejoin="round"/>
<path d="M5.13464 12.3483V17.119" stroke="black" stroke-width="0.875251" stroke-miterlimit="10" stroke-linecap="round" stroke-linejoin="round"/>
<path d="M6.32376 28.8306H2.45926V32.9997H6.32376V28.8306Z" fill="#E2DEE2"/>
<path d="M6.32376 28.8306H2.45926V32.9997H6.32376V28.8306Z" fill="#E2DEE2"/>
<path d="M6.3237 28.8306H4.58762V32.9997H6.3237V28.8306Z" fill="#CBC4CC"/>
<path d="M40.791 28.8306H36.9265V32.9997H40.791V28.8306Z" fill="#E2DEE2"/>
<path d="M40.7907 28.8306H39.0547V32.9997H40.7907V28.8306Z" fill="#CBC4CC"/>
<path d="M6.32376 28.9136H2.45926V32.9997H6.32376V28.9136Z" stroke="black" stroke-width="0.875251" stroke-miterlimit="10" stroke-linecap="round" stroke-linejoin="round"/>
<path d="M40.791 28.9136H36.9265V32.9997H40.791V28.9136Z" stroke="black" stroke-width="0.875251" stroke-miterlimit="10" stroke-linecap="round" stroke-linejoin="round"/>
<path d="M1 33H42.2504" stroke="black" stroke-width="0.875251" stroke-miterlimit="10" stroke-linecap="round" stroke-linejoin="round"/>
<path d="M35.1548 17.1275C35.2752 16.8779 35.3428 16.5985 35.3428 16.304V11.9562C35.3428 10.9068 34.4843 10.0482 33.4349 10.0482H25.1451C24.0958 10.0482 23.2372 10.9068 23.2372 11.9562V16.304C23.2372 16.5985 23.3048 16.8779 23.4252 17.1275H35.1548Z" fill="white"/>
<path d="M33.435 10.0482H30.8391C31.8885 10.0482 32.7471 10.9068 32.7471 11.9562V16.304C32.7471 16.5985 32.6795 16.8779 32.559 17.1275H35.1549C35.2753 16.8779 35.343 16.5985 35.343 16.304V11.9562C35.343 10.9068 34.4844 10.0482 33.435 10.0482Z" fill="#F3F0F3"/>
<path d="M19.8253 17.1275C19.9458 16.8779 20.0134 16.5985 20.0134 16.304V11.9562C20.0134 10.9068 19.1549 10.0482 18.1054 10.0482H9.81569C8.76634 10.0482 7.90771 10.9068 7.90771 11.9562V16.304C7.90771 16.5985 7.97536 16.8779 8.09579 17.1275H19.8253Z" fill="white"/>
<path d="M18.1051 10.0482H15.5093C16.5586 10.0482 17.4173 10.9068 17.4173 11.9562V16.304C17.4173 16.5985 17.3496 16.8779 17.2292 17.1275H19.825C19.9455 16.8779 20.0131 16.5985 20.0131 16.304V11.9562C20.0131 10.9068 19.1546 10.0482 18.1051 10.0482Z" fill="#F3F0F3"/>
<path d="M35.192 17.0445C35.2889 16.8165 35.3428 16.5663 35.3428 16.304V11.9562C35.3428 10.9068 34.4843 10.0482 33.4349 10.0482H25.1451C24.0958 10.0482 23.2372 10.9068 23.2372 11.9562V16.304C23.2372 16.5663 23.2911 16.8165 23.388 17.0445" stroke="black" stroke-width="0.875251" stroke-miterlimit="10" stroke-linecap="round" stroke-linejoin="round"/>
<path d="M19.8626 17.0445C19.9595 16.8165 20.0134 16.5663 20.0134 16.304V11.9562C20.0134 10.9068 19.1549 10.0482 18.1054 10.0482H9.81569C8.76634 10.0482 7.90771 10.9068 7.90771 11.9562V16.304C7.90771 16.5663 7.96166 16.8165 8.05852 17.0445H19.8626Z" stroke="black" stroke-width="0.875251" stroke-miterlimit="10" stroke-linecap="round" stroke-linejoin="round"/>
<path d="M40.791 22.2837V20.4263C40.791 18.5586 39.2769 17.0444 37.4091 17.0444H5.84113C3.97341 17.0444 2.45926 18.5585 2.45926 20.4263V22.2837H40.791Z" fill="#FFE5C2"/>
<path d="M37.4095 17.0444H33.5846C35.4523 17.0444 36.9665 18.5585 36.9665 20.4263V22.2837H40.7913V20.4263C40.7912 18.5585 39.2772 17.0444 37.4095 17.0444Z" fill="#FED2A4"/>
<path d="M28.2651 17.0444H5.84113C3.97341 17.0444 2.45926 18.5585 2.45926 20.4263V22.2007H40.791V20.4263C40.791 18.5586 39.2769 17.0444 37.4091 17.0444H31.17" stroke="black" stroke-width="0.875251" stroke-miterlimit="10" stroke-linecap="round" stroke-linejoin="round"/>
<path d="M41.0054 28.9136H2.24498C1.55742 28.9136 1 28.3562 1 27.6686V23.4457C1 22.7581 1.55742 22.2007 2.24498 22.2007H41.0054C41.6929 22.2007 42.2504 22.7581 42.2504 23.4457V27.6686C42.2504 28.3562 41.6929 28.9136 41.0054 28.9136Z" fill="#F6A96C"/>
<path d="M41.0053 22.2007H36.8139C37.5015 22.2007 38.0589 22.7581 38.0589 23.4457V27.6686C38.0589 28.3562 37.5015 28.9136 36.8139 28.9136H41.0053C41.6929 28.9136 42.2503 28.3562 42.2503 27.6686V23.4457C42.2503 22.7581 41.6929 22.2007 41.0053 22.2007Z" fill="#EA9B58"/>
<path d="M1 27.6687C1 28.3563 1.55742 28.9137 2.24498 28.9137H41.0054C41.6929 28.9137 42.2504 28.3563 42.2504 27.6687V25.748H1V27.6687Z" fill="#B5ADB6"/>
<path d="M42.2503 27.6687V25.748H38.0589V27.6687C38.0589 28.3563 37.5015 28.9137 36.8139 28.9137H41.0053C41.6929 28.9137 42.2503 28.3563 42.2503 27.6687Z" fill="#A79BA7"/>
<path d="M14.6533 28.9136H41.0054C41.6929 28.9136 42.2504 28.3562 42.2504 27.6686V23.4457C42.2504 22.7581 41.6929 22.2007 41.0054 22.2007H2.24498C1.55742 22.2007 1 22.7581 1 23.4457V27.6686C1 28.3562 1.55742 28.9136 2.24498 28.9136H11.7483" stroke="black" stroke-width="0.875251" stroke-miterlimit="10" stroke-linecap="round" stroke-linejoin="round"/>
<path d="M42.2504 25.748H1" stroke="black" stroke-width="0.875251" stroke-miterlimit="10" stroke-linecap="round" stroke-linejoin="round"/>
<path d="M13.4906 0.151825L14.3884 1.79329C14.4152 1.84226 14.4555 1.88251 14.5045 1.90932L16.1459 2.80712C16.3484 2.91784 16.3484 3.20859 16.1459 3.31922L14.5045 4.21702C14.4555 4.24383 14.4152 4.28408 14.3884 4.33305L13.4906 5.97452C13.3799 6.17695 13.0892 6.17695 12.9785 5.97452L12.0807 4.33305C12.0539 4.28408 12.0137 4.24383 11.9647 4.21702L10.3232 3.31922C10.1208 3.2085 10.1208 2.91776 10.3232 2.80712L11.9647 1.90932C12.0137 1.88251 12.0539 1.84226 12.0807 1.79329L12.9785 0.151825C13.0893 -0.0506085 13.3799 -0.0506085 13.4906 0.151825Z" fill="#FFE177"/>
<path d="M16.1459 2.80693L14.9551 2.15564L13.3166 3.05178C13.2676 3.07859 13.2274 3.11884 13.2006 3.16781L12.3221 4.77408L12.9785 5.97441C13.0893 6.17685 13.38 6.17685 13.4907 5.97441L14.3884 4.33295C14.4153 4.28398 14.4555 4.24372 14.5045 4.21691L16.1459 3.31912C16.3484 3.2084 16.3484 2.91765 16.1459 2.80693Z" fill="#FFD15B"/>
</svg>
