<svg width="20" height="20" viewBox="0 0 20 20" fill="none" xmlns="http://www.w3.org/2000/svg">
<path d="M9.99967 19.1668C12.4308 19.1668 14.7625 18.2011 16.4815 16.482C18.2005 14.763 19.1663 12.4313 19.1663 10.0002C19.1663 7.569 18.2006 5.23733 16.4815 3.51833C14.7625 1.79933 12.4308 0.833496 9.99967 0.833496C7.56851 0.833496 5.23684 1.79925 3.51784 3.51833C1.79884 5.23733 0.833008 7.569 0.833008 10.0002C0.833008 12.4313 1.79876 14.763 3.51784 16.482C5.23684 18.201 7.56851 19.1668 9.99967 19.1668ZM5.24134 10.2418C5.39746 10.0866 5.60866 9.99951 5.82884 9.99951C6.04902 9.99951 6.26022 10.0866 6.41634 10.2418L8.33301 12.1585L13.158 7.3335C13.3725 7.14978 13.6656 7.08721 13.9364 7.16735C14.2072 7.24743 14.4191 7.45928 14.4992 7.73012C14.5793 8.00095 14.5167 8.29398 14.333 8.5085L8.91634 13.9252C8.76022 14.0804 8.54903 14.1675 8.32885 14.1675C8.10866 14.1675 7.89746 14.0804 7.74134 13.9252L5.24134 11.4252C5.0836 11.2687 4.99486 11.0557 4.99486 10.8335C4.99486 10.6113 5.08359 10.3983 5.24134 10.2418Z" fill="#111111"/>
</svg>
