<svg width="21" height="20" viewBox="0 0 21 20" fill="none" xmlns="http://www.w3.org/2000/svg">
<g clipPath="url(#clip0_999_3655)">
<path d="M2.62974 2.67773H2.62576C2.40958 2.67773 2.23438 2.85294 2.23438 3.06912C2.23438 3.28531 2.40958 3.46051 2.62576 3.46051H2.62974C2.84592 3.46051 3.02113 3.28531 3.02113 3.06912C3.02113 2.85294 2.84592 2.67773 2.62974 2.67773Z" fill="black"/>
<path d="M4.56822 2.67773H4.56424C4.34806 2.67773 4.17285 2.85294 4.17285 3.06912C4.17285 3.28531 4.34806 3.46051 4.56424 3.46051H4.56822C4.7844 3.46051 4.95961 3.28531 4.95961 3.06912C4.95961 2.85294 4.7844 2.67773 4.56822 2.67773Z" fill="black"/>
<path d="M6.50669 2.67773H6.50272C6.28654 2.67773 6.11133 2.85294 6.11133 3.06912C6.11133 3.28531 6.28654 3.46051 6.50272 3.46051H6.50669C6.72287 3.46051 6.89808 3.28531 6.89808 3.06912C6.89808 2.85294 6.72287 2.67773 6.50669 2.67773Z" fill="black"/>
<path d="M17.3897 2.67773H9.83866C9.62247 2.67773 9.44727 2.85294 9.44727 3.06912C9.44727 3.28515 9.62247 3.46051 9.83866 3.46051H17.3897C17.6059 3.46051 17.7811 3.28515 17.7811 3.06912C17.7811 2.85294 17.6059 2.67773 17.3897 2.67773Z" fill="black"/>
<path d="M10.2889 18.4902C10.186 18.4902 10.0854 18.5321 10.0121 18.6049C9.93935 18.6777 9.89746 18.7787 9.89746 18.8816C9.89746 18.9845 9.93935 19.0856 10.0121 19.1583C10.0854 19.2311 10.186 19.273 10.2889 19.273C10.3917 19.273 10.4928 19.2311 10.5656 19.1583C10.6387 19.0856 10.6802 18.9845 10.6802 18.8816C10.6802 18.7787 10.6387 18.6777 10.5656 18.6049C10.4928 18.5321 10.3917 18.4902 10.2889 18.4902Z" fill="black"/>
<path d="M18.7957 0.802734H1.24343C0.557883 0.802734 0 1.36062 0 2.04616V18.0304C0 18.7161 0.557883 19.2739 1.24343 19.2739H8.64971C8.86589 19.2739 9.0411 19.0987 9.0411 18.8825C9.0411 18.6663 8.86589 18.4911 8.64971 18.4911H1.24343C0.989481 18.4911 0.782779 18.2845 0.782779 18.0304V5.3346H19.2564V18.0304C19.2564 18.2844 19.0497 18.4911 18.7957 18.4911H11.8852C11.6691 18.4911 11.4939 18.6663 11.4939 18.8825C11.4939 19.0987 11.6691 19.2739 11.8852 19.2739H18.7957C19.4813 19.2739 20.0391 18.7161 20.0391 18.0304V2.04616C20.0391 1.36062 19.4813 0.802734 18.7957 0.802734ZM0.782779 4.55166V2.04616C0.782779 1.79222 0.989481 1.58551 1.24343 1.58551H18.7957C19.0497 1.58551 19.2564 1.79222 19.2564 2.04616V4.55182H0.782779V4.55166Z" fill="black"/>
<path d="M6.96871 9.80353C6.96871 9.02656 6.33667 8.39453 5.5597 8.39453H4.24198C4.02579 8.39453 3.85059 8.56974 3.85059 8.78592V12.8564C3.85059 13.0726 4.02579 13.2478 4.24198 13.2478H5.5597C6.33667 13.2478 6.96871 12.6157 6.96871 11.8388C6.96871 11.439 6.80114 11.0778 6.53267 10.8211C6.80114 10.5644 6.96871 10.2033 6.96871 9.80353ZM6.18593 11.8388C6.18593 12.184 5.90492 12.465 5.5597 12.465H4.63336V11.2125H5.5597C5.90492 11.2125 6.18593 11.4934 6.18593 11.8388ZM4.63336 10.4298V9.17731H5.5597C5.90507 9.17731 6.18593 9.45832 6.18593 9.80353C6.18593 10.1488 5.90507 10.4298 5.5597 10.4298H4.63336Z" fill="black"/>
<path d="M8.08768 8.39453C7.8715 8.39453 7.69629 8.56974 7.69629 8.78592V11.9511C7.69629 12.6662 8.27802 13.2478 8.99292 13.2478C9.2091 13.2478 9.38431 13.0726 9.38431 12.8564C9.38431 12.6402 9.2091 12.465 8.99292 12.465C8.70962 12.465 8.47907 12.2344 8.47907 11.9511V8.78592C8.47907 8.56974 8.30386 8.39453 8.08768 8.39453Z" fill="black"/>
<path d="M12.7154 11.8315C12.7154 11.0499 12.0797 10.4141 11.2981 10.4141C10.5166 10.4141 9.88086 11.0499 9.88086 11.8315C9.88086 12.613 10.5167 13.2487 11.2981 13.2487C12.0797 13.2487 12.7154 12.613 12.7154 11.8315ZM10.6636 11.8315C10.6636 11.4815 10.9483 11.1968 11.2981 11.1968C11.6479 11.1968 11.9326 11.4815 11.9326 11.8315C11.9326 12.1813 11.6481 12.466 11.2981 12.466C10.9482 12.466 10.6636 12.1813 10.6636 11.8315Z" fill="black"/>
<path d="M14.7718 14.3446C14.4219 14.3446 14.1373 14.0599 14.1373 13.7101C14.1373 13.494 13.9621 13.3188 13.7459 13.3188C13.5297 13.3188 13.3545 13.494 13.3545 13.7101C13.3545 14.4917 13.9903 15.1274 14.7718 15.1274C15.5533 15.1274 16.1892 14.4917 16.1892 13.7101V11.8315C16.1892 11.0499 15.5533 10.4141 14.7718 10.4141C13.9903 10.4141 13.3545 11.0499 13.3545 11.8315C13.3545 12.613 13.9903 13.2487 14.7718 13.2487C14.9999 13.2487 15.2153 13.1943 15.4064 13.0981V13.7101C15.4064 14.0599 15.1217 14.3446 14.7718 14.3446ZM14.7718 12.466C14.4219 12.466 14.1373 12.1813 14.1373 11.8315C14.1373 11.4815 14.4219 11.1968 14.7718 11.1968C15.1217 11.1968 15.4064 11.4815 15.4064 11.8315C15.4064 12.1813 15.1217 12.466 14.7718 12.466Z" fill="black"/>
<path d="M4.24198 17.0836H15.7981C16.0142 17.0836 16.1894 16.9084 16.1894 16.6922C16.1894 16.476 16.0142 16.3008 15.7981 16.3008H4.24198C4.02595 16.3008 3.85059 16.476 3.85059 16.6922C3.85059 16.9084 4.02595 17.0836 4.24198 17.0836Z" fill="black"/>
</g>
<defs>
<clipPath id="clip0_999_3655">
<rect width="20.0391" height="20" fill="white"/>
</clipPath>
</defs>
</svg>
