<svg width="13" height="16" viewBox="0 0 13 16" fill="none" xmlns="http://www.w3.org/2000/svg">
<path d="M0.833333 0.416748H12.1667C12.3545 0.416748 12.5347 0.491376 12.6675 0.624214C12.8004 0.757052 12.875 0.93722 12.875 1.12508V14.7789C12.8751 14.838 12.8603 14.8962 12.8322 14.9481C12.804 15.0001 12.7632 15.0442 12.7137 15.0763C12.6641 15.1085 12.6073 15.1278 12.5483 15.1324C12.4894 15.137 12.4303 15.1267 12.3763 15.1026L6.5 12.4797L0.623667 15.1019C0.569764 15.126 0.510696 15.1362 0.451832 15.1317C0.392969 15.1271 0.336178 15.1079 0.286625 15.0758C0.237072 15.0437 0.196329 14.9998 0.168102 14.9479C0.139874 14.896 0.125058 14.838 0.125 14.7789V1.12508C0.125 0.93722 0.199628 0.757052 0.332466 0.624214C0.465304 0.491376 0.645472 0.416748 0.833333 0.416748ZM6.5 8.56258L8.58179 9.65696L8.18442 7.33929L9.86812 5.69737L7.54054 5.35879L6.5 3.25008L5.45875 5.35879L3.13187 5.69737L4.81558 7.33929L4.41892 9.65696L6.5 8.56258Z" fill="#9e7b74"/>
</svg>
