<svg width="40" height="40" viewBox="0 0 40 40" fill="none" xmlns="http://www.w3.org/2000/svg">
<path d="M9.87572 4.08862C9.87572 4.03497 9.87091 3.98263 9.85932 3.93107C9.7821 3.3859 9.31778 2.96387 8.75085 2.96387C8.18365 2.96387 7.71922 3.38587 7.64238 3.93107C7.63197 3.98263 7.62598 4.0351 7.62598 4.08862V7.26949C7.62598 7.32352 7.63079 7.37548 7.64238 7.42665C7.71842 7.97261 8.18392 8.39461 8.75085 8.39461C9.31765 8.39461 9.78212 7.97261 9.85932 7.42665C9.86973 7.37547 9.87572 7.32339 9.87572 7.26949V4.08862Z" fill="#9e7b74"/>
<path d="M32.3757 4.08862C32.3757 4.03497 32.3713 3.98263 32.3593 3.93107C32.2821 3.3859 31.8178 2.96387 31.2508 2.96387C30.684 2.96387 30.2196 3.38587 30.1424 3.93107C30.132 3.98263 30.126 4.0351 30.126 4.08862V7.26949C30.126 7.32352 30.1308 7.37548 30.1424 7.42665C30.2196 7.97261 30.6839 8.39461 31.2508 8.39461C31.8176 8.39461 32.2821 7.97261 32.3593 7.42665C32.3697 7.37547 32.3757 7.32339 32.3757 7.26949V4.08862Z" fill="#9e7b74"/>
<path d="M35.8869 5.38591H33.501V7.26911C33.501 8.51118 32.493 9.51911 31.251 9.51911C30.0089 9.51911 29.001 8.51118 29.001 7.26911V5.38591H11.001V7.26911C11.001 8.51118 9.99304 9.51911 8.75098 9.51911C7.50891 9.51911 6.50098 8.51118 6.50098 7.26911V5.38591H4.11738C2.94901 5.38591 2.00098 6.33278 2.00098 7.49958V32.5202C2.00098 33.6874 2.94901 34.6366 4.11504 34.6366H35.8847C37.0531 34.6366 38.0011 33.6874 38.0011 32.5226L38.001 7.50058C38.001 6.33261 37.0542 5.38574 35.8869 5.38574L35.8869 5.38591ZM4.25091 32.3859V14.3656H35.7512V32.3859H4.25091Z" fill="#9e7b74"/>
</svg>
