<svg width="20" height="20" viewBox="0 0 20 20" fill="none" xmlns="http://www.w3.org/2000/svg">
<path d="M14.583 2.75008H18.2497C18.4928 2.75008 18.7259 2.84666 18.8979 3.01857C19.0698 3.19048 19.1663 3.42363 19.1663 3.66675V18.3334C19.1663 18.5765 19.0698 18.8097 18.8979 18.9816C18.7259 19.1535 18.4928 19.2501 18.2497 19.2501H1.74967C1.50656 19.2501 1.2734 19.1535 1.10149 18.9816C0.929585 18.8097 0.833008 18.5765 0.833008 18.3334V3.66675C0.833008 3.42363 0.929585 3.19048 1.10149 3.01857C1.2734 2.84666 1.50656 2.75008 1.74967 2.75008H5.41634V0.916748H7.24967V2.75008H12.7497V0.916748H14.583V2.75008ZM17.333 10.0834H2.66634V17.4167H17.333V10.0834ZM12.7497 4.58341H7.24967V6.41675H5.41634V4.58341H2.66634V8.25008H17.333V4.58341H14.583V6.41675H12.7497V4.58341ZM4.49967 11.9167H6.33301V13.7501H4.49967V11.9167ZM9.08301 11.9167H10.9163V13.7501H9.08301V11.9167ZM13.6663 11.9167H15.4997V13.7501H13.6663V11.9167Z" fill="#9e7b74"/>
</svg>
