<svg width="24" height="24" viewBox="0 0 24 24" fill="none" xmlns="http://www.w3.org/2000/svg">
<path d="M19.5 0.75H4.5C4.30109 0.75 4.11032 0.828984 3.96968 0.96968C3.82898 1.1103 3.75 1.30108 3.75 1.5V22.5C3.75 22.6989 3.82898 22.8897 3.96968 23.0303C4.1103 23.171 4.30108 23.25 4.5 23.25H4.59977C4.79867 23.2499 4.98937 23.1709 5.13001 23.0302L12.0496 16.11L18.9698 23.0302C19.1104 23.1709 19.3012 23.2498 19.5 23.2498C19.699 23.2498 19.8896 23.1709 20.0304 23.0302C20.171 22.8896 20.25 22.6989 20.25 22.5V1.5C20.25 1.30109 20.1711 1.11032 20.0304 0.96968C19.8897 0.828976 19.6989 0.75 19.5 0.75Z" fill="#111111"/>
</svg>
