<svg width="28" height="22" viewBox="0 0 28 22" fill="none" xmlns="http://www.w3.org/2000/svg">
<path d="M18.3652 0.306318C15.1404 0.241829 11.8142 2.08851 10.9019 6.25537C7.18837 4.98786 3.83543 7.48779 4.18372 11.4794C2.24075 12.2648 0.875 14.1629 0.875 16.3939C0.875 19.3317 3.24001 21.6967 6.17773 21.6967H12.6194C12.6176 19.9113 12.6139 16.3291 12.6139 15.6505L11.1032 16.198C10.0073 16.6703 9.19791 15.2902 10.1364 14.431L12.9947 11.6533C13.6476 11.0005 14.4273 11.0753 15.0053 11.6533L17.8635 14.431C18.8021 15.2902 17.9926 16.6703 16.8967 16.198L15.3861 15.6505V21.6967H21.8223C24.76 21.6967 27.125 19.3317 27.125 16.3939C27.125 14.2317 25.8416 12.3834 23.9939 11.5563C27.5741 4.57656 23.0784 0.400428 18.3652 0.306318Z" fill="white"/>
</svg>
