<svg width="12" height="15" viewBox="0 0 12 15" fill="none" xmlns="http://www.w3.org/2000/svg">
<path d="M11.3337 14.6667H10.0003V13.3334C10.0003 12.803 9.78961 12.2943 9.41454 11.9192C9.03947 11.5441 8.53076 11.3334 8.00033 11.3334H4.00033C3.46989 11.3334 2.96118 11.5441 2.58611 11.9192C2.21104 12.2943 2.00033 12.803 2.00033 13.3334V14.6667H0.666992V13.3334C0.666992 12.4494 1.01818 11.6015 1.6433 10.9764C2.26842 10.3513 3.11627 10.0001 4.00033 10.0001H8.00033C8.88438 10.0001 9.73223 10.3513 10.3573 10.9764C10.9825 11.6015 11.3337 12.4494 11.3337 13.3334V14.6667ZM6.00033 8.66675C5.47504 8.66675 4.95489 8.56328 4.46959 8.36227C3.98429 8.16125 3.54333 7.86661 3.1719 7.49518C2.80046 7.12374 2.50583 6.68278 2.30481 6.19748C2.10379 5.71218 2.00033 5.19204 2.00033 4.66675C2.00033 4.14146 2.10379 3.62132 2.30481 3.13601C2.50583 2.65071 2.80046 2.20976 3.1719 1.83832C3.54333 1.46689 3.98429 1.17225 4.46959 0.97123C4.95489 0.770211 5.47504 0.666748 6.00033 0.666748C7.06119 0.666748 8.07861 1.08818 8.82875 1.83832C9.5789 2.58847 10.0003 3.60588 10.0003 4.66675C10.0003 5.72761 9.5789 6.74503 8.82875 7.49518C8.07861 8.24532 7.06119 8.66675 6.00033 8.66675ZM6.00033 7.33342C6.70757 7.33342 7.38585 7.05246 7.88594 6.55237C8.38604 6.05227 8.66699 5.37399 8.66699 4.66675C8.66699 3.9595 8.38604 3.28123 7.88594 2.78113C7.38585 2.28103 6.70757 2.00008 6.00033 2.00008C5.29308 2.00008 4.6148 2.28103 4.11471 2.78113C3.61461 3.28123 3.33366 3.9595 3.33366 4.66675C3.33366 5.37399 3.61461 6.05227 4.11471 6.55237C4.6148 7.05246 5.29308 7.33342 6.00033 7.33342Z" fill="#747474"/>
</svg>
