<svg width="18" height="20" viewBox="0 0 18 20" fill="none" xmlns="http://www.w3.org/2000/svg">
<path fill-rule="evenodd" clip-rule="evenodd" d="M5.73239 1.89955C5.73284 1.47253 5.90264 1.06321 6.20459 0.761263C6.50647 0.459379 6.91585 0.289513 7.3428 0.289062H10.658C11.0849 0.289518 11.4943 0.459379 11.7962 0.761263C12.0981 1.06321 12.2679 1.47253 12.2684 1.89955V2.61068L5.73239 2.61061V1.89948V1.89955ZM16.2697 16.7689C16.2688 17.5473 15.9592 18.2935 15.4088 18.8439C14.8584 19.3943 14.1121 19.704 13.3338 19.705H4.61995C3.8415 19.704 3.09522 19.3944 2.54479 18.8439C1.99434 18.2935 1.68464 17.5472 1.68372 16.7688V6.63545C1.68385 6.46051 1.69954 6.28596 1.7306 6.11383H16.2226C16.2539 6.28596 16.2697 6.46051 16.2697 6.63545L16.2697 16.7689ZM16.885 5.35705H1.11602C0.764071 5.35177 0.441088 5.16095 0.266605 4.8553C0.0921214 4.54956 0.0921214 4.17443 0.266605 3.86878C0.441088 3.56305 0.764071 3.3723 1.11602 3.36703H16.885C17.237 3.3723 17.56 3.56306 17.7344 3.86878C17.9089 4.17445 17.9089 4.54958 17.7344 4.8553C17.56 5.16096 17.237 5.35178 16.885 5.35705ZM6.46702 8.90821C6.46702 8.77325 6.39502 8.64851 6.27815 8.581C6.16123 8.51355 6.01722 8.51355 5.90035 8.581C5.78349 8.64851 5.71149 8.77325 5.71149 8.90821V17.0529C5.71149 17.1878 5.78349 17.3125 5.90035 17.38C6.01722 17.4475 6.16122 17.4475 6.27815 17.38C6.39502 17.3125 6.46702 17.1878 6.46702 17.0529V8.90821ZM12.2449 8.90821C12.2449 8.77306 12.1727 8.64813 12.0557 8.58055C11.9386 8.51297 11.7944 8.51297 11.6773 8.58055C11.5603 8.64812 11.4881 8.77306 11.4881 8.90821V17.0529C11.4881 17.188 11.5603 17.3129 11.6773 17.3805C11.7944 17.4481 11.9386 17.4481 12.0557 17.3805C12.1727 17.3129 12.2449 17.188 12.2449 17.0529V8.90821Z" fill="#9e7b74"/>
</svg>
