<svg width="39" height="27" viewBox="0 0 39 27" fill="none" xmlns="http://www.w3.org/2000/svg">
<path d="M34.4449 2.4934C34.4449 3.87047 33.2715 4.98679 31.824 4.98679C30.3765 4.98679 29.2031 3.87047 29.2031 2.4934C29.2031 1.11633 30.3765 0 31.824 0C33.2715 0 34.4449 1.11633 34.4449 2.4934Z" fill="#9e7b74"/>
<path d="M14.3078 18.7606L12.1862 15.9902L12.519 18.4439C12.5606 18.5627 12.5606 18.6814 12.4775 18.7606L10.3975 23.9847C10.1063 24.6575 10.3559 25.449 11.0215 25.8052C11.1463 25.8843 11.3126 25.924 11.4375 25.9635C12.103 26.1219 12.8103 25.7657 13.1015 25.1325L14.6406 21.6893L14.391 18.998C14.3909 18.8794 14.3493 18.8002 14.3078 18.7606Z" fill="#9e7b74"/>
<path d="M21.339 10.0527L18.635 9.69647C18.635 9.69647 16.9295 7.36141 16.7215 7.08444C16.5135 6.84701 16.1806 6.29291 15.7646 6.01594C15.2237 5.65972 14.5581 5.54108 13.9341 5.65972C13.6013 5.73882 13.227 5.9367 13.019 6.05548C12.811 6.21382 9.69102 8.351 9.69102 8.351L9.02545 8.86556C8.73431 9.06344 8.56789 9.38012 8.52632 9.69664L8.23518 12.8628V13.1794C8.27675 13.3773 8.40161 13.5752 8.56803 13.7335L7.40316 16.0686L4.99029 14.9604C4.36629 14.6834 3.65916 14.9208 3.36786 15.5145L0.122991 21.8863C-0.168153 22.48 0.0814188 23.1527 0.705426 23.4299L3.36786 24.6567C3.36786 25.3692 3.99186 25.9628 4.74073 25.9628C5.4896 25.9628 6.1136 25.3692 6.1136 24.6567C6.1136 24.5776 6.07203 24.4984 6.07203 24.3797L9.19175 18.1266C9.48289 17.533 9.23332 16.8602 8.60931 16.5831L8.23488 16.4248L9.39975 14.0897H9.48289C10.1485 14.0897 10.6478 13.5751 10.7309 12.9419L10.9805 10.3695L11.9789 9.69672L11.6045 13.1795C11.5629 13.5357 11.6876 13.8919 11.8956 14.1689L15.0156 18.2453C15.1405 18.4432 15.2652 18.641 15.2652 18.8785L15.8478 24.4588C15.9309 25.1712 16.3886 25.844 17.1373 25.9628C17.3037 26.0023 17.4285 25.9628 17.5949 25.9628C18.302 25.8837 18.926 25.29 18.8429 24.6171L18.5102 17.9682C18.5102 17.7704 18.4686 17.612 18.3437 17.4537C18.3437 17.4537 16.4302 14.0105 16.3053 13.8126C16.2222 13.6543 16.2222 13.4564 16.2637 13.2981C16.2637 13.1397 16.4717 10.8444 16.4717 10.8444L16.9709 11.5171C17.1789 11.7941 17.47 11.9524 17.8029 12.0317L21.0893 12.467H21.4222C22.0046 12.3879 22.4622 11.9129 22.4622 11.3192C22.5453 10.6465 22.0046 10.1321 21.339 10.0528L21.339 10.0527ZM3.90862 19.6303L2.57749 22.3215C2.45263 22.5194 2.20305 22.6382 1.99505 22.5194C1.78705 22.4006 1.6622 22.1632 1.78705 21.9653L3.11818 19.274C3.24304 19.0761 3.49262 18.9574 3.70062 19.0761C3.90862 19.1948 3.99176 19.4324 3.90862 19.6303ZM4.69905 25.1314C4.40791 25.1314 4.15818 24.894 4.15818 24.6169C4.15818 24.3399 4.40776 24.1023 4.69905 24.1023C4.9902 24.1023 5.23992 24.3397 5.23992 24.6169C5.23979 24.9335 4.99021 25.1314 4.69905 25.1314Z" fill="#9e7b74"/>
<path d="M17.2309 2.12686C17.4438 3.48886 16.4559 4.75719 15.0242 4.95983C13.5925 5.16235 12.2594 4.22241 12.0465 2.86041C11.8335 1.49842 12.8214 0.230082 14.2532 0.0274492C15.6848 -0.175071 17.018 0.764862 17.2309 2.12686Z" fill="#9e7b74"/>
<path d="M38.6447 9.29918L38.1039 9.1804V7.71612C38.1039 7.43914 37.8959 7.24127 37.6047 7.24127H35.5663C34.9423 6.2914 34.5263 5.6582 33.6943 5.6582H29.9919C29.1599 5.6582 28.7023 6.2914 28.1199 7.24127H26.0815C25.7903 7.24127 25.5823 7.43915 25.5823 7.71612V9.1804L25.0415 9.29918C24.4175 9.45751 24.043 10.0907 24.2095 10.6844C24.3759 11.278 24.9999 11.6342 25.5823 11.5154V16.7C25.5823 16.977 25.7903 17.1748 26.0815 17.1748H28.827L27.8702 24.457C27.787 25.1694 28.3277 25.8421 29.0766 25.9212H29.243C29.9502 25.9212 30.5326 25.4464 30.6159 24.7735L31.6143 17.1747H32.1135L33.0703 24.7738C33.1535 25.4465 33.7359 25.9216 34.4432 25.9216H34.6096C35.3585 25.8425 35.8992 25.1696 35.8161 24.4573L34.8592 17.1752H37.6048C37.8959 17.1752 38.1039 16.9773 38.1039 16.7003V11.5158C38.187 11.5158 38.2703 11.5553 38.3535 11.5553C38.8943 11.5553 39.3519 11.1991 39.5183 10.7242C39.6432 10.0909 39.2688 9.45772 38.6448 9.29938L38.6447 9.29918ZM37.1055 16.2251H26.5807V8.19103H37.1055V16.2251Z" fill="#9e7b74"/>
<path d="M29.2857 12.3497H29.7017V14.7243C29.7017 14.8034 29.7849 14.8826 29.8682 14.8826H31.1162C31.1993 14.8826 31.2826 14.8035 31.2826 14.7243L31.2825 13.7744C31.2825 13.537 31.4489 13.2996 31.74 13.2599C31.9064 13.2203 32.1145 13.2994 32.1976 13.4182C32.2807 13.4973 32.364 13.6556 32.364 13.7744V14.7638C32.364 14.843 32.4472 14.9222 32.5304 14.9222H33.7784C33.8616 14.9222 33.9449 14.8431 33.9449 14.7638V12.3892H34.3609C34.6104 12.3892 34.6937 12.1123 34.5273 11.9539L31.9897 9.53979C31.9066 9.46069 31.7402 9.46069 31.6153 9.53979L29.0777 11.9539C28.9113 12.1123 29.0362 12.3497 29.2857 12.3497Z" fill="#9e7b74"/>
</svg>
