<svg width="24" height="24" viewBox="0 0 24 24" fill="none" xmlns="http://www.w3.org/2000/svg">
<path d="M12 23C14.9174 23 17.7154 21.8411 19.7782 19.7782C21.841 17.7154 23 14.9174 23 12C23 9.0826 21.8411 6.2846 19.7782 4.2218C17.7154 2.159 14.9174 1 12 1C9.0826 1 6.2846 2.1589 4.2218 4.2218C2.159 6.2846 1 9.0826 1 12C1 14.9174 2.1589 17.7154 4.2218 19.7782C6.2846 21.841 9.0826 23 12 23ZM6.29 12.29C6.47734 12.1037 6.73078 11.9992 6.995 11.9992C7.25922 11.9992 7.51266 12.1038 7.7 12.29L10 14.59L15.79 8.8C16.0474 8.57954 16.3991 8.50446 16.7241 8.60062C17.0491 8.69672 17.3033 8.95094 17.3994 9.27594C17.4956 9.60094 17.4205 9.95258 17.2 10.21L10.7 16.71C10.5127 16.8963 10.2592 17.0008 9.995 17.0008C9.73078 17.0008 9.47734 16.8963 9.29 16.71L6.29 13.71C6.10071 13.5223 5.99422 13.2666 5.99422 13C5.99422 12.7334 6.1007 12.4777 6.29 12.29Z" fill="#9e7b74"/>
</svg>
