<svg width="40" height="40" viewBox="0 0 40 40" fill="none" xmlns="http://www.w3.org/2000/svg">
<g clipPath="url(#clip0_162_5921)">
<path d="M20 40C31.0457 40 40 31.0457 40 20C40 8.95431 31.0457 0 20 0C8.95431 0 0 8.95431 0 20C0 31.0457 8.95431 40 20 40Z" fill="#EDEDED"/>
<path d="M19.7632 9.00001C17.5036 8.99729 15.3134 9.77932 13.5665 11.2124C11.8196 12.6456 10.6246 14.6409 10.1857 16.8574C9.74686 19.0738 10.0913 21.3739 11.1602 23.3646C12.2291 25.3553 13.9562 26.913 16.0463 27.7715C16.1042 27.7956 16.1558 27.8326 16.197 27.88L19.4556 31.6136C19.4944 31.6565 19.5418 31.6908 19.5947 31.7144C19.6476 31.7379 19.7049 31.75 19.7628 31.75C19.8206 31.75 19.8779 31.7379 19.9308 31.7144C19.9837 31.6908 20.0311 31.6565 20.0699 31.6136L23.3293 27.8792C23.3706 27.8319 23.4221 27.7947 23.48 27.7707C25.5696 26.9118 27.2962 25.3541 28.3647 23.3636C29.4331 21.3732 29.7774 19.0734 29.3386 16.8573C28.8998 14.6411 27.7051 12.6461 25.9587 11.2131C24.2122 9.77997 22.0223 8.99775 19.7632 9.00001ZM19.7632 27.284C18.0756 27.284 16.4259 26.7835 15.0228 25.846C13.6196 24.9084 12.526 23.5758 11.8802 22.0167C11.2343 20.4576 11.0654 18.7419 11.3946 17.0869C11.7238 15.4317 12.5365 13.9113 13.7298 12.718C14.9231 11.5248 16.4434 10.7121 18.0985 10.3829C19.7537 10.0537 21.4693 10.2226 23.0285 10.8684C24.5875 11.5142 25.9201 12.6079 26.8577 14.011C27.7952 15.4142 28.2956 17.0638 28.2956 18.7514C28.2931 21.0136 27.3933 23.1823 25.7937 24.782C24.1941 26.3816 22.0254 27.2813 19.7632 27.284Z" fill="black"/>
<path d="M18.6109 22.84C18.5703 22.8906 18.547 22.9528 18.5443 23.0176C18.5443 23.3052 19.0655 23.627 19.7632 23.627C20.4608 23.627 20.9821 23.3052 20.9821 23.0176C20.9794 22.9528 20.956 22.8906 20.9155 22.84C20.5502 22.8241 20.1695 22.8145 19.7632 22.8145C19.3569 22.8145 18.9761 22.8241 18.6109 22.84Z" fill="black"/>
<path d="M19.7631 11.0315C18.3714 11.0298 17.0052 11.4049 15.8093 12.1169C14.6135 12.8289 13.6327 13.8512 12.9709 15.0755C12.3091 16.2999 11.991 17.6805 12.0504 19.0709C12.1097 20.4614 12.5443 21.8099 13.3081 22.9734C14.215 22.6191 16.1608 22.0522 19.3568 22.0067V12.6567C19.3568 12.549 19.3996 12.4456 19.4758 12.3694C19.552 12.2932 19.6554 12.2504 19.7631 12.2504C19.8709 12.2504 19.9742 12.2932 20.0504 12.3694C20.1267 12.4456 20.1694 12.549 20.1694 12.6567V13.2057L23.7885 14.8203C23.9205 14.8785 24.0328 14.9737 24.1117 15.0946C24.1905 15.2154 24.2325 15.3566 24.2325 15.5009C24.2325 15.6452 24.1905 15.7864 24.1117 15.9072C24.0328 16.0281 23.9205 16.1234 23.7885 16.1815L20.1694 17.7961V22.0067C23.3655 22.0522 25.3113 22.6191 26.2182 22.9734C26.9819 21.8099 27.4165 20.4614 27.4759 19.0709C27.5353 17.6805 27.2172 16.2999 26.5553 15.0755C25.8936 13.8512 24.9128 12.8289 23.7169 12.1169C22.5211 11.4049 21.1549 11.0298 19.7631 11.0315Z" fill="black"/>
<path d="M20.1694 16.9063L23.3196 15.5009L20.1694 14.0955V16.9063Z" fill="black"/>
<path d="M21.7801 22.8914C21.7876 22.9332 21.7925 22.9753 21.7948 23.0177C21.7948 23.8153 20.9009 24.4398 19.7632 24.4398C18.6255 24.4398 17.7316 23.8153 17.7316 23.0177C17.7339 22.9753 17.7388 22.9332 17.7463 22.8914C16.4045 22.9704 15.0792 23.2272 13.8051 23.6548C14.5283 24.5354 15.4378 25.2447 16.468 25.7318C17.4982 26.2188 18.6236 26.4714 19.7632 26.4714C20.9028 26.4714 22.0281 26.2188 23.0583 25.7318C24.0886 25.2447 24.998 24.5354 25.7213 23.6548C24.4471 23.2272 23.1218 22.9704 21.7801 22.8914Z" fill="black"/>
</g>
<defs>
<clipPath id="clip0_162_5921">
<rect width="40" height="40" fill="white"/>
</clipPath>
</defs>
</svg>
