<svg width="78" height="78" viewBox="0 0 78 78" fill="none" xmlns="http://www.w3.org/2000/svg">
<g filter="url(#filter0_d_1421_4276)">
<circle cx="36.9373" cy="39.0974" r="20.1209" fill="#EDEDED"/>
<circle cx="36.9373" cy="39.0974" r="19.246" stroke="white" stroke-width="1.74964"/>
</g>
<g clipPath="url(#clip0_1421_4276)">
<path d="M42.9671 44.1779L36.9358 50.2092L30.9044 44.1779C29.7116 42.985 28.8992 41.4652 28.5701 39.8107C28.241 38.1561 28.41 36.4411 29.0555 34.8826C29.7011 33.324 30.7944 31.9919 32.197 31.0547C33.5997 30.1174 35.2488 29.6172 36.9358 29.6172C38.6227 29.6172 40.2718 30.1174 41.6745 31.0547C43.0771 31.9919 44.1704 33.324 44.816 34.8826C45.4615 36.4411 45.6305 38.1561 45.3014 39.8107C44.9723 41.4652 44.1599 42.985 42.9671 44.1779ZM36.9358 41.9375C37.9412 41.9375 38.9054 41.5381 39.6163 40.8272C40.3272 40.1162 40.7266 39.152 40.7266 38.1466C40.7266 37.1412 40.3272 36.177 39.6163 35.466C38.9054 34.7551 37.9412 34.3557 36.9358 34.3557C35.9303 34.3557 34.9661 34.7551 34.2552 35.466C33.5443 36.177 33.1449 37.1412 33.1449 38.1466C33.1449 39.152 33.5443 40.1162 34.2552 40.8272C34.9661 41.5381 35.9303 41.9375 36.9358 41.9375ZM36.9358 40.0421C36.433 40.0421 35.9509 39.8424 35.5955 39.4869C35.24 39.1314 35.0403 38.6493 35.0403 38.1466C35.0403 37.6439 35.24 37.1618 35.5955 36.8063C35.9509 36.4509 36.433 36.2512 36.9358 36.2512C37.4385 36.2512 37.9206 36.4509 38.276 36.8063C38.6315 37.1618 38.8312 37.6439 38.8312 38.1466C38.8312 38.6493 38.6315 39.1314 38.276 39.4869C37.9206 39.8424 37.4385 40.0421 36.9358 40.0421Z" fill="black"/>
</g>
<defs>
<filter id="filter0_d_1421_4276" x="0.194824" y="0.60534" width="76.9846" height="76.9846" filterUnits="userSpaceOnUse" color-interpolation-filters="sRGB">
<feFlood flood-opacity="0" result="BackgroundImageFix"/>
<feColorMatrix in="SourceAlpha" type="matrix" values="0 0 0 0 0 0 0 0 0 0 0 0 0 0 0 0 0 0 127 0" result="hardAlpha"/>
<feMorphology radius="0.87482" operator="dilate" in="SourceAlpha" result="effect1_dropShadow_1421_4276"/>
<feOffset dx="1.74964"/>
<feGaussianBlur stdDeviation="8.7482"/>
<feComposite in2="hardAlpha" operator="out"/>
<feColorMatrix type="matrix" values="0 0 0 0 0 0 0 0 0 0 0 0 0 0 0 0 0 0 0.3 0"/>
<feBlend mode="normal" in2="BackgroundImageFix" result="effect1_dropShadow_1421_4276"/>
<feBlend mode="normal" in="SourceGraphic" in2="effect1_dropShadow_1421_4276" result="shape"/>
</filter>
<clipPath id="clip0_1421_4276">
<rect width="22.7453" height="22.7453" fill="white" transform="translate(25.5645 27.7246)"/>
</clipPath>
</defs>
</svg>
