<svg width="136" height="136" viewBox="0 0 136 136" fill="none" xmlns="http://www.w3.org/2000/svg">
<path d="M41.6189 109.3H35.7024V104.08C35.7024 101.714 33.7777 99.7891 31.4118 99.7891H21.8788C19.5128 99.7891 17.5881 101.714 17.5881 104.08V109.3H11.6719C10.0133 109.3 8.66846 110.645 8.66846 112.303V132.997C8.66846 134.656 10.0133 136 11.6719 136H41.6186C43.2772 136 44.6221 134.655 44.6221 132.997V112.303C44.6221 110.644 43.2775 109.3 41.6189 109.3ZM31.037 109.3H22.2541V104.455H31.037V109.3Z" fill="#9E7B74"/>
<path d="M69.0199 22.3874C75.202 22.3874 80.2135 17.3758 80.2135 11.1937C80.2135 5.01158 75.202 0 69.0199 0C62.8378 0 57.8262 5.01158 57.8262 11.1937C57.8262 17.3758 62.8378 22.3874 69.0199 22.3874Z" fill="#9E7B74"/>
<path d="M124.091 86.6348H121.683V72.2897H123.66C124.25 72.2897 124.728 71.8113 124.728 71.2214V67.6604C124.728 67.0705 124.25 66.5921 123.66 66.5921H109.626C110.42 64.2857 109.572 61.6528 107.425 60.2843L96.3396 53.22L96.2516 38.6702C96.2163 31.6579 90.4828 25.9531 83.4703 25.9531C80.469 25.9531 57.4867 25.9531 54.475 25.9531C47.4625 25.9531 41.729 31.6579 41.6937 38.6702L41.4942 78.3492C41.4791 81.3321 43.8851 83.7623 46.8678 83.7772C46.8774 83.7772 46.8864 83.7772 46.8954 83.7772C49.8654 83.7772 52.281 81.3767 52.2958 78.4036L52.4953 38.7246C52.4982 38.1493 52.966 37.6852 53.5408 37.6866C54.1159 37.6881 54.5807 38.1546 54.5807 38.7294L54.5831 129.516C54.5831 133.096 57.4848 135.998 61.0644 135.998C64.6439 135.998 67.5456 133.096 67.5456 129.516V77.7117H70.3437V129.516C70.3437 133.096 73.2454 135.997 76.8249 135.997C80.4045 135.997 83.3062 133.096 83.3062 129.516C83.3062 44.9373 83.1914 91.2904 83.1885 38.7663C83.1885 38.1493 83.6834 37.6462 84.3004 37.6358C84.9174 37.6257 85.429 38.1124 85.449 38.7291V38.7297L85.5547 56.2261C85.5656 58.0597 86.5061 59.7626 88.0529 60.7481L100.266 68.5314V71.2209C100.266 71.8108 100.745 72.2892 101.335 72.2892H103.311V86.6342H100.903C99.1135 86.6342 97.6629 88.0851 97.6629 89.8746V127.046C97.6629 128.836 99.1137 130.287 100.903 130.287H103.311V133.787C103.311 135.007 104.301 135.997 105.522 135.997C106.742 135.997 107.732 135.007 107.732 133.787V130.287H117.262V133.787C117.262 135.007 118.251 135.997 119.472 135.997C120.693 135.997 121.682 135.007 121.682 133.787V130.287H124.09C125.88 130.287 127.331 128.836 127.331 127.046V89.8749C127.331 88.0854 125.881 86.6348 124.091 86.6348ZM117.262 86.6348H107.734V72.2897H117.262V86.6348Z" fill="#9E7B74"/>
<path d="M124.091 86.6348H121.683V72.2897H123.66C124.25 72.2897 124.728 71.8113 124.728 71.2214V67.6604C124.728 67.0705 124.25 66.5921 123.66 66.5921H109.626C110.42 64.2857 109.572 61.6528 107.425 60.2843L96.3396 53.22L96.2516 38.6702C96.2163 31.6579 90.4828 25.9531 83.4703 25.9531C80.469 25.9531 57.4867 25.9531 54.475 25.9531C47.4625 25.9531 41.729 31.6579 41.6937 38.6702L41.4942 78.3492C41.4791 81.3321 43.8851 83.7623 46.8678 83.7772C46.8774 83.7772 46.8864 83.7772 46.8954 83.7772C49.8654 83.7772 52.281 81.3767 52.2958 78.4036L52.4953 38.7246C52.4982 38.1493 52.966 37.6852 53.5408 37.6866C54.1159 37.6881 54.5807 38.1546 54.5807 38.7294L54.5831 129.516C54.5831 133.096 57.4848 135.998 61.0644 135.998C64.6439 135.998 67.5456 133.096 67.5456 129.516V77.7117H70.3437V129.516C70.3437 133.096 73.2454 135.997 76.8249 135.997C80.4045 135.997 83.3062 133.096 83.3062 129.516C83.3062 44.9373 83.1914 91.2904 83.1885 38.7663C83.1885 38.1493 83.6834 37.6462 84.3004 37.6358C84.9174 37.6257 85.429 38.1124 85.449 38.7291V38.7297L85.5547 56.2261C85.5656 58.0597 86.5061 59.7626 88.0529 60.7481L100.266 68.5314V71.2209C100.266 71.8108 100.745 72.2892 101.335 72.2892H103.311V86.6342H100.903C99.1135 86.6342 97.6629 88.0851 97.6629 89.8746V127.046C97.6629 128.836 99.1137 130.287 100.903 130.287H103.311V133.787C103.311 135.007 104.301 135.997 105.522 135.997C106.742 135.997 107.732 135.007 107.732 133.787V130.287H117.262V133.787C117.262 135.007 118.251 135.997 119.472 135.997C120.693 135.997 121.682 135.007 121.682 133.787V130.287H124.09C125.88 130.287 127.331 128.836 127.331 127.046V89.8749C127.331 88.0854 125.881 86.6348 124.091 86.6348ZM117.262 86.6348H107.734V72.2897H117.262V86.6348Z" fill="#9E7B74"/>
</svg>
