<svg width="34" height="32" viewBox="0 0 34 32" fill="none" xmlns="http://www.w3.org/2000/svg">
<path d="M15.7115 4.49277C12.346 1.12789 6.88911 1.12815 3.52482 4.49303L3.52475 4.4931C0.158644 7.8592 0.158509 13.3152 3.52379 16.6824L16.7352 29.8918L16.7387 29.8954L16.7954 29.9526C16.8594 30.0062 16.9293 30.0305 16.9992 30.0305C17.0697 30.0305 17.1381 30.0067 17.2003 29.9558L17.2648 29.8905L17.2693 29.8859L17.2693 29.8859L30.4757 16.6799L30.4757 16.6799C33.8407 13.3151 33.8409 7.85823 30.4757 4.49236L30.4365 4.45313C27.0682 1.1285 21.6417 1.14124 18.2885 4.49239L15.7115 4.49277ZM15.7115 4.49277C15.7117 4.49289 15.7118 4.49301 15.7119 4.49313L16.292 5.07442L16.9998 5.78366L17.7077 5.07442L18.2877 4.49321L15.7115 4.49277Z" stroke="white" stroke-width="2"/>
</svg>
