<svg width="20" height="20" viewBox="0 0 20 20" fill="none" xmlns="http://www.w3.org/2000/svg">
<path d="M19.1367 8.25573L10.3867 1.38073C10.2764 1.29355 10.1399 1.24609 9.99922 1.24609C9.85859 1.24609 9.72207 1.29356 9.61172 1.38073L0.861719 8.25573C0.686452 8.39414 0.598302 8.61563 0.630602 8.83665C0.662829 9.05761 0.810552 9.24465 1.0181 9.32728C1.22559 9.40983 1.46147 9.37539 1.63672 9.23698L9.99922 2.66831L18.3617 9.24331C18.537 9.38172 18.7729 9.41616 18.9803 9.33361C19.1879 9.251 19.3356 9.06395 19.3678 8.84298C19.4001 8.62195 19.312 8.40046 19.1367 8.26206V8.25573Z" fill="#111111"/>
<path d="M3.125 9.31797V18.1243C3.125 18.2901 3.19082 18.449 3.30807 18.5662C3.42525 18.6835 3.58423 18.7493 3.75 18.7493H7.5C7.66576 18.7493 7.82473 18.6835 7.94193 18.5662C8.05919 18.449 8.125 18.2901 8.125 18.1243V11.8743H11.875V18.1243C11.875 18.2901 11.9408 18.449 12.0581 18.5662C12.1753 18.6835 12.3342 18.7493 12.5 18.7493H16.25C16.4158 18.7493 16.5747 18.6835 16.6919 18.5662C16.8092 18.449 16.875 18.2901 16.875 18.1243V9.31797L10 3.91797L3.125 9.31797Z" fill="#111111"/>
</svg>
