<svg width="20" height="20" viewBox="0 0 20 20" fill="none" xmlns="http://www.w3.org/2000/svg">
<path d="M5.45468 19.5143V16.9688H2.90918L5.45468 19.5143Z" fill="#111111"/>
<path d="M5.4248 8.18164H7.03085V14.7575H5.4248V8.18164Z" fill="#111111"/>
<path d="M7.63672 10.5156H13.2126V12.2731H7.63672V10.5156Z" fill="#111111"/>
<path d="M14.4851 1.63672H4.15176C3.36387 1.63672 2.72754 2.27305 2.72754 3.06094V16.3639H5.75787C5.93971 16.3639 6.06094 16.5154 6.06094 16.667V19.6973H14.4851C15.273 19.6973 15.9093 19.0609 15.9093 18.2731L15.9094 3.06095C15.9094 2.27307 15.273 1.63674 14.4851 1.63674L14.4851 1.63672ZM4.87909 3.84889H10.5458C10.7276 3.84889 10.8488 3.97011 10.8488 4.15195C10.8488 4.3338 10.7276 4.45502 10.5458 4.45502L4.87909 4.45495C4.69726 4.45495 4.57602 4.33373 4.57602 4.15189C4.57609 4.00039 4.72759 3.84889 4.87909 3.84889ZM4.57609 6.03072C4.57609 5.87922 4.69731 5.72765 4.87916 5.72765H13.1217C13.2732 5.72765 13.4247 5.87915 13.4247 6.03072C13.4247 6.18222 13.2732 6.33379 13.1217 6.33379H4.87916C4.72766 6.33379 4.57616 6.18229 4.57616 6.03072H4.57609ZM13.5154 17.4247H7.87909C7.72759 17.4247 7.57602 17.2732 7.57602 17.1217C7.57602 16.9702 7.69725 16.8186 7.87909 16.8186H13.5154C13.6669 16.8186 13.8185 16.9701 13.8185 17.1217C13.8184 17.3036 13.6972 17.4247 13.5154 17.4247ZM13.8184 15.0611C13.8184 15.2429 13.6669 15.3641 13.5154 15.3641L5.12152 15.3641C4.93969 15.3641 4.81846 15.2428 4.81846 15.061V7.87915C4.81846 7.72766 4.93968 7.57609 5.12152 7.57609H13.5457C13.6972 7.57609 13.8488 7.72758 13.8488 7.87915V15.061L13.8184 15.0611Z" fill="#111111"/>
<path d="M7.63672 12.8477H13.2126V14.7568H7.63672V12.8477Z" fill="#111111"/>
<path d="M7.63672 8.18164H13.2126V9.90897H7.63672V8.18164Z" fill="#111111"/>
<path d="M15.8492 0.302734H5.51589C5.00072 0.302734 4.51589 0.605801 4.27344 1.03002H14.4856C15.6068 1.03002 16.5159 1.93913 16.5159 3.06035V18.2119C16.9705 17.9694 17.2735 17.5149 17.2735 16.9694L17.2736 1.72707C17.2736 0.939184 16.6372 0.302851 15.8493 0.302851L15.8492 0.302734Z" fill="#111111"/>
</svg>
