<svg width="19" height="23" viewBox="0 0 19 23" fill="none" xmlns="http://www.w3.org/2000/svg">
<path d="M16.1292 16.0876L9.5 22.7168L2.87084 16.0876C1.55973 14.7765 0.666861 13.106 0.305134 11.2874C-0.0565933 9.46886 0.12907 7.58386 0.838645 5.87081C1.54822 4.15776 2.74984 2.69359 4.29154 1.66346C5.83325 0.633327 7.64581 0.0834961 9.5 0.0834961C11.3542 0.0834961 13.1668 0.633327 14.7085 1.66346C16.2502 2.69359 17.4518 4.15776 18.1614 5.87081C18.8709 7.58386 19.0566 9.46886 18.6949 11.2874C18.3331 13.106 17.4403 14.7765 16.1292 16.0876ZM9.5 11.5417C10.0525 11.5417 10.5824 11.3223 10.9731 10.9316C11.3638 10.5409 11.5833 10.011 11.5833 9.45842C11.5833 8.90588 11.3638 8.37598 10.9731 7.98528C10.5824 7.59458 10.0525 7.37508 9.5 7.37508C8.94747 7.37508 8.41757 7.59458 8.02687 7.98528C7.63616 8.37598 7.41667 8.90588 7.41667 9.45842C7.41667 10.011 7.63616 10.5409 8.02687 10.9316C8.41757 11.3223 8.94747 11.5417 9.5 11.5417Z" fill="#9e7b74"/>
</svg>
