<svg width="20" height="20" viewBox="0 0 20 20" fill="none" xmlns="http://www.w3.org/2000/svg">
<g clipPath="url(#clip0_999_3799)">
<path d="M19.7542 12.217C19.6757 12.5744 19.4122 12.8627 19.0634 12.9734C18.7145 13.0839 18.3332 13 18.0631 12.7533C17.7929 12.5064 17.6749 12.1343 17.7534 11.7769C17.9803 10.7617 18.011 9.71233 17.8435 8.68569C17.5392 6.84801 16.6035 5.17393 15.1976 3.95204C13.7916 2.73015 12.0035 2.03697 10.1415 1.99191C8.27937 1.94703 6.45978 2.55295 4.9963 3.70535C3.53308 4.85791 2.51754 6.48474 2.12477 8.30566C1.73222 10.1266 1.98694 12.0273 2.84526 13.6807C3.70358 15.3338 5.11167 16.6358 6.82678 17.3623C8.54205 18.0886 10.4569 18.1941 12.2413 17.6602C14.0259 17.1265 15.5683 15.987 16.6028 14.438C16.8096 14.1628 17.1435 14.0135 17.4865 14.0424C17.8295 14.0714 18.1335 14.2747 18.2912 14.5805C18.4492 14.8865 18.4386 15.2521 18.2634 15.5484C17.3552 16.9096 16.127 18.0273 14.6863 18.8034C13.2457 19.5796 11.6366 19.9905 10.0003 20C9.38986 20.001 8.78058 19.9474 8.17967 19.84C5.76736 19.3927 3.6038 18.0745 2.0998 16.1362C0.596063 14.1978 -0.14316 11.7747 0.0229744 9.3266C0.188941 6.87896 1.24872 4.57752 3.00066 2.86002C4.75259 1.14255 7.07448 0.128857 9.52512 0.0114694C11.9758 -0.105931 14.384 0.681194 16.2923 2.22331C18.2003 3.76542 19.4751 5.95496 19.8745 8.37563C20.0797 9.6521 20.0388 10.9559 19.7545 12.2172L19.7542 12.217ZM6.57923 8.99582C6.21263 8.39174 6.01249 7.70143 5.99911 6.99501C5.99911 5.56544 6.76179 4.24443 7.99975 3.52964C9.23789 2.81486 10.7632 2.81486 12.0014 3.52964C13.2393 4.24443 14.002 5.56544 14.002 6.99501C13.9886 7.70143 13.7885 8.39174 13.4219 8.99582C14.4941 9.07085 15.4448 9.71211 15.9159 10.6783C16.387 11.6444 16.307 12.7884 15.7058 13.6794C15.1047 14.5703 14.0739 15.0731 13.0017 14.9981H6.99946C5.92729 15.0731 4.89648 14.5704 4.29544 13.6794C3.69423 12.7884 3.61414 11.6444 4.08526 10.6783C4.55636 9.71211 5.50711 9.07085 6.57929 8.99582H6.57923ZM7.99975 6.99501C7.99975 7.52557 8.21061 8.03452 8.58575 8.40983C8.96106 8.78497 9.47001 8.99582 10.0006 8.99582C10.5311 8.99582 11.0401 8.78497 11.4154 8.40983C11.7905 8.03452 12.0014 7.52557 12.0014 6.99501C12.0014 6.46445 11.7905 5.9555 11.4154 5.58019C11.0401 5.20505 10.5311 4.9942 10.0006 4.9942C9.47001 4.9942 8.96106 5.20505 8.58575 5.58019C8.21061 5.9555 7.99975 6.46445 7.99975 6.99501ZM5.99911 11.997C5.99911 12.2623 6.10445 12.5167 6.29202 12.7043C6.47959 12.892 6.73413 12.9974 6.99943 12.9974H13.0017C13.3591 12.9974 13.6893 12.8066 13.868 12.4971C14.0467 12.1876 14.0467 11.8063 13.868 11.4968C13.6893 11.1873 13.3591 10.9965 13.0017 10.9965H6.99943C6.73415 10.9965 6.47959 11.1021 6.29202 11.2896C6.10445 11.4772 5.99911 11.7316 5.99911 11.997Z" fill="black"/>
</g>
<defs>
<clipPath id="clip0_999_3799">
<rect width="20" height="20" fill="white"/>
</clipPath>
</defs>
</svg>
