<svg width="20" height="20" viewBox="0 0 20 20" fill="none" xmlns="http://www.w3.org/2000/svg">
<g clipPath="url(#clip0_1323_2832)">
<path d="M0.0002 3.86961C0.034575 3.69382 0.0646533 3.51804 0.104107 3.34226C0.535357 1.43759 2.23061 0.0532582 4.19544 0.00909149C4.75794 -0.00379917 5.32082 -0.00223667 5.88327 0.00909149C6.82507 0.0251072 7.56927 0.766508 7.58177 1.68876C7.59063 2.13842 7.42149 2.57339 7.11127 2.89898C6.80099 3.22463 6.37469 3.41454 5.92514 3.42743C5.42552 3.44539 4.92514 3.43016 4.42476 3.43368C3.77124 3.43836 3.42437 3.78914 3.42397 4.44304V15.5404C3.42397 16.2068 3.77241 16.556 4.43531 16.5603C4.95601 16.563 5.47827 16.5447 5.99781 16.5736C7.21734 16.6415 7.96697 17.9982 7.38296 19.0736C7.09272 19.6076 6.64077 19.9572 6.02514 19.9806C5.27709 20.0087 4.52124 20.0236 3.77781 19.9513C1.88764 19.7654 0.305473 18.1981 0.04414 16.3185C0.034765 16.2497 0.0148433 16.1841 0 16.1173V3.86964L0.0002 3.86961Z" fill="#111111"/>
<path d="M14.1236 8.58139C14.042 8.49194 13.9947 8.43686 13.9439 8.38607C13.2201 7.65599 12.4924 6.92944 11.7736 6.19474C11.1935 5.60137 11.122 4.692 11.5904 4.0369C12.0877 3.3412 12.9841 3.09237 13.7337 3.46074C13.9194 3.55436 14.0887 3.67734 14.2353 3.8248C15.9816 5.56497 17.7243 7.30881 19.463 9.05647C20.1798 9.77639 20.1786 10.8076 19.4594 11.5288C17.7579 13.2351 16.0538 14.939 14.3469 16.6405C13.636 17.3491 12.5769 17.3538 11.8836 16.6635C11.2067 15.9893 11.2227 14.9327 11.9281 14.2205C12.5977 13.5434 13.2708 12.871 13.9476 12.2034C14.0005 12.1584 14.057 12.1177 14.1164 12.0819L14.0844 12.0065H13.8562H6.85306C6.02219 12.0065 5.31204 11.4651 5.13006 10.7041C4.86756 9.60803 5.66991 8.59046 6.81323 8.58546C8.32064 8.57843 9.82839 8.58546 11.3362 8.58546H14.1234L14.1236 8.58139Z" fill="#111111"/>
</g>
<defs>
<clipPath id="clip0_1323_2832">
<rect width="20" height="20" fill="white"/>
</clipPath>
</defs>
</svg>
