<svg width="55" height="55" viewBox="0 0 55 55" fill="none" xmlns="http://www.w3.org/2000/svg">
<path d="M27.5003 54.5833C12.5422 54.5833 0.416992 42.4581 0.416992 27.5C0.416992 12.5418 12.5422 0.416626 27.5003 0.416626C42.4585 0.416626 54.5837 12.5418 54.5837 27.5C54.5837 42.4581 42.4585 54.5833 27.5003 54.5833ZM23.7682 17.7906C23.6052 17.6818 23.4158 17.6193 23.2201 17.6097C23.0244 17.6001 22.8297 17.6438 22.6569 17.736C22.484 17.8283 22.3394 17.9657 22.2385 18.1337C22.1375 18.3016 22.084 18.4938 22.0837 18.6898V36.3102C22.084 36.5061 22.1375 36.6983 22.2385 36.8662C22.3394 37.0342 22.484 37.1716 22.6569 37.2639C22.8297 37.3561 23.0244 37.3998 23.2201 37.3902C23.4158 37.3806 23.6052 37.3181 23.7682 37.2093L36.9822 28.4018C37.1308 28.3029 37.2527 28.1689 37.3369 28.0115C37.4212 27.8542 37.4653 27.6785 37.4653 27.5C37.4653 27.3215 37.4212 27.1457 37.3369 26.9884C37.2527 26.831 37.1308 26.697 36.9822 26.5981L23.7682 17.7906Z" fill="white"/>
</svg>
