<svg width="20" height="20" viewBox="0 0 20 20" fill="none" xmlns="http://www.w3.org/2000/svg">
<path d="M19.4682 4.9375L13.4092 9.21467L19.4997 12.9218V5.19717C19.4997 5.10849 19.4891 5.01982 19.468 4.93753L19.4682 4.9375Z" fill="#111111"/>
<path d="M10.9732 10.9347C10.686 11.1374 10.3504 11.243 9.99992 11.243C9.64945 11.243 9.31378 11.1374 9.02667 10.9347L7.15417 9.61523L0.5 13.6644V14.8044C0.5 15.3871 0.972917 15.86 1.55553 15.86H18.4439C19.0265 15.86 19.4994 15.3871 19.4994 14.8044V13.6644L12.8452 9.61523L10.9732 10.9347Z" fill="#111111"/>
<path d="M0.531705 4.9375C0.510612 5.01979 0.5 5.10847 0.5 5.19713V12.9216L6.5905 9.21447L0.531705 4.9375Z" fill="#111111"/>
<path d="M10.6083 10.4168L19.1329 4.40013C18.9471 4.23756 18.7065 4.14258 18.4447 4.14258H1.55638C1.2946 4.14258 1.05391 4.23757 0.868164 4.40013L9.39283 10.4168C9.75807 10.6743 10.2436 10.6743 10.6088 10.4168H10.6083Z" fill="#111111"/>
</svg>
