<svg width="30" height="24" viewBox="0 0 30 24" fill="none" xmlns="http://www.w3.org/2000/svg">
<path d="M28.0952 0.335938H1.90479C0.852887 0.335938 0 1.18877 0 2.24068V21.7645C0 22.8164 0.852887 23.6692 1.90479 23.6692H28.0952C29.1472 23.6692 30.0001 22.8164 30.0001 21.7645V2.24068C30.0001 1.18877 29.1472 0.335938 28.0952 0.335938ZM28.0952 2.24068V16.0935L24.3414 12.6807C23.7772 12.1678 22.9095 12.1883 22.3705 12.7278L18.5714 16.5264L11.0805 7.57875C10.5143 6.90255 9.47712 6.89591 8.9024 7.56399L1.90479 15.6964V2.24068H28.0952ZM20.0001 7.24068C20.0001 5.794 21.1723 4.62161 22.619 4.62161C24.0657 4.62161 25.2381 5.794 25.2381 7.24068C25.2381 8.68735 24.0658 9.85969 22.619 9.85969C21.1724 9.85974 20.0001 8.68735 20.0001 7.24068Z" fill="#949CA5"/>
</svg>
