<svg width="19" height="8" viewBox="0 0 19 8" fill="none" xmlns="http://www.w3.org/2000/svg">
<path fill-rule="evenodd" clip-rule="evenodd" d="M16.6695 3.47211H9.06618C8.61755 3.47211 2.07685 3.28318 1.48652 3.44848C1.13235 3.51931 0.872583 3.92074 1.06152 4.34574C1.27402 4.86521 2.78535 4.69991 3.70618 4.69991C6.16185 4.69991 8.61768 4.79437 11.1205 4.79437L16.8112 4.74717C16.3389 5.64444 14.2139 7.10851 15.1819 7.79317C15.7722 8.24181 16.1028 7.60424 16.3153 7.36817C17.1653 6.40007 17.8501 5.55001 18.6293 4.53467C19.5738 3.28317 18.5348 3.40127 16.7874 1.84284C16.4568 1.53587 15.1581 0.189974 14.9928 0.119008C14.5205 -0.117126 14.0482 0.260674 14.0955 0.756574C14.1427 1.37051 16.5512 3.23591 16.6693 3.47207L16.6695 3.47211Z" fill="#9e7b74"/>
</svg>
