<svg width="152" height="152" viewBox="0 0 152 152" fill="none" xmlns="http://www.w3.org/2000/svg">
<path fill-rule="evenodd" clip-rule="evenodd" d="M7.25236 84.5565H13.7913L9.62587 93.0082H7.25087C6.58812 93.0059 5.9532 92.7415 5.48466 92.2727C5.01613 91.804 4.75203 91.1689 4.75 90.5062V87.0591C4.75188 86.396 5.01611 85.7606 5.48498 85.2917C5.95385 84.8228 6.58924 84.5584 7.25236 84.5565ZM125.194 16.1016C129.556 16.1016 133.821 17.3951 137.448 19.8187C141.075 22.2423 143.902 25.687 145.571 29.7172C147.24 33.7474 147.677 38.1822 146.826 42.4606C145.975 46.7391 143.874 50.6691 140.79 53.7537C137.705 56.8382 133.775 58.9389 129.497 59.7899C125.218 60.6409 120.783 60.204 116.753 58.5346C112.723 56.8652 109.278 54.0382 106.855 50.4111C104.431 46.7839 103.138 42.5196 103.138 38.1573C103.138 32.3077 105.462 26.6978 109.598 22.5615C113.734 18.4253 119.344 16.1016 125.194 16.1016ZM116.232 127.182H134.155C134.785 127.183 135.388 127.433 135.834 127.878C136.279 128.324 136.529 128.927 136.53 129.557V133.518C136.529 134.148 136.279 134.751 135.834 135.196C135.388 135.642 134.785 135.892 134.155 135.893H116.232C115.603 135.892 115 135.642 114.554 135.196C114.109 134.751 113.859 134.148 113.857 133.518V129.556C113.859 128.927 114.109 128.323 114.554 127.878C115 127.433 115.603 127.182 116.232 127.181V127.182ZM129.573 64.6053V122.432H120.816V64.6053C123.715 65.0825 126.674 65.0825 129.573 64.6053ZM19.4999 95.2241H92.3436C96.0574 95.2349 99.616 96.715 102.242 99.3411C104.868 101.967 106.348 105.526 106.359 109.24V122.821C106.358 123.451 106.107 124.054 105.662 124.499C105.217 124.944 104.614 125.195 103.984 125.196H7.85947C7.22997 125.195 6.6266 124.944 6.18148 124.499C5.73635 124.054 5.48572 123.451 5.48447 122.821V109.24C5.49528 105.526 6.97537 101.967 9.60144 99.3411C12.2275 96.715 15.7861 95.2349 19.4999 95.2241ZM41.4835 105.872C40.6968 105.875 39.943 106.188 39.3867 106.744C38.8305 107.301 38.517 108.054 38.5148 108.841V111.58C38.5171 112.366 38.8306 113.12 39.3868 113.676C39.9431 114.232 40.6969 114.546 41.4835 114.548H70.3594C71.146 114.546 71.8998 114.232 72.4561 113.676C73.0123 113.12 73.3259 112.366 73.3281 111.58V108.841C73.3259 108.054 73.0123 107.301 72.4561 106.744C71.8998 106.188 71.146 105.875 70.3594 105.872H41.4835ZM88.2814 103.377C86.9299 103.377 85.6087 103.778 84.4849 104.529C83.3612 105.279 82.4853 106.347 81.9681 107.595C81.4509 108.844 81.3156 110.218 81.5793 111.543C81.8429 112.869 82.4937 114.087 83.4494 115.042C84.4051 115.998 85.6227 116.649 86.9483 116.913C88.2738 117.176 89.6478 117.041 90.8965 116.524C92.1451 116.006 93.2124 115.131 93.9632 114.007C94.7141 112.883 95.1149 111.562 95.1149 110.21C95.1149 108.398 94.3949 106.66 93.1134 105.378C91.8319 104.097 90.0938 103.377 88.2814 103.377ZM23.5627 103.377C22.2111 103.377 20.89 103.778 19.7662 104.529C18.6424 105.279 17.7666 106.347 17.2494 107.595C16.7322 108.844 16.5968 110.218 16.8605 111.543C17.1242 112.869 17.775 114.087 18.7307 115.042C19.6864 115.998 20.904 116.649 22.2295 116.913C23.5551 117.176 24.9291 117.041 26.1777 116.524C27.4264 116.006 28.4936 115.131 29.2445 114.007C29.9954 112.883 30.3961 111.562 30.3961 110.21C30.3961 108.398 29.6762 106.66 28.3947 105.378C27.1131 104.097 25.375 103.377 23.5627 103.377ZM100.15 129.947V131.94C100.147 132.988 99.7294 133.992 98.9885 134.733C98.2476 135.474 97.2436 135.891 96.1958 135.894H90.7484C89.7007 135.891 88.6967 135.474 87.9559 134.733C87.215 133.992 86.7974 132.988 86.7944 131.94V129.947H100.15ZM25.0497 129.947V131.94C25.0467 132.988 24.6291 133.992 23.8882 134.733C23.1474 135.474 22.1434 135.891 21.0956 135.894H15.648C14.6 135.891 13.5959 135.473 12.855 134.732C12.1141 133.991 11.6966 132.987 11.6939 131.939V129.946L25.0497 129.947ZM95.8351 90.8027L86.8885 72.6503C86.3845 71.5932 85.5882 70.7026 84.5938 70.0839C83.5994 69.4653 82.4486 69.1446 81.2775 69.1597H30.5665C29.3955 69.1447 28.2448 69.4655 27.2504 70.0841C26.256 70.7027 25.4597 71.5932 24.9556 72.6503L16.0087 90.8027C17.1596 90.5843 18.3285 90.4744 19.4999 90.4744H92.3436C93.5151 90.4744 94.6841 90.5843 95.8351 90.8027ZM98.0522 84.5565H104.591C105.254 84.5584 105.889 84.8227 106.358 85.2916C106.827 85.7605 107.091 86.396 107.093 87.0591V90.5062C107.091 91.1692 106.827 91.8046 106.358 92.2735C105.889 92.7424 105.254 93.0066 104.591 93.0085H102.218L98.0522 84.5565Z" fill="#9E7B74"/>
</svg>
