<svg width="20" height="20" viewBox="0 0 20 20" fill="none" xmlns="http://www.w3.org/2000/svg">
<path d="M11.8859 9.5858C12.8172 9.15592 13.5737 8.4207 14.03 7.50213C14.4863 6.58352 14.6152 5.53647 14.3951 4.53463C14.175 3.53275 13.6193 2.63613 12.8199 1.9933C12.0206 1.35047 11.0256 1 9.99993 1C8.97427 1 7.97927 1.35045 7.17993 1.9933C6.38058 2.63607 5.82485 3.53268 5.6048 4.53463C5.38468 5.53645 5.51352 6.58347 5.96983 7.50213C6.42615 8.42075 7.18267 9.15597 8.114 9.5858C4.048 10.2378 1 12.9538 1 16.1998C1 16.3331 1.00534 16.4665 1.01602 16.5998C3.74935 18.1723 6.84752 19 10.001 19C13.1545 19 16.2527 18.1724 18.986 16.5998C18.9953 16.4665 19 16.3331 19 16.1998C19 12.9538 15.9519 10.2378 11.8859 9.5858Z" fill="#111111"/>
</svg>
