<svg width="36" height="36" viewBox="0 0 36 36" fill="none" xmlns="http://www.w3.org/2000/svg">
<path d="M21.7717 17.1716C23.6344 16.3118 25.1474 14.8414 26.0601 13.0043C26.9727 11.167 27.2304 9.07293 26.7901 7.06927C26.35 5.0655 25.2386 3.27227 23.6399 1.9866C22.0412 0.700933 20.0512 0 17.9999 0C15.9485 0 13.9585 0.7009 12.3599 1.9866C10.7612 3.27213 9.6497 5.06537 9.2096 7.06927C8.76937 9.0729 9.02705 11.1669 9.93967 13.0043C10.8523 14.8415 12.3653 16.3119 14.228 17.1716C6.096 18.4756 0 23.9076 0 30.3996C0 30.6663 0.010677 30.9329 0.0320314 31.1996C5.4987 34.3447 11.695 35.9999 18.002 35.9999C24.309 35.9999 30.5054 34.3447 35.972 31.1996C35.9906 30.9329 36 30.6663 36 30.3996C36 23.9076 29.904 18.4756 21.772 17.1716H21.7717Z" fill="#9e7b74"/>
</svg>
