<svg width="30" height="30" viewBox="0 0 30 30" fill="none" xmlns="http://www.w3.org/2000/svg">
<circle cx="15" cy="15" r="15" fill="#9e7b74"/>
<path d="M16.0002 13.2316C16.0002 10.8945 17.8954 9 20.2337 9C22.5719 9 24.2691 10.8293 24.4671 13.158C24.7694 16.7115 22.0687 19.6866 18.7899 20.6332C19.9075 19.9577 20.6871 18.783 20.8171 17.4168C20.6258 17.4439 20.4321 17.4632 20.2337 17.4632C17.8954 17.4632 16.0002 15.5688 16.0002 13.2316Z" fill="white"/>
<path d="M6.00023 13.2316C6.00023 10.8945 7.8954 9 10.2337 9C12.5719 9 14.2691 10.8293 14.4671 13.158C14.7694 16.7115 12.0687 19.6866 8.7899 20.6332C9.9075 19.9577 10.6871 18.783 10.8171 17.4168C10.6258 17.4439 10.4321 17.4632 10.2337 17.4632C7.8954 17.4632 6.00023 15.5688 6.00023 13.2316Z" fill="white"/>
</svg>
