<svg width="30" height="30" viewBox="0 0 30 30" fill="none" xmlns="http://www.w3.org/2000/svg">
<circle cx="15" cy="15" r="15" fill="#9e7b74"/>
<path d="M14.49 13.2316C14.49 10.8945 12.5948 9 10.2566 9C7.91831 9 6.22116 10.8293 6.02314 13.158C5.72083 16.7115 8.42154 19.6866 11.7003 20.6332C10.5827 19.9577 9.8031 18.783 9.67309 17.4168C9.86448 17.4439 10.0581 17.4632 10.2566 17.4632C12.5948 17.4632 14.49 15.5688 14.49 13.2316Z" fill="white"/>
<path d="M24.49 13.2316C24.49 10.8945 22.5948 9 20.2566 9C17.9183 9 16.2212 10.8293 16.0231 13.158C15.7208 16.7115 18.4215 19.6866 21.7003 20.6332C20.5827 19.9577 19.8031 18.783 19.6731 17.4168C19.8645 17.4439 20.0581 17.4632 20.2566 17.4632C22.5948 17.4632 24.49 15.5688 24.49 13.2316Z" fill="white"/>
</svg>
