<svg width="20" height="20" viewBox="0 0 20 20" fill="none" xmlns="http://www.w3.org/2000/svg">
<g clipPath="url(#clip0_999_3648)">
<mask id="mask0_999_3648" style="mask-type:luminance" maskUnits="userSpaceOnUse" x="0" y="0" width="20" height="20">
<path d="M0 0H20V20H0V0Z" fill="white"/>
</mask>
<g mask="url(#mask0_999_3648)">
<path d="M9.67482 18.1997L8.75034 17.2752C7.48186 16.0067 7.49261 13.9428 8.77184 12.6958L9.67482 11.8143C9.25558 11.7713 8.94383 11.7498 8.59984 11.7498C5.72964 11.7498 0 13.1903 0 16.0497V18.1997H9.67482ZM8.59984 9.59984C10.9755 9.59984 12.8998 7.67563 12.8998 5.29992C12.8998 2.92421 10.9755 1 8.59984 1C6.22413 1 4.29992 2.92421 4.29992 5.29992C4.29992 7.67563 6.22413 9.59984 8.59984 9.59984Z" fill="black"/>
<path d="M14.1684 17.964C13.7492 18.3832 13.0612 18.3832 12.6419 17.964L10.4167 15.7173C10.0082 15.298 10.0082 14.6315 10.4167 14.223L10.4275 14.2123C10.8467 13.7931 11.524 13.7931 11.9324 14.2123L13.4052 15.685L18.1673 10.8906C18.5866 10.4714 19.2638 10.4714 19.683 10.8906L19.6938 10.9014C20.1023 11.3206 20.1023 11.9871 19.6938 12.3956L14.1684 17.964Z" fill="black"/>
</g>
</g>
<defs>
<clipPath id="clip0_999_3648">
<rect width="20" height="20" fill="white"/>
</clipPath>
</defs>
</svg>
