<svg width="20" height="20" viewBox="0 0 20 20" fill="none" xmlns="http://www.w3.org/2000/svg">
<path d="M6.66699 2.91667C6.66699 2.68652 6.48048 2.5 6.25033 2.5C6.02018 2.5 5.83366 2.68652 5.83366 2.91667V4.16667H2.50033C2.04011 4.16667 1.66699 4.53978 1.66699 5V7.5H18.3337V5C18.3337 4.53978 17.9605 4.16667 17.5003 4.16667H14.167V2.91667C14.167 2.68652 13.9804 2.5 13.7503 2.5C13.5202 2.5 13.3337 2.68652 13.3337 2.91667V4.16667H6.66699V2.91667Z" fill="#111111"/>
<path fill-rule="evenodd" clip-rule="evenodd" d="M1.66699 8.33398V16.6673C1.66699 17.1275 2.04011 17.5007 2.50033 17.5007H17.5003C17.9605 17.5007 18.3337 17.1275 18.3337 16.6673V8.33398H1.66699ZM5.00033 10.834C4.77018 10.834 4.58366 11.0206 4.58366 11.2507C4.58366 11.4807 4.77018 11.6673 5.00033 11.6673H6.66699C6.89714 11.6673 7.08366 11.4807 7.08366 11.2507C7.08366 11.0206 6.89714 10.834 6.66699 10.834H5.00033ZM5.00033 13.334C4.77018 13.334 4.58366 13.5206 4.58366 13.7507C4.58366 13.9807 4.77018 14.1673 5.00033 14.1673H6.66699C6.89714 14.1673 7.08366 13.9807 7.08366 13.7507C7.08366 13.5206 6.89714 13.334 6.66699 13.334H5.00033ZM8.75033 11.2507C8.75033 11.0206 8.93691 10.834 9.16699 10.834H10.8337C11.0637 10.834 11.2503 11.0206 11.2503 11.2507C11.2503 11.4807 11.0637 11.6673 10.8337 11.6673H9.16699C8.93691 11.6673 8.75033 11.4807 8.75033 11.2507ZM9.16699 13.334C8.93691 13.334 8.75033 13.5206 8.75033 13.7507C8.75033 13.9807 8.93691 14.1673 9.16699 14.1673H10.8337C11.0637 14.1673 11.2503 13.9807 11.2503 13.7507C11.2503 13.5206 11.0637 13.334 10.8337 13.334H9.16699ZM12.917 11.2507C12.917 11.0206 13.1036 10.834 13.3337 10.834H15.0003C15.2304 10.834 15.417 11.0206 15.417 11.2507C15.417 11.4807 15.2304 11.6673 15.0003 11.6673H13.3337C13.1036 11.6673 12.917 11.4807 12.917 11.2507ZM13.3337 13.334C13.1036 13.334 12.917 13.5206 12.917 13.7507C12.917 13.9807 13.1036 14.1673 13.3337 14.1673H15.0003C15.2304 14.1673 15.417 13.9807 15.417 13.7507C15.417 13.5206 15.2304 13.334 15.0003 13.334H13.3337Z" fill="#111111"/>
</svg>
