<svg width="12" height="12" viewBox="0 0 12 12" fill="none" xmlns="http://www.w3.org/2000/svg">
<path d="M11.2098 0.789896C10.8409 0.420946 10.2428 0.420946 9.87386 0.789896L5.99961 4.66415L2.12536 0.789896C1.75641 0.420946 1.15836 0.420946 0.789408 0.789896C0.420458 1.15885 0.420458 1.7569 0.789408 2.12585L4.66366 6.0001L0.789408 9.8741C0.420458 10.243 0.420458 10.8411 0.789408 11.21C1.15836 11.579 1.75641 11.579 2.12536 11.21L5.99961 7.3358L9.87386 11.21C10.2428 11.579 10.8409 11.579 11.2098 11.21C11.5788 10.8411 11.5788 10.243 11.2098 9.8741L7.33556 5.99985L11.2098 2.1256C11.5788 1.75665 11.5788 1.1586 11.2098 0.789646V0.789896Z" fill="#9e7b74"/>
</svg>
