<svg width="46" height="30" viewBox="0 0 46 30" fill="none" xmlns="http://www.w3.org/2000/svg">
<g clipPath="url(#clip0_405_13987)">
<path d="M0 0.00439453H45.7143V29.9944H0V0.00439453Z" fill="white"/>
<path d="M20.9271 0.00439453V12.6301H0V17.9758H20.9271V29.9958H25.1657V17.9758H45.7143V12.6301H25.1657V0.00439453H20.9271Z" fill="#BD0034"/>
<path d="M19.5128 0.00439453H3.57141L19.5128 10.0858V0.00439453Z" fill="#1A237B"/>
<path d="M0 10.8486H11.2357L0 3.72437V10.8486Z" fill="#1A237B"/>
<path d="M0 0V1.75429L13.4843 10.1729H16.7957C16.7957 10.1729 3.50571 1.94143 0.348571 0H0Z" fill="#BD0034"/>
<path d="M19.5128 29.9957H3.57141L19.5128 19.9143V29.9957Z" fill="#1A237B"/>
<path d="M0 19.1514H11.2357L0 26.2757V19.1514Z" fill="#1A237B"/>
<path d="M0 30V28.2457L13.4843 19.8271H16.7957C16.7957 19.8271 3.50571 28.0586 0.348571 30H0Z" fill="#BD0034"/>
<path d="M26.2014 0.00439453H42.1428L26.2014 10.0858V0.00439453Z" fill="#1A237B"/>
<path d="M45.7142 10.8486H34.4785L45.7142 3.72437V10.8486Z" fill="#1A237B"/>
<path d="M45.7143 0V1.75429L32.23 10.1729H28.9186C28.9186 10.1729 42.2043 1.94143 45.3657 0.0042854L45.7143 0Z" fill="#BD0034"/>
<path d="M26.2014 29.9957H42.1428L26.2014 19.9143V29.9957Z" fill="#1A237B"/>
<path d="M45.7142 19.1514H34.4785L45.7142 26.2757V19.1514Z" fill="#1A237B"/>
<path d="M45.7143 30V28.2457L32.23 19.8271H28.9186C28.9186 19.8271 42.2043 28.0586 45.3657 29.9957L45.7143 30Z" fill="#BD0034"/>
</g>
<defs>
<clipPath id="clip0_405_13987">
<rect width="45.7143" height="30" fill="white"/>
</clipPath>
</defs>
</svg>
