<svg width="19" height="17" viewBox="0 0 19 17" fill="none" xmlns="http://www.w3.org/2000/svg">
<g clip-path="url(#clip0_530_84)">
<path d="M9.44797 3.46752C10.2567 3.46939 11.0467 3.71091 11.7183 4.16157C12.3898 4.61224 12.9127 5.25182 13.2209 5.99953C13.5291 6.74723 13.6087 7.5695 13.4498 8.36247C13.2909 9.15543 12.9005 9.8835 12.328 10.4547C11.7555 11.0259 11.0265 11.4146 10.2332 11.5717C9.43985 11.7288 8.61776 11.6472 7.87077 11.3373C7.12378 11.0274 6.48541 10.503 6.03629 9.83044C5.58718 9.15788 5.34748 8.3673 5.34748 7.55857C5.34748 7.02053 5.45361 6.48777 5.65979 5.99081C5.86598 5.49384 6.16817 5.04243 6.54906 4.66241C6.92995 4.2824 7.38206 3.98125 7.8795 3.77622C8.37693 3.57118 8.90993 3.46628 9.44797 3.46752ZM9.44797 2.52271C8.45197 2.52271 7.47834 2.81805 6.6502 3.3714C5.82206 3.92475 5.1766 4.71124 4.79544 5.63143C4.41429 6.55161 4.31456 7.56415 4.50887 8.54101C4.70318 9.51788 5.1828 10.4152 5.88708 11.1195C6.59136 11.8237 7.48866 12.3034 8.46553 12.4977C9.44239 12.692 10.4549 12.5922 11.3751 12.2111C12.2953 11.8299 13.0818 11.1845 13.6351 10.3563C14.1885 9.5282 14.4838 8.55457 14.4838 7.55857C14.4838 6.22297 13.9533 4.94208 13.0089 3.99767C12.0645 3.05327 10.7836 2.52271 9.44797 2.52271Z" fill="#747474"/>
<path d="M10.4775 10.6764V10.4497C10.5375 10.2333 10.5375 10.0047 10.4775 9.78832C10.3991 9.61595 10.2708 9.47112 10.109 9.3726C10.0341 9.31412 9.97281 9.23995 9.92953 9.15529C9.89578 9.11614 9.86423 9.07514 9.83505 9.03247C9.83972 8.98534 9.83972 8.93787 9.83505 8.89075C9.91036 8.81405 9.96554 8.71993 9.99567 8.61675C9.99567 8.61675 9.99567 8.56951 9.99567 8.55061H10.0807H10.2413H10.3641C10.4079 8.57467 10.4491 8.60316 10.487 8.63565C10.5699 8.69758 10.6625 8.74546 10.761 8.77737C10.7598 8.85457 10.7773 8.93092 10.8118 8.99997C10.8463 9.06903 10.8969 9.12878 10.9594 9.17419L11.1767 9.24978H11.2334C11.3168 9.29783 11.4111 9.32384 11.5074 9.32536H11.6491H11.7341L11.6774 9.44819C11.6454 9.54573 11.6294 9.64785 11.6302 9.75053C11.511 9.79009 11.4015 9.85449 11.309 9.93949C11.2714 9.96133 11.2417 9.99437 11.2239 10.034C11.1705 10.1077 11.132 10.1911 11.1105 10.2796C11.0532 10.3261 11.0023 10.3802 10.9594 10.4402H10.7988C10.7304 10.4515 10.6653 10.4776 10.6082 10.5168C10.551 10.556 10.5032 10.6073 10.4681 10.667C10.4712 10.6702 10.4743 10.6733 10.4775 10.6764ZM7.75646 6.6043C7.65571 6.44368 7.50196 6.32336 7.32184 6.26416L7.26516 6.19803C7.20832 6.14574 7.14478 6.10125 7.07619 6.06575C7.07619 6.06575 6.97226 5.98072 6.99116 5.74451C7.01587 5.62611 7.01587 5.50389 6.99116 5.38549C6.9678 5.23774 6.90217 5.09992 6.8022 4.98866V4.92253C6.76475 4.85219 6.72044 4.78573 6.66992 4.72412C6.84664 4.54875 7.03962 4.39057 7.24626 4.25171C7.34819 4.32609 7.46978 4.36881 7.59584 4.37453C7.68613 4.3728 7.77428 4.34669 7.85094 4.29895H7.92653H8.04935C7.99243 4.44476 7.99243 4.60665 8.04935 4.75246C8.11327 4.87964 8.20511 4.99074 8.318 5.07745C8.43089 5.16416 8.56191 5.22424 8.70127 5.25321L8.89024 5.31935C8.94778 5.45244 9.05193 5.55995 9.18313 5.62169C9.2673 5.65596 9.35685 5.67514 9.44768 5.67838H9.56105L9.49492 5.74451L9.42878 5.839C9.36897 5.88281 9.31773 5.93726 9.27761 5.99961C9.25156 6.05036 9.2325 6.10438 9.22092 6.16023C9.17414 6.19818 9.12995 6.23921 9.08865 6.28306H8.98472C8.87481 6.27119 8.76394 6.27119 8.65403 6.28306C8.50455 6.29406 8.35933 6.33787 8.22869 6.41135C8.09805 6.48483 7.98521 6.58619 7.89818 6.70823L7.75646 6.6043ZM11.5357 4.2706C11.5404 4.23295 11.5404 4.19488 11.5357 4.15723L11.7058 4.28005C11.6541 4.29579 11.6059 4.32147 11.5641 4.35564C11.5641 4.35564 11.5546 4.29895 11.5452 4.2706H11.5357Z" fill="#747474"/>
<path d="M7.26576 4.79968C7.35683 4.80952 7.44869 4.80952 7.53975 4.79968V4.91306C7.63004 5.10411 7.76163 5.27271 7.92502 5.4067C8.08842 5.54068 8.27954 5.6367 8.48457 5.68781L8.5885 5.81063H8.49402C8.28837 5.82769 8.09025 5.8959 7.91768 6.00904C7.81179 5.91113 7.69049 5.83133 7.55865 5.77284L7.44527 5.67836C7.47065 5.52508 7.47065 5.36868 7.44527 5.2154C7.4107 5.03448 7.33649 4.86347 7.22797 4.71465M9.40104 2.96674C9.0836 2.96379 8.76679 2.99547 8.45622 3.06122C8.39009 3.06122 8.25781 3.23129 8.3334 3.30688C8.34226 3.31108 8.35194 3.31326 8.36174 3.31326C8.37155 3.31326 8.38123 3.31108 8.39009 3.30688C8.44678 3.30688 8.51291 3.24074 8.5696 3.21239C8.80772 3.16946 9.05213 3.17589 9.28766 3.23129C9.28766 3.31632 8.97587 3.28798 8.88139 3.31632C8.78691 3.34467 8.81525 3.39191 8.73967 3.52418H8.8436V3.58087H8.69243C8.69243 3.58087 8.62629 3.58087 8.61684 3.58087C8.60739 3.58087 8.52236 3.46749 8.48457 3.46749C8.44678 3.46749 8.39009 3.58087 8.34285 3.58087C8.45622 3.64701 8.56015 3.72259 8.47512 3.82652C8.4632 3.83173 8.45033 3.83441 8.43733 3.83441C8.42432 3.83441 8.41146 3.83173 8.39954 3.82652C8.35229 3.82652 8.3334 3.73204 8.39954 3.6848C8.3334 3.6848 8.27671 3.60922 8.22947 3.60922C8.2019 3.59986 8.17201 3.59986 8.14444 3.60922H8.23892C8.23892 3.60922 8.23892 3.72259 8.18223 3.73204C8.1116 3.72291 8.042 3.7071 7.97437 3.6848H7.59644C7.59644 3.73204 7.59644 3.75094 7.59644 3.75094C7.59644 3.75094 7.39803 3.82652 7.39803 3.80763C7.42266 3.78273 7.45214 3.76318 7.48465 3.75017C7.51716 3.73717 7.552 3.731 7.58699 3.73204H7.76651H7.8421C7.93658 3.73204 8.02161 3.73204 8.03106 3.60922C8.04051 3.48639 7.86099 3.58087 7.8043 3.58087C7.79659 3.54666 7.79659 3.51116 7.8043 3.47694C7.08976 3.74409 6.4555 4.1897 5.96191 4.77134L6.22646 4.96975C6.29112 5.03327 6.34533 5.10661 6.38708 5.18706C6.40374 5.22199 6.42609 5.25392 6.45322 5.28154C6.50161 5.33455 6.53432 5.39998 6.5477 5.4705C6.55645 5.55215 6.55645 5.6345 6.5477 5.71615C6.5227 5.84007 6.52766 5.96817 6.56217 6.08978C6.59668 6.21139 6.65975 6.323 6.74611 6.41531C6.80684 6.46254 6.86991 6.50669 6.93507 6.54759C6.97419 6.59469 7.00314 6.64938 7.02011 6.70821C7.12404 6.86883 7.24686 7.01055 7.36024 7.16172C7.47362 7.31289 7.43582 7.24675 7.44527 7.24675C7.45472 7.24675 7.44527 7.24675 7.39803 7.13337C7.32656 7.04275 7.26031 6.94811 7.19962 6.84993C7.19962 6.84993 7.14293 6.71766 7.19962 6.71766C7.35079 6.71766 7.37914 6.84993 7.47362 6.97276C7.57071 7.06504 7.65068 7.1738 7.70982 7.29399C7.73555 7.36837 7.77783 7.43593 7.83347 7.49157C7.88912 7.54722 7.95668 7.5895 8.03106 7.61523C8.1228 7.67378 8.2211 7.72135 8.32395 7.75695H8.34285C8.40898 7.75695 8.44678 7.75695 8.50346 7.75695H8.5696C8.62629 7.75695 8.68298 7.88923 8.75856 7.90812C8.83415 7.92702 8.88139 7.90812 8.95698 7.90812C9.03256 7.90812 9.07035 8.06874 9.14594 8.12543C9.18206 8.19326 9.23006 8.25406 9.28766 8.30494H9.40104C9.49552 8.30494 9.51442 8.44667 9.48607 8.54115C9.45773 8.63563 9.36325 8.70177 9.32545 8.8057C9.31136 8.89014 9.31136 8.97635 9.32545 9.0608C9.32545 9.14583 9.24042 9.0608 9.32545 9.21197L9.44828 9.41038C9.52271 9.53381 9.61151 9.64799 9.71283 9.75051C9.78841 9.8261 9.96793 9.91113 10.0057 10.0151C10.034 10.1522 10.034 10.2936 10.0057 10.4308C9.98946 10.6563 9.9579 10.8804 9.91124 11.1016C9.85455 11.2906 9.78841 11.3472 9.83565 11.5551C9.88289 11.763 9.83565 11.6023 9.83565 11.7252C9.83565 11.848 9.83565 11.7252 9.83565 11.8008C9.83565 11.8763 9.74117 11.9141 9.72228 11.9897C9.70338 12.0653 9.80731 11.9897 9.77896 12.0653C9.94704 12.0532 10.1143 12.0311 10.2797 11.9992C10.2797 11.9992 10.223 11.9425 10.223 11.9141C10.223 11.8858 10.3175 11.7724 10.327 11.7441C10.3433 11.6823 10.3654 11.6222 10.3931 11.5646C10.4403 11.4984 10.5443 11.5646 10.5254 11.4134C10.7521 11.4134 10.8561 11.4134 10.8938 11.1394H11.0167C11.1058 11.0514 11.1879 10.9567 11.2623 10.8559C11.3233 10.8022 11.3745 10.7383 11.4135 10.667C11.4288 10.6079 11.451 10.5508 11.4796 10.4969C11.5552 10.3741 11.6497 10.3835 11.7631 10.3363C11.8765 10.2891 11.7631 10.3363 11.867 10.2324C11.9709 10.1284 11.9804 10.1851 12.0087 10.0434C12.0032 9.9427 12.0032 9.84177 12.0087 9.74106C12.0087 9.60879 12.1599 9.57099 12.2355 9.46707C12.2669 9.42472 12.2839 9.37337 12.2839 9.32062C12.2839 9.26787 12.2669 9.21652 12.2355 9.17417C12.1408 9.10268 12.0309 9.05416 11.9142 9.03245C11.812 9.02273 11.7108 9.00375 11.6119 8.97576C11.5552 8.97576 11.4985 8.90018 11.4513 8.90018C11.404 8.90018 11.3851 8.90018 11.3663 8.99466C11.3341 8.97806 11.3052 8.95563 11.2812 8.92852C11.3196 8.91742 11.3551 8.89808 11.3851 8.87183H11.1867C11.1867 8.87183 11.2718 8.73011 11.2718 8.71121C11.2718 8.69232 11.13 8.48446 11.045 8.45611C10.96 8.42777 10.8561 8.45611 10.7616 8.36163C10.6469 8.26494 10.5109 8.19693 10.3647 8.16322H10.2608C10.1852 8.16322 10.1569 8.09708 10.0813 8.07819C10.0152 8.07819 9.98682 8.13488 9.94903 8.13488C9.89234 8.13488 9.864 8.13488 9.81676 8.13488H9.74117C9.61835 8.21046 9.63724 8.26715 9.57111 8.26715H9.48607H9.29711C9.25993 8.27675 9.22091 8.27675 9.18373 8.26715C9.14508 8.22821 9.12338 8.17557 9.12338 8.12071C9.12338 8.06584 9.14508 8.0132 9.18373 7.97426C9.18373 7.97426 9.18373 7.88923 9.12704 7.87033H8.97587C8.90029 7.87033 8.85305 7.87033 8.87194 7.77585C8.89084 7.68137 9.08925 7.36013 8.89084 7.36013C8.77746 7.36013 8.73967 7.53964 8.61684 7.56799H8.53181C8.48025 7.5708 8.42896 7.55899 8.38382 7.53392C8.33869 7.50884 8.30156 7.47152 8.27671 7.42627C8.2475 7.36618 8.2332 7.29994 8.23502 7.23316C8.23685 7.16637 8.25474 7.10101 8.28718 7.04261C8.31963 6.98421 8.36567 6.93449 8.42141 6.89766C8.47715 6.86083 8.54095 6.83797 8.60739 6.83103C8.73204 6.80199 8.85822 6.77991 8.98532 6.7649C9.02972 6.76239 9.074 6.77153 9.11378 6.79142C9.15355 6.81131 9.18744 6.84125 9.21208 6.87827C9.21208 6.87827 9.30656 7.07668 9.36325 7.07668C9.41993 7.07668 9.36325 7.07668 9.36325 7.02C9.35981 6.90767 9.34073 6.79637 9.30656 6.68931C9.34914 6.64048 9.39663 6.59615 9.44828 6.55704C9.49552 6.55704 9.62779 6.45311 9.64669 6.38697C9.66559 6.32083 9.64669 6.30194 9.64669 6.24525C9.64669 6.18856 9.72228 6.24525 9.74117 6.24525C9.76007 6.24525 9.74117 6.15077 9.80731 6.10353C9.87345 6.05629 9.91124 6.10353 9.93958 6.02794C9.96793 5.95236 10.0435 5.87677 10.138 5.83898C10.2325 5.80119 10.2797 5.71615 10.3647 5.71615H10.4214C10.4214 5.71615 10.2797 5.78229 10.2514 5.82953C10.223 5.87677 10.2514 5.82953 10.3081 5.82953H10.4214C10.5116 5.78832 10.5971 5.73765 10.6765 5.67836C10.7618 5.61775 10.865 5.58778 10.9694 5.59333H11.1395C11.1395 5.59333 11.0356 5.39492 11.0261 5.37602C11.0167 5.35712 10.9694 5.30043 10.9316 5.30043H10.8561C10.8253 5.34784 10.7999 5.39855 10.7805 5.4516C10.7238 5.55553 10.7805 5.54609 10.6198 5.60277H10.497C10.4846 5.60408 10.4721 5.60291 10.4601 5.59933C10.4481 5.59575 10.437 5.58984 10.4273 5.58193C10.4177 5.57403 10.4097 5.56428 10.4038 5.55326C10.3979 5.54225 10.3943 5.53017 10.3931 5.51774C10.3931 5.51774 10.3931 5.42326 10.3931 5.38547C10.3842 5.38127 10.3746 5.37909 10.3647 5.37909C10.3549 5.37909 10.3453 5.38127 10.3364 5.38547C10.2419 5.38547 10.0813 5.50829 10.0246 5.52719C10.0246 5.34767 10.1663 5.32878 10.3081 5.32878H10.5065C10.55 5.33854 10.5952 5.33854 10.6387 5.32878C10.6954 5.32878 10.9033 5.2343 10.9127 5.18706C10.9222 5.13982 10.7521 4.9792 10.7143 4.9414C10.6272 4.88551 10.5608 4.80252 10.5254 4.7052C10.5254 4.61072 10.4498 4.51624 10.3836 4.51624H10.2986C10.2514 4.51624 10.2986 4.62962 10.2041 4.63906C10.2041 4.63906 10.1002 4.58238 10.0719 4.55403C10.0435 4.52569 9.97738 4.38396 9.89234 4.37452C9.80053 4.34019 9.70561 4.31488 9.6089 4.29893C9.58163 4.2879 9.55114 4.2879 9.52386 4.29893C9.44828 4.29893 9.52386 4.55403 9.52386 4.62962C9.52386 4.7052 9.59945 4.79023 9.46718 4.88472C9.3349 4.9792 9.36325 4.88472 9.39159 5.00754C9.41993 5.13037 9.47662 5.09257 9.39159 5.14926C9.36729 5.15875 9.34031 5.15875 9.316 5.14926H9.24987C9.13649 5.14926 9.24987 5.02644 9.18373 4.95085C9.11759 4.87527 8.91918 4.84692 8.8436 4.80913C8.76801 4.77134 8.23892 4.65796 8.37119 4.39341C8.43598 4.30972 8.51615 4.23917 8.60739 4.18555C8.67353 4.18555 8.74912 4.12886 8.80581 4.07218C8.86249 4.01549 8.80581 3.94935 8.86249 3.93045C8.91918 3.91156 8.91918 3.93045 8.96642 3.93045H9.07035C9.30656 3.93045 9.13649 3.57142 9.36325 3.57142H9.43883C9.53524 3.61006 9.62462 3.66433 9.70338 3.73204C9.78841 3.78873 9.81676 3.78873 9.78841 3.87376C9.75251 3.92228 9.71131 3.96665 9.66559 4.00604C9.61023 4.04077 9.5496 4.06629 9.48607 4.08162H9.57111C9.68165 4.074 9.79153 4.10396 9.88289 4.16666C9.97452 4.24764 10.0914 4.29438 10.2136 4.29893C10.2136 4.22335 10.0719 4.29893 10.0719 4.18555C10.0719 4.18555 10.138 4.23279 10.1474 4.23279H10.2325C10.2325 4.23279 10.2892 4.23279 10.2797 4.15721C10.2703 4.08162 10.0246 4.10052 10.1002 3.93045C10.1852 3.93045 10.1569 4.03438 10.223 4.05328C10.257 4.04846 10.289 4.03448 10.3157 4.01284C10.3423 3.9912 10.3625 3.96272 10.3742 3.93045C10.2797 3.87376 9.96793 3.78873 10.0057 3.64701L10.6198 4.04383C10.5443 4.10997 10.5632 4.12886 10.6198 4.12886H10.7616C10.8088 4.12886 10.9316 4.25169 10.8466 4.27059C10.7994 4.27059 10.7616 4.27059 10.7143 4.27059C10.7055 4.26638 10.6958 4.2642 10.686 4.2642C10.6762 4.2642 10.6665 4.26638 10.6576 4.27059C10.7238 4.27059 10.9789 4.27059 10.9127 4.4312C10.8466 4.59182 10.7238 4.47845 10.6765 4.58237H10.7805C10.7049 4.7052 10.7805 4.78079 10.8844 4.87527C10.9883 4.96975 11.0545 5.15871 11.1962 5.18706H11.2529C11.4891 5.18706 11.4796 4.76189 11.6875 4.6863C11.7536 4.6863 11.8198 4.6863 11.8859 4.6863C11.9448 4.6607 11.999 4.62559 12.0465 4.58237C12.1394 4.53084 12.2419 4.49919 12.3476 4.48943C12.4533 4.47967 12.56 4.49202 12.6606 4.52569C12.0261 3.8586 11.2013 3.40332 10.2986 3.22184C10.1927 3.24956 10.0932 3.2977 10.0057 3.36356H10.1474C10.1327 3.40257 10.1048 3.43521 10.0686 3.4559C10.0324 3.47659 9.99012 3.48403 9.94903 3.47694C9.81676 3.47694 9.66559 3.4297 9.59 3.4297C9.72085 3.38452 9.84734 3.3276 9.96793 3.25963C9.96793 3.25963 9.96793 3.1935 10.0341 3.1557C9.83275 3.1416 9.6307 3.1416 9.42938 3.1557L9.40104 2.96674ZM13.596 5.92401C13.5671 5.93739 13.5414 5.95671 13.5204 5.9807V6.05629C13.5204 6.05629 13.5204 6.16022 13.5204 6.19801C13.5204 6.2358 13.5204 6.30194 13.5204 6.33973C13.5469 6.38691 13.5822 6.4286 13.6244 6.46256C13.6244 6.46256 13.6999 6.52869 13.7472 6.52869H13.8511C13.8057 6.31076 13.7457 6.09612 13.6716 5.88622L13.596 5.92401ZM13.8039 6.746C13.7454 6.79856 13.6946 6.85898 13.6527 6.92551C13.6329 6.98793 13.6007 7.04576 13.5582 7.09558C13.5015 7.15227 13.4259 7.16172 13.3787 7.22786C13.3315 7.29399 13.3787 7.34123 13.3031 7.40737C13.2275 7.47351 13.237 7.45461 13.2181 7.50185C13.1992 7.54909 13.2181 7.72861 13.2181 7.83254C13.2181 7.93647 13.1708 8.05929 13.2181 8.16322C13.2931 8.26338 13.3786 8.35523 13.4732 8.43722C13.5335 8.49863 13.6082 8.54409 13.6905 8.56949C13.7895 8.19644 13.8403 7.81224 13.8417 7.42627C13.8416 7.19833 13.8226 6.9708 13.785 6.746H13.8039Z" fill="#747474"/>
<path d="M16.4491 12.4527C15.5042 12.396 15.7688 8.62623 16.6758 8.67347C16.9181 8.61221 17.1643 8.56801 17.4128 8.54119C17.3652 6.56958 16.6337 4.67581 15.3436 3.18409C14.5631 2.43768 13.636 1.86161 12.6211 1.49241C11.6062 1.1232 10.5257 0.968928 9.44799 1.03937C8.36948 0.96842 7.28804 1.12337 6.27284 1.49431C5.25765 1.86524 4.33106 2.444 3.55234 3.19354C2.25884 4.68394 1.52399 6.57784 1.47375 8.55064C1.72219 8.57746 1.96845 8.62166 2.21071 8.68291C3.15552 8.62623 3.35393 12.396 2.43746 12.4622C-0.973317 13.4731 0.00928967 8.87188 0.576178 8.60733C0.580492 6.33872 1.40997 4.14916 2.90987 2.44714C3.76864 1.60569 4.794 0.953268 5.92001 0.531826C7.04603 0.110384 8.24778 -0.0707506 9.44799 6.97682e-05C10.648 -0.0689917 11.8493 0.11296 12.975 0.534305C14.1008 0.955651 15.1263 1.60713 15.9861 2.44714C17.4778 4.15408 18.3061 6.34046 18.3198 8.60733C18.8772 8.87188 19.8598 13.4731 16.4491 12.4527Z" fill="#747474"/>
<path d="M17.7907 12.0842C17.7907 12.0842 18.3198 15.1738 15.6648 15.1738C13.0099 15.1738 13.7752 15.1265 13.7752 15.1265" stroke="#747474" stroke-linecap="round" stroke-linejoin="round"/>
<path d="M10.7612 15.9485C10.5106 15.9485 10.2703 15.8489 10.0931 15.6717C9.91595 15.4946 9.81641 15.2542 9.81641 15.0037C9.81641 14.7531 9.91595 14.5128 10.0931 14.3356C10.2703 14.1584 10.5106 14.0588 10.7612 14.0588H12.3296C12.5802 14.0588 12.8205 14.1584 12.9977 14.3356C13.1749 14.5128 13.2744 14.7531 13.2744 15.0037C13.2744 15.2542 13.1749 15.4946 12.9977 15.6717C12.8205 15.8489 12.5802 15.9485 12.3296 15.9485H10.7612Z" fill="#747474"/>
<path d="M12.33 14.5312C12.4553 14.5312 12.5755 14.581 12.6641 14.6696C12.7527 14.7582 12.8024 14.8784 12.8024 15.0036C12.8 15.1282 12.7495 15.2469 12.6614 15.335C12.5733 15.4231 12.4546 15.4736 12.33 15.4761H10.7522C10.6276 15.4736 10.5089 15.4231 10.4208 15.335C10.3327 15.2469 10.2822 15.1282 10.2798 15.0036C10.2798 14.8784 10.3295 14.7582 10.4181 14.6696C10.5067 14.581 10.6269 14.5312 10.7522 14.5312H12.33ZM12.33 13.5864H10.7522C10.3763 13.5864 10.0158 13.7357 9.75006 14.0015C9.48427 14.2673 9.33496 14.6278 9.33496 15.0036C9.33744 15.3788 9.48755 15.7378 9.75279 16.003C10.018 16.2683 10.3771 16.4184 10.7522 16.4209H12.33C12.7059 16.4209 13.0664 16.2716 13.3322 16.0058C13.5979 15.74 13.7472 15.3795 13.7472 15.0036C13.7472 14.6278 13.5979 14.2673 13.3322 14.0015C13.0664 13.7357 12.7059 13.5864 12.33 13.5864Z" fill="#747474"/>
</g>
<defs>
<clipPath id="clip0_530_84">
<rect width="18.8963" height="16.4209" fill="white"/>
</clipPath>
</defs>
</svg>
