<svg width="33" height="33" viewBox="0 0 33 33" fill="none" xmlns="http://www.w3.org/2000/svg">
<g id="bath 1" clipPath="url(#clip0_405_9144)">
<g id="Page-1">
<g id="010---Bath-and-Shower">
<g id="Group">
<path id="Shape" d="M30.8 20.35V22.55C30.8026 24.3013 30.1081 25.9815 28.8698 27.2198C27.6315 28.4581 25.9512 29.1527 24.2 29.15H8.79997C7.04874 29.1527 5.36847 28.4581 4.13016 27.2198C2.89185 25.9815 2.19734 24.3013 2.19997 22.55L2.19997 17.05H8.46447C9.7841 17.0507 11.0592 17.5272 12.056 18.392C13.2274 19.3909 14.6611 20.0323 16.1865 20.24V20.2455C16.6543 20.3161 17.1268 20.351 17.6 20.35H18.7V25.3C18.7018 25.9068 19.1932 26.3982 19.8 26.4H26.07C26.6767 26.3982 27.1682 25.9068 27.17 25.3V20.35H30.8Z" fill="#00BCD4"/>
<path id="Shape_2" d="M14.5365 20.24V20.2455C15.0043 20.3161 15.4768 20.351 15.95 20.35H17.05V25.3C17.0518 25.9068 17.5432 26.3982 18.15 26.4H19.8C19.1932 26.3982 18.7018 25.9068 18.7 25.3V20.35H17.6C17.1268 20.351 16.6543 20.3161 16.1865 20.2455V20.24C14.6611 20.0323 13.2274 19.3909 12.056 18.392C11.0592 17.5272 9.7841 17.0507 8.46447 17.05H6.81447C8.1341 17.0507 9.40923 17.5272 10.406 18.392C11.5774 19.3909 13.0111 20.0323 14.5365 20.24Z" fill="#00838F"/>
<path id="Shape_3" d="M29.15 20.35V22.55C29.1526 24.3013 28.4581 25.9815 27.2198 27.2198C25.9815 28.4582 24.3012 29.1527 22.55 29.15L24.2 29.15C25.9512 29.1527 27.6315 28.4582 28.8698 27.2198C30.1081 25.9815 30.8026 24.3013 30.8 22.55L30.8 20.35H29.15Z" fill="#00838F"/>
<path id="Shape_4" d="M18.7 18.975L18.7 20.3501L17.6 20.35C17.1269 20.351 16.6543 20.3161 16.1865 20.2455V20.24C14.6611 20.0323 13.2274 19.3909 12.056 18.392C11.0593 17.5272 9.78412 17.0507 8.46449 17.05H1.09999C0.796235 17.05 0.549992 16.8038 0.549992 16.5V15.95C0.549992 15.0388 1.28872 14.3 2.19999 14.3H8.24999C10.2732 14.2654 12.2413 14.9605 13.794 16.258C14.0148 16.4509 14.2522 16.624 14.5035 16.775C15.3505 17.3037 16.3266 17.5891 17.325 17.6C17.8811 17.5986 18.3829 17.9332 18.5955 18.447C18.6659 18.6141 18.7015 18.7937 18.7 18.975Z" fill="#F5F5F5"/>
<path id="Shape_5" d="M15.675 17.6C16.231 17.5986 16.7329 17.9332 16.9455 18.447C17.0159 18.6141 17.0515 18.7938 17.05 18.975V20.3302C17.2331 20.3407 17.4163 20.35 17.6 20.35H18.7V18.975C18.7015 18.7938 18.6659 18.6141 18.5955 18.447C18.3829 17.9332 17.881 17.5986 17.325 17.6" fill="#CFD8DC"/>
<path id="Shape_6" d="M32.45 19.25V19.8C32.45 20.1038 32.2037 20.35 31.9 20.35H27.17V18.975C27.1696 18.5031 27.0762 18.0358 26.895 17.6H30.8C31.7112 17.6 32.45 18.3388 32.45 19.25Z" fill="#F5F5F5"/>
<path id="Shape_7" d="M30.8 17.6H29.15C30.0613 17.6 30.8 18.3388 30.8 19.25V19.8C30.8 20.1038 30.5537 20.35 30.25 20.35H31.9C32.2037 20.35 32.45 20.1038 32.45 19.8V19.25C32.45 18.3388 31.7113 17.6 30.8 17.6Z" fill="#CFD8DC"/>
<path id="Shape_8" d="M9.81198 29.15C8.89586 29.7996 8.32826 30.8334 8.27198 31.955C8.24384 32.235 8.00889 32.4486 7.72748 32.45H3.84998C3.54622 32.45 3.29998 32.2038 3.29998 31.9V31.35C3.30179 30.7433 3.79322 30.2518 4.39998 30.25H5.49998V28.27C6.50296 28.8496 7.64157 29.1533 8.79998 29.15H9.81198Z" fill="#FFDC00"/>
<path id="Shape_9" d="M8.8 29.15C7.64159 29.1533 6.50298 28.8496 5.5 28.27V28.9383C6.03892 29.0779 6.59329 29.149 7.15 29.15H8.162C7.24588 29.7996 6.67828 30.8334 6.622 31.955C6.59386 32.235 6.35891 32.4486 6.0775 32.45H7.7275C8.00891 32.4486 8.24386 32.235 8.272 31.955C8.32828 30.8334 8.89588 29.7996 9.812 29.15H8.8Z" fill="#FEC108"/>
<path id="Shape_10" d="M29.7 31.35V31.9C29.7 32.2038 29.4538 32.45 29.15 32.45H25.2725C24.9911 32.4486 24.7561 32.235 24.728 31.955C24.6717 30.8334 24.1041 29.7996 23.188 29.15H24.2C25.3584 29.1533 26.497 28.8496 27.5 28.27V30.25H28.6C29.2068 30.2518 29.6982 30.7433 29.7 31.35Z" fill="#FFDC00"/>
<path id="Shape_11" d="M28.6 30.25H27.5V28.27C26.9832 28.5673 26.428 28.7921 25.85 28.9383V30.25H26.95C27.5568 30.2518 28.0482 30.7433 28.05 31.35V31.9C28.05 32.2038 27.8038 32.45 27.5 32.45H29.15C29.4538 32.45 29.7 32.2038 29.7 31.9V31.35C29.6982 30.7433 29.2068 30.2518 28.6 30.25Z" fill="#FEC108"/>
<path id="Shape_12" d="M22 26.4H19.8C19.1932 26.3982 18.7018 25.9068 18.7 25.3C18.7 18.4162 18.7423 18.7979 18.5955 18.447C18.3829 17.9332 17.8811 17.5986 17.325 17.6C16.3266 17.5891 15.3505 17.3037 14.5035 16.775C15.4456 15.5774 17.0424 15.1071 18.4833 15.6026C19.9242 16.0982 20.8938 17.4513 20.9 18.975V25.3C20.9018 25.9068 21.3932 26.3982 22 26.4Z" fill="#AD1457"/>
<path id="Shape_13" d="M27.225 18.975V25.3C27.2232 25.9068 26.7318 26.3982 26.125 26.4H22.055C21.4482 26.3982 20.9568 25.9068 20.955 25.3V18.975C20.9555 17.0866 19.485 15.5245 17.6 15.411V15.4H23.65C25.6244 15.4 27.225 17.0006 27.225 18.975Z" fill="#E91E63"/>
<path id="Shape_14" d="M26.95 17.6C26.3928 16.2696 25.0924 15.4027 23.65 15.4H22C23.9744 15.4 25.575 17.0006 25.575 18.975V25.3C25.5732 25.9068 25.0818 26.3982 24.475 26.4H26.125C26.7318 26.3982 27.2232 25.9068 27.225 25.3V18.975C27.2247 18.5031 27.1312 18.0358 26.95 17.6Z" fill="#AD1457"/>
<path id="Shape_15" d="M13.6565 3.30555L11.8745 1.51805C11.2566 0.89511 10.4144 0.546357 9.53698 0.550047H6.59998C4.77744 0.550047 3.29998 2.02751 3.29998 3.85005V14.3H5.49998V3.85005C5.50179 3.24329 5.99322 2.75186 6.59998 2.75005H9.53698C9.83029 2.74914 10.1117 2.86605 10.318 3.07455L11.4675 4.22405" fill="#7F8E94"/>
<path id="Shape_16" d="M17.0445 6.63855C17.0275 6.92656 16.7885 7.15113 16.5 7.15005H11C10.6962 7.15005 10.45 6.9038 10.45 6.60005C10.448 5.70182 10.816 4.84242 11.4675 4.22405C12.4266 3.30966 13.8396 3.05767 15.0557 3.58415C16.2717 4.11063 17.0549 5.31345 17.0445 6.63855Z" fill="#9E9E9E"/>
<path id="Shape_17" d="M12.925 3.41661C14.3712 3.8246 15.3763 5.13594 15.3945 6.63851C15.3776 6.92652 15.1385 7.1511 14.85 7.15001H16.5C16.7885 7.1511 17.0276 6.92652 17.0445 6.63851C17.0508 5.61498 16.5823 4.64633 15.7761 4.01575C14.9698 3.38518 13.9169 3.1639 12.925 3.41661Z" fill="#707070"/>
</g>
<path id="Shape_18" fill-rule="evenodd" clip-rule="evenodd" d="M17.05 6.60001V6.71551C17.0509 6.68972 17.0491 6.6639 17.0445 6.63851C17.049 6.6262 17.0509 6.61308 17.05 6.60001Z" stroke="black" stroke-width="1.3" stroke-linecap="round" stroke-linejoin="round"/>
<path id="Shape_19" d="M8.8 27.5C6.06745 27.497 3.85303 25.2826 3.85 22.55C3.85 22.2462 4.09624 22 4.4 22C4.70376 22 4.95 22.2462 4.95 22.55C4.95242 24.6753 6.67471 26.3976 8.8 26.4C9.10376 26.4 9.35 26.6462 9.35 26.95C9.35 27.2538 9.10376 27.5 8.8 27.5Z" fill="#F5F5F5"/>
<path id="Shape_20" d="M31.35 22.55V20.9H31.9C32.5075 20.9 33 20.4075 33 19.8V19.25C33 18.035 32.015 17.05 30.8 17.05H27.2305C26.5213 15.6985 25.1214 14.8513 23.595 14.85H17.545C16.3791 14.7917 15.2427 15.2276 14.415 16.0507C12.8469 14.8759 11.3432 13.75 8.25 13.75H6.05V3.85002C6.05 3.54626 6.29624 3.30002 6.6 3.30002H9.537C9.68466 3.29969 9.82615 3.35922 9.92915 3.46502L10.7107 4.24657C10.1871 4.9195 9.90189 5.74736 9.9 6.60002C9.9 7.20753 10.3925 7.70002 11 7.70002H16.5C17.0622 7.69358 17.5327 7.27157 17.6 6.71332C17.6295 4.74815 16.1969 3.0659 14.2522 2.78192C14.1295 2.76652 14.0069 2.75882 13.8842 2.75497L12.265 1.12917C11.5432 0.403252 10.5607 -0.00339675 9.537 2.13755e-05H6.6C4.47471 0.00244613 2.75242 1.72473 2.75 3.85002V13.75H2.2C0.984973 13.75 0 14.735 0 15.95V16.5C0 17.1075 0.492487 17.6 1.1 17.6H1.65V22.55C1.65245 24.9866 2.89635 27.254 4.95 28.5654V29.7H4.4C3.48873 29.7 2.75 30.4388 2.75 31.35V31.9H0.55C0.246243 31.9 0 32.1463 0 32.45C0 32.7538 0.246243 33 0.55 33H32.45C32.7538 33 33 32.7538 33 32.45C33 32.1463 32.7538 31.9 32.45 31.9H30.25V31.35C30.25 30.4388 29.5113 29.7 28.6 29.7H28.05V28.5654C30.1037 27.254 31.3475 24.9866 31.35 22.55ZM31.9 19.25V19.8H27.72V18.975C27.7199 18.6979 27.6917 18.4215 27.6359 18.15H30.8C31.4075 18.15 31.9 18.6425 31.9 19.25ZM26.3874 17.8107C26.5411 18.1796 26.6201 18.5753 26.62 18.975V25.3C26.62 25.6038 26.3738 25.85 26.07 25.85H22C21.6962 25.85 21.45 25.6038 21.45 25.3V18.975C21.4508 17.826 20.9707 16.7291 20.1262 15.95H23.595C24.816 15.9499 25.9174 16.6837 26.3874 17.8107ZM19.25 18.975C19.2519 18.7214 19.2019 18.47 19.1032 18.2364C18.8074 17.5196 18.1092 17.0514 17.3338 17.05C16.6716 17.042 16.018 16.8995 15.4127 16.6309C16.3177 15.8925 17.5671 15.7411 18.6224 16.2421C19.6776 16.7431 20.3501 17.8069 20.35 18.975V25.3C20.3518 25.4878 20.3861 25.6739 20.4512 25.85H19.8C19.4962 25.85 19.25 25.6038 19.25 25.3V18.975ZM16.5 6.60002H11C11.0054 5.08499 12.2311 3.85756 13.7462 3.85002C15.2578 3.86866 16.4792 5.08842 16.5 6.60002ZM3.85 3.85002C3.85182 2.33199 5.08197 1.10184 6.6 1.10002H9.537C10.268 1.09784 10.9695 1.38817 11.4851 1.90632L12.5301 2.95407C12.1624 3.07624 11.8153 3.25332 11.5005 3.47932L10.7069 2.68567C10.3975 2.37393 9.97619 2.19903 9.537 2.20002H6.6C5.68873 2.20002 4.95 2.93875 4.95 3.85002V13.75H3.85V3.85002ZM1.1 15.95C1.1 15.3425 1.59249 14.85 2.2 14.85H8.25C10.1403 14.8141 11.9802 15.4611 13.4321 16.6722C13.675 16.8847 13.9361 17.0754 14.2126 17.242C15.1453 17.8236 16.2198 18.1377 17.319 18.15H17.325C17.7806 18.15 18.15 18.5194 18.15 18.975V19.8H17.6C15.7093 19.8338 13.8695 19.1867 12.4163 17.9768C11.3196 17.025 9.91654 16.5007 8.4645 16.5H1.1V15.95ZM2.75 22.55V17.6H8.4645C9.65122 17.6006 10.798 18.0288 11.6947 18.8062C13.347 20.192 15.4437 20.9354 17.6 20.9H18.15V25.3C18.15 26.2113 18.8887 26.95 19.8 26.95H26.07C26.9813 26.95 27.72 26.2113 27.72 25.3V20.9H30.25V22.55C30.2461 25.8897 27.5397 28.5961 24.2 28.6H8.8C5.46031 28.5961 2.75394 25.8897 2.75 22.55ZM10.0001 29.7H22.9999C23.6786 30.2385 24.1013 31.0361 24.1659 31.9H8.83355C8.8986 31.0361 9.32148 30.2386 10.0001 29.7ZM3.85 31.9V31.35C3.85 31.0463 4.09624 30.8 4.4 30.8H5.5C5.80376 30.8 6.05 30.5538 6.05 30.25V29.15C6.83134 29.4741 7.6643 29.6558 8.5096 29.6868C8.05445 30.3407 7.78425 31.1053 7.7275 31.9H3.85ZM27.5 30.8H28.6C28.9038 30.8 29.15 31.0463 29.15 31.35V31.9H25.2753C25.2172 31.1047 24.9461 30.3396 24.4904 29.6852C25.3356 29.6547 26.1686 29.4735 26.95 29.15V30.25C26.95 30.5538 27.1962 30.8 27.5 30.8Z" fill="black"/>
<path id="Shape_21" d="M13.2 9.35002V12.1C13.2 12.4038 13.4463 12.65 13.75 12.65C14.0538 12.65 14.3 12.4038 14.3 12.1V9.35002C14.3 9.04626 14.0538 8.80002 13.75 8.80002C13.4463 8.80002 13.2 9.04626 13.2 9.35002Z" fill="black"/>
<path id="Shape_22" d="M11.039 9.14541L9.93905 11.8954C9.82605 12.1776 9.96321 12.498 10.2454 12.611C10.5276 12.724 10.8479 12.5868 10.9609 12.3046L12.0609 9.55461C12.1739 9.27242 12.0368 8.95205 11.7546 8.83906C11.4724 8.72606 11.152 8.86322 11.039 9.14541Z" fill="black"/>
<path id="Shape_23" d="M16.461 9.14541C16.348 8.86322 16.0276 8.72606 15.7454 8.83906C15.4632 8.95205 15.3261 9.27242 15.4391 9.55461L16.5391 12.3046C16.6122 12.4872 16.7771 12.6168 16.9717 12.6448C17.1664 12.6728 17.3611 12.5948 17.4827 12.4402C17.6042 12.2856 17.6341 12.078 17.561 11.8954L16.461 9.14541Z" fill="black"/>
</g>
</g>
</g>
<defs>
<clipPath id="clip0_405_9144">
<rect width="33" height="33" fill="white"/>
</clipPath>
</defs>
</svg>
