<svg width="29" height="31" viewBox="0 0 29 31" fill="none" xmlns="http://www.w3.org/2000/svg">
<path d="M25.9411 5.82701V29.2129H2.4917V5.82701C2.4917 4.69826 3.40676 3.7832 4.53551 3.7832H23.8973C25.0261 3.7832 25.9411 4.69826 25.9411 5.82701Z" fill="white"/>
<path d="M5.11809 7.87903H20.1101V29.2129H5.11809V7.87903Z" fill="#FDCE06"/>
<path d="M27.4024 28.8027H26.3516V5.82711C26.3516 4.47409 25.2507 3.37299 23.8976 3.37299H4.53576C3.18274 3.37299 2.0818 4.47409 2.0818 5.82711V28.8027H1.03098C0.804487 28.8027 0.620819 28.9861 0.620819 29.2128C0.620819 29.4396 0.804487 29.623 1.03098 29.623H27.4023C27.6288 29.623 27.8125 29.4396 27.8125 29.2128C27.8125 28.9861 27.6289 28.8027 27.4024 28.8027ZM12.2041 28.8027H5.5285V8.28928H12.2041V28.8027ZM19.7001 28.8027H13.0245V8.28928H19.7001V28.8027ZM25.5312 28.8027H20.5205V7.87913C20.5205 7.65239 20.3368 7.46897 20.1103 7.46897H5.11835C4.89186 7.46897 4.70819 7.65239 4.70819 7.87913V28.8027H2.90211V5.82711C2.90211 4.92633 3.63489 4.1933 4.53576 4.1933H23.8976C24.7984 4.1933 25.5312 4.92633 25.5312 5.82711V28.8027Z" fill="#3E3E3E"/>
<path d="M15.8423 5.31168H11.9027C11.6762 5.31168 11.4926 5.4951 11.4926 5.72183C11.4926 5.94857 11.6762 6.13199 11.9027 6.13199H15.8423C16.0687 6.13199 16.2524 5.94857 16.2524 5.72183C16.2524 5.4951 16.0688 5.31168 15.8423 5.31168Z" fill="#3E3E3E"/>
<path d="M23.3328 14.0724C23.1729 13.9125 22.9133 13.9119 22.7528 14.0724L21.5841 15.2411C21.4239 15.4014 21.4239 15.6609 21.5841 15.8211C21.7443 15.9813 22.0038 15.9813 22.164 15.8211L23.0428 14.9423L23.9214 15.8211C24.0816 15.9813 24.3411 15.9813 24.5013 15.8211C24.6616 15.6609 24.6616 15.4014 24.5013 15.2411L23.3328 14.0724Z" fill="#3E3E3E"/>
<path d="M23.9214 17.9748L23.0428 18.8536L22.164 17.9748C22.0038 17.8146 21.7443 17.8146 21.5841 17.9748C21.4239 18.135 21.4239 18.3945 21.5841 18.5547L22.7528 19.7235C22.9127 19.8834 23.1724 19.884 23.3328 19.7235L24.5014 18.5547C24.6616 18.3945 24.6616 18.135 24.5014 17.9748C24.3412 17.8146 24.0816 17.8146 23.9214 17.9748Z" fill="#3E3E3E"/>
</svg>
