<svg width="33" height="33" viewBox="0 0 33 33" fill="none" xmlns="http://www.w3.org/2000/svg">
<g id="atm-card 1">
<g id="_x35_">
<g id="Group">
<g id="Group_2">
<g id="Group_3">
<g id="Group_4">
<path id="Vector" d="M30.8557 17.5992L10.8594 28.6042C9.76317 29.2075 8.38539 28.8079 7.78207 27.7116L1.68847 16.6395C1.08515 15.5432 1.48474 14.1654 2.58099 13.5621L22.5773 2.55711C23.6735 1.95379 25.0513 2.35339 25.6546 3.44963L31.7482 14.5218C32.3516 15.6181 31.952 16.9958 30.8557 17.5992Z" fill="#FEBC1F"/>
</g>
</g>
<g id="Group_5">
<g id="Group_6">
<path id="Vector_2" d="M30.419 16.8056L10.4227 27.8107C9.32646 28.414 7.94868 28.0144 7.34536 26.9181L1.25176 15.8459C0.648439 14.7497 1.04803 13.3719 2.14428 12.7686L22.1406 1.7636C23.2368 1.16028 24.6146 1.55987 25.2179 2.65612L31.3115 13.7283C31.9149 14.8246 31.5153 16.2023 30.419 16.8056Z" fill="#FFD475"/>
</g>
</g>
<g id="Group_7">
<g id="Group_8">
<g id="Group_9">
<path id="Vector_3" d="M22.1406 1.76359L2.14428 12.7686C1.04803 13.3719 0.648449 14.7497 1.25176 15.8459L7.34537 26.9181C7.34537 26.9181 1.66734 16.0592 24.1622 1.68486C23.5352 1.40316 22.7891 1.40665 22.1406 1.76359Z" fill="#FEBC1F"/>
</g>
</g>
</g>
<g id="Group_10">
<g id="Group_11">
<path id="Vector_4" d="M3.04284 17.2037L3.80803 18.5941C4.00092 18.9446 4.44139 19.0723 4.79187 18.8794L25.8865 7.26994C26.237 7.07706 26.3648 6.63658 26.1719 6.28611L25.4067 4.89574C25.2138 4.54527 24.7733 4.41752 24.4229 4.6104L3.32818 16.2199C2.97771 16.4128 2.84996 16.8533 3.04284 17.2037Z" fill="#1D2943"/>
</g>
</g>
<g id="Group_12">
<g id="Group_13">
<path id="Vector_5" d="M2.83078 16.8184L3.59597 18.2088C3.78886 18.5592 4.22933 18.687 4.57981 18.4941L25.6745 6.88462C26.025 6.69174 26.1527 6.25126 25.9598 5.90079L25.1946 4.51042C25.0017 4.15995 24.5613 4.0322 24.2108 4.22508L3.11612 15.8346C2.76565 16.0275 2.6379 16.4679 2.83078 16.8184Z" fill="#4C5C75"/>
</g>
</g>
</g>
<g id="Group_14">
<g id="Group_15">
<path id="Vector_6" d="M27.2402 31.5176L4.41557 31.5176C3.16427 31.5176 2.1499 30.5032 2.1499 29.2519L2.14989 16.6136C2.14989 15.3623 3.16427 14.348 4.41557 14.348L27.2402 14.348C28.4915 14.348 29.5059 15.3623 29.5059 16.6136L29.5059 29.2519C29.5059 30.5032 28.4915 31.5176 27.2402 31.5176Z" fill="#5094FF"/>
</g>
</g>
<g id="Group_16">
<g id="Group_17">
<path id="Vector_7" d="M4.41557 30.6118L27.2402 30.6118C28.4915 30.6118 29.5059 29.5974 29.5059 28.3461L29.5059 15.7079C29.5059 14.4566 28.4915 13.4422 27.2402 13.4422L4.41557 13.4422C3.16427 13.4422 2.1499 14.4566 2.1499 15.7079L2.14989 28.3461C2.14989 29.5974 3.16427 30.6118 4.41557 30.6118Z" fill="#57B3FE"/>
</g>
</g>
<g id="Group_18">
<g id="Group_19">
<g id="Group_20">
<path id="Vector_8" d="M4.41558 13.4422L27.2402 13.4422C28.4915 13.4422 29.5059 14.4566 29.5059 15.7079L29.5059 28.3462C29.5059 28.3462 29.2446 16.0951 2.6065 14.348C3.01994 13.7989 3.67528 13.4422 4.41558 13.4422Z" fill="#5094FF"/>
</g>
</g>
</g>
<g id="Group_21">
<g id="Group_22">
<g id="Group_23">
<g id="Group_24">
<path id="Vector_9" d="M27.7306 26.5454V26.8971H27.7259C27.735 27.3726 27.3384 27.772 26.8602 27.772L24.5614 27.772C24.0917 27.772 23.6864 27.3799 23.6957 26.8971H23.691V26.5454H23.7472C23.8829 26.2038 24.2526 25.9699 24.6409 25.9699L26.7806 25.9699C27.169 25.9699 27.5387 26.2038 27.6744 26.5454H27.7306Z" fill="#E3E7F0"/>
</g>
</g>
<g id="Group_25">
<g id="Group_26">
<path id="Vector_10" d="M26.8578 27.4231L24.6356 27.4231C24.1879 27.4231 23.7648 27.1191 23.702 26.6758C23.6254 26.136 24.0429 25.6729 24.568 25.6729L26.7814 25.6728C27.2562 25.6728 27.6984 26.0173 27.7273 26.4912C27.7594 27.0173 27.3434 27.4231 26.8578 27.4231Z" fill="white"/>
</g>
</g>
</g>
<g id="Group_27">
<g id="Group_28">
<g id="Group_29">
<path id="Vector_11" d="M21.1419 26.5454V26.8971H21.1373C21.1464 27.3726 20.7498 27.772 20.2716 27.772L17.9728 27.772C17.5031 27.772 17.0978 27.3799 17.1071 26.8971H17.1024V26.5454H17.1586C17.2943 26.2038 17.664 25.9699 18.0523 25.9699L20.192 25.9699C20.5804 25.9699 20.9501 26.2038 21.0858 26.5454H21.1419Z" fill="#E3E7F0"/>
</g>
</g>
<g id="Group_30">
<g id="Group_31">
<path id="Vector_12" d="M20.2692 27.4231L18.047 27.4231C17.5993 27.4231 17.1762 27.1191 17.1133 26.6758C17.0368 26.136 17.4543 25.6729 17.9794 25.6729L20.1928 25.6728C20.6676 25.6728 21.1097 26.0174 21.1387 26.4913C21.1707 27.0173 20.7548 27.4231 20.2692 27.4231Z" fill="white"/>
</g>
</g>
</g>
<g id="Group_32">
<g id="Group_33">
<g id="Group_34">
<path id="Vector_13" d="M14.5533 26.5454V26.8971H14.5486C14.5578 27.3726 14.1612 27.7721 13.683 27.7721H11.3842C10.9145 27.7721 10.5092 27.38 10.5185 26.8971H10.5138V26.5454H10.57C10.7057 26.2038 11.0754 25.9699 11.4637 25.9699H13.6034C13.9918 25.9699 14.3615 26.2038 14.4972 26.5454H14.5533Z" fill="#E3E7F0"/>
</g>
</g>
<g id="Group_35">
<g id="Group_36">
<path id="Vector_14" d="M13.6806 27.4231L11.4584 27.4231C11.0107 27.4231 10.5876 27.1191 10.5247 26.6758C10.4482 26.136 10.8657 25.6729 11.3908 25.6729L13.6042 25.6728C14.079 25.6728 14.5211 26.0174 14.55 26.4913C14.5821 27.0173 14.1662 27.4231 13.6806 27.4231Z" fill="white"/>
</g>
</g>
</g>
<g id="Group_37">
<g id="Group_38">
<g id="Group_39">
<path id="Vector_15" d="M7.96472 26.5454V26.8971H7.96003C7.96919 27.3726 7.57253 27.7721 7.09436 27.7721L4.79555 27.7721C4.32586 27.7721 3.92058 27.38 3.92988 26.8971H3.92519V26.5454H3.98134C4.11706 26.2038 4.48675 25.9699 4.87506 25.9699L7.01479 25.9699C7.40316 25.9699 7.77285 26.2038 7.90857 26.5454H7.96472Z" fill="#E3E7F0"/>
</g>
</g>
<g id="Group_40">
<g id="Group_41">
<path id="Vector_16" d="M7.09196 27.4231L4.86978 27.4231C4.42206 27.4231 3.99897 27.1191 3.93612 26.6758C3.85958 26.136 4.27708 25.6729 4.80215 25.6729L7.01558 25.6728C7.49036 25.6728 7.93251 26.0174 7.96142 26.4913C7.99352 27.0173 7.57757 27.4231 7.09196 27.4231Z" fill="white"/>
</g>
</g>
</g>
</g>
<g id="Group_42">
<g id="Group_43">
<g id="Group_44">
<path id="Vector_17" d="M3.92704 17.4345L3.92704 19.5487C3.92704 20.0816 4.35905 20.5136 4.89197 20.5136L8.85067 20.5136C9.38358 20.5136 9.8156 20.0816 9.8156 19.5486L9.8156 17.4345C9.8156 16.9016 9.38358 16.4696 8.85066 16.4696L4.89197 16.4696C4.35905 16.4696 3.92704 16.9016 3.92704 17.4345Z" fill="#FEBC1F"/>
</g>
</g>
<g id="Group_45">
<g id="Group_46">
<path id="Vector_18" d="M3.92704 17.1051L3.92704 19.2192C3.92704 19.7521 4.35905 20.1842 4.89197 20.1842L8.85067 20.1841C9.38358 20.1841 9.8156 19.7521 9.8156 19.2192V17.1051C9.8156 16.5721 9.38358 16.1401 8.85066 16.1401L4.89197 16.1401C4.35905 16.1401 3.92704 16.5722 3.92704 17.1051Z" fill="#FFD475"/>
</g>
</g>
</g>
<g id="Group_47">
<g id="Group_48">
<g id="Group_49">
<path id="Vector_19" d="M6.76877 17.934V16.1401H6.31043V17.934H3.92704V18.3924H5.23099V20.1841H5.68933V18.3924H7.75303V20.1841H8.21134V18.3924H9.8156V17.934H6.76877Z" fill="#FEBC1F"/>
</g>
</g>
</g>
<g id="Group_50">
<g id="Group_51">
<g id="Group_52">
<g id="Group_53">
<path id="Vector_20" d="M27.3122 19.5168L24.7317 19.5168C24.5167 19.5168 24.3135 19.3708 24.2833 19.158C24.2466 18.8987 24.4471 18.6763 24.6992 18.6763L27.2755 18.6763C27.5035 18.6763 27.7158 18.8417 27.7297 19.0693C27.7451 19.322 27.5454 19.5168 27.3122 19.5168Z" fill="white"/>
</g>
</g>
</g>
<g id="Group_54">
<g id="Group_55">
<g id="Group_56">
<path id="Vector_21" d="M27.3122 17.7176L22.7818 17.7176C22.5668 17.7176 22.3636 17.5716 22.3334 17.3587C22.2966 17.0995 22.4971 16.8771 22.7493 16.8771L27.2755 16.8771C27.5035 16.8771 27.7158 17.0425 27.7297 17.2701C27.7451 17.5227 27.5454 17.7176 27.3122 17.7176Z" fill="white"/>
</g>
</g>
</g>
</g>
</g>
<g id="Group_57">
<g id="Group_58">
<path id="Vector_22" d="M26.6236 7.92018C27.7022 9.30426 28.5837 10.8084 29.2592 12.4281C28.179 11.0452 27.3007 9.53902 26.6236 7.92018Z" fill="white"/>
</g>
</g>
<g id="Group_59">
<g id="Group_60">
<path id="Vector_23" d="M6.52446 12.4272C8.09628 11.2244 9.78902 10.2181 11.5991 9.41714C10.0282 10.6215 8.33353 11.6245 6.52446 12.4272Z" fill="white"/>
</g>
</g>
<g id="Group_61">
<g id="Group_62">
<path id="Vector_24" d="M19.5049 29.4743C21.4703 29.2418 23.4394 29.2398 25.4048 29.4743C23.4394 29.7088 21.4703 29.7069 19.5049 29.4743Z" fill="white"/>
</g>
</g>
</g>
</g>
</svg>
