<svg width="54" height="54" viewBox="0 0 54 54" fill="none" xmlns="http://www.w3.org/2000/svg">
<g id="Group 1171277378">
<circle id="Ellipse 1144" cx="27" cy="27" r="27" fill="white"/>
<g id="Group">
<g id="Group_2">
<path id="Vector" d="M17.4034 27.041H39.5965C39.767 27.041 39.933 27.06 40.0931 27.0951V20.0634C40.0931 18.9105 39.1585 17.9759 38.0056 17.9759H18.9943C17.8414 17.9759 16.9067 18.9105 16.9067 20.0634V27.0951C17.0669 27.06 17.2329 27.041 17.4034 27.041Z" fill="#F6A96C"/>
</g>
<g id="Group_3">
<path id="Vector_2" d="M38.0056 17.9759H35.5734C36.7263 17.9759 37.6609 18.9105 37.6609 20.0634V27.041H39.5965C39.767 27.041 39.933 27.06 40.0931 27.0951V20.0634C40.0931 18.9105 39.1585 17.9759 38.0056 17.9759Z" fill="#EA9B58"/>
</g>
<path id="Vector_3" d="M40.0931 27.035V20.0634C40.0931 18.9105 39.1585 17.9759 38.0056 17.9759H23.4764C23.45 17.9941 23.4277 18.0179 23.4123 18.0463L22.7811 19.2003C22.7032 19.3426 22.4988 19.3426 22.4211 19.2003L21.7899 18.0463C21.7744 18.0179 21.7522 17.9941 21.7258 17.9759H18.9943C17.8414 17.9759 16.9067 18.9105 16.9067 20.0634V21.6388" stroke="black" stroke-width="0.875251" stroke-miterlimit="10" stroke-linecap="round" stroke-linejoin="round"/>
<path id="Vector_4" d="M16.9067 23.681V27.035" stroke="black" stroke-width="0.875251" stroke-miterlimit="10" stroke-linecap="round" stroke-linejoin="round"/>
<g id="Group_4">
<g id="Group_5">
<path id="Vector_5" d="M17.7428 35.2686H15.026V38.1995H17.7428V35.2686Z" fill="#E2DEE2"/>
<path id="Vector_6" d="M17.7428 35.2686H15.026V38.1995H17.7428V35.2686Z" fill="#E2DEE2"/>
<path id="Vector_7" d="M17.7428 35.2686H16.5223V38.1995H17.7428V35.2686Z" fill="#CBC4CC"/>
<path id="Vector_8" d="M41.974 35.2686H39.2571V38.1995H41.974V35.2686Z" fill="#E2DEE2"/>
<path id="Vector_9" d="M41.9741 35.2686H40.7536V38.1995H41.9741V35.2686Z" fill="#CBC4CC"/>
</g>
</g>
<g id="Group_6">
<path id="Vector_10" d="M17.7428 35.327H15.026V38.1996H17.7428V35.327Z" stroke="black" stroke-width="0.875251" stroke-miterlimit="10" stroke-linecap="round" stroke-linejoin="round"/>
<path id="Vector_11" d="M41.974 35.327H39.2571V38.1996H41.974V35.327Z" stroke="black" stroke-width="0.875251" stroke-miterlimit="10" stroke-linecap="round" stroke-linejoin="round"/>
</g>
<path id="Vector_12" d="M14 38.1996H43" stroke="black" stroke-width="0.875251" stroke-miterlimit="10" stroke-linecap="round" stroke-linejoin="round"/>
<g id="Group_7">
<path id="Vector_13" d="M38.0115 27.041C38.0962 26.8655 38.1438 26.6691 38.1438 26.4621V23.4054C38.1438 22.6677 37.5402 22.0641 36.8024 22.0641H30.9745C30.2368 22.0641 29.6332 22.6677 29.6332 23.4054V26.4621C29.6332 26.6691 29.6807 26.8655 29.7654 27.041H38.0115Z" fill="white"/>
<path id="Vector_14" d="M36.8024 22.0641H34.9775C35.7152 22.0641 36.3188 22.6677 36.3188 23.4054V26.4621C36.3188 26.6691 36.2713 26.8655 36.1866 27.041H38.0116C38.0962 26.8655 38.1438 26.6691 38.1438 26.4621V23.4054C38.1438 22.6677 37.5402 22.0641 36.8024 22.0641Z" fill="#F3F0F3"/>
<path id="Vector_15" d="M27.2345 27.041C27.3192 26.8655 27.3668 26.6691 27.3668 26.4621V23.4054C27.3668 22.6677 26.7632 22.0641 26.0254 22.0641H20.1975C19.4598 22.0641 18.8562 22.6677 18.8562 23.4054V26.4621C18.8562 26.6691 18.9037 26.8655 18.9884 27.041H27.2345Z" fill="white"/>
<path id="Vector_16" d="M26.0253 22.0641H24.2003C24.9381 22.0641 25.5417 22.6677 25.5417 23.4054V26.4621C25.5417 26.6691 25.4941 26.8655 25.4095 27.041H27.2344C27.3191 26.8655 27.3667 26.6691 27.3667 26.4621V23.4054C27.3667 22.6677 26.7631 22.0641 26.0253 22.0641Z" fill="#F3F0F3"/>
</g>
<g id="Group_8">
<path id="Vector_17" d="M38.0377 26.9827C38.1058 26.8224 38.1438 26.6464 38.1438 26.4621V23.4054C38.1438 22.6677 37.5402 22.0641 36.8024 22.0641H30.9745C30.2368 22.0641 29.6332 22.6677 29.6332 23.4054V26.4621C29.6332 26.6464 29.6711 26.8224 29.7392 26.9827" stroke="black" stroke-width="0.875251" stroke-miterlimit="10" stroke-linecap="round" stroke-linejoin="round"/>
<path id="Vector_18" d="M27.2607 26.9827C27.3288 26.8224 27.3668 26.6464 27.3668 26.4621V23.4054C27.3668 22.6677 26.7632 22.0641 26.0254 22.0641H20.1975C19.4598 22.0641 18.8562 22.6677 18.8562 23.4054V26.4621C18.8562 26.6464 18.8941 26.8224 18.9622 26.9827H27.2607Z" stroke="black" stroke-width="0.875251" stroke-miterlimit="10" stroke-linecap="round" stroke-linejoin="round"/>
</g>
<path id="Vector_19" d="M41.974 30.666V29.3602C41.974 28.0471 40.9095 26.9827 39.5964 26.9827H17.4034C16.0903 26.9827 15.0259 28.0471 15.0259 29.3602V30.666H41.974Z" fill="#FFE5C2"/>
<path id="Vector_20" d="M39.5965 26.9827H36.9076C38.2206 26.9827 39.2851 28.0471 39.2851 29.3602V30.666H41.9741V29.3602C41.974 28.0471 40.9096 26.9827 39.5965 26.9827Z" fill="#FED2A4"/>
<path id="Vector_21" d="M33.1679 26.9827H17.4034C16.0903 26.9827 15.0259 28.0471 15.0259 29.3602V30.6077H41.974V29.3602C41.974 28.0471 40.9095 26.9827 39.5964 26.9827H35.2102" stroke="black" stroke-width="0.875251" stroke-miterlimit="10" stroke-linecap="round" stroke-linejoin="round"/>
<path id="Vector_22" d="M42.1247 35.327H14.8753C14.3919 35.327 14 34.9351 14 34.4518V31.4829C14 30.9995 14.3919 30.6077 14.8753 30.6077H42.1247C42.6081 30.6077 43 30.9995 43 31.4829V34.4518C43 34.9351 42.6081 35.327 42.1247 35.327Z" fill="#F6A96C"/>
<path id="Vector_23" d="M42.1247 30.6077H39.178C39.6614 30.6077 40.0533 30.9995 40.0533 31.4829V34.4518C40.0533 34.9351 39.6614 35.327 39.178 35.327H42.1247C42.6081 35.327 43 34.9351 43 34.4518V31.4829C43 30.9995 42.6081 30.6077 42.1247 30.6077Z" fill="#EA9B58"/>
<path id="Vector_24" d="M14 34.4517C14 34.9351 14.3919 35.3269 14.8753 35.3269H42.1247C42.6081 35.3269 43 34.9351 43 34.4517V33.1014H14V34.4517Z" fill="#B5ADB6"/>
<path id="Vector_25" d="M43 34.4517V33.1014H40.0533V34.4517C40.0533 34.9351 39.6614 35.3269 39.178 35.3269H42.1247C42.6081 35.3269 43 34.9351 43 34.4517Z" fill="#A79BA7"/>
<path id="Vector_26" d="M23.5986 35.327H42.1247C42.6081 35.327 43 34.9351 43 34.4518V31.4829C43 30.9995 42.6081 30.6077 42.1247 30.6077H14.8753C14.3919 30.6077 14 30.9995 14 31.4829V34.4518C14 34.9351 14.3919 35.327 14.8753 35.327H21.5563" stroke="black" stroke-width="0.875251" stroke-miterlimit="10" stroke-linecap="round" stroke-linejoin="round"/>
<path id="Vector_27" d="M43 33.1014H14" stroke="black" stroke-width="0.875251" stroke-miterlimit="10" stroke-linecap="round" stroke-linejoin="round"/>
<path id="Vector_28" d="M22.7812 15.1067L23.4123 16.2607C23.4312 16.2952 23.4595 16.3235 23.4939 16.3423L24.6479 16.9735C24.7902 17.0513 24.7902 17.2557 24.6479 17.3335L23.4939 17.9647C23.4595 17.9835 23.4312 18.0118 23.4123 18.0462L22.7812 19.2002C22.7033 19.3425 22.4989 19.3425 22.4211 19.2002L21.79 18.0462C21.7711 18.0118 21.7428 17.9835 21.7084 17.9647L20.5544 17.3335C20.4121 17.2557 20.4121 17.0513 20.5544 16.9735L21.7084 16.3423C21.7428 16.3235 21.7711 16.2952 21.79 16.2607L22.4211 15.1067C22.499 14.9644 22.7033 14.9644 22.7812 15.1067Z" fill="#FFE177"/>
<g id="Group_9">
<path id="Vector_29" d="M24.6479 16.9734L23.8107 16.5155L22.6588 17.1455C22.6244 17.1644 22.5961 17.1927 22.5772 17.2271L21.9597 18.3563L22.4211 19.2002C22.499 19.3425 22.7034 19.3425 22.7812 19.2002L23.4123 18.0462C23.4312 18.0118 23.4595 17.9835 23.4939 17.9646L24.6479 17.3335C24.7902 17.2556 24.7902 17.0512 24.6479 16.9734Z" fill="#FFD15B"/>
</g>
</g>
</g>
</svg>
