<svg width="20" height="20" viewBox="0 0 20 20" fill="none" xmlns="http://www.w3.org/2000/svg">
<g id="exit (2) 1" clipPath="url(#clip0_405_9118)">
<g id="Mask group">
<mask id="mask0_405_9118" style="mask-type:luminance" maskUnits="userSpaceOnUse" x="0" y="0" width="20" height="20">
<g id="Group">
<path id="bg" d="M0 20H20V0H0V20Z" fill="white"/>
</g>
</mask>
<g mask="url(#mask0_405_9118)">
<g id="Group_2">
<g id="g2640">
<g id="g2642">
<g id="Clip path group">
<mask id="mask1_405_9118" style="mask-type:luminance" maskUnits="userSpaceOnUse" x="0" y="0" width="20" height="20">
<g id="clipPath2648">
<path id="path2646" d="M20 20H1.90735e-06V0H20V20Z" fill="white"/>
</g>
</mask>
<g mask="url(#mask1_405_9118)">
<g id="g2644">
<g id="g2650">
<path id="path2652 (Stroke)" fill-rule="evenodd" clip-rule="evenodd" d="M20 3.12503C20 1.39914 18.6009 3.05176e-05 16.875 3.05176e-05H9.02345C7.29756 3.05176e-05 5.89845 1.39914 5.89845 3.12503V4.68753C5.89845 5.119 6.24822 5.46878 6.6797 5.46878C7.11117 5.46878 7.46095 5.119 7.46095 4.68753V3.12503C7.46095 2.26209 8.1605 1.56253 9.02345 1.56253H16.875C17.7379 1.56253 18.4375 2.26209 18.4375 3.12503V16.875C18.4375 17.738 17.7379 18.4375 16.875 18.4375H9.02345C8.1605 18.4375 7.46095 17.738 7.46095 16.875V15.3125C7.46095 14.8811 7.11117 14.5313 6.6797 14.5313C6.24822 14.5313 5.89845 14.8811 5.89845 15.3125V16.875C5.89845 18.6009 7.29756 20 9.02345 20H16.875C18.6009 20 20 18.6009 20 16.875V3.12503Z" fill="#FF6764"/>
</g>
<g id="g2654">
<path id="path2656 (Stroke)" fill-rule="evenodd" clip-rule="evenodd" d="M12.3438 9.96094C12.3438 9.52947 11.994 9.17969 11.5625 9.17969H0.976563C0.545091 9.17969 0.195313 9.52947 0.195313 9.96094C0.195313 10.3924 0.545091 10.7422 0.976563 10.7422H11.5625C11.994 10.7422 12.3438 10.3924 12.3438 9.96094Z" fill="#FF6764"/>
</g>
<g id="g2658">
<path id="path2660 (Stroke)" fill-rule="evenodd" clip-rule="evenodd" d="M3.42638 6.83038C3.12128 6.52529 2.62662 6.52529 2.32152 6.83039L0.572075 8.57988C0.572077 8.57988 0.572073 8.57988 0.572075 8.57988C-0.19067 9.34263 -0.190677 10.5792 0.572068 11.342C0.57207 11.342 0.572066 11.342 0.572068 11.342L2.32152 13.0915C2.62662 13.3966 3.12128 13.3966 3.42638 13.0915C3.73148 12.7864 3.73148 12.2917 3.42639 11.9866L1.67694 10.2371C1.52438 10.0846 1.52437 9.83729 1.67693 9.68473L3.42639 7.93523C3.73148 7.63013 3.73148 7.13547 3.42638 6.83038Z" fill="#FF6764"/>
</g>
</g>
</g>
</g>
</g>
</g>
</g>
</g>
</g>
</g>
<defs>
<clipPath id="clip0_405_9118">
<rect width="20" height="20" fill="white" transform="matrix(-1 0 0 -1 20 20)"/>
</clipPath>
</defs>
</svg>
