<svg width="20" height="20" viewBox="0 0 20 20" fill="none" xmlns="http://www.w3.org/2000/svg">
<g id="exit (2) 1" clipPath="url(#clip0_405_9099)">
<g id="Mask group">
<mask id="mask0_405_9099" style="mask-type:luminance" maskUnits="userSpaceOnUse" x="0" y="0" width="20" height="20">
<g id="Group">
<path id="bg" d="M20 0H0V20H20V0Z" fill="white"/>
</g>
</mask>
<g mask="url(#mask0_405_9099)">
<g id="Group_2">
<g id="g2640">
<g id="g2642">
<g id="Clip path group">
<mask id="mask1_405_9099" style="mask-type:luminance" maskUnits="userSpaceOnUse" x="0" y="0" width="20" height="20">
<g id="clipPath2648">
<path id="path2646" d="M0 1.90735e-06H20V20H0V1.90735e-06Z" fill="white"/>
</g>
</mask>
<g mask="url(#mask1_405_9099)">
<g id="g2644">
<g id="g2650">
<path id="path2652 (Stroke)" fill-rule="evenodd" clip-rule="evenodd" d="M-7.62939e-06 16.875C-7.62939e-06 18.6008 1.39911 20 3.12499 20H10.9766C12.7024 20 14.1016 18.6008 14.1016 16.875V15.3125C14.1016 14.881 13.7518 14.5312 13.3203 14.5312C12.8888 14.5312 12.5391 14.881 12.5391 15.3125V16.875C12.5391 17.7379 11.8395 18.4375 10.9766 18.4375H3.12499C2.26205 18.4375 1.56249 17.7379 1.56249 16.875V3.12496C1.56249 2.26202 2.26205 1.56246 3.12499 1.56246H10.9766C11.8395 1.56246 12.5391 2.26202 12.5391 3.12496V4.68746C12.5391 5.11894 12.8888 5.46871 13.3203 5.46871C13.7518 5.46871 14.1016 5.11894 14.1016 4.68746V3.12496C14.1016 1.39908 12.7024 -3.62396e-05 10.9766 -3.62396e-05H3.12499C1.39911 -3.62396e-05 -7.62939e-06 1.39908 -7.62939e-06 3.12496V16.875Z" fill="#FF6764"/>
</g>
<g id="g2654">
<path id="path2656 (Stroke)" fill-rule="evenodd" clip-rule="evenodd" d="M7.65625 10.0391C7.65625 10.4705 8.00603 10.8203 8.4375 10.8203H19.0234C19.4549 10.8203 19.8047 10.4705 19.8047 10.0391C19.8047 9.60759 19.4549 9.25781 19.0234 9.25781H8.4375C8.00603 9.25781 7.65625 9.60759 7.65625 10.0391Z" fill="#FF6764"/>
</g>
<g id="g2658">
<path id="path2660 (Stroke)" fill-rule="evenodd" clip-rule="evenodd" d="M16.5736 13.1696C16.8787 13.4747 17.3734 13.4747 17.6785 13.1696L19.4279 11.4201C19.4279 11.4201 19.4279 11.4201 19.4279 11.4201C20.1907 10.6574 20.1907 9.42076 19.4279 8.65801C19.4279 8.65801 19.4279 8.65801 19.4279 8.65801L17.6785 6.90852C17.3734 6.60342 16.8787 6.60341 16.5736 6.9085C16.2685 7.2136 16.2685 7.70826 16.5736 8.01336L18.3231 9.76285C18.4756 9.91541 18.4756 10.1627 18.3231 10.3153L16.5736 12.0648C16.2685 12.3699 16.2685 12.8645 16.5736 13.1696Z" fill="#FF6764"/>
</g>
</g>
</g>
</g>
</g>
</g>
</g>
</g>
</g>
</g>
<defs>
<clipPath id="clip0_405_9099">
<rect width="20" height="20" fill="white"/>
</clipPath>
</defs>
</svg>
