<svg width="33" height="33" viewBox="0 0 33 33" fill="none" xmlns="http://www.w3.org/2000/svg">
<g id="parking-area 1" clipPath="url(#clip0_405_8931)">
<g id="g4206">
<g id="g4208">
<g id="Clip path group">
<mask id="mask0_405_8931" style="mask-type:luminance" maskUnits="userSpaceOnUse" x="0" y="0" width="33" height="33">
<g id="clipPath4214">
<path id="path4212" d="M0 3.8147e-06H33V33H0V3.8147e-06Z" fill="white"/>
</g>
</mask>
<g mask="url(#mask0_405_8931)">
<g id="g4210">
<g id="g4216">
<path id="path4218" fill-rule="evenodd" clip-rule="evenodd" d="M11.6246 31.7913C11.6246 32.1895 11.9516 32.5166 12.3499 32.5166H14.5917C14.99 32.5166 15.3152 32.1895 15.3152 31.7913V29.396H11.6246V31.7913Z" fill="#6F6571"/>
</g>
<g id="g4220">
<path id="path4222" fill-rule="evenodd" clip-rule="evenodd" d="M27.253 31.7913C27.253 32.1895 27.5799 32.5166 27.9783 32.5166H30.22C30.6183 32.5166 30.9454 32.1895 30.9454 31.7913V29.396H27.253V31.7913Z" fill="#6F6571"/>
</g>
<g id="g4224">
<path id="path4226" fill-rule="evenodd" clip-rule="evenodd" d="M0.762928 32.5111H7.35481C7.51014 32.5111 7.63621 32.3851 7.63621 32.2316V31.1409C7.63621 30.3881 7.01868 29.7724 6.26593 29.7724H5.29392H2.82382H1.85367C1.09912 29.7724 0.483395 30.3881 0.483395 31.1409V32.2316C0.483395 32.3851 0.609465 32.5111 0.762928 32.5111Z" fill="#6F6571"/>
</g>
<g id="g4228">
<path id="path4230" fill-rule="evenodd" clip-rule="evenodd" d="M2.82382 1.71846V29.7724H5.29392V11.356V9.02654V4.92494V2.59541V1.71846C5.29392 1.0388 4.73853 0.483408 4.05887 0.483408C3.37921 0.483408 2.82382 1.0388 2.82382 1.71846Z" fill="#ECEAEC"/>
</g>
<g id="g4232">
<path id="path4234" fill-rule="evenodd" clip-rule="evenodd" d="M8.41085 12.4687H18.56C18.7902 12.4687 18.9784 12.2805 18.9784 12.0503V1.90118C18.9784 1.67096 18.7902 1.48275 18.56 1.48275H8.41085C8.18062 1.48275 7.99249 1.67096 7.99249 1.90118V2.59541V4.92494V9.02654V11.356V12.0503C7.99249 12.2805 8.18062 12.4687 8.41085 12.4687Z" fill="#9FD4FE"/>
</g>
<path id="path4236" fill-rule="evenodd" clip-rule="evenodd" d="M5.29392 11.356H7.99245V9.02653H5.29392V11.356Z" fill="#C8C5C9"/>
<path id="path4238" fill-rule="evenodd" clip-rule="evenodd" d="M5.29392 4.92493H7.99245V2.59546H5.29392V4.92493Z" fill="#C8C5C9"/>
<g id="g4240">
<path id="path4242" fill-rule="evenodd" clip-rule="evenodd" d="M18.9784 12.0503V1.90117C18.9784 1.67094 18.7902 1.48274 18.56 1.48274H16.5667C16.7951 1.48274 16.9833 1.67094 16.9833 1.90117V12.0503C16.9833 12.2805 16.7951 12.4686 16.5667 12.4686H18.56C18.7902 12.4686 18.9784 12.2805 18.9784 12.0503Z" fill="#72BFFC"/>
</g>
<g id="g4244">
<path id="path4246" fill-rule="evenodd" clip-rule="evenodd" d="M7.63619 31.1409C7.63619 30.3881 7.01866 29.7724 6.26591 29.7724H5.29396H4.31285C5.0656 29.7724 5.68126 30.3881 5.68126 31.1409V32.2316C5.68126 32.3851 5.55706 32.5093 5.4054 32.5111H7.35485C7.51012 32.5111 7.63619 32.3851 7.63619 32.2316V31.1409Z" fill="#5D5360"/>
</g>
<g id="g4248">
<path id="path4250 (Stroke)" fill-rule="evenodd" clip-rule="evenodd" d="M-1.14441e-05 32.2316C-1.14441e-05 32.652 0.342483 32.9945 0.76292 32.9945H7.35486C7.77508 32.9945 8.1196 32.6541 8.1196 32.2316V31.1409C8.1196 30.1203 7.28482 29.289 6.26593 29.289H1.85366C0.832548 29.289 -1.14441e-05 30.1207 -1.14441e-05 31.1409V32.2316ZM0.966785 32.0277V31.1409C0.966785 30.6555 1.36567 30.2558 1.85366 30.2558H6.26593C6.75253 30.2558 7.1528 30.6559 7.1528 31.1409V32.0277H0.966785Z" fill="black"/>
</g>
<g id="g4252">
<path id="path4254 (Stroke)" fill-rule="evenodd" clip-rule="evenodd" d="M8.47588 11.9853V1.96615H18.495V11.9853H8.47588ZM7.50909 12.0503C7.50909 12.5475 7.91365 12.9521 8.41085 12.9521H18.56C19.0571 12.9521 19.4618 12.5476 19.4618 12.0503V1.90118C19.4618 1.40398 19.0572 0.999355 18.56 0.999355H8.41085C7.91355 0.999355 7.50909 1.40408 7.50909 1.90118V12.0503Z" fill="black"/>
</g>
<g id="g4256">
<path id="path4258 (Stroke)" fill-rule="evenodd" clip-rule="evenodd" d="M2.34042 29.7724C2.34042 30.0394 2.55685 30.2558 2.82382 30.2558H5.29392C5.5609 30.2558 5.77732 30.0394 5.77732 29.7724V1.71848C5.77732 0.771881 5.00554 -3.05176e-05 4.05887 -3.05176e-05C3.11221 -3.05176e-05 2.34042 0.771881 2.34042 1.71848V19.4863C2.34042 19.7532 2.55685 19.9697 2.82382 19.9697C3.0908 19.9697 3.30722 19.7532 3.30722 19.4863V1.71848C3.30722 1.30577 3.64622 0.966766 4.05887 0.966766C4.47152 0.966766 4.81053 1.30577 4.81053 1.71848V29.289H3.30722V21.6915C3.30722 21.4245 3.0908 21.2081 2.82382 21.2081C2.55685 21.2081 2.34042 21.4245 2.34042 21.6915V29.7724Z" fill="black"/>
</g>
<path id="path4260 (Stroke)" fill-rule="evenodd" clip-rule="evenodd" d="M4.81052 4.92493C4.81052 5.1919 5.02695 5.40833 5.29392 5.40833H7.99245C8.25942 5.40833 8.47584 5.1919 8.47584 4.92493V2.59546C8.47584 2.32849 8.25942 2.11206 7.99245 2.11206H5.29392C5.02695 2.11206 4.81052 2.32849 4.81052 2.59546V4.92493ZM5.77732 4.44153V3.07886H7.50905V4.44153H5.77732Z" fill="black"/>
<path id="path4262 (Stroke)" fill-rule="evenodd" clip-rule="evenodd" d="M4.81052 11.356C4.81052 11.623 5.02695 11.8394 5.29392 11.8394H7.99245C8.25942 11.8394 8.47584 11.623 8.47584 11.356V9.02653C8.47584 8.75956 8.25942 8.54313 7.99245 8.54313H5.29392C5.02695 8.54313 4.81052 8.75956 4.81052 9.02653V11.356ZM5.77732 10.8726V9.50993H7.50905V10.8726H5.77732Z" fill="black"/>
<g id="g4264">
<path id="path4266" fill-rule="evenodd" clip-rule="evenodd" d="M15.3152 30.041H27.253H30.9454C31.4478 30.041 31.4643 29.8418 31.4643 29.3083V25.097C31.4643 24.3608 31.499 24.3991 31.1828 23.7341L30.2949 21.8632L21.284 20.6063L12.2732 21.8632L11.3871 23.7341C11.071 24.3991 11.1039 24.3608 11.1039 25.097V29.3083C11.1039 29.8418 11.1222 30.041 11.6246 30.041H15.3152Z" fill="#FF8086"/>
</g>
<g id="g4268">
<path id="path4270" fill-rule="evenodd" clip-rule="evenodd" d="M10.0533 20.3687C10.0533 21.1909 10.7202 21.8632 11.5369 21.8632H12.2732L14.0381 20.3687L13.6909 18.8743H11.5369C10.7202 18.8743 10.0533 19.5466 10.0533 20.3687Z" fill="#FF8086"/>
</g>
<g id="g4272">
<path id="path4274" fill-rule="evenodd" clip-rule="evenodd" d="M28.879 18.8742L28.7803 20.2573L30.2949 21.8632H31.033C31.8479 21.8632 32.5166 21.1909 32.5166 20.3687C32.5166 19.5466 31.8479 18.8742 31.033 18.8742H28.879Z" fill="#FF8086"/>
</g>
<g id="g4276">
<path id="path4278" fill-rule="evenodd" clip-rule="evenodd" d="M12.2732 21.8632H30.2949L28.879 18.8742L28.1153 17.2628C27.3315 15.6093 27.178 15.6294 25.3072 15.6349H17.261C15.3919 15.6294 15.2384 15.6093 14.4547 17.2628L13.691 18.8742L12.2732 21.8632Z" fill="#9FD4FE"/>
</g>
<g id="g4280">
<path id="path4282" fill-rule="evenodd" clip-rule="evenodd" d="M28.1153 17.2628C27.3315 15.6094 27.178 15.6294 25.3072 15.6349H24.2128C25.552 15.6459 25.7511 15.7975 26.4472 17.2628L27.2109 18.8742L28.5099 21.6129L28.6268 21.8632H30.2949L28.8791 18.8742L28.1153 17.2628Z" fill="#72BFFC"/>
</g>
<g id="g4284">
<path id="path4286 (Stroke)" fill-rule="evenodd" clip-rule="evenodd" d="M29.8115 21.8632C29.8115 22.1302 30.028 22.3466 30.2949 22.3466H31.033C32.118 22.3466 33 21.4547 33 20.3687C33 19.2827 32.118 18.3908 31.033 18.3908H28.879C28.6121 18.3908 28.3956 18.6072 28.3956 18.8742C28.3956 19.1412 28.6121 19.3576 28.879 19.3576H31.033C31.5779 19.3576 32.0332 19.8105 32.0332 20.3687C32.0332 20.927 31.5779 21.3798 31.033 21.3798H30.2949C30.028 21.3798 29.8115 21.5963 29.8115 21.8632Z" fill="black"/>
</g>
<g id="g4288">
<path id="path4290 (Stroke)" fill-rule="evenodd" clip-rule="evenodd" d="M11.5921 29.5572C11.5883 29.4966 11.5873 29.4181 11.5873 29.3083V25.097C11.5873 25.014 11.5871 24.9436 11.5869 24.8832C11.5861 24.647 11.5858 24.564 11.6019 24.4786C11.6193 24.3869 11.6577 24.2907 11.8237 23.9417L11.8239 23.9412L14.8915 17.4698C15.088 17.0552 15.2312 16.7761 15.3631 16.5784C15.4898 16.3885 15.5876 16.3025 15.6816 16.2515C15.7812 16.1974 15.923 16.1571 16.1828 16.1363C16.4381 16.1158 16.7595 16.1168 17.2104 16.1182L17.261 16.1183H25.3072L25.3578 16.1182C25.8091 16.1168 26.1309 16.1158 26.3864 16.1363C26.6465 16.1571 26.7885 16.1974 26.8882 16.2516C26.9823 16.3026 27.0801 16.3885 27.2068 16.5784C27.3387 16.7761 27.4819 17.0552 27.6785 17.4698L30.7463 23.9416C30.9119 24.2901 30.9499 24.3862 30.9669 24.4774C30.9826 24.5618 30.9823 24.6433 30.9814 24.8706C30.9811 24.9338 30.9809 25.0082 30.9809 25.097V29.3083C30.9809 29.418 30.9799 29.4965 30.9762 29.5572C30.9668 29.5574 30.9565 29.5576 30.9453 29.5576H22.3985C22.1316 29.5576 21.9151 29.774 21.9151 30.041C21.9151 30.308 22.1316 30.5244 22.3985 30.5244H30.9453C31.2282 30.5244 31.6065 30.4737 31.8123 30.1155C31.8959 29.9701 31.9228 29.8156 31.9348 29.6961C31.947 29.5745 31.9476 29.438 31.9476 29.3083V25.097C31.9476 25.0372 31.948 24.9801 31.9484 24.9253C31.95 24.6804 31.9513 24.4828 31.9173 24.3003C31.8726 24.0604 31.7699 23.8431 31.6194 23.5266L28.5521 17.0557C28.3567 16.6436 28.1868 16.3052 28.011 16.0418C27.8301 15.7706 27.6257 15.5518 27.3495 15.4019C27.079 15.2551 26.7829 15.1981 26.4635 15.1726C26.1666 15.1488 25.807 15.15 25.3824 15.1513C25.3573 15.1514 25.3319 15.1515 25.3062 15.1515C25.3061 15.1515 25.3059 15.1515 25.3057 15.1515H17.2624C17.2622 15.1515 17.2621 15.1515 17.2619 15.1515C17.2363 15.1515 17.2109 15.1514 17.1858 15.1513C16.7616 15.15 16.4023 15.1488 16.1056 15.1726C15.7864 15.1981 15.4905 15.2551 15.2201 15.402C14.9441 15.5519 14.7398 15.7706 14.5588 16.0418C14.3831 16.3052 14.2132 16.6436 14.0179 17.0557L10.9505 23.5266C10.9505 23.5267 10.9504 23.5267 10.9504 23.5268C10.8003 23.8426 10.6972 24.0597 10.652 24.2991C10.6171 24.4835 10.6183 24.6826 10.6198 24.9306C10.6202 24.9837 10.6205 25.0391 10.6205 25.097V29.3083C10.6205 29.4383 10.6212 29.575 10.6337 29.697C10.6459 29.8169 10.6733 29.9714 10.7574 30.1167C10.9638 30.4737 11.3415 30.5244 11.6246 30.5244H20.1988C20.4658 30.5244 20.6822 30.308 20.6822 30.041C20.6822 29.774 20.4658 29.5576 20.1988 29.5576H11.6246C11.6128 29.5576 11.602 29.5574 11.5921 29.5572Z" fill="black"/>
</g>
<g id="g4292">
<path id="path4294 (Stroke)" fill-rule="evenodd" clip-rule="evenodd" d="M11.7898 21.8632C11.7898 22.1302 12.0062 22.3466 12.2732 22.3466H30.2949C30.5619 22.3466 30.7783 22.1302 30.7783 21.8632C30.7783 21.5963 30.5619 21.3798 30.2949 21.3798H12.2732C12.0062 21.3798 11.7898 21.5963 11.7898 21.8632Z" fill="black"/>
</g>
<g id="g4296">
<path id="path4298 (Stroke)" fill-rule="evenodd" clip-rule="evenodd" d="M11.5369 21.3798C10.9907 21.3798 10.5367 20.9274 10.5367 20.3687C10.5367 19.8101 10.9907 19.3576 11.5369 19.3576H13.6909C13.9579 19.3576 14.1743 19.1412 14.1743 18.8742C14.1743 18.6072 13.9579 18.3908 13.6909 18.3908H11.5369C10.4498 18.3908 9.56994 19.2831 9.56994 20.3687C9.56994 21.4544 10.4498 22.3466 11.5369 22.3466H12.2732C12.5401 22.3466 12.7566 22.1302 12.7566 21.8632C12.7566 21.5963 12.5401 21.3798 12.2732 21.3798H11.5369Z" fill="black"/>
</g>
<g id="g4300">
<path id="path4302 (Stroke)" fill-rule="evenodd" clip-rule="evenodd" d="M18.3506 27.4466C18.3506 27.7136 18.567 27.93 18.834 27.93H23.7359C24.0029 27.93 24.2193 27.7136 24.2193 27.4466C24.2193 27.1796 24.0029 26.9632 23.7359 26.9632H18.834C18.567 26.9632 18.3506 27.1796 18.3506 27.4466ZM18.3506 25.2615C18.3506 25.5285 18.567 25.7449 18.834 25.7449H23.7359C24.0029 25.7449 24.2193 25.5285 24.2193 25.2615C24.2193 24.9946 24.0029 24.7781 23.7359 24.7781H18.834C18.567 24.7781 18.3506 24.9946 18.3506 25.2615Z" fill="black"/>
</g>
<g id="g4304">
<path id="path4306" fill-rule="evenodd" clip-rule="evenodd" d="M25.8224 25.8991C25.8224 26.7542 26.5148 27.4466 27.368 27.4466C28.2231 27.4466 28.9155 26.7542 28.9155 25.8991C28.9155 25.0441 28.2231 24.3517 27.368 24.3517C26.5148 24.3517 25.8224 25.0441 25.8224 25.8991Z" fill="#9FD4FE"/>
</g>
<g id="g4308">
<path id="path4310" fill-rule="evenodd" clip-rule="evenodd" d="M13.6526 25.8991C13.6526 26.7542 14.3469 27.4466 15.2001 27.4466C16.0551 27.4466 16.7476 26.7542 16.7476 25.8991C16.7476 25.0441 16.0551 24.3517 15.2001 24.3517C14.3469 24.3517 13.6526 25.0441 13.6526 25.8991Z" fill="#9FD4FE"/>
</g>
<g id="g4312">
<path id="path4314" fill-rule="evenodd" clip-rule="evenodd" d="M16.7476 25.8991C16.7476 25.0441 16.0551 24.3517 15.2001 24.3517C14.9955 24.3517 14.8 24.3918 14.6209 24.4631C15.1891 24.6933 15.5892 25.2487 15.5892 25.8991C15.5892 26.5477 15.1891 27.105 14.6209 27.3333C14.8 27.4064 14.9955 27.4466 15.2001 27.4466C16.0551 27.4466 16.7476 26.7542 16.7476 25.8991Z" fill="#72BFFC"/>
</g>
<g id="g4316">
<path id="path4318" fill-rule="evenodd" clip-rule="evenodd" d="M28.9155 25.8991C28.9155 25.0441 28.2231 24.3517 27.368 24.3517C27.1634 24.3517 26.9679 24.3918 26.7889 24.4631C27.3571 24.6933 27.7572 25.2487 27.7572 25.8991C27.7572 26.5477 27.3571 27.105 26.7889 27.3333C26.9679 27.4064 27.1634 27.4466 27.368 27.4466C28.2231 27.4466 28.9155 26.7542 28.9155 25.8991Z" fill="#72BFFC"/>
</g>
<g id="g4320">
<path id="path4322 (Stroke)" fill-rule="evenodd" clip-rule="evenodd" d="M27.3699 26.9632C26.784 26.9632 26.3058 26.4839 26.3058 25.8991C26.3058 25.3129 26.7837 24.835 27.3699 24.835C27.9539 24.835 28.4321 25.3125 28.4321 25.8991C28.4321 26.4843 27.9535 26.9632 27.3699 26.9632ZM25.339 25.8991C25.339 27.0171 26.2493 27.93 27.3699 27.93C28.489 27.93 29.3989 27.0167 29.3989 25.8991C29.3989 24.7793 28.4886 23.8682 27.3699 23.8682C26.2497 23.8682 25.339 24.7789 25.339 25.8991Z" fill="black"/>
</g>
<g id="g4324">
<path id="path4326 (Stroke)" fill-rule="evenodd" clip-rule="evenodd" d="M15.2001 26.9632C14.6164 26.9632 14.1378 26.4843 14.1378 25.8991C14.1378 25.3125 14.616 24.835 15.2001 24.835C15.7863 24.835 16.2641 25.3128 16.2641 25.8991C16.2641 26.4839 15.7859 26.9632 15.2001 26.9632ZM13.171 25.8991C13.171 27.0167 14.081 27.93 15.2001 27.93C16.3207 27.93 17.2309 27.0171 17.2309 25.8991C17.2309 24.7789 16.3203 23.8682 15.2001 23.8682C14.0814 23.8682 13.171 24.7792 13.171 25.8991Z" fill="black"/>
</g>
<path id="path4328" fill-rule="evenodd" clip-rule="evenodd" d="M11.6246 31.2779H15.3152V30.041H11.6246V31.2779Z" fill="#5D5360"/>
<path id="path4330" fill-rule="evenodd" clip-rule="evenodd" d="M27.253 31.2779H30.9454V30.041H27.253V31.2779Z" fill="#5D5360"/>
<g id="g4332">
<path id="path4334 (Stroke)" fill-rule="evenodd" clip-rule="evenodd" d="M11.1412 31.7913C11.1412 32.4565 11.6846 33 12.3499 33H14.5917C15.2586 33 15.7986 32.4548 15.7986 31.7913V30.041C15.7986 29.774 15.5821 29.5576 15.3152 29.5576H11.6246C11.3576 29.5576 11.1412 29.774 11.1412 30.041V31.7913ZM12.3499 32.0332C12.2186 32.0332 12.108 31.9226 12.108 31.7913V30.5244H14.8318V31.7913C14.8318 31.9242 14.7214 32.0332 14.5917 32.0332H12.3499Z" fill="black"/>
</g>
<g id="g4336">
<path id="path4338 (Stroke)" fill-rule="evenodd" clip-rule="evenodd" d="M26.7696 31.7913C26.7696 32.4564 27.3129 33 27.9783 33H30.22C30.8853 33 31.4288 32.4565 31.4288 31.7913V30.041C31.4288 29.774 31.2123 29.5576 30.9454 29.5576H27.253C26.986 29.5576 26.7696 29.774 26.7696 30.041V31.7913ZM27.9783 32.0332C27.847 32.0332 27.7364 31.9226 27.7364 31.7913V30.5244H30.462V31.7913C30.462 31.9226 30.3513 32.0332 30.22 32.0332H27.9783Z" fill="black"/>
</g>
<g id="g4340">
<path id="path4342 (Stroke)" fill-rule="evenodd" clip-rule="evenodd" d="M11.6357 11.0215C11.9027 11.0215 12.1191 10.8051 12.1191 10.5381V3.41337C12.1191 3.1464 11.9027 2.92997 11.6357 2.92997C11.3687 2.92997 11.1523 3.1464 11.1523 3.41337V10.5381C11.1523 10.8051 11.3687 11.0215 11.6357 11.0215Z" fill="black"/>
</g>
<g id="g4344">
<path id="path4346 (Stroke)" fill-rule="evenodd" clip-rule="evenodd" d="M11.6525 7.92688L11.6495 7.44349L11.1661 7.44641C11.1669 7.57463 11.2185 7.69729 11.3098 7.7874C11.401 7.87751 11.5243 7.92768 11.6525 7.92688ZM11.6357 3.41336L11.1523 3.41491C11.1519 3.28644 11.2026 3.16309 11.2933 3.0721C11.384 2.98111 11.5072 2.92997 11.6357 2.92997H13.6195C14.9847 2.92997 16.1529 4.03446 16.1529 5.42398C16.1529 6.81343 14.9847 7.91799 13.6195 7.91799C13.3456 7.91799 12.8544 7.92021 12.4305 7.92243C12.2188 7.92354 12.0243 7.92466 11.8827 7.92549C11.8119 7.92591 11.7543 7.92625 11.7145 7.9265L11.6526 7.92688C11.6526 7.92688 11.6525 7.92688 11.6495 7.44349C11.1661 7.44641 11.1661 7.44642 11.1661 7.44641L11.1657 7.38252C11.1655 7.34148 11.1651 7.28224 11.1647 7.2094C11.1639 7.06373 11.1628 6.86366 11.1617 6.64608C11.1595 6.2114 11.1572 5.70528 11.1572 5.42398C11.1572 5.19493 11.156 4.69304 11.1548 4.24762C11.1541 4.02508 11.1535 3.8169 11.1531 3.66435L11.1523 3.41491C11.1523 3.4149 11.1523 3.41491 11.6357 3.41336ZM12.1301 6.95725C12.1296 6.85983 12.129 6.75281 12.1284 6.64117C12.1262 6.20602 12.124 5.70239 12.124 5.42398C12.124 5.19328 12.1228 4.68987 12.1216 4.24492C12.1212 4.12219 12.1209 4.00384 12.1206 3.89676H13.6195C14.4752 3.89676 15.1861 4.59258 15.1861 5.42398C15.1861 6.25533 14.4752 6.9512 13.6195 6.9512C13.3426 6.9512 12.8489 6.95343 12.4254 6.95565C12.3214 6.9562 12.2216 6.95674 12.1301 6.95725Z" fill="black"/>
</g>
</g>
</g>
</g>
</g>
</g>
</g>
<defs>
<clipPath id="clip0_405_8931">
<rect width="33" height="33" fill="white"/>
</clipPath>
</defs>
</svg>
