<svg width="33" height="33" viewBox="0 0 33 33" fill="none" xmlns="http://www.w3.org/2000/svg">
<g clipPath="url(#clip0_405_8909)">
<path fill-rule="evenodd" clip-rule="evenodd" d="M32.5204 30.1225H0.479585C-0.159862 30.1225 -0.159862 29.1557 0.479585 29.1557H2.45882V19.0464C2.45882 18.4145 3.42561 18.4145 3.42561 19.0464V24.4132H9.64498C9.91903 24.4132 10.1322 24.6263 10.1322 24.8927V29.1557H14.6083V24.6796C12.0125 24.6796 12.1952 24.9156 12.1952 23.4159C12.1952 22.4263 13.0021 21.5965 14.0221 21.5965H16.0014V18.11H10.9619C10.4062 18.11 10.4824 17.5087 10.4824 17.1965C10.4824 9.27198 22.4415 9.27198 22.4415 17.1965C22.4415 17.5467 22.5329 18.11 22.0076 18.11H16.9682V21.5965H18.8713C19.8913 21.5965 20.7211 22.3959 20.7211 23.4159C20.7211 24.9156 20.9114 24.6796 18.308 24.6796V29.1557H22.8678V24.8699C22.8678 24.5959 23.081 24.3827 23.3474 24.3827H29.5439V19.0235C29.5439 18.3841 30.5107 18.3841 30.5107 19.0235V29.1557H32.5204C33.1675 29.1557 33.137 30.1225 32.5204 30.1225ZM22.5176 5.88444C22.3578 5.88444 22.1979 5.8007 22.1142 5.64084L21.2844 4.21731C20.9723 3.69966 21.7716 3.20485 22.0914 3.73772L22.9211 5.15364C23.1038 5.45814 22.8754 5.88444 22.5176 5.88444ZM21.4215 7.00347C21.1474 7.00347 20.0436 6.29551 19.7543 6.12042C19.2291 5.8007 19.7163 5.00139 20.2415 5.32111L21.6651 6.15087C22.0609 6.39447 21.8934 7.00347 21.4215 7.00347ZM20.9875 8.53357H19.3585C18.719 8.53357 18.719 7.56679 19.3585 7.56679H20.9875C21.627 7.56679 21.627 8.53357 20.9875 8.53357ZM19.9751 10.8934C19.4955 10.8934 19.3356 10.254 19.7315 10.0104L21.155 9.18063C21.6727 8.86091 22.1675 9.66021 21.6346 9.97994C21.3986 10.1322 20.173 10.8934 19.9751 10.8934ZM21.6879 12.6138C21.2844 12.6138 21.117 12.1875 21.2844 11.9135L22.1142 10.49C22.4415 9.96471 23.2332 10.4519 22.9211 10.9772L22.1142 12.3702C22.0076 12.5301 21.8478 12.6138 21.6879 12.6138ZM24.0478 13.2305C23.7813 13.2305 23.5682 13.0173 23.5682 12.7433V11.1066C23.5682 10.4747 24.5273 10.4747 24.5273 11.1066V12.7433C24.5273 13.0173 24.3142 13.2305 24.0478 13.2305ZM26.4076 12.6138C26.2478 12.6138 26.0879 12.5301 26.0042 12.3702L25.1744 10.9467C24.8547 10.4215 25.6616 9.94187 25.9813 10.4671L26.8111 11.8907C27.009 12.218 26.7197 12.6138 26.4076 12.6138ZM28.128 10.8934C27.8464 10.8934 26.7502 10.1855 26.4609 10.0104C25.928 9.69066 26.4228 8.89136 26.9481 9.20347L28.364 10.0408C28.7446 10.2692 28.6305 10.8934 28.128 10.8934ZM28.7446 8.53357H27.108C26.4685 8.53357 26.4685 7.56679 27.108 7.56679H28.7446C29.3765 7.56679 29.3765 8.53357 28.7446 8.53357ZM26.7045 7.00347C26.2249 7.00347 26.0651 6.36402 26.4609 6.12042L27.8844 5.29066C28.4021 4.97855 28.8969 5.77786 28.364 6.09758C28.128 6.24222 26.9024 7.00347 26.7045 7.00347ZM25.5779 5.88444C25.1668 5.88444 25.0069 5.45814 25.1744 5.18409L26.0042 3.76056C26.3239 3.22769 27.1232 3.7225 26.8111 4.24776L25.9813 5.66367C25.8976 5.8007 25.7377 5.88444 25.5779 5.88444ZM24.0478 5.48098C23.7813 5.48098 23.5682 5.26021 23.5682 4.99378V3.3571C23.5682 2.72527 24.5273 2.72527 24.5273 3.3571V4.99378C24.5273 5.26021 24.3142 5.48098 24.0478 5.48098ZM24.0478 9.76679C23.1114 9.76679 22.3349 8.99032 22.3349 8.05399C22.3349 7.11765 23.1114 6.33357 24.0478 6.33357C24.9841 6.33357 25.7682 7.11765 25.7682 8.05399C25.7682 8.99032 24.9841 9.76679 24.0478 9.76679ZM24.0478 7.30035C23.0429 7.30035 23.0125 8.86091 24.0478 8.86091C25.0754 8.86091 25.0754 7.30035 24.0478 7.30035ZM16.0014 17.1737V13.4512L13.8547 17.1737H16.0014ZM16.9682 13.4436V17.1737H19.1225L16.9682 13.4436ZM12.7889 17.1737L15.636 12.2332C13.2457 12.6367 11.4415 14.6997 11.4415 17.1737H12.7889ZM17.3336 12.2256L20.2111 17.1737H21.5509C21.528 14.6844 19.7087 12.6138 17.3336 12.2256ZM15.5751 29.1557H17.4249V24.2228C17.4249 23.9564 17.6381 23.7433 17.9045 23.7433H19.8381V23.4464C19.8381 22.9592 19.4346 22.5633 18.9246 22.5633H14.045C13.5654 22.5633 13.1619 22.9592 13.1619 23.4464V23.7433H15.0955C15.3619 23.7433 15.5751 23.9564 15.5751 24.2228V29.1557ZM29.5439 25.319H23.8346V29.1557H29.5439V25.319ZM3.42561 29.1557H9.14256V25.3495H3.42561V29.1557Z" fill="#4D4D4D"/>
<path fill-rule="evenodd" clip-rule="evenodd" d="M17.3336 12.2256L20.2111 17.1737H21.5509C21.528 14.6844 19.7086 12.6139 17.3336 12.2256Z" fill="#FF700D"/>
<path fill-rule="evenodd" clip-rule="evenodd" d="M19.1225 17.1737L16.9682 13.4436V17.1737H19.1225Z" fill="#FF700D"/>
<path fill-rule="evenodd" clip-rule="evenodd" d="M16.0014 17.1737V13.4512L13.8547 17.1737H16.0014Z" fill="#FF700D"/>
<path fill-rule="evenodd" clip-rule="evenodd" d="M12.7889 17.1737L15.636 12.2332C13.2457 12.6367 11.4415 14.6997 11.4415 17.1737H12.7889Z" fill="#FF700D"/>
<path fill-rule="evenodd" clip-rule="evenodd" d="M24.0478 7.30035C23.0429 7.30035 23.0125 8.86091 24.0478 8.86091C25.0754 8.86091 25.0754 7.30035 24.0478 7.30035Z" fill="#FFE600"/>
<path fill-rule="evenodd" clip-rule="evenodd" d="M18.9246 22.5633H14.045C13.5654 22.5633 13.1619 22.9592 13.1619 23.4464V23.7433H15.0955C15.3619 23.7433 15.5751 23.9564 15.5751 24.2228V29.1557H17.4249V24.2228C17.4249 23.9564 17.6381 23.7433 17.9045 23.7433H19.8381V23.4464C19.8381 22.9592 19.4346 22.5633 18.9246 22.5633Z" fill="#F3A766"/>
<path fill-rule="evenodd" clip-rule="evenodd" d="M29.5439 25.319H23.8346V29.1557H29.5439V25.319Z" fill="#F3A766"/>
<path fill-rule="evenodd" clip-rule="evenodd" d="M9.14256 29.1557V25.3495H3.42561V29.1557H9.14256Z" fill="#F3A766"/>
</g>
<defs>
<clipPath id="clip0_405_8909">
<rect width="33" height="33" fill="white"/>
</clipPath>
</defs>
</svg>
