<svg width="33" height="33" viewBox="0 0 33 33" fill="none" xmlns="http://www.w3.org/2000/svg">
<g id="toilet (1) 2">
<g id="g699">
<path id="path701" d="M19.6904 32.5166H25.459V28.0693H19.6904V32.5166Z" fill="#8F989E"/>
<g id="g703">
<g id="Clip path group">
<mask id="mask0_405_9175" style="mask-type:luminance" maskUnits="userSpaceOnUse" x="0" y="0" width="33" height="33">
<g id="clipPath709">
<path id="path707" d="M0 3.8147e-06H33V33H0V3.8147e-06Z" fill="white"/>
</g>
</mask>
<g mask="url(#mask0_405_9175)">
<g id="g705">
<g id="g711">
<path id="path713" d="M26.2646 27.1025H25.6201C25.2641 27.1025 24.9756 27.3911 24.9756 27.7471V32.5166H26.2646C26.6206 32.5166 26.9092 32.228 26.9092 31.8721V27.7471C26.9092 27.3911 26.6206 27.1025 26.2646 27.1025Z" fill="#687177"/>
</g>
<g id="g715">
<path id="path717" d="M25.4912 0.483399H23.6221C23.2661 0.483399 22.9775 0.771955 22.9775 1.12793V3.06152H26.1357V1.12793C26.1357 0.771955 25.8472 0.483399 25.4912 0.483399Z" fill="#B7B3FF"/>
</g>
<g id="g719">
<path id="path721" d="M26.1357 1.12793V3.06152H24.2021V1.12793C24.2021 0.783106 23.9314 0.501446 23.5905 0.484043C23.6008 0.483399 23.6111 0.483399 23.6221 0.483399H25.4912C25.847 0.483399 26.1357 0.772149 26.1357 1.12793Z" fill="#8888FF"/>
</g>
<g id="g723">
<path id="path725" d="M18.4014 25.4912H11.2471L8.66895 30.583L14.8887 31.4854L20.9795 30.583L18.4014 25.4912Z" fill="#9CDBEF"/>
</g>
<g id="g727">
<path id="path729" d="M18.0146 25.4912H11.7627C7.49113 25.4912 4.02832 22.0284 4.02832 17.7568V16.79H25.749V17.7568C25.749 22.0284 22.2862 25.4912 18.0146 25.4912Z" fill="#D2F1FF"/>
</g>
<g id="g731">
<path id="path733" d="M25.749 17.4346V17.7568C25.749 22.0281 22.286 25.4912 18.0146 25.4912H16.0811C20.3524 25.4912 23.8154 22.0281 23.8154 17.7568V17.4346H25.749Z" fill="#9CDBEF"/>
</g>
<g id="g735">
<path id="path737" d="M27.5537 17.4346H18.3369V2.41699H27.5537C28.9775 2.41699 30.1318 3.57128 30.1318 4.99512V14.8564C30.1318 16.2803 28.9775 17.4346 27.5537 17.4346Z" fill="#9CDBEF"/>
</g>
<g id="g739">
<path id="path741" d="M30.1318 4.99512V14.8564C30.1318 16.2802 28.9775 17.4346 27.5537 17.4346H25.6201C27.0439 17.4346 28.1982 16.2802 28.1982 14.8564V4.99512C28.1982 3.57135 27.0439 2.41699 25.6201 2.41699H27.5537C28.9775 2.41699 30.1318 3.57135 30.1318 4.99512Z" fill="#79C7E2"/>
</g>
<g id="g743">
<path id="path745" d="M17.8535 0.4834C18.4765 0.4834 18.9814 0.988391 18.9814 1.61133V15.8232H16.7256V1.61133C16.7256 0.988391 17.2306 0.4834 17.8535 0.4834Z" fill="#9292FF"/>
</g>
<g id="g747">
<path id="path749" d="M3.99609 15.1787H18.9814V17.4346H3.99609C3.37315 17.4346 2.86816 16.9296 2.86816 16.3066C2.86816 15.6837 3.37315 15.1787 3.99609 15.1787Z" fill="#B7B3FF"/>
</g>
<g id="g751">
<path id="path753" d="M21.624 32.5166H8.02441C7.66844 32.5166 7.37988 32.228 7.37988 31.8721V31.2275C7.37988 30.8716 7.66844 30.583 8.02441 30.583H21.624C21.98 30.583 22.2686 30.8716 22.2686 31.2275V31.8721C22.2686 32.228 21.98 32.5166 21.624 32.5166Z" fill="#D2F1FF"/>
</g>
<g id="g755">
<path id="path757" d="M22.2686 31.2275V31.8721C22.2686 32.2279 21.9798 32.5166 21.624 32.5166H19.6904C20.0462 32.5166 20.335 32.2279 20.335 31.8721V31.2275C20.335 30.8718 20.0462 30.583 19.6904 30.583H21.624C21.9798 30.583 22.2686 30.8718 22.2686 31.2275Z" fill="#9CDBEF"/>
</g>
<g id="g759">
<path id="path761" d="M10.4092 12.9229V10.7637C10.4092 9.28641 11.6067 8.08887 13.084 8.08887C13.9205 8.08887 14.5986 8.76698 14.5986 9.60352C14.5986 10.4401 13.9205 11.1182 13.084 11.1182C12.3681 11.1182 11.6879 11.431 11.222 11.9746L10.4092 12.9229Z" fill="#9CDBEF"/>
</g>
<g id="g763">
<path id="path765" d="M14.5986 9.60352C14.5986 10.0218 14.4291 10.4002 14.1552 10.6747C13.8806 10.9487 13.5023 11.1182 13.084 11.1182C12.7256 11.1182 12.3769 11.1962 12.0592 11.3425C11.7414 11.4888 11.4546 11.7028 11.2219 11.9747L10.4092 12.9229V11.2329C10.6464 11.1575 10.8958 11.1182 11.1504 11.1182C11.5687 11.1182 11.947 10.9487 12.2216 10.6747C12.4955 10.4002 12.665 10.0218 12.665 9.60352C12.665 9.18521 12.4955 8.80687 12.2216 8.5323C12.1455 8.45625 12.0618 8.38857 11.9709 8.33057C12.3099 8.17523 12.687 8.08887 13.084 8.08887C13.5023 8.08887 13.8806 8.25838 14.1552 8.5323C14.4291 8.80687 14.5986 9.18521 14.5986 9.60352Z" fill="#79C7E2"/>
</g>
<g id="g767">
<path id="path769" d="M8.47559 10.9893V8.83008C8.47559 7.35281 7.27805 6.15527 5.80078 6.15527C4.96424 6.15527 4.28613 6.83338 4.28613 7.66992C4.28613 8.50646 4.96424 9.18457 5.80078 9.18457C6.51666 9.18457 7.19684 9.49743 7.66277 10.041L8.47559 10.9893Z" fill="#9CDBEF"/>
</g>
<g id="g771">
<path id="path773" d="M8.47558 8.83008V10.9893L7.66282 10.0412C7.43015 9.76916 7.14333 9.55518 6.82558 9.40887C6.73341 9.36633 6.63866 9.32959 6.54198 9.2993V8.83008C6.54198 7.74984 5.90197 6.81979 4.98029 6.39697C5.21683 6.24357 5.49849 6.15527 5.80077 6.15527C7.27804 6.15527 8.47558 7.35281 8.47558 8.83008Z" fill="#79C7E2"/>
</g>
<g id="g775">
<path id="path777" d="M20.9795 30.583H19.0459L16.4678 25.4912H18.4014L20.9795 30.583Z" fill="#79C7E2"/>
</g>
<g id="g779">
<path id="path781 (Stroke)" fill-rule="evenodd" clip-rule="evenodd" d="M18.498 17.4346C18.498 17.7016 18.7145 17.918 18.9814 17.918H27.5537C29.2445 17.918 30.6152 16.5473 30.6152 14.8565V8.15335C30.6152 7.88638 30.3988 7.66995 30.1318 7.66995C29.8649 7.66995 29.6484 7.88638 29.6484 8.15335V14.8565C29.6484 16.0133 28.7106 16.9512 27.5537 16.9512H19.4648V2.90042H27.5537C28.7106 2.90042 29.6484 3.83823 29.6484 4.99515V5.89749C29.6484 6.16447 29.8649 6.38089 30.1318 6.38089C30.3988 6.38089 30.6152 6.16447 30.6152 5.89749V4.99515C30.6152 3.30427 29.2445 1.93363 27.5537 1.93363H18.9814C18.7145 1.93363 18.498 2.15005 18.498 2.41702V17.4346Z" fill="black"/>
</g>
<g id="g783">
<path id="path785 (Stroke)" fill-rule="evenodd" clip-rule="evenodd" d="M2.38477 16.3066C2.38477 17.1966 3.10618 17.918 3.99609 17.918H18.9814C19.2484 17.918 19.4648 17.7015 19.4648 17.4346V15.1787C19.4648 14.9117 19.2484 14.6953 18.9814 14.6953H3.99609C3.10618 14.6953 2.38477 15.4167 2.38477 16.3066ZM3.99609 16.9512C3.64013 16.9512 3.35156 16.6626 3.35156 16.3066C3.35156 15.9507 3.64013 15.6621 3.99609 15.6621H18.498V16.9512H3.99609Z" fill="black"/>
</g>
<g id="g787">
<path id="path789 (Stroke)" fill-rule="evenodd" clip-rule="evenodd" d="M16.7256 15.6621C16.9926 15.6621 17.209 15.4457 17.209 15.1787V1.61133C17.209 1.25536 17.4975 0.966797 17.8535 0.966797C18.2095 0.966797 18.498 1.25536 18.498 1.61133V3.07229C18.498 3.33926 18.7145 3.55569 18.9814 3.55569C19.2484 3.55569 19.4648 3.33926 19.4648 3.07229V1.61133C19.4648 0.721414 18.7434 0 17.8535 0C16.9636 0 16.2422 0.721414 16.2422 1.61133V15.1787C16.2422 15.4457 16.4586 15.6621 16.7256 15.6621Z" fill="black"/>
</g>
<g id="g791">
<path id="path793 (Stroke)" fill-rule="evenodd" clip-rule="evenodd" d="M22.9775 2.90039C23.2445 2.90039 23.4609 2.68397 23.4609 2.41699V1.12793C23.4609 1.03893 23.5331 0.966797 23.6221 0.966797H25.4912C25.5802 0.966797 25.6523 1.03893 25.6523 1.12793V2.41699C25.6523 2.68397 25.8688 2.90039 26.1357 2.90039C26.4027 2.90039 26.6191 2.68397 26.6191 2.41699V1.12793C26.6191 0.504982 26.1142 0 25.4912 0H23.6221C22.9991 0 22.4941 0.504982 22.4941 1.12793V2.41699C22.4941 2.68397 22.7106 2.90039 22.9775 2.90039Z" fill="black"/>
</g>
<g id="g795">
<path id="path797 (Stroke)" fill-rule="evenodd" clip-rule="evenodd" d="M3.54494 17.7568C3.54494 22.2954 7.2241 25.9746 11.7627 25.9746H13.0195C13.2865 25.9746 13.5029 25.7582 13.5029 25.4912C13.5029 25.2242 13.2865 25.0078 13.0195 25.0078H11.7627C7.75806 25.0078 4.51173 21.7614 4.51173 17.7568V17.4346C4.51173 17.1676 4.29531 16.9512 4.02834 16.9512C3.76136 16.9512 3.54494 17.1676 3.54494 17.4346V17.7568Z" fill="black"/>
</g>
<g id="g799">
<path id="path801 (Stroke)" fill-rule="evenodd" clip-rule="evenodd" d="M14.792 25.4912C14.792 25.7582 15.0084 25.9746 15.2754 25.9746H18.0146C22.5532 25.9746 26.2324 22.2954 26.2324 17.7568V17.4346C26.2324 17.1676 26.016 16.9512 25.749 16.9512C25.482 16.9512 25.2656 17.1676 25.2656 17.4346V17.7568C25.2656 21.7614 22.0192 25.0078 18.0146 25.0078H15.2754C15.0084 25.0078 14.792 25.2242 14.792 25.4912Z" fill="black"/>
</g>
<g id="g803">
<path id="path805 (Stroke)" fill-rule="evenodd" clip-rule="evenodd" d="M6.89648 31.8721C6.89648 32.495 7.40147 33 8.02441 33H21.624C22.247 33 22.752 32.495 22.752 31.8721V31.2275C22.752 30.6046 22.247 30.0996 21.624 30.0996H8.02441C7.40147 30.0996 6.89648 30.6046 6.89648 31.2275V31.8721ZM8.02441 32.0332C7.93541 32.0332 7.86328 31.9611 7.86328 31.8721V31.2275C7.86328 31.1385 7.93541 31.0664 8.02441 31.0664H21.624C21.713 31.0664 21.7852 31.1385 21.7852 31.2275V31.8721C21.7852 31.9611 21.713 32.0332 21.624 32.0332H8.02441Z" fill="black"/>
</g>
<g id="g807">
<path id="path809 (Stroke)" fill-rule="evenodd" clip-rule="evenodd" d="M21.1979 31.0143C21.436 30.8937 21.5314 30.6028 21.4108 30.3646L18.8326 25.2728C18.712 25.0347 18.4212 24.9393 18.183 25.0599C17.9448 25.1805 17.8495 25.4714 17.9701 25.7096L20.5482 30.8014C20.6688 31.0395 20.9597 31.1349 21.1979 31.0143Z" fill="black"/>
</g>
<g id="g811">
<path id="path813 (Stroke)" fill-rule="evenodd" clip-rule="evenodd" d="M8.45058 31.0143C8.68876 31.1349 8.97961 31.0395 9.10021 30.8014L11.6783 25.7096C11.7989 25.4714 11.7036 25.1805 11.4654 25.0599C11.2272 24.9393 10.9364 25.0347 10.8158 25.2728L8.23768 30.3646C8.11708 30.6028 8.2124 30.8937 8.45058 31.0143Z" fill="black"/>
</g>
<g id="g815">
<path id="path817 (Stroke)" fill-rule="evenodd" clip-rule="evenodd" d="M24.4922 32.5166C24.4922 32.7836 24.7086 33 24.9756 33H26.2646C26.8876 33 27.3926 32.495 27.3926 31.8721V27.7471C27.3926 27.1241 26.8876 26.6191 26.2646 26.6191H25.6201C24.9972 26.6191 24.4922 27.1241 24.4922 27.7471V32.5166ZM25.459 32.0332V27.7471C25.459 27.6581 25.5311 27.5859 25.6201 27.5859H26.2646C26.3536 27.5859 26.4258 27.6581 26.4258 27.7471V31.8721C26.4258 31.9611 26.3536 32.0332 26.2646 32.0332H25.459Z" fill="black"/>
</g>
<g id="g819">
<path id="path821 (Stroke)" fill-rule="evenodd" clip-rule="evenodd" d="M19.207 32.5166C19.207 32.7836 19.4235 33 19.6904 33H24.9756C25.2426 33 25.459 32.7836 25.459 32.5166C25.459 32.2496 25.2426 32.0332 24.9756 32.0332H19.6904C19.4235 32.0332 19.207 32.2496 19.207 32.5166Z" fill="black"/>
</g>
<g id="g823">
<path id="path825 (Stroke)" fill-rule="evenodd" clip-rule="evenodd" d="M19.207 28.0693C19.207 28.3363 19.4235 28.5527 19.6904 28.5527H24.9756C25.2426 28.5527 25.459 28.3363 25.459 28.0693C25.459 27.8024 25.2426 27.5859 24.9756 27.5859H19.6904C19.4235 27.5859 19.207 27.8024 19.207 28.0693Z" fill="black"/>
</g>
<g id="g827">
<path id="path829 (Stroke)" fill-rule="evenodd" clip-rule="evenodd" d="M10.2415 13.3762C10.4312 13.4464 10.6446 13.391 10.7762 13.2374L11.589 12.2892C11.589 12.2892 11.589 12.2892 11.589 12.2891C11.9631 11.8527 12.5092 11.6016 13.084 11.6016C14.1875 11.6016 15.082 10.707 15.082 9.60352C15.082 8.50001 14.1875 7.60548 13.084 7.60548C11.3397 7.60548 9.92578 9.01944 9.92578 10.7637V12.9229C9.92578 13.1252 10.0517 13.306 10.2415 13.3762ZM10.8926 11.617V10.7637C10.8926 9.55339 11.8737 8.57227 13.084 8.57227C13.6535 8.57227 14.1152 9.03396 14.1152 9.60352C14.1152 10.1731 13.6535 10.6348 13.084 10.6348C12.246 10.6348 11.449 10.9928 10.8926 11.617Z" fill="black"/>
</g>
<g id="g831">
<path id="path833 (Stroke)" fill-rule="evenodd" clip-rule="evenodd" d="M8.6433 11.4426C8.83302 11.3725 8.95898 11.1916 8.95898 10.9893V8.83009C8.95898 7.08585 7.54502 5.67188 5.80078 5.67188C4.69727 5.67188 3.80273 6.56642 3.80273 7.66993C3.80273 8.77344 4.69727 9.66798 5.80078 9.66798C6.37552 9.66798 6.92163 9.91915 7.29574 10.3556C7.29575 10.3556 7.29575 10.3556 7.29576 10.3556L8.10856 11.3039C8.24021 11.4574 8.45357 11.5128 8.6433 11.4426ZM7.99219 9.68336C7.43579 9.05923 6.63873 8.70118 5.80078 8.70118C5.23122 8.70118 4.76953 8.23949 4.76953 7.66993C4.76953 7.10037 5.23122 6.63868 5.80078 6.63868C7.01107 6.63868 7.99219 7.61979 7.99219 8.83009V9.68336Z" fill="black"/>
</g>
</g>
</g>
</g>
</g>
</g>
</g>
</svg>
