<svg width="33" height="33" viewBox="0 0 33 33" fill="none" xmlns="http://www.w3.org/2000/svg">
<g id="disabled 1">
<path id="Vector" d="M16.327 8.66069C16.8545 8.66069 17.3702 8.50427 17.8088 8.21121C18.2473 7.91815 18.5892 7.50161 18.7911 7.01427C18.9929 6.52693 19.0457 5.99067 18.9428 5.4733C18.8399 4.95594 18.5859 4.48072 18.2129 4.10772C17.8399 3.73472 17.3647 3.48071 16.8473 3.3778C16.33 3.27489 15.7937 3.32771 15.3064 3.52957C14.819 3.73144 14.4025 4.07328 14.1094 4.51188C13.8164 4.95048 13.6599 5.46613 13.6599 5.99362C13.6608 6.70072 13.942 7.37863 14.442 7.87862C14.942 8.37862 15.6199 8.65988 16.327 8.66069ZM16.327 4.2289C16.676 4.2289 17.0172 4.3324 17.3074 4.52631C17.5976 4.72022 17.8238 4.99583 17.9574 5.31829C18.091 5.64075 18.1259 5.99558 18.0578 6.33791C17.9897 6.68023 17.8217 6.99467 17.5749 7.24148C17.3281 7.48828 17.0136 7.65635 16.6713 7.72444C16.329 7.79253 15.9741 7.75759 15.6517 7.62402C15.3292 7.49045 15.0536 7.26426 14.8597 6.97405C14.6658 6.68385 14.5623 6.34265 14.5623 5.99362C14.5626 5.52562 14.7486 5.07688 15.0795 4.74588C15.4103 4.41488 15.859 4.22867 16.327 4.22812V4.2289ZM26.0703 27.9776C25.8232 28.0882 25.5567 28.149 25.286 28.1565C25.0154 28.164 24.746 28.1181 24.4931 28.0214C24.2402 27.9247 24.0089 27.7791 23.8124 27.5929C23.6159 27.4067 23.458 27.1835 23.3478 26.9363L21.3301 22.422H16.7784C16.0211 22.4211 15.295 22.1198 14.7595 21.5843C14.224 21.0488 13.9228 20.3227 13.9219 19.5654V11.8671C13.917 11.345 14.0836 10.8357 14.3962 10.4175C14.7089 9.99928 15.1502 9.69529 15.6523 9.55221C15.7678 9.52089 15.8911 9.53675 15.9949 9.59629C16.0987 9.65584 16.1746 9.75419 16.206 9.86971C16.2373 9.98523 16.2214 10.1085 16.1619 10.2123C16.1023 10.3161 16.004 10.392 15.8885 10.4234C15.5791 10.5171 15.3083 10.7083 15.1165 10.9684C14.9247 11.2286 14.8222 11.5439 14.8242 11.8671V19.5654C14.8248 20.0835 15.0309 20.5802 15.3973 20.9466C15.7636 21.3129 16.2603 21.519 16.7784 21.5196H21.6227C21.7099 21.5195 21.7953 21.5447 21.8685 21.5921C21.9417 21.6395 21.9996 21.7071 22.0352 21.7867L24.1725 26.5691C24.2344 26.7082 24.3232 26.8336 24.4337 26.9382C24.5442 27.0429 24.6743 27.1247 24.8165 27.179C24.9587 27.2333 25.1102 27.2589 25.2624 27.2545C25.4145 27.2501 25.5643 27.2157 25.7031 27.1533C25.984 27.028 26.2036 26.7962 26.3136 26.509C26.4236 26.2218 26.4151 25.9026 26.2899 25.6217L23.727 19.8861C23.6356 19.682 23.4872 19.5087 23.2997 19.3869C23.1122 19.265 22.8936 19.1999 22.67 19.1993C22.6442 19.2026 18.1531 19.1993 18.1273 19.1993C18.0077 19.1992 17.893 19.1517 17.8084 19.0671C17.7238 18.9825 17.6762 18.8678 17.6761 18.7481V15.6337C17.676 15.5445 17.7023 15.4573 17.7518 15.383C17.8013 15.3088 17.8717 15.2509 17.9541 15.2167C18.0365 15.1825 18.1271 15.1734 18.2147 15.1908C18.3022 15.2081 18.3826 15.251 18.4457 15.3141C18.5924 15.4275 18.9116 15.9375 19.5388 15.9117C19.5646 15.9117 24.1511 15.9142 24.1777 15.9142C24.4853 15.9142 24.7804 15.792 24.998 15.5744C25.2156 15.3569 25.3378 15.0618 25.3378 14.7541C25.3378 14.4464 25.2156 14.1513 24.998 13.9337C24.7804 13.7162 24.4853 13.5939 24.1777 13.5939H20.1893C20.1298 13.594 20.071 13.5822 20.0161 13.5595C19.9612 13.5367 19.9113 13.5033 19.8693 13.4612L19.3102 12.8994C19.2257 12.8145 19.1785 12.6996 19.1788 12.5799C19.1791 12.4602 19.227 12.3456 19.3118 12.2612C19.3967 12.1768 19.5116 12.1295 19.6313 12.1298C19.751 12.1301 19.8656 12.178 19.95 12.2629L20.3772 12.6921H24.1777C24.7247 12.6921 25.2493 12.9094 25.6361 13.2962C26.0229 13.683 26.2402 14.2076 26.2402 14.7546C26.2402 15.3016 26.0229 15.8262 25.6361 16.213C25.2493 16.5998 24.7247 16.8171 24.1777 16.8171C21.0543 16.8171 19.5943 16.8187 19.5324 16.8148C19.2006 16.8176 18.8732 16.7394 18.5785 16.5869V18.297H22.6695C23.0674 18.2975 23.4567 18.413 23.7906 18.6295C24.1244 18.846 24.3887 19.1543 24.5515 19.5174L27.1141 25.2543C27.3362 25.7539 27.351 26.3212 27.1553 26.8318C26.9596 27.3423 26.5694 27.7544 26.0703 27.9776ZM17.7633 10.0761L18.7533 11.0661C18.838 11.1508 18.8855 11.2656 18.8855 11.3854C18.8855 11.5051 18.838 11.62 18.7533 11.7047C18.6686 11.7894 18.5537 11.8369 18.434 11.8369C18.3142 11.8369 18.1994 11.7894 18.1147 11.7047L17.1247 10.7149C17.1141 10.7059 17.101 10.6941 17.0891 10.6819C17.0043 10.5975 16.9565 10.4829 16.9562 10.3632C16.9559 10.2436 17.0031 10.1287 17.0876 10.0439C17.172 9.95904 17.2866 9.91122 17.4063 9.91093C17.5259 9.91064 17.6408 9.9579 17.7256 10.0423C17.7347 10.0495 17.7581 10.0714 17.7633 10.0761ZM21.2773 25.6621C20.6499 26.6867 19.81 27.5647 18.8143 28.2369C17.8186 28.909 16.6902 29.3597 15.5054 29.5585C14.3206 29.7572 13.1069 29.6994 11.9463 29.389C10.7858 29.0785 9.70535 28.5227 8.778 27.7589C8.73229 27.7213 8.69445 27.675 8.66663 27.6227C8.63881 27.5705 8.62156 27.5132 8.61586 27.4543C8.61016 27.3953 8.61613 27.3358 8.63342 27.2792C8.65071 27.2226 8.67899 27.1699 8.71664 27.1242C8.75429 27.0785 8.80057 27.0406 8.85284 27.0128C8.90512 26.985 8.96236 26.9678 9.0213 26.9621C9.08024 26.9564 9.13972 26.9623 9.19636 26.9796C9.25299 26.9969 9.30567 27.0252 9.35137 27.0628C10.1793 27.7445 11.1439 28.2406 12.18 28.5176C13.2161 28.7945 14.2996 28.8459 15.3572 28.6682C16.4149 28.4905 17.4221 28.0879 18.3108 27.4875C19.1995 26.8872 19.949 26.1031 20.5087 25.1883C20.5713 25.0862 20.5907 24.9634 20.5627 24.847C20.5347 24.7305 20.4616 24.63 20.3595 24.5675C20.2573 24.5049 20.1346 24.4855 20.0181 24.5135C19.9017 24.5415 19.8012 24.6146 19.7386 24.7167C19.177 25.6337 18.3998 26.3995 17.4748 26.9475C16.5497 27.4956 15.5047 27.8094 14.4307 27.8616C13.3567 27.9137 12.2863 27.7027 11.3124 27.2468C10.3386 26.791 9.4909 26.1041 8.84304 25.2459C8.19519 24.3878 7.76681 23.3843 7.59518 22.3228C7.42354 21.2614 7.51384 20.1741 7.85823 19.1555C8.20261 18.1368 8.79065 17.2178 9.5712 16.4783C10.3517 15.7387 11.3011 15.2011 12.3368 14.9121C12.4509 14.8791 12.5473 14.8024 12.6053 14.6988C12.6633 14.5952 12.6781 14.4729 12.6466 14.3584C12.6151 14.2439 12.5397 14.1465 12.4369 14.0871C12.334 14.0277 12.212 14.0113 12.0971 14.0412C11.1438 14.3077 10.2525 14.76 9.4747 15.3721C8.69686 15.9843 8.04774 16.7443 7.56471 17.6082C7.08168 18.4722 6.77427 19.4232 6.66016 20.4065C6.54606 21.3897 6.62751 22.3858 6.89983 23.3374C6.91698 23.3947 6.92257 23.4548 6.9163 23.5142C6.91002 23.5737 6.892 23.6313 6.86328 23.6837C6.83456 23.7361 6.79571 23.7823 6.74899 23.8195C6.70227 23.8568 6.64861 23.8844 6.59112 23.9008C6.53364 23.9172 6.47348 23.9219 6.41413 23.9148C6.35479 23.9078 6.29744 23.889 6.24543 23.8595C6.19341 23.8301 6.14776 23.7906 6.11113 23.7434C6.0745 23.6962 6.04761 23.6421 6.03204 23.5844C5.72742 22.5186 5.63653 21.403 5.76459 20.3019C5.89266 19.2008 6.23716 18.1359 6.77827 17.1684C7.31938 16.201 8.04643 15.35 8.91759 14.6645C9.78876 13.9791 10.7869 13.4726 11.8545 13.1742C12.0265 13.1244 12.2067 13.1091 12.3847 13.1294C12.5627 13.1497 12.7349 13.2051 12.8913 13.2924C13.0477 13.3797 13.1852 13.4971 13.2959 13.6379C13.4066 13.7787 13.4883 13.9401 13.5362 14.1127C13.584 14.2853 13.5972 14.4657 13.5749 14.6434C13.5526 14.8212 13.4952 14.9927 13.4061 15.1481C13.317 15.3035 13.198 15.4397 13.0559 15.5488C12.9139 15.6578 12.7516 15.7376 12.5784 15.7835C11.6844 16.0332 10.8649 16.4974 10.1912 17.136C9.51754 17.7745 9.01006 18.568 8.71292 19.4473C8.41578 20.3267 8.33798 21.2653 8.48629 22.1816C8.63459 23.0979 9.00452 23.9641 9.56388 24.7048C10.1232 25.4456 10.8551 26.0384 11.6958 26.4318C12.5365 26.8253 13.4606 27.0073 14.3878 26.9622C15.3149 26.9171 16.2169 26.6461 17.0154 26.1729C17.814 25.6997 18.4848 25.0386 18.9696 24.247C19.0626 24.0955 19.1845 23.9638 19.3284 23.8594C19.4723 23.755 19.6354 23.6799 19.8083 23.6385C19.9812 23.5972 20.1606 23.5903 20.3362 23.6182C20.5118 23.6461 20.6801 23.7084 20.8316 23.8014C20.9832 23.8944 21.1149 24.0163 21.2193 24.1602C21.3237 24.3041 21.3987 24.4672 21.4401 24.6401C21.4815 24.813 21.4884 24.9924 21.4605 25.168C21.4325 25.3435 21.3703 25.5119 21.2773 25.6634V25.6621ZM8.23453 25.9264C8.30569 26.0204 8.33725 26.1385 8.32244 26.2554C8.30763 26.3724 8.24763 26.4789 8.15528 26.5522C8.06294 26.6255 7.94558 26.6597 7.82832 26.6475C7.71106 26.6354 7.60322 26.5778 7.52786 26.4871C7.19988 26.0738 6.91157 25.6305 6.66677 25.163C6.61639 25.0576 6.60886 24.9367 6.64576 24.8259C6.68265 24.715 6.7611 24.6227 6.86461 24.5685C6.96811 24.5143 7.08861 24.5023 7.20077 24.5351C7.31292 24.5679 7.40799 24.6429 7.46599 24.7443C7.68436 25.1617 7.94168 25.5575 8.23453 25.9264Z" fill="url(#paint0_linear_405_8925)"/>
</g>
<defs>
<linearGradient id="paint0_linear_405_8925" x1="25.9006" y1="28.3408" x2="8.05509" y2="10.4955" gradientUnits="userSpaceOnUse">
<stop stopColor="#FF8086"/>
<stop offset="1" stopColor="#FFC269"/>
</linearGradient>
</defs>
</svg>
