<svg id="Layer_1" height="512" viewBox="0 0 256 256" width="512" xmlns="http://www.w3.org/2000/svg"><g><g><path d="m20.806 88.493h181v108.694h-181z" fill="#a4c9ff"/></g><g><path d="m157.639 143.991h12.333c1.657 0 3 1.343 3 3v31.167c0 1.657-1.343 3-3 3h-12.333c-1.657 0-3-1.343-3-3v-31.167c0-1.657 1.344-3 3-3z" fill="#eaa97d"/></g><g><path d="m169.973 183.158h-12.333c-2.757 0-5-2.243-5-5v-31.167c0-2.757 2.243-5 5-5h12.333c2.757 0 5 2.243 5 5v31.167c0 2.757-2.244 5-5 5zm-12.333-37.167c-.552 0-1 .449-1 1v31.167c0 .551.448 1 1 1h12.333c.552 0 1-.449 1-1v-31.167c0-.551-.448-1-1-1z" fill="#3762cc"/></g><g><path d="m216.806 197.187h-211c-1.105 0-2 .895-2 2v10.5c0 1.105.895 2 2 2h211c1.105 0 2-.895 2-2v-10.5c0-1.104-.895-2-2-2z" fill="#4671c6"/></g><g><path d="m21.102 68.637h180.409l-88.623-54.969c-.969-.601-2.194-.601-3.163 0z" fill="#f9a7a7"/></g><g><path d="m211.338 88.493h-200.064c-2.209 0-4-1.791-4-4v-11.856c0-2.209 1.791-4 4-4h200.065c2.209 0 4 1.791 4 4v11.857c-.001 2.208-1.791 3.999-4.001 3.999z" fill="#e0ebfc"/></g><g><path d="m201.806 199.187h-181c-1.104 0-2-.896-2-2v-108.694c0-1.104.896-2 2-2h181c1.104 0 2 .896 2 2v108.694c0 1.105-.896 2-2 2zm-179-4h177v-104.694h-177z" fill="#3762cc"/></g><g><path d="m216.806 213.687h-211c-2.206 0-4-1.794-4-4v-10.5c0-2.206 1.794-4 4-4h211c2.206 0 4 1.794 4 4v10.5c0 2.206-1.794 4-4 4zm-211-14.5v10.5h211v-10.5z" fill="#3762cc"/></g><g><path d="m201.511 70.637h-180.409c-.894 0-1.679-.593-1.923-1.452-.245-.859.11-1.776.869-2.248l88.623-54.969c1.626-1.008 3.646-1.007 5.271 0l88.623 54.969c.76.471 1.114 1.389.87 2.248-.246.859-1.031 1.452-1.924 1.452zm-173.39-4h166.372l-82.659-51.269c-.326-.203-.729-.201-1.055 0z" fill="#3762cc"/></g><g><path d="m211.339 90.493h-200.065c-3.309 0-6-2.691-6-6v-11.856c0-3.309 2.691-6 6-6h200.065c3.309 0 6 2.691 6 6v11.856c0 3.309-2.692 6-6 6zm-200.065-19.856c-1.103 0-2 .897-2 2v11.856c0 1.103.897 2 2 2h200.065c1.103 0 2-.897 2-2v-11.856c0-1.103-.897-2-2-2z" fill="#3762cc"/></g><g><path d="m58.806 159.325v-12.333c0-1.657 1.343-3 3-3h108.167c1.657 0 3 1.343 3 3v12.333c0 1.657-1.343 3-3 3h-108.167c-1.657 0-3-1.344-3-3z" fill="#eaa97d"/></g><g><circle cx="110.369" cy="68.637" fill="#6bdddd" r="31.413"/></g><g><g><circle cx="110.421" cy="69.428" fill="#e0ebfc" r="17.279"/></g><g><path d="m110.421 88.708c-10.631 0-19.279-8.648-19.279-19.279s8.648-19.279 19.279-19.279 19.279 8.647 19.279 19.278-8.648 19.28-19.279 19.28zm0-34.559c-8.425 0-15.279 6.854-15.279 15.279s6.854 15.279 15.279 15.279 15.279-6.854 15.279-15.279-6.854-15.279-15.279-15.279z" fill="#3762cc"/></g><g><g><circle cx="101.196" cy="78.344" fill="#a4c9ff" r="1.976"/></g><g><circle cx="107.705" cy="81.911" fill="#a4c9ff" r="1.976"/></g><g><g><circle cx="106.68" cy="76.06" fill="#a4c9ff" r="1.976"/></g><g><circle cx="100.172" cy="72.493" fill="#a4c9ff" r="1.976"/></g><g><circle cx="113.189" cy="79.627" fill="#a4c9ff" r="1.976"/></g></g></g></g><g><path d="m183.172 167.423c0-19.769 16.622-35.655 36.652-34.446 17.426 1.052 31.526 15.376 32.333 32.815.252 5.447-.766 10.628-2.773 15.282l-26.309 58.229c-2.097 4.64-8.686 4.64-10.783 0l-26.401-58.432c-1.751-4.133-2.719-8.677-2.719-13.448z" fill="#f9a7a7"/></g><g><circle cx="217.683" cy="167.423" fill="#f9cfcf" r="21.921"/></g><g><path d="m217.683 244.783c-3.152 0-5.916-1.785-7.213-4.657l-26.401-58.431c-1.929-4.553-2.896-9.34-2.896-14.272 0-10.023 4.188-19.714 11.488-26.588 7.403-6.97 17.096-10.471 27.283-9.855 18.334 1.107 33.361 16.357 34.211 34.719.26 5.61-.728 11.05-2.934 16.167l-26.324 58.26c-1.298 2.872-4.062 4.657-7.214 4.657zm-.021-109.872c-8.325 0-16.163 3.097-22.26 8.836-6.598 6.211-10.23 14.619-10.23 23.676 0 4.394.861 8.656 2.561 12.668l26.382 58.387c.651 1.443 1.985 2.304 3.568 2.304 1.583 0 2.917-.861 3.569-2.304l26.31-58.229c1.949-4.523 2.828-9.367 2.597-14.366-.756-16.348-14.134-29.926-30.455-30.911-.683-.04-1.365-.061-2.042-.061z" fill="#3762cc"/></g><g><path d="m110.369 102.05c-18.424 0-33.413-14.989-33.413-33.413s14.989-33.413 33.413-33.413 33.413 14.989 33.413 33.413-14.99 33.413-33.413 33.413zm0-62.826c-16.218 0-29.413 13.195-29.413 29.413s13.194 29.413 29.413 29.413 29.413-13.195 29.413-29.413-13.195-29.413-29.413-29.413z" fill="#3762cc"/></g><g><path d="m169.973 164.325h-108.167c-2.757 0-5-2.243-5-5v-12.333c0-2.757 2.243-5 5-5h108.167c2.757 0 5 2.243 5 5v12.333c0 2.757-2.244 5-5 5zm-108.167-18.334c-.551 0-1 .449-1 1v12.333c0 .551.449 1 1 1h108.167c.552 0 1-.449 1-1v-12.333c0-.551-.448-1-1-1z" fill="#3762cc"/></g><g><path d="m64.973 181.158h-12.334c-1.657 0-3-1.343-3-3v-66c0-1.657 1.343-3 3-3h12.333c1.657 0 3 1.343 3 3v66c.001 1.657-1.342 3-2.999 3z" fill="#eaa97d"/></g><g><path d="m64.973 183.158h-12.333c-2.757 0-5-2.243-5-5v-66c0-2.757 2.243-5 5-5h12.333c2.757 0 5 2.243 5 5v66c0 2.757-2.244 5-5 5zm-12.333-72c-.551 0-1 .449-1 1v66c0 .551.449 1 1 1h12.333c.551 0 1-.449 1-1v-66c0-.551-.449-1-1-1z" fill="#3762cc"/></g><g><circle cx="78.973" cy="132.912" fill="#f9cfcf" r="11"/></g><g><path d="m168.973 153.158h-75c-2.209 0-4-1.791-4-4v-19.167c0-2.209 1.791-4 4-4h75c2.209 0 4 1.791 4 4v19.167c0 2.209-1.791 4-4 4z" fill="#e0ebfc"/></g><g><path d="m78.973 145.912c-7.168 0-13-5.832-13-13s5.832-13 13-13 13 5.832 13 13-5.832 13-13 13zm0-22c-4.962 0-9 4.038-9 9s4.038 9 9 9 9-4.038 9-9-4.038-9-9-9z" fill="#3762cc"/></g><g><path d="m168.973 155.158h-75c-3.309 0-6-2.691-6-6v-19.167c0-3.309 2.691-6 6-6h75c3.309 0 6 2.691 6 6v19.167c0 3.308-2.692 6-6 6zm-75-27.167c-1.103 0-2 .897-2 2v19.167c0 1.103.897 2 2 2h75c1.103 0 2-.897 2-2v-19.167c0-1.103-.897-2-2-2z" fill="#3762cc"/></g></g></svg>