<?xml version="1.0" encoding="UTF-8" standalone="no"?>
<!-- Created with Inkscape (http://www.inkscape.org/) -->

<svg
   version="1.1"
   id="svg6909"
   xml:space="preserve"
   width="682.66669"
   height="682.66669"
   viewBox="0 0 682.66669 682.66669"
   xmlns="http://www.w3.org/2000/svg"
   xmlns:svg="http://www.w3.org/2000/svg"><defs
     id="defs6913"><clipPath
       clipPathUnits="userSpaceOnUse"
       id="clipPath6923"><path
         d="M 0,512 H 512 V 0 H 0 Z"
         id="path6921" /></clipPath></defs><g
     id="g6915"
     transform="matrix(1.3333333,0,0,-1.3333333,0,682.66667)"><g
       id="g6917"><g
         id="g6919"
         clip-path="url(#clipPath6923)"><g
           id="g6925"
           transform="translate(87.5664,179.6094)"><path
             d="m 0,0 h -25.392 c -30.199,0 -54.674,24.485 -54.674,54.675 v 195.872 c 0,30.199 24.475,54.675 54.674,54.675 h 387.651 c 30.199,0 54.675,-24.476 54.675,-54.675 V 54.675 C 416.934,24.485 392.458,0 362.259,0 H 336.867 L 168.434,60.704 Z"
             style="fill:#ececec;fill-opacity:1;fill-rule:nonzero;stroke:none"
             id="path6927" /></g><g
           id="g6929"
           transform="translate(37.5,234.2842)"><path
             d="m 0,0 v 195.872 c 0,30.199 24.475,54.675 54.674,54.675 h -30 C -5.525,250.547 -30,226.071 -30,195.872 V 0 c 0,-30.189 24.475,-54.675 54.674,-54.675 h 25.392 l 0.476,0.172 C 22.276,-52.389 0,-28.798 0,0"
             style="fill:#c7c5cb;fill-opacity:1;fill-rule:nonzero;stroke:none"
             id="path6931" /></g><g
           id="g6933"
           transform="translate(424.4336,261.7842)"><path
             d="M 0,0 V -82.175 H -336.867 V 0 c 0,21.674 17.559,39.233 39.233,39.233 H -39.233 C -17.559,39.233 0,21.674 0,0"
             style="fill:#c7c5cb;fill-opacity:1;fill-rule:nonzero;stroke:none"
             id="path6935" /></g><g
           id="g6937"
           transform="translate(369.9604,225.0352)"><path
             d="m 0,0 h -227.921 c -8.438,0 -15.278,6.841 -15.278,15.278 0,8.438 6.84,15.278 15.278,15.278 H 0 c 8.438,0 15.278,-6.84 15.278,-15.278 C 15.278,6.841 8.438,0 0,0"
             style="fill:#a4e6ff;fill-opacity:1;fill-rule:nonzero;stroke:none"
             id="path6939" /></g><g
           id="g6941"
           transform="translate(423.3638,418.7275)"><path
             d="m 0,0 c 0,-11.45 9.282,-20.732 20.732,-20.732 11.451,0 20.733,9.282 20.733,20.732 0,11.45 -9.282,20.732 -20.733,20.732 C 9.282,20.732 0,11.45 0,0"
             style="fill:#a4e6ff;fill-opacity:1;fill-rule:nonzero;stroke:none"
             id="path6943" /></g><g
           id="g6945"
           transform="translate(423.3638,350.7236)"><path
             d="m 0,0 c 0,-11.451 9.282,-20.733 20.732,-20.733 11.451,0 20.733,9.282 20.733,20.733 0,11.45 -9.282,20.732 -20.733,20.732 C 9.282,20.732 0,11.45 0,0"
             style="fill:#c7c5cb;fill-opacity:1;fill-rule:nonzero;stroke:none"
             id="path6947" /></g><g
           id="g6949"
           transform="translate(7.5,367.5674)"><path
             d="m 0,0 v -133.283 c 0,-30.19 24.475,-54.675 54.674,-54.675 h 387.652 c 30.199,0 54.674,24.485 54.674,54.675 v 49.602"
             style="fill:none;stroke:#000000;stroke-width:15;stroke-linecap:round;stroke-linejoin:round;stroke-miterlimit:10;stroke-dasharray:none;stroke-opacity:1"
             id="path6951" /></g><g
           id="g6953"
           transform="translate(504.5,313.8867)"><path
             d="m 0,0 v 116.271 c 0,30.199 -24.475,54.673 -54.674,54.673 h -387.652 c -30.199,0 -54.674,-24.474 -54.674,-54.673 v -32.59"
             style="fill:none;stroke:#000000;stroke-width:15;stroke-linecap:round;stroke-linejoin:round;stroke-miterlimit:10;stroke-dasharray:none;stroke-opacity:1"
             id="path6955" /></g><g
           id="g6957"
           transform="translate(424.4336,261.7842)"><path
             d="M 0,0 V -82.175 H -336.867 V 0 c 0,21.674 17.559,39.233 39.233,39.233 H -39.233 C -17.559,39.233 0,21.674 0,0 Z"
             style="fill:none;stroke:#000000;stroke-width:15;stroke-linecap:round;stroke-linejoin:round;stroke-miterlimit:10;stroke-dasharray:none;stroke-opacity:1"
             id="path6959" /></g><g
           id="g6961"
           transform="translate(369.9604,225.0352)"><path
             d="m 0,0 h -227.921 c -8.438,0 -15.278,6.841 -15.278,15.278 0,8.438 6.84,15.278 15.278,15.278 H 0 c 8.438,0 15.278,-6.84 15.278,-15.278 C 15.278,6.841 8.438,0 0,0 Z"
             style="fill:none;stroke:#000000;stroke-width:15;stroke-linecap:round;stroke-linejoin:round;stroke-miterlimit:10;stroke-dasharray:none;stroke-opacity:1"
             id="path6963" /></g><g
           id="g6965"
           transform="translate(157.8716,399.9512)"><path
             d="M 0,0 V -18.834"
             style="fill:none;stroke:#000000;stroke-width:15;stroke-linecap:round;stroke-linejoin:round;stroke-miterlimit:10;stroke-dasharray:none;stroke-opacity:1"
             id="path6967" /></g><g
           id="g6969"
           transform="translate(353.8936,399.9512)"><path
             d="M 0,0 V -18.834"
             style="fill:none;stroke:#000000;stroke-width:15;stroke-linecap:round;stroke-linejoin:round;stroke-miterlimit:10;stroke-dasharray:none;stroke-opacity:1"
             id="path6971" /></g><g
           id="g6973"
           transform="translate(256.1685,369.8877)"><path
             d="m 0,0 c 0,-12.529 -10.158,-22.687 -22.687,-22.687 -12.531,0 -22.688,10.158 -22.688,22.687"
             style="fill:none;stroke:#000000;stroke-width:15;stroke-linecap:round;stroke-linejoin:miter;stroke-miterlimit:10;stroke-dasharray:none;stroke-opacity:1"
             id="path6975" /></g><g
           id="g6977"
           transform="translate(301.5435,369.8877)"><path
             d="m 0,0 c 0,-12.529 -10.158,-22.687 -22.687,-22.687 -12.53,0 -22.688,10.158 -22.688,22.687"
             style="fill:none;stroke:#000000;stroke-width:15;stroke-linecap:round;stroke-linejoin:miter;stroke-miterlimit:10;stroke-dasharray:none;stroke-opacity:1"
             id="path6979" /></g><g
           id="g6981"
           transform="translate(423.3638,418.7275)"><path
             d="m 0,0 c 0,-11.45 9.282,-20.732 20.732,-20.732 11.451,0 20.733,9.282 20.733,20.732 0,11.45 -9.282,20.732 -20.733,20.732 C 9.282,20.732 0,11.45 0,0 Z"
             style="fill:none;stroke:#000000;stroke-width:15;stroke-linecap:round;stroke-linejoin:round;stroke-miterlimit:10;stroke-dasharray:none;stroke-opacity:1"
             id="path6983" /></g><g
           id="g6985"
           transform="translate(423.3638,350.7236)"><path
             d="m 0,0 c 0,-11.45 9.282,-20.733 20.732,-20.733 11.451,0 20.733,9.283 20.733,20.733 0,11.45 -9.282,20.732 -20.733,20.732 C 9.282,20.732 0,11.45 0,0 Z"
             style="fill:none;stroke:#000000;stroke-width:15;stroke-linecap:round;stroke-linejoin:round;stroke-miterlimit:10;stroke-dasharray:none;stroke-opacity:1"
             id="path6987" /></g><g
           id="g6989"
           transform="translate(116.7847,27.1689)"><path
             d="m 0,0 c -8.902,11.285 -8.902,27.204 0,38.489 8.902,11.286 8.902,27.204 0,38.49 v 0 c -8.902,11.286 -8.902,27.204 0,38.49"
             style="fill:none;stroke:#000000;stroke-width:15;stroke-linecap:round;stroke-linejoin:round;stroke-miterlimit:10;stroke-dasharray:none;stroke-opacity:1"
             id="path6991" /></g><g
           id="g6993"
           transform="translate(209.5947,27.1689)"><path
             d="m 0,0 c -8.902,11.285 -8.902,27.204 0,38.489 8.902,11.286 8.902,27.204 0,38.49 v 0 c -8.902,11.286 -8.902,27.204 0,38.49"
             style="fill:none;stroke:#000000;stroke-width:15;stroke-linecap:round;stroke-linejoin:round;stroke-miterlimit:10;stroke-dasharray:none;stroke-opacity:1"
             id="path6995" /></g><g
           id="g6997"
           transform="translate(302.4053,27.1689)"><path
             d="m 0,0 c -8.902,11.285 -8.902,27.204 0,38.489 8.902,11.286 8.902,27.204 0,38.49 v 0 c -8.902,11.286 -8.902,27.204 0,38.49"
             style="fill:none;stroke:#000000;stroke-width:15;stroke-linecap:round;stroke-linejoin:round;stroke-miterlimit:10;stroke-dasharray:none;stroke-opacity:1"
             id="path6999" /></g><g
           id="g7001"
           transform="translate(395.2153,27.1689)"><path
             d="m 0,0 c -8.902,11.285 -8.902,27.204 0,38.489 8.902,11.286 8.902,27.204 0,38.49 v 0 c -8.902,11.286 -8.902,27.204 0,38.49"
             style="fill:none;stroke:#000000;stroke-width:15;stroke-linecap:round;stroke-linejoin:round;stroke-miterlimit:10;stroke-dasharray:none;stroke-opacity:1"
             id="path7003" /></g></g></g></g></svg>
