<?xml version="1.0" encoding="UTF-8" standalone="no"?>
<!-- Created with Inkscape (http://www.inkscape.org/) -->

<svg
   version="1.1"
   id="svg5247"
   xml:space="preserve"
   width="682.66669"
   height="682.66669"
   viewBox="0 0 682.66669 682.66669"
   xmlns="http://www.w3.org/2000/svg"
   xmlns:svg="http://www.w3.org/2000/svg"><defs
     id="defs5251"><clipPath
       clipPathUnits="userSpaceOnUse"
       id="clipPath5261"><path
         d="M 0,512 H 512 V 0 H 0 Z"
         id="path5259" /></clipPath></defs><g
     id="g5253"
     transform="matrix(1.3333333,0,0,-1.3333333,0,682.66667)"><g
       id="g5255"><g
         id="g5257"
         clip-path="url(#clipPath5261)"><g
           id="g5263"
           transform="translate(396.751,77.5947)"><path
             d="m 0,0 h -281.502 v 286.155 c 0,77.734 63.017,140.75 140.751,140.75 C -63.017,426.905 0,363.889 0,286.155 Z"
             style="fill:#eff5f6;fill-opacity:1;fill-rule:nonzero;stroke:none"
             id="path5265" /></g><path
           d="m 115.249,280.506 h 281.502 v 54.797 H 115.249 Z"
           style="fill:#cae5e7;fill-opacity:1;fill-rule:nonzero;stroke:none"
           id="path5267" /><g
           id="g5269"
           transform="translate(396.751,361.9917)"><path
             d="M 0,0 V -284.399 H -28.21 V 0 c 0,39.355 -15.75,74.975 -41.22,100.763 -22.35,22.63 -52.18,37.685 -85.42,41.036 4.64,0.466 9.34,0.709 14.1,0.709 38.86,0 74.05,-15.957 99.521,-41.745 C -15.75,74.975 0,39.355 0,0"
             style="fill:#cae5e7;fill-opacity:1;fill-rule:nonzero;stroke:none"
             id="path5271" /></g><path
           d="m 396.751,280.506 h -28.21 v 54.796 h 28.21 z"
           style="fill:#a8d3d9;fill-opacity:1;fill-rule:nonzero;stroke:none"
           id="path5273" /><path
           d="m 115.249,170.082 h 281.502 v 49.734 H 115.249 Z"
           style="fill:#cae5e7;fill-opacity:1;fill-rule:nonzero;stroke:none"
           id="path5275" /><path
           d="m 396.751,170.082 h -28.21 v 49.734 h 28.21 z"
           style="fill:#a8d3d9;fill-opacity:1;fill-rule:nonzero;stroke:none"
           id="path5277" /><g
           id="g5279"
           transform="translate(361.5615,358.4375)"><path
             d="M 0,0 V -271.895 H -211.121 V 0 c 0,58.927 47.35,106.879 105.56,106.879 C -47.351,106.879 0,58.927 0,0"
             style="fill:#feb541;fill-opacity:1;fill-rule:nonzero;stroke:none"
             id="path5281" /></g><g
           id="g5283"
           transform="translate(361.5615,358.4375)"><path
             d="m 0,0 v -271.895 h -211.121 v 38.171 c 176.95,59.018 160.69,262.702 149.94,330.681 C -25.08,79.957 0,42.889 0,0"
             style="fill:#fea714;fill-opacity:1;fill-rule:nonzero;stroke:none"
             id="path5285" /></g><g
           id="g5287"
           transform="translate(213.5137,172.0811)"><path
             d="m 0,0 4.902,-85.321 h 75.17 L 84.975,0 Z"
             style="fill:#3e5958;fill-opacity:1;fill-rule:nonzero;stroke:none"
             id="path5289" /></g><g
           id="g5291"
           transform="translate(296.96,145.4707)"><path
             d="M 0,0 1.528,26.61 H -83.446 L -81.917,0 Z"
             style="fill:#374848;fill-opacity:1;fill-rule:nonzero;stroke:none"
             id="path5293" /></g><g
           id="g5295"
           transform="translate(293.5869,86.7598)"><path
             d="M 0,0 4.901,85.321"
             style="fill:none;stroke:#000000;stroke-width:15;stroke-linecap:round;stroke-linejoin:round;stroke-miterlimit:10;stroke-dasharray:none;stroke-opacity:1"
             id="path5297" /></g><g
           id="g5299"
           transform="translate(217.0186,111.0752)"><path
             d="M 0,0 1.397,-24.315"
             style="fill:none;stroke:#000000;stroke-width:15;stroke-linecap:round;stroke-linejoin:round;stroke-miterlimit:10;stroke-dasharray:none;stroke-opacity:1"
             id="path5301" /></g><g
           id="g5303"
           transform="translate(213.5137,172.0811)"><path
             d="M 0,0 1.438,-25.038"
             style="fill:none;stroke:#000000;stroke-width:15;stroke-linecap:round;stroke-linejoin:round;stroke-miterlimit:10;stroke-dasharray:none;stroke-opacity:1"
             id="path5305" /></g><g
           id="g5307"
           transform="translate(361.5635,279.0571)"><path
             d="m 0,0 v 79.377 c 0,58.935 -47.355,106.882 -105.563,106.882 -58.208,0 -105.564,-47.947 -105.564,-106.882 V -192.517 H 0 v 156.403"
             style="fill:none;stroke:#000000;stroke-width:15;stroke-linecap:round;stroke-linejoin:round;stroke-miterlimit:10;stroke-dasharray:none;stroke-opacity:1"
             id="path5309" /></g><g
           id="g5311"
           transform="translate(145.1152,450.4458)"><path
             d="m 0,0 c -18.71,-23.897 -29.866,-53.993 -29.866,-86.696 v -286.155 h 281.502 v 286.155 c 0,77.734 -63.017,140.75 -140.751,140.75 -32.012,0 -61.523,-10.694 -85.17,-28.695"
             style="fill:none;stroke:#000000;stroke-width:15;stroke-linecap:round;stroke-linejoin:round;stroke-miterlimit:10;stroke-dasharray:none;stroke-opacity:1"
             id="path5313" /></g><g
           id="g5315"
           transform="translate(142.314,145.002)"><path
             d="m 0,0 c 6.512,-14.437 6.721,-30.111 1.816,-43.938 -13.612,5.474 -25.224,16.005 -31.735,30.442 -5.622,12.461 -6.546,25.824 -3.548,38.134 0.776,3.186 4.327,4.787 7.229,3.26 C -15.026,21.999 -5.621,12.461 0,0"
             style="fill:#81b923;fill-opacity:1;fill-rule:nonzero;stroke:none"
             id="path5317" /></g><g
           id="g5319"
           transform="translate(142.314,145.002)"><path
             d="m 0,0 c 6.512,-14.437 6.721,-30.111 1.816,-43.938 -13.612,5.474 -25.224,16.005 -31.735,30.442 -5.622,12.461 -6.546,25.824 -3.548,38.134 0.776,3.186 4.327,4.787 7.229,3.26 C -15.026,21.999 -5.621,12.461 0,0 Z"
             style="fill:none;stroke:#000000;stroke-width:15;stroke-linecap:round;stroke-linejoin:round;stroke-miterlimit:10;stroke-dasharray:none;stroke-opacity:1"
             id="path5321" /></g><g
           id="g5323"
           transform="translate(165.2827,154.8188)"><path
             d="M 0,0 C 0,-15.837 -6.254,-30.211 -16.411,-40.799 -26.568,-30.211 -32.823,-15.837 -32.823,0 c 0,13.67 4.652,26.231 12.447,36.22 2.017,2.585 5.913,2.585 7.93,0 C -4.651,26.231 0,13.67 0,0"
             style="fill:#97d729;fill-opacity:1;fill-rule:nonzero;stroke:none"
             id="path5325" /></g><g
           id="g5327"
           transform="translate(165.2827,154.8188)"><path
             d="M 0,0 C 0,-15.837 -6.254,-30.211 -16.411,-40.799 -26.568,-30.211 -32.823,-15.837 -32.823,0 c 0,13.67 4.652,26.231 12.447,36.22 2.017,2.585 5.913,2.585 7.93,0 C -4.651,26.231 0,13.67 0,0 Z"
             style="fill:none;stroke:#000000;stroke-width:15;stroke-linecap:round;stroke-linejoin:round;stroke-miterlimit:10;stroke-dasharray:none;stroke-opacity:1"
             id="path5329" /></g><g
           id="g5331"
           transform="translate(154.3442,86.5405)"><path
             d="m 0,0 h -23.769 c -15.688,0 -28.406,12.718 -28.406,28.406 v 12.332 c 0,5.523 4.477,10 10,10 h 60.582 c 5.522,0 10,-4.477 10,-10 V 28.406 C 28.407,12.718 15.688,0 0,0"
             style="fill:#bc5d4c;fill-opacity:1;fill-rule:nonzero;stroke:none"
             id="path5333" /></g><g
           id="g5335"
           transform="translate(182.7559,127.2739)"><path
             d="m 0,0 v -12.33 c 0,-15.69 -12.72,-28.4 -28.41,-28.4 h -23.77 c -0.2,0 -0.4,0 -0.6,0.02 15.41,0.31 27.79,12.89 27.79,28.38 V 0 c 0,5.53 -4.47,10 -10,10 L -10,10 C -4.48,10 0,5.53 0,0"
             style="fill:#a54f3e;fill-opacity:1;fill-rule:nonzero;stroke:none"
             id="path5337" /></g><g
           id="g5339"
           transform="translate(154.3442,86.5405)"><path
             d="m 0,0 h -23.769 c -15.688,0 -28.406,12.718 -28.406,28.406 v 12.332 c 0,5.523 4.477,10 10,10 h 60.582 c 5.522,0 10,-4.477 10,-10 V 28.406 C 28.407,12.718 15.688,0 0,0 Z"
             style="fill:none;stroke:#000000;stroke-width:15;stroke-linecap:round;stroke-linejoin:round;stroke-miterlimit:10;stroke-dasharray:none;stroke-opacity:1"
             id="path5341" /></g><g
           id="g5343"
           transform="translate(437.1904,51.915)"><path
             d="m 0,0 h -362.381 c -5.584,0 -10.111,4.527 -10.111,10.111 v 14.514 c 0,5.523 4.477,10 10,10 H 0.111 c 5.523,0 10,-4.477 10,-10 V 10.111 C 10.111,4.527 5.584,0 0,0"
             style="fill:#eff5f6;fill-opacity:1;fill-rule:nonzero;stroke:none"
             id="path5345" /></g><g
           id="g5347"
           transform="translate(447.3018,76.5405)"><path
             d="m 0,0 v -15 c 0,-5.52 -4.48,-10 -10,-10 h -31.72 c 5.52,0 10,6.48 10,12 V 0 c 0,5.52 -4.48,10 -10,10 H -10 C -4.48,10 0,5.52 0,0"
             style="fill:#cae5e7;fill-opacity:1;fill-rule:nonzero;stroke:none"
             id="path5349" /></g><g
           id="g5351"
           transform="translate(437.1904,51.915)"><path
             d="m 0,0 h -362.381 c -5.584,0 -10.111,4.527 -10.111,10.111 v 14.514 c 0,5.523 4.477,10 10,10 H 0.111 c 5.523,0 10,-4.477 10,-10 V 10.111 C 10.111,4.527 5.584,0 0,0 Z"
             style="fill:none;stroke:#000000;stroke-width:15;stroke-linecap:round;stroke-linejoin:round;stroke-miterlimit:10;stroke-dasharray:none;stroke-opacity:1"
             id="path5353" /></g><g
           id="g5355"
           transform="translate(302.8506,165.4653)"><path
             d="m 0,0 h -93.699 c -2.761,0 -5,2.267 -5,5.062 v 92.226 c 0,16.776 13.432,30.375 30,30.375 H -25 c 16.568,0 30,-13.599 30,-30.375 V 5.062 C 5,2.267 2.761,0 0,0"
             style="fill:#fe4855;fill-opacity:1;fill-rule:nonzero;stroke:none"
             id="path5357" /></g><g
           id="g5359"
           transform="translate(204.1519,219.8154)"><path
             d="m 0,0 v -49.288 c 0,-2.795 2.239,-5.062 5,-5.062 h 93.699 c 2.76,0 5,2.267 5,5.062 V 0 Z"
             style="fill:#fb2b3b;fill-opacity:1;fill-rule:nonzero;stroke:none"
             id="path5361" /></g><g
           id="g5363"
           transform="translate(307.8506,262.7568)"><path
             d="m 0,0 v -92.228 c 0,-2.794 -2.239,-5.063 -5,-5.063 h -27.06 c 2.76,0 5,2.269 5,5.063 V 0 c 0,16.777 -13.429,30.375 -30,30.375 H -30 C -13.43,30.375 0,16.777 0,0"
             style="fill:#fb2b3b;fill-opacity:1;fill-rule:nonzero;stroke:none"
             id="path5365" /></g><g
           id="g5367"
           transform="translate(302.8506,165.4653)"><path
             d="m 0,0 h -93.699 c -2.761,0 -5,2.267 -5,5.062 v 92.226 c 0,16.776 13.432,30.375 30,30.375 H -25 c 16.568,0 30,-13.599 30,-30.375 V 5.062 C 5,2.267 2.761,0 0,0 Z"
             style="fill:none;stroke:#000000;stroke-width:15;stroke-linecap:round;stroke-linejoin:round;stroke-miterlimit:10;stroke-dasharray:none;stroke-opacity:1"
             id="path5369" /></g><g
           id="g5371"
           transform="translate(77.7695,86.5405)"><path
             d="M 0,0 V 133.275 H 356.463 V 0"
             style="fill:none;stroke:#000000;stroke-width:15;stroke-linecap:round;stroke-linejoin:round;stroke-miterlimit:10;stroke-dasharray:none;stroke-opacity:1"
             id="path5373" /></g><g
           id="g5375"
           transform="translate(77.7695,192.4175)"><path
             d="M 0,0 H 356.463"
             style="fill:none;stroke:#000000;stroke-width:15;stroke-linecap:round;stroke-linejoin:round;stroke-miterlimit:10;stroke-dasharray:none;stroke-opacity:1"
             id="path5377" /></g><g
           id="g5379"
           transform="translate(123.3716,7.5)"><path
             d="m 0,0 h -7.277 c -5.085,0 -9.36,3.863 -9.936,8.979 l -3.99,35.436 H 13.925 L 9.936,8.979 C 9.36,3.863 5.085,0 0,0"
             style="fill:#cae5e7;fill-opacity:1;fill-rule:nonzero;stroke:none"
             id="path5381" /></g><g
           id="g5383"
           transform="translate(135.3809,34.8984)"><path
             d="M 0,0 1.916,17.017 H -33.212 L -31.296,0 Z"
             style="fill:#a8d3d9;fill-opacity:1;fill-rule:nonzero;stroke:none"
             id="path5385" /></g><g
           id="g5387"
           transform="translate(123.3716,7.5)"><path
             d="m 0,0 h -7.277 c -5.085,0 -9.36,3.863 -9.936,8.979 l -3.99,35.436 H 13.925 L 9.936,8.979 C 9.36,3.863 5.085,0 0,0 Z"
             style="fill:none;stroke:#000000;stroke-width:15;stroke-linecap:round;stroke-linejoin:round;stroke-miterlimit:10;stroke-dasharray:none;stroke-opacity:1"
             id="path5389" /></g><g
           id="g5391"
           transform="translate(191.5059,7.5)"><path
             d="m 0,0 h -7.278 c -5.084,0 -9.36,3.863 -9.935,8.979 l -3.99,35.436 H 13.925 L 9.936,8.979 C 9.36,3.863 5.084,0 0,0"
             style="fill:#cae5e7;fill-opacity:1;fill-rule:nonzero;stroke:none"
             id="path5393" /></g><g
           id="g5395"
           transform="translate(203.5151,34.8984)"><path
             d="M 0,0 1.916,17.017 H -33.212 L -31.296,0 Z"
             style="fill:#a8d3d9;fill-opacity:1;fill-rule:nonzero;stroke:none"
             id="path5397" /></g><g
           id="g5399"
           transform="translate(191.5059,7.5)"><path
             d="m 0,0 h -7.278 c -5.084,0 -9.36,3.863 -9.935,8.979 l -3.99,35.436 H 13.925 L 9.936,8.979 C 9.36,3.863 5.084,0 0,0 Z"
             style="fill:none;stroke:#000000;stroke-width:15;stroke-linecap:round;stroke-linejoin:round;stroke-miterlimit:10;stroke-dasharray:none;stroke-opacity:1"
             id="path5401" /></g><g
           id="g5403"
           transform="translate(259.6396,7.5)"><path
             d="m 0,0 h -7.277 c -5.085,0 -9.36,3.863 -9.936,8.979 l -3.989,35.436 H 13.925 L 9.936,8.979 C 9.36,3.863 5.085,0 0,0"
             style="fill:#cae5e7;fill-opacity:1;fill-rule:nonzero;stroke:none"
             id="path5405" /></g><g
           id="g5407"
           transform="translate(271.6494,34.8984)"><path
             d="M 0,0 1.915,17.017 H -33.212 L -31.296,0 Z"
             style="fill:#a8d3d9;fill-opacity:1;fill-rule:nonzero;stroke:none"
             id="path5409" /></g><g
           id="g5411"
           transform="translate(259.6396,7.5)"><path
             d="m 0,0 h -7.277 c -5.085,0 -9.36,3.863 -9.936,8.979 l -3.989,35.436 H 13.925 L 9.936,8.979 C 9.36,3.863 5.085,0 0,0 Z"
             style="fill:none;stroke:#000000;stroke-width:15;stroke-linecap:round;stroke-linejoin:round;stroke-miterlimit:10;stroke-dasharray:none;stroke-opacity:1"
             id="path5413" /></g><g
           id="g5415"
           transform="translate(327.7734,7.5)"><path
             d="m 0,0 h -7.277 c -5.084,0 -9.36,3.863 -9.936,8.979 l -3.989,35.436 H 13.926 L 9.937,8.979 C 9.36,3.863 5.085,0 0,0"
             style="fill:#cae5e7;fill-opacity:1;fill-rule:nonzero;stroke:none"
             id="path5417" /></g><g
           id="g5419"
           transform="translate(339.7832,34.8984)"><path
             d="M 0,0 1.916,17.017 H -33.212 L -31.296,0 Z"
             style="fill:#a8d3d9;fill-opacity:1;fill-rule:nonzero;stroke:none"
             id="path5421" /></g><g
           id="g5423"
           transform="translate(327.7734,7.5)"><path
             d="m 0,0 h -7.277 c -5.084,0 -9.36,3.863 -9.936,8.979 l -3.989,35.436 H 13.926 L 9.937,8.979 C 9.36,3.863 5.085,0 0,0 Z"
             style="fill:none;stroke:#000000;stroke-width:15;stroke-linecap:round;stroke-linejoin:round;stroke-miterlimit:10;stroke-dasharray:none;stroke-opacity:1"
             id="path5425" /></g><g
           id="g5427"
           transform="translate(395.9082,7.5)"><path
             d="m 0,0 h -7.277 c -5.085,0 -9.361,3.863 -9.937,8.979 l -3.989,35.436 H 13.925 L 9.936,8.979 C 9.359,3.863 5.085,0 0,0"
             style="fill:#cae5e7;fill-opacity:1;fill-rule:nonzero;stroke:none"
             id="path5429" /></g><g
           id="g5431"
           transform="translate(407.917,34.8984)"><path
             d="M 0,0 1.916,17.017 H -33.212 L -31.296,0 Z"
             style="fill:#a8d3d9;fill-opacity:1;fill-rule:nonzero;stroke:none"
             id="path5433" /></g><g
           id="g5435"
           transform="translate(395.9082,7.5)"><path
             d="m 0,0 h -7.277 c -5.085,0 -9.361,3.863 -9.937,8.979 l -3.989,35.436 H 13.925 L 9.936,8.979 C 9.359,3.863 5.085,0 0,0 Z"
             style="fill:none;stroke:#000000;stroke-width:15;stroke-linecap:round;stroke-linejoin:round;stroke-miterlimit:10;stroke-dasharray:none;stroke-opacity:1"
             id="path5437" /></g><g
           id="g5439"
           transform="translate(160.7744,323.0659)"><path
             d="m 0,0 h -48.546 c -5.522,0 -10,4.478 -10,10 v 10.927 c 0,5.523 4.478,10 10,10 H 0 c 5.523,0 10,-4.477 10,-10 V 10 C 10,4.478 5.523,0 0,0"
             style="fill:#97d729;fill-opacity:1;fill-rule:nonzero;stroke:none"
             id="path5441" /></g><g
           id="g5443"
           transform="translate(170.7729,343.8633)"><path
             d="m 0,0 v -10.672 c 0,-5.589 -4.48,-10.125 -10,-10.125 h -26.58 c 5.53,0 10,4.536 10,10.125 V 0 c 0,5.599 -4.47,10.125 -10,10.125 H -10 C -4.48,10.125 0,5.599 0,0"
             style="fill:#81b923;fill-opacity:1;fill-rule:nonzero;stroke:none"
             id="path5445" /></g><g
           id="g5447"
           transform="translate(160.7744,323.0659)"><path
             d="m 0,0 h -48.546 c -5.522,0 -10,4.478 -10,10 v 10.927 c 0,5.523 4.478,10 10,10 H 0 c 5.523,0 10,-4.477 10,-10 V 10 C 10,4.478 5.523,0 0,0 Z"
             style="fill:none;stroke:#000000;stroke-width:15;stroke-linecap:round;stroke-linejoin:round;stroke-miterlimit:10;stroke-dasharray:none;stroke-opacity:1"
             id="path5449" /></g><g
           id="g5451"
           transform="translate(102.2285,300.5708)"><path
             d="M 0,0 H 68.546"
             style="fill:none;stroke:#000000;stroke-width:15;stroke-linecap:round;stroke-linejoin:round;stroke-miterlimit:10;stroke-dasharray:none;stroke-opacity:1"
             id="path5453" /></g><g
           id="g5455"
           transform="translate(399.7734,323.0659)"><path
             d="m 0,0 h -48.546 c -5.522,0 -10,4.478 -10,10 v 10.927 c 0,5.523 4.478,10 10,10 H 0 c 5.522,0 10,-4.477 10,-10 V 10 C 10,4.478 5.522,0 0,0"
             style="fill:#97d729;fill-opacity:1;fill-rule:nonzero;stroke:none"
             id="path5457" /></g><g
           id="g5459"
           transform="translate(409.7715,343.8633)"><path
             d="m 0,0 v -10.672 c 0,-5.589 -4.479,-10.125 -10,-10.125 h -26.58 c 5.53,0 10,4.536 10,10.125 V 0 c 0,5.599 -4.47,10.125 -10,10.125 H -10 C -4.479,10.125 0,5.599 0,0"
             style="fill:#81b923;fill-opacity:1;fill-rule:nonzero;stroke:none"
             id="path5461" /></g><g
           id="g5463"
           transform="translate(399.7734,323.0659)"><path
             d="m 0,0 h -48.546 c -5.522,0 -10,4.478 -10,10 v 10.927 c 0,5.523 4.478,10 10,10 H 0 c 5.522,0 10,-4.477 10,-10 V 10 C 10,4.478 5.522,0 0,0 Z"
             style="fill:none;stroke:#000000;stroke-width:15;stroke-linecap:round;stroke-linejoin:round;stroke-miterlimit:10;stroke-dasharray:none;stroke-opacity:1"
             id="path5465" /></g><g
           id="g5467"
           transform="translate(341.2275,300.5708)"><path
             d="M 0,0 H 68.546"
             style="fill:none;stroke:#000000;stroke-width:15;stroke-linecap:round;stroke-linejoin:round;stroke-miterlimit:10;stroke-dasharray:none;stroke-opacity:1"
             id="path5469" /></g><g
           id="g5471"
           transform="translate(291.0957,321.6772)"><path
             d="m 0,0 c 0,-20.631 -15.712,-37.356 -35.095,-37.356 -19.382,0 -35.094,16.725 -35.094,37.356 0,20.631 15.712,37.355 35.094,37.355 C -15.712,37.355 0,20.631 0,0"
             style="fill:#d78878;fill-opacity:1;fill-rule:nonzero;stroke:none"
             id="path5473" /></g><g
           id="g5475"
           transform="translate(291.0937,321.6787)"><path
             d="m 0,0 c 0,-20.635 -15.714,-37.354 -35.096,-37.354 -6.695,0 -12.952,1.995 -18.278,5.458 18.921,0.568 34.091,17.071 34.091,37.338 0,13.507 -6.737,25.343 -16.827,31.896 0.338,0.008 0.676,0.016 1.014,0.016 C -15.714,37.354 0,20.626 0,0"
             style="fill:#ca6f59;fill-opacity:1;fill-rule:nonzero;stroke:none"
             id="path5477" /></g><g
           id="g5479"
           transform="translate(291.0957,321.6772)"><path
             d="m 0,0 c 0,-20.631 -15.712,-37.356 -35.095,-37.356 -19.382,0 -35.094,16.725 -35.094,37.356 0,20.631 15.712,37.355 35.094,37.355 C -15.712,37.355 0,20.631 0,0 Z"
             style="fill:none;stroke:#000000;stroke-width:15;stroke-linecap:round;stroke-linejoin:round;stroke-miterlimit:10;stroke-dasharray:none;stroke-opacity:1"
             id="path5481" /></g><g
           id="g5483"
           transform="translate(256.001,163.3149)"><path
             d="M 0,0 V -73.13"
             style="fill:none;stroke:#000000;stroke-width:15;stroke-linecap:round;stroke-linejoin:round;stroke-miterlimit:10;stroke-dasharray:none;stroke-opacity:1"
             id="path5485" /></g><g
           id="g5487"
           transform="translate(223.5435,214.8105)"><path
             d="m 0,0 c 0,-12.368 -9.902,-22.393 -22.117,-22.393 -12.215,0 -22.116,10.025 -22.116,22.393 0,12.367 9.901,22.393 22.116,22.393 C -9.902,22.393 0,12.367 0,0"
             style="fill:#d78878;fill-opacity:1;fill-rule:nonzero;stroke:none"
             id="path5489" /></g><g
           id="g5491"
           transform="translate(223.54,214.8101)"><path
             d="m 0,0 c 0,-12.37 -9.9,-22.39 -22.11,-22.39 -6.59,0 -12.5,2.91 -16.54,7.54 11.74,0.54 21.09,10.34 21.09,22.36 0,5.7 -2.11,10.9 -5.58,14.85 0.34,0.02 0.68,0.03 1.03,0.03 C -9.9,22.39 0,12.37 0,0"
             style="fill:#ca6f59;fill-opacity:1;fill-rule:nonzero;stroke:none"
             id="path5493" /></g><g
           id="g5495"
           transform="translate(223.5435,214.8105)"><path
             d="m 0,0 c 0,-12.368 -9.902,-22.393 -22.117,-22.393 -12.215,0 -22.116,10.025 -22.116,22.393 0,12.367 9.901,22.393 22.116,22.393 C -9.902,22.393 0,12.367 0,0 Z"
             style="fill:none;stroke:#000000;stroke-width:15;stroke-linecap:round;stroke-linejoin:round;stroke-miterlimit:10;stroke-dasharray:none;stroke-opacity:1"
             id="path5497" /></g><g
           id="g5499"
           transform="translate(332.6895,214.8105)"><path
             d="m 0,0 c 0,-12.368 -9.901,-22.393 -22.116,-22.393 -12.215,0 -22.117,10.025 -22.117,22.393 0,12.367 9.902,22.393 22.117,22.393 C -9.901,22.393 0,12.367 0,0"
             style="fill:#d78878;fill-opacity:1;fill-rule:nonzero;stroke:none"
             id="path5501" /></g><g
           id="g5503"
           transform="translate(332.6895,214.8101)"><path
             d="m 0,0 c 0,-12.37 -9.899,-22.39 -22.119,-22.39 -6.58,0 -12.5,2.91 -16.53,7.54 11.74,0.54 21.089,10.34 21.089,22.36 0,5.7 -2.099,10.9 -5.58,14.85 0.34,0.02 0.681,0.03 1.021,0.03 C -9.899,22.39 0,12.37 0,0"
             style="fill:#ca6f59;fill-opacity:1;fill-rule:nonzero;stroke:none"
             id="path5505" /></g><g
           id="g5507"
           transform="translate(332.6895,214.8105)"><path
             d="m 0,0 c 0,-12.368 -9.901,-22.393 -22.116,-22.393 -12.215,0 -22.117,10.025 -22.117,22.393 0,12.367 9.902,22.393 22.117,22.393 C -9.901,22.393 0,12.367 0,0 Z"
             style="fill:none;stroke:#000000;stroke-width:15;stroke-linecap:round;stroke-linejoin:round;stroke-miterlimit:10;stroke-dasharray:none;stroke-opacity:1"
             id="path5509" /></g></g></g></g></svg>
