<svg id="&#x421;&#x43B;&#x43E;&#x439;_1" enable-background="new 0 0 2000 2000" viewBox="0 0 2000 2000" xmlns="http://www.w3.org/2000/svg"><g><g fill="#9aff9f"><path d="m1268.513 407.452h104.182v526.851h-104.182z"/><path d="m1450.556 407.452h-70.341v526.851h104.182v-493.01c0-18.661-15.18-33.841-33.841-33.841z"/><path d="m1045.112 441.293v493.01h104.178v-526.851h-70.341c-18.661 0-33.837 15.18-33.837 33.841z"/><path d="m1156.811 407.452h104.182v526.851h-104.182z"/></g><path d="m446.558 415.461-14.324-34.19c-4.26-10.164-14.134-16.73-25.153-16.73-9.22 0-17.464 4.388-22.616 12.037-5.152 7.652-6.118 16.939-2.648 25.487l19.976 49.197c13.3 32.776 44.754 53.953 80.13 53.953h263.257v-55.15h-246.6c-22.793.001-43.213-13.582-52.022-34.604z" fill="#a0d7ff"/><path d="m1598.655 451.263 19.976-49.197c3.466-8.548 2.497-17.839-2.659-25.487-5.148-7.649-13.388-12.037-22.612-12.037-11.023 0-20.894 6.566-25.153 16.73l-14.321 34.19c-8.813 21.022-29.236 34.605-52.025 34.605h-9.944v55.15h26.6c35.376-.002 66.831-21.178 80.138-53.954z" fill="#a0d7ff"/><path d="m476.639 445.542c8.809 21.022 29.229 34.605 52.021 34.605h216.52v-30.081h-246.6c-7.728 0-15.131-1.673-21.954-4.556z" fill="#fff"/><path d="m431.874 481.344-19.976-49.197c-3.47-8.548-2.504-17.835 2.647-25.487 5.152-7.649 13.395-12.037 22.616-12.037.233 0 .456.045.687.051l-5.615-13.403c-4.26-10.164-14.134-16.73-25.153-16.73-9.22 0-17.464 4.388-22.616 12.037-5.152 7.652-6.118 16.939-2.648 25.487l19.976 49.197c7.288 17.962 20.05 32.404 35.899 41.822-2.204-3.719-4.153-7.639-5.817-11.74z" fill="#fff"/><path d="m1610.389 376.578c-5.148-7.649-13.388-12.037-22.612-12.037-11.023 0-20.894 6.566-25.153 16.73l-14.321 34.19c-8.813 21.022-29.236 34.605-52.025 34.605h-9.944v30.081h40.025c22.788 0 43.212-13.583 52.025-34.605l14.321-34.19c3.864-9.22 12.359-15.422 22.129-16.506.744-6.347-.717-12.737-4.445-18.268z" fill="#fff"/><path d="m1055.247 407.452h-268.706c-18.661 0-33.841 15.18-33.841 33.841v225.824h284.892v-225.824c0-13.986 6.997-26.352 17.655-33.841z" fill="#ffe091"/><path d="m1402.034 1276.122h-296.095c-12.808 0-23.229 10.421-23.229 23.229s10.421 23.229 23.229 23.229h290.418c27.687 0 50.218-22.528 50.218-50.218 0-27.691-22.531-50.218-50.218-50.218h-290.418c-12.808 0-23.229 10.421-23.229 23.229s10.421 23.229 23.229 23.229h296.095c2.078 0 3.76 1.682 3.76 3.76s-1.682 3.76-3.76 3.76z" fill="#9aff9f"/><path d="m1082.71 1380.319c0 27.691 22.531 50.218 50.218 50.218h290.418c12.808 0 23.229-10.421 23.229-23.229s-10.421-23.229-23.229-23.229h-296.088c-2.078 0-3.76-1.682-3.76-3.76s1.682-3.76 3.76-3.76h296.088c12.808 0 23.229-10.421 23.229-23.229s-10.421-23.229-23.229-23.229h-290.418c-27.687-.001-50.218 22.527-50.218 50.218z" fill="#9aff9f"/><path d="m536.217 1380.319c0-24.679 15.595-45.733 37.425-53.978-21.83-8.245-37.425-29.299-37.425-53.978 0-31.836 25.902-57.739 57.738-57.739h332.529c31.836 0 57.739 25.902 57.739 57.739 0 24.679-15.595 45.733-37.425 53.978 21.83 8.245 37.425 29.299 37.425 53.978 0 21.516-11.853 40.287-29.35 50.218h149.667c-17.497-9.931-29.35-28.702-29.35-50.218 0-21.599 11.941-40.439 29.549-50.339-16.39-.646-29.549-14.086-29.549-30.628 0-11.625 6.485-21.764 16.025-26.989-9.54-5.225-16.025-15.364-16.025-26.989 0-16.954 13.792-30.749 30.749-30.749h290.418c31.836 0 57.739 25.902 57.739 57.739 0 21.599-11.941 40.439-29.549 50.339 16.39.646 29.549 14.086 29.549 30.628 0 11.625-6.485 21.764-16.025 26.989 9.54 5.225 16.025 15.364 16.025 26.989 0 9.321-4.258 17.585-10.829 23.229h101.534v-272.506h-1089.595v272.506h110.362c-17.498-9.932-29.351-28.703-29.351-50.219z" fill="#ffe091"/><path d="m455.206 1071.441h1089.596v79.069h-1089.596z" fill="#ffe091"/><path d="m1544.801 1101.522v-30.081h-1038.913l19.102 18.792c7.354 7.235 17.257 11.289 27.573 11.289z" fill="#fff"/><path d="m946.813 1063.921c16.48 0 29.89-13.41 29.89-29.89s-13.41-29.89-29.89-29.89v-7.52c16.48 0 29.89-13.41 29.89-29.89s-13.41-29.89-29.89-29.89h-362.096c-35.035 0-63.54 28.506-63.54 63.54s28.506 63.54 63.54 63.54z" fill="#a0d7ff"/><path d="m551.258 1007.901c0-35.034 28.506-63.54 63.54-63.54h351.632c-5.264-4.621-12.079-7.52-19.617-7.52h-362.096c-35.035 0-63.54 28.506-63.54 63.54s28.506 63.54 63.54 63.54h.151c-19.982-10.719-33.61-31.803-33.61-56.02z" fill="#fff"/><path d="m543.737 1380.319c0 27.691 22.528 50.218 50.218 50.218h332.529c27.691 0 50.218-22.528 50.218-50.218s-22.528-50.218-50.218-50.218h-332.528c-27.691-.001-50.219 22.527-50.219 50.218z" fill="#ff8c8c"/><path d="m976.703 1272.362c0-27.691-22.528-50.218-50.218-50.218h-332.529c-27.691 0-50.218 22.528-50.218 50.218s22.528 50.218 50.218 50.218h332.529c27.69 0 50.218-22.528 50.218-50.218z" fill="#ff8c8c"/><path d="m455.206 1438.057h1089.596v79.069h-1089.596z" fill="#ffe091"/><path d="m913.159 802.236h-362.092c-16.48 0-29.89 13.41-29.89 29.89 0 8.504 3.723 16.728 10.084 22.367 3.069 2.72 6.692 4.803 10.593 6.07 3.167 1.029 9.584 1.031 8.725 6.084-.709 4.169-6.992 3.643-10.114 4.832-3.754 1.429-7.204 3.624-10.099 6.408-5.827 5.603-9.188 13.457-9.188 21.543 0 16.48 13.41 29.89 29.89 29.89h362.092c35.038 0 63.544-28.506 63.544-63.544-.001-35.034-28.507-63.54-63.545-63.54z" fill="#a0d7ff"/><path d="m560.196 882.186c2.127-1.513 4.481-2.749 6.985-3.756 3.386-1.361 12.794-3.093 13.478-7.127.857-5.05-5.558-5.053-8.725-6.082-3.901-1.267-7.524-3.35-10.593-6.071-6.361-5.638-10.084 11.56-10.084 3.056 0-16.48 13.41-29.89 29.89-29.89h362.093c9.757 0 18.972 2.275 27.242 6.222-10.226-21.426-32.041-36.303-57.323-36.303h-362.092c-16.48 0-29.89 13.41-29.89 29.89 0 8.503 3.723 16.728 10.084 22.366 3.068 2.721 6.692 4.804 10.593 6.071 3.167 1.029 9.584 1.032 8.725 6.084-.71 4.17-6.992 3.644-10.114 4.832-3.754 1.428-7.204 3.624-10.099 6.408-5.827 5.603-9.188 13.457-9.188 21.544 0 8.009 3.297 15.792 9.027 21.384 4.517 4.408 12.912 9.925 19.492 9.062 2.361-.31 4.735-1.592 5.7-3.768 1.596-3.602-1.118-7.489-2.951-10.976-3.91-7.436-3.901-16.798.021-24.227 1.907-3.614 4.567-6.471 7.729-8.719z" fill="#fff"/><path d="m383.341 1635.46h45.544c10.366 0 18.801-8.435 18.801-18.801v-633.261c0-22.924-18.65-41.574-41.574-41.574-22.921 0-41.571 18.65-41.571 41.574v633.262c-.001 10.366 8.434 18.8 18.8 18.8z" fill="#ffe091"/><path d="m394.621 1013.479c0-22.924 18.65-41.574 41.571-41.574 3.518 0 6.916.487 10.18 1.313-4.559-18.009-20.855-31.394-40.261-31.394-22.921 0-41.571 18.65-41.571 41.574v633.262c0 10.366 8.435 18.801 18.801 18.801h11.28z" fill="#fff"/><path d="m1571.122 1635.46h45.54c10.37 0 18.801-8.435 18.801-18.801v-633.261c0-22.924-18.654-41.574-41.574-41.574s-41.567 18.65-41.567 41.574v633.262c0 10.366 8.43 18.8 18.8 18.8z" fill="#ffe091"/><path d="m1582.403 1013.479c0-22.924 18.646-41.574 41.567-41.574 3.517 0 6.915.487 10.18 1.313-4.559-18.009-20.857-31.394-40.261-31.394-22.921 0-41.567 18.65-41.567 41.574v633.262c0 10.366 8.431 18.801 18.801 18.801h11.28z" fill="#fff"/><path d="m779.021 466.792c0-18.237 14.783-33.02 33.019-33.02h672.357v-30.081h-702.438c-18.236 0-33.019 14.783-33.019 33.02v234.307h30.081z" fill="#fff"/><path d="m1071.433 463.647c0-16.499 13.376-29.874 29.875-29.874h383.089v-30.081h-413.17c-16.5 0-29.875 13.375-29.875 29.874v508.258h30.081z" fill="#fff"/><g><path d="m428.885 1650.502h-45.544c-18.661 0-33.841-15.18-33.841-33.841v-633.262c0-31.219 25.396-56.615 56.611-56.615 31.219 0 56.615 25.396 56.615 56.615v633.262c0 18.661-15.18 33.841-33.841 33.841zm-22.774-701.157c-18.775 0-34.05 15.276-34.05 34.054v633.262c0 6.22 5.06 11.28 11.28 11.28h45.544c6.22 0 11.28-5.06 11.28-11.28v-633.262c0-18.779-15.275-34.054-34.054-34.054z" fill="#593515"/></g><g><path d="m1616.659 1650.502h-45.54c-18.661 0-33.841-15.18-33.841-33.841v-633.262c0-31.219 25.396-56.615 56.615-56.615 31.212 0 56.608 25.396 56.608 56.615v633.262c-.001 18.661-15.181 33.841-33.842 33.841zm-22.767-701.157c-18.779 0-34.054 15.276-34.054 34.054v633.262c0 6.22 5.06 11.28 11.28 11.28h45.54c6.22 0 11.28-5.06 11.28-11.28v-633.262c.001-18.779-15.274-34.054-34.046-34.054z" fill="#593515"/></g><g><path d="m1548.558 1165.552h-1097.112c-6.231 0-11.28-5.049-11.28-11.28v-86.589c0-6.231 5.049-11.28 11.28-11.28h1097.112c6.228 0 11.28 5.049 11.28 11.28v86.589c0 6.231-5.052 11.28-11.28 11.28zm-1085.832-22.561h1074.552v-64.029h-1074.552z" fill="#593515"/></g><g><path d="m1548.558 1532.168h-1097.112c-6.231 0-11.28-5.049-11.28-11.28v-86.589c0-6.231 5.049-11.28 11.28-11.28h1097.112c6.228 0 11.28 5.049 11.28 11.28v86.589c0 6.231-5.052 11.28-11.28 11.28zm-1085.832-22.561h1074.552v-64.029h-1074.552z" fill="#593515"/></g><g><path d="m926.485 1445.579h-332.533c-35.986 0-65.259-29.273-65.259-65.259 0-35.985 29.273-65.259 65.259-65.259h332.532c35.986 0 65.259 29.273 65.259 65.259.001 35.985-29.273 65.259-65.258 65.259zm-332.533-107.957c-23.545 0-42.698 19.153-42.698 42.698s19.153 42.698 42.698 42.698h332.532c23.545 0 42.698-19.153 42.698-42.698s-19.153-42.698-42.698-42.698z" fill="#593515"/></g><g><path d="m926.485 1337.622h-332.533c-35.986 0-65.259-29.273-65.259-65.259s29.273-65.259 65.259-65.259h332.532c35.986 0 65.259 29.273 65.259 65.259s-29.273 65.259-65.258 65.259zm-332.533-107.957c-23.545 0-42.698 19.153-42.698 42.698s19.153 42.698 42.698 42.698h332.532c23.545 0 42.698-19.153 42.698-42.698s-19.153-42.698-42.698-42.698z" fill="#593515"/></g><g><path d="m946.809 1078.963h-362.092c-43.333 0-78.584-35.251-78.584-78.581 0-43.333 35.251-78.584 78.584-78.584h362.092c24.775 0 44.934 20.156 44.934 44.934 0 13.381-5.879 25.41-15.191 33.65 9.312 8.24 15.191 20.269 15.191 33.65.001 24.775-20.159 44.931-44.934 44.931zm-362.092-134.605c-30.893 0-56.024 25.131-56.024 56.024 0 30.889 25.131 56.02 56.024 56.02h362.092c12.338 0 22.373-10.036 22.373-22.37s-10.036-22.37-22.373-22.37h-369.168c-6.231 0-11.28-5.049-11.28-11.28s5.049-11.28 11.28-11.28h369.168c12.338 0 22.373-10.036 22.373-22.37 0-12.338-10.036-22.373-22.373-22.373h-362.092z" fill="#593515"/></g><g><path d="m913.159 944.358h-362.092c-24.775 0-44.934-20.156-44.934-44.931 0-13.381 5.879-25.41 15.191-33.65-9.312-8.24-15.191-20.269-15.191-33.65 0-24.775 20.159-44.931 44.934-44.931h362.092c43.333 0 78.584 35.251 78.584 78.581s-35.251 78.581-78.584 78.581zm-362.092-67.3c-12.338 0-22.373 10.036-22.373 22.37s10.036 22.37 22.373 22.37h362.092c30.893 0 56.024-25.131 56.024-56.02s-25.131-56.02-56.024-56.02h-362.092c-12.338 0-22.373 10.036-22.373 22.37s10.036 22.37 22.373 22.37h369.168c6.231 0 11.28 5.049 11.28 11.28s-5.049 11.28-11.28 11.28z" fill="#593515"/></g><g><path d="m1423.343 1445.579h-290.411c-35.986 0-65.259-29.273-65.259-65.259 0-35.985 29.273-65.259 65.259-65.259h290.411c21.099 0 38.27 17.167 38.27 38.27 0 10.52-4.267 20.064-11.163 26.989 6.896 6.925 11.163 16.469 11.163 26.989-.001 21.103-17.171 38.27-38.27 38.27zm-290.411-107.957c-23.545 0-42.698 19.153-42.698 42.698s19.153 42.698 42.698 42.698h290.411c8.662 0 15.709-7.047 15.709-15.709s-7.047-15.709-15.709-15.709h-296.088c-6.231 0-11.28-5.049-11.28-11.28s5.049-11.28 11.28-11.28h296.088c8.662 0 15.709-7.047 15.709-15.709s-7.047-15.709-15.709-15.709z" fill="#593515"/></g><g><path d="m1396.354 1337.622h-290.411c-21.103 0-38.27-17.167-38.27-38.27 0-10.52 4.267-20.064 11.163-26.989-6.896-6.925-11.163-16.469-11.163-26.989 0-21.103 17.167-38.27 38.27-38.27h290.411c35.986 0 65.259 29.273 65.259 65.259s-29.274 65.259-65.259 65.259zm-290.411-53.978c-8.662 0-15.709 7.047-15.709 15.709s7.047 15.709 15.709 15.709h290.411c23.545 0 42.698-19.153 42.698-42.698s-19.153-42.698-42.698-42.698h-290.411c-8.662 0-15.709 7.047-15.709 15.709s7.047 15.709 15.709 15.709h296.088c6.231 0 11.28 5.049 11.28 11.28s-5.049 11.28-11.28 11.28z" fill="#593515"/></g><g><path d="m748.936 520.253h-267.013c-41.527 0-78.449-24.859-94.069-63.331l-19.972-49.205c-5.306-13.065-3.767-27.848 4.105-39.544 7.876-11.695 20.996-18.676 35.093-18.676 17.097 0 32.416 10.19 39.022 25.957l14.324 34.194c6.463 15.415 21.437 25.377 38.148 25.377h250.366c6.231 0 11.28 5.049 11.28 11.28s-5.049 11.28-11.28 11.28h-250.364c-25.829 0-48.97-15.393-58.954-39.221l-14.324-34.194c-3.084-7.359-10.234-12.114-18.217-12.114-6.679 0-12.646 3.176-16.377 8.717s-4.432 12.268-1.92 18.459l19.972 49.201c12.151 29.919 40.869 49.256 73.168 49.256h267.013c6.231 0 11.28 5.049 11.28 11.28 0 6.235-5.049 11.284-11.281 11.284z" fill="#593515"/></g><g><path d="m1518.521 520.253h-30.36c-6.228 0-11.28-5.049-11.28-11.28s5.053-11.28 11.28-11.28h30.36c32.299 0 61.014-19.333 73.161-49.256l19.976-49.205c2.512-6.187 1.814-12.914-1.917-18.452-3.731-5.545-9.701-8.721-16.385-8.721-7.976 0-15.121 4.755-18.206 12.114l-14.328 34.194c-9.981 23.824-33.121 39.221-58.958 39.221h-13.704c-6.228 0-11.28-5.049-11.28-11.28s5.053-11.28 11.28-11.28h13.704c16.715 0 31.689-9.962 38.145-25.377l14.328-34.194c6.609-15.768 21.929-25.957 39.019-25.957 14.1 0 27.224 6.984 35.097 18.679 7.88 11.695 9.408 26.479 4.105 39.544l-19.976 49.201c-15.612 38.47-52.538 63.329-94.061 63.329z" fill="#593515"/></g><g><path d="m1041.352 682.159h-292.412c-6.231 0-11.28-5.049-11.28-11.28v-229.588c0-26.952 21.929-48.882 48.882-48.882h292.412c6.231 0 11.28 5.049 11.28 11.28s-5.049 11.28-11.28 11.28h-292.413c-14.512 0-26.321 11.809-26.321 26.321v218.308h281.132c6.231 0 11.28 5.049 11.28 11.28s-5.048 11.281-11.28 11.281z" fill="#593515"/></g><g><path d="m1488.161 949.345h-446.809c-6.231 0-11.28-5.049-11.28-11.28v-496.774c0-26.952 21.929-48.882 48.882-48.882h371.606c26.953 0 48.882 21.929 48.882 48.882v496.774c-.001 6.231-5.053 11.28-11.281 11.28zm-435.528-22.561h424.248v-485.493c0-14.512-11.809-26.321-26.321-26.321h-371.606c-14.512 0-26.321 11.809-26.321 26.321z" fill="#593515"/></g><g><path d="m1153.054 949.624c-6.231 0-11.28-5.049-11.28-11.28v-534.654c0-6.231 5.049-11.28 11.28-11.28s11.28 5.049 11.28 11.28v534.654c.001 6.231-5.048 11.28-11.28 11.28z" fill="#593515"/></g><g><path d="m1264.757 949.624c-6.231 0-11.28-5.049-11.28-11.28v-534.654c0-6.231 5.049-11.28 11.28-11.28s11.28 5.049 11.28 11.28v534.654c0 6.231-5.049 11.28-11.28 11.28z" fill="#593515"/></g><g><path d="m1376.459 949.624c-6.231 0-11.28-5.049-11.28-11.28v-534.654c0-6.231 5.049-11.28 11.28-11.28s11.28 5.049 11.28 11.28v534.654c0 6.231-5.049 11.28-11.28 11.28z" fill="#593515"/></g><g><path d="m1041.352 1014.1c-6.231 0-11.28-5.049-11.28-11.28v-64.477c0-6.231 5.049-11.28 11.28-11.28s11.28 5.049 11.28 11.28v64.477c.001 6.231-5.048 11.28-11.28 11.28z" fill="#593515"/></g><g><path d="m1096.043 1014.1c-6.231 0-11.28-5.049-11.28-11.28v-64.477c0-6.231 5.049-11.28 11.28-11.28s11.28 5.049 11.28 11.28v64.477c0 6.231-5.049 11.28-11.28 11.28z" fill="#593515"/></g><g><path d="m1153.054 1014.1c-6.231 0-11.28-5.049-11.28-11.28v-64.477c0-6.231 5.049-11.28 11.28-11.28s11.28 5.049 11.28 11.28v64.477c.001 6.231-5.048 11.28-11.28 11.28z" fill="#593515"/></g><g><path d="m1153.054 1014.1c-6.231 0-11.28-5.049-11.28-11.28v-64.477c0-6.231 5.049-11.28 11.28-11.28s11.28 5.049 11.28 11.28v64.477c.001 6.231-5.048 11.28-11.28 11.28z" fill="#593515"/></g><g><path d="m1207.745 1014.1c-6.231 0-11.28-5.049-11.28-11.28v-64.477c0-6.231 5.049-11.28 11.28-11.28s11.28 5.049 11.28 11.28v64.477c.001 6.231-5.048 11.28-11.28 11.28z" fill="#593515"/></g><g><path d="m1264.757 1014.1c-6.231 0-11.28-5.049-11.28-11.28v-64.477c0-6.231 5.049-11.28 11.28-11.28s11.28 5.049 11.28 11.28v64.477c0 6.231-5.049 11.28-11.28 11.28z" fill="#593515"/></g><g><path d="m1264.757 1014.1c-6.231 0-11.28-5.049-11.28-11.28v-64.477c0-6.231 5.049-11.28 11.28-11.28s11.28 5.049 11.28 11.28v64.477c0 6.231-5.049 11.28-11.28 11.28z" fill="#593515"/></g><g><path d="m1319.447 1014.1c-6.231 0-11.28-5.049-11.28-11.28v-64.477c0-6.231 5.049-11.28 11.28-11.28s11.28 5.049 11.28 11.28v64.477c.001 6.231-5.048 11.28-11.28 11.28z" fill="#593515"/></g><g><path d="m1376.459 1014.1c-6.231 0-11.28-5.049-11.28-11.28v-64.477c0-6.231 5.049-11.28 11.28-11.28s11.28 5.049 11.28 11.28v64.477c0 6.231-5.049 11.28-11.28 11.28z" fill="#593515"/></g><g><path d="m1376.459 1014.1c-6.231 0-11.28-5.049-11.28-11.28v-64.477c0-6.231 5.049-11.28 11.28-11.28s11.28 5.049 11.28 11.28v64.477c0 6.231-5.049 11.28-11.28 11.28z" fill="#593515"/></g><g><path d="m1431.15 1014.1c-6.231 0-11.28-5.049-11.28-11.28v-64.477c0-6.231 5.049-11.28 11.28-11.28s11.28 5.049 11.28 11.28v64.477c0 6.231-5.049 11.28-11.28 11.28z" fill="#593515"/></g><g><path d="m1488.161 1014.1c-6.228 0-11.28-5.049-11.28-11.28v-64.477c0-6.231 5.053-11.28 11.28-11.28 6.228 0 11.28 5.049 11.28 11.28v64.477c0 6.231-5.052 11.28-11.28 11.28z" fill="#593515"/></g><g><path d="m1488.161 1014.1c-6.228 0-11.28-5.049-11.28-11.28v-64.477c0-6.231 5.053-11.28 11.28-11.28 6.228 0 11.28 5.049 11.28 11.28v64.477c0 6.231-5.052 11.28-11.28 11.28z" fill="#593515"/></g><g><path d="m748.94 723.3c-6.231 0-11.28-5.049-11.28-11.28v-41.141c0-6.231 5.049-11.28 11.28-11.28s11.28 5.049 11.28 11.28v41.141c0 6.231-5.049 11.28-11.28 11.28z" fill="#593515"/></g><g><path d="m803.631 723.3c-6.231 0-11.28-5.049-11.28-11.28v-41.141c0-6.231 5.049-11.28 11.28-11.28s11.28 5.049 11.28 11.28v41.141c0 6.231-5.049 11.28-11.28 11.28z" fill="#593515"/></g><g><path d="m860.638 723.3c-6.231 0-11.28-5.049-11.28-11.28v-41.141c0-6.231 5.049-11.28 11.28-11.28s11.28 5.049 11.28 11.28v41.141c.001 6.231-5.048 11.28-11.28 11.28z" fill="#593515"/></g><g><path d="m860.638 723.3c-6.231 0-11.28-5.049-11.28-11.28v-41.141c0-6.231 5.049-11.28 11.28-11.28s11.28 5.049 11.28 11.28v41.141c.001 6.231-5.048 11.28-11.28 11.28z" fill="#593515"/></g><g><path d="m915.333 723.3c-6.231 0-11.28-5.049-11.28-11.28v-41.141c0-6.231 5.049-11.28 11.28-11.28s11.28 5.049 11.28 11.28v41.141c0 6.231-5.049 11.28-11.28 11.28z" fill="#593515"/></g><g><path d="m972.341 723.3c-6.231 0-11.28-5.049-11.28-11.28v-41.141c0-6.231 5.049-11.28 11.28-11.28s11.28 5.049 11.28 11.28v41.141c0 6.231-5.049 11.28-11.28 11.28z" fill="#593515"/></g><g><path d="m972.341 723.3c-6.231 0-11.28-5.049-11.28-11.28v-41.141c0-6.231 5.049-11.28 11.28-11.28s11.28 5.049 11.28 11.28v41.141c0 6.231-5.049 11.28-11.28 11.28z" fill="#593515"/></g></g></svg>