<svg id="Capa_1" enable-background="new 0 0 510.735 510.735" height="512" viewBox="0 0 510.735 510.735" width="512" xmlns="http://www.w3.org/2000/svg"><path d="m7.5 441.706v24.386c0 5.976 4.844 10.82 10.82 10.82h474.095c5.976 0 10.82-4.844 10.82-10.82v-24.386c0-5.976-4.844-10.82-10.82-10.82h-474.095c-5.976 0-10.82 4.844-10.82 10.82z" fill="#d8ab8c"/><path d="m7.5 347.01v24.387c0 5.976 4.844 10.82 10.82 10.82h474.095c5.976 0 10.82-4.844 10.82-10.82v-24.387c0-5.976-4.844-10.82-10.82-10.82h-474.095c-5.976 0-10.82 4.844-10.82 10.82z" fill="#d8ab8c"/><path d="m492.415 430.886h-30c5.976 0 10.82 4.844 10.82 10.82v24.386c0 5.976-4.844 10.82-10.82 10.82h30c5.976 0 10.82-4.844 10.82-10.82v-24.386c0-5.976-4.844-10.82-10.82-10.82z" fill="#cf9875"/><path d="m492.415 336.19h-30c5.976 0 10.82 4.844 10.82 10.82v24.387c0 5.976-4.844 10.82-10.82 10.82h30c5.976 0 10.82-4.844 10.82-10.82v-24.387c0-5.976-4.844-10.82-10.82-10.82z" fill="#cf9875"/><path d="m86.941 210.201c0 13.916 11.281 25.197 25.197 25.197h39.573 144.769 76.921c27.832 0 50.394-22.563 50.394-50.394 0-27.831-22.562-50.393-50.394-50.393h-76.921-144.77-39.573c-13.916 0-25.197 11.281-25.197 25.197 0 13.916 11.281 25.197 25.197 25.197-13.915-.001-25.196 11.281-25.196 25.196z" fill="#bed9fd"/><path d="m423.794 260.595c0-13.916-11.281-25.197-25.197-25.197h-39.573-144.768-76.921c-27.832 0-50.394 22.562-50.394 50.394 0 27.832 22.562 50.394 50.394 50.394h76.921 144.769 39.573c13.916 0 25.197-11.281 25.197-25.197 0-13.916-11.281-25.197-25.197-25.197 13.915 0 25.196-11.281 25.196-25.197z" fill="#a2f5c3"/><path d="m423.794 59.02c0-13.916-11.281-25.197-25.197-25.197h-39.573-144.768-76.921c-27.832 0-50.394 22.563-50.394 50.394 0 27.831 22.562 50.394 50.394 50.394h76.921 144.769 39.573c13.916 0 25.197-11.281 25.197-25.197 0-13.916-11.281-25.197-25.197-25.197 13.915 0 25.196-11.281 25.196-25.197z" fill="#eaacde"/><path d="m373.401 134.611h-30c27.832 0 50.394 22.562 50.394 50.394 0 27.831-22.562 50.394-50.394 50.394h30c27.832 0 50.394-22.563 50.394-50.394-.001-27.832-22.563-50.394-50.394-50.394z" fill="#9ec8fc"/><path d="m398.597 285.792c13.916 0 25.197-11.281 25.197-25.197s-11.281-25.197-25.197-25.197h-30c13.916 0 25.197 11.281 25.197 25.197 0 13.915-11.281 25.197-25.197 25.197 13.916 0 25.197 11.281 25.197 25.197s-11.281 25.197-25.197 25.197h30c13.916 0 25.197-11.281 25.197-25.197s-11.281-25.197-25.197-25.197z" fill="#88f2a9"/><path d="m398.597 84.217c13.916 0 25.197-11.281 25.197-25.197s-11.281-25.197-25.197-25.197h-30c13.916 0 25.197 11.281 25.197 25.197 0 13.915-11.281 25.197-25.197 25.197 13.916 0 25.197 11.281 25.197 25.197s-11.281 25.197-25.197 25.197h30c13.916 0 25.197-11.281 25.197-25.197s-11.281-25.197-25.197-25.197z" fill="#e592d0"/><g fill="#c27e4e"><path d="m427.131 382.216h51.675v48.67h-51.675z"/><path d="m295.397 382.216h51.675v48.67h-51.675z"/><path d="m163.663 382.216h51.675v48.67h-51.675z"/><path d="m31.929 382.216h51.675v48.67h-51.675z"/></g><path d="m213.367 278.292h-58.336c-4.142 0-7.5 3.358-7.5 7.5s3.358 7.5 7.5 7.5h58.336c4.142 0 7.5-3.358 7.5-7.5s-3.358-7.5-7.5-7.5z"/><path d="m492.415 389.717c10.102 0 18.319-8.218 18.319-18.32v-24.387c0-10.102-8.218-18.32-18.319-18.32h-66.349c3.302-5.106 5.228-11.181 5.228-17.701 0-10.128-4.628-19.195-11.881-25.197 7.253-6.002 11.881-15.069 11.881-25.197 0-14.062-8.924-26.078-21.405-30.685 13.05-10.625 21.405-26.805 21.405-44.906s-8.355-34.281-21.405-44.905c12.481-4.607 21.405-16.623 21.405-30.685 0-10.128-4.628-19.195-11.881-25.197 7.253-6.002 11.881-15.069 11.881-25.197 0-18.029-14.668-32.697-32.697-32.697h-190.043c-4.142 0-7.5 3.358-7.5 7.5s3.358 7.5 7.5 7.5h190.044c9.758 0 17.697 7.939 17.697 17.697s-7.939 17.697-17.697 17.697h-243.567c-4.142 0-7.5 3.358-7.5 7.5s3.358 7.5 7.5 7.5h243.566c9.758 0 17.697 7.939 17.697 17.697s-7.939 17.697-17.697 17.697h-25.196-236.066c-23.651 0-42.894-19.242-42.894-42.894s19.242-42.894 42.894-42.894h41.219c4.142 0 7.5-3.358 7.5-7.5s-3.358-7.5-7.5-7.5h-41.219c-31.922 0-57.894 25.971-57.894 57.894 0 18.101 8.355 34.281 21.405 44.905-12.481 4.607-21.405 16.623-21.405 30.685 0 10.128 4.628 19.195 11.881 25.197-7.253 6.002-11.881 15.069-11.881 25.197 0 14.062 8.923 26.078 21.405 30.686-13.05 10.624-21.405 26.805-21.405 44.906 0 16.993 7.36 32.298 19.059 42.898h-80.18c-10.102-.001-18.32 8.218-18.32 18.319v24.387c0 10.102 8.218 18.32 18.32 18.32h6.109v33.669h-6.109c-10.101 0-18.32 8.218-18.32 18.32v24.386c0 10.102 8.218 18.32 18.32 18.32h474.096c10.102 0 18.319-8.218 18.319-18.32v-24.386c0-10.102-8.218-18.32-18.319-18.32h-6.109v-33.669zm-380.277-161.819c-9.758 0-17.697-7.939-17.697-17.697s7.939-17.697 17.697-17.697h243.566c4.143 0 7.5-3.358 7.5-7.5s-3.357-7.5-7.5-7.5h-243.566c-9.758 0-17.697-7.939-17.697-17.697s7.939-17.697 17.697-17.697h261.263c23.651 0 42.894 19.242 42.894 42.894s-19.242 42.894-42.894 42.894h-236.066zm25.197 100.788c-23.651 0-42.894-19.242-42.894-42.893 0-23.652 19.242-42.894 42.894-42.894h261.263c9.759 0 17.697 7.939 17.697 17.697s-7.939 17.697-17.697 17.697h-155.23c-4.142 0-7.5 3.358-7.5 7.5s3.358 7.5 7.5 7.5h155.23c9.759 0 17.697 7.939 17.697 17.697s-7.939 17.697-17.697 17.697h-261.263zm-122.335 42.711v-24.387c0-1.831 1.489-3.32 3.32-3.32h474.096c1.83 0 3.319 1.489 3.319 3.32v24.387c0 1.831-1.489 3.32-3.319 3.32h-474.096c-1.831 0-3.32-1.49-3.32-3.32zm339.572 51.989v-33.669h65.06v33.669zm-198.409-33.669v33.669h-65.059v-33.669zm15 0h36.675v33.669h-36.675zm51.675 0h65.059v33.669h-65.059zm80.059 0h36.675v33.669h-36.675zm-263.468 0h36.675v33.669h-36.675zm456.306 51.989v24.386c0 1.831-1.489 3.32-3.319 3.32h-474.096c-1.83 0-3.32-1.489-3.32-3.32v-24.386c0-1.831 1.489-3.32 3.32-3.32h474.096c1.83 0 3.319 1.489 3.319 3.32zm-24.429-18.32h-36.675v-33.669h36.675z"/></svg>