<svg id="Capa_1" enable-background="new 0 0 512 512" height="512" viewBox="0 0 512 512" width="512" xmlns="http://www.w3.org/2000/svg"><g><path d="m392.25 0h-339c-11.304 0-20.5 9.196-20.5 20.5v471c0 11.304 9.196 20.5 20.5 20.5h339c11.304 0 20.5-9.196 20.5-20.5v-471c0-11.304-9.196-20.5-20.5-20.5z" fill="#f3d69e"/><path d="m-10.75 88.5h467v335h-467z" fill="#66b394" transform="matrix(0 1 -1 0 478.75 33.25)"/><path d="m70.25 37.5h305v437h-305z" fill="#78c2a4"/><g><g fill="#f9f8f9"><path d="m240.328 211.421c0 1.118-.104 2.211-.304 3.27-1.533 8.146-7.767 11.795-16.358 11.795-9.709 0-14.945-5.202-14.945-14.911 0-8.591 2.611-15.897 10.757-17.43 1.06-.199 2.153-.304 3.271-.304 9.709 0 17.579 7.871 17.579 17.58z"/><path d="m257.908 180.979c0 .76-.048 1.508-.142 2.242-1.101 8.65-7.893 12.467-16.843 12.467-9.709 0-14.78-5.001-14.78-14.71 0-8.495 2.631-15.583 10.642-17.222 1.144-.234 2.329-.357 3.543-.357 9.709 0 17.58 7.871 17.58 17.58z"/><path d="m222.749 180.979c0 1.118-.104 2.212-.304 3.273-1.533 8.145-8.685 12.097-17.275 12.097-9.709 0-14.547-5.505-14.547-15.214 0-8.591 3.129-15.899 11.275-17.432 1.06-.2 2.154-.304 3.272-.304 9.708 0 17.579 7.871 17.579 17.58z"/><path d="m275.487 150.522c0 1.117-.104 2.21-.303 3.269-1.532 8.147-8.653 11.512-17.244 11.512-9.709 0-15.364-5.687-15.364-15.396 0-8.592 3.917-15.129 12.064-16.661 1.059-.199 2.152-.303 3.269-.303 9.707-.001 17.578 7.87 17.578 17.579z"/><path d="m240.328 150.522c0 1.117-.104 2.21-.303 3.269-1.532 8.146-8.262 12.585-16.854 12.585-9.709 0-15.358-6.146-15.358-15.855 0-8.591 3.519-15.743 11.665-17.276 1.06-.199 2.153-.304 3.271-.304 9.709.001 17.579 7.872 17.579 17.581z"/><path d="m205.17 150.522c0 1.117-.104 2.21-.304 3.27-1.532 8.146-8.686 13.08-17.277 13.08-9.709 0-14.702-6.144-14.702-15.853 0-8.591 3.287-16.239 11.432-17.772 1.06-.2 2.154-.304 3.272-.304 9.708-.001 17.579 7.87 17.579 17.579z"/></g><path d="m240.019 214.69c-1.52 8.15-8.68 14.31-17.27 14.31-9.71 0-17.58-7.87-17.58-17.58 0-8.59 6.16-15.75 14.31-17.27-.21 1.06-.31 2.15-.31 3.27 0 9.71 7.87 17.58 17.58 17.58 1.12 0 2.21-.1 3.27-.31z" fill="#efedef"/><path d="m257.759 183.22c-1.09 8.65-8.48 15.34-17.43 15.34-9.71 0-17.58-7.87-17.58-17.58 0-8.54 6.08-15.65 14.15-17.24-.1.73-.15 1.48-.15 2.24 0 9.71 7.87 17.58 17.58 17.58 1.17 0 2.32-.11 3.43-.34z" fill="#efedef"/><path d="m222.439 184.25c-1.52 8.15-8.68 14.31-17.27 14.31-9.71 0-17.58-7.87-17.58-17.58 0-8.59 6.16-15.75 14.31-17.27-.21 1.06-.31 2.15-.31 3.27 0 9.71 7.87 17.58 17.58 17.58 1.12 0 2.21-.1 3.27-.31z" fill="#efedef"/><path d="m275.179 153.79c-1.52 8.15-8.68 14.31-17.27 14.31-9.71 0-17.58-7.87-17.58-17.58 0-8.59 6.16-15.75 14.31-17.27-.21 1.06-.31 2.15-.31 3.27 0 9.71 7.87 17.58 17.58 17.58 1.12 0 2.21-.1 3.27-.31z" fill="#efedef"/><path d="m240.019 153.79c-1.52 8.15-8.68 14.31-17.27 14.31-9.71 0-17.58-7.87-17.58-17.58 0-8.59 6.16-15.75 14.31-17.27-.21 1.06-.31 2.15-.31 3.27 0 9.71 7.87 17.58 17.58 17.58 1.12 0 2.21-.1 3.27-.31z" fill="#efedef"/><path d="m204.859 153.79c-1.52 8.15-8.68 14.31-17.27 14.31-9.71 0-17.58-7.87-17.58-17.58 0-8.59 6.16-15.75 14.31-17.27-.21 1.06-.31 2.15-.31 3.27 0 9.71 7.87 17.58 17.58 17.58 1.12 0 2.21-.1 3.27-.31z" fill="#efedef"/><path d="m187.557 119.976c0 .761-.048 1.51-.142 2.245-1.102 8.649-9.241 12.559-18.189 12.559-9.709 0-13.761-5.095-13.761-14.804 0-8.495 2.96-15.583 10.97-17.222 1.144-.234 2.329-.357 3.543-.357 9.708 0 17.579 7.87 17.579 17.579z" fill="#f9f8f9"/><path d="m222.715 119.986c0 .761-.048 1.51-.142 2.245-1.102 8.649-9.241 12.559-18.189 12.559-9.709 0-13.761-5.095-13.761-14.804 0-8.495 2.96-15.583 10.97-17.222 1.144-.234 2.329-.357 3.543-.357 9.709 0 17.579 7.87 17.579 17.579z" fill="#f9f8f9"/><path d="m257.874 119.982c0 .761-.048 1.51-.142 2.245-1.102 8.649-9.241 12.559-18.189 12.559-9.709 0-13.761-5.095-13.761-14.804 0-8.495 2.96-15.583 10.97-17.222 1.144-.234 2.329-.357 3.543-.357 9.708 0 17.579 7.871 17.579 17.579z" fill="#f9f8f9"/><path d="m293.101 119.985c0 .761-.048 1.51-.142 2.245-1.102 8.649-9.241 12.559-18.189 12.559-9.709 0-13.761-5.095-13.761-14.804 0-8.495 2.96-15.583 10.97-17.222 1.144-.234 2.329-.357 3.543-.357 9.708 0 17.579 7.871 17.579 17.579z" fill="#f9f8f9"/><path d="m257.719 122.22c-1.09 8.65-8.48 15.34-17.42 15.34-9.71 0-17.58-7.88-17.58-17.58 0-8.53 6.08-15.64 14.14-17.24-.09.73-.14 1.48-.14 2.24 0 9.7 7.87 17.58 17.58 17.58 1.17 0 2.31-.11 3.42-.34z" fill="#efedef"/><path d="m292.789 123.25c-1.53 8.14-8.68 14.31-17.27 14.31-9.71 0-17.58-7.88-17.58-17.58 0-8.59 6.16-15.74 14.31-17.27-.21 1.06-.31 2.15-.31 3.27 0 9.7 7.87 17.58 17.58 17.58 1.12 0 2.21-.1 3.27-.31z" fill="#efedef"/><path d="m222.409 123.25c-1.53 8.14-8.68 14.31-17.27 14.31-9.71 0-17.58-7.88-17.58-17.58 0-8.59 6.16-15.74 14.31-17.27-.21 1.06-.31 2.15-.31 3.27 0 9.7 7.87 17.58 17.58 17.58 1.12 0 2.21-.1 3.27-.31z" fill="#efedef"/><path d="m187.409 122.22c-1.09 8.65-8.48 15.34-17.43 15.34-9.71 0-17.58-7.88-17.58-17.58 0-8.53 6.08-15.64 14.14-17.24-.09.73-.14 1.48-.14 2.24 0 9.7 7.87 17.58 17.58 17.58 1.17 0 2.32-.12 3.43-.34z" fill="#efedef"/></g><g><path d="m240.33 391.45c0 1.118-.104 2.211-.304 3.271-1.533 8.145-8.263 12.591-16.853 12.591-9.709 0-15.193-7.012-15.193-16.721 0-8.591 3.354-14.884 11.5-16.417 1.06-.199 2.153-.304 3.271-.304 9.708 0 17.579 7.871 17.579 17.58z" fill="#6a61b2"/><path d="m240.02 394.72c-1.53 8.15-8.68 14.31-17.27 14.31-9.71 0-17.58-7.87-17.58-17.58 0-8.59 6.16-15.75 14.31-17.27-.21 1.06-.31 2.15-.31 3.27 0 9.71 7.87 17.58 17.58 17.58 1.12 0 2.21-.1 3.27-.31z" fill="#5f55ad"/></g><path d="m479.25 359.5v141c0 2.21-3.978-.656-6.188-.656l-17.438-1.852c-2.21 0 5.108-86.753 5.108-88.963l-9.482-49.529 15.427-8.28z" fill="#655e67"/><path d="m479.25 134.5v19l-13.069 5.445-14.931-5.445v-19c0-7.73 6.27-14 14-14s14 6.27 14 14z" fill="#655e67"/><path d="m479.25 153.5v206l-14-10.222-14 10.222 9.041-102.5-9.041-103.5z" fill="#f3d69e"/><path d="m479.25 490.5v10c0 2.21-1.79 4-4 4h-20c-2.21 0-4-1.79-4-4v-141l8.161-8.28 5.839 8.28v127c0 2.21 1.79 4 4 4z" fill="#544f56"/><path d="m465.25 120.5v33l-7 6.931-7-6.931v-19c0-7.73 6.27-14 14-14z" fill="#544f56"/><path d="m465.25 339.5v-186h-14v191 15h14 14v-15h-9c-2.761 0-5-2.239-5-5z" fill="#efcb83"/><circle cx="64.79" cy="32.258" fill="#655e67" r="21"/><circle cx="64.79" cy="32.258" fill="#544f56" r="9"/><circle cx="380.71" cy="32.258" fill="#655e67" r="21"/><circle cx="380.71" cy="32.258" fill="#544f56" r="9"/><g><circle cx="64.79" cy="256" fill="#655e67" r="21"/><circle cx="64.79" cy="256" fill="#544f56" r="9"/><circle cx="380.71" cy="256" fill="#655e67" r="21"/><circle cx="380.71" cy="256" fill="#544f56" r="9"/></g><circle cx="64.79" cy="479.742" fill="#655e67" r="21"/><circle cx="64.79" cy="479.742" fill="#544f56" r="9"/><circle cx="380.71" cy="479.742" fill="#655e67" r="21"/><circle cx="380.71" cy="479.742" fill="#544f56" r="9"/></g></svg>