<?xml version="1.0" encoding="UTF-8"?>
<svg xmlns="http://www.w3.org/2000/svg" xmlns:xlink="http://www.w3.org/1999/xlink" version="1.1" id="Capa_1" x="0px" y="0px" viewBox="0 0 512 512" style="enable-background:new 0 0 512 512;" xml:space="preserve" width="512" height="512">
<g>
	<path style="fill-rule:evenodd;clip-rule:evenodd;fill:#F07281;" d="M318.339,7.5H147.222c-14.153,0-25.749,11.537-25.749,25.654&#10;&#9;&#9;v17.773h222.585V33.154C344.059,19.037,332.492,7.5,318.339,7.5L318.339,7.5z"/>
	<path style="fill-rule:evenodd;clip-rule:evenodd;fill:#EB5569;" d="M274.288,7.5c14.153,0,25.72,11.537,25.72,25.654v17.773&#10;&#9;&#9;h23.304h20.747V33.154c0-14.117-11.567-25.654-25.72-25.654H274.288z"/>
	<path style="fill-rule:evenodd;clip-rule:evenodd;fill:#017297;" d="M341.132,454.497H125.453v30.728&#10;&#9;&#9;c0,10.602,8.697,19.276,19.297,19.276h177.057c10.629,0,19.326-8.674,19.326-19.276V454.497z"/>
	<path style="fill-rule:evenodd;clip-rule:evenodd;fill:#EAF6FF;" d="M356.337,72.47H93.168l32.456,49.323l7.986,90.312&#10;&#9;&#9;c50.076,65.31,85.146,41.414,113.055,58.309c30.893-12.841,73.608-73.899,91.683-58.366l10.373-80.476l4.149-32.258L356.337,72.47z&#10;&#9;&#9;"/>
	<path style="fill-rule:evenodd;clip-rule:evenodd;fill:#FECE85;" d="M250.217,203.346c-27.908-16.895-89.296-17.433-116.607,8.759&#10;&#9;&#9;C191.103,274.836,237.172,236.71,250.217,203.346L250.217,203.346z"/>
	<path style="fill-rule:evenodd;clip-rule:evenodd;fill:#FEDBA6;" d="M338.347,212.049c-18.075-15.534-57.266-21.543-88.13-8.702&#10;&#9;&#9;c-5.968,2.466-11.624,5.669-16.739,9.609c-28.619,17.348-71.249,16.498-99.868-0.85l11.425,129.43l78.638,20.608l97.878-20.608&#10;&#9;&#9;h0.085l4.547-35.263l5.172-40.167L338.347,212.049z"/>
	<path style="fill-rule:evenodd;clip-rule:evenodd;fill:#017297;" d="M344.059,40.921H121.474H93.168&#10;&#9;&#9;c-6.48,0-11.794,5.301-11.794,11.792v7.965c0,6.491,5.315,11.792,11.794,11.792h263.169h4.718c6.508,0,11.823-5.301,11.823-11.792&#10;&#9;&#9;v-7.965c0-6.491-5.315-11.792-11.823-11.792H344.059z"/>
	<path style="fill-rule:evenodd;clip-rule:evenodd;fill:#F07281;" d="M430.627,146.171c0-25.767-21.144-46.857-47.007-46.857&#10;&#9;&#9;h-50.815l-4.149,32.258h57.408c6.849,0,12.562,5.698,12.562,12.529v46.403c0,27.043-1.677,36.482-23.93,51.591l-43.341,24.01&#10;&#9;&#9;l-19.723,21.203l14.551,18.964l48.854-28.176c37.372-21.6,55.589-46.375,55.589-85.493V146.171z"/>
	<path style="fill-rule:evenodd;clip-rule:evenodd;fill:#F07281;" d="M362.532,376.317c0-19.134-15.688-34.781-34.843-34.781h-6.139&#10;&#9;&#9;H145.034h-6.139c-19.155,0-34.843,15.647-34.843,34.781v80.504c0,5.017,4.121,9.128,9.151,9.128h12.249h215.679h12.249&#10;&#9;&#9;c5.03,0,9.151-4.11,9.151-9.128V376.317z"/>
	<path style="fill-rule:evenodd;clip-rule:evenodd;fill:#D8ECFE;" d="M323.313,72.47l-16.228,125.83&#10;&#9;&#9;c12.647,2.494,23.759,7.313,31.262,13.748l10.373-80.476l4.149-32.258l3.467-26.844H323.313z"/>
	<path style="fill-rule:evenodd;clip-rule:evenodd;fill:#FECE85;" d="M303.618,225.088l-15.006,116.448h32.939h0.085l4.547-35.263&#10;&#9;&#9;l5.172-40.167l6.991-54.057c-7.503-6.435-18.615-11.254-31.262-13.748L303.618,225.088z"/>
	<path style="fill-rule:evenodd;clip-rule:evenodd;fill:#025F80;" d="M323.313,40.921c6.48,0,11.794,5.301,11.794,11.792v6.095&#10;&#9;&#9;v1.871c0,6.491-5.315,11.792-11.794,11.792h33.024h4.718c6.508,0,11.823-5.301,11.823-11.792v-7.965&#10;&#9;&#9;c0-6.491-5.315-11.792-11.823-11.792h-16.995H323.313z"/>
	<path style="fill:none;stroke:#000000;stroke-width:15;stroke-linecap:round;stroke-linejoin:round;stroke-miterlimit:10;" d="&#10;&#9;&#9;M258.714,386.011h18.956 M258.714,421.473h18.956"/>
	<path style="fill-rule:evenodd;clip-rule:evenodd;fill:#EAF6FF;" d="M218.017,403.756c0-13.068-10.629-23.669-23.731-23.669&#10;&#9;&#9;s-23.731,10.602-23.731,23.669c0,13.068,10.629,23.669,23.731,23.669S218.017,416.824,218.017,403.756L218.017,403.756z"/>
	<path style="fill:none;stroke:#000000;stroke-width:15;stroke-linecap:round;stroke-linejoin:round;stroke-miterlimit:10;" d="&#10;&#9;&#9;M194.286,427.426c13.073,0,23.731-10.63,23.731-23.669c0-13.039-10.658-23.669-23.731-23.669s-23.731,10.63-23.731,23.669&#10;&#9;&#9;C170.555,416.796,181.213,427.426,194.286,427.426L194.286,427.426z"/>
	<path style="fill-rule:evenodd;clip-rule:evenodd;fill:#EB5569;" d="M415.763,145.293v46.403c0,39.118-24.811,65.254-63.263,84.898&#10;&#9;&#9;l-24.072,12.302l-2.245,17.376l48.854-28.176c37.372-21.6,55.589-46.375,55.589-85.493v-46.432&#10;&#9;&#9;c0-25.767-21.144-46.857-47.007-46.857h-20.548C388.906,99.314,415.763,119.526,415.763,145.293L415.763,145.293z"/>
	<path style="fill-rule:evenodd;clip-rule:evenodd;fill:#025F80;" d="M307.568,465.949v19.276c0,10.602-8.697,19.276-19.326,19.276&#10;&#9;&#9;h33.564c10.629,0,19.326-8.674,19.326-19.276v-19.276h-21.343H307.568z"/>
	<path style="fill-rule:evenodd;clip-rule:evenodd;fill:#EB5569;" d="M328.94,376.317v78.18v2.324c0,5.017-4.121,9.128-9.151,9.128&#10;&#9;&#9;h21.343h12.249c5.03,0,9.151-4.11,9.151-9.128v-80.504c0-19.134-15.688-34.781-34.843-34.781h-6.139h-27.17&#10;&#9;&#9;c4.803,0.057,9.379,1.077,13.528,2.891C320.272,349.785,328.94,362.087,328.94,376.317L328.94,376.317z"/>
	<path style="fill:none;stroke:#000000;stroke-width:15;stroke-linecap:round;stroke-linejoin:round;stroke-miterlimit:10;" d="&#10;&#9;&#9;M125.453,465.949h215.679v19.276c0,10.602-8.697,19.276-19.326,19.276H144.75c-10.601,0-19.297-8.674-19.297-19.276V465.949z"/>
	<path style="fill:none;stroke:#000000;stroke-width:15;stroke-linecap:round;stroke-linejoin:round;stroke-miterlimit:10;" d="&#10;&#9;&#9;M104.053,434.682v22.139c0,5.017,4.121,9.128,9.151,9.128h240.177c5.03,0,9.151-4.11,9.151-9.128v-80.504&#10;&#9;&#9;c0-19.134-15.688-34.781-34.843-34.781H138.895c-19.155,0-34.843,15.647-34.843,34.781v21.26"/>
	<path style="fill:none;stroke:#000000;stroke-width:15;stroke-linecap:round;stroke-linejoin:round;stroke-miterlimit:10;" d="&#10;&#9;&#9;M338.347,212.049c-21.542-18.539-73.181-23.499-104.87,0.907c-28.619,17.348-71.249,16.498-99.868-0.85"/>
	<path style="fill:none;stroke:#000000;stroke-width:15;stroke-linecap:round;stroke-linejoin:round;stroke-miterlimit:10;" d="&#10;&#9;&#9;M250.217,203.346c-27.908-16.895-89.296-17.433-116.607,8.759"/>
	<path style="fill:none;stroke:#000000;stroke-width:15;stroke-linecap:round;stroke-linejoin:round;stroke-miterlimit:10;" d="&#10;&#9;&#9;M216.084,72.47H93.168c-6.48,0-11.794-5.301-11.794-11.792v-7.965c0-6.491,5.315-11.792,11.794-11.792h267.887&#10;&#9;&#9;c6.508,0,11.823,5.301,11.823,11.792v7.965c0,6.491-5.315,11.792-11.823,11.792h-107.74"/>
	<path style="fill:none;stroke:#000000;stroke-width:15;stroke-linecap:round;stroke-linejoin:round;stroke-miterlimit:10;" d="&#10;&#9;&#9;M344.059,40.921v-7.767c0-14.117-11.567-25.654-25.72-25.654H147.222c-14.153,0-25.749,11.537-25.749,25.654v7.767H344.059z"/>
	<path style="fill:none;stroke:#000000;stroke-width:15;stroke-linecap:round;stroke-linejoin:round;stroke-miterlimit:10;" d="&#10;&#9;&#9;M331.185,266.219l43.511-24.123c22.253-15.109,23.93-24.548,23.93-51.591v-46.403c0-6.831-5.712-12.529-12.562-12.529H348.72"/>
	<path style="fill:none;stroke:#000000;stroke-width:15;stroke-linecap:round;stroke-linejoin:round;stroke-miterlimit:10;" d="&#10;&#9;&#9;M352.87,99.314h30.75c25.862,0,47.007,21.09,47.007,46.857v46.432c0,39.118-18.217,63.893-55.589,85.493l-48.939,28.233"/>
	
		<polyline style="fill:none;stroke:#000000;stroke-width:15;stroke-linecap:round;stroke-linejoin:round;stroke-miterlimit:10;" points="&#10;&#9;&#9;356.337,72.442 321.636,341.536 321.551,341.536 145.034,341.536 125.623,121.793 93.168,72.47 &#9;"/>
</g>















</svg>
