<?xml version="1.0" encoding="iso-8859-1"?>
<!-- Generator: Adobe Illustrator 19.0.0, SVG Export Plug-In . SVG Version: 6.00 Build 0)  -->
<svg version="1.1" id="Capa_1" xmlns="http://www.w3.org/2000/svg" xmlns:xlink="http://www.w3.org/1999/xlink" x="0px" y="0px"
	 viewBox="0 0 512 512" style="enable-background:new 0 0 512 512;" xml:space="preserve">
<path style="fill:#5D6D7D;" d="M144.706,106.092h-42.658c-3.873,0-7.013,3.14-7.013,7.013v47.51h77.109l-20.967-50.212
	C150.087,107.792,147.535,106.092,144.706,106.092z"/>
<path style="fill:#35495D;" d="M144.706,106.092h-26.653v54.523h54.092l-20.967-50.212
	C150.087,107.792,147.535,106.092,144.706,106.092z"/>
<path style="fill:#F2F9FD;" d="M336.439,151.367H73.435c-4.919,0-8.906,3.987-8.906,8.906v110.629h335.44l-55.471-114.419
	C343.029,153.36,339.889,151.367,336.439,151.367z"/>
<path style="fill:#E2EFFA;" d="M344.498,156.482c-1.469-3.122-4.609-5.115-8.059-5.115h-46.702c3.451,0,6.591,1.993,8.059,5.115
	l55.471,114.419h46.702L344.498,156.482z"/>
<g>
	<path style="fill:#B5E7FE;" d="M127.229,213.519H101.87c-2.227,0-4.032-1.805-4.032-4.032v-23.264c0-2.227,1.805-4.032,4.032-4.032
		h25.359c2.227,0,4.032,1.805,4.032,4.032v23.264C131.261,211.714,129.456,213.519,127.229,213.519z"/>
	<path style="fill:#B5E7FE;" d="M189.026,213.519h-25.359c-2.227,0-4.032-1.805-4.032-4.032v-23.264
		c0-2.227,1.805-4.032,4.032-4.032h25.359c2.227,0,4.032,1.805,4.032,4.032v23.264C193.058,211.714,191.253,213.519,189.026,213.519
		z"/>
	<path style="fill:#B5E7FE;" d="M250.823,213.519h-25.359c-2.227,0-4.032-1.805-4.032-4.032v-23.264
		c0-2.227,1.805-4.032,4.032-4.032h25.359c2.227,0,4.032,1.805,4.032,4.032v23.264C254.854,211.714,253.049,213.519,250.823,213.519
		z"/>
	<path style="fill:#B5E7FE;" d="M324.617,213.519H287.26c-2.227,0-4.032-1.805-4.032-4.032v-23.264c0-2.227,1.805-4.032,4.032-4.032
		h27.584c1.087,0,2.059,0.674,2.44,1.692L327.057,210C327.694,211.704,326.435,213.519,324.617,213.519z"/>
</g>
<path style="fill:#1785B8;" d="M323.457,246.283l-14.464,12.783c-2.427,2.145-5.555,3.329-8.794,3.329H16.936
	c-1.906,0-3.279,1.827-2.75,3.658l26.674,92.22c20.597,5.862,30.889,15.874,66.041,15.874c49.697,0,49.697-20.015,99.394-20.015
	c49.698,0,49.698,20.015,99.397,20.015c49.701,0,49.701-20.015,99.401-20.015c4.66,0,8.883,0.176,12.751,0.495l83.435-107.049
	c1.465-1.88,0.126-4.622-2.258-4.622h-166.77C329.012,242.954,325.885,244.138,323.457,246.283z"/>
<path style="fill:#0A7693;" d="M499.021,242.954H455.51l-62.787,80.367c-6.967,8.918-17.653,14.13-28.97,14.13H34.838l6.022,20.821
	c20.597,5.862,30.889,15.874,66.041,15.874c49.697,0,49.697-20.015,99.394-20.015c49.698,0,49.698,20.015,99.397,20.015
	c30.001,0,41.894-7.292,57.539-13.074l0,0c1.282-0.474,2.59-0.938,3.934-1.386c0.003-0.001,0.006-0.002,0.008-0.003
	c0.643-0.215,1.297-0.425,1.959-0.633c0.067-0.021,0.134-0.042,0.201-0.063c1.301-0.405,2.642-0.793,4.029-1.163
	c0.099-0.026,0.197-0.053,0.297-0.079c0.687-0.181,1.385-0.358,2.097-0.528c0.047-0.011,0.095-0.022,0.142-0.033
	c0.677-0.161,1.367-0.317,2.068-0.468c0.101-0.022,0.2-0.044,0.301-0.065c0.725-0.154,1.464-0.302,2.217-0.444
	c0.123-0.023,0.249-0.046,0.373-0.069c0.727-0.135,1.467-0.265,2.223-0.388c0.055-0.009,0.109-0.019,0.164-0.028
	c0.786-0.127,1.592-0.246,2.41-0.359c0.166-0.023,0.332-0.046,0.5-0.068c0.827-0.111,1.667-0.217,2.529-0.313
	c0.059-0.007,0.119-0.012,0.178-0.019c0.817-0.09,1.654-0.172,2.505-0.249c0.179-0.016,0.357-0.033,0.537-0.048
	c0.889-0.076,1.797-0.146,2.725-0.206c0.165-0.011,0.334-0.02,0.501-0.03c0.857-0.053,1.73-0.099,2.621-0.139
	c0.148-0.007,0.292-0.014,0.44-0.02c0.976-0.04,1.976-0.07,2.995-0.093c0.228-0.005,0.458-0.009,0.688-0.013
	c1.052-0.019,2.12-0.032,3.22-0.032c4.66,0,8.883,0.176,12.751,0.495l83.435-107.049
	C502.744,245.697,501.405,242.954,499.021,242.954z"/>
<path d="M504.494,398.401c-21.94,0-32.206-4.134-44.093-8.921c-10.083-4.061-20.51-8.26-36.973-10.128
	c-4.108-0.457-7.836,2.493-8.304,6.611c-0.467,4.119,2.493,7.837,6.612,8.304c14.438,1.638,23.482,5.28,33.058,9.137
	c12.217,4.921,24.85,10.008,49.7,10.008c4.145,0,7.506-3.36,7.506-7.506C512,401.761,508.64,398.401,504.494,398.401z"/>
<path d="M386.757,379.352c-16.462,1.868-26.889,6.067-36.974,10.128c-11.886,4.787-22.151,8.921-44.092,8.921
	c-21.94,0-32.204-4.134-44.09-8.921c-12.911-5.2-27.546-11.094-55.306-11.094s-42.394,5.894-55.306,11.094
	c-11.885,4.787-22.15,8.921-44.088,8.921c-21.939,0-32.204-4.134-44.09-8.921c-12.911-5.2-27.546-11.094-55.305-11.094
	c-4.145,0-7.506,3.36-7.506,7.506c0,4.146,3.36,7.506,7.506,7.506c24.85,0,36.919,4.861,49.698,10.008
	c12.216,4.92,24.848,10.008,49.697,10.008c24.847,0,37.479-5.087,49.697-10.008c12.777-5.146,24.846-10.008,49.697-10.008
	s36.92,4.861,49.698,10.008c12.217,4.92,24.849,10.008,49.698,10.008s37.482-5.087,49.701-10.008
	c9.576-3.856,18.621-7.499,33.057-9.137c4.119-0.467,7.079-4.185,6.612-8.304C394.594,381.846,390.878,378.891,386.757,379.352z"/>
<path d="M504.494,381.652c4.145,0,7.506-3.36,7.506-7.506c0-4.146-3.36-7.506-7.506-7.506c-23.396,0-34.811-4.597-46.897-9.464
	c-7.595-3.059-15.345-6.178-25.816-8.223l75.417-96.762c2.455-3.15,2.892-7.336,1.139-10.924c-1.753-3.589-5.322-5.818-9.316-5.818
	h-107.9l-39.832-82.162c-2.694-5.726-8.523-9.426-14.851-9.426H173.282l-15.179-36.352c-2.264-5.421-7.523-8.924-13.397-8.924
	h-42.658c-8.006,0-14.518,6.513-14.518,14.519v30.757H73.435c-9.049,0-16.412,7.362-16.412,16.412v94.616H16.936
	c-3.241,0-6.339,1.547-8.287,4.138c-1.948,2.591-2.574,5.997-1.673,9.111l23.17,80.103c-6.394-1.006-13.778-1.616-22.64-1.616
	c-4.145,0-7.506,3.36-7.506,7.506c0,4.146,3.36,7.506,7.506,7.506c23.394,0,34.809,4.597,46.894,9.464
	c12.88,5.188,26.198,10.551,52.502,10.551c26.303,0,39.621-5.363,52.501-10.551c12.085-4.867,23.499-9.464,46.893-9.464
	c23.395,0,34.809,4.597,46.894,9.464c12.88,5.188,26.199,10.551,52.502,10.551c26.305,0,39.624-5.363,52.504-10.551
	c12.086-4.867,23.501-9.464,46.897-9.464s34.811,4.597,46.897,9.464C464.871,376.289,478.189,381.652,504.494,381.652z
	 M102.541,113.597h41.837l12.637,30.264h-54.474V113.597z M405.093,346.626c-26.305,0-39.624,5.363-52.505,10.551
	c-12.086,4.867-23.501,9.464-46.897,9.464c-23.395,0-34.81-4.597-46.894-9.464c-12.88-5.188-26.198-10.551-52.502-10.551
	c-26.303,0-39.622,5.363-52.501,10.551c-12.085,4.867-23.499,9.464-46.893,9.464s-34.809-4.597-46.894-9.464
	c-4.168-1.678-8.384-3.374-13.068-4.902l-23.826-82.374h62.443c4.145,0,7.506-3.36,7.506-7.506c0-4.146-3.36-7.506-7.506-7.506
	h-13.52v-94.616c0-0.772,0.628-1.4,1.4-1.4l0,0c0.009,0,0,0,0.009,0c0.013,0-0.022,0-0.009,0h263.003
	c0.54,0,1.038,0.316,1.306,0.883l36.696,75.693h-42.189c-5.074,0-9.962,1.85-13.764,5.21l-14.465,12.783
	c-1.056,0.933-2.413,1.447-3.823,1.447H120.48c-4.145,0-7.506,3.36-7.506,7.506s3.36,7.506,7.506,7.506H300.2
	c5.075,0,9.963-1.85,13.764-5.21l14.465-12.783c1.056-0.933,2.413-1.447,3.823-1.447h157.264l-75.14,96.406
	C411.468,346.709,408.382,346.626,405.093,346.626z"/>
<path d="M138.766,209.488v-23.264c0-6.362-5.175-11.538-11.537-11.538H101.87c-6.362,0-11.538,5.176-11.538,11.538v23.264
	c0,6.361,5.176,11.537,11.538,11.537h25.359C133.591,221.025,138.766,215.849,138.766,209.488z M123.755,206.013h-18.411v-16.316
	h18.411C123.755,189.697,123.755,206.013,123.755,206.013z"/>
<path d="M163.667,221.025h25.359c6.362,0,11.537-5.176,11.537-11.537v-23.264c0-6.362-5.175-11.538-11.537-11.538h-25.359
	c-6.362,0-11.538,5.176-11.538,11.538v23.264C152.13,215.849,157.305,221.025,163.667,221.025z M167.141,189.697h18.411v16.316
	h-18.411V189.697z"/>
<path d="M225.464,221.025h25.359c6.362,0,11.537-5.176,11.537-11.537v-23.264c0-6.362-5.175-11.538-11.537-11.538h-25.359
	c-6.362,0-11.538,5.176-11.538,11.538v23.264C213.926,215.849,219.102,221.025,225.464,221.025z M228.938,189.697h18.411v16.316
	h-18.411V189.697z"/>
<path d="M287.26,221.025h37.356c3.314,0,6.42-1.626,8.309-4.349c1.889-2.723,2.323-6.202,1.161-9.304l-9.772-26.115
	c-1.469-3.93-5.275-6.57-9.471-6.57H287.26c-6.362,0-11.538,5.176-11.538,11.538v23.264
	C275.723,215.849,280.899,221.025,287.26,221.025z M290.734,189.697h20.711l6.105,16.316h-26.816V189.697z"/>
<g>
</g>
<g>
</g>
<g>
</g>
<g>
</g>
<g>
</g>
<g>
</g>
<g>
</g>
<g>
</g>
<g>
</g>
<g>
</g>
<g>
</g>
<g>
</g>
<g>
</g>
<g>
</g>
<g>
</g>
</svg>
