<svg id="Layer_1" enable-background="new 0 0 512 512" viewBox="0 0 512 512" xmlns="http://www.w3.org/2000/svg"><g><g><g><g clip-rule="evenodd" fill-rule="evenodd"><path d="m71.062 294.813h307.524c2.396 0 4.351 1.954 4.351 4.351v54.194c0 2.396-1.954 4.351-4.351 4.351h-307.524c-2.396 0-4.351-1.954-4.351-4.351v-54.194c0-2.396 1.954-4.351 4.351-4.351z" fill="#636c77"/><path d="m32.938 15.996h383.772c9.343 0 16.964 7.62 16.964 16.964v274.299c0 9.343-7.621 16.964-16.964 16.964h-383.772c-9.343 0-16.964-7.62-16.964-16.964v-274.299c0-9.343 7.62-16.964 16.964-16.964z" fill="#a9b0bb"/><path d="m54.414 66.888v206.442c0 3.115 2.54 5.655 5.654 5.655h270.678c3.114 0 5.654-2.54 5.654-5.655v-206.442c0-3.114-2.54-5.654-5.654-5.654h-270.678c-3.115-.001-5.654 2.539-5.654 5.654z" fill="#a4d4ff"/><g fill="#e4e8eb"><path d="m372.393 124.737h18.491c2.396 0 4.351 1.954 4.351 4.351v18.491c0 2.396-1.954 4.351-4.351 4.351h-18.491c-2.396 0-4.351-1.954-4.351-4.351v-18.491c0-2.397 1.954-4.351 4.351-4.351z"/><path d="m381.638 61.233c7.495 0 13.572 6.076 13.572 13.571s-6.076 13.571-13.572 13.571c-7.495 0-13.571-6.076-13.571-13.571s6.076-13.571 13.571-13.571z"/><ellipse cx="381.638" cy="201.861" rx="13.571" ry="13.571" transform="matrix(.16 -.987 .987 .16 121.253 546.236)"/><path d="m372.393 251.793h18.491c2.396 0 4.351 1.954 4.351 4.351v18.491c0 2.396-1.954 4.351-4.351 4.351h-18.491c-2.396 0-4.351-1.954-4.351-4.351v-18.491c0-2.397 1.954-4.351 4.351-4.351z"/></g></g></g><g clip-rule="evenodd" fill-rule="evenodd"><path d="m476.37 419.59h-212.906c-10.798 0-19.605 8.807-19.605 19.605v37.197c0 10.798 8.807 19.605 19.605 19.605h212.906c10.798 0 19.605-8.807 19.605-19.605v-37.197c.001-10.798-8.806-19.605-19.605-19.605z" fill="#636c77"/><ellipse cx="440.966" cy="457.794" fill="#f76c82" rx="14.499" ry="14.499" transform="matrix(.973 -.23 .23 .973 -93.384 113.56)"/></g></g><path clip-rule="evenodd" d="m361.992 460.982c0 3.868-3.153 6.997-7.011 6.997h-70.583c-3.858 0-7.011-3.129-7.011-6.997 0-3.863 3.153-7.002 7.011-7.002h70.583c3.858 0 7.011 3.139 7.011 7.002zm79.006 4.31c-4.141 0-7.529-3.365-7.529-7.5 0-4.132 3.388-7.501 7.529-7.501s7.482 3.369 7.482 7.501c-.001 4.136-3.342 7.5-7.482 7.5zm0-29c-11.858 0-21.504 9.646-21.504 21.5 0 11.858 9.647 21.499 21.504 21.499 11.858 0 21.504-9.642 21.504-21.499 0-11.854-9.647-21.5-21.504-21.5zm47.996 40.101v-37.202c0-6.823-5.458-12.38-12.234-12.578v6.15c0 3.858-3.106 6.997-7.011 6.997-3.858 0-6.964-3.139-6.964-6.997v-6.174h-182.293v6.174c0 3.858-3.153 6.997-7.011 6.997-3.859 0-7.011-3.139-7.011-6.997v-6.174h-2.965c-6.964 0-12.611 5.651-12.611 12.601v37.202c0 6.945 5.647 12.611 12.611 12.611h212.878c6.964 0 12.611-5.665 12.611-12.61zm-415.262-125.68v-19.49h192.738v19.49zm-50.726-43.451v-274.299c0-5.491 4.47-9.962 9.929-9.962h383.782c5.506 0 9.976 4.47 9.976 9.962v274.299c0 5.486-4.47 9.957-9.976 9.957h-136.225v-8.87c0-3.868-3.153-6.997-7.011-6.997-3.859 0-7.011 3.129-7.011 6.997v8.87h-233.535c-5.459 0-9.929-4.471-9.929-9.957zm352.961 43.451h-95.475v-19.49h95.475zm100.792 61.887v-396.6c0-3.868-3.106-7.002-7.011-7.002-3.858 0-6.964 3.134-6.964 7.002v396.59h-182.292v-47.879h102.486c3.859 0 6.964-3.143 6.964-7.002v-26.488h26.774c13.223 0 23.998-10.752 23.998-23.96v-274.298c0-13.213-10.776-23.965-23.998-23.965h-383.781c-13.175 0-23.951 10.752-23.951 23.965v274.299c0 13.208 10.776 23.96 23.951 23.96h26.821v26.488c0 3.858 3.106 7.002 6.964 7.002h199.75v47.879h-2.965c-14.682 0-26.633 11.928-26.633 26.6v37.202c0 14.667 11.952 26.61 26.633 26.61h212.878c14.681 0 26.633-11.943 26.633-26.61v-37.202c0-14.54-11.763-26.389-26.257-26.591zm-101.686-153.81v13.19h13.175v-13.19zm-7.011 27.189h27.198c3.859 0 7.011-3.129 7.011-6.997v-27.193c0-3.868-3.153-6.997-7.011-6.997h-27.198c-3.858 0-7.011 3.129-7.011 6.997v27.193c0 3.868 3.152 6.997 7.011 6.997zm13.599-77.547c3.623 0 6.588-2.95 6.588-6.574 0-3.618-2.964-6.569-6.588-6.569-3.623 0-6.588 2.951-6.588 6.569 0 3.624 2.965 6.574 6.588 6.574zm0-27.142c-11.34 0-20.563 9.232-20.563 20.568 0 11.34 9.223 20.573 20.563 20.573s20.563-9.232 20.563-20.573c0-11.335-9.223-20.568-20.563-20.568zm0-113.059c-3.623 0-6.588 2.951-6.588 6.569 0 3.628 2.965 6.569 6.588 6.569s6.588-2.941 6.588-6.569c0-3.619-2.965-6.569-6.588-6.569zm0 27.137c11.34 0 20.563-9.218 20.563-20.568 0-11.34-9.223-20.568-20.563-20.568s-20.563 9.228-20.563 20.568c0 11.349 9.222 20.568 20.563 20.568zm-6.588 36.373v13.19h13.175v-13.19zm-7.011 27.189h27.198c3.859 0 7.011-3.139 7.011-7.002v-27.188c0-3.868-3.153-6.997-7.011-6.997h-27.198c-3.858 0-7.011 3.129-7.011 6.997v27.188c0 3.863 3.152 7.002 7.011 7.002zm-306.612-90.699v203.749h267.98v-203.749zm269.297 217.748c7.011 0 12.658-5.67 12.658-12.648v-206.441c0-6.978-5.647-12.658-12.658-12.658h-270.661c-6.964 0-12.658 5.68-12.658 12.658v206.44c0 6.978 5.694 12.648 12.658 12.648h270.661z" fill-rule="evenodd"/></g></svg>