<svg id="_x33_0" enable-background="new 0 0 62 62" height="512" viewBox="0 0 62 62" width="512" xmlns="http://www.w3.org/2000/svg"><g><g><g><path d="m59.14 24.86c-.72-.72-1.61-1.27-2.61-1.57l.26-.35c1.44-1.91 2.21-4.23 2.21-6.62 0-4.23-1.72-8.06-4.49-10.83s-6.6-4.49-10.83-4.49c-5.39 0-10.37 2.82-13.14 7.44l-1.54 2.56h-2.83c-3.51 0-6.77 1.27-9.29 3.4-2.52 2.14-4.3 5.14-4.88 8.6h-4c-1.94 0-3.68.78-4.95 2.05s-2.05 3.01-2.05 4.95c0 3.87 3.13 7 7 7h47l.12-2h.01.23c3.12 0 5.64-2.52 5.64-5.64 0-1.76-.71-3.34-1.86-4.5z" fill="#e6e9ed"/></g><g><circle cx="39" cy="43" fill="#fcd770" r="18"/></g><g><path d="m47 26.88v32.24c-2.41 1.2-5.12 1.88-8 1.88s-5.59-.68-8-1.88v-32.24c2.41-1.21 5.12-1.88 8-1.88s5.59.67 8 1.88z" fill="#ffeaa7"/></g><g><path d="m43 32v2c0 .55-.45 1-1 1h-6c-.55 0-1-.45-1-1v-2c0-.55.45-1 1-1h6c.55 0 1 .45 1 1z" fill="#69d6f4"/></g><g><circle cx="39" cy="43" fill="#69d6f4" r="4"/></g></g><g><path d="m39 38c-2.757 0-5 2.243-5 5s2.243 5 5 5 5-2.243 5-5-2.243-5-5-5zm0 8c-1.654 0-3-1.346-3-3s1.346-3 3-3 3 1.346 3 3-1.346 3-3 3z"/><path d="m34 52h2v2h-2z"/><path d="m38 52h2v2h-2z"/><path d="m42 52h2v2h-2z"/><path d="m42 30h-6c-1.103 0-2 .897-2 2v2c0 1.103.897 2 2 2h6c1.103 0 2-.897 2-2v-2c0-1.103-.897-2-2-2zm-6 4v-2h6l.001 2z"/><path d="m24 38h2v10h-2z"/><path d="m27 40h2v6h-2z"/><path d="m52 38h2v10h-2z"/><path d="m49 40h2v6h-2z"/><path d="m39 20c-1.534 0-3.036.622-4.121 1.707l-.586.586 1.414 1.414.586-.586c.713-.712 1.699-1.121 2.707-1.121s1.994.409 2.707 1.121l.586.586 1.414-1.414-.586-.586c-1.085-1.085-2.587-1.707-4.121-1.707z"/><path d="m39 16c-2.847 0-5.522 1.108-7.534 3.121l-.172.171 1.412 1.416.173-.172c1.635-1.636 3.809-2.536 6.121-2.536s4.486.9 6.122 2.537l.172.171 1.412-1.416-.171-.17c-2.013-2.014-4.688-3.122-7.535-3.122z"/><path d="m48.529 15.343c-2.694-2.156-6.079-3.343-9.529-3.343s-6.835 1.187-9.529 3.343l-1.096.876 1.25 1.562 1.096-.876c2.341-1.874 5.281-2.905 8.279-2.905s5.938 1.031 8.279 2.904l1.096.876 1.25-1.562z"/><path d="m62 29.364c0-2.822-1.597-5.275-3.933-6.511 1.249-1.936 1.933-4.223 1.933-6.529 0-9.001-7.323-16.324-16.324-16.324-5.7 0-11.063 3.037-13.997 7.925l-1.245 2.075h-2.269c-7.254 0-13.428 4.997-14.989 12h-3.176c-4.411 0-8 3.589-8 8s3.589 8 8 8h12.69c-.437 1.596-.69 3.267-.69 5 0 10.477 8.523 19 19 19s19-8.523 19-19c0-2.518-.503-4.919-1.397-7.12 3.068-.583 5.397-3.281 5.397-6.516zm-40 13.636c0-6.067 3.205-11.387 8-14.396v28.792c-4.795-3.009-8-8.329-8-14.396zm10 15.474v-30.948c2.138-.971 4.503-1.526 7-1.526s4.862.555 7 1.526v30.948c-2.138.971-4.503 1.526-7 1.526s-4.862-.555-7-1.526zm16-1.078v-28.792c4.795 3.009 8 8.329 8 14.396s-3.205 11.387-8 14.396zm7.71-23.431c-3.219-5.93-9.502-9.965-16.71-9.965-8.003 0-14.852 4.981-17.647 12h-13.353c-3.309 0-6-2.691-6-6s2.691-6 6-6h4.847l.14-.835c1.077-6.47 6.62-11.165 13.178-11.165h3.401l1.827-3.045c2.575-4.29 7.281-6.955 12.283-6.955 7.898 0 14.324 6.426 14.324 14.324 0 2.078-.668 4.135-1.876 5.828-.481-.1-.978-.152-1.488-.152-1.967 0-3.816.766-5.208 2.158l-.136.136 1.416 1.412.135-.135c1.012-1.013 2.36-1.571 3.793-1.571 2.958 0 5.364 2.406 5.364 5.364 0 2.438-1.898 4.42-4.29 4.601z"/><path d="m14 46h-4c-1.103 0-2 .897-2 2v6c0 1.103.897 2 2 2h4c1.103 0 2-.897 2-2v-6c0-1.103-.897-2-2-2zm-4 8v-6h4l.001 6z"/><path d="m0 48v6c0 1.103.897 2 2 2h4v-2h-4v-6h4v-2h-4c-1.103 0-2 .897-2 2z"/><path d="m20 59.423 1.374-1.331c.382-.369.604-.885.609-1.417l.007-.657c.005-.538-.201-1.044-.58-1.427-.378-.381-.883-.591-1.42-.591h-1.99v2h1.99l-.007.656-1.373 1.33c-.387.374-.61.898-.61 1.438v.576c0 1.103.897 2 2 2h2v-2h-2z"/></g></g></svg>