<svg id="Layer_3" enable-background="new 0 0 64 64" height="512" viewBox="0 0 64 64" width="512" xmlns="http://www.w3.org/2000/svg"><g><path d="m24 41.898h2v18.102h-2z" fill="#bdcad6"/><path d="m41 39 13.763 5.505c.747.299 1.237 1.023 1.237 1.828 0 .962-.696 1.783-1.645 1.942l-3.735.623c-.413.067-.83.102-1.248.102-1.544 0-3.052-.471-4.322-1.35l-5.803-4.017z" fill="#474c52"/><path d="m52.763 47.505-13.012-5.205-.504 1.332 5.803 4.017c1.27.879 2.777 1.35 4.322 1.35.418 0 .836-.035 1.248-.103l3.113-.519c-.215-.383-.543-.701-.97-.872z" fill="#51565b"/><path d="m23.878 33.876c-4.003-.583-8.046-.876-12.098-.876h-2.78c-1.921 0-3.763.763-5.122 2.121l-1.257 1.257c-.397.398-.621.937-.621 1.5 0 1.172.95 2.122 2.122 2.122h18.95z" fill="#474c52"/><path d="m23.652 35.593c-3.274-.388-6.57-.593-9.872-.593h-2.78c-1.921 0-3.763.763-5.122 2.121l-1.257 1.257c-.397.398-.621.937-.621 1.5 0 .038.009.073.011.111.038.002.073.011.111.011h18.95z" fill="#51565b"/><path d="m41 39v-2c0-.072-.001-.143-.004-.215l-1.956-4.221c-.14-.128-.287-.249-.44-.364-1.039-.779-2.302-1.2-3.6-1.2h-6c-1.298 0-2.561.421-3.6 1.2-1.511 1.133-2.4 2.911-2.4 4.8v2z" fill="#616466"/><path d="m41 39v-2c0-.072-.001-.143-.004-.215l-1.492-3.219c-.782-.361-1.632-.566-2.504-.566h-6c-1.298 0-2.561.421-3.6 1.2-1.511 1.133-2.4 2.911-2.4 4.8z" fill="#777"/><path d="m30 13h4v18h-4z" fill="#474c52"/><path d="m34.053 37.052 17.113-15.401c1.181-1.063 2.713-1.651 4.302-1.651.354 0 .708.029 1.057.087l3.696.616c1.027.171 1.779 1.059 1.779 2.1 0 .743-.387 1.432-1.022 1.819l-21.692 13.204z" fill="#474c52"/><path d="m37.68 37.588 1.607.237 21.692-13.203c.634-.386 1.021-1.075 1.021-1.818 0-.047-.009-.092-.013-.139l-3.462-.577c-.349-.059-.703-.088-1.057-.088-1.589 0-3.121.588-4.302 1.651z" fill="#51565b"/><path d="m35 13 3.41-5.456c1.039-1.662 1.59-3.584 1.59-5.544h-16c0 1.96.551 3.882 1.59 5.544l3.41 5.456z" fill="#474c52"/><path d="m41 39c0 3.866-3.134 7-7 7h-4c-3.866 0-7-3.134-7-7 0-1.105 4.029-2 9-2s9 .895 9 2z" fill="#84babf"/><circle cx="25" cy="60" fill="#9298a3" r="2"/><path d="m40 2h-12c0 1.96.551 3.881 1.59 5.544l3.41 5.456h2l3.41-5.456c1.039-1.663 1.59-3.584 1.59-5.544z" fill="#51565b"/><path d="m32 37c-2.296 0-4.384.193-5.974.507.26 3.628 3.279 6.493 6.974 6.493h4c.786 0 1.539-.135 2.244-.374 1.09-1.234 1.756-2.85 1.756-4.626 0-1.105-4.029-2-9-2z" fill="#9dcad1"/><path d="m4.122 41h18.141c.319 1.231.921 2.346 1.737 3.274v12.911c-1.161.414-2 1.514-2 2.816 0 1.654 1.346 3 3 3s3-1.346 3-3c0-1.302-.839-2.402-2-2.816v-11.267c1.178.684 2.542 1.082 4 1.082h4c2.061 0 3.936-.79 5.356-2.075l5.124 3.548c1.444.999 3.135 1.527 4.892 1.527.475 0 .95-.039 1.412-.117l3.735-.622c1.438-.24 2.481-1.471 2.481-2.928 0-1.221-.732-2.303-1.866-2.757l-13.134-5.253v-.978l19.498-11.868c.927-.565 1.502-1.589 1.502-2.673 0-1.536-1.1-2.834-2.615-3.086l-3.695-.616c-2.225-.37-4.523.304-6.192 1.807l-11.51 10.359c-1.166-.811-2.566-1.268-3.988-1.268v-16c.345 0 .665-.178.848-.47l3.41-5.456c1.139-1.824 1.742-3.924 1.742-6.074 0-.552-.447-1-1-1h-16c-.553 0-1 .448-1 1 0 2.15.603 4.25 1.742 6.074l3.41 5.456c.183.292.503.47.848.47v16c-1.506 0-2.997.498-4.199 1.4-.535.401-.995.882-1.389 1.409-3.844-.531-7.752-.809-11.632-.809h-2.78c-2.202 0-4.271.857-5.828 2.414l-1.256 1.256c-.582.581-.916 1.386-.916 2.208 0 1.722 1.4 3.122 3.122 3.122zm20.878 20c-.552 0-1-.448-1-1s.448-1 1-1 1 .448 1 1-.448 1-1 1zm9-16h-4c-3.242 0-5.885-2.586-5.99-5.804.625-.446 3.417-1.196 7.99-1.196s7.365.75 7.99 1.196c-.105 3.218-2.748 5.804-5.99 5.804zm21 1.333c0 .476-.34.877-.809.955l-3.737.622c-1.67.28-3.429-.108-4.835-1.082l-4.947-3.425c.587-.886.998-1.895 1.193-2.98l12.526 5.01c.37.148.609.502.609.9zm-3.165-23.939c1.221-1.098 2.901-1.59 4.526-1.32l3.695.616c.548.091.944.56.944 1.114 0 .391-.208.761-.542.965l-21.317 12.975c-.835-.227-1.767-.388-2.697-.498zm-25.398-15.38c-.762-1.221-1.234-2.592-1.384-4.014h13.895c-.15 1.422-.622 2.793-1.385 4.014l-3.118 4.986h-4.891zm4.563 6.986h2v16h-2zm-4.999 19c.858-.645 1.924-1 2.999-1h6c.857 0 1.702.234 2.447.652l-3.758 3.382c-.681-.026-1.271-.034-1.689-.034-1.581 0-5.565.102-8 1.018v-.018c0-1.565.748-3.061 2.001-4zm-22.672 4.085 1.257-1.257c1.179-1.179 2.747-1.828 4.414-1.828h2.78c3.54 0 7.104.242 10.618.696-.257.734-.398 1.512-.398 2.304v2h-17.878c-.619 0-1.122-.503-1.122-1.122 0-.295.12-.584.329-.793z"/></g></svg>