<svg id="Layer_1" enable-background="new 0 0 512 512" height="512" viewBox="0 0 512 512" width="512" xmlns="http://www.w3.org/2000/svg"><g id="_x34_6_Central_heating"><g><path d="m414.356 446.646h-356.886v-32.032h356.886c22.902 0 41.534-18.632 41.534-41.534 0-22.901-18.632-41.534-41.534-41.534h-316.687c-40.565 0-73.566-33.001-73.566-73.566s33.001-73.566 73.566-73.566h316.687c22.902 0 41.534-18.632 41.534-41.534 0-22.984-18.632-41.616-41.534-41.616h-356.886v-32.033h356.886c40.565 0 73.566 33.001 73.566 73.566 0 40.645-33.001 73.647-73.566 73.647h-316.687c-22.901 0-41.534 18.632-41.534 41.534s18.633 41.534 41.534 41.534h316.687c40.565 0 73.566 33.001 73.566 73.566s-33.001 73.568-73.566 73.568z" fill="#eef0ee"/><path d="m57.47 61.424v47.646c0 5.241-4.248 9.489-9.489 9.489h-14.388c-5.241 0-9.489-4.248-9.489-9.489v-47.646c0-5.241 4.248-9.489 9.489-9.489h14.387c5.241 0 9.49 4.248 9.49 9.489z" fill="#878787"/><path d="m57.47 406.807v47.646c0 5.241-4.248 9.489-9.489 9.489h-14.388c-5.241 0-9.489-4.248-9.489-9.489v-47.646c0-5.241 4.248-9.489 9.489-9.489h14.387c5.241-.001 9.49 4.248 9.49 9.489z" fill="#878787"/><path d="m143.901 57.394v401.09c0 12.383-10.038 22.422-22.422 22.422-12.383 0-22.422-10.038-22.422-22.422v-401.09c0-12.383 10.038-22.422 22.422-22.422 12.383-.001 22.422 10.039 22.422 22.422z" fill="#a1d51c"/><path d="m188.746 57.394v401.09c0 12.383-10.038 22.422-22.422 22.422-12.383 0-22.422-10.038-22.422-22.422v-401.09c0-12.383 10.038-22.422 22.422-22.422 12.383-.001 22.422 10.039 22.422 22.422z" fill="#f8664f"/><path d="m233.59 57.394v401.09c0 12.383-10.038 22.422-22.422 22.422-12.383 0-22.422-10.038-22.422-22.422v-401.09c0-12.383 10.038-22.422 22.422-22.422 12.384-.001 22.422 10.039 22.422 22.422z" fill="#f9e109"/><path d="m278.434 57.394v401.09c0 12.383-10.038 22.422-22.422 22.422-12.383 0-22.422-10.038-22.422-22.422v-401.09c0-12.383 10.038-22.422 22.422-22.422 12.383-.001 22.422 10.039 22.422 22.422z" fill="#a1d51c"/><path d="m323.279 57.394v401.09c0 12.383-10.038 22.422-22.422 22.422-12.383 0-22.422-10.038-22.422-22.422v-401.09c0-12.383 10.038-22.422 22.422-22.422 12.383-.001 22.422 10.039 22.422 22.422z" fill="#f8664f"/><path d="m368.123 57.394v401.09c0 12.383-10.038 22.422-22.422 22.422-12.383 0-22.422-10.038-22.422-22.422v-401.09c0-12.383 10.038-22.422 22.422-22.422 12.384-.001 22.422 10.039 22.422 22.422z" fill="#f9e109"/><path d="m412.968 57.394v401.09c0 12.383-10.038 22.422-22.422 22.422-12.383 0-22.422-10.038-22.422-22.422v-401.09c0-12.383 10.038-22.422 22.422-22.422 12.382-.001 22.422 10.039 22.422 22.422z" fill="#a1d51c"/><g><path d="m257.589 178.273c-1.799 0-3.257-1.458-3.257-3.257v-40.13c0-1.799 1.458-3.257 3.257-3.257s3.257 1.458 3.257 3.257v40.13c0 1.799-1.458 3.257-3.257 3.257z" fill="#fff"/></g><g><path d="m257.589 121.677c-1.799 0-3.257-1.458-3.257-3.257v-8.598c0-1.799 1.458-3.27 3.257-3.27s3.257 1.443 3.257 3.242v8.627c0 1.798-1.458 3.256-3.257 3.256z" fill="#fff"/></g><g><path d="m508.783 371.379c-1.741-.107-3.274 1.418-3.298 3.217-.048 3.827-.361 7.761-.931 11.693-.257 1.779.977 3.43 2.757 3.689 1.772.257 3.432-.969 3.691-2.758.609-4.211.945-8.431.997-12.542.024-1.8-1.417-3.277-3.216-3.299z"/><path d="m503.825 403.406c-1.678-.642-3.562.211-4.2 1.89-5.85 15.436-15.812 29.027-28.81 39.302-1.411 1.114-1.65 3.163-.534 4.575 1.116 1.411 3.165 1.65 4.575.534 13.921-11.006 24.593-25.563 30.861-42.102.638-1.68-.21-3.56-1.892-4.199z"/><path d="m491.179 373.079c0-41.734-33.456-75.776-74.954-76.776v-76.647c41.498-1.001 74.954-35.081 74.954-76.857 0-41.734-33.456-75.777-74.954-76.776v-8.628c0-14.161-11.52-25.681-25.68-25.681-9.629 0-18.028 5.334-22.422 13.197-4.395-7.863-12.793-13.197-22.422-13.197s-18.028 5.334-22.422 13.197c-4.395-7.863-12.793-13.197-22.422-13.197s-18.028 5.334-22.422 13.197c-4.394-7.863-12.793-13.197-22.422-13.197s-18.028 5.334-22.422 13.197c-4.394-7.863-12.793-13.197-22.422-13.197s-18.028 5.334-22.422 13.197c-4.394-7.863-12.793-13.197-22.422-13.197s-18.028 5.334-22.422 13.197c-4.395-7.863-12.793-13.197-22.422-13.197-14.16 0-25.68 11.52-25.68 25.681v8.58h-35.075v-4.55c0-7.029-5.718-12.746-12.746-12.746h-14.388c-7.029 0-12.746 5.718-12.746 12.746v47.646c0 7.029 5.718 12.746 12.746 12.746h14.387c7.029 0 12.746-5.718 12.746-12.746v-4.55h35.075v76.682c-41.498 1-74.954 35.042-74.954 76.776s33.456 75.777 74.954 76.776v76.603h-35.074v-4.55c0-7.029-5.718-12.746-12.746-12.746h-14.388c-7.029 0-12.746 5.718-12.746 12.746v47.646c0 7.029 5.718 12.746 12.746 12.746h14.387c7.029 0 12.746-5.718 12.746-12.746v-4.55h35.075v8.58c0 14.158 11.52 25.678 25.68 25.678 9.629 0 18.028-5.334 22.422-13.197 4.394 7.862 12.793 13.197 22.422 13.197s18.028-5.334 22.422-13.197c4.394 7.862 12.793 13.197 22.422 13.197s18.028-5.334 22.422-13.197c4.394 7.862 12.793 13.197 22.422 13.197s18.028-5.334 22.422-13.197c4.395 7.862 12.793 13.197 22.422 13.197s18.028-5.334 22.422-13.197c4.395 7.862 12.793 13.197 22.422 13.197s18.028-5.334 22.422-13.197c4.394 7.862 12.793 13.197 22.422 13.197 14.16 0 25.68-11.52 25.68-25.678v-8.628c41.499-.998 74.955-35.043 74.955-76.777zm-74.954-38.182c20.235.984 36.408 17.708 36.408 38.182 0 20.477-16.173 37.2-36.408 38.185zm0-230.281c20.235.986 36.408 17.744 36.408 38.263 0 20.474-16.173 37.197-36.408 38.182zm68.44 38.182c0 38.186-30.535 69.344-68.44 70.342v-25.565c23.829-.99 42.922-20.629 42.922-44.696 0-24.109-19.093-43.786-42.922-44.777v-25.566c37.905.997 68.44 32.12 68.44 70.262zm-388.865 153.363c-20.236-.984-36.409-17.708-36.409-38.182s16.173-37.197 36.409-38.182zm-41.588-187.09c0 3.435-2.795 6.231-6.231 6.231h-14.389c-3.437 0-6.231-2.796-6.231-6.231v-47.647c0-3.435 2.795-6.231 6.231-6.231h14.387c3.437 0 6.231 2.796 6.231 6.231.002 14.087.002 33.613.002 47.647zm6.514-11.065v-25.518h35.074v25.518zm-33.366 159.973c0-38.142 30.535-69.265 68.44-70.262v25.565c-23.829.99-42.923 20.629-42.923 44.696s19.094 43.705 42.923 44.696v25.565c-37.905-.996-68.44-32.119-68.44-70.26zm26.852 196.475c0 3.435-2.795 6.231-6.231 6.231h-14.389c-3.437 0-6.231-2.796-6.231-6.231v-47.646c0-3.435 2.795-6.231 6.231-6.231h14.387c3.437 0 6.231 2.796 6.231 6.231.002 14.033.002 33.56.002 47.646zm6.514-11.064v-25.518h35.074v25.518zm60.753 34.258c-10.568 0-19.165-8.595-19.165-19.164v-401.09c0-10.568 8.597-19.166 19.165-19.166s19.165 8.598 19.165 19.166v401.091c0 10.568-8.597 19.163-19.165 19.163zm44.845 0c-10.568 0-19.165-8.595-19.165-19.164v-401.09c0-10.568 8.597-19.166 19.165-19.166s19.165 8.598 19.165 19.166v401.091c0 10.568-8.597 19.163-19.165 19.163zm44.844 0c-10.568 0-19.165-8.595-19.165-19.164v-401.09c0-10.568 8.597-19.166 19.165-19.166s19.165 8.598 19.165 19.166v401.091c0 10.568-8.597 19.163-19.165 19.163zm44.845 0c-10.568 0-19.165-8.595-19.165-19.164v-401.09c0-10.568 8.597-19.166 19.165-19.166s19.165 8.598 19.165 19.166v401.091c0 10.568-8.598 19.163-19.165 19.163zm44.844 0c-10.568 0-19.165-8.595-19.165-19.164v-401.09c0-10.568 8.597-19.166 19.165-19.166 10.567 0 19.165 8.598 19.165 19.166v401.091c0 10.568-8.597 19.163-19.165 19.163zm44.844 0c-10.568 0-19.165-8.595-19.165-19.164v-401.09c0-10.568 8.597-19.166 19.165-19.166 10.567 0 19.165 8.598 19.165 19.166v401.091c0 10.568-8.596 19.163-19.165 19.163zm64.01-19.163c0 10.568-8.597 19.164-19.165 19.164-10.567 0-19.165-8.595-19.165-19.164v-401.091c0-10.568 8.597-19.166 19.165-19.166 10.567 0 19.165 8.598 19.165 19.166zm6.514-15.142v-25.565c23.829-.99 42.922-20.631 42.922-44.699s-19.093-43.705-42.922-44.696v-25.565c37.904.997 68.44 32.12 68.44 70.262s-30.535 69.265-68.44 70.263z"/><path d="m3.257 76.28c-1.799 0-3.257 1.458-3.257 3.257v13.133c0 1.799 1.458 3.257 3.257 3.257s3.257-1.458 3.257-3.257v-13.133c0-1.799-1.458-3.257-3.257-3.257z"/><path d="m49.48 34.421c1.789.15 3.373-1.162 3.534-2.954.159-1.792-1.162-3.375-2.955-3.535-1.815-.16-1.767-.063-16.47-.092-15.818 0-29.642 11.237-32.868 26.722-.368 1.761.763 3.486 2.524 3.852 1.79.366 3.489-.783 3.852-2.524 2.6-12.479 13.741-21.535 26.491-21.535 15.016.02 14.629-.049 15.892.066z"/></g></g></g></svg>