<svg id="Layer_1" enable-background="new 0 0 64 64" height="512" viewBox="0 0 64 64" width="512" xmlns="http://www.w3.org/2000/svg"><g><g><g><path d="m55.109 33.336c-.328-.219-.714-.336-1.109-.336h-8.999c1.1 0 2-.9 2-2v-3h-20v3c0 1.1.9 2 2 2h2c-8 0-8.001 15.8-8.001 18h.001c0 2.2 1.8 4 4 4h20c2.2 0 4-1.8 4-4 0-1.485-.004-9.167-2.466-14.003 0 .001.001.002.001.003h4.575c.616.929 1.889 3.62 1.889 10 0 1.104.895 2 2 2 1.104 0 2-.896 2-2 0-10.537-3.241-13.231-3.891-13.664z" fill="#735e50"/></g><g><g><g><path d="m52.001 55h-31.001c-1.105 0-2-.896-2-2v-31c0-1.104.895-2 2-2h24.001s3-5 3-11c0-3 0-6 0-6 0-1.105-.895-2-2-2h-38c-1.657 0-3 1.343-3 3 0 0-.001 57.062-.001 59h49.001c0-.593 0-5.267 0-6 0-1.104-.895-2-2-2z" fill="#a89e92"/></g><g><path d="m46.001 1h-18c-1.104 0-2 .895-2 2v6c0 6 3 11 3 11h16s3-5 3-11c0-3 0-6 0-6 0-1.105-.895-2-2-2z" fill="#fff"/></g><g><path d="m29.041 10c.186 2.893 1.124 5.473 1.807 7h12.307c.684-1.529 1.621-4.108 1.807-7 0 0-4.96-2-7.96-2s-7.961 2-7.961 2z" fill="#735e50"/></g><g><path d="m32.001 20h10v3h-10z" fill="#fff"/></g><g><g><g><path d="m27.001 55h20c2.2 0 4-1.8 4-4h-28c0 2.2 1.8 4 4 4z" fill="#a89e92"/></g><g><path d="m43.001 33h-12c-8 0-8.001 15.8-8.001 18h.001 28c0-2.2 0-18-8-18z" fill="#fff"/></g></g><g><path d="m27.001 28v3c0 1.1.9 2 2 2h16c1.1 0 2-.9 2-2v-3z" fill="#a89e92"/></g></g></g></g><g><g><path d="m26.001 3c0-1.105.896-2 2-2h-20c-1.657 0-3 1.343-3 3v1h21c0-1.192 0-2 0-2z" fill="#735e50"/></g><g><path d="m46.001 1h-18c-1.104 0-2 .895-2 2v2h22c0-1.192 0-2 0-2 0-1.105-.895-2-2-2z" fill="#735e50"/></g></g><g><path d="m52.001 55h-47.001v8h49.001c0-.593 0-5.267 0-6 0-1.104-.895-2-2-2z" fill="#735e50"/></g></g><g fill="#3f342f"><path d="m45.336 9.072c-.21-.084-5.177-2.072-8.335-2.072s-8.124 1.988-8.334 2.072c-.4.162-.652.561-.624.992.194 3.005 1.136 5.652 1.892 7.344.161.361.518.592.913.592h12.307c.395 0 .752-.231.913-.592.757-1.691 1.699-4.338 1.893-7.344.027-.43-.225-.831-.625-.992zm-2.841 6.928h-10.988c-.508-1.239-1.163-3.169-1.404-5.335 1.428-.527 4.757-1.665 6.898-1.665 2.138 0 5.469 1.138 6.898 1.665-.24 2.166-.896 4.097-1.404 5.335z"/><path d="m55.664 32.504c-.496-.33-1.071-.504-1.664-.504h-6.183c.112-.315.184-.647.184-1v-3c0-.553-.448-1-1-1h-20c-.552 0-1 .447-1 1v3c0 .932.436 1.755 1.104 2.305-4.527 3.486-5.104 13.071-5.104 17.695 0 1.13.391 2.162 1.025 3h-2.026c-.551 0-1-.448-1-1v-31c0-.552.449-1 1-1h10.001v2c0 .553.448 1 1 1h.999v1c0 .553.448 1 1 1s1-.447 1-1v-1h4v1c0 .553.448 1 1 1s1-.447 1-1v-1h1.001c.552 0 1-.447 1-1v-2h2c.351 0 .677-.185.857-.485.128-.214 3.143-5.309 3.143-11.515v-6c0-1.654-1.346-3-3-3h-38c-2.206 0-4 1.794-4 4l-.001 59c0 .553.448 1 1 1h49.001c.552 0 1-.447 1-1v-6c0-1.654-1.346-3-3-3h-1.025c.634-.838 1.025-1.87 1.025-3 0-3.185-.274-8.722-1.923-13h2.459c.58 1.123 1.463 3.705 1.463 9 0 1.654 1.346 3 3 3s3-1.346 3-3c0-10.772-3.319-13.819-4.336-14.496zm-26.663-.504c-.551 0-1-.448-1-1v-2h18v2c0 .552-.449 1-1 1h-2zm2 2h12c2.1 0 3.571 1.363 4.604 3.339.019.053.048.099.076.147 1.866 3.7 2.25 9.426 2.311 12.514h-25.98c.094-4.802.963-16 6.989-16zm-13.001-12v31c0 .351.06.688.171 1h-12.17v-48h19v3c0 4.268 1.425 8.009 2.357 10h-6.358c-1.654 0-3 1.346-3 3zm23.001 0h-8v-1h8zm3.408-3h-14.815c-.71-1.359-2.592-5.402-2.592-10v-3h20v3c-.001 4.598-1.883 8.641-2.593 10zm-15.408-17h17c.551 0 1 .448 1 1v1h-20v-1c0-.552.449-1 1-1zm-21 0h17.184c-.112.315-.184.648-.184 1v1h-19c0-1.102.897-2 2-2zm45 55v5h-47.001v-6h46.001c.552 0 1 .448 1 1zm-26-3c-1.302 0-2.401-.839-2.816-2h25.632c-.414 1.161-1.514 2-2.816 2zm29.999-6c-.551 0-1-.448-1-1 0-6.484-1.288-9.395-2.055-10.553-.185-.279-.498-.447-.834-.447h-3.968c-.426-.751-.915-1.426-1.474-2h6.331c.198 0 .39.059.555.168.353.235 3.445 2.589 3.445 12.832 0 .552-.449 1-1 1z"/><path d="m40 39h2c.552 0 1-.447 1-1s-.448-1-1-1h-2c-.552 0-1 .447-1 1s.448 1 1 1z"/><path d="m40 43h2c.552 0 1-.447 1-1s-.448-1-1-1h-2c-.552 0-1 .447-1 1s.448 1 1 1z"/><path d="m40 47h2c.552 0 1-.447 1-1s-.448-1-1-1h-2c-.552 0-1 .447-1 1s.448 1 1 1z"/></g></g></svg>