<svg height="480pt" viewBox="0 0 480 480" width="480pt" xmlns="http://www.w3.org/2000/svg"><path d="m184 360v-256h216v-32c0-35.347656-28.652344-64-64-64h-328v384h176zm-48-32c0 8.835938-7.164062 16-16 16h-48c-8.835938 0-16-7.164062-16-16v-144c0-8.835938 7.164062-16 16-16h48c8.835938 0 16 7.164062 16 16zm0 0" fill="#57565c"/><path d="m224 120c0 17.671875 14.328125 32 32 32h48c17.671875 0 32-14.328125 32-32v-16h-112zm0 0" fill="#c6c5ca"/><path d="m264 152h32v32h-32zm0 0" fill="#898890"/><path d="m274.800781 258.328125 15.808594-4.59375c13.417969-3.902344 27.628906-4.214844 41.207031-.910156l12.183594 2.960937v-39.785156h-128v39.785156l20.800781 4.160156c12.613281 2.519532 25.644531 1.964844 38-1.617187zm0 0" fill="#d8d7da"/><path d="m344 296v-40.214844l-12.183594-2.960937c-13.578125-3.304688-27.789062-2.992188-41.207031.910156l-15.808594 4.59375c-12.355469 3.578125-25.390625 4.125-38 1.601563l-20.800781-4.160157v40.230469c0 35.347656 28.652344 64 64 64s64-28.652344 64-64zm0 0" fill="#8b5e3c"/><path d="m432 392v-32h-248v32zm0 0" fill="#acabb1"/><path d="m184 392h-176v32c0 26.507812 21.492188 48 48 48h368c26.507812 0 48-21.492188 48-48v-32zm256 32c0 8.835938-7.164062 16-16 16h-368c-8.835938 0-16-7.164062-16-16 0 8.835938 7.164062 16 16 16h368c8.835938 0 16-7.164062 16-16zm0 0" fill="#898890"/><path d="m456 128h-64v32h64c8.835938 0 16-7.164062 16-16s-7.164062-16-16-16zm0 0" fill="#754c29"/><path d="m120 168h-48c-8.835938 0-16 7.164062-16 16v144c0 8.835938 7.164062 16 16 16h48c8.835938 0 16-7.164062 16-16v-144c0-8.835938-7.164062-16-16-16zm-24 136c-8.835938 0-16-7.164062-16-16s7.164062-16 16-16 16 7.164062 16 16-7.164062 16-16 16zm0-72c-8.835938 0-16-7.164062-16-16s7.164062-16 16-16 16 7.164062 16 16-7.164062 16-16 16zm0 0" fill="#00b6bd"/><path d="m112 216c0 8.835938-7.164062 16-16 16s-16-7.164062-16-16 7.164062-16 16-16 16 7.164062 16 16zm0 0" fill="#ffaf46"/><path d="m112 288c0 8.835938-7.164062 16-16 16s-16-7.164062-16-16 7.164062-16 16-16 16 7.164062 16 16zm0 0" fill="#ffaf46"/><g fill="#231f20"><path d="m424 432h-368c-4.417969 0-8-3.582031-8-8s-3.582031-8-8-8-8 3.582031-8 8c0 13.253906 10.746094 24 24 24h368c13.253906 0 24-10.746094 24-24 0-4.417969-3.582031-8-8-8s-8 3.582031-8 8-3.582031 8-8 8zm0 0"/><path d="m472 384h-32v-24c0-4.417969-3.582031-8-8-8h-106.847656c14.785156-11.890625 24.277344-29.144531 26.398437-48h8.449219c22.089844 0 40-17.910156 40-40s-17.910156-40-40-40h-8v-8c0-4.417969-3.582031-8-8-8h-128c-4.417969 0-8 3.582031-8 8v80c.003906 21.769531 9.878906 42.363281 26.847656 56h-42.847656v-240h24v8c.027344 22.082031 17.917969 39.972656 40 40v24c0 4.417969 3.582031 8 8 8h32c4.417969 0 8-3.582031 8-8v-24c8.589844-.015625 16.945312-2.824219 23.800781-8h.199219 56v8c0 4.417969 3.582031 8 8 8h64c13.253906 0 24-10.746094 24-24s-10.746094-24-24-24h-64c-4.417969 0-8 3.582031-8 8v8h-43.390625c2.230469-5.039062 3.386719-10.488281 3.390625-16v-8h56c4.417969 0 8-3.582031 8-8v-32c-.042969-39.746094-32.253906-71.9570312-72-72h-328c-4.417969 0-8 3.582031-8 8v416c.0351562 30.914062 25.085938 55.964844 56 56h368c30.914062-.035156 55.964844-25.085938 56-56v-32c0-4.417969-3.582031-8-8-8zm-72-248h56c4.417969 0 8 3.582031 8 8s-3.582031 8-8 8h-56zm-40 104c13.253906 0 24 10.746094 24 24s-10.746094 24-24 24h-8v-48zm-24-16v21.601562l-2.289062-.5625c-14.941407-3.621093-30.566407-3.273437-45.335938 1l-15.800781 4.59375c-11.117188 3.214844-22.84375 3.71875-34.199219 1.464844l-14.398438-2.882812v-25.214844zm-112 72v-30.457031l11.199219 2.25c13.878906 2.757812 28.214843 2.144531 41.808593-1.785157l15.800782-4.59375c12.082031-3.492187 24.867187-3.769531 37.085937-.796874l6.074219 1.472656v33.910156c0 30.929688-25.074219 56-56 56-30.929688 0-56-25.070312-56-56zm200 72v16h-232v-16zm-136-192h-16v-16h16zm40-56c0 13.253906-10.746094 24-24 24h-48c-13.253906 0-24-10.746094-24-24v-8h96zm-312-104h320c30.914062.035156 55.964844 25.085938 56 56v24h-208c-4.417969 0-8 3.582031-8 8v280h-160zm448 408c-.027344 22.082031-17.917969 39.972656-40 40h-368c-22.082031-.027344-39.972656-17.917969-40-40v-24h448zm0 0"/><path d="m120 160h-48c-13.253906 0-24 10.746094-24 24v144c0 13.253906 10.746094 24 24 24h48c13.253906 0 24-10.746094 24-24v-144c0-13.253906-10.746094-24-24-24zm8 168c0 4.417969-3.582031 8-8 8h-48c-4.417969 0-8-3.582031-8-8v-144c0-4.417969 3.582031-8 8-8h48c4.417969 0 8 3.582031 8 8zm0 0"/><path d="m96 192c-13.253906 0-24 10.746094-24 24s10.746094 24 24 24 24-10.746094 24-24-10.746094-24-24-24zm0 32c-4.417969 0-8-3.582031-8-8s3.582031-8 8-8 8 3.582031 8 8-3.582031 8-8 8zm0 0"/><path d="m96 264c-13.253906 0-24 10.746094-24 24s10.746094 24 24 24 24-10.746094 24-24-10.746094-24-24-24zm0 32c-4.417969 0-8-3.582031-8-8s3.582031-8 8-8 8 3.582031 8 8-3.582031 8-8 8zm0 0"/><path d="m72 64h256c4.417969 0 8-3.582031 8-8s-3.582031-8-8-8h-256c-4.417969 0-8 3.582031-8 8s3.582031 8 8 8zm0 0"/><path d="m352 64h8c4.417969 0 8-3.582031 8-8s-3.582031-8-8-8h-8c-4.417969 0-8 3.582031-8 8s3.582031 8 8 8zm0 0"/><path d="m56 56c0-4.417969-3.582031-8-8-8h-8c-4.417969 0-8 3.582031-8 8s3.582031 8 8 8h8c4.417969 0 8-3.582031 8-8zm0 0"/></g></svg>