<svg version="1.1" id="Layer_1" xmlns="http://www.w3.org/2000/svg" xmlns:xlink="http://www.w3.org/1999/xlink" x="0px" y="0px" viewBox="0 0 512 512" style="enable-background:new 0 0 512 512;" xml:space="preserve">
<g>
	<g>
		<path style="fill-rule:evenodd;clip-rule:evenodd;fill:#ABE6FC;" d="M318.125,349.586c-23.342,0-36.55-24.944-62.125-24.944&#10;&#9;&#9;&#9;c-25.34,0-38.836,24.944-62.125,24.944c-23.342,0-36.549-24.944-62.125-24.944c-25.11,0-39.03,24.944-62.125,24.944&#10;&#9;&#9;&#9;c-23.342,0-36.55-24.944-62.125-27.177v116.141h497l0-116.141c-25.036,2.185-38.96,27.177-62.125,27.177&#10;&#9;&#9;&#9;c-23.342,0-36.55-24.944-62.125-24.944C355.139,324.642,341.219,349.586,318.125,349.586z"/>
		<path style="fill-rule:evenodd;clip-rule:evenodd;fill:#00EBE9;" d="M30,330.58c-6.67-4.086-13.882-7.418-22.5-8.17v116.141H30&#10;&#9;&#9;&#9;V330.58z"/>
		<path style="fill-rule:evenodd;clip-rule:evenodd;fill:#FDF1E0;" d="M93.881,263.332l-24.236,30.199&#10;&#9;&#9;&#9;c-15.039,18.74-12.421,34.833-10.928,54.204c3.425,1.16,7.026,1.85,10.908,1.85c8.029,0,14.949-3.015,21.616-6.948&#10;&#9;&#9;&#9;c12.405-7.381,23.825-17.996,40.509-17.996c25.576,0,38.783,24.944,62.125,24.944c4.268,0,8.207-0.838,11.95-2.206&#10;&#9;&#9;&#9;c3.814-1.397,7.418-3.348,10.958-5.525c-18.237-37.47-12.136-49.914-20.165-73.778l0.595-27.783l30.791-47.875&#10;&#9;&#9;&#9;c-0.098-1.023-0.153-2.036-0.168-3.039c-2.828,1.483-6.047,2.324-9.462,2.324c-10.744,0-19.548-8.304-20.345-18.844&#10;&#9;&#9;&#9;c-12.747,14.004-33.176,35.043-38.997,54.206l-16.558,8.207c-6.869,3.404-13.858,1.582-20.667-15.826&#10;&#9;&#9;&#9;c15.017-7.848,15.477-14.455,12.939-22.854c-3.702-12.259-12.013-19.403-17.785-37.394&#10;&#9;&#9;&#9;c-13.315,18.247-27.113,24.522-33.495,30.338c7.579,21.088,6.053,33.361,4.186,46.321&#10;&#9;&#9;&#9;C95.947,242.721,99.186,256.722,93.881,263.332z"/>
		<path style="fill-rule:evenodd;clip-rule:evenodd;fill:#FDF1E0;" d="M218.372,150.897c8.614,0,15.981,5.338,18.974,12.887&#10;&#9;&#9;&#9;c3.344-3.923,7.39-7.257,11.839-9.851l18.851-34.807l19.27-18.559c15.426-14.856-4.348-36.573-19.152-22.644l-22.144,20.835&#10;&#9;&#9;&#9;l-33.13,52.887C214.629,151.157,216.47,150.897,218.372,150.897z"/>
		<path style="fill-rule:evenodd;clip-rule:evenodd;fill:#FFEE88;" d="M83.464,189.537c6.382-5.816,20.18-12.091,33.495-30.338&#10;&#9;&#9;&#9;c-28.485-31.924-91.815,8.443-60.762,54.807c9.824,14.668,16.712,15.568,31.454,21.853&#10;&#9;&#9;&#9;C89.517,222.899,91.043,210.626,83.464,189.537z"/>
		<path style="fill-rule:evenodd;clip-rule:evenodd;fill:#FFE000;" d="M68.29,154.464c-18.016,11.086-28.875,34.486-12.094,59.541&#10;&#9;&#9;&#9;c9.824,14.668,16.712,15.568,31.454,21.853c0.958-6.648,1.825-13.117,1.42-20.686c-6.607-3.11-11.652-6.877-17.874-16.167&#10;&#9;&#9;&#9;C60.073,182.398,61.092,166.515,68.29,154.464z"/>
		<path style="fill-rule:evenodd;clip-rule:evenodd;fill:#FFEE88;" d="M263.462,189.537c6.382-5.816,20.18-12.091,33.495-30.338&#10;&#9;&#9;&#9;c-28.681-32.144-91.656,8.681-60.762,54.807c9.824,14.668,16.712,15.568,31.453,21.853&#10;&#9;&#9;&#9;C269.515,222.899,271.041,210.626,263.462,189.537z"/>
		<path style="fill-rule:evenodd;clip-rule:evenodd;fill:#FFE000;" d="M227.834,189.38c-0.149-9.817,3.576-18.633,9.512-25.597&#10;&#9;&#9;&#9;c-2.993-7.548-10.36-12.887-18.974-12.887c-1.902,0-3.743,0.26-5.49,0.747c-8.602,2.397-14.914,10.29-14.914,19.656&#10;&#9;&#9;&#9;c0,0.525,0.02,1.045,0.059,1.56c0.797,10.54,9.601,18.844,20.345,18.844C221.787,191.704,225.005,190.864,227.834,189.38z"/>
		<path style="fill-rule:evenodd;clip-rule:evenodd;fill:#FDF1E0;" d="M263.462,189.537c7.579,21.088,6.053,33.361,4.186,46.321&#10;&#9;&#9;&#9;c8.297,6.862,11.536,20.863,6.231,27.473c9.766,16.912,32.771,24.833,41.881,19.572c9.111-5.261,13.749-29.145,3.983-46.057&#10;&#9;&#9;&#9;c-6.057,1.276-11.132,0.008-17.941-17.4c15.017-7.848,15.477-14.455,12.939-22.854c-3.702-12.259-12.013-19.403-17.785-37.394&#10;&#9;&#9;&#9;C283.642,177.446,269.843,183.721,263.462,189.537z"/>
		<path style="fill-rule:evenodd;clip-rule:evenodd;fill:#FDF1E0;" d="M273.879,263.332l-24.236,30.199&#10;&#9;&#9;&#9;c-9.993,12.452-12.189,23.736-12.101,35.586c5.546-2.656,11.551-4.475,18.458-4.475c9.022,0,16.504,3.104,23.435,7.123&#10;&#9;&#9;&#9;C288.643,313.798,283.408,285.403,273.879,263.332z"/>
		<path style="fill-rule:evenodd;clip-rule:evenodd;fill:#E89CE8;" d="M273.879,263.332c9.529,22.07,14.764,50.466,5.556,68.431&#10;&#9;&#9;&#9;c12.719,7.373,23.581,17.823,38.69,17.823c8.038,0,14.964-3.022,21.638-6.962c12.396-7.38,23.813-17.982,40.487-17.982&#10;&#9;&#9;&#9;c3.386,0,6.556,0.437,9.561,1.196c-9.694-25.666-6.435-37.664-13.197-57.761c-22.459,6.02-40.195-8.824-56.871-31.231&#10;&#9;&#9;&#9;c9.766,16.912,5.127,40.796-3.983,46.057C306.65,288.165,283.645,280.244,273.879,263.332z"/>
		<path style="fill-rule:evenodd;clip-rule:evenodd;fill:#FDF1E0;" d="M319.744,236.847c16.676,22.406,34.412,37.25,56.871,31.231&#10;&#9;&#9;&#9;l0.595-27.783l32.939-51.215l37.886-69.955l19.27-18.559c15.426-14.856-4.348-36.573-19.151-22.644L426.01,98.757l-42.638,68.065&#10;&#9;&#9;&#9;c-11.322,13.394-37.609,38.075-44.344,60.244L319.744,236.847z"/>
		<path style="fill-rule:evenodd;clip-rule:evenodd;fill:#FFE000;" d="M248.288,154.464c-18.017,11.086-28.875,34.486-12.094,59.541&#10;&#9;&#9;&#9;c9.824,14.668,16.712,15.568,31.453,21.853c0.958-6.648,1.825-13.117,1.42-20.686c-6.607-3.11-11.652-6.877-17.874-16.167&#10;&#9;&#9;&#9;C240.071,182.398,241.09,166.515,248.288,154.464z"/>
		<path style="fill-rule:evenodd;clip-rule:evenodd;fill:#D36ADB;" d="M273.879,263.332c9.529,22.07,14.764,50.466,5.556,68.431&#10;&#9;&#9;&#9;c7.037,4.079,13.506,9.1,20.44,12.772c9.712-18.924,8.353-41.576,3.532-60.536C293.096,282.066,280.471,274.748,273.879,263.332z"/>
		<path style="fill-rule:evenodd;clip-rule:evenodd;fill:#FFDFB9;" d="M268.5,270.035l-18.857,23.497&#10;&#9;&#9;&#9;c-9.993,12.452-12.189,23.736-12.101,35.586c5.546-2.656,11.551-4.475,18.458-4.475c1.398,0,2.759,0.074,4.086,0.215&#10;&#9;&#9;&#9;C260.401,311.788,262.377,284.754,268.5,270.035z"/>
		<path style="fill-rule:evenodd;clip-rule:evenodd;fill:#FFDFB9;" d="M83.806,275.886l-14.161,17.645&#10;&#9;&#9;&#9;c-15.039,18.74-12.421,34.833-10.928,54.204c3.425,1.16,7.026,1.85,10.908,1.85c4.11,0,7.929-0.79,11.573-2.089&#10;&#9;&#9;&#9;C80.083,332.913,78.393,299.624,83.806,275.886z"/>
		<path style="fill-rule:evenodd;clip-rule:evenodd;fill:none;stroke:#FFFFFF;stroke-width:15;stroke-miterlimit:22.9256;" d="&#10;&#9;&#9;&#9;M444.501,372.274v15 M474.501,364.773v15"/>
	</g>
	<g>
		<path style="fill-rule:evenodd;clip-rule:evenodd;fill:none;stroke:#000000;stroke-width:15;stroke-miterlimit:22.9256;" d="&#10;&#9;&#9;&#9;M256,362.142c-25.575,0-38.783,24.944-62.125,24.944s-36.549-24.944-62.125-24.944"/>
		<path style="fill-rule:evenodd;clip-rule:evenodd;fill:none;stroke:#000000;stroke-width:15;stroke-miterlimit:22.9256;" d="&#10;&#9;&#9;&#9;M58.717,347.733c-1.494-19.368-4.112-35.462,10.927-54.202l24.236-30.199c5.305-6.61,2.066-20.611-6.231-27.473&#10;&#9;&#9;&#9;c-14.742-6.285-21.629-7.185-31.454-21.853c-5.781-8.632-8.287-17.054-8.359-24.843 M50.914,174.05&#10;&#9;&#9;&#9;c10.676-24.665,46.533-36.72,66.045-14.852c5.772,17.991,14.083,25.135,17.785,37.394c2.537,8.4,2.077,15.006-12.939,22.854&#10;&#9;&#9;&#9;c6.809,17.408,13.798,19.231,20.667,15.826l16.558-8.207c5.822-19.163,26.251-40.201,38.997-54.206 M212.881,151.645l33.13-52.888&#10;&#9;&#9;&#9;l22.144-20.835c14.803-13.929,34.577,7.788,19.152,22.644l-19.27,18.559l-18.857,34.819 M228.012,192.405l-30.8,47.89&#10;&#9;&#9;&#9;l-0.595,27.783c8.029,23.863,1.928,36.308,20.165,73.778"/>
		<path style="fill-rule:evenodd;clip-rule:evenodd;fill:none;stroke:#000000;stroke-width:15;stroke-miterlimit:22.9256;" d="&#10;&#9;&#9;&#9;M116.959,159.199c-13.315,18.247-27.113,24.522-33.495,30.338c7.579,21.088,6.053,33.361,4.186,46.321"/>
		<path style="fill-rule:evenodd;clip-rule:evenodd;fill:none;stroke:#000000;stroke-width:15;stroke-miterlimit:22.9256;" d="&#10;&#9;&#9;&#9;M237.349,163.79c-2.991-7.552-10.36-12.893-18.976-12.893c-11.269,0-20.404,9.135-20.404,20.403&#10;&#9;&#9;&#9;c0,11.268,9.135,20.404,20.404,20.404c3.418,0,6.64-0.842,9.47-2.328"/>
		<path style="fill-rule:evenodd;clip-rule:evenodd;fill:none;stroke:#000000;stroke-width:15;stroke-miterlimit:22.9256;" d="&#10;&#9;&#9;&#9;M376.615,268.078c-22.459,6.02-40.195-8.824-56.871-31.231"/>
		<path style="fill-rule:evenodd;clip-rule:evenodd;fill:none;stroke:#000000;stroke-width:15;stroke-miterlimit:22.9256;" d="&#10;&#9;&#9;&#9;M319.744,236.847l19.284-9.781c6.735-22.169,33.022-46.85,44.344-60.244l42.638-68.065l22.144-20.835&#10;&#9;&#9;&#9;c14.803-13.929,34.577,7.788,19.151,22.644l-19.27,18.559l-37.886,69.955l-32.939,51.215l-0.595,27.783&#10;&#9;&#9;&#9;c6.762,20.098,3.502,32.096,13.198,57.765"/>
		<path style="fill-rule:evenodd;clip-rule:evenodd;fill:none;stroke:#000000;stroke-width:15;stroke-miterlimit:22.9256;" d="&#10;&#9;&#9;&#9;M319.744,236.847c9.766,16.912,5.127,40.796-3.983,46.057c-9.111,5.261-32.116-2.66-41.881-19.572"/>
		<path style="fill-rule:evenodd;clip-rule:evenodd;fill:none;stroke:#000000;stroke-width:15;stroke-miterlimit:22.9256;" d="&#10;&#9;&#9;&#9;M296.957,159.199c-13.315,18.247-27.113,24.522-33.495,30.338c7.579,21.088,6.053,33.361,4.186,46.321"/>
		<path style="fill-rule:evenodd;clip-rule:evenodd;fill:none;stroke:#000000;stroke-width:15;stroke-miterlimit:22.9256;" d="&#10;&#9;&#9;&#9;M279.435,331.765c9.208-17.967,3.973-46.362-5.555-68.433"/>
		<path style="fill-rule:evenodd;clip-rule:evenodd;fill:none;stroke:#000000;stroke-width:15;stroke-miterlimit:22.9256;" d="&#10;&#9;&#9;&#9;M237.542,329.119c-0.089-11.852,2.108-23.136,12.101-35.588l24.236-30.199c5.305-6.61,2.066-20.611-6.231-27.473&#10;&#9;&#9;&#9;c-14.742-6.285-21.629-7.185-31.453-21.853c-31.053-46.364,32.277-86.731,60.762-54.807c5.772,17.991,14.083,25.135,17.785,37.394&#10;&#9;&#9;&#9;c2.537,8.4,2.077,15.006-12.939,22.854c6.809,17.408,11.884,18.676,17.941,17.4"/>
		<path style="fill-rule:evenodd;clip-rule:evenodd;fill:none;stroke:#000000;stroke-width:15;stroke-miterlimit:22.9256;" d="&#10;&#9;&#9;&#9;M467,438.551h37.5l0-116.141c-25.575,2.232-38.783,27.177-62.125,27.177c-23.342,0-36.55-24.944-62.125-24.944&#10;&#9;&#9;&#9;c-25.576,0-38.783,24.944-62.125,24.944c-23.342,0-36.55-24.944-62.125-24.944c-25.575,0-38.783,24.944-62.125,24.944&#10;&#9;&#9;&#9;s-36.549-24.944-62.125-24.944c-25.575,0-38.783,24.944-62.125,24.944c-23.342,0-36.55-24.944-62.125-27.177v116.141H452"/>
	</g>
</g>
<g>
</g>
<g>
</g>
<g>
</g>
<g>
</g>
<g>
</g>
<g>
</g>
<g>
</g>
<g>
</g>
<g>
</g>
<g>
</g>
<g>
</g>
<g>
</g>
<g>
</g>
<g>
</g>
<g>
</g>
</svg>