<svg height="512" viewBox="0 0 512 512" width="512" xmlns="http://www.w3.org/2000/svg"><g id="Layer_2"><g><g><path d="m313.937 434.475h-233.814v-121.898c0-23.913 17.769-44.403 42.212-48.676l74.694-13.06 74.694 13.06c24.443 4.274 42.212 24.764 42.212 48.676v121.898z" fill="#494a47"/><path d="m145.644 263.901 63.04-11.022-11.654-2.038-74.694 13.06c-24.443 4.274-42.212 24.764-42.212 48.676v121.897h23.309v-121.897c-.001-23.912 17.768-44.402 42.211-48.676z" fill="#333331"/><path d="m142.972 359.157 53.939 39.214 53.939-39.214-11.2-22.902 17.006-19.713-1.548-55.546-58.078-10.155-58.311 10.196-1.553 55.505 17.006 19.713z" fill="#333331"/><path d="m197.03 393.616-38.31-135.298h76.62z" fill="#fff"/><path d="m292.101 131.315v-48.796c0-41.419-33.577-74.996-74.996-74.996h-36.472c-16.191 0-30.305 8.86-37.784 21.989-23.059 2.938-40.889 22.618-40.889 46.475v55.327h190.141z" fill="#494a47"/><path d="m166.157 29.512c7.479-13.13 21.593-21.989 37.784-21.989h-23.309c-16.191 0-30.305 8.86-37.784 21.989-23.059 2.938-40.889 22.618-40.889 46.475v55.327h23.309v-55.326c0-23.858 17.83-43.537 40.889-46.476z" fill="#333331"/><g fill="#ffb09e"><path d="m227.488 246.549-30.458 28.422-30.458-28.422v-32.113h60.916z"/><path d="m276.826 164.32h9.619c11.166 0 20.217-9.052 20.217-20.217 0-11.166-9.052-20.217-20.217-20.217h-9.619z"/><path d="m117.233 164.32h-9.619c-11.166 0-20.217-9.052-20.217-20.217 0-11.166 9.052-20.217 20.217-20.217h9.619z"/></g><path d="m256.905 94.73c-69.116 9.987-119.739-24.469-119.739-24.469v30.171c0 8.019-4.457 15.373-11.565 19.084l-8.367 4.368v38.614c0 44.07 35.726 79.796 79.796 79.796 44.07 0 79.796-35.726 79.796-79.796v-38.576l-8.356-4.362c-7.108-3.711-11.565-11.065-11.565-19.084z" fill="#ffcebf"/><g><path d="m140.542 162.499v-38.614l8.367-4.368c7.108-3.711 11.565-11.065 11.565-19.084v-18.237c-14.798-6.145-23.309-11.934-23.309-11.934v30.171c0 8.019-4.457 15.373-11.565 19.084l-8.367 4.368v38.614c0 44.07 35.726 79.796 79.796 79.796 3.96 0 7.849-.299 11.654-.856-38.543-5.642-68.141-38.83-68.141-78.94z" fill="#ffb09e"/></g><path d="m166.572 246.549-10.7 11.769 17.247 29.541 23.911-12.888z" fill="#cdcdc6"/><path d="m227.488 246.549 10.7 11.769-17.248 29.541-23.91-12.888z" fill="#cdcdc6"/><path d="m186.999 280.608h20.062v20.062h-20.062z" fill="#e15f4f"/><path d="m186.999 300.67-23.025 6.701c-4.052 1.179-8.102-1.86-8.102-6.08v-21.305c0-4.22 4.05-7.259 8.102-6.08l23.025 6.701z" fill="#e15f4f"/><path d="m207.061 300.67 23.025 6.701c4.052 1.179 8.102-1.86 8.102-6.08v-21.305c0-4.22-4.05-7.259-8.102-6.08l-23.025 6.701z" fill="#e15f4f"/></g><path d="m7.524 434.475h496.952v70.002h-496.952z" fill="#883f2e"/><path d="m7.524 434.475h23.309v70.002h-23.309z" fill="#6d3326"/><g><path d="m435.519 412.138c-.57-23.766-20-42.859-43.902-42.859-23.903 0-43.332 19.094-43.902 42.859z" fill="#cdcdc6"/><path d="m403.271 370.855c-3.713-1.02-7.617-1.576-11.654-1.576-23.903 0-43.332 19.094-43.902 42.859h23.309c.473-19.752 13.978-36.265 32.247-41.283z" fill="#989898"/><path d="m438.151 434.475h-93.069c-6.168 0-11.168-5-11.168-11.168 0-6.168 5-11.168 11.168-11.168h93.069c6.168 0 11.168 5 11.168 11.168.001 6.167-5 11.168-11.168 11.168z" fill="#494a47"/><path d="m357.223 423.306c0-6.168 5-11.168 11.168-11.168h-23.309c-6.168 0-11.168 5-11.168 11.168s5 11.168 11.168 11.168h23.309c-6.168 0-11.168-5-11.168-11.168z" fill="#333331"/><g><path d="m178.417 131.847c-4.301-2.602-9.231-3.977-14.256-3.977s-9.955 1.375-14.256 3.977c-2.363 1.429-3.12 4.503-1.69 6.866 1.429 2.361 4.501 3.118 6.866 1.69 2.74-1.657 5.88-2.533 9.081-2.533s6.341.876 9.081 2.533c.81.489 1.702.723 2.583.723 1.692 0 3.343-.859 4.283-2.413 1.428-2.363.671-5.438-1.692-6.866z"/><path d="m220.818 140.403c2.739-1.657 5.879-2.533 9.08-2.533s6.341.876 9.081 2.533c.809.489 1.702.723 2.583.723 1.692 0 3.343-.859 4.283-2.413 1.429-2.362.672-5.437-1.69-6.866-4.301-2.602-9.23-3.977-14.256-3.977s-9.955 1.375-14.256 3.977c-2.363 1.43-3.12 4.504-1.69 6.866 1.429 2.363 4.502 3.119 6.865 1.69z"/><circle cx="165.858" cy="156.367" r="5.029"/><circle cx="230.611" cy="156.367" r="5.029"/><path d="m211.286 196.793c2.363-1.429 3.12-4.503 1.69-6.866s-4.504-3.119-6.866-1.69c-2.74 1.657-5.88 2.533-9.081 2.533s-6.341-.876-9.081-2.533c-2.364-1.429-5.437-.673-6.866 1.69s-.672 5.438 1.69 6.866c4.301 2.602 9.231 3.977 14.256 3.977s9.957-1.375 14.258-3.977z"/><path d="m504.476 429.475h-51.385c.788-1.902 1.229-3.984 1.229-6.168 0-8.229-6.182-15.026-14.143-16.028-1.326-11.018-6.329-21.198-14.362-29.057-7.99-7.816-18.213-12.575-29.197-13.687v-4.373c0-2.762-2.239-5-5-5s-5 2.238-5 5v4.373c-10.984 1.111-21.207 5.87-29.197 13.687-8.034 7.858-13.036 18.039-14.362 29.057-7.961 1.002-14.143 7.8-14.143 16.028 0 2.184.44 4.266 1.229 6.168h-11.206v-116.898c0-26.363-19.494-48.905-46.351-53.601l-32.153-5.622-7.944-8.737v-5.121c27.132-12.545 46.544-39.004 49.04-70.176h4.917c13.905 0 25.217-11.313 25.217-25.218 0-10.099-5.969-18.824-14.562-22.849v-38.734c0-44.109-35.886-79.995-79.996-79.995h-36.472c-16.547 0-31.979 8.521-40.851 22.398-24.584 4.324-42.825 25.855-42.825 51.065v45.267c-8.593 4.024-14.562 12.75-14.562 22.849 0 13.905 11.313 25.218 25.217 25.218h4.917c2.496 31.172 21.908 57.631 49.04 70.176v5.121l-7.945 8.737-32.153 5.622c-26.858 4.695-46.352 27.237-46.352 53.601v116.897h-67.597c-2.761 0-5 2.238-5 5v70.001c0 2.762 2.239 5 5 5h496.952c2.761 0 5-2.238 5-5v-70.001c0-2.762-2.239-5-5-5zm-117.83-54.868c.156 2.621 2.31 4.705 4.97 4.705s4.815-2.084 4.97-4.705c16.988 2.219 30.773 15.623 33.467 32.53h-76.873c2.694-16.907 16.478-30.311 33.466-32.53zm-47.732 48.7c0-3.401 2.767-6.169 6.168-6.169h2.632 87.805 2.632c3.401 0 6.168 2.768 6.168 6.169s-2.767 6.168-6.168 6.168h-93.069c-3.401 0-6.168-2.767-6.168-6.168zm-87.31-108.564-15.74 18.246c-1.308 1.515-1.585 3.664-.706 5.462l9.355 19.131-40.401 29.372 21.434-75.697 3.143.915c1.058.308 2.133.46 3.197.46 2.413 0 4.774-.778 6.771-2.277 2.879-2.161 4.53-5.464 4.53-9.063v-21.305c0-3.6-1.651-6.902-4.53-9.063-.458-.344-.942-.636-1.435-.903l.074-.26 3.603-6.172 9.324 1.631zm-93.646 18.246-15.74-18.245 1.385-49.484 9.557-1.672 3.603 6.172.074.26c-.493.268-.976.56-1.435.903-2.879 2.161-4.53 5.464-4.53 9.063v21.305c0 3.6 1.651 6.902 4.53 9.063 1.998 1.499 4.358 2.276 6.771 2.276 1.064 0 2.14-.151 3.198-.459l3.142-.914 21.495 75.913-40.7-29.589 9.355-19.131c.88-1.797.603-3.946-.705-5.461zm20.157-24.526 9.596-2.793h18.637l9.596 2.793-18.915 66.8zm-17.243-28.477c0-.55.29-.883.533-1.065.179-.135.445-.271.785-.271.12 0 .249.017.387.057l19.423 5.653v12.558l-19.422 5.652c-.528.153-.93-.031-1.172-.214-.243-.183-.533-.516-.533-1.065v-21.305zm31.127 5.622h10.062v10.062h-10.062zm20.062 11.31v-12.558l19.422-5.653c.529-.152.93.031 1.172.214.243.183.533.516.533 1.065v21.305c0 .55-.29.883-.533 1.065-.243.183-.644.366-1.172.214zm13.509-26.904-17.661 5.141-2.375-1.28 21.662-20.213 4.823 5.305zm-3.082-25.637-25.458 23.755-25.458-23.755v-.992c8.04 2.536 16.591 3.91 25.458 3.91s17.418-1.374 25.458-3.91zm-33.962 29.497-2.375 1.28-17.661-5.141-6.45-11.048 4.823-5.305zm113.136-129.771c0 8.391-6.827 15.218-15.217 15.218h-4.619v-30.436h4.619c8.39 0 15.217 6.827 15.217 15.218zm-194.703-68.116c0-21.014 15.701-38.861 36.521-41.515 1.56-.199 2.935-1.119 3.713-2.485 6.839-12.006 19.652-19.464 33.439-19.464h36.472c38.596 0 69.996 31.399 69.996 69.995v36.383c-.219-.006-.436-.017-.656-.017h-8.464l-7.196-3.757c-5.477-2.858-8.879-8.473-8.879-14.651v-5.746c0-1.451-.63-2.83-1.727-3.78-1.097-.949-2.549-1.377-3.988-1.168-66.248 9.573-115.723-23.323-116.21-23.654-1.531-1.042-3.513-1.15-5.151-.286-1.638.866-2.662 2.567-2.662 4.42v30.171c0 6.179-3.402 11.793-8.879 14.651l-7.281 3.801h-8.392c-.22 0-.437.011-.656.017zm-14.562 68.116c0-8.391 6.827-15.218 15.217-15.218h4.619v30.436h-4.619c-8.39-.001-15.217-6.828-15.217-15.218zm29.836 18.396v-35.584l5.682-2.966c8.791-4.589 14.251-13.601 14.251-23.517v-21.37c16.455 9.008 57.315 27.261 109.739 21.352v.063c0 9.917 5.461 18.928 14.251 23.517l5.669 2.96v35.545c0 41.243-33.554 74.797-74.796 74.797s-74.796-33.555-74.796-74.797zm-37.11 150.078c0-21.494 16.012-39.894 38.074-43.75l10.353-1.811-1.382 49.386c-.035 1.246.397 2.461 1.212 3.405l14.851 17.215-9.75 19.938c-1.066 2.181-.412 4.813 1.552 6.24l53.939 39.214c.876.638 1.908.956 2.94.956s2.063-.318 2.94-.956l53.939-39.214c1.964-1.428 2.618-4.06 1.552-6.24l-9.75-19.938 14.851-17.215c.815-.943 1.247-2.158 1.212-3.405l-1.378-49.426 10.587 1.851c22.062 3.856 38.074 22.256 38.074 43.75v116.897h-31.215v-76.718c0-2.762-2.239-5-5-5s-5 2.238-5 5v76.718h-141.386v-76.718c0-2.762-2.239-5-5-5s-5 2.238-5 5v76.718h-31.215zm414.353 186.899h-486.952v-60.001h486.952z"/></g></g></g></g></svg>