<svg id="Layer_1" enable-background="new 0 0 512 512" viewBox="0 0 512 512" xmlns="http://www.w3.org/2000/svg"><g><path d="m509.95 198.22c5.73-30.13-12.81-58.84-38.09-43.23-19.5 12.01-26.99 55.72-8.58 70.46l-10.7 41.53h-9.32l-4.82-40.21c7.36-5.3 11.71-14.62 11.28-24.79.01 0-1.76-50.42-1.75-50.43-.22-6.95-10.83-6.5-10.6.37 0 0 1.59 45.14 1.59 45.14l-8.9.26-1.85-45.77c-.11-2.91-2.7-5.19-5.51-5.09-2.91.11-5.19 2.6-5.09 5.51l1.85 45.61-8.85.26-2.01-44.77c-.31-6.82-10.88-6.46-10.54.48 0 0 2.17 49.96 2.17 49.96.39 9.69 5.27 19.31 13.35 24.32l-.48 14.04c-.88-6.66-7.19-11.81-13.88-10.86l-14.46-91.7c15.58-4.45 25.8-20.71 23.1-37.77l-8.58-54.57c-.37-2.83-3.36-4.99-6.14-4.4 0 0-69.51 12.29-69.51 12.29-2.86.53-4.77 3.23-4.29 6.04l8.58 54.57c2.18 16.16 17.24 29.45 33.48 27.87l14.41 91.81c-6.62 1.38-11.07 7.95-9.91 14.83l2.65 17.01h-4.93c-2.91 0-5.3 2.38-5.3 5.3v75.44c-2.52-3.9-7.12-5.99-11.87-5.62-1.38-3.92-3.23-7.58-5.46-10.81v-93.5c10.77 1 20.33-7.46 20.29-18.75v-14.52c0-10.38-8.11-18.81-18.07-18.81h-5.62c-9.01-29.93-35.39-50.54-65.53-50.54h-68.55v-14.52c0-12.34-10.07-22.41-22.41-22.41-12.29 0-22.36 10.07-22.36 22.41v14.52h-68.53c-30.14 0-56.53 20.61-65.59 50.54h-5.56c-9.95 0-18.06 8.43-18.06 18.81v14.52c-.04 11.26 9.48 19.74 20.24 18.75v186.37c0 23.26 18.01 42.12 40.16 42.12h128.74c5.03 2.07 10.49 3.23 16.21 3.23h97c25.16 0 45.67-21.56 45.67-48.05v-14.94h9.32v27.23c0 17.96 13.93 32.53 30.99 32.53h79.36c17.11 0 30.99-14.57 30.99-32.53v-161.47c0-2.91-2.33-5.3-5.3-5.3h-10.22l3.66-36.82c11.01-4.08 19.33-15.89 22.13-31.95zm-340.59-77.55c.42-15.61 23.17-15.55 23.57 0v13.77h-23.57zm-79.15 25.11h181.87c24.42 0 45.98 16.11 54.46 39.95h-290.79c8.48-23.85 30.04-39.95 54.46-39.95zm-71.15 81.42c-4.13 0-7.47-3.66-7.47-8.16v-14.52c0-4.56 3.34-8.21 7.47-8.21h324.17c4.13 0 7.47 3.66 7.47 8.21v14.52c0 4.5-3.34 8.16-7.47 8.16zm129.96 133.88c-.61 7.31 3.92 14.81 11.66 15.42v21.67h-128.85v-160.37h298.58v82.7c-15.68-12-43.23-6.27-60.45-7.42v-6.15c5.71-1.3 13.35-5.32 11.5-12.34-4.03-9.37-16.63-9.39-26.59-9.91-7.36 0-16.21.53-22.52 4.66-9.77 6.74-1.66 16.18 7.36 17.59v6.15h-37.14c-17.86 0-33.7 12.41-39.36 29.03-11.12-.78-15.4 9.3-14.19 18.97zm101.24-63.2c-1.54-.11-2.97-.26-4.4-.48-1.19-.26-2.46-.42-3.6-.74 5.32-1.74 19.78-1.77 25.11 0-1.16.26-2.2.5-3.55.69l-.05.05c-4.19.63-9.01.79-13.51.48zm9.06 10.59v4.13h-9.01v-4.13c3 .18 5.97.19 9.01 0zm-82.38 30.04c7.12-13.23 22.74-15.71 36.34-15.15 22.57.37 45.14.26 67.7.32 19.45-.89 44.77-2.9 54.09 18.44 0 0-160.31 0-160.36 0 .11-.01 1.17-1.81 2.23-3.61zm-115.55 117.18c-16.32 0-29.56-14.14-29.56-31.52v-15.42h128.84v12.71c0 13.19 5.03 25.38 13.61 34.22h-112.89zm277.02-54.4v20.18c0 20.66-15.73 37.46-35.07 37.46h-97c-13.51 0-25.01-8.21-30.78-20.24-9.21-19.41-1.61-41.67-4.45-62.09 4.56 0 9.16-.05 13.72-.05v35.87c0 2.97 2.38 5.3 5.3 5.3s5.3-2.33 5.3-5.3v-35.87h142.99s0 5.67-.05 5.72c-.01 0-.01 18.96.04 19.02zm9.59-35.34h-181.92c-.05 0-.05 0-.11 0h-4.29c-.58 0-1.06-.26-1.43-.74-.35-.5-.56-1.05-.58-1.7-.12-.51-.03-9.15.16-9.32.33-.83.95-1.47 1.86-1.48h186.32c1.11 0 2.07 1.11 2.07 2.44v8.37c-.01 1.32-.97 2.43-2.08 2.43zm10.33 29.99h-9.32v-8.37h9.32zm0-18.97h-9.32v-.53c3.87-.32 7.26-2.38 9.32-5.51zm53.4-168.52 26.97-.79c-3.46 16.44-22.37 17.2-26.97.79zm20.82 58.54h-9.64l1.17-35.87c1.33.02 2.87 0 4.18-.21zm-36.66-24.69c2.41-.15 6.08-2.25 6.78 1.17 0 0 3.66 23.52 3.66 23.52h-27.02l-2.97-18.65c-.21-1.32.58-2.7 1.75-2.86 3.21-.56 14.41-2.62 17.8-3.18zm-31.04-110.03c-12.23 3.38-24.86-5.89-26.44-18.44 0 0-7.79-49.43-7.79-49.43l59.02-10.44 7.79 49.22c1.96 12.5-5.93 24.37-17.59 26.44-.91.09-13.64 2.38-14.94 2.6-.05.05-.05.05-.05.05zm6.99 9.53 2.54-.48 14.41 91.44-2.54.48zm-2.91 242.59c1.49-1.19 3.49-4.64 5.67-4.4h96.63c4.12-.01 7.72 3.32 7.95 7.52.27 4.14-2.97 8.44-7.15 8.42h-58.7c-1.43 0-2.81.58-3.81 1.64l-13.14 13.93c-.85.85-1.96 1.38-3.07 1.38h-20.08c-2.33 0-4.29-2.23-4.29-4.87v-23.62zm120.15 49.37c0 12.08-9.11 21.93-20.4 21.93h-79.36c-11.23 0-20.4-9.85-20.4-21.93v-10.96c2.65 1.24 21.21.51 24.37.69 9.24.38 15.68-10.79 22.36-16.95h53.4c9.13.24 17.55-4.53 20.03-13.62zm0-50.75c-3.43-12.58-16.09-13.98-27.07-13.61h-87.41c-.95 0-1.96.11-2.86.32-.95.26-1.87.5-2.81.9v-62.67h120.15zm0-105.43v19.76h-120.15v-19.76zm-25.53-10.59 9.32-36.13c1.36.35 2.75.62 4.13.79l-3.5 35.34zm9.48-47.52c-19.75-10.72-7.51-60.04 14.09-58.12 9.75 1.91 15.42 17.96 12.4 35.07-2.02 11.55-11.61 30.78-26.49 23.05z"/><g fill="#fed2a4"><path d="m259.32 308.47v4.13h-9.01v-4.13c3 .18 5.97.19 9.01 0z"/><path d="m267.37 296.66c-1.16.26-2.2.5-3.55.69l-.05.05c-5.58.84-12.14.86-17.91 0-1.19-.26-2.46-.42-3.6-.74 5.32-1.75 19.78-1.77 25.11 0z"/><path d="m388.79 232.77-2.54.47-14.41-91.44 2.54-.47z"/><path d="m432.55 266.99h-9.64l1.17-35.87c1.33.02 2.87 0 4.18-.21z"/><path d="m477 231.65-3.5 35.34h-9.96l9.32-36.13c1.37.35 2.76.62 4.14.79z"/><path d="m499.52 196.42c-7.32 37.79-42.18 29.73-35.6-7.31 7.39-39 41.47-36.96 35.6 7.31z"/><path d="m438.7 207.66c-3.46 16.45-22.37 17.2-26.97.79z"/><path d="m397.43 103.18-7.79-49.22-59.01 10.44 7.79 49.43c1.56 12.53 14.31 21.94 26.49 18.38 1.34-.23 14.02-2.48 14.94-2.6 11.65-2.06 19.54-13.92 17.58-26.43zm-38.94 12.67c-2.83.43-5.63-1.49-6.09-4.4l-4.29-27.28c-.42-2.91 1.54-5.62 4.4-6.09 2.91-.48 5.62 1.54 6.09 4.4l4.29 27.28c.48 2.91-1.54 5.61-4.4 6.09zm20.56-3.66c-2.84.43-5.59-1.52-6.04-4.4 0 0-4.29-27.28-4.29-27.28-.48-2.91 1.48-5.62 4.4-6.09 2.86-.42 5.62 1.54 6.04 4.45l4.34 27.28c.42 2.86-1.54 5.56-4.45 6.04z"/></g><path d="m192.94 120.67v13.77h-23.57v-13.77c.41-15.61 23.16-15.55 23.57 0z" fill="#dd4558"/><path d="m489.08 392.92v40.85c0 12.08-9.11 21.93-20.4 21.93h-79.36c-11.23 0-20.4-9.85-20.4-21.93v-10.97c2.65 1.24 21.21.51 24.37.69 9.24.38 15.68-10.79 22.36-16.95h53.4c9.14.23 17.56-4.53 20.03-13.62z" fill="#f2f3f4"/><path d="m489.08 307.94v75.07c-3.43-12.58-16.09-13.98-27.07-13.61h-87.41c-.95 0-1.96.11-2.86.32-.95.26-1.87.5-2.81.9v-62.67h120.15z" fill="#f2f3f4"/><path d="m335.08 342.11s-160.31 0-160.36 0c.11 0 1.17-1.8 2.22-3.6 7.12-13.23 22.74-15.71 36.34-15.15 22.57.37 45.14.26 67.7.32 19.46-.9 44.78-2.91 54.1 18.43z" fill="#f2f3f4"/><path d="m338.41 376.55h-142.98v35.87c0 2.97-2.38 5.3-5.3 5.3s-5.3-2.33-5.3-5.3v-35.87c-4.56 0-9.16.05-13.72.05 2.84 20.42-4.76 42.69 4.45 62.09 5.78 12.03 17.27 20.24 30.78 20.24h97c19.34 0 35.07-16.79 35.07-37.46v-20.18c-.05-.05-.05-19.02-.05-19.02.05-.05.05-5.72.05-5.72zm-132.07 74.01c-6.68.67-26.89-7.31-19.5-16.1 2.12-2.01 5.46-1.91 7.47.21 3.23 3.39 7.52 5.3 12.03 5.3 6.95.12 6.96 10.45 0 10.59z" fill="#f2f3f4"/><path d="m368.93 277.58h120.15v19.76h-120.15z" fill="#dd4558"/><path d="m406.33 266.99h-27.02l-2.97-18.65c-.48-3.71 4.16-3 6.46-3.71.11 0 12.98-2.37 13.08-2.33.91 0 5.08-1.36 5.77-.48.32.21.85.74 1.01 1.64z" fill="#61afa5"/><path d="m174.29 455.69h-112.9c-16.32 0-29.56-14.14-29.56-31.52v-15.42h128.84v12.71c0 13.2 5.04 25.39 13.62 34.23z" fill="#61afa5"/><path d="m350.7 204.53v14.52c0 4.5-3.34 8.16-7.47 8.16h-324.17c-4.13 0-7.47-3.66-7.47-8.16v-14.52c0-4.56 3.34-8.21 7.47-8.21h324.17c4.14 0 7.47 3.65 7.47 8.21z" fill="#61afa5"/><path d="m479.17 387.51c.27 4.14-2.97 8.44-7.15 8.42h-58.7c-1.43 0-2.81.58-3.81 1.64l-13.14 13.93c-.85.85-1.96 1.38-3.07 1.38h-20.08c-2.33 0-4.29-2.23-4.29-4.87v-23.63c1.51-1.22 3.48-4.61 5.67-4.4h96.63c4.12 0 7.72 3.33 7.94 7.53z" fill="#f6a96c"/><path d="m350.07 355.14v8.37c0 1.32-.95 2.44-2.07 2.44-.01 0-182 0-182.03 0h-4.29c-.58 0-1.06-.26-1.43-.74-1.18-.95-.34-8.76-.58-10.07-.02-1.15.79-2.44 2.01-2.44h186.32c1.11.01 2.07 1.12 2.07 2.44z" fill="#f6a96c"/><path d="m326.55 185.72h-290.8c8.48-23.84 30.04-39.95 54.46-39.95h181.87c24.43.01 45.99 16.11 54.47 39.95z" fill="#fed2a4"/><path d="m330.41 237.8v82.7c-15.68-12-43.23-6.27-60.45-7.42v-6.15c5.71-1.3 13.35-5.32 11.5-12.34-4.03-9.37-16.63-9.39-26.59-9.91-7.36 0-16.21.53-22.52 4.66-9.77 6.74-1.66 16.18 7.36 17.59v6.15h-37.14c-17.86 0-33.7 12.41-39.36 29.03-11.13-.78-15.4 9.29-14.2 18.97-.61 7.31 3.91 14.81 11.65 15.42v21.67h-128.83v-160.37z" fill="#fed2a4"/><path d="m211.64 445.26c-1.48 11.38-20.62 2.22-25.06-3.34-4.67-5.04 2.95-12.26 7.73-7.26 3.23 3.39 7.52 5.3 12.03 5.3 2.91 0 5.3 2.38 5.3 5.3z"/><path d="m362.89 109.75c.98 6.9-9.22 8.55-10.49 1.7 0 0-4.29-27.28-4.29-27.28-.91-6.93 9.23-8.55 10.49-1.7 0 0 4.29 27.28 4.29 27.28z"/><path d="m383.5 106.15c.91 6.82-9.25 8.5-10.49 1.64 0 0-4.29-27.28-4.29-27.28-1.11-6.86 9.36-8.53 10.44-1.64-.01 0 4.34 27.28 4.34 27.28z"/></g></svg>