<svg enable-background="new 0 0 512 512" height="512" viewBox="0 0 512 512" width="512" xmlns="http://www.w3.org/2000/svg"><g id="_x32_5_Gas_Stove"><g><g><path d="m503.019 108.762v294.475c0 16.289-13.205 29.495-29.495 29.495h-435.048c-16.289 0-29.495-13.205-29.495-29.495v-294.475c0-16.289 13.205-29.495 29.495-29.495h435.049c16.289.001 29.494 13.206 29.494 29.495z" fill="#f9fffb"/><path d="m210.918 207.639c0 44.745-36.309 81.054-81.054 81.054-44.841 0-81.054-36.309-81.054-81.054 0-44.841 36.213-81.149 81.054-81.149 44.745 0 81.054 36.309 81.054 81.149z" fill="#ff7375"/><path d="m463.191 207.639c0 44.745-36.309 81.054-81.054 81.054-44.841 0-81.054-36.309-81.054-81.054 0-44.841 36.213-81.149 81.054-81.149 44.745 0 81.054 36.309 81.054 81.149z" fill="#ff7375"/><path d="m163.642 207.612c0 18.647-15.131 33.779-33.779 33.779-18.687 0-33.779-15.131-33.779-33.779 0-18.687 15.092-33.818 33.779-33.818 18.648 0 33.779 15.131 33.779 33.818z" fill="#f9fffb"/><path d="m415.915 207.612c0 18.647-15.131 33.779-33.779 33.779-18.687 0-33.779-15.131-33.779-33.779 0-18.687 15.092-33.818 33.779-33.818 18.648 0 33.779 15.131 33.779 33.818z" fill="#f9fffb"/><path d="m147.167 391c0 12.756-10.323 23.08-23.08 23.08-12.682 0-23.006-10.323-23.006-23.08s10.323-23.08 23.006-23.08c12.757.001 23.08 10.324 23.08 23.08z" fill="#60f5f5"/><path d="m279.043 391c0 12.756-10.323 23.08-23.08 23.08-12.682 0-23.006-10.323-23.006-23.08s10.323-23.08 23.006-23.08c12.757.001 23.08 10.324 23.08 23.08z" fill="#60f5f5"/><path d="m410.918 391c0 12.756-10.323 23.08-23.08 23.08-12.682 0-23.006-10.323-23.006-23.08s10.323-23.08 23.006-23.08c12.757.001 23.08 10.324 23.08 23.08z" fill="#60f5f5"/><g fill="#172c37"><path d="m473.527 71.3h-435.054c-20.652 0-37.461 16.804-37.461 37.461v294.479c0 20.656 16.808 37.461 37.461 37.461h435.053c20.652 0 37.461-16.804 37.461-37.461 0-67.928 0-192.121 0-294.479 0-20.657-16.808-37.461-37.46-37.461zm-435.054 15.937h435.053c11.867 0 21.524 9.657 21.524 21.524v232.541h-478.101v-232.541c0-11.867 9.657-21.524 21.524-21.524zm456.578 316.002c0 11.867-9.657 21.524-21.524 21.524h-435.054c-11.867 0-21.524-9.657-21.524-21.524v-46.001h478.101v46.001z"/><path d="m61.854 264.962-12.86 12.862c-3.113 3.113-3.113 8.155 0 11.268s8.155 3.113 11.268 0l12.888-12.889c15.412 12.771 35.179 20.461 56.711 20.461 21.536 0 41.304-7.69 56.718-20.461l8.788 8.789c3.113 3.113 8.155 3.113 11.268 0 3.113-3.109 3.113-8.155 0-11.268l-8.76-8.761c13.088-15.502 21.016-35.492 21.016-57.321 0-21.861-7.935-41.882-21.033-57.403l8.777-8.776c3.113-3.113 3.113-8.155 0-11.268s-8.155-3.113-11.268 0l-8.801 8.8c-15.411-12.778-35.175-20.472-56.705-20.472-21.527 0-41.289 7.694-56.699 20.472l-8.799-8.8c-3.113-3.113-8.155-3.113-11.268 0s-3.113 8.155 0 11.268l8.776 8.777c-13.096 15.521-21.032 35.54-21.032 57.402 0 21.828 7.928 41.818 21.015 57.32zm21.122-93.614c3.113 3.113 8.155 3.113 11.268 0 3.113-3.109 3.113-8.155 0-11.268l-9.727-9.727c12.473-9.92 28.213-15.893 45.343-15.893s32.87 5.973 45.345 15.893l-9.729 9.728c-3.113 3.109-3.113 8.155 0 11.268s8.155 3.113 11.268 0l9.811-9.809c10.237 12.595 16.398 28.637 16.398 46.103 0 17.433-6.155 33.443-16.38 46.018l-10.521-10.522c-3.113-3.113-8.155-3.113-11.268 0-3.113 3.109-3.113 8.155 0 11.268l10.438 10.439c-12.478 9.913-28.224 15.883-45.361 15.883-17.136 0-32.88-5.968-45.356-15.881l6.899-6.9c3.113-3.113 3.113-8.155 0-11.268s-8.155-3.113-11.268 0l-6.983 6.984c-10.225-12.575-16.378-28.586-16.378-46.02 0-17.465 6.16-33.507 16.394-46.102z"/><path d="m129.86 249.358c23.018 0 41.748-18.726 41.748-41.748 0-23.041-18.73-41.783-41.748-41.783s-41.74 18.742-41.74 41.783c0 23.022 18.722 41.748 41.74 41.748zm0-67.594c14.233 0 25.812 11.595 25.812 25.847 0 14.233-11.579 25.812-25.812 25.812-14.225 0-25.804-11.579-25.804-25.812.001-14.253 11.58-25.847 25.804-25.847z"/><path d="m314.126 264.961-12.86 12.862c-3.113 3.113-3.113 8.155 0 11.268s8.155 3.113 11.268 0l12.888-12.89c15.413 12.771 35.182 20.462 56.718 20.462 21.532 0 41.299-7.69 56.711-20.461l8.787 8.788c3.113 3.113 8.155 3.113 11.268 0 3.113-3.109 3.113-8.155 0-11.268l-8.759-8.761c13.087-15.502 21.015-35.492 21.015-57.321 0-21.861-7.935-41.881-21.032-57.402l8.776-8.777c3.113-3.113 3.113-8.155 0-11.268s-8.155-3.113-11.268 0l-8.799 8.8c-15.41-12.778-35.172-20.472-56.699-20.472-21.53 0-41.294 7.694-56.705 20.472l-8.801-8.8c-3.113-3.113-8.155-3.113-11.268 0s-3.113 8.155 0 11.268l8.777 8.776c-13.098 15.521-21.033 35.541-21.033 57.403 0 21.829 7.928 41.82 21.016 57.321zm21.13-93.613c3.113 3.113 8.155 3.113 11.268 0s3.113-8.159 0-11.268l-9.729-9.728c12.475-9.92 28.215-15.893 45.345-15.893s32.869 5.973 45.343 15.893l-9.727 9.727c-3.113 3.113-3.113 8.159 0 11.268 3.113 3.113 8.155 3.113 11.268 0l9.807-9.808c10.234 12.595 16.394 28.637 16.394 46.102 0 17.434-6.153 33.445-16.378 46.02l-10.523-10.524c-3.113-3.113-8.155-3.113-11.268 0-3.113 3.109-3.113 8.155 0 11.268l10.44 10.44c-12.475 9.912-28.219 15.881-45.356 15.881s-32.884-5.969-45.361-15.883l6.897-6.898c3.113-3.113 3.113-8.155 0-11.268s-8.155-3.113-11.268 0l-6.981 6.982c-10.225-12.575-16.38-28.585-16.38-46.018 0-17.465 6.161-33.508 16.398-46.103z"/><path d="m382.14 249.358c23.018 0 41.74-18.726 41.74-41.748 0-23.041-18.723-41.783-41.74-41.783-23.018 0-41.748 18.742-41.748 41.783-.001 23.022 18.73 41.748 41.748 41.748zm0-67.594c14.225 0 25.804 11.595 25.804 25.847 0 14.233-11.579 25.812-25.804 25.812-14.233 0-25.812-11.579-25.812-25.812 0-14.253 11.579-25.847 25.812-25.847z"/><path d="m124.086 422.048c17.119 0 31.049-13.929 31.049-31.049s-13.929-31.045-31.049-31.045c-17.081 0-30.971 13.925-30.971 31.045s13.891 31.049 30.971 31.049zm0-46.157c8.334 0 15.112 6.778 15.112 15.108 0 8.334-6.778 15.112-15.112 15.112-8.287 0-15.034-6.778-15.034-15.112 0-8.33 6.747-15.108 15.034-15.108z"/><path d="m255.961 422.048c17.12 0 31.049-13.929 31.049-31.049s-13.929-31.045-31.049-31.045c-17.081 0-30.971 13.925-30.971 31.045s13.89 31.049 30.971 31.049zm0-46.157c8.334 0 15.112 6.778 15.112 15.108 0 8.334-6.778 15.112-15.112 15.112-8.287 0-15.034-6.778-15.034-15.112 0-8.33 6.747-15.108 15.034-15.108z"/><path d="m387.836 422.048c17.12 0 31.049-13.929 31.049-31.049s-13.929-31.045-31.049-31.045c-17.081 0-30.971 13.925-30.971 31.045s13.89 31.049 30.971 31.049zm0-46.157c8.334 0 15.112 6.778 15.112 15.108 0 8.334-6.778 15.112-15.112 15.112-8.287 0-15.034-6.778-15.034-15.112 0-8.33 6.746-15.108 15.034-15.108z"/></g></g></g></g></svg>