<svg id="Layer_1" enable-background="new 0 0 64 64" height="64" viewBox="0 0 64 64" width="64" xmlns="http://www.w3.org/2000/svg"><g id="restaurant"><g><path d="m32 54.5c-11.304 0-20.5-9.196-20.5-20.5s9.196-20.5 20.5-20.5 20.5 9.196 20.5 20.5-9.196 20.5-20.5 20.5z" fill="#fff"/></g><g><path d="m32 48.5c-7.995 0-14.5-6.505-14.5-14.5s6.505-14.5 14.5-14.5 14.5 6.505 14.5 14.5-6.505 14.5-14.5 14.5z" fill="#fff"/></g><g><path d="m58.5 33.361c-1.416-.49-5-2.596-5-11.361 0-10.819 3.518-14.23 5-15.187z" fill="#fff"/></g><g><path d="m33 48c-7.72 0-14-6.281-14-14s6.28-14 14-14 14 6.281 14 14-6.28 14-14 14z" fill="#18ffff"/></g><g><path d="m33 14c-11.028 0-20 8.973-20 20s8.972 20 20 20 19-8.973 19-20-7.972-20-19-20zm-1 34c-7.72 0-14-6.281-14-14s6.28-14 14-14 14 6.281 14 14-6.28 14-14 14z" fill="#84ffff"/></g><g><path d="m6 20h1v1 12.749.032l-.002.031c-.607 9.604-.998 21.47-.998 22.313 0 .827.673 1.5 1.5 1.5s1.5-.673 1.5-1.5c0-.843-.391-12.709-.998-22.313l-.002-.031v-.032-12.749-1h1c.552 0 1-.449 1-1v-1h-5v1c0 .551.448 1 1 1z" fill="#84ffff"/></g><g><g><path d="m59 32h-3v24.677c0 .828.659 1.476 1.5 1.476.827 0 1.5-.675 1.5-1.503 0-.71 0-24.65 0-24.65z" fill="#84ffff"/></g><g><path d="m59 31v-23.135c-1.572 1.496-4 5.244-4 14.135 0 4.764 1.075 7.465 2.241 9z" fill="#84ffff"/></g></g><g><g><path d="m32 13c-11.598 0-21 9.401-21 21s9.402 21 21 21 21-9.401 21-21-9.402-21-21-21zm0 41c-11.028 0-20-8.973-20-20s8.972-20 20-20 20 8.973 20 20-8.972 20-20 20z" fill="#37474f"/></g><g><path d="m32 19c-8.283 0-15 6.717-15 15s6.717 15 15 15 15-6.717 15-15-6.717-15-15-15zm0 29c-7.72 0-14-6.28-14-14s6.28-14 14-14 14 6.28 14 14-6.28 14-14 14z" fill="#37474f"/></g><g><path d="m11 19v-1.25-.75-10c0-.55-.225-1-.5-1s-.5.45-.5 1v10h-1v-10c0-.55-.225-1-.5-1s-.5.45-.5 1v10h-1v-10c0-.55-.225-1-.5-1s-.5.45-.5 1v10h-1v-10c0-.55-.225-1-.5-1s-.5.45-.5 1v10 .75 1.25c0 1.104.896 2 2 2v12.749c-.607 9.609-1 21.558-1 22.376 0 1.381 1.12 2.5 2.5 2.5s2.5-1.119 2.5-2.5c0-.818-.393-12.767-1-22.376v-12.749c1.104 0 2-.896 2-2zm-2.998 14.813c.607 9.603.998 21.469.998 22.312 0 .827-.673 1.5-1.5 1.5s-1.5-.673-1.5-1.5c0-.843.391-12.709.998-22.313l.002-.031v-.032-12.749-1h-1c-.552 0-1-.449-1-1v-1h5v1c0 .551-.448 1-1 1h-1v1 12.749.032z" fill="#37474f"/></g><g><path d="m59.015 33.351c-.005 0-.01 0-.015 0v-2.566-.434-25s-6 1.834-6 16c0 5.668 1.499 8.659 3 10.242v1.758c-.003 0-.007 0-.01 0-.602 9-.99 21.863-.99 22.677 0 1.381 1.12 2.476 2.5 2.476s2.5-1.123 2.5-2.504c0-.812-.387-12.649-.985-22.649zm-1.015-26.135v23.135h-1.759c-1.166-1.535-2.241-4.236-2.241-9 0-8.891 2.428-12.639 4-14.135zm-.5 50.287c-.841 0-1.5-.647-1.5-1.476 0-.881.373-12.962.927-21.677h.073v-1-2h1v2l.015 1h.058c.566 9.754.927 20.941.927 21.65 0 .828-.673 1.503-1.5 1.503z" fill="#37474f"/></g></g><g><path d="m32 46c-.276 0-.5-.224-.5-.5s.224-.5.5-.5c6.065 0 11-4.935 11-11 0-.276.224-.5.5-.5s.5.224.5.5c0 6.617-5.383 12-12 12z" fill="#37474f"/></g></g></svg>