<svg id="Layer_1" height="512" viewBox="0 0 256 256" width="512" xmlns="http://www.w3.org/2000/svg"><g><g><path d="m48.705 139.05c-1.326.023-2.677-.264-3.946-.896-4.215-2.102-5.929-7.222-3.827-11.437l19.699-39.51c.932-1.869 2.517-3.331 4.456-4.109l25.045-10.053c4.369-1.755 9.336.367 11.09 4.737 1.754 4.371-.366 9.336-4.737 11.09l-22.036 8.846-18.252 36.608c-1.47 2.946-4.414 4.67-7.492 4.724z" fill="#6377e7"/></g><path d="m67.222 178.896 10.985 12.133-6.38 5.688-.601 9.309 3.239 7.138c1.012 2.23.456 4.859-1.372 6.488l-22.847-25.634z" fill="#f46275"/><path d="m67.222 178.896-16.975 15.122 6.652 7.464 16.924-15.296z" fill="#f43075"/><g><path d="m53.931 190.734 7.819 8.772c.242.271.57.45.928.506l8.846 1.396.204-3.152-8.008-1.259-7.445-8.353z" fill="#3f3679"/></g><g><path d="m153.597 188.666 15.736-4.54 2.382 8.137 8.154 4.533 7.838.132c2.448.041 4.585 1.67 5.274 4.02l-32.951 9.659z" fill="#f46275"/><g><path d="m158.641 205.868 11.277-3.305c.348-.102.651-.322.855-.622l5.052-7.394-2.761-1.535-4.569 6.696-10.738 3.147z" fill="#3f3679"/></g></g><g><path d="m150 189.703-11.965-41.469-36.636-4.86c-6.212-.829-10.578-6.527-9.755-12.738.824-6.211 6.527-10.578 12.738-9.755l43.989 5.836c4.475.589 8.159 3.773 9.409 8.102l14.021 48.595z" fill="#cecece"/></g><g><path d="m64.81 176.236 28.775-26.407-8.45-40.345c-1.284-6.132 2.646-12.145 8.779-13.429 6.133-1.286 12.144 2.645 13.43 8.778l9.782 46.711c.827 3.943-.501 8.028-3.487 10.734l-33.596 30.774z" fill="#cecece"/></g><g><path d="m99.802 109.484c-.882-4.214.698-8.371 3.762-10.976-2.578-2.179-6.09-3.199-9.65-2.453-6.133 1.284-10.063 7.296-8.779 13.429l8.45 40.345-28.775 26.407 6.658 7.35 36.784-33.757z" fill="#afafaf"/></g><path d="m109.645 47.825h13.304v20.178h-13.304z" fill="#f87023" transform="matrix(.978 .209 -.209 .978 14.702 -23.064)"/><path d="m124.266 122.848-42.35-9.067 9.036-42.202c1.248-5.829 6.986-9.543 12.815-8.295l21.239 4.547c5.829 1.248 9.543 6.986 8.295 12.815z" fill="#63bce7"/><path d="m110.426 64.709-6.658-1.426c-5.829-1.248-11.567 2.466-12.815 8.295l-9.036 42.202 14.078 3.014 9.624-45.216c.634-2.962 2.431-5.373 4.807-6.869z" fill="#6377e7"/><circle cx="123.469" cy="39.594" fill="#f8af23" r="19.462"/><path d="m118.677 39.933c-.144-8.277 4.91-15.419 12.146-18.358-2.371-.969-4.971-1.487-7.693-1.44-10.747.188-19.307 9.052-19.119 19.798.187 10.747 9.051 19.307 19.798 19.12 2.47-.043 4.814-.563 6.973-1.44-6.986-2.855-11.965-9.656-12.105-17.68z" fill="#f87023"/><path d="m146.697 37.275c-.224-12.847-10.82-23.079-23.666-22.855-12.847.224-23.079 10.82-22.855 23.666z" fill="#63bce7"/><g><path d="m130.762 15.599c-2.428-.805-5.029-1.226-7.732-1.179-12.847.224-23.079 10.82-22.855 23.667l14.669-.256c-.068-10.315 6.597-19.136 15.918-22.232z" fill="#6377e7"/></g><g><path d="m107.298 90.379c-3.636-2.753-4.472-7.911-1.838-11.681 2.698-3.86 8.015-4.803 11.875-2.105l34.375 24.023 33.419-17.464c4.175-2.181 9.327-.564 11.507 3.608 2.182 4.174.566 9.326-3.608 11.507l-38.008 19.862c-2.82 1.474-6.226 1.255-8.835-.568l-38.62-26.989c-.091-.062-.18-.127-.267-.193z" fill="#63bce7"/></g><g><path d="m183.017 230.611h-132.77c-2.761 0-5-2.238-5-5s2.239-5 5-5h132.77c8.934 0 16.202-7.269 16.202-16.202 0-2.762 2.239-5 5-5s5 2.238 5 5c0 14.448-11.755 26.202-26.202 26.202z" fill="#cecece"/></g><g fill="#3f3679"><path d="m27.323 240.084h-18.003c-.828 0-1.5.672-1.5 1.5s.672 1.5 1.5 1.5h18.003c.828 0 1.5-.672 1.5-1.5s-.672-1.5-1.5-1.5z"/><path d="m246.68 240.084h-18.003c-.828 0-1.5.672-1.5 1.5s.672 1.5 1.5 1.5h18.003c.828 0 1.5-.672 1.5-1.5s-.672-1.5-1.5-1.5z"/><path d="m218.479 240.084h-180.958c-.828 0-1.5.672-1.5 1.5s.672 1.5 1.5 1.5h180.959c.828 0 1.5-.672 1.5-1.5s-.672-1.5-1.501-1.5z"/><path d="m9.32 232.111h40.926 132.771 63.663c.828 0 1.5-.672 1.5-1.5s-.672-1.5-1.5-1.5h-16.557l-3.936-14.73 9.487-2.725c.796-.229 1.257-1.06 1.027-1.855-.229-.798-1.061-1.256-1.855-1.027l-9.433 2.709-30.162-112.879c3.737-2.92 4.988-8.187 2.715-12.538-1.55-2.965-4.389-4.823-7.472-5.268l-3.025-11.319c-.215-.8-1.036-1.273-1.837-1.062-.8.214-1.275 1.036-1.062 1.837l2.826 10.575c-1.009.171-2.008.495-2.962.994l-32.612 17.042-18.169-12.698 1.115-5.208c.688-3.212.083-6.498-1.701-9.255s-4.535-4.654-7.746-5.342l-2.387-.511 1.138-5.316c11.444-.33 20.555-9.832 20.355-21.308-.003-.139-.014-.275-.019-.414l2.314-.04 9.59-.167c.828-.015 1.488-.698 1.474-1.526-.015-.819-.684-1.474-1.499-1.474-.009 0-.019 0-.027 0l-8.139.142c-.465-6.042-3.085-11.636-7.482-15.883-4.758-4.595-11.01-7.029-17.635-6.946-6.613.115-12.786 2.799-17.382 7.558-4.595 4.758-7.062 11.021-6.946 17.635.015.819.684 1.474 1.499 1.474h.027l2.317-.041c0 .139-.01.275-.008.415.096 5.497 2.299 10.626 6.19 14.492l-1.71 7.987-2.909-.623c-6.634-1.417-13.176 2.82-14.597 9.447l-.099.464-24.859 9.978c-1.365.548-2.574 1.386-3.564 2.439l3.333-15.603c.173-.811-.344-1.607-1.153-1.78-.803-.169-1.606.343-1.78 1.153l-5.405 25.301-16.37 32.831c-1.195 2.396-1.385 5.116-.535 7.656s2.639 4.598 5.035 5.792c.587.293 1.206.513 1.837.686l-15.28 71.53-9.619-1.869c-.816-.158-1.601.373-1.759 1.187s.373 1.601 1.187 1.759l9.564 1.858-3.09 14.465h-17.608c-.828 0-1.5.672-1.5 1.5s.672 1.501 1.5 1.501zm40.926-3c-1.93 0-3.5-1.57-3.5-3.5s1.57-3.5 3.5-3.5h132.771c9.761 0 17.702-7.941 17.702-17.702 0-1.93 1.57-3.5 3.5-3.5s3.5 1.57 3.5 3.5c0 13.621-11.081 24.702-24.702 24.702zm44.808-79.59-6.884-32.868 21.062 4.51 6.427 30.69c.714 3.407-.446 6.977-3.033 9.319l-32.483 29.755-6.626-7.315-5.182-5.723c-.002-.002-.004-.003-.006-.005l-1.405-1.551 27.678-25.398c.388-.359.56-.895.452-1.414zm75.221 43.164c.11.378.366.697.711.89l8.154 4.532c.215.119.457.185.703.188l7.838.132c1.275.021 2.425.62 3.168 1.581l-29.803 8.736-5.587-19.055 12.854-3.708zm-1.354-10.001c-.001 0-.003 0-.004.001l-6.718 1.938-11.174 3.223-11.549-40.027c-.165-.572-.653-.992-1.244-1.071l-21.167-2.808-4.278-20.43 35.389 4.695c3.872.51 7.076 3.27 8.162 7.03l13.605 47.154zm-99.804.539 6.964 7.692-5.252 4.683c-.294.262-.474.629-.499 1.022l-.601 9.31c-.016.246.029.492.131.717l3.239 7.138c.527 1.161.479 2.457-.071 3.54l-20.664-23.184 14.744-13.135zm142.966 33.649c.188.658.789 1.086 1.44 1.086.138 0 .276-.019.415-.059l9.364-2.69 3.715 13.902h-31.486c9.002-4.579 15.188-13.929 15.188-24.702 0-3.584-2.916-6.5-6.5-6.5s-6.5 2.916-6.5 6.5c0 8.106-6.596 14.702-14.702 14.702h-107.559c1.176-1.958 1.359-4.396.374-6.567l-3.084-6.796.536-8.321 4.812-4.291.836.922c.268.296.643.473 1.041.491.023.001.047.002.07.002.374 0 .736-.14 1.014-.394l33.589-30.769c3.367-3.05 4.88-7.706 3.948-12.152l-.876-4.185 19.149 2.541 11.692 40.526c.189.657.789 1.084 1.44 1.084.138 0 .278-.019.417-.059l2.161-.624 6.012 20.506c.191.654.79 1.078 1.438 1.078.14 0 .282-.02.423-.061l32.951-9.659c.795-.233 1.251-1.066 1.018-1.861-.878-2.997-3.565-5.045-6.688-5.098l-7.463-.125-7.288-4.051-1.786-6.101 1.022-.295c.382-.11.705-.368.897-.717.192-.348.238-.758.128-1.141l-14.021-48.596c-1.417-4.907-5.599-8.508-10.652-9.173l-22.636-3.003 3.163-14.775 16.229 11.341c1.722 1.203 3.726 1.813 5.74 1.813 1.587 0 3.182-.379 4.647-1.146l36.857-19.26 29.957 112.112-9.418 2.705c-.793.233-1.253 1.064-1.024 1.86zm-59.679-114.926 33.419-17.464c3.437-1.793 7.689-.46 9.484 2.974 1.794 3.435.46 7.689-2.975 9.484l-38.009 19.861c-2.333 1.219-5.123 1.038-7.28-.468l-38.605-26.979-.229-.169c-.002-.001-.004-.002-.006-.004-3.021-2.288-3.687-6.516-1.514-9.625 1.075-1.539 2.686-2.566 4.534-2.895.414-.073.829-.109 1.241-.109 1.427 0 2.817.436 4.011 1.27l34.375 24.023c.459.323 1.059.361 1.554.101zm-10.976-62.665c.173 9.902-7.743 18.099-17.646 18.271-.106.002-.212.003-.317.003-2.234 0-4.369-.429-6.348-1.181.029-.121.049-.245.046-.375l-.138-7.91c.066-.052.132-.106.191-.17l7.938-8.765c.001-.001.001-.003.003-.005l16.252-.283c.005.139.017.276.019.415zm-24.557.014 4.176-.073-4.098 4.525zm-9.091-16.733c4.038-4.182 9.464-6.541 15.276-6.642.131-.003.261-.004.391-.004 5.668 0 11.02 2.161 15.107 6.108 3.82 3.689 6.119 8.535 6.565 13.777l-43.419.759c.263-5.255 2.391-10.179 6.08-13.998zm-2.261 16.931 8.352-.146.272 15.568c-5.075-3.101-8.521-8.635-8.633-15.01-.002-.137.008-.274.009-.412zm5.782 17.145c2.88 2.065 6.206 3.358 9.732 3.764l-1.033 4.822-10.076-2.157zm-7.848 8.112 21.239 4.547c2.428.52 4.508 1.954 5.856 4.038 1.35 2.084 1.806 4.569 1.286 6.996l-.85 3.972-12.79-8.939c-2.194-1.534-4.855-2.124-7.494-1.654-2.638.467-4.936 1.934-6.47 4.129-3.1 4.436-2.151 10.468 2.159 13.733.098.075.199.148.315.231l19.723 13.783-3.314 15.48-39.416-8.438 8.721-40.735c1.074-5.012 6.026-8.215 11.035-7.143zm-41.479 23.126c.769-1.542 2.072-2.744 3.671-3.387l22.984-9.226-3.548 16.57-11.193 4.493c-.341.137-.62.394-.784.723l-18.252 36.608c-1.039 2.085-3.014 3.489-5.281 3.816l9.24-43.257zm-16.546 48.935c-1.68-.837-2.934-2.279-3.529-4.06s-.462-3.686.376-5.366l11.171-22.405-6.893 32.268c-.383-.117-.761-.255-1.125-.437zm-12.464 78.407 9.689 1.882c.097.019.193.027.288.027.703 0 1.331-.497 1.471-1.214.158-.813-.373-1.601-1.187-1.759l-9.635-1.872 15.327-71.75c3.681-.132 6.972-2.235 8.62-5.539l17.997-36.098 8.789-3.528-3.874 18.097c-.174.811.343 1.607 1.152 1.781l3.358.719 6.981 33.335-28.144 25.831c-.607.558-.65 1.501-.097 2.112l1.395 1.54-15.846 14.117c-.297.265-.477.637-.499 1.034-.023.396.112.787.377 1.084l21.476 24.095h-20.356c-3.584 0-6.5 2.916-6.5 6.5 0 1.289.382 2.488 1.032 3.5h-14.782z"/></g></g></svg>