<?xml version="1.0" encoding="UTF-8" standalone="no"?>
<!-- Created with Inkscape (http://www.inkscape.org/) -->

<svg
   version="1.1"
   id="svg4233"
   xml:space="preserve"
   width="682.66669"
   height="682.66669"
   viewBox="0 0 682.66669 682.66669"
   xmlns="http://www.w3.org/2000/svg"
   xmlns:svg="http://www.w3.org/2000/svg"><defs
     id="defs4237"><clipPath
       clipPathUnits="userSpaceOnUse"
       id="clipPath4247"><path
         d="M 0,512 H 512 V 0 H 0 Z"
         id="path4245" /></clipPath></defs><g
     id="g4239"
     transform="matrix(1.3333333,0,0,-1.3333333,0,682.66667)"><g
       id="g4241"><g
         id="g4243"
         clip-path="url(#clipPath4247)"><g
           id="g4249"
           transform="translate(425.7393,432.2139)"><path
             d="m 0,0 c 0,16.534 22.758,52.786 33.672,69.223 2.713,4.084 8.704,4.084 11.416,0 C 56.003,52.786 78.761,16.534 78.761,0 78.761,-21.749 61.129,-39.38 39.38,-39.38 17.631,-39.38 0,-21.749 0,0"
             style="fill:#b2d9fd;fill-opacity:1;fill-rule:nonzero;stroke:none"
             id="path4251" /></g><g
           id="g4253"
           transform="translate(470.8276,501.4365)"><path
             d="m 0,0 c -2.712,4.084 -8.703,4.084 -11.416,0 -2.585,-3.893 -5.837,-8.906 -9.292,-14.497 11.129,-18.015 24.38,-42.108 24.38,-54.726 0,-16.437 -10.073,-30.515 -24.38,-36.415 4.624,-1.907 9.687,-2.965 15,-2.965 21.75,0 39.38,17.631 39.38,39.38 C 33.672,-52.689 10.915,-16.437 0,0"
             style="fill:#89c8fd;fill-opacity:1;fill-rule:nonzero;stroke:none"
             id="path4255" /></g><g
           id="g4257"
           transform="translate(87.0356,71.1392)"><path
             d="m 0,0 h -72.071 v 61.993 c 0,3.866 3.133,7 7,7 H -7 c 3.866,0 7,-3.134 7,-7 z"
             style="fill:#f58a97;fill-opacity:1;fill-rule:nonzero;stroke:none"
             id="path4259" /></g><g
           id="g4261"
           transform="translate(80.0356,140.1323)"><path
             d="m 0,0 h -30 c 3.866,0 7,-3.134 7,-7 V -68.993 H 7 V -7 C 7,-3.134 3.866,0 0,0"
             style="fill:#f07281;fill-opacity:1;fill-rule:nonzero;stroke:none"
             id="path4263" /></g><g
           id="g4265"
           transform="translate(90.5,50.5)"><path
             d="m 0,0 h -79 c -2.209,0 -4,1.791 -4,4 V 16.983 C -83,23.067 -78.067,28 -71.983,28 H -7.017 C -0.933,28 4,23.067 4,16.983 V 4 C 4,1.791 2.209,0 0,0"
             style="fill:#fed2d6;fill-opacity:1;fill-rule:nonzero;stroke:none"
             id="path4267" /></g><g
           id="g4269"
           transform="translate(83.4834,78.5)"><path
             d="m 0,0 h -30 c 6.084,0 11.017,-4.933 11.017,-11.017 V -24 c 0,-2.209 -1.791,-4 -4,-4 h 30 c 2.209,0 4,1.791 4,4 v 12.983 C 11.017,-4.933 6.084,0 0,0"
             style="fill:#fab3bc;fill-opacity:1;fill-rule:nonzero;stroke:none"
             id="path4271" /></g><g
           id="g4273"
           transform="translate(494.5,7.5)"><path
             d="m 0,0 h -72.418 c -5.522,0 -10,4.477 -10,10 v 72.36 l 2.996,55.275 c 0,5.522 2.061,7.813 7.584,7.813 l 72.953,0.186 c 5.522,0 5.871,-5.005 5.871,-10.528 L 10,82.36 V 10 C 10,4.477 5.523,0 0,0"
             style="fill:#aee59a;fill-opacity:1;fill-rule:nonzero;stroke:none"
             id="path4275" /></g><g
           id="g4277"
           transform="translate(494.5,155.1323)"><path
             d="m 0,0 h -30 c 5.523,0 10,-4.477 10,-10 v -127.632 c 0,-5.523 -4.477,-10 -10,-10 H 0 c 5.523,0 10,4.477 10,10 V -10 C 10,-4.477 5.523,0 0,0"
             style="fill:#88d9a3;fill-opacity:1;fill-rule:nonzero;stroke:none"
             id="path4279" /></g><g
           id="g4281"
           transform="translate(494.5,155.1323)"><path
             d="m 0,0 h -72.417 c -5.523,0 -10,-4.477 -10,-10 V -65.272 H 10 V -10 C 10,-4.477 5.523,0 0,0"
             style="fill:#d4eec8;fill-opacity:1;fill-rule:nonzero;stroke:none"
             id="path4283" /></g><g
           id="g4285"
           transform="translate(494.5,155.1323)"><path
             d="m 0,0 h -30 c 5.523,0 10,-4.477 10,-10 V -65.272 H 10 V -10 C 10,-4.477 5.523,0 0,0"
             style="fill:#c0e8ae;fill-opacity:1;fill-rule:nonzero;stroke:none"
             id="path4287" /></g><g
           id="g4289"
           transform="translate(396.5,256)"><path
             d="m 0,0 c 0,-77.596 -62.904,-140.5 -140.5,-140.5 -77.596,0 -140.5,62.904 -140.5,140.5 0,77.596 62.904,140.5 140.5,140.5 C -62.904,140.5 0,77.596 0,0"
             style="fill:#e6f6ff;fill-opacity:1;fill-rule:nonzero;stroke:none"
             id="path4291" /></g><g
           id="g4293"
           transform="translate(256,396.5)"><path
             d="m 0,0 c -5.068,0 -10.071,-0.275 -15,-0.798 70.542,-7.488 125.5,-67.174 125.5,-139.702 0,-72.528 -54.958,-132.214 -125.5,-139.702 4.929,-0.523 9.932,-0.798 15,-0.798 77.596,0 140.5,62.904 140.5,140.5 C 140.5,-62.904 77.596,0 0,0"
             style="fill:#d8ecfe;fill-opacity:1;fill-rule:nonzero;stroke:none"
             id="path4295" /></g><g
           id="g4297"
           transform="translate(307.3545,173.1694)"><path
             d="m 0,0 h -102.709 l -15,121.167 68.446,30 64.263,-30 z"
             style="fill:#d8ecfe;fill-opacity:1;fill-rule:nonzero;stroke:none"
             id="path4299" /></g><g
           id="g4301"
           transform="translate(258.0913,324.3369)"><path
             d="M 0,0 -15.473,-6.782 34.264,-30 l -15,-121.167 h 30 l 15,121.167 z"
             style="fill:#c5e3ff;fill-opacity:1;fill-rule:nonzero;stroke:none"
             id="path4303" /></g><g
           id="g4305"
           transform="translate(319.6104,271.2852)"><path
             d="m 0,0 -61.417,29.985 c -1.384,0.676 -3.002,0.676 -4.387,0 L -127.221,0 c -11.228,-5.482 -24.318,2.693 -24.318,15.188 0,6.46 3.683,12.355 9.487,15.189 l 74.054,36.155 c 2.769,1.351 6.006,1.351 8.775,0 L 14.831,30.377 C 20.636,27.543 24.318,21.648 24.318,15.188 24.318,2.693 11.229,-5.482 0,0"
             style="fill:#f58a97;fill-opacity:1;fill-rule:nonzero;stroke:none"
             id="path4307" /></g><g
           id="g4309"
           transform="translate(334.4414,301.6621)"><path
             d="m 0,0 -74.054,36.155 c -2.769,1.351 -6.006,1.351 -8.775,0 L -93.441,30.973 -30,0 c 5.805,-2.834 9.487,-8.729 9.487,-15.188 0,-4.113 -1.424,-7.752 -3.727,-10.596 l 9.409,-4.593 C -3.603,-35.859 9.487,-27.684 9.487,-15.188 9.487,-8.729 5.805,-2.834 0,0"
             style="fill:#f07281;fill-opacity:1;fill-rule:nonzero;stroke:none"
             id="path4311" /></g><g
           id="g4313"
           transform="translate(275.9668,173.1694)"><path
             d="m 0,0 h -39.934 v 50.934 c 0,2.209 1.791,4 4,4 H -4 c 2.209,0 4,-1.791 4,-4 z"
             style="fill:#3c6d92;fill-opacity:1;fill-rule:nonzero;stroke:none"
             id="path4315" /></g><g
           id="g4317"
           transform="translate(271.9668,228.103)"><path
             d="m 0,0 h -21.305 c 2.209,0 4,-1.791 4,-4 V -54.934 H 4 V -4 C 4,-1.791 2.209,0 0,0"
             style="fill:#345e80;fill-opacity:1;fill-rule:nonzero;stroke:none"
             id="path4319" /></g><g
           id="g4321"
           transform="translate(156.6499,156.6499)"><path
             d="M 0,0 -29.12,-29.12"
             style="fill:none;stroke:#000000;stroke-width:15;stroke-linecap:round;stroke-linejoin:round;stroke-miterlimit:10;stroke-dasharray:none;stroke-opacity:1"
             id="path4323" /></g><g
           id="g4325"
           transform="translate(384.4702,384.4702)"><path
             d="M 0,0 -29.12,-29.12"
             style="fill:none;stroke:#000000;stroke-width:15;stroke-linecap:round;stroke-linejoin:round;stroke-miterlimit:10;stroke-dasharray:none;stroke-opacity:1"
             id="path4327" /></g><g
           id="g4329"
           transform="translate(384.4702,127.5298)"><path
             d="M 0,0 -29.12,29.12"
             style="fill:none;stroke:#000000;stroke-width:15;stroke-linecap:round;stroke-linejoin:round;stroke-miterlimit:10;stroke-dasharray:none;stroke-opacity:1"
             id="path4331" /></g><g
           id="g4333"
           transform="translate(156.6499,355.3501)"><path
             d="M 0,0 -29.12,29.12"
             style="fill:none;stroke:#000000;stroke-width:15;stroke-linecap:round;stroke-linejoin:round;stroke-miterlimit:10;stroke-dasharray:none;stroke-opacity:1"
             id="path4335" /></g><g
           id="g4337"
           transform="translate(133.356,324.5981)"><path
             d="m 0,0 c 24.049,42.905 69.96,71.902 122.644,71.902 77.596,0 140.5,-62.904 140.5,-140.5 0,-77.596 -62.904,-140.5 -140.5,-140.5 -77.596,0 -140.5,62.904 -140.5,140.5 0,12.542 1.644,24.701 4.727,36.271"
             style="fill:none;stroke:#000000;stroke-width:15;stroke-linecap:round;stroke-linejoin:round;stroke-miterlimit:10;stroke-dasharray:none;stroke-opacity:1"
             id="path4339" /></g><g
           id="g4341"
           transform="translate(319.5,271.3398)"><path
             d="m 0,0 -12.15,-98.17 h -102.7 L -127,0"
             style="fill:none;stroke:#000000;stroke-width:15;stroke-linecap:round;stroke-linejoin:round;stroke-miterlimit:10;stroke-dasharray:none;stroke-opacity:1"
             id="path4343" /></g><g
           id="g4345"
           transform="translate(322.3545,173.1694)"><path
             d="M 0,0 H -132.709"
             style="fill:none;stroke:#000000;stroke-width:15;stroke-linecap:round;stroke-linejoin:round;stroke-miterlimit:10;stroke-dasharray:none;stroke-opacity:1"
             id="path4347" /></g><g
           id="g4349"
           transform="translate(319.6104,271.2852)"><path
             d="m 0,0 -61.417,29.985 c -1.384,0.676 -3.002,0.676 -4.387,0 L -127.221,0 c -11.228,-5.482 -24.318,2.694 -24.318,15.188 0,6.46 3.683,12.355 9.487,15.189 l 74.054,36.155 c 2.769,1.351 6.006,1.351 8.775,0 L 14.831,30.377 C 20.636,27.543 24.318,21.648 24.318,15.188 24.318,2.694 11.229,-5.482 0,0 Z"
             style="fill:none;stroke:#000000;stroke-width:15;stroke-linecap:round;stroke-linejoin:round;stroke-miterlimit:10;stroke-dasharray:none;stroke-opacity:1"
             id="path4351" /></g><g
           id="g4353"
           transform="translate(275.9668,173.1694)"><path
             d="m 0,0 h -39.934 v 50.934 c 0,2.209 1.791,4 4,4 H -4 c 2.209,0 4,-1.791 4,-4 z"
             style="fill:none;stroke:#000000;stroke-width:15;stroke-linecap:round;stroke-linejoin:round;stroke-miterlimit:10;stroke-dasharray:none;stroke-opacity:1"
             id="path4355" /></g><g
           id="g4357"
           transform="translate(425.7393,432.2139)"><path
             d="m 0,0 c 0,16.534 22.758,52.786 33.672,69.223 2.713,4.084 8.704,4.084 11.416,0 C 56.003,52.786 78.761,16.534 78.761,0 78.761,-21.749 61.129,-39.38 39.38,-39.38 17.631,-39.38 0,-21.749 0,0 Z"
             style="fill:none;stroke:#000000;stroke-width:15;stroke-linecap:round;stroke-linejoin:round;stroke-miterlimit:10;stroke-dasharray:none;stroke-opacity:1"
             id="path4359" /></g><g
           id="g4361"
           transform="translate(7.5,479.4966)"><path
             d="M 0,0 C 33.338,33.338 87.583,33.338 120.921,0"
             style="fill:none;stroke:#000000;stroke-width:15;stroke-linecap:round;stroke-linejoin:round;stroke-miterlimit:10;stroke-dasharray:none;stroke-opacity:1"
             id="path4363" /></g><g
           id="g4365"
           transform="translate(32.3467,454.6494)"><path
             d="M 0,0 C 19.669,19.669 51.559,19.669 71.228,0"
             style="fill:none;stroke:#000000;stroke-width:15;stroke-linecap:round;stroke-linejoin:round;stroke-miterlimit:10;stroke-dasharray:none;stroke-opacity:1"
             id="path4367" /></g><g
           id="g4369"
           transform="translate(57.1934,429.8027)"><path
             d="M 0,0 C 5.937,5.937 15.597,5.937 21.534,0"
             style="fill:none;stroke:#000000;stroke-width:15;stroke-linecap:round;stroke-linejoin:round;stroke-miterlimit:10;stroke-dasharray:none;stroke-opacity:1"
             id="path4371" /></g><g
           id="g4373"
           transform="translate(14.96,77.9102)"><path
             d="m 0,0 v 55.22 c 0,3.87 3.14,7 7,7 h 58.08 c 3.86,0 7,-3.13 7,-7 V 0"
             style="fill:none;stroke:#000000;stroke-width:15;stroke-linecap:round;stroke-linejoin:round;stroke-miterlimit:10;stroke-dasharray:none;stroke-opacity:1"
             id="path4375" /></g><g
           id="g4377"
           transform="translate(90.5,50.5)"><path
             d="m 0,0 h -79 c -2.209,0 -4,1.791 -4,4 V 16.983 C -83,23.067 -78.067,28 -71.983,28 H -7.017 C -0.933,28 4,23.067 4,16.983 V 4 C 4,1.791 2.209,0 0,0 Z"
             style="fill:none;stroke:#000000;stroke-width:15;stroke-linecap:round;stroke-linejoin:round;stroke-miterlimit:10;stroke-dasharray:none;stroke-opacity:1"
             id="path4379" /></g><g
           id="g4381"
           transform="translate(7.5,7.5)"><path
             d="M 0,0 15,43 H 72 L 87,0"
             style="fill:none;stroke:#000000;stroke-width:15;stroke-linecap:round;stroke-linejoin:round;stroke-miterlimit:10;stroke-dasharray:none;stroke-opacity:1"
             id="path4383" /></g><g
           id="g4385"
           transform="translate(412.082,69.0171)"><path
             d="m 0,0 v 76.115 c 0,5.523 4.478,10 10,10 h 72.418 c 5.523,0 10,-4.477 10,-10 V -51.517 c 0,-5.523 -4.477,-10 -10,-10 H 10 c -5.522,0 -10,4.477 -10,10 V -35"
             style="fill:none;stroke:#000000;stroke-width:15;stroke-linecap:round;stroke-linejoin:round;stroke-miterlimit:10;stroke-dasharray:none;stroke-opacity:1"
             id="path4387" /></g><g
           id="g4389"
           transform="translate(412.082,89.8599)"><path
             d="M 0,0 H 92.418"
             style="fill:none;stroke:#000000;stroke-width:15;stroke-linecap:round;stroke-linejoin:round;stroke-miterlimit:10;stroke-dasharray:none;stroke-opacity:1"
             id="path4391" /></g><g
           id="g4393"
           transform="translate(442.082,49.5366)"><path
             d="M 0,0 V -11.039"
             style="fill:none;stroke:#000000;stroke-width:15;stroke-linecap:round;stroke-linejoin:round;stroke-miterlimit:10;stroke-dasharray:none;stroke-opacity:1"
             id="path4395" /></g><g
           id="g4397"
           transform="translate(442.082,125.1323)"><path
             d="M 0,0 V -11.039"
             style="fill:none;stroke:#000000;stroke-width:15;stroke-linecap:round;stroke-linejoin:round;stroke-miterlimit:10;stroke-dasharray:none;stroke-opacity:1"
             id="path4399" /></g></g></g></g></svg>
