<svg id="Color_1_" enable-background="new 0 0 64 64" height="512" viewBox="0 0 64 64" width="512" xmlns="http://www.w3.org/2000/svg"><g><g><g><path d="m59 34 4 29h-4l-.55-4.01-.42-2.99-3.03-22z" fill="#ebc09e"/></g></g><path d="m63 63h-4l-.27-2h1.295c.516 0 .912-.455.842-.966l-3.587-26.034h1.72z" fill="#e09d70"/><g><path d="m16 58.99v4.01h-3v-4.01-2.99-11h3v11z" fill="#e8e7e6"/></g><g><path d="m23 58.99v4.01h-3v-4.01-2.99-11h3v11z" fill="#e8e7e6"/></g><g><path d="m44 58.99v4.01h-3v-4.01-2.99-11h3v11z" fill="#e8e7e6"/></g><g><path d="m13 11c3.31 0 6 2.69 6 6h-7-7c0-3.31 2.69-6 6-6h1z" fill="#aa9f9f"/></g><g><path d="m53 11c3.31 0 6 2.69 6 6h-7-7c0-3.31 2.69-6 6-6h1z" fill="#aa9f9f"/></g><path d="m19 17h-14c0-.7.12-1.37.35-2h7.463c1.919 0 3.085-2.234 1.882-3.729l-.025-.031c2.5.72 4.33 3.03 4.33 5.76z" fill="#938383"/><path d="m59 17h-14c0-.7.12-1.37.35-2h7.463c1.919 0 3.085-2.234 1.882-3.729l-.025-.031c2.5.72 4.33 3.03 4.33 5.76z" fill="#938383"/><g><path d="m36 24c0 .36-.1.71-.27 1h-3.46c-.17-.29-.27-.64-.27-1 0-1.1.9-2 2-2s2 .9 2 2z" fill="#ebc09e"/></g><g><path d="m29.69 20.85 2.14 4.15h-3.38l-1.43-2.78c-.38-.73-.09-1.64.65-2.02.22-.11.45-.17.68-.17.55 0 1.07.3 1.34.82z" fill="#ebc09e"/></g><g><g><path d="m63 30v4h-4-4-3v-4z" fill="#ebc09e"/></g></g><g><path d="m52 41v4h-1-3-4-3-1v-4z" fill="#aa9f9f"/></g><g><path d="m52 34v7h-12v-7-4-1c0-2.21 1.79-4 4-4h4c2.21 0 4 1.79 4 4v1z" fill="#c95f5f"/></g><g><path d="m51 58.99v4.01h-3v-4.01-2.99-11h3v11z" fill="#e8e7e6"/></g><g fill="#cccaca"><path d="m51 45v18h-3v-3c1.105 0 2-.895 2-2v-13z"/><path d="m44 45v18h-3v-3c1.105 0 2-.895 2-2v-13z"/><path d="m23 45v18h-3v-3c1.105 0 2-.895 2-2v-13z"/><path d="m16 45v18h-3v-3c1.105 0 2-.895 2-2v-13z"/></g><g><g><path d="m40 30v4h-16v-4h6.5 3z" fill="#ebc09e"/></g></g><g><path d="m37 25v1.5c0 1.93-1.57 3.5-3.5 3.5h-3c-1.93 0-3.5-1.57-3.5-3.5v-1.5h1.45 3.38.44 3.46z" fill="#ffdbda"/></g><path d="m37 25v1.5c0 1.93-1.57 3.5-3.5 3.5h-3c-.97 0-1.85-.4-2.48-1.04.16.03.32.04.48.04h3c1.93 0 3.5-1.57 3.5-3.5v-.5z" fill="#f7baba"/><g><path d="m24 41v4h-1-3-4-3-1v-4z" fill="#aa9f9f"/></g><path d="m52 41v4h-12v-2h8c.552 0 1-.448 1-1v-1z" fill="#938383"/><path d="m24 41v4h-12v-2h8c.552 0 1-.448 1-1v-1z" fill="#938383"/><g><path d="m24 34v7h-12v-7-4-1c0-2.21 1.79-4 4-4h4c2.21 0 4 1.79 4 4v1z" fill="#c95f5f"/></g><path d="m52 29v12h-12v-3h3c3.314 0 6-2.686 6-6v-6c0-.31-.04-.61-.1-.9 1.78.41 3.1 2 3.1 3.9z" fill="#c14040"/><path d="m24 29v12h-12v-3h3c3.314 0 6-2.686 6-6v-6c0-.31-.04-.61-.1-.9 1.78.41 3.1 2 3.1 3.9z" fill="#c14040"/><g fill="#e8b18b"><path d="m58.03 56h-7.03v2.99h7.45z"/><path d="m44 56h4v2.99h-4z"/><path d="m23 56h18v2.99h-18z"/><path d="m16 56h4v2.99h-4z"/><path d="m5.55 58.99h7.45v-2.99h-7.03z"/></g><g><g><path d="m12 30v4h-3-4-4v-4z" fill="#ebc09e"/></g></g><path d="m52 32h11v2h-11z" fill="#e09d70"/><path d="m24 32h16v2h-16z" fill="#e09d70"/><path d="m1 32h11v2h-11z" fill="#e09d70"/><g><g><path d="m9 34-3.03 22-.42 2.99-.55 4.01h-4l4-29z" fill="#ebc09e"/></g></g><path d="m9 34-3.03 22-.42 2.99-.55 4.01h-4l.28-2h1.059c.7 0 1.292-.517 1.387-1.21l.384-2.8.42-2.99 2.75-20z" fill="#e09d70"/><path d="m9.417 12.5c-.643 0-.645 1 0 1 .643 0 .644-1 0-1z" fill="#e0dada"/><path d="m49.5 12.667c-.643 0-.645 1 0 1 .643 0 .645-1 0-1z" fill="#e0dada"/><path d="m29 26.25c-.643 0-.645 1 0 1 .643 0 .645-1 0-1z" fill="#fcf2f2"/><g fill="#472b3c"><path d="m64 34v-4c0-.552-.448-1-1-1h-10c0-2.757-2.243-5-5-5h-4c-2.757 0-5 2.243-5 5h-1.762c.48-.716.762-1.575.762-2.5v-1.5c0-.552-.448-1-1-1 0-1.654-1.346-3-3-3-1.013 0-1.906.508-2.45 1.279l-.974-1.889c-.632-1.226-2.144-1.708-3.368-1.076-1.225.632-1.708 2.143-1.076 3.368l.698 1.353c-.468.083-.83.473-.83.965v1.5c0 .925.282 1.784.762 2.5h-1.762c0-2.757-2.243-5-5-5h-4c-2.757 0-5 2.243-5 5h-10c-.552 0-1 .448-1 1v4c0 .552.448 1 1 1h2.852l-3.843 27.863c-.04.287.047.576.237.794s.465.343.754.343h4c.5 0 .922-.369.991-.863l.434-3.145h5.575v3.008c0 .552.448 1 1 1h3c.552 0 1-.448 1-1v-3.008h2v3.008c0 .552.448 1 1 1h3c.552 0 1-.448 1-1v-3.008h16v3.008c0 .552.448 1 1 1h3c.552 0 1-.448 1-1v-3.008h2v3.008c0 .552.448 1 1 1h3c.552 0 1-.448 1-1v-3.008h5.576l.434 3.145c.068.494.49.863.99.863h4c.289 0 .564-.125.754-.343s.276-.507.237-.794l-3.843-27.863h2.852c.552 0 1-.448 1-1zm-62-1v-2h9v2zm2.128 29h-1.981l3.724-27h1.981zm7.872-4.008h-5.3l.137-.992h5.163zm0-2.992h-4.887l2.759-20h1.128v6 4c0 .552.448 1 1 1zm3 7h-1v-16h1zm4-4.008h-2v-.992h2zm0-2.992h-2v-9h2zm3 7h-1v-16h1zm1-18h-3-4-3v-2h10zm0-4h-10v-11c0-1.654 1.346-3 3-3h4c1.654 0 3 1.346 3 3zm11-17c.551 0 1 .449 1 1h-2c0-.551.449-1 1-1zm1.723 3c.003 0 .005.001.008.001s.005-.001.008-.001h.261v.5c0 1.378-1.122 2.5-2.5 2.5h-3c-1.378 0-2.5-1.122-2.5-2.5v-.5zm-7.598-4.909c.244-.126.546-.03.673.216l1.39 2.693h-1.125l-1.152-2.235c-.127-.245-.031-.548.214-.674zm11.875 36.901h-16v-.992h14c.552 0 1-.448 1-1s-.448-1-1-1h-14v-9c.552 0 1-.448 1-1v-4-10h5.5 3 5.5v2h-12c-.552 0-1 .448-1 1s.448 1 1 1h12v6 4c0 .552.448 1 1 1zm3 4.008h-1v-16h1zm4-4.008h-2v-.992h2zm0-2.992h-2v-9h2zm3 7h-1v-16h1zm1-18h-3-4-3v-2h10zm0-4h-10v-11c0-1.654 1.346-3 3-3h4c1.654 0 3 1.346 3 3zm1 6c.552 0 1-.448 1-1v-4-6h1.128l2.759 20h-4.887zm0 11.992v-.992h5.163l.137.992zm9.853 4.008h-1.981l-3.724-27h1.981zm.147-29h-3-4-2v-2h9z"/><path d="m5 18h14c.552 0 1-.448 1-1 0-3.86-3.14-7-7-7v-9c0-.552-.448-1-1-1s-1 .448-1 1v9c-1.384 0-2.722.403-3.871 1.167-.46.306-.585.926-.28 1.386.306.461.927.586 1.386.28.821-.545 1.776-.833 2.765-.833h2c2.415 0 4.435 1.721 4.899 4h-11.798c.107-.526.298-1.034.568-1.5.276-.478.113-1.09-.365-1.366-.479-.278-1.09-.112-1.366.365-.614 1.061-.938 2.271-.938 3.501 0 .552.448 1 1 1z"/><path d="m45 18h14c.552 0 1-.448 1-1 0-3.86-3.14-7-7-7v-9c0-.552-.448-1-1-1s-1 .448-1 1v9c-3.86 0-7 3.14-7 7 0 .552.448 1 1 1zm6-6h2c2.415 0 4.435 1.721 4.899 4h-11.798c.464-2.279 2.484-4 4.899-4z"/></g></g></svg>