<svg id="Layer_1" height="512" viewBox="0 0 500 500" width="512" xmlns="http://www.w3.org/2000/svg"><path d="m470.983 111.842h-20.736c-18.744 94.236-17.622 187.693.098 276.327h20.725c-17.724-88.634-18.847-182.091-.087-276.327z" fill="#fae99e"/><path d="m471.069 392.099h-20.725c-1.874 0-3.487-1.322-3.854-3.159-18.416-92.119-18.448-185.607-.097-277.864.365-1.839 1.979-3.163 3.854-3.163h20.736c1.177 0 2.291.527 3.038 1.437.746.91 1.047 2.106.816 3.26-18.162 91.229-18.133 183.682.086 274.789.23 1.154-.068 2.352-.814 3.262s-1.862 1.438-3.04 1.438zm-17.495-7.861h12.718c-17.191-89.039-17.22-179.313-.082-268.466h-12.73c-17.32 89.16-17.289 179.439.094 268.466z" fill="#353641"/><path d="m344.549 388.169h-13.828v-110.524h20.736z" fill="#fae99e"/><path d="m344.549 392.099h-13.828c-2.17 0-3.93-1.76-3.93-3.93v-110.524c0-2.171 1.76-3.931 3.93-3.931h20.736c1.085 0 2.121.448 2.864 1.239.742.791 1.126 1.854 1.058 2.937l-6.908 110.524c-.129 2.07-1.847 3.685-3.922 3.685zm-9.898-7.861h6.205l6.417-102.664h-12.622z" fill="#353641"/><path d="m330.721 291.461h19.878l.858-13.816h-20.736z" fill="#d8cb8b"/><path d="m344.526 250.006c-7.62 0-13.806 6.179-13.806 13.811v13.828h106.605c-.361-9.197-.669-18.394-.669-27.639z" fill="#f05b5a"/><path d="m437.326 281.574h-106.605c-2.17 0-3.93-1.76-3.93-3.93v-13.828c0-9.781 7.956-17.741 17.735-17.741h92.131c2.17 0 3.93 1.76 3.93 3.93 0 8.726.266 17.298.666 27.484.042 1.068-.353 2.107-1.094 2.878s-1.764 1.207-2.833 1.207zm-102.675-7.86h98.592c-.261-7.075-.444-13.446-.499-19.778h-88.218c-5.445 0-9.875 4.434-9.875 9.881z" fill="#353641"/><path d="m436.657 250.006h-13.893c0 9.213.227 18.425.594 27.639h13.968c-.361-9.198-.669-18.394-.669-27.639z" fill="#d04e4e"/><path d="m29.025 111.842h20.72c18.747 94.236 17.624 187.693-.1 276.327h-20.715c17.703-88.634 18.831-182.091.095-276.327z" fill="#fae99e"/><path d="m49.645 392.099h-20.715c-1.177 0-2.292-.527-3.039-1.438-.747-.91-1.045-2.106-.814-3.261 18.199-91.118 18.23-183.571.093-274.791-.229-1.154.071-2.35.817-3.26s1.861-1.437 3.038-1.437h20.72c1.875 0 3.489 1.324 3.854 3.163 18.354 92.26 18.32 185.748-.101 277.864-.367 1.837-1.979 3.16-3.853 3.16zm-15.938-7.861h12.708c17.387-89.024 17.419-179.304.097-268.466h-12.715c17.114 89.145 17.082 179.418-.09 268.466z" fill="#353641"/><path d="m155.438 388.169h13.823v-110.524h-20.72z" fill="#fae99e"/><path d="m169.261 392.099h-13.823c-2.075 0-3.793-1.614-3.922-3.686l-6.897-110.524c-.067-1.082.315-2.146 1.059-2.936.742-.791 1.779-1.239 2.864-1.239h20.72c2.17 0 3.93 1.76 3.93 3.931v110.524c-.001 2.17-1.761 3.93-3.931 3.93zm-10.13-7.861h6.2v-102.664h-12.607z" fill="#353641"/><path d="m169.261 277.645h-20.72l.855 13.816h19.865z" fill="#d8cb8b"/><path d="m155.46 250.006c7.615 0 13.801 6.179 13.801 13.811v13.828h-106.612c.381-9.197.669-18.394.669-27.639z" fill="#f05b5a"/><path d="m169.261 281.574h-106.612c-1.071 0-2.095-.437-2.836-1.209s-1.135-1.814-1.091-2.884c.31-7.49.666-17.382.666-27.476 0-2.17 1.76-3.93 3.93-3.93h92.141c9.777 0 17.731 7.959 17.731 17.741v13.828c.001 2.17-1.759 3.93-3.929 3.93zm-102.522-7.86h98.591v-9.897c0-5.447-4.428-9.881-9.871-9.881h-88.227c-.06 7.099-.271 13.943-.493 19.778z" fill="#353641"/><path d="m76.636 277.645c.354-9.214.586-18.426.591-27.639h-13.914c0 9.245-.289 18.441-.669 27.639z" fill="#d04e4e"/><path d="m125.638 167.099h248.708v27.644h-248.708z" fill="#bf842b"/><path d="m374.346 198.673h-248.708c-2.17 0-3.93-1.76-3.93-3.93v-27.644c0-2.17 1.76-3.93 3.93-3.93h248.708c2.171 0 3.931 1.76 3.931 3.93v27.644c-.001 2.171-1.76 3.93-3.931 3.93zm-244.778-7.86h240.848v-19.784h-240.848z" fill="#353641"/><path d="m319.078 167.099h55.268v27.644h-55.268z" fill="#a67423"/><path d="m332.896 194.732c-15.269 0-27.628 12.376-27.628 27.634v165.803h-13.828l-13.817-193.426z" fill="#fae99e"/><path d="m305.268 392.099h-13.828c-2.063 0-3.773-1.594-3.921-3.65l-13.816-193.425c-.078-1.088.3-2.16 1.043-2.958.744-.798 1.785-1.252 2.876-1.252l55.272-.011h.001c2.17 0 3.93 1.759 3.93 3.93s-1.759 3.93-3.929 3.931c-13.068 0-23.699 10.633-23.699 23.704v165.803c0 2.168-1.759 3.928-3.929 3.928zm-10.168-7.861h6.237v-161.872c0-9.432 4.158-17.911 10.736-23.7l-30.229.006z" fill="#353641"/><path d="m278.604 208.56h30.376c4.787-8.257 13.677-13.828 23.915-13.828l-55.272.011z" fill="#d8cb8b"/><path d="m167.109 194.732c15.255 0 27.628 12.376 27.628 27.634v165.803h13.801l13.827-193.426z" fill="#fae99e"/><path d="m208.539 392.099h-13.801c-2.17 0-3.93-1.76-3.93-3.93v-165.803c0-13.07-10.631-23.704-23.698-23.704h-.001c-2.17 0-3.929-1.76-3.929-3.931s1.76-3.93 3.93-3.93l55.258.011c1.09 0 2.133.454 2.875 1.252.743.799 1.122 1.87 1.043 2.958l-13.827 193.425c-.147 2.058-1.858 3.652-3.92 3.652zm-9.871-7.861h6.212l13.266-185.566-30.214-.006c6.579 5.789 10.736 14.268 10.736 23.7z" fill="#353641"/><path d="m191.014 208.56h30.362l.99-13.817-55.257-.011c10.215 0 19.123 5.571 23.905 13.828z" fill="#d8cb8b"/><path d="m217.922 256.908h64.148l-.982-13.806h-62.187z" fill="#bf842b"/><path d="m282.07 260.839h-64.148c-1.09 0-2.132-.453-2.875-1.252-.744-.798-1.122-1.868-1.044-2.957l.979-13.806c.146-2.057 1.857-3.652 3.92-3.652h62.187c2.063 0 3.773 1.594 3.921 3.651l.982 13.806c.076 1.088-.302 2.16-1.045 2.958-.744.799-1.786 1.252-2.877 1.252zm-59.929-7.86h55.71l-.423-5.946h-54.865z" fill="#353641"/><path d="m284.034 284.553h-68.091l-.987 13.806h70.071z" fill="#bf842b"/><path d="m285.027 302.289h-70.071c-1.091 0-2.133-.454-2.876-1.252-.743-.799-1.121-1.87-1.043-2.958l.987-13.807c.146-2.056 1.858-3.649 3.92-3.649h68.091c2.062 0 3.772 1.592 3.92 3.647l.993 13.807c.078 1.089-.3 2.16-1.043 2.959s-1.787 1.253-2.878 1.253zm-65.85-7.86h61.627l-.428-5.946h-60.774z" fill="#353641"/><path d="m339.815 167.099h-13.828l-6.897-55.267h27.634z" fill="#99daf5"/><path d="m339.815 171.029h-13.828c-1.982 0-3.655-1.476-3.899-3.443l-6.897-55.268c-.14-1.118.207-2.243.954-3.087.745-.845 1.818-1.329 2.945-1.329h27.634c1.128 0 2.2.484 2.946 1.33.746.845 1.094 1.97.953 3.088l-6.908 55.268c-.246 1.965-1.917 3.441-3.9 3.441zm-10.358-7.86h6.889l5.926-47.407h-18.73z" fill="#353641"/><path d="m174.002 167.099h-13.822l-6.898-55.267h27.629z" fill="#99daf5"/><path d="m174.002 171.029h-13.822c-1.982 0-3.654-1.476-3.9-3.443l-6.897-55.268c-.14-1.119.208-2.243.954-3.088s1.819-1.329 2.946-1.329h27.628c1.127 0 2.2.484 2.946 1.33.746.845 1.094 1.97.954 3.088l-6.909 55.268c-.246 1.966-1.918 3.442-3.9 3.442zm-10.352-7.86h6.882l5.926-47.407h-18.725z" fill="#353641"/><path d="m167.099 111.832-6.914 55.267h13.817l6.909-55.267z" fill="#86bed6"/><path d="m332.907 111.832-6.909 55.267h13.817l6.909-55.267z" fill="#86bed6"/><path d="m263.816 167.099h-27.628l-27.649-27.628h82.901z" fill="#c7da3c"/><path d="m263.816 171.029h-27.628c-1.042 0-2.041-.414-2.778-1.15l-27.649-27.628c-1.125-1.124-1.462-2.814-.854-4.283s2.042-2.427 3.631-2.427h82.901c1.59 0 3.022.958 3.63 2.426.608 1.469.273 3.159-.851 4.283l-27.623 27.628c-.737.737-1.736 1.151-2.779 1.151zm-26.001-7.86h24.373l19.765-19.769h-63.921z" fill="#353641"/><path d="m263.807 139.471-27.624 27.623.005.005h27.628l27.624-27.628z" fill="#acbd34"/><g fill="#353641"><path d="m344.549 392.099h-13.828c-2.17 0-3.93-1.76-3.93-3.93v-110.524c0-2.171 1.76-3.931 3.93-3.931h20.736c1.085 0 2.121.448 2.864 1.239.742.791 1.126 1.854 1.058 2.937l-6.908 110.524c-.129 2.07-1.847 3.685-3.922 3.685zm-9.898-7.861h6.205l6.417-102.664h-12.622z"/><path d="m437.326 281.574h-106.605c-2.17 0-3.93-1.76-3.93-3.93v-13.828c0-9.781 7.956-17.741 17.735-17.741h92.131c2.17 0 3.93 1.76 3.93 3.93 0 8.726.266 17.298.666 27.484.042 1.068-.353 2.107-1.094 2.878s-1.764 1.207-2.833 1.207zm-102.675-7.86h98.592c-.261-7.075-.444-13.446-.499-19.778h-88.218c-5.445 0-9.875 4.434-9.875 9.881z"/><path d="m169.261 392.099h-13.823c-2.075 0-3.793-1.614-3.922-3.686l-6.897-110.524c-.067-1.082.315-2.146 1.059-2.936.742-.791 1.779-1.239 2.864-1.239h20.72c2.17 0 3.93 1.76 3.93 3.931v110.524c-.001 2.17-1.761 3.93-3.931 3.93zm-10.13-7.861h6.2v-102.664h-12.607z"/><path d="m169.261 281.574h-106.612c-1.071 0-2.095-.437-2.836-1.209s-1.135-1.814-1.091-2.884c.31-7.49.666-17.382.666-27.476 0-2.17 1.76-3.93 3.93-3.93h92.141c9.777 0 17.731 7.959 17.731 17.741v13.828c.001 2.17-1.759 3.93-3.929 3.93zm-102.522-7.86h98.591v-9.897c0-5.447-4.428-9.881-9.871-9.881h-88.227c-.06 7.099-.271 13.943-.493 19.778z"/><path d="m374.346 198.673h-248.708c-2.17 0-3.93-1.76-3.93-3.93v-27.644c0-2.17 1.76-3.93 3.93-3.93h248.708c2.171 0 3.931 1.76 3.931 3.93v27.644c-.001 2.171-1.76 3.93-3.931 3.93zm-244.778-7.86h240.848v-19.784h-240.848z"/><path d="m305.268 392.099h-13.828c-2.063 0-3.773-1.594-3.921-3.65l-13.816-193.425c-.078-1.088.3-2.16 1.043-2.958.744-.798 1.785-1.252 2.876-1.252l55.272-.011h.001c2.17 0 3.93 1.759 3.93 3.93s-1.759 3.93-3.929 3.931c-13.068 0-23.699 10.633-23.699 23.704v165.803c0 2.168-1.759 3.928-3.929 3.928zm-10.168-7.861h6.237v-161.872c0-9.432 4.158-17.911 10.736-23.7l-30.229.006z"/><path d="m208.539 392.099h-13.801c-2.17 0-3.93-1.76-3.93-3.93v-165.803c0-13.07-10.631-23.704-23.698-23.704h-.001c-2.17 0-3.929-1.76-3.929-3.931s1.76-3.93 3.93-3.93l55.258.011c1.09 0 2.133.454 2.875 1.252.743.799 1.122 1.87 1.043 2.958l-13.827 193.425c-.147 2.058-1.858 3.652-3.92 3.652zm-9.871-7.861h6.212l13.266-185.566-30.214-.006c6.579 5.789 10.736 14.268 10.736 23.7z"/><path d="m339.815 171.029h-13.828c-1.982 0-3.655-1.476-3.899-3.443l-6.897-55.268c-.14-1.118.207-2.243.954-3.087.745-.845 1.818-1.329 2.945-1.329h27.634c1.128 0 2.2.484 2.946 1.33.746.845 1.094 1.97.953 3.088l-6.908 55.268c-.246 1.965-1.917 3.441-3.9 3.441zm-10.358-7.86h6.889l5.926-47.407h-18.73z"/><path d="m174.002 171.029h-13.822c-1.982 0-3.654-1.476-3.9-3.443l-6.897-55.268c-.14-1.119.208-2.243.954-3.088s1.819-1.329 2.946-1.329h27.628c1.127 0 2.2.484 2.946 1.33.746.845 1.094 1.97.954 3.088l-6.909 55.268c-.246 1.966-1.918 3.442-3.9 3.442zm-10.352-7.86h6.882l5.926-47.407h-18.725z"/><path d="m263.816 171.029h-27.628c-1.042 0-2.041-.414-2.778-1.15l-27.649-27.628c-1.125-1.124-1.462-2.814-.854-4.283s2.042-2.427 3.631-2.427h82.901c1.59 0 3.022.958 3.63 2.426.608 1.469.273 3.159-.851 4.283l-27.623 27.628c-.737.737-1.736 1.151-2.779 1.151zm-26.001-7.86h24.373l19.765-19.769h-63.921z"/></g></svg>