<?xml version="1.0" encoding="UTF-8"?>
<svg xmlns="http://www.w3.org/2000/svg" xmlns:xlink="http://www.w3.org/1999/xlink" version="1.1" id="Capa_1" x="0px" y="0px" viewBox="0 0 512 512" style="enable-background:new 0 0 512 512;" xml:space="preserve" width="512" height="512">
<g>
	<path style="fill:#E8EDF2;" d="M467.767,439.221V39.597c0-17.725-14.369-32.095-32.095-32.095H76.329&#10;&#9;&#9;c-17.725,0-32.095,14.369-32.095,32.095v396.236L467.767,439.221z"/>
	<path style="fill:#D9E7EC;" d="M44.234,435.833v36.57c0,17.725,14.369,32.095,32.095,32.095h359.343&#10;&#9;&#9;c17.725,0,32.095-14.369,32.095-32.095v-33.181L44.234,435.833z"/>
	<path style="fill:#D9E7EC;" d="M106.954,504.503h-30.62c-17.73,0-32.1-14.37-32.1-32.09V39.597c0-17.72,14.37-32.09,32.1-32.09&#10;&#9;&#9;h30.62c-17.72,0-32.09,14.37-32.09,32.09v432.816C74.864,490.133,89.234,504.503,106.954,504.503z"/>
	<path style="fill:none;stroke:#000000;stroke-width:15;stroke-linecap:round;stroke-linejoin:round;stroke-miterlimit:10;" d="&#10;&#9;&#9;M44.233,395.179V39.592c0-17.72,14.37-32.09,32.1-32.09h359.336c17.73,0,32.1,14.37,32.1,32.09v355.586"/>
	<path style="fill:none;stroke:#000000;stroke-width:15;stroke-linecap:round;stroke-linejoin:round;stroke-miterlimit:10;" d="&#10;&#9;&#9;M467.769,461.248v11.16c0,17.72-14.37,32.09-32.1,32.09H76.333c-17.73,0-32.1-14.37-32.1-32.09v-11.16"/>
	<path style="fill:#7A8C98;" d="M79.234,409.319V93.566c0-10.433,8.457-18.89,18.89-18.89h315.753c10.433,0,18.89,8.457,18.89,18.89&#10;&#9;&#9;v315.753c0,10.433-8.457,18.89-18.89,18.89H98.124C87.691,428.21,79.234,419.752,79.234,409.319z"/>
	<g>
		<g>
			<circle style="fill:#C8EFFE;" cx="185.317" cy="305.156" r="106.083"/>
			<path style="fill:#99E6FC;" d="M196.213,410.685c-3.58,0.36-7.21,0.55-10.89,0.55c-58.589,0-106.089-47.49-106.089-106.079&#10;&#9;&#9;&#9;&#9;c0-58.589,47.5-106.089,106.089-106.089c3.68,0,7.31,0.19,10.89,0.55c-53.469,5.45-95.199,50.629-95.199,105.539&#10;&#9;&#9;&#9;&#9;C101.014,360.066,142.743,405.235,196.213,410.685z"/>
			<path style="fill:none;stroke:#000000;stroke-width:15;stroke-linecap:round;stroke-linejoin:round;stroke-miterlimit:10;" d="&#10;&#9;&#9;&#9;&#9;M220.661,205.111c-0.01-0.01-0.01,0-0.01,0c-11.05-3.92-22.94-6.04-35.33-6.04c-58.589,0-106.089,47.5-106.089,106.089&#10;&#9;&#9;&#9;&#9;c0,37.98,19.96,71.289,49.949,90.019"/>
			<circle style="fill:#E8EDF2;" cx="185.317" cy="305.156" r="65.56"/>
			<path style="fill:none;stroke:#000000;stroke-width:15;stroke-linecap:round;stroke-linejoin:round;stroke-miterlimit:10;" d="&#10;&#9;&#9;&#9;&#9;M171.462,369.249c-29.55-6.36-51.699-32.64-51.699-64.089s22.15-57.729,51.699-64.089"/>
		</g>
		<g>
			<circle style="fill:#C8EFFE;" cx="256.001" cy="305.156" r="106.083"/>
			<path style="fill:#99E6FC;" d="M266.896,410.685c-3.58,0.36-7.21,0.55-10.89,0.55c-58.589,0-106.089-47.49-106.089-106.079&#10;&#9;&#9;&#9;&#9;c0-58.589,47.5-106.089,106.089-106.089c3.68,0,7.31,0.19,10.89,0.55c-53.469,5.45-95.199,50.629-95.199,105.539&#10;&#9;&#9;&#9;&#9;C171.697,360.066,213.427,405.235,266.896,410.685z"/>
			<path style="fill:none;stroke:#000000;stroke-width:15;stroke-linecap:round;stroke-linejoin:round;stroke-miterlimit:10;" d="&#10;&#9;&#9;&#9;&#9;M291.35,205.111c-0.01-0.01-0.01,0-0.01,0c-11.05-3.92-22.94-6.04-35.34-6.04c-58.589,0-106.079,47.5-106.079,106.089&#10;&#9;&#9;&#9;&#9;c0,37.97,19.95,71.279,49.939,90.019"/>
			<circle style="fill:#E8EDF2;" cx="256.001" cy="305.156" r="65.56"/>
			<path style="fill:none;stroke:#000000;stroke-width:15;stroke-linecap:round;stroke-linejoin:round;stroke-miterlimit:10;" d="&#10;&#9;&#9;&#9;&#9;M242.151,369.249c-29.56-6.35-51.709-32.64-51.709-64.089c0-31.46,22.15-57.739,51.709-64.089"/>
		</g>
		<g>
			<circle style="fill:#C8EFFE;" cx="326.684" cy="305.156" r="106.083"/>
			<path style="fill:#99E6FC;" d="M337.579,410.685c-3.58,0.36-7.21,0.55-10.89,0.55c-58.589,0-106.089-47.49-106.089-106.079&#10;&#9;&#9;&#9;&#9;c0-58.589,47.5-106.089,106.089-106.089c3.68,0,7.31,0.19,10.89,0.55c-53.469,5.45-95.199,50.629-95.199,105.539&#10;&#9;&#9;&#9;&#9;C242.381,360.066,284.11,405.235,337.579,410.685z"/>
			<path style="fill:none;stroke:#000000;stroke-width:15;stroke-linecap:round;stroke-linejoin:round;stroke-miterlimit:10;" d="&#10;&#9;&#9;&#9;&#9;M382.819,395.179c29.99-18.73,49.949-52.039,49.949-90.019c0-58.589-47.5-106.089-106.089-106.089&#10;&#9;&#9;&#9;&#9;c-58.579,0-106.079,47.5-106.079,106.089c0,37.98,19.96,71.289,49.949,90.019"/>
			<circle style="fill:#E8EDF2;" cx="326.684" cy="305.156" r="65.56"/>
			<path style="fill:none;stroke:#000000;stroke-width:15;stroke-linecap:round;stroke-linejoin:round;stroke-miterlimit:10;" d="&#10;&#9;&#9;&#9;&#9;M386.67,278.673c3.58,8.1,5.57,17.06,5.57,26.48c0,36.21-29.35,65.56-65.56,65.56c-36.2,0-65.56-29.35-65.56-65.56&#10;&#9;&#9;&#9;&#9;c0-36.2,29.36-65.56,65.56-65.56c14.52,0,27.94,4.72,38.8,12.72"/>
		</g>
	</g>
	<path style="fill:none;stroke:#000000;stroke-width:15;stroke-linecap:round;stroke-linejoin:round;stroke-miterlimit:10;" d="&#10;&#9;&#9;M79.233,395.179V93.562c0-10.43,8.46-18.89,18.89-18.89h315.757c10.43,0,18.89,8.46,18.89,18.89v301.617"/>
	<path style="fill:#F5F8F9;" d="M490.508,395.175H21.493c-7.726,0-13.99,6.263-13.99,13.99v19.802&#10;&#9;&#9;c0,17.827,14.451,32.278,32.278,32.278H472.22c17.827,0,32.278-14.451,32.278-32.278v-19.802&#10;&#9;&#9;C504.498,401.438,498.235,395.175,490.508,395.175z"/>
	<path style="fill:#E8EDF2;" d="M105.341,461.245H39.782c-17.83,0-32.28-14.46-32.28-32.28v-19.81c0-7.72,6.26-13.99,13.99-13.99&#10;&#9;&#9;h65.559c-7.73,0-13.99,6.27-13.99,13.99v19.81C73.061,446.785,87.511,461.245,105.341,461.245z"/>
	<path style="fill:none;stroke:#000000;stroke-width:15;stroke-linecap:round;stroke-linejoin:round;stroke-miterlimit:10;" d="&#10;&#9;&#9;M140.34,461.243h331.88c17.83,0,32.28-14.45,32.28-32.28v-19.8c0-7.72-6.27-13.99-13.99-13.99H21.49&#10;&#9;&#9;c-7.72,0-13.99,6.27-13.99,13.99v19.8c0,17.83,14.45,32.28,32.28,32.28h65.56"/>
	<rect x="233.977" y="74.672" style="fill:#D9E7EC;" width="44.047" height="55.092"/>
	
		<rect x="233.977" y="74.672" style="fill:none;stroke:#000000;stroke-width:15;stroke-linecap:round;stroke-linejoin:round;stroke-miterlimit:10;" width="44.047" height="37.024"/>
	<path style="fill:#E8EDF2;" d="M380.936,111.696h-249.87c-6.245,0-11.308,5.063-11.308,11.308v13.52&#10;&#9;&#9;c0,6.245,5.063,11.308,11.308,11.308h249.87c6.245,0,11.308-5.063,11.308-11.308v-13.52&#10;&#9;&#9;C392.244,116.759,387.181,111.696,380.936,111.696z"/>
	<path style="fill:#D9E7EC;" d="M169.977,147.834h-38.92c-6.24,0-11.3-5.07-11.3-11.31v-13.52c0-6.25,5.06-11.31,11.3-11.31h38.92&#10;&#9;&#9;c-6.24,0-11.31,5.06-11.31,11.31v13.52C158.667,142.764,163.737,147.834,169.977,147.834z"/>
	<path style="fill:none;stroke:#000000;stroke-width:15;stroke-linecap:round;stroke-linejoin:round;stroke-miterlimit:10;" d="&#10;&#9;&#9;M187.48,111.693h193.46c6.24,0,11.3,5.07,11.3,11.31v13.52c0,6.25-5.06,11.31-11.3,11.31H131.07c-6.25,0-11.31-5.06-11.31-11.31&#10;&#9;&#9;v-13.52c0-6.24,5.06-11.31,11.31-11.31h21.41"/>
	<path style="fill:#9BE69D;" d="M410.064,424.603h-37.722c-5.665,0-10.258,4.593-10.258,10.258v26.384h58.238v-26.384&#10;&#9;&#9;C420.322,429.196,415.73,424.603,410.064,424.603z"/>
	<path style="fill:none;stroke:#000000;stroke-width:15;stroke-linecap:round;stroke-linejoin:round;stroke-miterlimit:10;" d="&#10;&#9;&#9;M410.064,424.603h-37.722c-5.665,0-10.258,4.593-10.258,10.258v26.384h58.238v-26.384&#10;&#9;&#9;C420.322,429.196,415.73,424.603,410.064,424.603z"/>
</g>















</svg>
