<svg id="icon" height="512" viewBox="0 0 400 400" width="512" xmlns="http://www.w3.org/2000/svg"><path d="m240.323 393.993-179.15-3.22a29.666 29.666 0 0 1 -29.08-31.46 30.25 30.25 0 0 1 .77-5.1l46.48-194.12 5.53-23.07a10.2 10.2 0 0 1 9.92-7.83h63.79a10.2 10.2 0 0 1 10.2 10.31l-.61 55.88a35.862 35.862 0 0 0 16.66 30.69l25.167 15.95 19.11 12.11a46.872 46.872 0 0 1 20.15 27.39l20.23 75.1c.24.9.44 1.8.59 2.69a29.647 29.647 0 0 1 -29.757 34.68z" fill="#c1e9fa"/><rect fill="#c7c5cb" height="38.743" rx="7.612" width="71.813" x="92.642" y="90.45"/><path d="m99.719 90.45-32.419-48.685a7.77 7.77 0 0 1 -1.3-4.229v-19.518a7.751 7.751 0 0 1 7.753-7.752h135.318a7.7 7.7 0 0 1 7.7 7.752v49.553a7.7 7.7 0 0 1 -5.2 7.319l-13.071 4.5-41.658 11.06z" fill="#dbdbdb"/><path d="m162.029 89.073c22.824 51.721 64.932 70.144 64.932 70.144l5.151-7.427c-27.212-28.79-33.612-72.4-33.612-72.4z" fill="#b2b0bc"/><path d="m216.769 24.109h18.323a4.006 4.006 0 0 1 4.006 4.006v28.708a4.006 4.006 0 0 1 -4.006 4.006h-18.323a0 0 0 0 1 0 0v-36.72a0 0 0 0 1 0 0z" fill="#c7c5cb"/><path d="m189.893 271.803v26.94h-25.14v25.13h-26.94v-25.13h-25.13v-26.94h25.13v-25.13h26.94v25.13z" fill="#ff748f"/><path d="m189.893 271.803v26.94h-25.14v25.13h-13.47v-77.2h13.47v25.13z" fill="#fd5f7e"/><path d="m240.323 393.993-179.15-3.22a29.666 29.666 0 0 1 -29.08-31.46h237.99a29.647 29.647 0 0 1 -29.76 34.68z" fill="#78cbec"/><path d="m210 242.023h-.08l-130.58-81.93 5.53-23.07a10.2 10.2 0 0 1 9.92-7.83h63.79a10.2 10.2 0 0 1 10.2 10.31l-.61 55.88a35.862 35.862 0 0 0 16.66 30.69z" fill="#78cbec"/><path d="m255.083 279.789a52.787 52.787 0 0 0 -22.738-30.936l-44.272-28.1a29.734 29.734 0 0 1 -13.879-25.595l.613-55.964a16.059 16.059 0 0 0 -5.555-12.388c1.488-3.272 1.227-5.451 1.227-10.346 23.406 34.285 52.636 47.282 54.126 47.927a5.994 5.994 0 0 0 7.311-2.091l5.152-7.437a6.017 6.017 0 0 0 -.571-7.553c-20.382-21.59-28.256-52.552-30.628-64.344l8.217-2.835a13.756 13.756 0 0 0 9.249-13.009v-.766h12.337a10.025 10.025 0 0 0 10.007-10.02v-28.748a10.026 10.026 0 0 0 -10.007-10.021h-12.337v-.063a13.75 13.75 0 0 0 -13.7-13.772h-135.318a13.778 13.778 0 0 0 -13.753 13.772v19.541a13.816 13.816 0 0 0 2.307 7.565l28.451 42.785a13.6 13.6 0 0 0 -4.656 10.239v23.552a13.586 13.586 0 0 0 .483 3.543 16.162 16.162 0 0 0 -8.085 10.519l-52.012 217.504a35.7 35.7 0 0 0 34.04 44.024l179.15 3.222q.332.006.663.006a35.7 35.7 0 0 0 34.411-45zm-31.733-250.208h10.329v24.755h-10.329zm-.582 120.26c-11.581-6.839-35.883-24.216-52.3-57.067l23.832-6.336c2.6 12.67 10.1 40.793 28.468 63.403zm-145.098-104.659h54.038a6.009 6.009 0 0 0 0-12.018h-59.144v-15.664a1.756 1.756 0 0 1 1.753-1.755h135.32a1.709 1.709 0 0 1 1.7 1.755v49.619a1.715 1.715 0 0 1 -1.158 1.648l-12.861 4.433-36.878 9.807h-.007l-3.721.99h-53.229zm80.809 52.448v23.552a1.616 1.616 0 0 1 -1.612 1.615h-56.588a1.616 1.616 0 0 1 -1.613-1.615v-23.552a1.611 1.611 0 0 1 1.475-1.6c.048 0 .1.009.145.009h56.807a1.611 1.611 0 0 1 1.386 1.591zm101.054 281.238a23.493 23.493 0 0 1 -19.077 9.111l-179.149-3.222a23.662 23.662 0 0 1 -22.865-19.494h129.258a6.009 6.009 0 0 0 0-12.017h-128.428l51.462-215.2a4.184 4.184 0 0 1 4.08-3.223h63.8a4.2 4.2 0 0 1 4.2 4.249l-.613 55.965a42.412 42.412 0 0 0 1.185 10.435l-33.812-21.234a6.006 6.006 0 0 0 -6.375 10.18l90.931 57.107c12.8 8.12 24.639 13.8 29.373 31.4l18.92 70.331h-62.235a6.009 6.009 0 0 0 0 12.017h64.346a23.53 23.53 0 0 1 -5.001 13.595z"/><path d="m195.913 271.617a6 6 0 0 0 -6-6.009h-19.131v-19.158a6.005 6.005 0 0 0 -6-6.009h-26.946a6.005 6.005 0 0 0 -6 6.009v19.158h-19.131a6.005 6.005 0 0 0 -6 6.009v26.983a6 6 0 0 0 6 6.008h19.131v19.159a6.005 6.005 0 0 0 6 6.009h26.946a6.005 6.005 0 0 0 6-6.009v-19.158h19.131a6 6 0 0 0 6-6.008zm-12 20.975h-19.131a6 6 0 0 0 -6 6.009v19.159h-14.946v-19.16a6 6 0 0 0 -6-6.009h-19.131v-14.965h19.131a6 6 0 0 0 6-6.009v-19.159h14.946v19.159a6 6 0 0 0 6 6.009h19.131z"/><path d="m266.4 28.321 5.913-1.017a5.507 5.507 0 0 0 -1.861-10.856l-5.913 1.017a5.507 5.507 0 0 0 1.861 10.856z"/><path d="m326.287 17.939c.765 0 .305.027 14.666-2.442a5.508 5.508 0 0 0 -1.862-10.857l-13.728 2.36a5.509 5.509 0 0 0 .924 10.937z"/><path d="m292.9 23.762 13.73-2.362a5.508 5.508 0 0 0 -1.861-10.857l-13.729 2.362a5.508 5.508 0 0 0 1.86 10.857z"/><path d="m360.607 12.035c.729 0 .836-.063 6.851-1.1a5.507 5.507 0 0 0 -1.858-10.854l-5.917 1.019a5.509 5.509 0 0 0 .924 10.937z"/><path d="m271.464 36.451h-6a5.508 5.508 0 0 0 0 11.016h6a5.508 5.508 0 0 0 0-11.016z"/><path d="m306.456 36.451h-14a5.508 5.508 0 0 0 0 11.016h14a5.508 5.508 0 0 0 0-11.016z"/><path d="m341.448 36.451h-14a5.508 5.508 0 0 0 0 11.016h14a5.508 5.508 0 0 0 0-11.016z"/><path d="m368.442 36.451h-6a5.508 5.508 0 0 0 0 11.016h6a5.508 5.508 0 0 0 0-11.016z"/><path d="m272.312 57.036-5.912-1.022a5.508 5.508 0 0 0 -1.871 10.855l5.912 1.022a5.508 5.508 0 0 0 1.871-10.855z"/><path d="m306.634 62.967-13.728-2.367a5.508 5.508 0 0 0 -1.871 10.855c14.351 2.48 13.9 2.453 14.67 2.453a5.509 5.509 0 0 0 .929-10.936z"/><path d="m340.957 68.9-13.729-2.373a5.508 5.508 0 0 0 -1.871 10.856l13.729 2.372a5.508 5.508 0 0 0 1.871-10.855z"/><path d="m367.463 73.478-5.912-1.022a5.508 5.508 0 0 0 -1.871 10.856l5.912 1.022a5.508 5.508 0 0 0 1.871-10.856z"/></svg>