<svg id="Layer_5" enable-background="new 0 0 62 62" height="512" viewBox="0 0 62 62" width="512" xmlns="http://www.w3.org/2000/svg"><g><g><g><path d="m55 13v4h-6v-4h3z" fill="#cf9e76"/></g><g><path d="m59 17v24h-6v12h-4v-8h-4v-28h4 6z" fill="#dfb28b"/></g><g><path d="m33 5v6h-4v-6h2z" fill="#ccd1d9"/></g><g><path d="m25 23v-12h4 4 4v12h-6z" fill="#e6e9ed"/></g><g><path d="m35 45v6h-4v-28h6 2v22z" fill="#cf9e76"/></g><g><path d="m25 23h6v28h-6v10h-4v-10h-2v-12l4-4v-12z" fill="#dfb28b"/></g><g><path d="m6 16h8v4h-8z" fill="#fcd770"/></g><g><path d="m6 20h8 2v11c-4.56-1.95-8.41-5.25-11.04-9.46l-.96-1.54z" fill="#ffeaa7"/></g><g><path d="m16 31v7.67l-12-1.34v-17.33l.96 1.54c2.63 4.21 6.48 7.51 11.04 9.46z" fill="#ffeaa7"/></g><g><path d="m19 39v12h-10v10h-8v-24l3 .33 12 1.34z" fill="#f0d0b4"/></g><g><path d="m49 45v8h-6v8h-6v-10h-2v-6h4 6z" fill="#ffeaa7"/></g><g><path d="m55 53v8h-12v-8h6 4z" fill="#e6e9ed"/></g><g><path d="m53 41h6 2v20h-6v-8h-2z" fill="#ccd1d9"/></g><g><path d="m25 51h6 4 2v10h-12z" fill="#ccd1d9"/></g><g><path d="m9 51h10 2v10h-12z" fill="#ccd1d9"/></g></g><g><path d="m28 54h2v4h-2z"/><path d="m32 54h2v4h-2z"/><path d="m12 54h2v4h-2z"/><path d="m16 54h2v4h-2z"/><path d="m28 14h6v2h-6z"/><path d="m28 18h6v2h-6z"/><path d="m48 20h8v2h-8z"/><path d="m48 24h8v2h-8z"/><path d="m26 26h2v22h-2z"/><path d="m22 39h2v9h-2z"/><path d="m34 26h2v16h-2z"/><path d="m60 40v-24h-4v-4h-3v-4h-2v4h-3v4h-4v28h-4v-22h-2v-12h-4v-6h-2v-4h-2v4h-2v6h-4v12h-2v12.586l-3.367 3.367-1.633-.182v-18.771h-2v-4h-10v4h-2v17.216l-3-.333v26.117h62v-22zm-10-26h4v2h-4zm-4 4h12v22h-6v12h-2v-8h-4zm-10 34v8h-10v-8zm0-2v-4h12v6h-6v8h-4v-10zm8 4h10v6h-10zm-10-10v6h-2v-26h6v20zm-4-38h2v4h-2zm-4 6h10v10h-10zm-2 23.414v-11.414h6v26h-6v10h-2v-10h-2v-10.586zm-4 16.586v8h-10v-8zm-5-31v8.42c-3.77-1.917-6.929-4.795-9.188-8.409l-.008-.011zm-8-4h6v2h-6zm-2 6.374c2.56 3.585 5.983 6.41 10 8.258v5.918l-10-1.112zm13 16.522v1.987l-16-1.778v-1.988zm-16 2.221 16 1.778v6.105h-10v10h-6zm58 17.883h-4v-8h-2v-10h6z"/><path d="m56 44h2v6h-2z"/><path d="m48 28h8v2h-8z"/><path d="m48 32h8v2h-8z"/><path d="m48 36h8v2h-8z"/><path d="m48 40h2v2h-2z"/><path d="m46 56h6v2h-6z"/></g></g></svg>