<svg id="Layer_1" enable-background="new 0 0 64 64" height="512" viewBox="0 0 64 64" width="512" xmlns="http://www.w3.org/2000/svg"><g><g><path d="m57 0v20h-19-12.83c.96-14.13 5.86-20 5.86-20z" fill="#aac0d0"/><path d="m63 0v30l-6-5v-5-20z" fill="#5b7d8e"/><path d="m57 20v5h-32c0-1.78.06-3.45.17-5h12.83z" fill="#7296b1"/><path d="m25.17 20c-.11 1.55-.17 3.22-.17 5h4c0-1.78.06-3.45.17-5z" fill="#8eabc1"/><path d="m37.457 3h19.543v-3h-25.97s-4.9 5.87-5.86 20c.988-6.779 3.557-11.235 5.675-13.877 1.602-1.999 4.051-3.123 6.612-3.123z" fill="#c9d7e1"/><path d="m60 0v27.5l3 2.5v-30z" fill="#496570"/><path d="m27.551 62.895-.813 1.105h-17.738l10.281-14.015c1.24-1.69 2.83-3.03 4.62-3.98 1.8-.94 3.81-1.49 5.9-1.55h11.98c.52 0 1.03.11 1.48.34 1.18.52 2.02 1.7 2.09 3.09.02.5-.07.97-.24 1.42l1.46-.02 2.15-.02c.72 0 1.39-.35 1.82-.92l4.96-6.74 1.43-1.96c1.13-1.53 3.38-1.95 4.86-.74.66.53 1.05 1.28 1.17 2.05.13.84-.06 1.72-.6 2.46l-9.78 13.3c-.62.84-1.41 1.51-2.31 1.99s-1.9.76-2.94.8l-14.53.59c-2.09.09-4.02 1.11-5.25 2.8z" fill="#e8c395"/><path d="m41.866 51.593-8.921.243c.687 1.342 2.074 2.181 3.582 2.167l6.727-.064c1.144-.011 2.216-.56 2.893-1.481l2.343-3.187-1.923.014-1.461.018c-.112.3-.259.575-.448.832-.631.861-1.639 1.432-2.792 1.458z" fill="#d6a77c"/><path d="m19.766 56.818c.318 0 .63-.151.824-.433l2.456-3.563c1.058-1.534 2.539-2.692 4.283-3.349.517-.195.778-.771.584-1.288s-.773-.778-1.288-.584c-2.128.801-3.936 2.214-5.226 4.086l-2.456 3.563c-.313.455-.199 1.077.256 1.391.174.12.371.177.567.177z" fill="#f1dbbf"/></g><g fill="#252525"><path d="m63 0c-.553 0-1 .448-1 1v26.865l-4-3.333v-23.532c0-.552-.447-1-1-1s-1 .448-1 1v18h-18c-.553 0-1 .448-1 1s.447 1 1 1h18v3h-29.993c.013-1.029.054-2.026.109-3h6.884c.553 0 1-.448 1-1s-.447-1-1-1h-6.743c.848-9.993 3.703-15.521 4.925-17.468.294-.468.152-1.085-.314-1.378-.471-.295-1.087-.154-1.38.314-1.347 2.144-4.56 8.333-5.315 19.461-.115 1.607-.173 3.313-.173 5.071 0 .552.447 1 1 1h31.638l5.722 4.768c.184.153.683.327 1.064.138.351-.165.576-.518.576-.906v-29c0-.552-.447-1-1-1z"/><path d="m52 16c.553 0 1-.448 1-1v-4c0-.552-.447-1-1-1s-1 .448-1 1v4c0 .552.447 1 1 1z"/><path d="m48 16c.553 0 1-.448 1-1v-4c0-.552-.447-1-1-1s-1 .448-1 1v4c0 .552.447 1 1 1z"/><path d="m62.424 38.131c-.886-.724-2.019-1.042-3.19-.894-1.238.156-2.37.817-3.11 1.819l-6.38 8.687c-.247.327-.63.522-1.032.522l-2.39.026c.009-.152.035-.304.029-.457-.087-1.722-1.142-3.274-2.634-3.93-.576-.294-1.245-.45-1.936-.45h-12.008c-2.181.063-4.371.638-6.341 1.667-1.98 1.051-3.648 2.488-4.958 4.272l-9.547 13.016c-.326.445-.23 1.071.215 1.397.178.131.385.194.59.194.308 0 .611-.142.808-.409l9.547-13.014c1.129-1.539 2.569-2.78 4.276-3.686 1.697-.886 3.587-1.383 5.438-1.437h11.979c.375 0 .729.08 1.077.255.858.378 1.445 1.252 1.494 2.216.014.339-.044.674-.17 1.007-.099.248-.2.436-.328.611-.475.647-1.206 1.03-2.01 1.051l-8.931.24c-.552.015-.987.474-.973 1.026.015.553.484 1.006 1.027.973l8.93-.24c1.426-.037 2.727-.718 3.569-1.868.099-.136.187-.279.271-.428l2.983-.033c1.017 0 1.995-.493 2.626-1.327l6.389-8.699c.413-.559 1.05-.93 1.747-1.018.617-.08 1.219.084 1.682.463.433.348.72.854.809 1.423.094.608-.056 1.218-.418 1.715l-9.778 13.298c-.523.709-1.188 1.281-1.977 1.702-.786.419-1.629.649-2.51.683l-14.532.59c-2.415.104-4.607 1.275-6.012 3.206l-.077.104c-.328.444-.233 1.07.211 1.398.18.135.388.198.594.198.307 0 .609-.141.806-.406l.081-.11c1.048-1.441 2.683-2.312 4.482-2.39l14.527-.59c1.184-.045 2.318-.354 3.372-.917 1.053-.562 1.942-1.328 2.646-2.28l9.781-13.303c.68-.931.957-2.068.781-3.204-.166-1.063-.71-2.013-1.525-2.669z"/><path d="m33 28c-.553 0-1 .448-1 1 0 8.683-6.914 11-11 11-.553 0-1 .448-1 1s.447 1 1 1c6.261 0 13-4.068 13-13 0-.552-.447-1-1-1z"/><path d="m34.043 40.804c.18.132.388.196.595.196.307 0 .608-.14.805-.405 2.36-3.186 3.557-7.087 3.557-11.595 0-.552-.447-1-1-1s-1 .448-1 1c0 4.07-1.064 7.57-3.165 10.405-.328.444-.235 1.07.208 1.399z"/><path d="m43 28c-.553 0-1 .448-1 1 0 3.534-.819 7.595-2.138 10.598-.222.505.009 1.096.514 1.317.131.058.268.085.401.085.385 0 .752-.224.917-.599.475-1.083.884-2.297 1.226-3.569.772 1.07 1.819 1.756 2.867 2.017.405.101.815.151 1.223.151.895 0 1.775-.242 2.563-.714 1.146-.687 1.954-1.779 2.279-3.076.097-.39.146-.789.149-1.187.003-.552-.441-1.003-.994-1.006-.532-.006-1.002.442-1.006.994-.002.24-.032.481-.09.715-.195.777-.681 1.433-1.367 1.845-.688.413-1.494.532-2.271.338-.947-.237-2.552-1.358-2.552-4.062 0-.001-.001-.002-.001-.003.177-1.302.28-2.604.28-3.844 0-.552-.447-1-1-1z"/><path d="m4.012 35.566c.159 2.403 1.433 6.434 8.192 6.434h4.796c.553 0 1-.448 1-1s-.447-1-1-1h-4.796c-3.967 0-5.994-1.494-6.196-4.566-.071-1.086.396-2.28 1.251-3.194.727-.776 1.643-1.24 2.449-1.24 4.154 0 4.29 2.678 4.292 2.991-.005.549.434.999.982 1.009.564-.01 1.008-.43 1.018-.982.001-.076.017-1.87-1.393-3.303-1.117-1.138-2.765-1.715-4.899-1.715-1.369 0-2.794.683-3.909 1.874-.025.027-.047.057-.072.084-1.514-.207-2.727-1.47-2.727-2.958 0-1.654 1.346-3 3-3 .731 0 1.437.266 1.983.75.415.366 1.046.327 1.412-.087.365-.414.326-1.046-.088-1.412-.912-.807-2.087-1.251-3.307-1.251-2.757 0-5 2.243-5 5 0 2.172 1.525 4.052 3.564 4.721-.416.912-.615 1.887-.552 2.845z"/><path d="m20 37c8.897 0 9-7.92 9-8 0-.551-.445-.996-.996-.998-.001 0-.003 0-.004 0-.549 0-.995.445-1 .994-.005.614-.244 6.004-7 6.004-.553 0-1 .448-1 1s.447 1 1 1z"/><circle cx="50.163" cy="30.668" r="1"/><circle cx="14" cy="26" r="1"/><circle cx="17" cy="45" r="1"/><circle cx="5.163" cy="20.13" r="1"/><path d="m8.553 21.471c.083.008 2.061.227 3.169 2.049.188.309.517.48.855.48.177 0 .356-.047.519-.146.472-.287.622-.902.335-1.374-1.646-2.706-4.574-2.99-4.698-3-.544-.06-1.027.355-1.079.903-.052.547.352 1.034.899 1.088z"/><path d="m13 46c.553 0 1-.448 1-1s-.447-1-1-1h-4c-2.504 0-4.248-1.664-4.295-1.709-.392-.389-1.022-.387-1.412.002-.391.391-.391 1.023 0 1.414.094.094 2.332 2.293 5.707 2.293z"/></g></g></svg>