<?xml version="1.0" encoding="iso-8859-1"?>
<!-- Generator: Adobe Illustrator 19.0.0, SVG Export Plug-In . SVG Version: 6.00 Build 0)  -->
<svg version="1.1" id="Capa_1" xmlns="http://www.w3.org/2000/svg" xmlns:xlink="http://www.w3.org/1999/xlink" x="0px" y="0px"
	 viewBox="0 0 511.999 511.999" style="enable-background:new 0 0 511.999 511.999;" xml:space="preserve">
<path style="fill:#E5E5E5;" d="M469.867,76.04H42.134C18.867,76.04,0,94.912,0,118.174v185.617
	c0,23.273,18.867,42.134,42.134,42.134c18.162,0,413.104,0,427.732,0c23.273,0,42.133-18.861,42.133-42.134V118.174
	C512,94.912,493.14,76.04,469.867,76.04z"/>
<path style="fill:#D9DBDB;" d="M20.605,303.792V118.174c0-23.262,18.867-42.134,42.134-42.134H42.134
	C18.867,76.04,0,94.912,0,118.174v185.617c0,23.273,18.867,42.134,42.134,42.134h20.605
	C39.472,345.926,20.605,327.065,20.605,303.792z"/>
<path style="fill:#BABABA;" d="M379.224,142.884c-41.698,0-75.504,33.806-75.504,75.504v127.538c16.654,0,132.443,0,151.007,0
	V218.388C454.727,176.69,420.921,142.884,379.224,142.884z"/>
<path style="fill:#ADADAD;" d="M390.001,143.663c-45.64-6.532-86.281,28.819-86.281,74.725v127.538c5.684,0,9.198,0,21.555,0
	V218.388C325.275,180.35,353.411,148.895,390.001,143.663z"/>
<path style="fill:#989DA0;" d="M379.223,301.517c-23.987,0-43.342,20.071-42.051,44.409h84.102
	C422.565,321.586,403.21,301.517,379.223,301.517z"/>
<path style="fill:#858B8E;" d="M389.051,302.682c-27.375-6.548-53.375,15.027-51.879,43.244h19.656
	C355.717,324.974,369.894,307.264,389.051,302.682z"/>
<g>
	<path style="fill:#6EDCF9;" d="M308.365,435.066c-3.776-1.988-5.224-6.661-3.236-10.437l23.177-44.004
		c1.989-3.776,6.661-5.226,10.437-3.236c3.776,1.988,5.224,6.661,3.236,10.437l-23.177,44.004
		C316.815,435.605,312.141,437.056,308.365,435.066z"/>
	<path style="fill:#6EDCF9;" d="M355.813,435.066c-3.776-1.989-5.224-6.661-3.236-10.437l23.178-44.004
		c1.988-3.776,6.661-5.223,10.437-3.236c3.776,1.989,5.224,6.661,3.236,10.437L366.25,431.83
		C364.268,435.594,359.604,437.061,355.813,435.066z"/>
	<path style="fill:#6EDCF9;" d="M404.906,435.066c-3.776-1.989-5.224-6.661-3.236-10.437l23.177-44.004
		c1.989-3.776,6.661-5.223,10.437-3.236c3.776,1.989,5.224,6.661,3.236,10.437l-23.177,44.004
		C413.362,435.592,408.699,437.062,404.906,435.066z"/>
</g>
<g>
	<path style="fill:#BABABA;" d="M141.466,193.935h-71.22c-9.703,0-17.571-7.867-17.571-17.571c0-9.705,7.868-17.571,17.571-17.571
		h71.22c9.704,0,17.572,7.867,17.572,17.571C159.037,186.068,151.17,193.935,141.466,193.935z"/>
	<path style="fill:#BABABA;" d="M141.466,263.175h-71.22c-9.703,0-17.571-7.866-17.571-17.571s7.868-17.571,17.571-17.571h71.22
		c9.704,0,17.572,7.866,17.572,17.571C159.037,255.309,151.17,263.175,141.466,263.175z"/>
</g>
<g>
	<path style="fill:#ADADAD;" d="M103.796,176.364c0-9.705,7.868-17.571,17.571-17.571h-51.12c-9.703,0-17.571,7.867-17.571,17.571
		s7.868,17.571,17.571,17.571h51.12C111.663,193.935,103.796,186.068,103.796,176.364z"/>
	<path style="fill:#ADADAD;" d="M103.796,245.604c0-9.705,7.868-17.571,17.571-17.571h-51.12c-9.703,0-17.571,7.866-17.571,17.571
		s7.868,17.571,17.571,17.571h51.12C111.663,263.175,103.796,255.309,103.796,245.604z"/>
</g>
<circle style="fill:#585A60;" cx="379.22" cy="216.819" r="19.656"/>
<path style="fill:#494B51;" d="M389.052,199.815c-13.073-7.574-29.484,1.884-29.484,17.004c0,15.101,16.393,24.59,29.484,17.005
	C375.95,226.236,375.969,207.393,389.052,199.815z"/>
<g>
</g>
<g>
</g>
<g>
</g>
<g>
</g>
<g>
</g>
<g>
</g>
<g>
</g>
<g>
</g>
<g>
</g>
<g>
</g>
<g>
</g>
<g>
</g>
<g>
</g>
<g>
</g>
<g>
</g>
</svg>
