<svg height="512" viewBox="0 0 64 64" width="512" xmlns="http://www.w3.org/2000/svg"><g id="towel_rack-rack-towel-elegant-household" data-name="towel rack-rack-towel-elegant-household"><path d="m61 4v52a1 1 0 0 1 -1 1h-2a1 1 0 0 1 -1-1v-52a1 1 0 0 1 1-1h2a1 1 0 0 1 1 1z" fill="#cc7400"/><path d="m7 9h50v4h-50z" fill="#ee8700"/><path d="m7 35h50v4h-50z" fill="#ee8700"/><g fill="#e6e7e8"><path d="m18 43v4h-5a1 1 0 0 1 -1-1v-3z"/><path d="m30 51v3a1 1 0 0 1 -1 1h-10a1 1 0 0 1 -1-1v-3z"/><path d="m52 51v3a1 1 0 0 1 -1 1h-10a1 1 0 0 1 -1-1v-3z"/><path d="m40 43v4h-5a1 1 0 0 1 -1-1v-3z"/><path d="m52 25v3a1 1 0 0 1 -1 1h-10a1 1 0 0 1 -1-1v-3z"/><path d="m40 17v4h-5a1 1 0 0 1 -1-1v-3z"/><path d="m30 25v3a1 1 0 0 1 -1 1h-10a1 1 0 0 1 -1-1v-3z"/><path d="m18 17v4h-5a1 1 0 0 1 -1-1v-3z"/></g><path d="m12 39h6v4h-6z" fill="#3d9ae2"/><path d="m17.82 35h-5.64a2.99 2.99 0 0 1 4.94-1.12 2.838 2.838 0 0 1 .7 1.12z" fill="#3d9ae2"/><path d="m39.82 35h-5.64a2.99 2.99 0 0 1 4.94-1.12 2.838 2.838 0 0 1 .7 1.12z" fill="#3d9ae2"/><path d="m34 39h6v4h-6z" fill="#3d9ae2"/><path d="m34 13h6v4h-6z" fill="#3d9ae2"/><path d="m39.82 9h-5.64a2.99 2.99 0 0 1 4.94-1.12 2.838 2.838 0 0 1 .7 1.12z" fill="#3d9ae2"/><path d="m12 13h6v4h-6z" fill="#3d9ae2"/><path d="m17.82 9h-5.64a2.99 2.99 0 0 1 4.94-1.12 2.838 2.838 0 0 1 .7 1.12z" fill="#3d9ae2"/><path d="m7 39v17a1 1 0 0 1 -1 1h-2a1 1 0 0 1 -1-1v-52a1 1 0 0 1 1-1h2a1 1 0 0 1 1 1z" fill="#cc7400"/><path d="m18 10v3h-2v-3a2.772 2.772 0 0 0 -.18-1h2a2.772 2.772 0 0 1 .18 1z" fill="#cc7400"/><path d="m40 10v3h-2v-3a2.772 2.772 0 0 0 -.18-1h2a2.772 2.772 0 0 1 .18 1z" fill="#cc7400"/><path d="m18 36v3h-2v-3a2.772 2.772 0 0 0 -.18-1h2a2.772 2.772 0 0 1 .18 1z" fill="#cc7400"/><path d="m40 36v3h-2v-3a2.772 2.772 0 0 0 -.18-1h2a2.772 2.772 0 0 1 .18 1z" fill="#cc7400"/><path d="m15 33h11a4.01 4.01 0 0 1 4 4v14h-12v-15a2.772 2.772 0 0 0 -.18-1 2.838 2.838 0 0 0 -.7-1.12 2.993 2.993 0 0 0 -2.12-.88z" fill="#5aaae7"/><path d="m37 33h11a4.01 4.01 0 0 1 4 4v14h-12v-15a2.772 2.772 0 0 0 -.18-1 2.838 2.838 0 0 0 -.7-1.12 2.993 2.993 0 0 0 -2.12-.88z" fill="#5aaae7"/><path d="m37 7h11a4.01 4.01 0 0 1 4 4v14h-12v-15a2.772 2.772 0 0 0 -.18-1 2.838 2.838 0 0 0 -.7-1.12 2.993 2.993 0 0 0 -2.12-.88z" fill="#5aaae7"/><path d="m15 7h11a4.01 4.01 0 0 1 4 4v14h-12v-15a2.772 2.772 0 0 0 -.18-1 2.838 2.838 0 0 0 -.7-1.12 2.993 2.993 0 0 0 -2.12-.88z" fill="#5aaae7"/><path d="m62 56v-52a2.006 2.006 0 0 0 -2-2h-2a2.006 2.006 0 0 0 -2 2v4h-4.03a4.952 4.952 0 0 0 -3.97-2h-11a3.959 3.959 0 0 0 -3.45 2h-3.58a4.952 4.952 0 0 0 -3.97-2h-11a3.959 3.959 0 0 0 -3.45 2h-3.55v-4a2.006 2.006 0 0 0 -2-2h-2a2.006 2.006 0 0 0 -2 2v52a2.006 2.006 0 0 0 2 2v2h-2v2h6v-2h-2v-2a2.006 2.006 0 0 0 2-2v-16h3v6a2.006 2.006 0 0 0 2 2h4v6a2.006 2.006 0 0 0 2 2h10a2.006 2.006 0 0 0 2-2v-14h2v6a2.006 2.006 0 0 0 2 2h4v6a2.006 2.006 0 0 0 2 2h10a2.006 2.006 0 0 0 2-2v-14h3v16a2.006 2.006 0 0 0 2 2v2h-2v2h6v-2h-2v-2a2.006 2.006 0 0 0 2-2zm-23-46v2h-8v-1a5.468 5.468 0 0 0 -.1-1zm-4 6v-2h4v2zm4 2v2h-4v-2zm-13-10a3.009 3.009 0 0 1 3 3v13h-10v-14a3.56 3.56 0 0 0 -.23-1.31 3.6 3.6 0 0 0 -.32-.69zm3 18v2h-10v-2zm-21-16h9v2h-9zm5 6v-2h4v2zm4 2v2h-4v-2zm0 28h-4v-2h4zm0-4h-4v-2h4zm0-4h-9v-2h9zm12 16h-10v-2h10zm0-4h-10v-14a3.56 3.56 0 0 0 -.23-1.31 3.6 3.6 0 0 0 -.32-.69h7.55a3.009 3.009 0 0 1 3 3zm10-4h-4v-2h4zm0-4h-4v-2h2v-2h-6v-1a5.468 5.468 0 0 0 -.1-1h8.1zm12 12h-10v-2h10zm0-4h-10v-14a3.56 3.56 0 0 0 -.23-1.31 3.6 3.6 0 0 0 -.32-.69h7.55a3.009 3.009 0 0 1 3 3zm5-12h-3v-1a5.468 5.468 0 0 0 -.1-1h3.1zm0-4h-4.03a4.952 4.952 0 0 0 -3.97-2h-11a3.959 3.959 0 0 0 -3.45 2h-3.58a4.952 4.952 0 0 0 -3.97-2h-11a3.959 3.959 0 0 0 -3.45 2h-3.55v-8h-2v30h-2v-52h2v20h2v-10h3v6a2.006 2.006 0 0 0 2 2h4v6a2.006 2.006 0 0 0 2 2h10a2.006 2.006 0 0 0 2-2v-14h2v6a2.006 2.006 0 0 0 2 2h4v6a2.006 2.006 0 0 0 2 2h10a2.006 2.006 0 0 0 2-2v-8h-2v4h-10v-14a3.56 3.56 0 0 0 -.23-1.31 3.6 3.6 0 0 0 -.32-.69h7.55a3.009 3.009 0 0 1 3 3v7h2v-4h3zm-15-6v-2h10v2zm15-16h-3v-1a5.468 5.468 0 0 0 -.1-1h3.1zm2 44v-52h2v52z"/></g></svg>