<svg enable-background="new 0 0 512 512" viewBox="0 0 512 512" xmlns="http://www.w3.org/2000/svg"><g id="_x31_7_Elevator"><g><path d="m472.005 59.409v430.837h-432.01v-430.837c0-20.796 16.858-37.654 37.654-37.654h356.703c20.795 0 37.653 16.859 37.653 37.654z" fill="#fff"/><path d="m88.38 97.213h276.199v393.033h-276.199z" fill="#fdce06"/><g fill="#3e3e3e"><path d="m498.92 482.689h-19.359v-423.279c0-24.927-20.282-45.212-45.209-45.212h-356.704c-24.927 0-45.209 20.285-45.209 45.212v423.279h-19.359c-4.173 0-7.556 3.38-7.556 7.556 0 4.177 3.383 7.556 7.556 7.556h485.84c4.173 0 7.556-3.38 7.556-7.556s-3.383-7.556-7.556-7.556zm-279.997 0h-122.985v-377.919h122.986v377.919zm138.098 0h-122.985v-377.919h122.986v377.919zm107.427 0h-92.314v-385.475c0-4.177-3.383-7.556-7.556-7.556h-276.197c-4.173 0-7.556 3.38-7.556 7.556v385.475h-33.273v-423.279c0-16.596 13.5-30.1 30.096-30.1h356.704c16.596 0 30.096 13.504 30.096 30.1z"/><path d="m285.952 49.913h-72.578c-4.173 0-7.556 3.38-7.556 7.556s3.383 7.556 7.556 7.556h72.578c4.173 0 7.556-3.38 7.556-7.556s-3.383-7.556-7.556-7.556z"/><path d="m423.951 211.312c-2.946-2.946-7.729-2.956-10.685 0l-21.533 21.533c-2.952 2.952-2.952 7.733 0 10.685s7.733 2.952 10.685 0l16.19-16.19 16.186 16.19c2.952 2.952 7.733 2.952 10.685 0s2.952-7.733 0-10.685z"/><path d="m434.795 283.207-16.186 16.19-16.19-16.19c-2.952-2.952-7.733-2.952-10.685 0s-2.952 7.733 0 10.685l21.533 21.533c2.946 2.946 7.729 2.956 10.685 0l21.529-21.533c2.952-2.952 2.952-7.733 0-10.685-2.953-2.952-7.735-2.952-10.686 0z"/></g></g></g><g id="Layer_1"/></svg>