<svg height="512" viewBox="0 0 60 60" width="512" xmlns="http://www.w3.org/2000/svg"><g id="Page-1" fill="none" fill-rule="evenodd"><g id="017---Spring-Clean" fill-rule="nonzero" transform="translate(0 -1)"><path id="Shape" d="m7 24v6h-4c-1.10320187-.0032948-1.9967052-.8967981-2-2v-2c.0032948-1.1032019.89679813-1.9967052 2-2z" fill="#ff9801"/><path id="Shape" d="m35 26v2c-.0032948 1.1032019-.8967981 1.9967052-2 2h-14v-6h14c1.1032019.0032948 1.9967052.8967981 2 2z" fill="#ff9801"/><path id="Shape" d="m33 24h-3c1.1032019.0032948 1.9967052.8967981 2 2v2c-.0032948 1.1032019-.8967981 1.9967052-2 2h3c1.1032019-.0032948 1.9967052-.8967981 2-2v-2c-.0032948-1.1032019-.8967981-1.9967052-2-2z" fill="#f57c00"/><path id="Shape" d="m31 23c.0030533.3377372-.0406959.6742693-.13 1h-11.87v17c-.0081672 1.1011688-.8988312 1.9918328-2 2-1.1032019-.0032948-1.9967052-.8967981-2-2v-7c-.0081672-1.1011688-.8988312-1.9918328-2-2-1.1032019.0032948-1.9967052.8967981-2 2v3c-.0081672 1.1011688-.8988312 1.9918328-2 2-1.10320187-.0032948-1.9967052-.8967981-2-2v-13h-1.64c-1.12432815-.9826841-1.60602934-2.5108072-1.24848099-3.9606144.35754834-1.4498072 1.49452578-2.5787352 2.94683668-2.9259741 1.45231089-.3472389 2.97697311.145307 3.95164431 1.2765885 1.4821781-2.4658122 4.3231333-3.7724386 7.1598984-3.2930165 2.8367651.4794222 5.0905561 2.6470765 5.6801016 5.4630165 1.04126-1.3569046 2.8319806-1.8985011 4.4507033-1.3460978s2.7047727 2.0757228 2.6992967 3.7860978z" fill="#02a9f4"/><path id="Shape" d="m27 19c-.512182.0013138-1.019116.1032442-1.492.3 1.5051263.6126357 2.4900279 2.0749696 2.492 3.7.0030533.3377372-.0406959.6742693-.13 1h3c.0893041-.3257307.1330533-.6622628.13-1 0-2.209139-1.790861-4-4-4z" fill="#0377bc"/><path id="Shape" d="m27 51c-.5 4 .5 6.25 2.5 7.5-.7571674.9492139-1.9057894 1.501436-3.12 1.5h-16.76c-2.05426131.0000258-3.77457387-1.5560358-3.98-3.6l-2.64-26.4h4v7c.0032948 1.1032019.89679813 1.9967052 2 2 1.1011688-.0081672 1.9918328-.8988312 2-2v-3c.0032948-1.1032019.8967981-1.9967052 2-2 1.1011688.0081672 1.9918328.8988312 2 2v7c.0032948 1.1032019.8967981 1.9967052 2 2 1.1011688-.0081672 1.9918328-.8988312 2-2v-11h14l-1.07 10.7c-2.7371807 2.7936528-4.4709545 6.4159388-4.93 10.3z" fill="#ffdc00"/><path id="Shape" d="m31.93 40.7 1.07-10.7h-3l-1.07 10.7c-2.7371807 2.7936528-4.4709545 6.4159388-4.93 10.3-.5 4 .5 6.25 2.5 7.5-.7571674.9492139-1.9057894 1.501436-3.12 1.5000028l3-.0000028c1.2142106.001436 2.3628326-.5507861 3.12-1.5-2-1.25-3-3.5-2.5-7.5.4590455-3.8840612 2.1928193-7.5063472 4.93-10.3z" fill="#fec108"/><path id="Shape" d="m52.77 60h-14.77c-3.5 0-6.5-.25-8.5-1.5s-3-3.5-2.5-7.5c.4590455-3.8840612 2.1928193-7.5063472 4.93-10.3 2.5719206-2.5758004 5.5062145-4.7622031 8.71-6.49.02.01.04.01.06.02l7.3 2.33v9.44c0 4.95 3.5 9.89 5.55 12.37.2433413.2999599.2921765.7132418.1254501 1.0616571-.1667263.3484154-.5191999.5696599-.9054501.5683429z" fill="#ffeb3a"/><path id="Shape" d="m53.55 58.37c-2.05-2.48-5.55-7.42-5.55-12.37v-9.44l-7.3-2.33c-.02-.01-.04-.01-.06-.02-.3553333.2046667-.7066667.412-1.054.622l5.414 1.728v9.44c0 4.95 3.5 9.89 5.55 12.37.2433413.2999599.2921765.7132418.1254501 1.0616571-.1667263.3484154-.5191999.5696599-.9054501.5683429h3c.3862502.001317.7387238-.2199275.9054501-.5683429.1667264-.3484153.1178912-.7616972-.1254501-1.0616571z" fill="#fdd834"/><path id="Shape" d="m50.18 34.11-.61 1.9c-.0776516.2532669-.2537559.4647423-.4887828.5869562-.2350268.122214-.509287.1449281-.7612172.0630438l-.32-.1-7.3-2.33c-.02-.01-.04-.01-.06-.02-.4913362-.1947386-.7488285-.7359089-.59-1.24l.61-1.9c.0776516-.2532669.2537559-.4647423.4887828-.5869562.2350268-.122214.509287-.1449281.7612172-.0630438l7.62 2.43c.2536818.0803135.4648937.2584205.5868869.4948996.1219932.2364792.1447067.5118274.0631131.7651004z" fill="#a0522d"/><path id="Shape" d="m48.581 32.546 8.5-26.634c.5036746-1.57842905-.3675761-3.26630931-1.946-3.77-1.578429-.50367456-3.2663093.3675761-3.77 1.946l-8.5 26.635z" fill="#91562d"/><path id="Shape" d="m55.132 2.142c-.8034901-.25483022-1.6773172-.15745572-2.405.268 1.2142622.70644825 1.7756872 2.16091727 1.351 3.5l-8.22 25.766 2.723.868 8.5-26.634c.5021255-1.5786909-.3704089-3.26556091-1.949-3.768z" fill="#6d4122"/><circle id="Oval" cx="25" cy="36" fill="#ff9801" r="2"/><circle id="Oval" cx="17" cy="49" fill="#02a9f4" r="2"/><circle id="Oval" cx="6" cy="10" fill="#02a9f4" r="2"/><circle id="Oval" cx="33" cy="12" fill="#02a9f4" r="2"/><g fill="#000"><path id="Shape" d="m17 46c-1.6568542 0-3 1.3431458-3 3s1.3431458 3 3 3 3-1.3431458 3-3-1.3431458-3-3-3zm0 4c-.5522847 0-1-.4477153-1-1s.4477153-1 1-1 1 .4477153 1 1-.4477153 1-1 1z"/><path id="Shape" d="m59 59h-4.244c.0079958-.4614159-.1479121-.9107141-.44-1.268-1.985-2.398-5.316-7.11-5.316-11.732v-8.352c.7144653-.1305178 1.300129-.6417262 1.526-1.332l.61-1.905c.1610331-.5056333.1145186-1.0545362-.1293029-1.5258618-.2438214-.4713256-.6649598-.8264318-1.1706971-.9871382l8.195-25.682c.6715783-2.10475718-.4902428-4.35542174-2.595-5.027s-4.3554217.49024282-5.027 2.595l-8.193 25.682c-1.0526084-.3311979-2.1751544.2495064-2.513 1.3l-.607 1.9c-.1314627.4164677-.1216191.8647051.028 1.275-2.0912094 1.2153831-4.0750523 2.6067495-5.93 4.159l.727-7.265c1.2334632-.395552 2.0724913-1.5396813 2.079-2.835v-2c0-1.6568542-1.3431458-3-3-3h-1c.0174989-1.5065899-.6531011-2.9389005-1.8214165-3.8902987-1.1683153-.9513981-2.7067653-1.3179904-4.1785835-.9957013v-7.114c0-3.3137085-2.6862915-6-6-6s-6 2.6862915-6 6v3.592c-1.2290848.4941431-2.3147984 1.2883161-3.158 2.31-.8321962-.5854456-1.82450582-.9003869-2.842-.902-1.68762207-.0031096-3.26251354.8468286-4.18621742 2.2592198-.92370388 1.4123913-1.0710959 3.1959141-.39178258 4.7407802h-.422c-1.65685425 0-3 1.3431458-3 3v2c.00434799 1.2971646.84379058 2.4438779 2.079 2.84l2.566 25.66c.2464786 2.5601477 2.40303749 4.510804 4.975 4.5h16.76c1.2232579-.0003995 2.4033306-.4522741 3.314-1.269 2.085 1.008 4.888 1.269 8.306 1.269h21c.5522847 0 1-.4477153 1-1s-.4477153-1-1-1zm-6.686-54.608c.2448171-.77269541.9317983-1.32122212 1.7395165-1.38893372.8077183-.06771159 1.5764362.35878284 1.9464835 1.07993372.2450004.47072889.2911046 1.02001705.128 1.525l-8.196 25.682-3.81-1.216zm-10.706 26.979 7.621 2.429-.608 1.905-7.621-2.429zm-8.608-6.371c.5522847 0 1 .4477153 1 1v2c0 .5522847-.4477153 1-1 1h-7v-4zm-13 0h4v4h-4zm7-5c1.6568542 0 3 1.3431458 3 3h-4v-2.8c.3189025-.1252128.6574697-.1929263 1-.2zm-11-9c0-2.209139 1.790861-4 4-4s4 1.790861 4 4v7.172c-1.5544535-2.8979014-4.7393727-4.5321631-8-4.105zm-11 10c-.00657635-1.2530344.77013374-2.3767914 1.94461959-2.813508 1.17448585-.4367165 2.4967012-.0934162 3.31038041.859508.209601.2410945.5217788.3675335.8400786.3402507.3182999-.0272828.6044069-.2050034.7699214-.4782507 1.2694815-2.1138486 3.7039526-3.2346099 6.1353698-2.8245498 2.4314173.41006 4.3636519 2.2672688 4.8696302 4.6805498.0797011.3817261.3740314.6823021.754.77.1237478.0264566.251471.0284947.376.006v1.46h-4v-1c0-.5522847-.4477153-1-1-1s-1 .4477153-1 1v19c.0003954.2693445-.110308.526929-.306.712-.1823963.1865985-.4330776.2906276-.694.288-.5522847 0-1-.4477153-1-1v-7c-.0082058-1.6534434-1.3465566-2.9917942-3-3-1.6568542 0-3 1.3431458-3 3v3c.0003954.2693445-.11030803.526929-.306.712-.18239634.1865985-.43307757.2906276-.694.288-.55228475 0-1-.4477153-1-1v-15c0-.5522847-.44771525-1-1-1s-1 .4477153-1 1v1h-.208c-.50363466-.5449118-.7860237-1.2580155-.792-2zm-3 5c0-.5522847.44771525-1 1-1h3v4h-3c-.55228475 0-1-.4477153-1-1zm24.38 33h-16.76c-1.54339447.0070494-2.83765529-1.1636388-2.985-2.7l-2.53-25.3h1.895v6c0 1.6568542 1.34314575 3 3 3 1.6529917-.0092882 2.9907118-1.3470083 3-3v-3c0-.5522847.4477153-1 1-1 .2696918-.0006712.5276905.1100548.713.306.1854514.1830903.2889672.4334037.287.694v7c0 1.6568542 1.3431458 3 3 3 1.6529917-.0092882 2.9907118-1.3470083 3-3v-10h4v2.184c-1.3775467.4870363-2.2038721 1.8956662-1.9567957 3.3357331.2470764 1.4400668 1.4956868 2.492694 2.9567957 2.492694s2.7097193-1.0526272 2.9567957-2.492694c.2470764-1.4400669-.579249-2.8486968-1.9567957-3.3357331v-2.184h5.9l-.925 9.245c-2.7478983 2.9221325-4.4869495 6.6480199-4.962 10.631-.407 3.257.1 5.643 1.56 7.293.118.134.258.24.386.362-.4715874.3020796-1.018975.4646665-1.579.469zm-.38-23c0 .5522847-.4477153 1-1 1s-1-.4477153-1-1 .4477153-1 1-1 1 .4477153 1 1zm25 23h-4.672c-.2775673-.1917739-.5653225-.3683661-.862-.529-1.778-.984-4.466-2.471-4.466-7.471 0-6.435 2.685-9.27 2.707-9.293.3789722-.3923789.3735524-1.0160848-.0121814-1.4018186s-1.0094397-.3911536-1.4018186-.0121814c-.135.134-3.293 3.377-3.293 10.707 0 4.372 1.859 6.675 3.578 8h-4.3c-1.9662718-.9895914-3.4289854-2.7565233-4.034-4.873-.912-3.732 1.565-7.536 1.59-7.574.3024136-.4596711.176661-1.0772951-.2814107-1.382126s-1.0763496-.1823336-1.3835893.274126c-.122.184-2.984 4.549-1.871 9.142.4047105 1.6430232 1.272379 3.1354131 2.5 4.3-2.423-.2-4.554-.713-5.726-2.04-1.055-1.2-1.407-3.067-1.075-5.722.983-7.846 6.675-12.262 12.768-15.825l6.235 1.99v8.71c0 5.249 3.618 10.4 5.771 13z"/><path id="Shape" d="m9 10c0-1.65685425-1.34314575-3-3-3s-3 1.34314575-3 3c0 1.6568542 1.34314575 3 3 3 .79564947 0 1.55871121-.3160705 2.12132034-.8786797.56260914-.5626091.87867966-1.3256708.87867966-2.1213203zm-4 0c0-.55228475.44771525-1 1-1s1 .44771525 1 1c0 .5522847-.44771525 1-1 1s-1-.4477153-1-1z"/><path id="Shape" d="m33 15c1.6568542 0 3-1.3431458 3-3s-1.3431458-3-3-3-3 1.3431458-3 3 1.3431458 3 3 3zm0-4c.5522847 0 1 .4477153 1 1s-.4477153 1-1 1-1-.4477153-1-1 .4477153-1 1-1z"/><circle id="Oval" cx="29" cy="5" r="1"/><circle id="Oval" cx="12" cy="5" r="1"/></g></g></g></svg>