<svg height="512" viewBox="0 0 256 256" width="512" xmlns="http://www.w3.org/2000/svg"><g id="Icons"><g><path d="m233.667 171.263h-211.613c-4.488 0-6.901-5.271-3.97-8.668l69.004-79.968h81.545l69.004 79.968c2.931 3.397.517 8.668-3.97 8.668z" fill="#72c2e9"/><path d="m147.661 49.924h-39.6c-11.583 0-20.972 9.39-20.972 20.972v11.73h81.545v-11.73c-.001-11.582-9.391-20.972-20.973-20.972z" fill="#afafaf"/><path d="m120.511 6.431h13.632v43.493h-13.632z" fill="#efefef"/><path d="m158.627 171.262v14.072c0 11.587-9.396 20.972-20.972 20.972h-19.588c-11.577 0-20.972-9.385-20.972-20.972v-14.072z" fill="#f0c020"/><path d="m97.094 171.262h61.533v7.34h-61.533z" fill="#e8a61e"/><path d="m210.576 68.393c-3.283-1.076-5.799-1.795-7.497-9.104-.597-2.573-4.275-2.566-4.87 0-1.667 7.179-3.986 7.945-7.496 9.104-2.279.753-2.284 3.993 0 4.748 5.831 1.927 6.493 4.782 7.496 9.104.599 2.578 4.272 2.578 4.871 0 1.665-7.178 3.985-7.944 7.496-9.104 2.279-.752 2.284-3.993 0-4.748z"/><path d="m203.909 70.79c-1.19.87-2.27 2.02-3.22 3.62-.8-1.28-1.88-2.51-3.41-3.59 1.26-.9 2.39-2.09 3.37-3.79 1 1.72 2.11 2.9 3.26 3.76z" fill="#f0c020"/><path d="m65.007 68.393c-3.283-1.076-5.799-1.795-7.497-9.104-.597-2.573-4.275-2.566-4.87 0-1.667 7.179-3.986 7.945-7.496 9.104-2.279.753-2.284 3.993 0 4.748 5.831 1.927 6.493 4.782 7.496 9.104.599 2.578 4.272 2.578 4.871 0 1.665-7.178 3.985-7.944 7.496-9.104 2.279-.752 2.284-3.993 0-4.748z"/><path d="m58.34 70.79c-1.19.87-2.27 2.02-3.22 3.62-.8-1.28-1.88-2.51-3.41-3.59 1.26-.9 2.39-2.09 3.37-3.79 1 1.72 2.11 2.9 3.26 3.76z" fill="#f0c020"/><path d="m220.324 162.41-1.96-2.271c-.902-1.045-.786-2.624.26-3.526 1.044-.902 2.624-.786 3.525.259l1.96 2.271c.902 1.045.786 2.624-.26 3.526-1.042.901-2.622.788-3.525-.259zm-8.493-9.842-49.893-57.822c-.902-1.045-.786-2.624.26-3.526 1.043-.901 2.623-.787 3.525.259l49.893 57.822c.902 1.045.786 2.624-.26 3.526-1.044.903-2.623.786-3.525-.259z" fill="#c5e5fe"/><path d="m239.529 160.961-68.396-79.264v-10.801c0-12.943-10.53-23.473-23.473-23.473h-11.02v-7.993c0-1.38-1.12-2.5-2.5-2.5-1.381 0-2.5 1.12-2.5 2.5v7.994h-8.629v-40.993c0-1.381-1.119-2.5-2.5-2.5s-2.5 1.119-2.5 2.5v40.993h-9.951c-12.942 0-23.473 10.53-23.473 23.473v10.792l-22.667 26.271c-.899 1.05-.779 2.63.26 3.53 1.042.903 2.613.792 3.53-.26l22.523-26.104h79.255l68.256 79.102c1.533 1.776.271 4.535-2.077 4.535-6.291 0-195.397 0-211.613 0-2.341 0-3.601-2.741-2.09-4.518.005-.006.011-.01.016-.015l32.66-37.86c.898-1.021.791-2.634-.261-3.52-1.01-.87-2.66-.75-3.52.26l-32.67 37.85c-.012.014-.019.03-.031.043-4.281 5.027-.709 12.759 5.894 12.759h72.543v11.575c0 12.943 10.53 23.473 23.473 23.473h19.582.001c5.269 0 10.438-1.801 14.558-5.06 1.08-.85 1.26-2.43.4-3.51-.82-1.05-2.46-1.24-3.51-.41-3.28 2.6-7.24 3.98-11.45 3.98h-19.581c-10.186 0-18.473-8.287-18.473-18.473v-11.575h56.523v10.497c0 1.38 1.13 2.5 2.5 2.5 1.38 0 2.5-1.12 2.5-2.5v-10.497h72.547c6.632.001 10.192-7.785 5.864-12.801zm-73.396-80.835h-76.545v-9.23c0-10.186 8.287-18.473 18.473-18.473h39.6c10.186 0 18.473 8.287 18.473 18.473v9.23z"/><circle cx="134.141" cy="29.43" r="2.5"/><path d="m134.141 21.93c1.38 0 2.5-1.12 2.5-2.5v-13c0-1.38-1.12-2.5-2.5-2.5-1.381 0-2.5 1.12-2.5 2.5v13c0 1.381 1.119 2.5 2.5 2.5z"/><path d="m114.228 61.888c-1.381 0-2.5 1.119-2.5 2.5v4.981c0 1.381 1.119 2.5 2.5 2.5s2.5-1.119 2.5-2.5v-4.981c0-1.381-1.119-2.5-2.5-2.5z"/><path d="m127.86 61.888c-1.381 0-2.5 1.119-2.5 2.5v4.981c0 1.381 1.119 2.5 2.5 2.5s2.5-1.119 2.5-2.5v-4.981c0-1.381-1.119-2.5-2.5-2.5z"/><path d="m141.492 61.888c-1.381 0-2.5 1.119-2.5 2.5v4.981c0 1.381 1.119 2.5 2.5 2.5s2.5-1.119 2.5-2.5v-4.981c0-1.381-1.119-2.5-2.5-2.5z"/><path d="m59.17 118.8c.911-1.035.777-2.645-.26-3.52-1-.87-2.66-.75-3.52.26-.913 1.037-.775 2.647.26 3.52 1.057.915 2.633.778 3.52-.26z"/><path d="m156.76 196.5c.971 0 1.86-.58 2.271-1.46 0 0 0-.01.01-.01.57-1.26.01-2.74-1.25-3.31-1.22-.56-2.76.02-3.31 1.24-.763 1.684.507 3.54 2.279 3.54z"/><path d="m130.36 249.57v-10.017c0-1.381-1.119-2.5-2.5-2.5s-2.5 1.119-2.5 2.5v10.017c0 1.381 1.119 2.5 2.5 2.5s2.5-1.119 2.5-2.5z"/><path d="m86.646 233.534 7.083-7.083c.977-.976.977-2.559 0-3.535-.977-.977-2.559-.977-3.535 0l-7.083 7.083c-.977.976-.977 2.559 0 3.535s2.559.976 3.535 0z"/><path d="m188.645 191.285c1.381 0 2.5-1.119 2.5-2.5s-1.119-2.5-2.5-2.5h-10.018c-1.381 0-2.5 1.119-2.5 2.5s1.119 2.5 2.5 2.5z"/><path d="m77.093 191.285c1.381 0 2.5-1.119 2.5-2.5s-1.119-2.5-2.5-2.5h-10.018c-1.381 0-2.5 1.119-2.5 2.5s1.119 2.5 2.5 2.5z"/><path d="m172.609 233.534c.977-.976.977-2.559 0-3.535l-7.083-7.083c-.977-.977-2.559-.977-3.535 0-.977.976-.977 2.559 0 3.535l7.083 7.083c.977.976 2.559.976 3.535 0z"/></g></g></svg>