<svg id="Layer_1" enable-background="new 0 0 500 500" viewBox="0 0 500 500" xmlns="http://www.w3.org/2000/svg"><g clip-rule="evenodd" fill-rule="evenodd"><path d="m395.574 371.989c5.661 0 10.293 4.632 10.293 10.293v73.999c0 5.661-4.632 10.293-10.293 10.293s-10.293-4.632-10.293-10.293v-73.999c0-5.661 4.631-10.293 10.293-10.293z" fill="#fcd4a9"/><path d="m374.988 371.989c-5.661 0-10.293 4.632-10.293 10.293v73.999c0 5.661 4.632 10.293 10.293 10.293s10.293-4.632 10.293-10.293v-73.999c0-5.661-4.632-10.293-10.293-10.293z" fill="#fcd4a9"/><path d="m277.855 118.785c15.031 3.336 26.69 15.635 29.075 31.003 2.385-15.367 14.043-27.667 29.075-31.003-15.031-3.336-26.689-15.634-29.075-31.001-2.387 15.367-14.044 27.665-29.075 31.001z" fill="#ffe177"/><path d="m312.919 324.846-47.972 25.94c-3.863 2.089-7.973 3.905-13.114 3.905-5.14 0-9.565-1.317-13.114-3.905l-44.355-32.338c-3.652-2.662-8.043-3.905-13.313-3.905-6.062 0-9.086 4.862-6.426 7.383l41.935 39.758c10.496 9.951 13.503 21.59 8.644 33.461l-24.114 58.917c-1.623 3.967 2.933 8.299 9.416 8.299 4.782 0 8.876-1.803 10.923-4.809l26.033-38.253c1.749-2.57 6.992-2.57 8.742 0l26.033 38.253c3.546 5.211 13.64 6.566 18.532 2.246 1.895-1.673 2.645-3.687 1.806-5.736l-24.113-58.917c-4.858-11.871-3.024-24.915 8.644-33.46l45.551-33.36c3.636-2.662-2.21-12.956-19.738-3.479z" fill="#fa6e85"/><path d="m251.833 297.999c9.716 0 17.592 7.876 17.592 17.592s-7.877 17.592-17.592 17.592c-9.716 0-17.592-7.877-17.592-17.592 0-9.716 7.876-17.592 17.592-17.592z" fill="#fcd4a9"/><path d="m155.07 313.849v48.141c0 3.461.806 6.336 1.825 9.643l23.127 75.052c5.925 19.229-18.467 17.967-21.38 8.393l-21.844-71.783c-2.277-7.482-14.934-7.482-17.211 0l-21.844 71.783c-2.913 9.575-27.306 10.836-21.38-8.393l23.127-75.051c1.019-3.308 1.825-6.182 1.825-9.643v-35.879c0-7.315-2.626-13.611-7.826-18.757l-49.36-48.857c-4.489-4.443-4.527-11.751-.083-16.241 4.444-4.489 11.752-4.527 16.241-.083l29.496 29.195c5.132 5.079 11.345 7.635 18.566 7.635h35.726c5.616 0 10.045 2.443 14.44 5.938l46.966 37.352c4.944 3.932 4.527 11.751.083 16.241-4.444 4.489-11.123 3.784-16.241.083z" fill="#88c8fe"/><ellipse cx="128.608" cy="240.396" fill="#fcd4a9" rx="19.792" ry="19.792" transform="matrix(.707 -.707 .707 .707 -132.317 161.35)"/><path d="m358.251 313.849v23.438l-18.346 58.903h93.988l-21.887-57.844v-12.236c0-7.315 2.626-13.611 7.826-18.757l49.36-48.857c4.489-4.443 4.527-11.751.083-16.241-4.444-4.489-11.752-4.527-16.241-.083l-29.496 29.195c-5.132 5.079-11.345 7.635-18.566 7.635h-35.726c-5.616 0-10.097 2.379-14.441 5.938l-45.575 37.352c-4.885 4.004-4.527 11.751-.083 16.241 4.444 4.489 11.196 3.885 16.241.083z" fill="#ffe177"/><ellipse cx="384.713" cy="240.396" fill="#fcd4a9" rx="19.792" ry="19.792" transform="matrix(.973 -.23 .23 .973 -44.94 94.819)"/><ellipse cx="412.871" cy="80.397" fill="#ffe177" rx="43.004" ry="43.004" transform="matrix(.982 -.189 .189 .982 -7.754 79.528)"/><path d="m294.833 178.867c10.764 10.764 10.764 28.378 0 39.141l-41.484 41.484c-.835.835-2.198.835-3.033 0l-41.484-41.484c-10.764-10.764-10.764-28.377 0-39.141 14.117-14.117 30.625-8.516 43 3.859 12.377-12.375 28.884-17.976 43.001-3.859z" fill="#fa6e85"/><path d="m98.38 83.545c8.191 3.283 12.171 12.584 8.888 20.775-3.282 8.191-12.584 12.171-20.775 8.889-8.191-3.283-12.171-12.584-8.888-20.775 3.282-8.192 12.584-12.172 20.775-8.889z" fill="#fa6e85"/><path d="m276.315 125.575c12.257 2.721 21.784 12.879 23.709 25.28 1.209 7.792 12.535 7.793 13.744 0 1.925-12.401 11.453-22.559 23.709-25.28 7.22-1.603 7.22-11.978 0-13.579-12.257-2.72-21.784-12.878-23.709-25.278-1.209-7.792-12.535-7.793-13.744 0-1.925 12.4-11.454 22.558-23.709 25.278-7.22 1.602-7.219 11.976 0 13.579zm30.583-19.054c3.186 4.809 7.281 8.984 12.035 12.264-4.755 3.281-8.849 7.456-12.035 12.265-3.187-4.81-7.28-8.984-12.037-12.265 4.755-3.28 8.85-7.455 12.037-12.264zm-109.601-35.621c-2.716-2.717-2.716-7.12 0-9.836 2.716-2.715 7.119-2.717 9.836 0l7.659 7.659c4.389 4.39 1.227 11.872-4.918 11.872-1.779 0-3.56-.679-4.918-2.036zm31.836 31.836c-2.716-2.717-2.716-7.12 0-9.836 2.716-2.715 7.119-2.717 9.836 0l7.659 7.659c4.389 4.39 1.226 11.872-4.918 11.872-1.779 0-3.56-.679-4.918-2.036zm.001-24.177c-2.717-2.716-2.717-7.12-.001-9.835l7.659-7.659c2.718-2.718 7.122-2.715 9.835-.001 2.717 2.716 2.717 7.12.001 9.835l-7.659 7.659c-2.717 2.716-7.122 2.716-9.835.001zm-14.342 14.343c2.716 2.716 2.716 7.12-.001 9.835l-7.659 7.659c-2.715 2.715-7.119 2.716-9.836-.001-2.716-2.716-2.716-7.12.001-9.835l7.659-7.659c2.716-2.716 7.12-2.715 9.836.001zm12.462 222.688c0 13.536 11.012 24.547 24.547 24.547s24.547-11.012 24.547-24.547-11.012-24.547-24.547-24.547-24.547 11.012-24.547 24.547zm35.186 0c0 5.865-4.772 10.638-10.638 10.638s-10.638-4.772-10.638-10.638 4.772-10.637 10.638-10.637 10.638 4.772 10.638 10.637zm-133.864-48.448c14.748 0 26.747-11.997 26.747-26.746s-11.998-26.747-26.747-26.747-26.747 11.998-26.747 26.747c0 14.748 11.999 26.746 26.747 26.746zm0-39.584c7.079 0 12.838 5.758 12.838 12.838 0 7.078-5.758 12.837-12.838 12.837-7.079 0-12.838-5.758-12.838-12.837s5.759-12.838 12.838-12.838zm296.117 84.739c-3.878 3.84-5.764 8.359-5.763 13.815v10.964l21.436 56.654c1.717 4.538-1.653 9.416-6.505 9.416h-21.071v53.135c0 14.134-16.186 22.294-27.542 13.808-11.355 8.486-27.542.327-27.542-13.808v-53.135h-17.835c-4.683 0-8.033-4.552-6.64-9.023l18.031-57.893v-8.43l-21.72 16.372c-4.026 3.035-8.553 4.512-12.903 4.481l-25.456 18.644c-11.553 8.461-8.268 20.451-6.318 25.214l24.113 58.917c1.952 4.771.591 9.85-3.641 13.585-8.106 7.157-23.026 5.06-28.883-3.548l-24.654-36.23-24.655 36.227c-3.347 4.917-9.582 7.851-16.68 7.851-11.076 0-19.566-8.795-15.845-17.888l24.114-58.916c3.747-9.154 1.394-17.829-6.993-25.781l-20.315-19.259c-2.13-.72-4.228-1.784-6.212-3.219l-23.222-16.792v34.529c0 2.483.629 4.714 1.516 7.594l23.127 75.052c3.154 10.233-.502 16.194-2.961 18.837-8.834 9.493-28.057 5.663-31.718-6.371l-21.844-71.782c-.273-.896-3.632-.895-3.905 0l-21.844 71.783c-3.744 12.304-23.083 15.65-31.718 6.37-2.459-2.642-6.114-8.604-2.96-18.836l23.126-75.051c.888-2.882 1.517-5.114 1.517-7.594v-35.879c0-5.455-1.885-9.974-5.764-13.814l-49.36-48.857c-3.491-3.454-5.428-8.076-5.452-13.01-.062-12.25 11.526-21.119 23.399-17.826l23.552-114.501c-9.558-5.663-13.844-17.63-9.586-28.255 7.578-18.913 34.351-19.232 42.372-.491 6.192 14.468-3.694 30.612-19.229 31.882l-24.749 120.312 25.132 24.876c3.823 3.783 8.295 5.622 13.672 5.622h35.726c8.333 0 14.407 3.981 18.769 7.449l46.966 37.352c2.672 2.125 4.546 4.981 5.488 8.252l27.52 20.064c2.339 1.704 5.373 2.569 9.017 2.569 3.439 0 6.302-1.174 9.806-3.068l38.15-20.63c1.009-2.78 2.717-5.225 5.035-7.124l45.574-37.352c3.934-3.226 10.171-7.514 18.849-7.514h35.725c5.378 0 9.851-1.839 13.673-5.622l29.495-29.195c1.887-1.868 4.117-3.259 6.54-4.157 4.268-19.974-1.891-36.26-18.345-48.455-.182-.135-.357-.279-.526-.432-21.507-19.47-26.027-38.902-24.897-53.88-26.642-1.033-48.001-23.018-48.001-49.909 0-27.547 22.412-49.958 49.959-49.958s49.958 22.411 49.958 49.958c0 23.346-16.1 42.998-37.777 48.45-2.058 15.625 4.737 31.027 19.85 44.807 20.124 15.05 28.282 35.651 23.856 59.918 11.769 5.347 14.448 20.838 5.325 29.867zm-47.903-231.901c0 19.878 16.171 36.05 36.05 36.05 19.877 0 36.049-16.171 36.049-36.05 0-19.877-16.171-36.049-36.049-36.049-19.879.001-36.05 16.172-36.05 36.049zm-292.762 14.624c-1.85 4.618.402 9.881 5.019 11.732 4.618 1.85 9.882-.402 11.732-5.02.897-2.237.868-4.689-.08-6.905-3.152-7.372-13.687-7.254-16.671.193zm75.085 213.193c-4.579-3.317-11.03-.018-11.03 5.635v48.141c0 4.412.966 7.905 2.134 11.691l23.126 75.051c1.515 4.916-.089 5.55-.693 5.789-2.869 1.134-6.906-.492-7.388-1.469l-21.843-71.78c-4.274-14.049-26.245-14.045-30.519-.002l-21.831 71.747c-.494 1.013-4.525 2.639-7.4 1.503-.603-.239-2.207-.873-.693-5.787l23.128-75.053c1.167-3.789 2.133-7.283 2.133-11.689v-35.878c0-9.231-3.327-17.205-9.888-23.7l-49.361-48.858c-2.796-2.767-.937-7.734 3.188-7.734 1.209 0 2.339.459 3.184 1.295l29.496 29.195c6.468 6.401 14.359 9.647 23.458 9.647h35.726c3.228 0 6.158 1.282 10.11 4.426l46.966 37.352c2.671 2.124-.394 10.553-7.753 5.245zm123.853 47.86c-13.309 9.745-17.513 25.725-10.973 41.705l23.426 57.237c-2.24.937-6.44.129-7.465-1.377l-26.034-38.255c-4.508-6.623-15.735-6.621-20.24.001l-26.033 38.252c-1.027 1.51-5.241 2.315-7.466 1.377l23.427-57.236c5.967-14.579 2.31-29.19-10.297-41.142l-12.443-11.797c1.602-1.264 2.807-2.586 3.937-4.316l21.783 15.881c4.769 3.477 10.559 5.24 17.212 5.24 6.74 0 12.083-2.397 16.421-4.741l32.796-17.735c.473.87 1.015 1.704 1.623 2.493zm91.989 103.545c1.811 0 3.339-1.528 3.338-3.339v-53.135h-6.677v53.135c.001 1.811 1.53 3.339 3.339 3.339zm23.925-3.338h-.001v-53.135h-6.677v53.135c.001 4.385 6.678 4.384 6.678 0zm6.59-115.473c-.299-.787-.451-1.62-.452-2.458v-12.235c0-9.231 3.327-17.205 9.888-23.7l49.36-48.857c.851-.842 1.323-1.977 1.33-3.195.021-4.125-4.923-5.995-7.701-3.245l-29.495 29.195c-6.468 6.401-14.36 9.647-23.459 9.647h-35.725c-3.346 0-6.252 1.264-10.032 4.362l-45.574 37.352c-2.925 2.397.684 10.573 7.564 5.391l32.861-24.769c4.551-3.43 11.14-.144 11.14 5.553v23.438c0 .7-.106 1.397-.314 2.068l-15.536 49.88h74.47zm5.957-100.411c0-14.748-11.998-26.747-26.747-26.747s-26.747 11.998-26.747 26.747 11.998 26.746 26.747 26.746 26.747-11.998 26.747-26.746zm-39.583 0c0 7.078 5.758 12.837 12.838 12.837 7.079 0 12.838-5.758 12.838-12.837s-5.758-12.838-12.838-12.838-12.838 5.759-12.838 12.838zm40.996-131.054c15.96 0 28.945-12.985 28.944-28.945 0-3.842-3.113-6.955-6.955-6.955s-6.955 3.113-6.955 6.955c0 8.291-6.745 15.036-15.035 15.036-3.842 0-6.955 3.113-6.955 6.955.001 3.841 3.114 6.954 6.956 6.954zm-167.474 155.069c3.547 3.547 9.32 3.547 12.868 0l41.484-41.484c13.503-13.504 13.503-35.475 0-48.978-13.706-13.705-31.648-13.758-47.918-.581-16.268-13.175-34.209-13.125-47.919.582-13.502 13.503-13.502 35.474 0 48.977zm-31.648-80.627c-8.079 8.079-8.079 21.227.001 29.307l38.082 38.081 38.081-38.082c8.081-8.08 8.081-21.227 0-29.306-10.799-10.8-22.923-6.379-33.163 3.859-2.716 2.715-7.119 2.715-9.836 0-9.072-9.069-21.689-15.332-33.165-3.859zm-112.282-126.64c-1.429 3.565.303 7.614 3.869 9.043 3.52 1.409 7.595-.256 9.043-3.869l10.543-26.31c1.429-3.565-.303-7.614-3.869-9.043-3.566-1.428-7.615.303-9.043 3.869zm32.201 50.263c-3.568-1.429-7.615.303-9.043 3.869-1.429 3.565.303 7.614 3.869 9.043l26.31 10.543c.848.339 1.724.501 2.585.501 7.584 0 9.671-10.574 2.589-13.413zm-82.465-18.061c.85.339 1.725.501 2.585.501 7.584 0 9.671-10.574 2.589-13.413l-26.311-10.543c-3.568-1.427-7.614.303-9.043 3.869-1.429 3.565.303 7.614 3.869 9.043zm72.553-7.345c0 4.974 5.104 8.355 9.692 6.394l11.182-4.784c2.638-1.129 4.22-3.696 4.221-6.395.001-4.883-5.075-8.369-9.692-6.394l-11.182 4.784c-2.638 1.13-4.22 3.697-4.221 6.395zm-16.555 68.569c1.129 2.64 3.697 4.221 6.398 4.22 4.973-.001 8.352-5.107 6.391-9.692l-4.784-11.181c-1.511-3.531-5.599-5.169-9.13-3.658-3.577 1.531-5.15 5.645-3.659 9.13zm-46.648-38.553c-1.51-3.531-5.6-5.17-9.128-3.659l-11.182 4.783c-2.639 1.129-4.22 3.696-4.222 6.395-.004 4.968 5.099 8.358 9.69 6.395l11.182-4.783c3.576-1.53 5.151-5.641 3.66-9.131zm4.329-60.364 4.784 11.181c1.128 2.64 3.697 4.222 6.397 4.222 4.97 0 8.353-5.104 6.391-9.691l-4.783-11.182c-1.51-3.531-5.597-5.17-9.13-3.659-3.575 1.528-5.151 5.641-3.659 9.129z" fill="#1e2f3f"/></g></svg>