<svg id="_x33_0" enable-background="new 0 0 64 64" height="512" viewBox="0 0 64 64" width="512" xmlns="http://www.w3.org/2000/svg"><g><g><g><path d="m44.19 54.25 2.81 3.75 4-3 4 3 2.81-3.75c2.56 1.68 4.19 4.57 4.19 7.75h-18c0-2.14-.74-4.16-2.01-5.75h.01c.61-.78 1.35-1.45 2.19-2z" fill="#75b1f2"/></g><g><path d="m57.81 54.25-2.81 3.75-4-3 4-2 .27.08c.92.26 1.77.66 2.54 1.17z" fill="#5d9cec"/></g><g><path d="m47 53 4 2-4 3-2.81-3.75c.77-.51 1.62-.91 2.54-1.17z" fill="#5d9cec"/></g><g><path d="m29 53 .54 1.63c.28.82 1.04 1.37 1.9 1.37h3.12c.86 0 1.62-.55 1.9-1.37l.54-1.63.27.08c1.48.42 2.79 1.19 3.86 2.22.31.29.6.61.86.95 1.27 1.59 2.01 3.61 2.01 5.75h-16c0-2.66-1.2-5.09-3.15-6.7l.01-.01c1.07-1.01 2.38-1.79 3.87-2.21z" fill="#ff826e"/></g><g><path d="m21.17 53.48c1.31.29 2.5.87 3.5 1.66.06.05.12.1.18.16 1.95 1.61 3.15 4.04 3.15 6.7h-26c0-4.09 2.84-7.63 6.83-8.52l2.17-.48.21.11c1.18.58 2.47.89 3.79.89s2.61-.31 3.79-.89l.21-.11z" fill="#fcd770"/></g><g><path d="m24.86 55.29-.01.01c-.06-.06-.12-.11-.18-.16-1.67-1.35-2.67-3.41-2.67-5.61v-5.53h1c.83 0 1.58-.34 2.12-.88s.88-1.29.88-2.12v3c0 2.55 1.6 4.74 3.85 5.6l-.85 3.4-.27.08c-1.49.42-2.8 1.2-3.87 2.21z" fill="#656d78"/></g><g><path d="m28 36c-1.1 0-2 .9-2 2v3c0-.73-.26-1.4-.69-1.92l.29-.89c.27-.79.4-1.61.4-2.45 0-1.51-.43-2.91-1.18-4.1 1.01-1.12 2.24-2.02 3.63-2.66 1.13-.51 2.36-.84 3.65-.94.3-.03.6-.04.9-.04 3.25 0 6.17 1.4 8.18 3.64 1.75 1.95 2.82 4.53 2.82 7.36v5 5.53c0 2.29-1.08 4.41-2.86 5.76l-.01.01c-1.07-1.03-2.38-1.8-3.86-2.22l-.27-.08-.85-3.4c2.25-.86 3.85-3.05 3.85-5.6v-6c0-1.1-.9-2-2-2z" fill="#656d78"/></g><g><path d="m47 34c-1.79.6-3 2.27-3 4.16v.84c0-2.83-1.07-5.41-2.82-7.36 1.36-2.19 3.79-3.64 6.56-3.64h10.17 2.09c1.1 0 2 .9 2 2v4.81c0 1.45-.23 2.89-.69 4.27-.55-.66-1.38-1.08-2.31-1.08h-1c0-1.1-.9-2-2-2h-4.17c-1.81 0-3.55-.72-4.83-2z" fill="#b27946"/></g><g><path d="m4.4 38.19c-.27-.79-.4-1.61-.4-2.45 0-4.27 3.47-7.74 7.74-7.74h4.26 2.26c2.76 0 5.19 1.45 6.56 3.64.75 1.19 1.18 2.59 1.18 4.1 0 .84-.13 1.66-.4 2.45l-.29.89c-.55-.66-1.38-1.08-2.31-1.08h-1c0-1.1-.9-2-2-2h-4.17c-1.81 0-3.55-.72-4.83-2-1.74.58-2.93 2.18-3 4h-1c-.93 0-1.76.42-2.31 1.08z" fill="#b27946"/></g><g><path d="m48.56 26.75c2.17-1.74 3.44-4.37 3.44-7.15v-3.6c0-1.1-.9-2-2-2h-3c-1.63 0-3.09-.79-4-2-2.76 0-5 2.24-5 5v2.6c0 1.39.32 2.74.91 3.96.59 1.23 1.45 2.32 2.53 3.19 1.01.81 2.27 1.25 3.56 1.25s2.55-.44 3.56-1.25zm8.54-1.65c.58.58.9 1.36.9 2.17 0 .25-.03.49-.09.73h-10.17c-2.77 0-5.2 1.45-6.56 3.64-2.01-2.24-4.93-3.64-8.18-3.64-.3 0-.6.01-.9.04-.07-.25-.1-.51-.1-.77 0-.81.32-1.59.9-2.17l.39-.39c.46-.46.71-1.07.71-1.71s-.25-1.25-.71-1.71c-.82-.82-1.29-1.95-1.29-3.12v-.51c0-.44.07-.87.2-1.29l.02-.07 1.61-5.24c1.29-4.2 5.17-7.06 9.56-7.06h3.22c4.39 0 8.27 2.86 9.56 7.06l1.63 5.31c.13.42.2.85.2 1.29v.51c0 1.17-.47 2.3-1.29 3.12-.46.46-.71 1.07-.71 1.71s.25 1.25.71 1.71z" fill="#fcd770"/></g><g><path d="m31.86 16.19c-.28 1.14-.95 2.13-1.86 2.81 0-1.66-1.34-3-3-3h-1v-1.32c0-1.62-.78-3.14-2.09-4.07h-.01c.07-.19.1-.4.1-.61 0-.25-.05-.5-.14-.72.09-.41.14-.84.14-1.28 0-1.46-.52-2.8-1.39-3.84.45-.1.91-.16 1.39-.16 3.31 0 6 2.69 6 6 0 .33-.03.64-.08.95 1.25.91 2.08 2.38 2.08 4.05 0 .41-.05.81-.14 1.19z" fill="#656d78"/></g><g><path d="m6 19c-1.21-.91-2-2.36-2-4 0-1.67.83-3.14 2.08-4.05-.05-.31-.08-.62-.08-.95 0-3.31 2.69-6 6-6 .83 0 1.38.17 1.38.17 1.1-1.33 2.76-2.17 4.62-2.17 1.85 0 3.51.84 4.61 2.16.87 1.04 1.39 2.38 1.39 3.84 0 .44-.05.87-.14 1.28.09.22.14.47.14.72 0 .21-.03.42-.1.61-.26.81-1.01 1.39-1.9 1.39h-3c-1.57 0-2.96-.72-3.89-1.85l-.93.15c-2.41.41-4.18 2.49-4.18 4.94v.76h-1c-1.66 0-3 1.34-3 3z" fill="#656d78"/></g><g><path d="m27 16c1.66 0 3 1.34 3 3 0 .83-.34 1.58-.88 2.12s-1.29.88-2.12.88h-1v-6z" fill="#f0d0b4"/></g><g><path d="m23.91 10.61c1.31.93 2.09 2.45 2.09 4.07v1.32 6c0 3.31-2.69 6-6 6h-1.74-2.26c-3.31 0-6-2.69-6-6v-6-.76c0-2.45 1.77-4.53 4.18-4.94l.93-.15c.93 1.13 2.32 1.85 3.89 1.85h3c.89 0 1.64-.58 1.9-1.39z" fill="#f0d0b4"/></g><g><path d="m14 20h8c0 2.21-1.79 4-4 4-1.1 0-2.1-.45-2.83-1.17-.72-.73-1.17-1.73-1.17-2.83z" fill="#ff826e"/></g><g><path d="m10 16v6h-1c-.83 0-1.58-.34-2.12-.88s-.88-1.29-.88-2.12c0-1.66 1.34-3 3-3z" fill="#f0d0b4"/></g><g><path d="m48.56 26.75c-1.01.81-2.27 1.25-3.56 1.25s-2.55-.44-3.56-1.25c-1.08-.87-1.94-1.96-2.53-3.19-.59-1.22-.91-2.57-.91-3.96v-2.6c0-2.76 2.24-5 5-5 .91 1.21 2.37 2 4 2h3c1.1 0 2 .9 2 2v3.6c0 2.78-1.27 5.41-3.44 7.15z" fill="#f0d0b4"/></g><g><path d="m61.31 39.08c.43.52.69 1.19.69 1.92 0 .83-.34 1.58-.88 2.12s-1.29.88-2.12.88h-1v-6h1c.93 0 1.76.42 2.31 1.08z" fill="#f0d0b4"/></g><g><path d="m54.15 49.6.85 3.4-4 2-4-2 .85-3.4c.67.26 1.39.4 2.15.4h2c.76 0 1.48-.14 2.15-.4z" fill="#f0d0b4"/></g><g><path d="m58 38v6c0 2.55-1.6 4.74-3.85 5.6-.67.26-1.39.4-2.15.4h-2c-.76 0-1.48-.14-2.15-.4-2.25-.86-3.85-3.05-3.85-5.6v-5-.84c0-1.89 1.21-3.56 3-4.16 1.28 1.28 3.02 2 4.83 2h4.17c1.1 0 2 .9 2 2z" fill="#f0d0b4"/></g><g><path d="m36.15 49.6.85 3.4-.54 1.63c-.28.82-1.04 1.37-1.9 1.37h-3.12c-.86 0-1.62-.55-1.9-1.37l-.54-1.63.85-3.4c.67.26 1.39.4 2.15.4h2c.76 0 1.48-.14 2.15-.4z" fill="#f0d0b4"/></g><g><path d="m40 38v6c0 2.55-1.6 4.74-3.85 5.6-.67.26-1.39.4-2.15.4h-2c-.76 0-1.48-.14-2.15-.4-2.25-.86-3.85-3.05-3.85-5.6v-3-3c0-1.1.9-2 2-2h10c1.1 0 2 .9 2 2z" fill="#f0d0b4"/></g><g><path d="m25.31 39.08c.43.52.69 1.19.69 1.92 0 .83-.34 1.58-.88 2.12s-1.29.88-2.12.88h-1v-6h1c.93 0 1.76.42 2.31 1.08z" fill="#f0d0b4"/></g><g><path d="m18.15 49.6.85 3.4-.21.11c-1.18.58-2.47.89-3.79.89s-2.61-.31-3.79-.89l-.21-.11.85-3.4c.67.26 1.39.4 2.15.4h2c.76 0 1.48-.14 2.15-.4z" fill="#f0d0b4"/></g><g><path d="m8 38c.07-1.82 1.26-3.42 3-4 1.28 1.28 3.02 2 4.83 2h4.17c1.1 0 2 .9 2 2v6c0 2.55-1.6 4.74-3.85 5.6-.67.26-1.39.4-2.15.4h-2c-.76 0-1.48-.14-2.15-.4-2.25-.86-3.85-3.05-3.85-5.6v-5.84c0-.05 0-.11 0-.16z" fill="#f0d0b4"/></g><g><path d="m8 38v.16 5.84h-1c-.83 0-1.58-.34-2.12-.88s-.88-1.29-.88-2.12c0-.73.26-1.4.69-1.92.55-.66 1.38-1.08 2.31-1.08z" fill="#f0d0b4"/></g></g><g><circle cx="48" cy="40" r="1"/><circle cx="54" cy="40" r="1"/><path d="m53 43.764c-.381.762-1.147 1.236-2 1.236s-1.619-.474-2-1.236l-.105-.211-1.789.895.105.211c.722 1.444 2.174 2.341 3.789 2.341s3.067-.897 3.789-2.342l.105-.211-1.789-.895z"/><path d="m63 30c0-1.654-1.346-3-3-3h-1.027c-.068-.975-.472-1.914-1.166-2.608l-.393-.392c-.268-.267-.414-.622-.414-1s.146-.733.414-1c1.023-1.022 1.586-2.382 1.586-3.829v-.508c0-.542-.081-1.078-.239-1.592l-1.633-5.307c-1.43-4.643-5.654-7.764-10.514-7.764h-3.229c-4.859 0-9.084 3.121-10.514 7.765l-.495 1.608c-.342-.693-.811-1.326-1.4-1.849.016-.18.024-.354.024-.524 0-3.86-3.141-7-7-7-.345 0-.686.034-1.024.084-1.27-1.285-3.031-2.084-4.976-2.084-1.882 0-3.663.749-4.975 2.074-.274-.04-.623-.074-1.025-.074-3.859 0-7 3.14-7 7 0 .17.008.344.022.524-1.276 1.135-2.022 2.767-2.022 4.476 0 1.752.747 3.366 2.051 4.506.252 1.965 1.916 3.494 3.949 3.494h.08c.226 1.572.972 2.976 2.064 4.03-4.542.311-8.144 4.095-8.144 8.713 0 .942.151 1.873.448 2.765l.143.428c-.367.605-.591 1.306-.591 2.064 0 2.206 1.794 4 4 4h.08c.321 2.231 1.691 4.127 3.6 5.16l-.5 1.998-1.563.347c-4.485.997-7.617 4.902-7.617 9.495v1h62v-1c0-4.466-2.933-8.452-7.169-9.798l-.511-2.042c1.909-1.033 3.278-2.93 3.6-5.16h.08c2.206 0 4-1.794 4-4 0-.768-.228-1.478-.604-2.088.393-1.335.604-2.712.604-4.106zm-2 0v4.806c0 .876-.101 1.745-.282 2.597-.523-.251-1.101-.403-1.718-.403h-.184c-.414-1.161-1.514-2-2.816-2h-4.172c-1.534 0-3.036-.622-4.121-1.707l-.438-.437-.586.196c-.998.333-1.836.945-2.467 1.722-.435-1.151-1.039-2.218-1.787-3.17 1.275-1.639 3.21-2.604 5.314-2.604h12.257c.552 0 1 .449 1 1zm-41.68 20.159c.622-.337 1.189-.762 1.68-1.264v.634c0 1.056.21 2.078.587 3.031-.069-.017-.134-.039-.204-.054l-1.563-.347zm3.68-11.159c1.103 0 2 .897 2 2s-.897 2-2 2zm4-22c1.103 0 2 .897 2 2s-.897 2-2 2zm-.08 6h.08c2.033 0 3.697-1.529 3.949-3.494.062-.054.129-.103.189-.159.22.997.71 1.915 1.449 2.654.267.266.413.621.413.999s-.146.733-.414 1l-.393.393c-.737.737-1.16 1.751-1.184 2.791-2.255.381-4.368 1.389-6.071 2.932-.579-.686-1.263-1.277-2.024-1.759 2.116-.975 3.663-2.972 4.006-5.357zm9.039 29.959-.451 1.357c-.137.41-.519.684-.949.684h-3.117c-.431 0-.813-.274-.948-.684l-.452-1.357.527-2.108c.461.097.94.149 1.431.149h2c.491 0 .97-.052 1.432-.149zm-11.087 1.016c-1.194-1.168-1.872-2.756-1.872-4.447v-4.528c.741 0 1.426-.216 2.022-.568.152 2.475 1.589 4.609 3.658 5.728l-.511 2.042c-1.199.381-2.316.991-3.297 1.773zm9.128-4.975h-2c-2.757 0-5-2.243-5-5v-6c0-.552.448-1 1-1h10c.552 0 1 .448 1 1v6c0 2.757-2.243 5-5 5zm-5.633 5.264.229.685c.409 1.227 1.552 2.051 2.845 2.051h3.117c1.293 0 2.437-.824 2.847-2.051l.232-.697c2.876 1.085 4.92 3.711 5.294 6.748h-13.986c-.219-2.174-1.141-4.147-2.57-5.667.61-.447 1.283-.802 1.992-1.069zm18.544-.191 2.195 1.097-1.906 1.43-1.532-2.041c.398-.193.812-.357 1.243-.486zm-.742-1.871c-.707.224-1.366.544-1.999.907.535-1.106.83-2.33.83-3.581v-.634c.491.502 1.058.927 1.68 1.264zm-3.169-2.674c0 1.676-.691 3.287-1.874 4.451-.966-.775-2.074-1.389-3.295-1.777l-.511-2.042c2.189-1.184 3.68-3.501 3.68-6.16v-6c0-1.654-1.346-3-3-3h-10c-.363 0-.706.075-1.028.193-.076-1.208-.395-2.348-.913-3.374 1.857-1.793 4.345-2.819 6.941-2.819 5.514 0 10 4.486 10 10zm4.937-23.558c-1.66 1.329-4.213 1.33-5.873 0-1.948-1.557-3.064-3.88-3.064-6.373v-2.597c0-2.055 1.558-3.753 3.554-3.975 1.098 1.212 2.685 1.975 4.446 1.975h3c.552 0 1 .449 1 1v3.597c0 2.493-1.116 4.816-3.063 6.373zm-13.153-14.617c1.169-3.8 4.626-6.353 8.602-6.353h3.229c3.976 0 7.433 2.553 8.602 6.353l1.634 5.308c.1.324.15.661.15 1.002v.508c0 .912-.355 1.77-1 2.414s-1.001 1.502-1.001 2.415.355 1.77 1 2.415l.393.392c.321.321.519.746.58 1.194h-7.193c2.049-1.916 3.22-4.567 3.22-7.403v-3.598c0-1.654-1.346-3-3-3h-3c-2.206 0-4-1.794-4-4h-2c0 .78.149 1.526.422 2.21-2.545.695-4.422 3.028-4.422 5.79v2.597c0 3.104 1.39 5.997 3.813 7.935.573.459 1.22.813 1.904 1.061-.615.433-1.177.945-1.669 1.533-2.125-1.929-4.933-3.117-8.021-3.124.061-.448.259-.874.58-1.195l.393-.392c.645-.645 1-1.502 1-2.415s-.355-1.77-1-2.414c-.645-.645-1-1.502-1-2.415v-.508c0-.341.051-.679.151-1.004zm-5.784-1.353c0 .239-.023.5-.07.796l-.098.608.499.36c1.061.767 1.669 1.946 1.669 3.236 0 .722-.207 1.4-.556 2-.694-1.19-1.97-2-3.444-2v-.324c0-1.72-.747-3.352-2.019-4.483.004-.065.019-.127.019-.193 0-.272-.048-.53-.116-.781.071-.401.116-.808.116-1.219 0-1.061-.244-2.064-.669-2.967 2.6.175 4.669 2.324 4.669 4.967zm-22 9c0-1.103.897-2 2-2v4c-1.103 0-2-.897-2-2zm2.021-4h-.021c-1.474 0-2.75.81-3.444 2-.349-.6-.556-1.278-.556-2 0-1.29.608-2.469 1.669-3.235l.499-.36-.098-.609c-.047-.296-.07-.557-.07-.796 0-2.757 2.243-5 5-5 .65 0 1.098.125 1.098.125l.633.189.422-.508c.953-1.148 2.356-1.806 3.847-1.806 2.468 0 4.512 1.802 4.915 4.158-.29-.094-.594-.158-.915-.158h-1v2h1c.552 0 1 .449 1 1s-.448 1-1 1h-3c-2.206 0-4-1.794-4-4h-2c0 .871.191 1.697.526 2.444-2.569.651-4.401 2.886-4.505 5.556zm1.979 7v-6.764c0-1.963 1.405-3.623 3.342-3.946l.401-.067c1.088 1.096 2.594 1.777 4.257 1.777h3c.813 0 1.549-.328 2.09-.855.578.707.91 1.599.91 2.531v7.324c0 2.757-2.243 5-5 5h-4c-2.757 0-5-2.243-5-5zm-6 19c0-1.103.897-2 2-2v4c-1.103 0-2-.897-2-2zm2.142-4h-.142c-.636 0-1.23.163-1.765.428-.142-.551-.235-1.112-.235-1.685 0-3.718 3.025-6.743 6.743-6.743h6.514c3.718 0 6.743 3.025 6.743 6.743 0 .572-.093 1.134-.236 1.685-.534-.265-1.128-.428-1.764-.428h-.184c-.414-1.161-1.514-2-2.816-2h-4.172c-1.534 0-3.036-.622-4.121-1.707l-.438-.437-.586.196c-1.824.608-3.139 2.127-3.541 3.948zm1.858 7v-5.838c0-1.27.704-2.412 1.799-2.992 1.4 1.17 3.198 1.83 5.029 1.83h4.172c.552 0 1 .448 1 1v6c0 2.757-2.243 5-5 5h-2c-2.757 0-5-2.243-5-5zm5 7h2c.491 0 .97-.051 1.433-.148l.394 1.578c-1.792.726-3.861.726-5.654 0l.395-1.579c.462.097.941.149 1.432.149zm-4.95 3.458 1.832-.407c1.28.617 2.699.949 4.118.949s2.838-.332 4.118-.949l1.832.407c1.131.252 2.153.738 3.023 1.399.024.02.045.044.07.064l.003-.004c1.571 1.226 2.622 3.034 2.884 5.083h-23.867c.408-3.204 2.755-5.824 5.987-6.542zm51.888 6.542h-15.993c-.168-1.694-.756-3.289-1.669-4.666.227-.241.464-.468.716-.678l2.808 3.744 4.2-3.15 4.2 3.151 2.809-3.746c1.593 1.334 2.67 3.235 2.929 5.345zm-4.61-6.437-1.528 2.037-1.905-1.429 2.195-1.097c.43.129.842.296 1.238.489zm-2.493-2.099-2.835 1.418-2.835-1.418.403-1.612c.462.097.941.148 1.432.148h2c.491 0 .97-.052 1.432-.149zm3.165-8.464c0 2.757-2.243 5-5 5h-2c-2.757 0-5-2.243-5-5v-5.838c0-1.27.704-2.412 1.799-2.992 1.4 1.17 3.198 1.83 5.029 1.83h4.172c.552 0 1 .448 1 1zm2-1v-4c1.103 0 2 .897 2 2s-.897 2-2 2z"/><circle cx="30" cy="40" r="1"/><circle cx="36" cy="40" r="1"/><path d="m35 43.764c-.381.762-1.147 1.236-2 1.236s-1.619-.474-2-1.236l-.105-.211-1.789.895.105.211c.722 1.444 2.174 2.341 3.789 2.341s3.067-.897 3.789-2.342l.105-.211-1.789-.895z"/><circle cx="12" cy="40" r="1"/><circle cx="18" cy="40" r="1"/><path d="m18.789 44.658.105-.211-1.789-.895-.105.212c-.381.762-1.147 1.236-2 1.236s-1.619-.474-2-1.236l-.105-.211-1.789.895.105.211c.722 1.444 2.174 2.341 3.789 2.341s3.067-.897 3.789-2.342z"/><circle cx="14" cy="16" r="1"/><circle cx="22" cy="16" r="1"/><path d="m18 25c2.757 0 5-2.243 5-5v-1h-10v1c0 2.757 2.243 5 5 5zm2.829-4c-.413 1.164-1.525 2-2.829 2s-2.416-.836-2.829-2z"/><circle cx="42" cy="18" r="1"/><circle cx="48" cy="18" r="1"/><path d="m47 21.764c-.381.762-1.147 1.236-2 1.236s-1.619-.474-2-1.236l-.105-.211-1.789.895.105.21c.722 1.445 2.174 2.342 3.789 2.342s3.067-.897 3.789-2.342l.105-.211-1.789-.895z"/></g></g></svg>