<?xml version="1.0" encoding="UTF-8" standalone="no"?>
<!-- Created with Inkscape (http://www.inkscape.org/) -->

<svg
   version="1.1"
   id="svg9474"
   xml:space="preserve"
   width="682.66534"
   height="682.66669"
   viewBox="0 0 682.66534 682.66669"
   xmlns="http://www.w3.org/2000/svg"
   xmlns:svg="http://www.w3.org/2000/svg"><defs
     id="defs9478"><clipPath
       clipPathUnits="userSpaceOnUse"
       id="clipPath9492"><path
         d="M 0,512 H 511.999 V 0 H 0 Z"
         id="path9490" /></clipPath></defs><g
     id="g9480"
     transform="matrix(1.3333333,0,0,-1.3333333,0,682.66667)"><path
       d="M 464.51,49.349 H 47.683 V 376.237 H 464.51 Z"
       style="fill:#ffa85d;fill-opacity:1;fill-rule:nonzero;stroke:none"
       id="path9482" /><path
       d="m 47.683,49.349 h 87.104 V 376.237 H 47.683 Z"
       style="fill:#ff9839;fill-opacity:1;fill-rule:nonzero;stroke:none"
       id="path9484" /><g
       id="g9486"><g
         id="g9488"
         clip-path="url(#clipPath9492)"><g
           id="g9494"
           transform="translate(323.8066,323.7822)"><path
             d="m 0,0 h -135.42 c -49.505,0 -89.78,-40.274 -89.78,-89.78 V -274.434 H 89.78 V -89.78 C 89.78,-40.274 49.505,0 0,0"
             style="fill:#ffcf86;fill-opacity:1;fill-rule:nonzero;stroke:none"
             id="path9496" /></g><g
           id="g9498"
           transform="translate(294.1084,323.7822)"><path
             d="m 0,0 h -105.722 c -49.505,0 -89.78,-40.274 -89.78,-89.78 V -274.434 H -89.78 V -89.78 C -89.78,-40.274 -49.504,0 0,0"
             style="fill:#ffc265;fill-opacity:1;fill-rule:nonzero;stroke:none"
             id="path9500" /></g><g
           id="g9502"
           transform="translate(382.7412,49.3486)"><path
             d="m 0,0 v 184.653 c 0,32.497 -26.438,58.935 -58.935,58.935 h -135.42 c -32.497,0 -58.935,-26.438 -58.935,-58.935 V 0 Z"
             style="fill:#665e68;fill-opacity:1;fill-rule:nonzero;stroke:none"
             id="path9504" /></g><g
           id="g9506"
           transform="translate(241.9282,292.9365)"><path
             d="m 0,0 h -53.542 c -32.496,0 -58.934,-26.437 -58.934,-58.935 v -184.653 h 53.541 V -58.935 C -58.935,-26.437 -32.497,0 0,0"
             style="fill:#554e56;fill-opacity:1;fill-rule:nonzero;stroke:none"
             id="path9508" /></g><g
           id="g9510"
           transform="translate(266.9463,90.0927)"><path
             d="m 0,0 h 63.666 c 17.428,51.285 -7.271,89.696 -18.721,103.859 -1.857,2.298 -5.334,1.002 -5.514,-2.063 -1.379,-23.377 -8.706,-36.62 -15.155,-43.856 -3.101,-3.48 -8.503,-1.034 -8.399,3.833 0.396,18.632 -11.246,37.916 -30.292,53.299 -14.14,11.421 -12.285,26.247 -8.713,36.036 1.151,3.156 -2.019,6.1 -4.628,4.268 -59.708,-41.951 -11.584,-109.189 -30.268,-117.85 -12.766,-5.917 -20.18,5.993 -23.803,15.039 -1.163,2.907 -5.02,2.672 -5.894,-0.354 -6.8,-23.546 -3.218,-40.595 2.846,-52.28 0.46,0.03 0.918,0.069 1.385,0.069 11.511,0 20.843,-9.317 20.87,-20.821 10e-4,0 0.003,0 0.005,-10e-4 C -62.587,-9.317 -53.255,0 -41.745,0 -30.218,0 -20.873,-9.345 -20.873,-20.872 -20.873,-9.345 -11.527,0 0,0"
             style="fill:#fee55a;fill-opacity:1;fill-rule:nonzero;stroke:none"
             id="path9512" /></g><g
           id="g9514"
           transform="translate(213.4648,135.8418)"><path
             d="m 0,0 c 4.207,-6.972 10.8,-12.699 20.458,-8.223 15.432,7.153 -14.706,54.268 7.978,94.089 -1.511,7.087 -0.063,14.065 1.918,19.493 1.151,3.156 -2.02,6.1 -4.628,4.268 C -24.504,74.336 1.576,21.152 0,0"
             style="fill:#ffd301;fill-opacity:1;fill-rule:nonzero;stroke:none"
             id="path9516" /></g><g
           id="g9518"
           transform="translate(215.7378,88.7773)"><path
             d="m 0,0 c -6.971,2.619 -12.256,8.381 -13.809,15.665 -1.337,6.272 -1.823,13.473 -0.948,21.677 -8.017,0.894 -13.067,9.563 -15.861,16.539 -1.164,2.906 -5.02,2.672 -5.894,-0.355 -6.8,-23.546 -3.219,-40.594 2.845,-52.28 0.46,0.03 0.918,0.069 1.386,0.069 11.51,0 20.842,-9.317 20.869,-20.821 h 0.006 c 0.02,8.526 5.156,15.84 12.497,19.062 C 0.727,-0.285 0.363,-0.137 0,0"
             style="fill:#ffd301;fill-opacity:1;fill-rule:nonzero;stroke:none"
             id="path9520" /></g><g
           id="g9522"
           transform="translate(252.9941,148.3437)"><path
             d="m 0,0 c -3.106,3.895 -9.275,2.98 -11.064,-1.669 -4.844,-12.582 -11.719,-35.784 -7.805,-58.606 7.056,-3.349 11.948,-10.518 11.948,-18.848 0,11.527 9.346,20.872 20.873,20.872 h 6.63 C 20.709,-43.215 17.461,-21.886 0,0"
             style="fill:#ffa85d;fill-opacity:1;fill-rule:nonzero;stroke:none"
             id="path9524" /></g><g
           id="g9526"
           transform="translate(260.8916,136.9599)"><path
             d="m 0,0 c -2.24,3.758 -4.848,7.562 -7.896,11.384 -3.108,3.894 -9.277,2.98 -11.066,-1.669 -4.844,-12.582 -11.719,-35.784 -7.805,-58.607 7.057,-3.348 11.949,-10.517 11.949,-18.847 0,6.595 3.067,12.467 7.844,16.292 C -9.412,-31.838 -4.385,-12.368 0,0"
             style="fill:#ff9839;fill-opacity:1;fill-rule:nonzero;stroke:none"
             id="path9528" /></g><g
           id="g9530"
           transform="translate(331.458,91.0927)"><path
             d="m 0,0 h -64.512 c 11.528,0 15.872,-9.345 15.872,-20.872 0,-11.527 -4.344,-20.872 -15.872,-20.872 H 0 c 11.527,0 20.872,9.345 20.872,20.872 C 20.872,-9.345 11.527,0 0,0"
             style="fill:#ab6b51;fill-opacity:1;fill-rule:nonzero;stroke:none"
             id="path9532" /></g><g
           id="g9534"
           transform="translate(302.9463,70.2207)"><path
             d="M 0,0 C 0,11.527 9.345,20.872 20.872,20.872 H -36 c 11.527,0 15.872,-9.345 15.872,-20.872 0,-11.527 -4.345,-20.872 -15.872,-20.872 H 20.872 C 9.345,-20.872 0,-11.527 0,0"
             style="fill:#965a44;fill-opacity:1;fill-rule:nonzero;stroke:none"
             id="path9536" /></g><g
           id="g9538"
           transform="translate(204.3286,70.2207)"><path
             d="m 0,0 c 0,-11.527 -9.345,-20.872 -20.872,-20.872 -11.528,0 -20.873,9.345 -20.873,20.872 0,11.527 9.345,20.872 20.873,20.872 C -9.345,20.872 0,11.527 0,0"
             style="fill:#ffcf86;fill-opacity:1;fill-rule:nonzero;stroke:none"
             id="path9540" /></g><g
           id="g9542"
           transform="translate(181.4443,70.2207)"><path
             d="M 0,0 C 0,8.13 4.658,15.157 11.442,18.604 8.607,20.043 5.41,20.872 2.012,20.872 -9.515,20.872 -18.86,11.527 -18.86,0 c 0,-11.527 9.345,-20.872 20.872,-20.872 3.398,0 6.595,0.829 9.43,2.268 C 4.658,-15.157 0,-8.13 0,0"
             style="fill:#ffc265;fill-opacity:1;fill-rule:nonzero;stroke:none"
             id="path9544" /></g><g
           id="g9546"
           transform="translate(246.0732,70.2207)"><path
             d="m 0,0 c 0,-11.527 -9.345,-20.872 -20.872,-20.872 -11.527,0 -20.873,9.345 -20.873,20.872 0,11.527 9.346,20.872 20.873,20.872 C -9.345,20.872 0,11.527 0,0"
             style="fill:#ffcf86;fill-opacity:1;fill-rule:nonzero;stroke:none"
             id="path9548" /></g><g
           id="g9550"
           transform="translate(223.1889,70.2207)"><path
             d="M 0,0 C 0,8.13 4.659,15.157 11.442,18.604 8.607,20.043 5.41,20.872 2.012,20.872 -9.515,20.872 -18.86,11.527 -18.86,0 c 0,-11.527 9.345,-20.872 20.872,-20.872 3.398,0 6.595,0.829 9.43,2.268 C 4.659,-15.157 0,-8.13 0,0"
             style="fill:#ffc265;fill-opacity:1;fill-rule:nonzero;stroke:none"
             id="path9552" /></g><g
           id="g9554"
           transform="translate(287.8183,70.2207)"><path
             d="m 0,0 c 0,-11.527 -9.345,-20.872 -20.872,-20.872 -11.528,0 -20.873,9.345 -20.873,20.872 0,11.527 9.345,20.872 20.873,20.872 C -9.345,20.872 0,11.527 0,0"
             style="fill:#ffcf86;fill-opacity:1;fill-rule:nonzero;stroke:none"
             id="path9556" /></g><g
           id="g9558"
           transform="translate(264.9336,70.2207)"><path
             d="M 0,0 C 0,8.13 4.658,15.157 11.442,18.604 8.607,20.043 5.41,20.872 2.013,20.872 -9.515,20.872 -18.86,11.527 -18.86,0 c 0,-11.527 9.345,-20.872 20.873,-20.872 3.397,0 6.594,0.829 9.429,2.268 C 4.658,-15.157 0,-8.13 0,0"
             style="fill:#ffc265;fill-opacity:1;fill-rule:nonzero;stroke:none"
             id="path9560" /></g><g
           id="g9562"
           transform="translate(468.415,50.3486)"><path
             d="m 0,0 h -424.638 c -6.786,0 -12.338,-5.553 -12.338,-12.339 v -12.476 c 0,-2.535 2.054,-4.588 4.588,-4.588 H 7.75 c 2.534,0 4.589,2.053 4.589,4.588 v 12.476 C 12.339,-5.553 6.786,0 0,0"
             style="fill:#b7aeb8;fill-opacity:1;fill-rule:nonzero;stroke:none"
             id="path9564" /></g><g
           id="g9566"
           transform="translate(119.3667,25.5332)"><path
             d="m 0,0 v 12.477 c 0,6.786 5.552,12.338 12.338,12.338 h -87.927 c -6.786,0 -12.339,-5.552 -12.339,-12.338 V 0 c 0,-2.534 2.054,-4.588 4.589,-4.588 H 4.588 C 2.054,-4.588 0,-2.534 0,0"
             style="fill:#a89ca8;fill-opacity:1;fill-rule:nonzero;stroke:none"
             id="path9568" /></g><g
           id="g9570"
           transform="translate(31.4389,382.8388)"><path
             d="m 0,0 c 0,-6.786 5.553,-12.338 12.338,-12.338 h 424.638 c 6.786,0 12.339,5.552 12.339,12.338 V 18.065 H 0 Z"
             style="fill:#ffcf86;fill-opacity:1;fill-rule:nonzero;stroke:none"
             id="path9572" /></g><g
           id="g9574"
           transform="translate(468.415,491.0547)"><path
             d="m 0,0 h -424.638 c -6.785,0 -12.338,-5.552 -12.338,-12.338 V -30.403 H 12.339 v 18.065 C 12.339,-5.552 6.786,0 0,0"
             style="fill:#ffcf86;fill-opacity:1;fill-rule:nonzero;stroke:none"
             id="path9576" /></g><g
           id="g9578"
           transform="translate(122.4487,382.8388)"><path
             d="M 0,0 V 18.065 H -91.01 V 0 c 0,-6.786 5.553,-12.338 12.339,-12.338 H 12.338 C 5.553,-12.338 0,-6.786 0,0"
             style="fill:#ffc265;fill-opacity:1;fill-rule:nonzero;stroke:none"
             id="path9580" /></g><g
           id="g9582"
           transform="translate(134.7871,491.0547)"><path
             d="m 0,0 h -91.01 c -6.785,0 -12.338,-5.552 -12.338,-12.338 v -18.065 h 91.01 v 18.065 C -12.338,-5.552 -6.786,0 0,0"
             style="fill:#ffc265;fill-opacity:1;fill-rule:nonzero;stroke:none"
             id="path9584" /></g><g
           id="g9586"
           transform="translate(492.2588,462.6513)"><path
             d="m 0,0 h -472.324 c -6.786,0 -12.338,-5.552 -12.338,-12.338 v -39.071 c 0,-6.785 5.552,-12.338 12.338,-12.338 H 0 c 6.785,0 12.338,5.553 12.338,12.338 v 39.071 C 12.338,-5.552 6.785,0 0,0"
             style="fill:#ffc265;fill-opacity:1;fill-rule:nonzero;stroke:none"
             id="path9588" /></g><g
           id="g9590"
           transform="translate(98.6064,411.2422)"><path
             d="m 0,0 v 39.071 c 0,6.786 5.553,12.338 12.338,12.338 h -91.01 c -6.786,0 -12.338,-5.552 -12.338,-12.338 V 0 c 0,-6.785 5.552,-12.338 12.338,-12.338 h 91.01 C 5.553,-12.338 0,-6.785 0,0"
             style="fill:#ffb541;fill-opacity:1;fill-rule:nonzero;stroke:none"
             id="path9592" /></g><g
           id="g9594"
           transform="translate(492.1611,462.6513)"><path
             d="m 0,0 h -472.323 c -6.786,0 -12.338,-5.552 -12.338,-12.338 v -39.071 c 0,-6.785 5.552,-12.338 12.338,-12.338 H 0 c 6.786,0 12.339,5.553 12.339,12.338 v 39.071 C 12.339,-5.552 6.786,0 0,0 Z"
             style="fill:none;stroke:#000000;stroke-width:15;stroke-linecap:round;stroke-linejoin:round;stroke-miterlimit:10;stroke-dasharray:none;stroke-opacity:1"
             id="path9596" /></g><g
           id="g9598"
           transform="translate(31.3423,382.8388)"><path
             d="m 0,0 c 0,-6.786 5.553,-12.338 12.338,-12.338 h 424.638 c 6.786,0 12.339,5.552 12.339,12.338 V 16.065 H 0 Z"
             style="fill:none;stroke:#000000;stroke-width:15;stroke-linecap:round;stroke-linejoin:round;stroke-miterlimit:10;stroke-dasharray:none;stroke-opacity:1"
             id="path9600" /></g><g
           id="g9602"
           transform="translate(468.3183,49.3486)"><path
             d="m 0,0 h -424.638 c -6.786,0 -12.338,-5.553 -12.338,-12.339 v -11.476 c 0,-2.535 2.054,-4.588 4.588,-4.588 H 7.75 c 2.534,0 4.589,2.053 4.589,4.588 v 11.476 C 12.339,-5.553 6.786,0 0,0 Z"
             style="fill:none;stroke:#000000;stroke-width:15;stroke-linecap:round;stroke-linejoin:round;stroke-miterlimit:10;stroke-dasharray:none;stroke-opacity:1"
             id="path9604" /></g><g
           id="g9606"
           transform="translate(468.3183,491.0547)"><path
             d="m 0,0 h -424.638 c -6.785,0 -12.338,-5.552 -12.338,-12.338 V -28.403 H 12.339 v 16.065 C 12.339,-5.552 6.786,0 0,0 Z"
             style="fill:none;stroke:#000000;stroke-width:15;stroke-linecap:round;stroke-linejoin:round;stroke-miterlimit:10;stroke-dasharray:none;stroke-opacity:1"
             id="path9608" /></g><g
           id="g9610"
           transform="translate(382.6445,49.3486)"><path
             d="m 0,0 v 184.653 c 0,32.497 -26.438,58.935 -58.935,58.935 h -135.42 c -32.497,0 -58.935,-26.438 -58.935,-58.935 V 0 Z"
             style="fill:none;stroke:#000000;stroke-width:15;stroke-linecap:round;stroke-linejoin:round;stroke-miterlimit:10;stroke-dasharray:none;stroke-opacity:1"
             id="path9612" /></g><g
           id="g9614"
           transform="translate(204.2319,70.2207)"><path
             d="m 0,0 c 0,-11.527 -9.345,-20.872 -20.872,-20.872 -11.528,0 -20.873,9.345 -20.873,20.872 0,11.527 9.345,20.872 20.873,20.872 C -9.345,20.872 0,11.527 0,0 Z"
             style="fill:none;stroke:#000000;stroke-width:15;stroke-linecap:round;stroke-linejoin:round;stroke-miterlimit:10;stroke-dasharray:none;stroke-opacity:1"
             id="path9616" /></g><g
           id="g9618"
           transform="translate(245.9765,70.2207)"><path
             d="m 0,0 c 0,-11.527 -9.345,-20.872 -20.872,-20.872 -11.527,0 -20.873,9.345 -20.873,20.872 0,11.527 9.346,20.872 20.873,20.872 C -9.345,20.872 0,11.527 0,0 Z"
             style="fill:none;stroke:#000000;stroke-width:15;stroke-linecap:round;stroke-linejoin:round;stroke-miterlimit:10;stroke-dasharray:none;stroke-opacity:1"
             id="path9620" /></g><g
           id="g9622"
           transform="translate(287.7216,70.2207)"><path
             d="m 0,0 c 0,-11.527 -9.345,-20.872 -20.872,-20.872 -11.528,0 -20.873,9.345 -20.873,20.872 0,11.527 9.345,20.872 20.873,20.872 C -9.345,20.872 0,11.527 0,0 Z"
             style="fill:none;stroke:#000000;stroke-width:15;stroke-linecap:round;stroke-linejoin:round;stroke-miterlimit:10;stroke-dasharray:none;stroke-opacity:1"
             id="path9624" /></g><g
           id="g9626"
           transform="translate(331.3613,91.0927)"><path
             d="m 0,0 h -64.512 c 11.528,0 20.872,-9.345 20.872,-20.872 0,-11.527 -9.344,-20.872 -20.872,-20.872 H 0 c 11.527,0 20.872,9.345 20.872,20.872 C 20.872,-9.345 11.527,0 0,0 Z"
             style="fill:none;stroke:#000000;stroke-width:15;stroke-linecap:round;stroke-linejoin:round;stroke-miterlimit:10;stroke-dasharray:none;stroke-opacity:1"
             id="path9628" /></g><g
           id="g9630"
           transform="translate(266.8496,91.0927)"><path
             d="m 0,0 h 63.666 c 17.428,51.285 -7.271,89.696 -18.721,103.859 -1.857,2.298 -5.334,1.002 -5.514,-2.063 -1.379,-23.377 -8.706,-36.62 -15.155,-43.856 -3.101,-3.48 -8.503,-1.034 -8.399,3.833 0.396,18.632 -11.246,37.916 -30.292,53.299 -14.14,11.421 -12.285,26.247 -8.713,36.036 1.151,3.156 -2.019,6.1 -4.628,4.268 -59.708,-41.951 -11.584,-109.189 -30.268,-117.85 -12.766,-5.917 -20.18,5.993 -23.803,15.039 -1.163,2.907 -5.02,2.672 -5.894,-0.354 -6.8,-23.546 -3.218,-40.595 2.846,-52.28 0.46,0.03 0.917,0.069 1.385,0.069 11.511,0 20.843,-9.317 20.87,-20.821 10e-4,0 0.003,0 0.005,-10e-4 C -62.587,-9.317 -53.255,0 -41.745,0 -30.218,0 -20.873,-9.345 -20.873,-20.872 -20.873,-9.345 -11.527,0 0,0 Z"
             style="fill:none;stroke:#000000;stroke-width:15;stroke-linecap:round;stroke-linejoin:round;stroke-miterlimit:10;stroke-dasharray:none;stroke-opacity:1"
             id="path9632" /></g><g
           id="g9634"
           transform="translate(252.8974,149.3437)"><path
             d="m 0,0 c -3.106,3.895 -9.275,2.98 -11.064,-1.669 -4.844,-12.582 -11.719,-35.784 -7.805,-58.606 7.056,-3.349 11.948,-10.518 11.948,-18.848 0,11.527 9.346,20.872 20.873,20.872 h 6.63 C 20.709,-43.215 17.461,-21.886 0,0 Z"
             style="fill:none;stroke:#000000;stroke-width:15;stroke-linecap:round;stroke-linejoin:round;stroke-miterlimit:10;stroke-dasharray:none;stroke-opacity:1"
             id="path9636" /></g><g
           id="g9638"
           transform="translate(238.4995,323.7822)"><path
             d="M 0,0 H -50.209 C -99.714,0 -139.99,-40.274 -139.99,-89.78 V -274.434 H 174.991 V -89.78 C 174.991,-40.274 134.715,0 85.21,0 H 35"
             style="fill:none;stroke:#000000;stroke-width:15;stroke-linecap:round;stroke-linejoin:round;stroke-miterlimit:10;stroke-dasharray:none;stroke-opacity:1"
             id="path9640" /></g><g
           id="g9642"
           transform="translate(464.4131,222.8799)"><path
             d="M 0,0 V 147.621 H -416.827 V -173.531 H 0 V -35"
             style="fill:none;stroke:#000000;stroke-width:15;stroke-linecap:round;stroke-linejoin:round;stroke-miterlimit:10;stroke-dasharray:none;stroke-opacity:1"
             id="path9644" /></g></g></g></g></svg>
