<?xml version="1.0" encoding="iso-8859-1"?>
<!-- Generator: Adobe Illustrator 19.0.0, SVG Export Plug-In . SVG Version: 6.00 Build 0)  -->
<svg version="1.1" id="Capa_1" xmlns="http://www.w3.org/2000/svg" xmlns:xlink="http://www.w3.org/1999/xlink" x="0px" y="0px"
	 viewBox="0 0 512 512" style="enable-background:new 0 0 512 512;" xml:space="preserve">
<path style="fill:#E1EFFB;" d="M291.404,103.946h-71.493c-1.908,0-3.454-1.547-3.454-3.454V80.091c0-1.908,1.547-3.454,3.454-3.454
	h71.493V103.946z"/>
<rect x="266.399" y="68.22" style="fill:#3C6A7C;" width="57.745" height="68.927"/>
<rect x="294.039" y="68.22" style="fill:#2C5871;" width="30.11" height="68.927"/>
<path style="fill:#FF4C4C;" d="M200.02,191.257v288.322c0,13.775,11.167,24.942,24.942,24.942h138.15
	c13.775,0,24.942-11.167,24.942-24.942V191.257c0-39.852-32.307-72.159-72.159-72.159h-43.716
	C232.327,119.098,200.02,151.404,200.02,191.257z"/>
<path style="fill:#F33939;" d="M315.894,119.098h-43.715c-0.947,0-1.886,0.035-2.824,0.071
	c38.542,1.486,69.335,33.183,69.335,72.088v288.322c0,13.775-11.167,24.942-24.942,24.942h49.363
	c13.775,0,24.942-11.167,24.942-24.942V191.257C388.053,151.404,355.746,119.098,315.894,119.098z"/>
<path style="fill:#E1EFFB;" d="M260.969,81.693h137.632c0-11.603-9.406-21.01-21.01-21.01H260.969V81.693z"/>
<path style="fill:#CCDFED;" d="M291.959,370.505h96.094v-131.23h-96.094c-5.395,0-9.768,4.373-9.768,9.768v111.694
	C282.191,366.132,286.564,370.505,291.959,370.505z"/>
<path style="fill:#F33939;" d="M200.02,466.308v13.271c0,13.775,11.167,24.942,24.942,24.942h138.15
	c13.775,0,24.942-11.167,24.942-24.942v-13.271H200.02z"/>
<path style="fill:#DD172F;" d="M388.053,479.579v-13.271H338.69v13.271c0,13.774-11.165,24.94-24.939,24.942h49.361
	c5.596,0,10.762-1.843,14.923-4.955c0.32-0.24,0.634-0.486,0.942-0.74C384.52,494.251,388.053,487.327,388.053,479.579z"/>
<path style="fill:#3C6A7C;" d="M165.33,466.308h-41.184c-6.515,0-11.532-5.75-10.649-12.205l14.938-109.178h32.607l14.938,109.178
	C176.862,460.558,171.845,466.308,165.33,466.308z"/>
<path style="fill:#CCDFED;" d="M366.118,7.634l-98.867,10.123c-14.235,1.458-25.511,11.49-29.249,24.445
	c-1.087,3.238-1.663,6.731-1.553,10.42c0.432,14.514,11.468,26.834,25.856,28.793c16.871,2.297,32.15-9.847,33.849-26.647
	c0.676-6.687-0.903-13.081-4.121-18.428l71.319-7.303c3.292-0.337,6.553,0.774,9,3.001c2.424,2.206,5.674,3.277,8.936,2.943l0,0
	c10.269-1.052,14.285-13.901,6.436-20.606C381.955,9.45,374.26,6.8,366.118,7.634z"/>
<circle style="fill:#E1EFFB;" cx="266.399" cy="51.708" r="13.378"/>
<path style="fill:#2C5871;" d="M150.481,316.24h-11.487c-5.83,0-10.556,4.726-10.556,10.556v24.358h32.598v-24.358
	C161.037,320.965,156.311,316.24,150.481,316.24z"/>
<rect x="338.689" y="239.28" style="fill:#BDD6E5;" width="49.36" height="131.23"/>
<path style="fill:#2C5871;" d="M161.041,344.925h-16.303v121.384h20.592c6.515,0,11.532-5.75,10.649-12.206L161.041,344.925z"/>
<path d="M224.962,512c-17.877,0-32.421-14.545-32.421-32.421V256.755c0-4.124,3.355-7.479,7.479-7.479
	c4.124,0,7.479,3.355,7.479,7.479v222.823c0,9.629,7.834,17.463,17.463,17.463h138.149c9.629,0,17.463-7.834,17.463-17.463V465.04
	c0-4.124,3.355-7.479,7.479-7.479s7.479,3.355,7.479,7.479v14.539c0,17.877-14.545,32.421-32.421,32.421H224.962z"/>
<path d="M124.146,473.787c-5.266,0-10.272-2.276-13.734-6.244s-5.039-9.236-4.325-14.454l14.875-108.717l-0.002-17.577
	c0-9.237,7.166-17.083,16.348-17.941V121.097c0-21.11,17.174-38.284,38.284-38.284h33.386v-2.722
	c0-6.029,4.905-10.934,10.934-10.934h13.44c-2.698-5.054-4.21-10.687-4.376-16.314c-0.13-4.363,0.505-8.694,1.888-12.872
	c4.762-16.283,18.748-27.925,35.627-29.654l98.867-10.124C366.613,0.065,367.885,0,369.137,0c8.68,0,16.786,3.005,23.443,8.688
	c5.944,5.077,8.19,12.869,5.861,20.334c-2.331,7.469-8.612,12.602-16.391,13.399c-0.639,0.065-1.291,0.099-1.934,0.099
	c-4.746,0-9.292-1.758-12.798-4.951c-0.789-0.717-1.788-1.112-2.81-1.112c-0.132,0-0.264,0.007-0.395,0.02l-61.406,6.288
	c0.838,3.381,1.188,6.892,1.045,10.439h73.839c15.709,0,28.49,12.78,28.49,28.49c0,4.124-3.355,7.479-7.479,7.479h-66.978v24.016
	c37.041,7.451,63.91,40.256,63.91,78.068v217.985c0,4.124-3.355,7.479-7.479,7.479s-7.479-3.355-7.479-7.479v-31.257h-88.617
	c-9.51,0-17.247-7.737-17.247-17.247V249.043c0-9.51,7.737-17.247,17.247-17.247h88.615v-40.54c0-32.9-24.637-60.521-57.306-64.249
	c-2.533-0.286-5.014-0.432-7.374-0.432h-43.715c-0.893,0-1.779,0.031-2.664,0.067c-0.799,0.038-1.634,0.089-2.524,0.16
	c-33.372,2.678-59.492,30.988-59.492,64.455v9.7c0,4.124-3.355,7.479-7.479,7.479c-4.124,0-7.479-3.355-7.479-7.479v-9.7
	c0-18.943,6.795-37.309,19.133-51.715c12.165-14.204,28.938-23.718,47.245-26.799v-1.317h-39.008
	c-6.029,0-10.934-4.905-10.934-10.934v-2.72h-33.386c-12.862,0-23.326,10.464-23.326,23.326V308.86
	c9.127,0.903,16.251,8.746,16.251,17.935v17.604l14.873,108.69c0.714,5.219-0.863,10.487-4.325,14.454s-8.468,6.244-13.735,6.244
	H124.146z M120.906,455.117c-0.175,1.281,0.411,2.174,0.776,2.592s1.17,1.12,2.464,1.12h41.184c1.293,0,2.099-0.702,2.464-1.12
	s0.951-1.311,0.776-2.592l-14.053-102.713h-19.558L120.906,455.117z M291.959,246.754c-1.262,0-2.289,1.026-2.289,2.289v111.694
	c0,1.262,1.026,2.289,2.289,2.289h88.615V246.754H291.959z M153.558,337.446v-10.651c0-1.696-1.38-3.076-3.077-3.076h-11.487
	c-1.696,0-3.077,1.38-3.077,3.076v10.651H153.558z M315.894,111.618c0.255,0,0.513,0.001,0.77,0.005v-22.45h-42.788v22.446
	L315.894,111.618L315.894,111.618z M258.919,96.467v-7.588c-0.767-0.217-1.482-0.546-2.125-0.979l-0.129-0.023
	c-0.146-0.038-0.291-0.076-0.435-0.118c-0.362-0.103-0.722-0.215-1.081-0.33l-0.404-0.126c-2.468-0.814-4.853-1.886-7.091-3.188
	h-23.718v12.352H258.919z M388.862,74.215c-2.524-3.797-6.711-6.052-11.272-6.052h-77.569c-0.744,1.53-1.616,3.039-2.594,4.487
	c-0.389,0.58-0.75,1.096-1.099,1.565H388.862z M255.859,71.565c0.565,0.304,1.134,0.581,1.695,0.824
	c0.637,0.275,1.238,0.504,1.833,0.701c0.593,0.196,1.192,0.364,1.822,0.514l0.22,0.05c0.734,0.163,1.327,0.271,1.881,0.347
	c0.617,0.085,1.224,0.128,1.735,0.159c0.295,0.016,0.597,0.023,0.898,0.028c0.303,0.007,0.559,0.012,0.814,0.012
	c0.17,0,0.339-0.003,0.507-0.009l0.187-0.007c0.623-0.028,1.242-0.083,1.842-0.159l0.166,0.173l-0.027-0.193
	c0.64-0.087,1.262-0.196,1.85-0.326c0.556-0.124,1.109-0.273,1.72-0.461l0.259-0.077c0.485-0.157,0.961-0.335,1.433-0.523
	c0.198-0.08,0.396-0.16,0.593-0.246c0.378-0.162,0.748-0.337,1.115-0.519c0.313-0.157,0.624-0.324,0.932-0.498l0.239-0.138
	c0.941-0.544,1.848-1.158,2.693-1.824c1.104-0.869,2.141-1.857,3.082-2.937c0.136-0.157,0.271-0.316,0.404-0.478
	c0.19-0.231,0.378-0.464,0.558-0.701c0.282-0.376,0.554-0.76,0.814-1.155l0.23-0.354c0.333-0.528,0.621-1.025,0.881-1.52
	l0.046-0.088c0.624-1.206,1.133-2.444,1.524-3.702c0.461-1.48,0.758-2.956,0.909-4.447c0.492-4.867-0.576-9.645-3.087-13.817
	c-1.328-2.206-1.434-4.898-0.283-7.201s3.367-3.834,5.928-4.097l71.319-7.303c0.632-0.064,1.273-0.097,1.907-0.097
	c4.765,0,9.343,1.779,12.889,5.009c0.746,0.679,1.715,1.053,2.73,1.053c0.136,0,0.273-0.007,0.41-0.021
	c2.523-0.258,3.382-2.165,3.636-2.974c0.251-0.807,0.63-2.861-1.296-4.505c-3.909-3.338-8.669-5.102-13.766-5.102
	c-0.735,0-1.483,0.038-2.22,0.114l-98.867,10.124c-10.842,1.11-19.801,8.598-22.825,19.077c-0.03,0.102-0.062,0.205-0.096,0.306
	c-0.854,2.544-1.247,5.174-1.168,7.818c0.216,7.267,4.025,14.043,10.191,18.124c0.53,0.348,1.052,0.661,1.599,0.963l0.052,0.25
	L255.859,71.565z"/>
<g>
</g>
<g>
</g>
<g>
</g>
<g>
</g>
<g>
</g>
<g>
</g>
<g>
</g>
<g>
</g>
<g>
</g>
<g>
</g>
<g>
</g>
<g>
</g>
<g>
</g>
<g>
</g>
<g>
</g>
</svg>
