<?xml version="1.0" encoding="UTF-8" standalone="no"?>
<!-- Created with Inkscape (http://www.inkscape.org/) -->

<svg
   version="1.1"
   id="svg348"
   xml:space="preserve"
   width="682.66669"
   height="682.66669"
   viewBox="0 0 682.66669 682.66669"
   xmlns="http://www.w3.org/2000/svg"
   xmlns:svg="http://www.w3.org/2000/svg"><defs
     id="defs352"><clipPath
       clipPathUnits="userSpaceOnUse"
       id="clipPath362"><path
         d="M 0,512 H 512 V 0 H 0 Z"
         id="path360" /></clipPath></defs><g
     id="g354"
     transform="matrix(1.3333333,0,0,-1.3333333,0,682.66667)"><g
       id="g356"><g
         id="g358"
         clip-path="url(#clipPath362)"><g
           id="g364"
           transform="translate(381.1064,421.2319)"><path
             d="m 0,0 v -206.919 c 0,-21.479 -17.412,-38.892 -38.892,-38.892 h -295.822 c -21.479,0 -38.892,17.413 -38.892,38.892 V 0 c 0,21.479 17.413,38.892 38.892,38.892 H -38.892 C -17.412,38.892 0,21.479 0,0"
             style="fill:#ff5e57;fill-opacity:1;fill-rule:nonzero;stroke:none"
             id="path366" /></g><g
           id="g368"
           transform="translate(342.2148,460.124)"><path
             d="M 0,0 H -30 C -8.521,0 8.892,-17.413 8.892,-38.892 v -206.919 c 0,-21.48 -17.413,-38.892 -38.892,-38.892 H 0 c 21.479,0 38.892,17.412 38.892,38.892 V -38.892 C 38.892,-17.413 21.479,0 0,0"
             style="fill:#f7372f;fill-opacity:1;fill-rule:nonzero;stroke:none"
             id="path370" /></g><g
           id="g372"
           transform="translate(266.8877,346.1333)"><path
             d="m 0,0 h -44.224 v 44.223 h -56.721 V 0 h -44.224 v -56.722 h 44.224 v -44.223 h 56.721 v 44.223 H 0 Z"
             style="fill:#fff6db;fill-opacity:1;fill-rule:nonzero;stroke:none"
             id="path374" /></g><g
           id="g376"
           transform="translate(427.4355,256.8389)"><path
             d="m 0,0 -23.722,20.528 c -5.092,4.408 -8.019,10.81 -8.019,17.546 v 7.767 h -44.511 v -7.767 c 0,-6.736 -2.927,-13.138 -8.019,-17.546 L -107.993,0 c -4.742,-4.104 -7.468,-10.066 -7.468,-16.337 v -120.407 c 0,-11.932 9.673,-21.606 21.606,-21.606 h 79.716 c 11.933,0 21.607,9.674 21.607,21.606 V -16.338 C 7.468,-10.066 4.742,-4.104 0,0"
             style="fill:#cff5ff;fill-opacity:1;fill-rule:nonzero;stroke:none"
             id="path378" /></g><g
           id="g380"
           transform="translate(427.4355,256.8389)"><path
             d="m 0,0 -23.722,20.528 c -5.092,4.408 -8.019,10.81 -8.019,17.546 v 7.767 h -30 v -7.767 c 0,-6.736 2.927,-13.138 8.019,-17.546 L -30,0 c 4.742,-4.104 7.467,-10.066 7.467,-16.338 v -120.405 c 0,-11.933 -9.673,-21.606 -21.606,-21.606 h 30 c 11.933,0 21.606,9.673 21.606,21.606 V -16.338 C 7.467,-10.066 4.742,-4.104 0,0"
             style="fill:#b8f0ff;fill-opacity:1;fill-rule:nonzero;stroke:none"
             id="path382" /></g><g
           id="g384"
           transform="translate(397.0469,143.7588)"><path
             d="m 0,0 h -47.216 c -4.425,0 -8.011,3.586 -8.011,8.011 V 69.41 c 0,4.424 3.586,8.011 8.011,8.011 H 0 c 4.424,0 8.011,-3.587 8.011,-8.011 V 8.011 C 8.011,3.586 4.424,0 0,0"
             style="fill:#ff8a85;fill-opacity:1;fill-rule:nonzero;stroke:none"
             id="path386" /></g><g
           id="g388"
           transform="translate(409.3418,302.7031)"><path
             d="m 0,0 h -71.807 v 25.25 c 0,5.149 4.175,9.323 9.325,9.323 H -9.324 C -4.174,34.573 0,30.399 0,25.25 Z"
             style="fill:#ff8a85;fill-opacity:1;fill-rule:nonzero;stroke:none"
             id="path390" /></g><g
           id="g392"
           transform="translate(400.0176,337.2769)"><path
             d="m 0,0 h -30 c 5.15,0 9.324,-4.175 9.324,-9.324 v -25.25 h 30 v 25.25 C 9.324,-4.175 5.15,0 0,0"
             style="fill:#ff5e57;fill-opacity:1;fill-rule:nonzero;stroke:none"
             id="path394" /></g><g
           id="g396"
           transform="translate(501.0605,119.3091)"><path
             d="m 0,0 -98.771,-98.77 c -4.585,-4.586 -12.022,-4.586 -16.608,0 l -44.606,44.607 c -4.587,4.586 -4.587,12.022 0,16.609 l 98.769,98.769 c 4.586,4.587 12.023,4.587 16.609,0 L 0,16.609 C 4.586,12.022 4.586,4.586 0,0"
             style="fill:#36b8ff;fill-opacity:1;fill-rule:nonzero;stroke:none"
             id="path398" /></g><g
           id="g400"
           transform="translate(501.0605,135.918)"><path
             d="m 0,0 -44.607,44.607 c -4.586,4.586 -12.022,4.586 -16.609,0 L -67.911,37.911 -30,0 c 4.586,-4.586 4.586,-12.022 0,-16.609 l -92.074,-92.074 6.695,-6.696 c 4.586,-4.586 12.023,-4.586 16.608,0 L 0,-16.609 C 4.586,-12.022 4.586,-4.586 0,0"
             style="fill:#0aa5fa;fill-opacity:1;fill-rule:nonzero;stroke:none"
             id="path402" /></g><g
           id="g404"
           transform="translate(179.6191,117.9888)"><path
             d="m 0,0 c -14.066,0 -25.511,11.444 -25.511,25.511 0,14.067 11.445,25.511 25.511,25.511 14.066,0 25.511,-11.444 25.511,-25.511 C 25.511,11.444 14.066,0 0,0 m 0,86.152 c -33.491,0 -60.642,-27.15 -60.642,-60.641 0,-33.491 27.151,-60.641 60.642,-60.641 33.491,0 60.642,27.15 60.642,60.641 0,33.491 -27.151,60.641 -60.642,60.641"
             style="fill:#cff5ff;fill-opacity:1;fill-rule:nonzero;stroke:none"
             id="path406" /></g><g
           id="g408"
           transform="translate(238.9414,215.5044)"><path
             d="M 0,0 V -120.214 C 0,-127.828 16.347,-134 36.513,-134 c 20.165,0 36.512,6.172 36.512,13.786 V 0 Z"
             style="fill:#ffe354;fill-opacity:1;fill-rule:nonzero;stroke:none"
             id="path410" /></g><g
           id="g412"
           transform="translate(311.9668,91.7979)"><path
             d="m 0,0 c -1.471,-40.991 -32.352,-66.908 -55.144,-75.364 -30.744,-11.405 -55.879,-8.639 -55.879,-8.639 V 36.211 c 0,0 26.374,-5.667 55.879,8.639 C -30.881,56.614 0,91.171 0,123.706 Z"
             style="fill:#fff6db;fill-opacity:1;fill-rule:nonzero;stroke:none"
             id="path414" /></g><g
           id="g416"
           transform="translate(281.9668,155.1665)"><path
             d="m 0,0 v -63.369 c -1.471,-40.99 -32.352,-66.908 -55.145,-75.363 -9.326,-3.46 -18.129,-5.61 -25.878,-6.935 v -1.705 c 0,0 25.135,-2.765 55.878,8.64 22.793,8.455 53.674,34.373 55.145,75.363 L 30,60.338 C 30,38.677 16.31,16.13 0,0"
             style="fill:#ffeebd;fill-opacity:1;fill-rule:nonzero;stroke:none"
             id="path418" /></g><g
           id="g420"
           transform="translate(311.9668,215.5039)"><path
             d="m 0,0 c 0,-7.614 -16.348,-13.786 -36.513,-13.786 -20.166,0 -36.512,6.172 -36.512,13.786 0,7.614 16.346,13.786 36.512,13.786 C -16.348,13.786 0,7.614 0,0"
             style="fill:#ffefc2;fill-opacity:1;fill-rule:nonzero;stroke:none"
             id="path422" /></g><g
           id="g424"
           transform="translate(259.3877,338.6333)"><path
             d="m 0,0 v -41.722 h -36.724 c -4.142,0 -7.5,-3.358 -7.5,-7.5 v -36.723 h -41.721 v 36.723 c 0,4.142 -3.358,7.5 -7.5,7.5 h -36.724 V 0 h 36.724 c 4.142,0 7.5,3.358 7.5,7.5 v 36.723 h 41.721 V 7.5 c 0,-4.142 3.358,-7.5 7.5,-7.5 z m -36.724,59.223 h -56.721 c -4.143,0 -7.5,-3.358 -7.5,-7.5 V 15 h -36.724 c -4.143,0 -7.5,-3.358 -7.5,-7.5 v -56.722 c 0,-4.142 3.357,-7.5 7.5,-7.5 h 36.724 v -36.723 c 0,-4.142 3.357,-7.5 7.5,-7.5 h 56.721 c 4.143,0 7.5,3.358 7.5,7.5 v 36.723 H 7.5 c 4.143,0 7.5,3.358 7.5,7.5 V 7.5 C 15,11.642 11.643,15 7.5,15 h -36.724 v 36.723 c 0,4.142 -3.357,7.5 -7.5,7.5"
             style="fill:#060606;fill-opacity:1;fill-rule:nonzero;stroke:none"
             id="path426" /></g><g
           id="g428"
           transform="translate(397.0469,151.2588)"><path
             d="m 0,0 h -47.216 c -0.281,0 -0.511,0.229 -0.511,0.511 V 61.91 c 0,0.282 0.23,0.511 0.511,0.511 H 0 c 0.281,0 0.511,-0.229 0.511,-0.511 V 0.511 C 0.511,0.229 0.281,0 0,0 m -63.467,-45.27 c -7.777,0 -14.105,6.329 -14.105,14.106 V 89.243 c 0,4.097 1.777,7.985 4.876,10.666 l 23.721,20.528 c 6.744,5.836 10.612,14.298 10.612,23.217 v 0.267 h 29.51 v -0.267 c 0,-8.919 3.869,-17.381 10.612,-23.217 L 25.48,99.909 c 3.099,-2.681 4.876,-6.57 4.876,-10.667 V 27.431 L 15.511,12.585 V 61.91 C 15.511,70.463 8.553,77.421 0,77.421 h -47.216 c -8.553,0 -15.511,-6.958 -15.511,-15.511 V 0.511 c 0,-8.553 6.958,-15.511 15.511,-15.511 h 35.141 l -30.27,-30.27 z M -93.33,-59.323 c -1.897,-50.395 -50.5,-76.802 -96.024,-76.923 v 104.564 c 10.96,-0.681 30.546,0.09 51.653,10.323 14.43,6.996 32.082,22.191 44.371,40.95 z m -127.098,33.553 c -9.931,0 -18.01,8.08 -18.01,18.011 0,9.932 8.079,18.011 18.01,18.011 9.932,0 18.011,-8.079 18.011,-18.011 0,-9.931 -8.079,-18.011 -18.011,-18.011 m 0,-35.13 c -29.302,0 -53.141,23.839 -53.141,53.141 0,29.302 23.839,53.141 53.141,53.141 29.303,0 53.142,-23.839 53.142,-53.141 0,-2.585 -0.202,-5.162 -0.571,-7.705 -8.583,-1.503 -15.886,-1.516 -20.793,-1.209 0.797,2.838 1.233,5.825 1.233,8.914 0,18.203 -14.809,33.011 -33.011,33.011 -18.202,0 -33.01,-14.808 -33.01,-33.011 0,-18.202 14.808,-33.011 33.01,-33.011 5.833,0 11.314,1.527 16.074,4.193 v -21.844 c -5.177,-1.642 -10.574,-2.479 -16.074,-2.479 m 98.085,131.431 c 15.825,0 25.588,-3.942 28.434,-6.286 -11.944,-9.836 -44.934,-9.826 -56.868,0 2.846,2.344 12.609,6.286 28.434,6.286 m -29.978,-79.592 c 0.488,0.992 0.77,2.103 0.774,3.282 l 0.147,53.541 c 16.564,-6.53 38.075,-6.541 54.877,-1.153 -2.828,-8.244 -7.477,-16.769 -13.756,-25.048 -9.731,-12.83 -22.429,-23.829 -33.967,-29.423 -2.746,-1.332 -5.464,-2.466 -8.135,-3.445 0.038,0.747 0.046,1.497 0.06,2.246 m 100.309,185.755 c 0,1.005 0.819,1.824 1.824,1.824 H 2.971 c 1.006,0 1.824,-0.819 1.824,-1.824 v -17.75 H -52.012 Z M -262.54,319.108 c 0,14.686 11.947,26.633 26.633,26.633 h 66.327 c 16.008,0 27.216,-14.046 26.633,-29.376 H -262.54 Z M 109.317,-10.038 64.71,34.569 c -4.819,4.819 -12.848,6.788 -19.354,4.762 v 49.911 c 0,8.454 -3.667,16.476 -10.059,22.009 L 11.575,131.78 c -3.449,2.985 -5.428,7.312 -5.428,11.874 v 0.29 h 6.148 c 4.142,0 7.5,3.358 7.5,7.5 v 25.25 c 0,9.277 -7.547,16.824 -16.824,16.824 H -8.44 v 76.455 c 0,25.581 -20.812,46.392 -46.392,46.392 h -73.115 c 0.915,23.609 -17.564,44.376 -41.633,44.376 h -66.327 c -24.239,0 -42.313,-20.757 -41.633,-44.376 h -73.114 c -25.581,0 -46.393,-20.811 -46.393,-46.392 v -25.232 c 0,-9.697 15,-9.697 15,0 v 25.232 c 0,17.31 14.083,31.392 31.393,31.392 h 295.822 c 17.31,0 31.392,-14.082 31.392,-31.392 v -76.455 h -26.748 c -9.277,0 -16.824,-7.547 -16.824,-16.824 v -25.25 c 0,-4.142 3.358,-7.5 7.5,-7.5 h 6.149 v -0.29 c 0,-4.562 -1.979,-8.889 -5.428,-11.874 l -23.722,-20.529 c -6.392,-5.533 -10.059,-13.554 -10.059,-22.008 v -8.797 c -8.331,3.442 -19.248,5.085 -29.771,5.085 -21.068,0 -43.721,-6.583 -44,-21.021 -0.003,-0.082 -0.012,-0.161 -0.012,-0.244 l -0.084,-30.52 c -12.469,16.182 -32.026,26.636 -53.989,26.636 -22.89,0 -43.166,-11.357 -55.528,-28.72 h -74.698 c -17.31,0 -31.393,14.083 -31.393,31.392 v 141.687 c 0,9.697 -15,9.697 -15,0 V 63.054 c 0,-25.58 20.812,-46.392 46.393,-46.392 h 66.628 c -2.924,-7.587 -4.543,-15.816 -4.543,-24.421 0,-37.573 30.568,-68.141 68.141,-68.141 5.457,0 10.837,0.656 16.074,1.924 v -69.488 c 0,-8.241 9.437,-7.801 14.923,-7.801 54.868,0 111.635,34.981 111.101,95.09 6.392,-3.813 13.738,-4.433 20.985,-4.095 -9.533,-7.641 -13.535,-21.542 -3.931,-31.146 l 44.607,-44.607 c 7.424,-7.424 19.792,-7.424 27.216,0 l 12.327,12.327 c 6.857,6.858 -3.749,17.462 -10.607,10.607 l -12.328,-12.328 c -2,-1.656 -4.001,-1.656 -6.001,0 l -44.607,44.607 c -1.655,1.655 -1.654,4.348 0,6.003 l 98.77,98.769 c 2.001,1.658 4.001,1.658 6.002,0 L 98.71,-20.644 c 1.655,-1.655 1.655,-4.348 0,-6.002 L 39.863,-85.493 c -6.857,-6.858 3.749,-17.462 10.608,-10.607 l 58.846,58.847 c 7.502,7.503 7.502,19.712 0,27.215"
             style="fill:#060606;fill-opacity:1;fill-rule:nonzero;stroke:none"
             id="path430" /></g><g
           id="g432"
           transform="translate(374.5488,68.6929)"><path
             d="M 0,0 C 9.652,0 9.668,15 0,15 -9.651,15 -9.668,0 0,0"
             style="fill:#060606;fill-opacity:1;fill-rule:nonzero;stroke:none"
             id="path434" /></g><g
           id="g436"
           transform="translate(398.168,107.312)"><path
             d="M 0,0 C -9.651,0 -9.668,-15 0,-15 9.652,-15 9.668,0 0,0"
             style="fill:#060606;fill-opacity:1;fill-rule:nonzero;stroke:none"
             id="path438" /></g><g
           id="g440"
           transform="translate(421.7871,130.9312)"><path
             d="M 0,0 C -9.651,0 -9.668,-15 0,-15 9.652,-15 9.668,0 0,0"
             style="fill:#060606;fill-opacity:1;fill-rule:nonzero;stroke:none"
             id="path442" /></g><g
           id="g444"
           transform="translate(445.4062,154.5503)"><path
             d="M 0,0 C -9.651,0 -9.668,-15 0,-15 9.652,-15 9.668,0 0,0"
             style="fill:#060606;fill-opacity:1;fill-rule:nonzero;stroke:none"
             id="path446" /></g><g
           id="g448"
           transform="translate(394.9541,48.2881)"><path
             d="M 0,0 C 9.651,0 9.668,15 0,15 -9.651,15 -9.668,0 0,0"
             style="fill:#060606;fill-opacity:1;fill-rule:nonzero;stroke:none"
             id="path450" /></g><g
           id="g452"
           transform="translate(418.5732,86.9072)"><path
             d="M 0,0 C -9.651,0 -9.668,-15 0,-15 9.651,-15 9.668,0 0,0"
             style="fill:#060606;fill-opacity:1;fill-rule:nonzero;stroke:none"
             id="path454" /></g><g
           id="g456"
           transform="translate(442.1924,95.5259)"><path
             d="M 0,0 C 9.651,0 9.668,15 0,15 -9.651,15 -9.668,0 0,0"
             style="fill:#060606;fill-opacity:1;fill-rule:nonzero;stroke:none"
             id="path458" /></g><g
           id="g460"
           transform="translate(465.8115,134.145)"><path
             d="M 0,0 C -9.651,0 -9.668,-15 0,-15 9.651,-15 9.668,0 0,0"
             style="fill:#060606;fill-opacity:1;fill-rule:nonzero;stroke:none"
             id="path462" /></g></g></g></g></svg>
