<svg id="icons" height="512" viewBox="0 0 340 340" width="512" xmlns="http://www.w3.org/2000/svg"><path d="m117.145 259.789h212.541v67.724h-212.541z" fill="#9dc4fc" transform="matrix(1 .002 -.002 1 .563 -.427)"/><path d="m117.161 285.294-.08 42.015 212.54.407.082-42.422z" fill="#719fe8"/><path d="m68.522 164.038 30.971-4.763a22.013 22.013 0 0 0 10.663-4.739c4.429-3.647 15.458-9.789 25.405-4.792l-11.884 22.768-51.166 12.92-10.211-12.107z" fill="#ed9182"/><path d="m121.01 169.9s32.535-138.624 204.819-157.6a3.945 3.945 0 0 1 4.389 3.919 3.931 3.931 0 0 1 -3.37 3.887c-22.115 3.151-147.156 26.56-191.34 157.22z" fill="#7a6c62"/><path d="m93.6 56.269s2.67 24.732-7.611 43.6c-4.92 9.026-16.24 12.756-25.221 7.753q-.513-.287-1.018-.605l-.021 11.078s14.042 15.6 14.006 34.457l-.085 44.31-42.85 22.667.143-74.512a54.633 54.633 0 0 1 2.567-16.445l.32-1.006a54.622 54.622 0 0 0 2.567-16.444l.056-29.3.047-25.662z" fill="#ffc6b4"/><path d="m36.5 56.16-.017 8.787h57.425a80.523 80.523 0 0 0 -.3-8.678z" fill="#ed9182"/><path d="m19.75 56.128s-2.165 27.151 16.976 37.966l3.111-2.564a7.142 7.142 0 0 0 1.592-9.257l-.12-.2c-4.249-7.015 3.651-15.359 10.756-11.255a14.908 14.908 0 0 1 4.585 4.347s11.567-9.453 8.9-24.128l-40.717-.078z" fill="#333947"/><path d="m90.689 56.264 22.26.042a8.278 8.278 0 0 0 8.294-8.262 8.278 8.278 0 0 0 -8.262-8.294l-25.254-.05z" fill="#ff6a6a"/><path d="m19.75 56.128 73.854.141s1.532-28.323-21.626-38.062a37.92 37.92 0 0 0 -34.953 2.954c-8.615 5.495-17.239 15.786-17.275 34.967z" fill="#ff6a6a"/><path d="m30.8 219.529s3.352 23.755 28.137 23.8l59.944.114.067-35.159-45.291-11.43z" fill="#ff6a6a"/><path d="m73.7 171.612c-2.318-1.468-3.977-5.165-3.977-5.165l-8.65-22.683c-4.685-13.879-16.684-10.6-16.684-10.6l5.748 33.483 12.163 17.694 11.37 6.5z" fill="#ed9182"/><path d="m118.945 208.287 30.389 7.669a17.5 17.5 0 0 1 13.189 18.035l-3.281 53.926a12.662 12.662 0 0 0 4.805 10.718l8.825 6.952a8.5 8.5 0 0 1 2.813 9.329 8.5 8.5 0 0 1 -11.859 4.949l-17.249-8.593a14.811 14.811 0 0 1 -8.206-13.285l.086-45.139a9.363 9.363 0 0 0 -9.346-9.382l-10.233-.02z" fill="#ffc6b4"/><path d="m261.166 155.8c-6.28 12.664-11.354 32.465 3.459 51.269 0 0-12.681 12.352-6.521 27.272l14.085-11.224 13.762 11.278s7.066-17.708-8.069-27.679c0 0 17.9-25.871 2.416-51.756a10.947 10.947 0 0 0 -19.132.84z" fill="#bfe7fc"/><path d="m9.7 243.361h119.2a9.566 9.566 0 0 1 9.566 9.566v74.3a0 0 0 0 1 0 0h-128.766a0 0 0 0 1 0 0v-83.866a0 0 0 0 1 0 0z" fill="#ffecda" transform="matrix(1 .002 -.002 1 .546 -.141)"/><path d="m52.594 136.624c2.218 2.066 4.01 6.027 6.249 11.438l8.3 22.206a12.082 12.082 0 0 0 13.522 7.649l23.925-4.439a21.964 21.964 0 0 0 12.588-7.206 12.248 12.248 0 0 1 15.9-2.268 12.249 12.249 0 0 1 4 16.357 27.372 27.372 0 0 1 -16.478 12.826c-9.879 2.737-26.167 6.673-41.251 9.374a27.112 27.112 0 0 1 -27.618-12.207c-6.146-9.66-13.877-22.842-19.353-35.756a17.2 17.2 0 0 1 -.151-13.448q.181-.425.386-.849a12.529 12.529 0 0 1 19.981-3.677z" fill="#ffc6b4"/><path d="m277.882 206.714a57 57 0 0 0 8.1-21.393c-5.126 7.568-13 15.193-24.526 17.222a49.937 49.937 0 0 0 3.167 4.524s-12.681 12.352-6.521 27.272l14.086-11.224 13.761 11.278s7.068-17.708-8.067-27.679z" fill="#9ac1d3"/><path d="m52.185 101.236a1.268 1.268 0 0 0 -1.848 1.676l9.4 15.178.022-11.078z" fill="#ed9182"/><path d="m273.874 276.932h-23.859a4.014 4.014 0 1 1 0-8.028h23.859a4.014 4.014 0 0 1 0 8.028z" fill="#fff"/><path d="m214.04 306.376h-20.777a4 4 0 0 1 0-8h20.777a4 4 0 0 1 0 8z" fill="#fff"/><path d="m222.689 276.932h-12.822a4.014 4.014 0 0 1 0-8.028h12.822a4.014 4.014 0 0 1 0 8.028z" fill="#fff"/><path d="m299.081 306.505h-2.787a4.014 4.014 0 0 1 0-8.028h2.787a4.014 4.014 0 0 1 0 8.028z" fill="#fff"/><path d="m259.782 306.376h-17.782a4 4 0 0 1 0-8h17.778a4 4 0 0 1 0 8z" fill="#fff"/><g fill="#24242b"><path d="m223.408 263.788h.008a4 4 0 0 0 .008-8l-42.817-.081h-.007a4 4 0 0 0 -.007 8z"/><path d="m243.614 255.827h-.007a4 4 0 0 0 -.007 8l4.965.01h.008a4 4 0 0 0 .007-8z"/><path d="m273.978 255.886a4 4 0 0 0 -.008 8l55.773.106h.008a4 4 0 0 0 .008-8l-55.773-.106z"/><path d="m329.629 323.716-130.6-.25h-.008a4 4 0 0 0 -.007 8l130.6.25h.007a4 4 0 0 0 .008-8z"/><path d="m331.586 10.319a7.987 7.987 0 0 0 -6.195-1.989c-64.134 7.063-116.526 31.131-155.717 71.535-30.55 31.5-44.559 64.871-49.632 79.511a16.09 16.09 0 0 0 -5.885 4.275 18.032 18.032 0 0 1 -10.3 5.894l-23.926 4.439a8.088 8.088 0 0 1 -2.238.1l.014-7.41 22.389-3.443a26.017 26.017 0 0 0 12.6-5.606 27.094 27.094 0 0 1 4.869-3.129 4 4 0 1 0 -3.617-7.135 35.476 35.476 0 0 0 -6.338 4.09 18.018 18.018 0 0 1 -8.728 3.873l-21.158 3.254.012-6.022c.03-15.994-9.168-29.669-13.124-34.807a4.157 4.157 0 0 1 -.876-2.567v-2.066a22.079 22.079 0 0 0 11.866-.122 23.065 23.065 0 0 0 13.743-10.934c6.176-11.17 8-24.207 8.437-33.177a4 4 0 1 0 -7.99-.393c-.4 8.125-2.015 19.873-7.448 29.7a15 15 0 0 1 -8.944 7.113 13.926 13.926 0 0 1 -10.688-1.178c-.277-.154-.553-.317-.825-.49a3.989 3.989 0 0 0 -1.222-.505l-7.073-4.6a4 4 0 1 0 -4.36 6.708l6.511 4.23-.011 5.7a12.252 12.252 0 0 0 2.538 7.463c3.455 4.487 11.487 16.383 11.462 29.911l-.025 13.181-7.117-19.061c-.017-.044-.033-.086-.051-.129-2.331-5.633-4.339-10.157-7.218-12.833a16.811 16.811 0 0 0 -8.622-4.306 4 4 0 0 0 -1.352 7.885 8.825 8.825 0 0 1 4.521 2.275c1.682 1.567 3.445 5.608 5.252 9.977l8.28 22.138a16.061 16.061 0 0 0 18 10.181l23.926-4.439a26.056 26.056 0 0 0 14.88-8.519 8.247 8.247 0 0 1 13.4 9.488 23.227 23.227 0 0 1 -14.062 10.952c-9.263 2.568-25.53 6.541-40.887 9.291a23.027 23.027 0 0 1 -23.547-10.416c-5.652-8.884-13.545-22.2-19.046-35.172-.788-1.856-1.124-4.253-1.124-8.013a50.546 50.546 0 0 1 2.379-15.238l.32-1.006a58.6 58.6 0 0 0 2.755-17.648l.029-14.9 1.958-1.615a11.159 11.159 0 0 0 2.442-14.461l-.092-.15a3.993 3.993 0 0 1 .642-5.019 3.741 3.741 0 0 1 4.692-.7 11.073 11.073 0 0 1 3.335 3.215 4 4 0 0 0 5.782.767 32.447 32.447 0 0 0 10.324-18.04l24.091.046 19.346.037h.024a12.278 12.278 0 0 0 .024-24.556l-8.439-.018h-.009a4 4 0 0 0 -.009 8l8.44.018a4.278 4.278 0 0 1 -.007 8.556h-.009l-15.414-.029c-.515-8.883-3.933-29.311-24.014-37.757a41.775 41.775 0 0 0 -38.655 3.268c-8.703 5.548-19.084 16.708-19.125 38.328a4 4 0 0 0 3.992 4.008l41.611.08a24.083 24.083 0 0 1 -4.621 9.076 16.485 16.485 0 0 0 -2.666-1.93 11.722 11.722 0 0 0 -14.408 2.034 11.976 11.976 0 0 0 -1.768 14.766l.146.236a3.137 3.137 0 0 1 -.744 4.053l-.868.716c-7.416-5.348-10.5-13.924-11.774-20.46a4 4 0 1 0 -7.85 1.532c2.253 11.549 7.637 20.427 15.624 25.876l-.029 15.007a50.6 50.6 0 0 1 -2.379 15.241l-.32 1.006a58.525 58.525 0 0 0 -2.756 17.649v.007c0 3.459.209 7.488 1.759 11.142 5.715 13.478 13.846 27.2 19.661 36.342a30.966 30.966 0 0 0 31.7 14c15.628-2.8 32.184-6.843 41.614-9.457a31.183 31.183 0 0 0 18.876-14.7 16.251 16.251 0 0 0 -5.306-21.7 16.052 16.052 0 0 0 -6.306-2.372c13.129-35.334 59.52-125.406 193.989-141.6-28.327 4.642-133.494 28.85-182.118 136.279a4 4 0 1 0 7.288 3.3c49.103-108.481 157.986-129.139 179.315-132.179a7.932 7.932 0 0 0 4.174-13.753zm-307.686 41.817c.9-12.436 6.033-21.706 15.277-27.603a33.772 33.772 0 0 1 31.25-2.639c15.7 6.6 18.615 22.914 19.11 30.368z"/><path d="m261.2 155.46a4 4 0 0 0 -5.256 2.092c-5.443 12.639-9.039 31.2 3.555 49.316-3.828 4.9-10.466 15.989-5.1 29a4 4 0 0 0 6.19 1.6l11.559-9.211 11.26 9.229a4 4 0 0 0 6.251-1.611c2.635-6.6 4.267-20.705-6.509-30.164 4.513-8.179 14.038-30.292.575-52.806a14.576 14.576 0 0 0 -10.622-7.033c-.014-9.227 1.864-36.055 22.442-57.716 29.007-30.533 30.538-51.11 30.589-51.972a4 4 0 0 0 -7.986-.472c-.011.181-1.389 18.5-28.4 46.934-27.616 29.07-24.646 65.706-24.506 67.251a4.647 4.647 0 0 0 4.888 3.887 6.783 6.783 0 0 1 6.731 3.227c13.93 23.293-1.609 46.46-2.273 47.428a4 4 0 0 0 1.089 5.616c7.443 4.9 8.317 12.144 7.822 17.16l-8.778-7.194a4 4 0 0 0 -5.028-.035l-9.226 7.352c-.774-9.638 6.584-17.049 6.945-17.406a4 4 0 0 0 .351-5.34c-10.026-12.727-11.53-27.489-4.472-43.876a4 4 0 0 0 -2.091-5.256z"/><path d="m9.775 247.238 49.143.094h.008l59.944.115 15.6.029-.1 50.5c0 .54.028 1.074.071 1.6l-.053 27.759a4 4 0 0 0 3.992 4.008h.008a4 4 0 0 0 4-3.992l.026-13.916a19.084 19.084 0 0 0 2.378 1.41l17.25 8.593a12.5 12.5 0 0 0 13.3-21l-8.825-6.952a8.67 8.67 0 0 1 -3.288-7.334l3.281-53.925a21.52 21.52 0 0 0 -16.2-22.157l-30.387-7.668-4.435-1.12a4 4 0 0 0 -1.958 7.757l1.408.355-.054 28.038-22.852-.032-33.095-.063c-16.494-.034-21.932-12.168-23.556-17.7l17.909-9.474a4 4 0 1 0 -3.741-7.071l-14.739 7.8.062-32.508a4 4 0 0 0 -3.992-4.008h-.008a4 4 0 0 0 -4 3.992l-.072 39.153a4.008 4.008 0 0 0 .039.549.1.1 0 0 0 0 .017 33.743 33.743 0 0 0 10.208 19.2l-27.257-.049h-.008a4 4 0 0 0 -.007 8zm113.16-33.819 25.42 6.415a13.514 13.514 0 0 1 10.175 13.914l-3.281 53.926a16.67 16.67 0 0 0 6.323 14.1l8.825 6.951a4.512 4.512 0 0 1 1.488 4.937 4.5 4.5 0 0 1 -6.275 2.619l-17.249-8.593a10.722 10.722 0 0 1 -5.918-8.629l.106-55.571a4 4 0 0 0 -3.992-4.008l-15.672-.03z"/><path d="m271.344 174.65a4.159 4.159 0 0 0 .79-.08 4.3 4.3 0 0 0 .75-.23 3.854 3.854 0 0 0 .689-.37 4.073 4.073 0 0 0 .6-.49 3.986 3.986 0 0 0 0-5.66 4.9 4.9 0 0 0 -.6-.5 4.56 4.56 0 0 0 -.689-.36 4.3 4.3 0 0 0 -.75-.23 4 4 0 1 0 -.79 7.92z"/><path d="m73.313 74.12a4 4 0 1 0 2.821-1.17 4 4 0 0 0 -2.821 1.17z"/><path d="m174.231 285.477a4 4 0 0 0 4 4h84.521a4 4 0 1 0 0-8h-84.521a4 4 0 0 0 -4 4z"/><path d="m329.924 281.477h-38.835a4 4 0 0 0 0 8h38.835a4 4 0 0 0 0-8z"/></g></svg>