<svg id="Layer_1" enable-background="new 0 0 479.993 479.993" height="512" viewBox="0 0 479.993 479.993" width="512" xmlns="http://www.w3.org/2000/svg"><path d="m411.906 37.347c20.34-20.34 51.08 10.4 30.74 30.74l-374.45 374.45c-20.46 20.46-51.2-10.28-30.74-30.74z" fill="#cbe3fa"/><path d="m446.646 42.947c-4.01.7-8.05 2.71-11.74 6.4l-374.45 374.45c-8.05 8.05-8.17 17.7-4.1 25.19-18.13 3.14-35.63-20.46-18.9-37.19l374.45-374.45c12.32-12.32 28.45-5.9 34.74 5.6z" fill="#eef7ff"/><path d="m170.016 424.197c7.67 7.86 7.61 20.44-.18 28.23l-13.67 13.67c-7.85 7.85-20.58 7.85-28.43 0l-113.84-113.84c-7.85-7.85-7.85-20.58 0-28.43l13.67-13.67c7.79-7.79 20.37-7.85 28.23-.18z" fill="#585966"/><path d="m154.346 467.707c-7.89 6.2-19.34 5.66-26.61-1.61l-113.84-113.84c-7.85-7.85-7.85-20.58 0-28.43l13.67-13.67c7.79-7.79 20.37-7.85 28.23-.18l5.58 5.58c-1.358 1.056-.902.692-15.48 15.27-7.85 7.85-7.85 20.58 0 28.43z" fill="#6e6f80"/><path d="m234.876 404.857c7.85 7.85 7.85 20.58 0 28.43l-13.67 13.67c-7.85 7.85-20.58 7.85-28.43 0l-159.74-159.74c-7.85-7.85-7.85-20.58 0-28.43l13.67-13.67c7.85-7.85 20.58-7.85 28.43 0z" fill="#585966"/><path d="m219.936 448.117c-7.9 6.67-19.72 6.28-27.16-1.16l-159.74-159.74c-7.85-7.85-7.85-20.58 0-28.43l13.67-13.67c7.85-7.85 20.58-7.85 28.43 0l5.84 5.84c-.827.677.104-.214-14.94 14.83-7.85 7.85-7.85 20.58 0 28.43z" fill="#6e6f80"/><path d="m446.976 192.757c7.85 7.85 7.85 20.58 0 28.43l-13.67 13.67c-7.85 7.85-20.58 7.85-28.43 0l-159.74-159.74c-7.85-7.85-7.85-20.58 0-28.43l13.67-13.67c7.85-7.85 20.58-7.85 28.43 0z" fill="#585966"/><path d="m430.916 236.897c-7.86 5.74-18.94 5.06-26.04-2.04l-159.74-159.74c-7.85-7.85-7.85-20.58 0-28.43l13.67-13.67c7.85-7.85 20.58-7.85 28.43 0l5.96 5.96c-1.763 1.259-1.363 1.013-16.06 15.71-7.85 7.85-7.85 20.58 0 28.43z" fill="#6e6f80"/><path d="m466.116 127.717c7.85 7.85 7.85 20.58 0 28.43l-13.67 13.67c-7.883 7.883-20.603 7.817-28.42 0 0 0-113.97-113.97-114.03-114.04-7.67-7.86-7.61-20.44.18-28.23l13.67-13.67c7.85-7.85 20.58-7.85 28.43 0z" fill="#585966"/><path d="m448.866 172.657c-7.836 4.907-18.162 3.831-24.84-2.84 0 0-113.97-113.97-114.03-114.04-7.67-7.86-7.61-20.44.18-28.23l13.67-13.67c7.85-7.85 20.58-7.85 28.43 0l6.15 6.15c-2.56 1.593-2.224 1.494-17.25 16.52-7.892 7.892-7.809 20.595 0 28.42z" fill="#6e6f80"/><g><path d="m471.777 161.801c10.955-10.956 10.955-28.782 0-39.739l-35.894-35.894 12.425-12.425c27.822-27.825-14.235-69.881-42.059-42.058l-12.424 12.425-35.894-35.893c-10.955-10.955-28.781-10.956-39.74 0l-13.668 13.668c-3.01 3.01-5.253 6.583-6.631 10.481l-5.002-5.003c-10.981-10.98-28.757-10.983-39.739 0l-13.668 13.669c-10.981 10.981-10.983 28.756 0 39.739l89.584 89.584-158.691 158.692-19.43-19.43 138.7-138.701c7.484-7.484-3.83-18.797-11.314-11.313l-138.7 138.701-58.841-58.841c-10.981-10.981-28.755-10.983-39.739 0l-13.668 13.668c-10.981 10.981-10.984 28.756 0 39.739l5.002 5.002c-3.898 1.378-7.471 3.621-10.48 6.631l-13.669 13.669c-10.981 10.981-10.984 28.756 0 39.739l35.894 35.894-12.335 12.335c-27.945 27.945 14.052 70.065 42.058 42.057l12.334-12.334 35.894 35.894c10.981 10.981 28.756 10.982 39.739 0l13.669-13.669c3.061-3.062 5.267-6.659 6.617-10.494l5.016 5.016c10.957 10.956 28.784 10.956 39.739 0l13.668-13.668c10.984-10.984 10.982-28.756 0-39.739l-58.841-58.841 158.691-158.692 58.841 58.841c10.956 10.955 28.782 10.956 39.739 0l13.669-13.669c10.983-10.985 10.981-28.756 0-39.739l-5.016-5.015c3.834-1.351 7.433-3.557 10.494-6.618zm-409.237 275.082c-13.053 13.052-32.391-6.47-19.431-19.43l12.335-12.335 19.43 19.43zm166.677-9.256-13.668 13.668c-4.718 4.718-12.393 4.718-17.112 0l-113.193-113.192c-7.484-7.484-18.798 3.83-11.313 11.314l90.265 90.265c4.698 4.719 4.691 12.381-.02 17.092l-13.669 13.669c-4.728 4.728-12.382 4.729-17.112 0-58.14-58.134 92.783 92.783-113.845-113.846-4.729-4.729-4.729-12.382 0-17.111l13.668-13.669c4.728-4.728 12.382-4.73 17.112 0 7.484 7.484 18.798-3.83 11.313-11.313-2.206-2.311 8.363 8.363-22.947-22.947-4.729-4.729-4.729-12.382 0-17.112l13.668-13.668c4.728-4.728 12.382-4.73 17.112 0l159.739 159.74c4.731 4.727 4.731 12.381.002 17.11zm188.347-384.628c12.858-12.861 32.289 6.57 19.43 19.43l-12.425 12.425-19.43-19.43zm29.229 121.157c-4.717 4.718-12.395 4.718-17.111 0-7.485-7.485-18.799 3.829-11.314 11.314l22.947 22.947c4.73 4.728 4.731 12.383 0 17.111l-13.669 13.669c-4.716 4.717-12.393 4.718-17.11 0l-159.74-159.739c-4.73-4.728-4.731-12.383 0-17.111l13.669-13.669c4.729-4.728 12.382-4.729 17.11 0l111.837 111.838c7.486 7.482 18.799-3.83 11.314-11.314l-88.83-88.832c-5.027-5.089-4.576-12.655-.059-17.171l13.668-13.668c4.717-4.718 12.395-4.717 17.111 0l113.846 113.845c4.718 4.718 4.718 12.394 0 17.112z"/></g></svg>