<?xml version="1.0" encoding="UTF-8"?>
<svg xmlns="http://www.w3.org/2000/svg" xmlns:xlink="http://www.w3.org/1999/xlink" version="1.1" id="Capa_1" x="0px" y="0px" viewBox="0 0 512 512" style="enable-background:new 0 0 512 512;" xml:space="preserve" width="512" height="512">
<g>
	<path style="fill:#FFE177;" d="M87.446,343.607v127.582c0,18.397,14.914,33.311,33.311,33.311h270.485&#10;&#9;&#9;c18.397,0,33.311-14.914,33.311-33.311V343.607H87.446z"/>
	<path style="fill:#FFD15B;" d="M372.107,343.607v127.582c0,18.397-14.914,33.311-33.311,33.311h52.446&#10;&#9;&#9;c18.397,0,33.311-14.914,33.311-33.311V343.607H372.107z"/>
	<g>
		<path style="fill:#26A6FE;" d="M87.446,344.607V40.811c0-18.397,14.914-33.311,33.311-33.311h270.485&#10;&#9;&#9;&#9;c18.397,0,33.311,14.914,33.311,33.311v303.796H87.446z"/>
		<path style="fill:#0593FC;" d="M391.243,7.5h-52.446c18.397,0,33.311,14.914,33.311,33.311v303.796h52.446V40.811&#10;&#9;&#9;&#9;C424.554,22.414,409.64,7.5,391.243,7.5z"/>
		<g>
			<g>
				<path style="fill:#FFFFFF;" d="M221.596,290.333h-34.175c-2.761,0-5-2.239-5-5V66.775c0-2.761,2.239-5,5-5h81.81&#10;&#9;&#9;&#9;&#9;&#9;c39.559,0,72.407,31.588,72.766,71.146c0.363,39.9-31.989,72.475-71.807,72.475h-43.594v79.937&#10;&#9;&#9;&#9;&#9;&#9;C226.596,288.094,224.357,290.333,221.596,290.333z M226.596,161.221h43.594c15.238,0,27.636-12.397,27.636-27.636&#10;&#9;&#9;&#9;&#9;&#9;s-12.397-27.636-27.636-27.636h-43.594V161.221z"/>
			</g>
		</g>
		<path style="fill:none;stroke:#000000;stroke-width:15;stroke-linecap:round;stroke-linejoin:round;stroke-miterlimit:10;" d="&#10;&#9;&#9;&#9;M205,61.775h-17.579c-2.761,0-5,2.239-5,5v218.558c0,2.761,2.239,5,5,5h34.175c2.761,0,5-2.239,5-5v-79.937h43.594&#10;&#9;&#9;&#9;c39.818,0,72.17-32.575,71.807-72.475c-0.36-39.558-33.207-71.146-72.766-71.146H240 M270.19,161.221h-43.594v-55.271h43.594&#10;&#9;&#9;&#9;c15.238,0,27.636,12.397,27.636,27.635C297.825,148.823,285.428,161.221,270.19,161.221z"/>
	</g>
	<g>
		<g>
			<path style="fill:none;stroke:#000000;stroke-width:15;stroke-linecap:round;stroke-linejoin:round;stroke-miterlimit:10;" d="&#10;&#9;&#9;&#9;&#9;M199.441,457.103V386h30.436c5.976,0,10.821,4.845,10.821,10.821v13.91c0,5.976-4.845,10.821-10.821,10.821h-30.436"/>
		</g>
		<g>
			
				<polyline style="fill:none;stroke:#000000;stroke-width:15;stroke-linecap:round;stroke-linejoin:round;stroke-miterlimit:10;" points="&#10;&#9;&#9;&#9;&#9;175.989,386 134.733,386 134.733,457.104 &#9;&#9;&#9;"/>
			
				<line style="fill:none;stroke:#000000;stroke-width:15;stroke-linecap:round;stroke-linejoin:round;stroke-miterlimit:10;" x1="135.436" y1="421.552" x2="175.989" y2="421.552"/>
		</g>
		<g>
			
				<polyline style="fill:none;stroke:#000000;stroke-width:15;stroke-linecap:round;stroke-linejoin:round;stroke-miterlimit:10;" points="&#10;&#9;&#9;&#9;&#9;306.946,386 265.69,386 265.69,457.104 306.946,457.104 &#9;&#9;&#9;"/>
			
				<line style="fill:none;stroke:#000000;stroke-width:15;stroke-linecap:round;stroke-linejoin:round;stroke-miterlimit:10;" x1="266.393" y1="421.552" x2="306.946" y2="421.552"/>
		</g>
		<g>
			
				<polyline style="fill:none;stroke:#000000;stroke-width:15;stroke-linecap:round;stroke-linejoin:round;stroke-miterlimit:10;" points="&#10;&#9;&#9;&#9;&#9;377.267,386 336.011,386 336.011,457.104 377.267,457.104 &#9;&#9;&#9;"/>
			
				<line style="fill:none;stroke:#000000;stroke-width:15;stroke-linecap:round;stroke-linejoin:round;stroke-miterlimit:10;" x1="336.714" y1="421.552" x2="377.267" y2="421.552"/>
		</g>
	</g>
	
		<line style="fill:none;stroke:#000000;stroke-width:15;stroke-linecap:round;stroke-linejoin:round;stroke-miterlimit:10;" x1="218.993" y1="423.145" x2="240.698" y2="457.103"/>
	<path style="fill:none;stroke:#000000;stroke-width:15;stroke-linecap:round;stroke-linejoin:round;stroke-miterlimit:10;" d="&#10;&#9;&#9;M87.446,344.607v126.582c0,18.397,14.914,33.311,33.311,33.311h270.485c18.397,0,33.311-14.914,33.311-33.311V344.607"/>
	<g>
		
			<line style="fill:none;stroke:#000000;stroke-width:15;stroke-linecap:round;stroke-linejoin:round;stroke-miterlimit:10;" x1="390.5" y1="309" x2="390.5" y2="309"/>
		
			<line style="fill:none;stroke:#000000;stroke-width:15;stroke-linecap:round;stroke-linejoin:round;stroke-miterlimit:10;" x1="121.5" y1="309" x2="121.5" y2="309"/>
	</g>
	<g>
		
			<line style="fill:none;stroke:#000000;stroke-width:15;stroke-linecap:round;stroke-linejoin:round;stroke-miterlimit:10;" x1="390.5" y1="44" x2="390.5" y2="44"/>
		
			<line style="fill:none;stroke:#000000;stroke-width:15;stroke-linecap:round;stroke-linejoin:round;stroke-miterlimit:10;" x1="121.5" y1="44" x2="121.5" y2="44"/>
	</g>
</g>
<path style="fill:none;stroke:#000000;stroke-width:15;stroke-linecap:round;stroke-linejoin:round;stroke-miterlimit:10;" d="&#10;&#9;M348,344.607h76.554V40.811c0-18.397-14.914-33.311-33.311-33.311H120.757c-18.397,0-33.311,14.914-33.311,33.311V107"/>
<polyline style="fill:none;stroke:#000000;stroke-width:15;stroke-linecap:round;stroke-linejoin:round;stroke-miterlimit:10;" points="&#10;&#9;87.446,142 87.446,344.607 313,344.607 "/>















</svg>
