<svg id="color_copy" enable-background="new 0 0 512 512" height="512" viewBox="0 0 512 512" width="512" xmlns="http://www.w3.org/2000/svg"><path d="m380.6 333.7h-82.1v-13.5c0-22.7-18.4-41.1-41.1-41.1s-41.1 18.4-41.1 41.1v13.5h-82.1c-35.3 0-64 28.7-64 64s28.7 64 64 64h246.4c35.3 0 64-28.7 64-64s-28.7-64-64-64z" fill="#ffb522"/><g fill="#3b5e71"><path d="m457.7 139.2c-1.9-2-3.7-4-5.7-6-103.5-107.5-274.7-110.6-382.2-7.1-2.4 2.3-4.8 4.7-7.1 7.1-1.9 2-3.8 4-5.7 6-6.2 6.7-5.7 17.2 1 23.4.3.2.5.5.8.7 6.9 5.5 16.8 4.7 22.7-1.8 46.3-50.3 108.7-78.1 175.8-78.1s129.6 27.7 175.8 78.1c5.9 6.5 15.8 7.3 22.7 1.8 7.1-5.8 8.3-16.2 2.5-23.3-.1-.2-.4-.5-.6-.8z"/><path d="m384.9 219.8c2.9-2.5 4.6-6.1 4.7-9.9s-1.4-7.5-4.2-10.2c-71.4-68.9-184.5-68.9-255.9 0-2.8 2.7-4.3 6.4-4.2 10.2s1.8 7.4 4.7 9.9c5.4 4.7 13.4 4.4 18.5-.6 60.8-58.7 157.2-58.7 218.1 0 4.9 5 12.9 5.3 18.3.6z"/><path d="m257.4 226.4c-24.9 0-49 9.1-67.6 25.7-2.3 2-3.6 4.9-3.5 8 0 3.1 1.3 6 3.7 8 4 3.5 9.9 3.6 13.9.1 30.5-27.2 76.6-27.2 107.1 0 4 3.5 10 3.4 13.9-.1 2.3-2 3.7-5 3.7-8s-1.3-5.9-3.5-8c-18.7-16.5-42.8-25.7-67.7-25.7z"/><path d="m176.6 362.1h-33.9c-3.3 0-6 2.7-6 6v61.4c0 3.3 2.7 6 6 6h6.9c3.3 0 6-2.7 6-6v-20.3c0-1.1.9-2 2-2h17.3c3.3 0 6-2.7 6-6v-4c0-3.3-2.7-6-6-6h-17.3c-1.1 0-2-.9-2-2v-9.1c0-1.1.9-2 2-2h19.1c3.3 0 6-2.7 6-6v-4.1c-.1-3.2-2.7-5.9-6.1-5.9z"/><path d="m372.1 419.5h-20.9c-1.1 0-2-.9-2-2v-9.7c0-1.1.9-2 2-2h17.8c3.3 0 6-2.7 6-6v-4c0-3.3-2.7-6-6-6h-17.9c-1.1 0-2-.9-2-2v-7.6c0-1.1.9-2 2-2h19.5c3.3 0 6-2.7 6-6v-4.1c0-3.3-2.7-6-6-6h-34.4c-3.3 0-6 2.7-6 6v61.4c0 3.3 2.7 6 6 6h35.8c3.3 0 6-2.7 6-6v-4.1c.1-3.2-2.6-5.9-5.9-5.9z"/><path d="m245 367.4c-5.1-4.1-12.4-5.9-23.7-5.9h-16.7c-3.3 0-6 2.7-6 6v62c0 3.3 2.7 6 6 6h6.8c3.3 0 6-2.7 6-6v-21.7h2.2l12.2 24.4c1 2 3.1 3.3 5.4 3.3h11.1c1.7 0 3-1.3 3-3 0-.5-.1-.9-.3-1.3l-12.8-25.5c2.5-.8 4.8-2.1 6.9-3.7 4.8-3.9 7.5-9.8 7.2-16v-2.5c.1-6.2-2.5-12.2-7.3-16.1zm-15.7 24.3c-2 .9-4.1 1.3-6.3 1.2-1.6 0-2.8 0-3.8-.1-1.1-.1-1.9-.9-1.9-2v-12.3c0-1.1.8-1.9 1.9-2 1-.1 2.2-.1 3.8-.1 2.1-.1 4.3.3 6.2 1.2 3.9 2.3 5.1 7.3 2.8 11.2-.6 1.3-1.5 2.2-2.7 2.9z"/><path d="m309.4 419.5h-20.9c-1.1 0-2-.9-2-2v-9.7c0-1.1.9-2 2-2h17.9c3.3 0 6-2.7 6-6v-4c0-3.3-2.7-6-6-6h-17.9c-1.1 0-2-.9-2-2v-7.6c0-1.1.9-2 2-2h19.5c3.3 0 6-2.7 6-6v-4.1c0-3.3-2.7-6-6-6h-34.4c-3.3 0-6 2.7-6 6v61.4c0 3.3 2.7 6 6 6h35.8c3.3 0 6-2.7 6-6v-4.1c0-3.2-2.7-5.9-6-5.9z"/><path d="m239.5 315.1c0-9.9 8-17.8 17.8-17.8s17.8 8 17.8 17.8-8 17.8-17.8 17.8-17.8-7.9-17.8-17.8z"/></g></svg>