<svg id="Layer_1" enable-background="new 0 0 512 512" height="512" viewBox="0 0 512 512" width="512" xmlns="http://www.w3.org/2000/svg"><g><g><g><g><path d="m236.313 42.878h86.881v80.014h-86.881z" fill="#ffb878"/><path d="m354.473 62.187h86.881v60.705h-86.881z" fill="#ed984c"/></g><g><path d="m7.5 298.51h165.667v187.03h-165.667z" fill="#dbf2ff"/><path d="m173.167 298.51h165.667v187.03h-165.667z" fill="#dbf2ff"/><path d="m298.833 298.51h40v187.03h-40z" fill="#d1eeff"/><path d="m173.167 392.025h165.666" fill="#58838a"/><path d="m338.833 298.51h165.667v187.03h-165.667z" fill="#c2e7fc"/></g><path d="m7.5 298.51h165.667v68.154h-165.667z" fill="#c2e7fc"/><path d="m43.298 366.664h94.07v80.284h-94.07z" fill="#58838a"/><path d="m97.369 366.663h40v80.284h-40z" fill="#43747a"/><path d="m173.167 392.025h165.667v93.515h-165.667z" fill="#c2e7fc"/><path d="m298.833 392.025h40v93.515h-40z" fill="#aee0fc"/><path d="m286.735 350.608h187.03v82.833h-187.03z" fill="#dbf2ff" transform="matrix(0 1 -1 0 772.275 11.775)"/><path d="m158.539 112.892h345.961v34.118h-345.961z" fill="#c2e7fc"/><path d="m131.365 7.378v45.863l41.802 59.651v34.118h-165.667v-34.118l41.802-59.651v-45.863z" fill="#dbf2ff"/><path d="m131.365 53.241v-45.863h-40v45.863l41.802 59.651v34.118h40v-34.118z" fill="#d1eeff"/><g><circle cx="239.185" cy="219.863" fill="#58838a" r="31.561"/><path d="m239.185 188.302c-5.43 0-10.538 1.372-15 3.787 9.862 5.337 16.561 15.773 16.561 27.774s-6.699 22.436-16.561 27.774c4.462 2.415 9.57 3.787 15 3.787 17.43 0 31.561-14.13 31.561-31.561s-14.131-31.561-31.561-31.561z" fill="#43747a"/><circle cx="338.833" cy="219.863" fill="#58838a" r="31.561"/><path d="m338.833 188.302c-5.429 0-10.538 1.372-15 3.787 9.862 5.337 16.56 15.773 16.56 27.774s-6.699 22.436-16.56 27.774c4.462 2.415 9.57 3.787 15 3.787 17.43 0 31.561-14.13 31.561-31.561s-14.13-31.561-31.561-31.561z" fill="#43747a"/><circle cx="438.482" cy="219.863" fill="#58838a" r="31.561"/><path d="m438.482 188.302c-5.429 0-10.538 1.372-15 3.787 9.862 5.337 16.561 15.773 16.561 27.774s-6.699 22.436-16.561 27.774c4.462 2.415 9.571 3.787 15 3.787 17.43 0 31.561-14.13 31.561-31.561-.001-17.431-14.131-31.561-31.561-31.561z" fill="#43747a"/></g><g><g><path d="m222.593 380.465v-38.733h66.815v38.733c0 6.147-4.983 11.129-11.129 11.129h-44.556c-6.148.001-11.13-4.982-11.13-11.129z" fill="#fc4378"/></g></g><g><g><path d="m52.383 285.743v-55.36h75.901v55.36c0 6.982-5.66 12.643-12.643 12.643h-50.615c-6.983 0-12.643-5.661-12.643-12.643z" fill="#fc4378"/></g></g><g><g><g><path d="m212.329 442.973v-19.418h40.254v19.418c0 3.081-2.498 5.579-5.579 5.579h-29.095c-3.082 0-5.58-2.498-5.58-5.579z" fill="#43747a"/></g></g><path d="m202.526 477.284v-28.732h59.563v28.732c0 4.56-3.696 8.256-8.256 8.256h-43.052c-4.558 0-8.255-3.696-8.255-8.256z" fill="#fc4378"/></g><path d="m52.383 230.382c0-13.936 11.297-25.233 25.233-25.233h25.435c13.936 0 25.233 11.297 25.233 25.233z" fill="#de3b6a"/></g></g><g fill="#060606"><path d="m504.5 291.01h-369.438c.457-1.682.723-3.442.723-5.267v-37.355h8.234c9.675 0 9.675-15 0-15h-8.234v-3.005c0-18.049-14.685-32.733-32.733-32.733h-5.218v-4.348c0-9.675-15-9.675-15 0v4.348h-5.218c-18.049 0-32.732 14.684-32.732 32.733v3.005h-8.234c-9.675 0-9.675 15 0 15h8.234v37.355c0 1.825.266 3.585.723 5.267h-38.107c-4.143 0-7.5 3.358-7.5 7.5v68.154 118.876 18.838c0 4.142 3.357 7.5 7.5 7.5s7.5-3.358 7.5-7.5v-11.338h150.667v11.338c0 4.142 3.357 7.5 7.5 7.5s7.5-3.358 7.5-7.5v-11.338h150.666v11.338c0 4.142 3.357 7.5 7.5 7.5s7.5-3.358 7.5-7.5v-11.338h150.667v11.338c0 4.142 3.357 7.5 7.5 7.5s7.5-3.358 7.5-7.5v-18.838-28.193c0-9.674-15-9.674-15 0v20.693h-67.833v-172.03h67.833v112.433c0 9.674 15 9.674 15 0v-119.933c0-4.142-3.357-7.5-7.5-7.5zm-383.716-5.267c0 2.836-2.308 5.143-5.144 5.143h-50.615c-2.836 0-5.143-2.307-5.143-5.143v-47.86h60.901v47.86zm-43.169-73.094h25.436c7.1 0 13.237 4.193 16.068 10.233h-57.571c2.831-6.039 8.969-10.233 16.067-10.233zm253.718 171.876h-34.885c.292-1.309.459-2.664.459-4.06v-21.985h6.351c9.674 0 9.674-15 0-15h-6.351c.415-4.585-2.434-9.248-7.5-9.248h-66.814c-4.984 0-7.902 4.678-7.5 9.248h-6.351c-9.675 0-9.675 15 0 15h6.351v21.985c0 1.396.167 2.751.459 4.06h-34.885v-17.861-60.654h150.666zm-49.426-4.06c0 2.001-1.628 3.629-3.629 3.629h-44.557c-2.001 0-3.629-1.628-3.629-3.629v-31.233h51.814v31.233zm-266.907-74.455h150.667v53.154h-28.299-94.07-28.298zm35.798 68.154h79.07v65.284h-79.07zm-35.798 0h20.798v72.784c0 4.142 3.357 7.5 7.5 7.5h94.07c4.143 0 7.5-3.358 7.5-7.5v-72.784h20.799v17.861 86.015h-150.667zm165.667 25.361h150.666v78.515h-61.781c.012-.252.038-15.128.038-15.128h40.881c9.674 0 9.674-15 0-15h-40.913c-.325-3.842-3.541-6.86-7.468-6.86h-2.007v-5.361h25.197c9.674 0 9.674-15 0-15h-25.766c-1.125-2.721-3.803-4.636-6.931-4.636h-40.254c-4.143 0-7.5 3.358-7.5 7.5v17.498h-2.303c-4.143 0-7.5 3.358-7.5 7.5 0 9.803.038 29.488.038 29.488h-14.398v-78.516zm64.416 41.527h-25.254v-9.998h25.254zm-34.301 36.988c-.417 0-.756-.339-.756-.756v-21.232h7.882 29.096 7.586v21.232c0 .417-.339.756-.756.756zm203.385 0h-67.834v-86.015-86.015h67.834z"/><path d="m504.5 105.392h-55.646v-43.205c0-4.142-3.357-7.5-7.5-7.5h-86.881c-4.143 0-7.5 3.358-7.5 7.5v43.206h-16.279v-62.515c0-4.142-3.357-7.5-7.5-7.5h-86.881c-4.143 0-7.5 3.358-7.5 7.5v62.514h-51.743l-38.204-54.517v-43.497c0-9.675-15-9.675-15 0v45.863c0 1.54.475 3.043 1.358 4.304l40.443 57.713v24.251h-15.667c-9.675 0-9.675 15 0 15h81.262v27.101c-17.752 3.672-31.138 19.427-31.138 38.252 0 21.538 17.522 39.061 39.061 39.061s39.061-17.522 39.061-39.061c0-19.121-13.814-35.065-31.983-38.406v-26.946h84.648v27.101c-17.752 3.672-31.138 19.427-31.138 38.252 0 21.538 17.522 39.061 39.061 39.061s39.061-17.522 39.061-39.061c0-19.121-13.814-35.065-31.983-38.406v-26.947h84.648v27.101c-17.752 3.672-31.138 19.427-31.138 38.252 0 21.538 17.522 39.061 39.061 39.061s39.061-17.522 39.061-39.061c0-19.121-13.814-35.065-31.983-38.406v-26.947h58.939c4.143 0 7.5-3.358 7.5-7.5v-34.118c0-4.142-3.357-7.5-7.5-7.5zm-142.527-35.705h71.881v35.015h-71.881zm-98.728 150.175c0 13.267-10.794 24.061-24.061 24.061s-24.061-10.793-24.061-24.061 10.794-24.061 24.061-24.061 24.061 10.794 24.061 24.061zm99.649 0c0 13.267-10.794 24.061-24.061 24.061s-24.061-10.793-24.061-24.061 10.794-24.061 24.061-24.061 24.061 10.794 24.061 24.061zm99.648 0c0 13.267-10.794 24.061-24.061 24.061s-24.061-10.793-24.061-24.061 10.794-24.061 24.061-24.061 24.061 10.794 24.061 24.061zm-218.729-169.484h71.881v55.014h-71.881zm253.187 89.132h-316.333v-19.118h316.333z"/><path d="m439.167 379.544v27.261c0 4.142 3.357 7.5 7.5 7.5s7.5-3.358 7.5-7.5v-27.261c0-4.142-3.357-7.5-7.5-7.5s-7.5 3.358-7.5 7.5z"/><path d="m396.667 414.306c4.143 0 7.5-3.358 7.5-7.5v-27.261c0-4.142-3.357-7.5-7.5-7.5s-7.5 3.358-7.5 7.5v27.261c0 4.142 3.357 7.5 7.5 7.5z"/><path d="m7.5 154.51h98.769c9.675 0 9.675-15 0-15h-91.269v-24.251l40.443-57.713c.884-1.261 1.358-2.764 1.358-4.304v-45.864c0-9.675-15-9.675-15 0v43.497l-40.443 57.713c-.883 1.261-1.358 2.764-1.358 4.304v34.118c0 4.142 3.357 7.5 7.5 7.5z"/><path d="m39.527 325.087c-9.652 0-9.668 15 0 15 9.652 0 9.668-15 0-15z"/><path d="m73.398 340.087c9.652 0 9.668-15 0-15-9.652 0-9.668 15 0 15z"/><path d="m107.269 340.087c9.652 0 9.668-15 0-15-9.652 0-9.668 15 0 15z"/><path d="m141.139 340.087c9.652 0 9.668-15 0-15-9.651 0-9.667 15 0 15z"/><path d="m42.09 112.115c3.279 2.299 8.175 1.402 10.445-1.838l21.979-31.365c5.553-7.922-6.73-16.531-12.283-8.608l-21.979 31.365c-2.378 3.392-1.555 8.069 1.838 10.446z"/></g></g></svg>