<svg id="a" height="512" viewBox="0 0 512 512" width="512" xmlns="http://www.w3.org/2000/svg"><g><path d="m393.12 256.23h-259.12c-56.82 0-102.88 46.07-102.88 102.89s46.06 102.88 102.88 102.88c39.14 0 73.17-21.85 90.56-54.02l78.09.18c17.42 32.07 51.4 53.84 90.47 53.84 56.82 0 102.88-46.06 102.88-102.88s-46.06-102.89-102.88-102.89z" fill="#5fa8ed"/><path d="m61.96 50v75.92h403.13l.14-75.15z" fill="#978cac"/><path d="m206.23 213.74h114.66v42.49h-114.66z" fill="#4689d3"/></g><path d="m395.05 289.74c38.72 0 70.1 31.39 70.1 70.1s-31.38 70.11-70.1 70.11-70.11-31.39-70.11-70.11 31.39-70.1 70.11-70.1z" fill="#4689d3"/><g fill="#b0b5ca"><circle cx="430.98" cy="359.84" r="7.09"/><circle cx="395.05" cy="323.91" r="7.09"/><circle cx="395.05" cy="395.78" r="7.09"/><circle cx="359.12" cy="359.84" r="7.09"/></g><path d="m263.56 287.69c15.71 0 28.45 12.74 28.45 28.45s-12.74 28.46-28.45 28.46-28.46-12.74-28.46-28.46 12.74-28.45 28.46-28.45z" fill="#55d8d8"/><path d="m132.07 289.74c38.72 0 70.11 31.39 70.11 70.1s-31.39 70.11-70.11 70.11-70.11-31.39-70.11-70.11 31.39-70.1 70.11-70.1z" fill="#4689d3"/><path d="m61.12 359.12c0-56.82 46.06-102.89 102.88-102.89h-30c-56.82 0-102.88 46.07-102.88 102.89s46.06 102.88 102.88 102.88c5.094 0 10.098-.378 14.993-1.093-49.706-7.265-87.873-50.065-87.873-101.787z" fill="#478fc9"/><path d="m91.96 359.84c0-33.561 23.6-61.604 55.11-68.475-4.835-1.054-9.849-1.625-15-1.625-38.72 0-70.11 31.39-70.11 70.1s31.39 70.11 70.11 70.11c5.151 0 10.165-.571 15-1.625-31.51-6.871-55.11-34.915-55.11-68.485z" fill="#3476b2"/><g fill="#284268"><path d="m393.116 251.233h-67.231v-37.489c0-2.762-2.239-5-5-5h-52.327v-9.7c0-17.403 14.159-31.562 31.562-31.562h73.741c21.224 0 38.771-15.995 41.25-36.562h49.979c2.758 0 4.995-2.232 5-4.99l.144-75.151c.002-1.326-.522-2.599-1.458-3.538s-2.207-1.469-3.533-1.472l-403.279-.771h-.01c-1.324 0-2.595.525-3.532 1.461-.939.938-1.468 2.211-1.468 3.539v75.923c0 2.762 2.239 5 5 5h343.068c-2.404 15.035-15.46 26.562-31.161 26.562h-73.741c-22.917 0-41.562 18.645-41.562 41.562v9.7h-52.326c-2.761 0-5 2.238-5 5v37.489h-67.231c-59.487 0-107.884 48.396-107.884 107.884s48.396 107.884 107.884 107.884c38.677 0 74.224-20.619 93.492-54.014l72.226.163c19.288 33.293 54.8 53.851 93.397 53.851 59.487 0 107.884-48.396 107.884-107.884s-48.396-107.884-107.884-107.884zm-326.161-130.312v-28.144l209.873.401h.01c2.757 0 4.995-2.232 5-4.99.005-2.762-2.229-5.005-4.99-5.01l-209.893-.401v-27.768l393.27.751-.125 65.161zm144.277 97.823h104.653v32.489h-104.653zm181.884 238.257c-35.926 0-68.907-19.63-86.073-51.23-.873-1.607-2.554-2.609-4.382-2.613l-78.086-.177h-.011c-1.836 0-3.525 1.007-4.398 2.622-17.142 31.704-50.158 51.398-86.164 51.398-53.973 0-97.884-43.91-97.884-97.884s43.911-97.884 97.884-97.884h259.114c53.973 0 97.884 43.91 97.884 97.884s-43.911 97.884-97.884 97.884z"/><path d="m86.244 249.171c.485 0 .978-.07 1.466-.22 5.211-1.596 10.6-2.76 16.017-3.46 2.739-.354 4.672-2.861 4.317-5.601-.354-2.738-2.863-4.67-5.6-4.317-5.973.772-11.916 2.057-17.663 3.815-2.64.809-4.125 3.604-3.317 6.245.659 2.152 2.639 3.537 4.779 3.537z"/><path d="m14.91 324.916c.367.082.733.121 1.095.121 2.29 0 4.355-1.583 4.875-3.911 6.219-27.843 24.287-51.538 49.57-65.011 2.437-1.299 3.36-4.327 2.062-6.765-1.298-2.436-4.327-3.357-6.764-2.062-27.861 14.847-47.772 40.964-54.628 71.657-.602 2.695 1.095 5.368 3.79 5.97z"/><path d="m244.875 376.247-10.306-.039h-.02c-2.752 0-4.989 2.227-5 4.981-.01 2.761 2.22 5.008 4.981 5.019l10.306.039h.02c2.752 0 4.989-2.227 5-4.981.01-2.761-2.22-5.008-4.981-5.019z"/><path d="m292.586 376.247-10.306-.039h-.02c-2.752 0-4.989 2.227-5 4.981-.01 2.761 2.22 5.008 4.981 5.019l10.306.039h.02c2.752 0 4.989-2.227 5-4.981.01-2.761-2.22-5.008-4.981-5.019z"/><path d="m395.047 284.737c-41.414 0-75.107 33.693-75.107 75.107s33.693 75.106 75.107 75.106 75.106-33.692 75.106-75.106-33.692-75.107-75.106-75.107zm0 140.214c-35.9 0-65.107-29.207-65.107-65.106s29.207-65.107 65.107-65.107 65.106 29.207 65.106 65.107-29.207 65.106-65.106 65.106z"/><path d="m395.047 383.686c-6.667 0-12.09 5.424-12.09 12.091s5.424 12.09 12.09 12.09 12.09-5.424 12.09-12.09-5.423-12.091-12.09-12.091zm0 14.181c-1.153 0-2.09-.938-2.09-2.09s.938-2.091 2.09-2.091 2.09.938 2.09 2.091-.938 2.09-2.09 2.09z"/><path d="m395.047 311.822c-6.667 0-12.09 5.424-12.09 12.091s5.424 12.09 12.09 12.09 12.09-5.424 12.09-12.09-5.423-12.091-12.09-12.091zm0 14.181c-1.153 0-2.09-.938-2.09-2.09s.938-2.091 2.09-2.091 2.09.938 2.09 2.091-.938 2.09-2.09 2.09z"/><path d="m430.979 347.754c-6.667 0-12.09 5.424-12.09 12.091s5.423 12.09 12.09 12.09 12.09-5.424 12.09-12.09-5.424-12.091-12.09-12.091zm0 14.181c-1.152 0-2.09-.938-2.09-2.09s.938-2.091 2.09-2.091 2.09.938 2.09 2.091-.938 2.09-2.09 2.09z"/><path d="m359.116 347.754c-6.667 0-12.09 5.424-12.09 12.091s5.424 12.09 12.09 12.09 12.09-5.424 12.09-12.09-5.423-12.091-12.09-12.091zm0 14.181c-1.153 0-2.09-.938-2.09-2.09s.938-2.091 2.09-2.091 2.09.938 2.09 2.091-.938 2.09-2.09 2.09z"/><path d="m132.07 284.737c-41.414 0-75.106 33.693-75.106 75.107s33.692 75.106 75.106 75.106 75.107-33.692 75.107-75.106-33.693-75.107-75.107-75.107zm0 140.214c-35.9 0-65.106-29.207-65.106-65.106s29.207-65.107 65.106-65.107 65.107 29.207 65.107 65.107-29.207 65.106-65.107 65.106z"/><path d="m168.707 354.845h-31.636v-31.637c0-2.762-2.239-5-5-5s-5 2.238-5 5v31.637h-31.636c-2.761 0-5 2.238-5 5s2.239 5 5 5h31.636v31.636c0 2.762 2.239 5 5 5s5-2.238 5-5v-31.636h31.636c2.761 0 5-2.238 5-5s-2.239-5-5-5z"/><path d="m297.015 316.143c0-18.447-15.008-33.455-33.456-33.455s-33.456 15.008-33.456 33.455 15.008 33.456 33.456 33.456 33.456-15.009 33.456-33.456zm-33.456 23.456c-12.934 0-23.456-10.522-23.456-23.456s10.522-23.455 23.456-23.455 23.456 10.521 23.456 23.455-10.522 23.456-23.456 23.456z"/><path d="m390.399 83.152h-.141c-2.761 0-5 2.238-5 5s2.239 5 5 5h.141c2.761 0 5-2.238 5-5s-2.239-5-5-5z"/><path d="m425.21 83.152h-.141c-2.761 0-5 2.238-5 5s2.239 5 5 5h.141c2.761 0 5-2.238 5-5s-2.239-5-5-5z"/><path d="m407.734 100.487c-2.761 0-5 2.238-5 5v.142c0 2.762 2.239 5 5 5s5-2.238 5-5v-.142c0-2.762-2.239-5-5-5z"/><path d="m407.734 65.677c-2.761 0-5 2.238-5 5v.141c0 2.762 2.239 5 5 5s5-2.238 5-5v-.141c0-2.762-2.239-5-5-5z"/></g></svg>