<svg id="Capa_1" enable-background="new 0 0 512 512" height="512" viewBox="0 0 512 512" width="512" xmlns="http://www.w3.org/2000/svg"><g><g><path clip-rule="evenodd" d="m499.284 110.06-233.717-99.272c-7.824-3.345-11.31-3.345-19.162 0l-233.718 99.272c-4.535 1.502-5.187.85-5.187 6.321v49.636c0 2.721 2.211 4.932 4.932 4.932h27.383v328.12c0 2.551 2.098 4.649 4.649 4.649h423.044c2.58 0 4.677-2.098 4.677-4.649v-328.119h27.354c2.721 0 4.961-2.211 4.961-4.932v-49.636c0-5.471-.68-4.819-5.216-6.322z" fill="#b3e59f" fill-rule="evenodd"/></g><g><path clip-rule="evenodd" d="m198.527 470.213h114.917v33.507h-114.917z" fill="#eceaec" fill-rule="evenodd"/></g><g><path clip-rule="evenodd" d="m423.287 276.204h-334.602v227.516h334.603v-227.516z" fill="#eceaec" fill-rule="evenodd"/></g><g><path clip-rule="evenodd" d="m88.685 200.205h334.603v303.515h-334.603z" fill="#c8c5c9" fill-rule="evenodd"/></g><g><path clip-rule="evenodd" d="m158.474 119.443h-64.97c-2.636 0-4.819 2.183-4.819 4.819v29.113c0 2.636 2.183 4.819 4.819 4.819h64.97c2.636 0 4.819-2.183 4.819-4.819v-29.113c0-2.636-2.183-4.819-4.819-4.819z" fill="#6f6571" fill-rule="evenodd"/></g><g><path clip-rule="evenodd" d="m288.471 119.443h-64.97c-2.636 0-4.819 2.183-4.819 4.819v29.113c0 2.636 2.183 4.819 4.819 4.819h64.97c2.665 0 4.819-2.183 4.819-4.819v-29.113c0-2.636-2.154-4.819-4.819-4.819z" fill="#6f6571" fill-rule="evenodd"/></g><g><path clip-rule="evenodd" d="m423.287 153.375v-29.113c0-2.636-2.154-4.819-4.819-4.819h-64.942c-2.665 0-4.847 2.183-4.847 4.819v29.113c0 2.636 2.183 4.819 4.847 4.819h64.942c2.665 0 4.819-2.183 4.819-4.819z" fill="#6f6571" fill-rule="evenodd"/></g><g><path clip-rule="evenodd" d="m88.685 238.219h334.602v-32.685-5.329h-5.329-323.944-5.329v5.329z" fill="#eceaec" fill-rule="evenodd"/></g><g><path clip-rule="evenodd" d="m333.655 324.933c-8.929-18.794-10.658-18.568-31.918-18.511h-91.474c-21.288-.057-23.017-.283-31.918 18.511l-8.702 18.341-16.101 33.96h204.888l-16.101-33.96z" fill="#9fd4fe" fill-rule="evenodd"/></g><g><path clip-rule="evenodd" d="m169.642 343.274h-24.463c-9.298 0-16.866 7.625-16.866 16.98 0 9.326 7.569 16.98 16.866 16.98h8.362z" fill="#ff8086" fill-rule="evenodd"/></g><g><path clip-rule="evenodd" d="m358.43 377.234h-204.889l-10.091 21.289c-3.572 7.54-3.203 7.115-3.203 15.478v47.879c0 6.066.198 8.334 5.924 8.334h52.356 114.917 52.384c5.698 0 5.896-2.268 5.896-8.334v-47.88c0-8.362.397-7.937-3.203-15.478zm-171.61 28.29c9.723 0 17.603 7.881 17.603 17.604s-7.88 17.575-17.603 17.575-17.603-7.852-17.603-17.575 7.88-17.604 17.603-17.604zm120.757 17.604c0-9.723 7.88-17.604 17.575-17.604 9.723 0 17.603 7.881 17.603 17.604s-7.88 17.575-17.603 17.575c-9.695 0-17.575-7.852-17.575-17.575z" fill="#ff8086" fill-rule="evenodd"/></g><g><path clip-rule="evenodd" d="m383.687 360.254c0-9.355-7.597-16.98-16.866-16.98h-24.491l16.101 33.96h8.391c9.268 0 16.865-7.654 16.865-16.98z" fill="#ff8086" fill-rule="evenodd"/></g><g><path clip-rule="evenodd" d="m159.579 503.719h25.54c7.37 0 13.408-6.038 13.408-13.408v-20.098h-52.356v20.098c0 7.37 6.038 13.408 13.408 13.408z" fill="#6f6571" fill-rule="evenodd"/></g><g><path clip-rule="evenodd" d="m326.881 503.719h25.512c7.37 0 13.436-6.038 13.436-13.408v-20.098h-52.384v20.098c-.001 7.37 6.037 13.408 13.436 13.408z" fill="#6f6571" fill-rule="evenodd"/></g><g><path clip-rule="evenodd" d="m204.423 423.128c0-9.723-7.88-17.604-17.603-17.604s-17.603 7.881-17.603 17.604 7.88 17.575 17.603 17.575 17.603-7.852 17.603-17.575z" fill="#9fd4fe" fill-rule="evenodd"/></g><g><path clip-rule="evenodd" d="m342.755 423.128c0-9.723-7.88-17.604-17.603-17.604-9.695 0-17.575 7.881-17.575 17.604s7.88 17.575 17.575 17.575c9.722 0 17.603-7.852 17.603-17.575z" fill="#9fd4fe" fill-rule="evenodd"/></g><g><path clip-rule="evenodd" d="m312.084 324.933 24.775 52.301h21.572l-16.101-33.96-8.674-18.341c-8.929-18.794-10.658-18.568-31.918-18.511h-15.052c15.221.142 17.489 1.843 25.398 18.511z" fill="#72bffc" fill-rule="evenodd"/></g><g><path clip-rule="evenodd" d="m146.171 470.213h52.356v16.753h-52.356z" fill="#5d5360" fill-rule="evenodd"/></g><g><path clip-rule="evenodd" d="m313.444 470.213h52.384v16.753h-52.384z" fill="#5d5360" fill-rule="evenodd"/></g><g><path clip-rule="evenodd" d="m93.503 137.075h64.97c2.636 0 4.819 2.183 4.819 4.819v-17.632c0-2.636-2.183-4.819-4.819-4.819h-64.97c-2.636 0-4.819 2.183-4.819 4.819v17.632c.001-2.636 2.183-4.819 4.819-4.819z" fill="#5d5360" fill-rule="evenodd"/></g><g><path clip-rule="evenodd" d="m223.501 137.075h64.97c2.665 0 4.819 2.183 4.819 4.819v-17.632c0-2.636-2.154-4.819-4.819-4.819h-64.97c-2.636 0-4.819 2.183-4.819 4.819v17.632c0-2.636 2.182-4.819 4.819-4.819z" fill="#5d5360" fill-rule="evenodd"/></g><g><path clip-rule="evenodd" d="m353.526 137.075h64.942c2.665 0 4.819 2.183 4.819 4.819v-17.632c0-2.636-2.154-4.819-4.819-4.819h-64.942c-2.665 0-4.847 2.183-4.847 4.819v17.632c0-2.636 2.183-4.819 4.847-4.819z" fill="#5d5360" fill-rule="evenodd"/></g><g><path clip-rule="evenodd" d="m397.605 238.219h25.682v-32.685-5.329h-5.329-20.353z" fill="#dad8db" fill-rule="evenodd"/></g><g><path clip-rule="evenodd" d="m397.605 276.204v227.515h25.682v-227.515-37.985h-25.682z" fill="#b6b1b7" fill-rule="evenodd"/></g><g><path d="m283.879 430.198h-55.758c-4.142 0-7.5 3.357-7.5 7.5s3.358 7.5 7.5 7.5h55.758c4.143 0 7.5-3.357 7.5-7.5s-3.358-7.5-7.5-7.5z"/><path d="m283.879 401.057h-55.758c-4.142 0-7.5 3.357-7.5 7.5s3.358 7.5 7.5 7.5h55.758c4.143 0 7.5-3.357 7.5-7.5s-3.358-7.5-7.5-7.5z"/><path d="m325.151 398.024c-13.826 0-25.075 11.262-25.075 25.104 0 13.826 11.249 25.075 25.075 25.075 13.842 0 25.104-11.249 25.104-25.075 0-13.842-11.262-25.104-25.104-25.104zm0 35.179c-5.556 0-10.075-4.52-10.075-10.075 0-5.571 4.52-10.104 10.075-10.104 5.571 0 10.104 4.532 10.104 10.104 0 5.555-4.532 10.075-10.104 10.075z"/><path d="m186.82 398.024c-13.842 0-25.103 11.262-25.103 25.104 0 13.826 11.261 25.075 25.103 25.075s25.103-11.249 25.103-25.075c0-13.842-11.261-25.104-25.103-25.104zm0 35.179c-5.571 0-10.103-4.52-10.103-10.075 0-5.571 4.532-10.104 10.103-10.104s10.103 4.532 10.103 10.104c0 5.555-4.532 10.075-10.103 10.075z"/><path d="m503.088 103.392c-.351-.105-.738-.223-1.167-.36l-233.405-99.141c-9.703-4.146-15.321-4.147-25.043-.007l-233.421 99.147c-.426.138-.811.254-1.158.358-6.567 1.985-8.894 5.384-8.894 12.993v49.636c0 6.855 5.577 12.433 12.432 12.433h19.883v320.62c0 6.699 5.45 12.149 12.149 12.149h44.221 70.895 25.541 141.761 25.512 70.895 44.221c6.714 0 12.177-5.45 12.177-12.149v-199.622c0-4.143-3.357-7.5-7.5-7.5s-7.5 3.357-7.5 7.5v196.771h-33.897v-296.015c0-4.143-3.357-7.5-7.5-7.5h-334.605c-4.142 0-7.5 3.357-7.5 7.5v296.015h-33.87v-325.27c0-4.143-3.358-7.5-7.5-7.5h-24.815v-46.255c.015-.005.03-.01.045-.015.194-.064.386-.137.574-.217l233.725-99.275c5.969-2.544 7.334-2.543 13.291.003l233.718 99.272c.188.08.38.152.573.217.025.008.05.016.074.024v46.245h-24.815c-4.143 0-7.5 3.357-7.5 7.5v93.887c0 4.143 3.357 7.5 7.5 7.5s7.5-3.357 7.5-7.5v-86.386h19.854c6.871 0 12.461-5.577 12.461-12.433v-49.636c0-7.606-2.332-11.004-8.912-12.989zm-357.909 266.342c-5.165 0-9.366-4.253-9.366-9.48s4.202-9.48 9.366-9.48h12.612l-8.991 18.961h-3.621zm60.848 107.979h99.917v12.599c0 2.053.31 4.032.865 5.908h-101.645c.554-1.876.864-3.855.864-5.908v-12.599zm-58.278-15c-.002-.324-.002-.616-.002-.834l-.006-50.035c-.022-4.812-.022-4.812 2.486-10.108l8.061-17.001h195.401l8.063 17.02c2.504 5.243 2.504 5.243 2.479 9.967-.004.683-.008 50.668-.01 50.992h-216.472zm215.432-92.979-8.983-18.961h12.624c5.164 0 9.365 4.253 9.365 9.48s-4.201 9.48-9.365 9.48h-3.641zm-27.799-23.642c.112.275.237.542.379.8l10.822 22.843h-181.182l19.722-41.592c3.51-7.411 5.834-11.664 8.06-12.913 2.402-1.349 7.937-1.333 16.323-1.31l92.251.002.736-.002c8.369-.022 13.9-.038 16.303 1.31 2.23 1.252 4.562 5.507 8.082 12.914zm-175.803 150.128c-3.202 0-5.908-2.706-5.908-5.908v-12.599h37.356v12.599c0 3.202-2.706 5.908-5.908 5.908zm167.302 0c-3.273 0-5.937-2.65-5.937-5.908v-12.599h37.385v12.599c0 3.202-2.719 5.908-5.937 5.908zm-230.696-250.501h143.219c4.142 0 7.5-3.357 7.5-7.5s-3.358-7.5-7.5-7.5h-143.219v-23.014h319.603v23.014h-141.773c-4.143 0-7.5 3.357-7.5 7.5s3.357 7.5 7.5 7.5h141.772v250.501h-43.323c.555-1.876.865-3.855.865-5.908v-14.222c5.889-3.188 5.896-10.303 5.896-14.211 0 0 .004-49.42.007-50.08.04-7.475-.292-8.863-3.933-16.487l-5.124-10.815c11.853-1.648 21.011-11.888 21.011-24.243 0-13.499-10.931-24.48-24.365-24.48h-19.73l-6.661-14.06c-4.518-9.508-7.953-16.007-14.292-19.565-5.842-3.278-12.559-3.263-23.687-3.229l-92.168.002-.735-.002c-11.146-.036-17.866-.05-23.707 3.229-6.342 3.561-9.77 10.062-14.273 19.57l-6.664 14.055h-19.724c-13.436 0-24.366 10.981-24.366 24.48 0 12.347 9.147 22.582 20.989 24.24l-5.13 10.819c-3.634 7.673-3.965 9.069-3.931 16.6l.006 49.967c0 3.912.007 11.036 5.924 14.219v14.213c0 2.053.31 4.032.864 5.908h-43.35v-250.501z"/><path d="m93.503 111.943c-6.792 0-12.319 5.526-12.319 12.319v29.112c0 6.793 5.526 12.319 12.319 12.319h64.97c6.792 0 12.319-5.526 12.319-12.319v-29.112c0-6.793-5.526-12.319-12.319-12.319zm62.289 38.751h-59.607v-23.751h59.608v23.751z"/><path d="m223.5 111.943c-6.792 0-12.319 5.526-12.319 12.319v29.112c0 6.793 5.526 12.319 12.319 12.319h64.97c6.793 0 12.319-5.526 12.319-12.319v-29.112c0-6.793-5.526-12.319-12.319-12.319zm62.29 38.751h-59.608v-23.751h59.608z"/><path d="m353.526 111.943c-6.809 0-12.348 5.526-12.348 12.319v29.112c0 6.793 5.539 12.319 12.348 12.319h64.941c6.793 0 12.319-5.526 12.319-12.319v-29.112c0-6.793-5.526-12.319-12.319-12.319zm62.261 38.751h-59.608v-23.751h59.608z"/></g></g></svg>