<?xml version="1.0" encoding="UTF-8"?>
<svg xmlns="http://www.w3.org/2000/svg" xmlns:xlink="http://www.w3.org/1999/xlink" version="1.1" id="Capa_1" x="0px" y="0px" viewBox="0 0 512.001 512.001" style="enable-background:new 0 0 512.001 512.001;" xml:space="preserve" width="512" height="512">
<g>
	<g>
		<path style="fill:#BBEC6C;" d="M182.491,196.971c-5.735-9.058-8.027-19.96-6.136-30.513c0.763-4.259,1.162-8.645,1.162-13.124&#10;&#9;&#9;&#9;c0-15.185-4.569-29.3-12.403-41.053c-6.588-9.883-8.945-22.119-6.092-33.649c1.128-4.561,1.71-9.336,1.672-14.255&#10;&#9;&#9;&#9;c-0.237-30.423-24.724-55.696-55.127-56.835C72.899,6.318,46.03,32.438,46.03,64.834c0,4.477,0.514,8.834,1.486,13.016&#10;&#9;&#9;&#9;c2.752,11.841,0.841,24.314-5.903,34.429c-7.835,11.753-12.405,25.869-12.405,41.055c0,4.479,0.399,8.865,1.162,13.124&#10;&#9;&#9;&#9;c1.917,10.697-0.592,21.666-6.363,30.874c-9.518,15.186-14.801,33.294-14.173,52.681c1.562,48.266,40.241,87.805,88.466,90.345&#10;&#9;&#9;&#9;c53.981,2.843,98.642-40.086,98.642-93.446C196.942,228.545,191.639,211.421,182.491,196.971z"/>
		<path style="fill:#A2E62E;" d="M182.491,196.971c-5.735-9.058-8.027-19.96-6.136-30.513c0.763-4.259,1.162-8.645,1.162-13.124&#10;&#9;&#9;&#9;c0-15.185-4.568-29.3-12.403-41.052c-6.588-9.883-8.945-22.119-6.092-33.649c1.128-4.561,1.71-9.337,1.672-14.255&#10;&#9;&#9;&#9;c-0.237-30.423-24.724-55.696-55.127-56.835c-8.301-0.311-16.223,1.15-23.429,4.024c21.031,8.436,36.006,29.053,36.191,52.811&#10;&#9;&#9;&#9;c0.038,4.918-0.544,9.694-1.672,14.255c-2.852,11.53-0.496,23.766,6.092,33.649c7.834,11.753,12.403,25.867,12.403,41.052&#10;&#9;&#9;&#9;c0,4.479-0.399,8.865-1.162,13.124c-1.891,10.552,0.401,21.455,6.136,30.513c9.149,14.45,14.451,31.573,14.451,49.942&#10;&#9;&#9;&#9;c0,44.378-30.893,81.536-72.346,91.154c5.208,1.209,10.572,2.002,16.069,2.291c53.981,2.844,98.642-40.085,98.642-93.446&#10;&#9;&#9;&#9;C196.942,228.545,191.639,211.421,182.491,196.971z"/>
		<g>
			<path style="fill:#D67A4C;" d="M484.109,430.063H135.862c-10.002,0-18.11-8.108-18.11-18.11v0c0-10.002,8.108-18.11,18.11-18.11&#10;&#9;&#9;&#9;&#9;h348.247c10.002,0,18.11,8.108,18.11,18.11v0C502.22,421.954,494.111,430.063,484.109,430.063z"/>
			<path style="fill:#DC8758;" d="M454.876,355.388H162.348c-10.002,0-18.11-8.108-18.11-18.11v0c0-10.002,8.108-18.11,18.11-18.11&#10;&#9;&#9;&#9;&#9;h292.528c10.002,0,18.11,8.108,18.11,18.11v0C472.986,347.28,464.878,355.388,454.876,355.388z"/>
			<path style="fill:#D67A4C;" d="M454.876,319.167H162.348c-10.002,0-18.11-8.108-18.11-18.11v0c0-10.002,8.108-18.11,18.11-18.11&#10;&#9;&#9;&#9;&#9;h292.528c10.002,0,18.11,8.108,18.11,18.11v0C472.986,311.059,464.878,319.167,454.876,319.167z"/>
			<path style="fill:#DC8758;" d="M454.876,282.947H162.348c-10.002,0-18.11-8.108-18.11-18.11v0c0-10.002,8.108-18.11,18.11-18.11&#10;&#9;&#9;&#9;&#9;h292.528c10.002,0,18.11,8.108,18.11,18.11v0C472.986,274.839,464.878,282.947,454.876,282.947z"/>
		</g>
		<g>
			<path style="fill:#C86D36;" d="M502.222,411.951c0,5-2.03,9.53-5.3,12.81c-3.28,3.27-7.81,5.3-12.81,5.3h-30.08&#10;&#9;&#9;&#9;&#9;c5,0,9.53-2.03,12.81-5.3c3.27-3.28,5.3-7.81,5.3-12.81c0-10-8.11-18.11-18.11-18.11h30.08&#10;&#9;&#9;&#9;&#9;C494.112,393.841,502.222,401.951,502.222,411.951z"/>
			<path style="fill:#D67A4C;" d="M472.982,337.281c0,5-2.02,9.53-5.3,12.8c-3.28,3.28-7.8,5.31-12.81,5.31h-30.08&#10;&#9;&#9;&#9;&#9;c5,0,9.53-2.03,12.81-5.31c3.27-3.27,5.3-7.8,5.3-12.8c0-10.01-8.11-18.11-18.11-18.11h30.08&#10;&#9;&#9;&#9;&#9;C464.882,319.171,472.982,327.271,472.982,337.281z"/>
			<path style="fill:#C86D36;" d="M472.982,301.061c0,5-2.02,9.53-5.3,12.8c-3.28,3.28-7.8,5.31-12.81,5.31h-30.08&#10;&#9;&#9;&#9;&#9;c5,0,9.53-2.03,12.81-5.31c3.27-3.27,5.3-7.8,5.3-12.8c0-10.01-8.11-18.11-18.11-18.11h30.08&#10;&#9;&#9;&#9;&#9;C464.882,282.951,472.982,291.051,472.982,301.061z"/>
			<path style="fill:#D67A4C;" d="M472.982,264.841c0,5-2.02,9.53-5.3,12.8c-3.28,3.28-7.8,5.31-12.81,5.31h-30.08&#10;&#9;&#9;&#9;&#9;c5,0,9.53-2.03,12.81-5.31c3.27-3.27,5.3-7.8,5.3-12.8c0-10.01-8.11-18.11-18.11-18.11h30.08&#10;&#9;&#9;&#9;&#9;C464.882,246.731,472.982,254.831,472.982,264.841z"/>
		</g>
		<g>
			<g>
				<path style="fill:#978ECB;" d="M277.468,44.911l0,156.952c0,6.058,7.267,9.155,11.637,4.96l21.256-20.407l146.07,0&#10;&#9;&#9;&#9;&#9;&#9;c6.566,0,11.889-5.323,11.889-11.889l0-129.615c0-6.566-5.323-11.889-11.889-11.889l-167.074,0&#10;&#9;&#9;&#9;&#9;&#9;C282.79,33.022,277.468,38.345,277.468,44.911z"/>
			</g>
			<g>
				<path style="fill:#8379C1;" d="M468.322,44.911v129.62c0,6.56-5.33,11.88-11.89,11.88h-42.23c6.56,0,11.89-5.32,11.89-11.88&#10;&#9;&#9;&#9;&#9;&#9;V44.911c0-6.57-5.32-11.89-11.89-11.89h42.23C462.992,33.021,468.322,38.341,468.322,44.911z"/>
			</g>
			<g>
				<path style="fill:#FFF5C6;" d="M366.552,150.866h-52.813c-3.502,0-6.341-2.839-6.341-6.341V72.892&#10;&#9;&#9;&#9;&#9;&#9;c0-3.502,2.839-6.341,6.341-6.341h39.324c10.952,0,19.83,8.878,19.83,19.83v58.145&#10;&#9;&#9;&#9;&#9;&#9;C372.893,148.027,370.054,150.866,366.552,150.866z"/>
				<path style="fill:#FFF9E2;" d="M432.047,150.866h-52.813c-3.502,0-6.341-2.839-6.341-6.341V86.381&#10;&#9;&#9;&#9;&#9;&#9;c0-10.952,8.878-19.83,19.83-19.83h39.324c3.502,0,6.341,2.839,6.341,6.341v71.634&#10;&#9;&#9;&#9;&#9;&#9;C438.388,148.027,435.549,150.866,432.047,150.866z"/>
				<path style="fill:#FFF5C6;" d="M432.048,66.551h-5.958l0,84.315h5.958c3.502,0,6.341-2.839,6.341-6.341V72.892&#10;&#9;&#9;&#9;&#9;&#9;C438.388,69.39,435.549,66.551,432.048,66.551z"/>
			</g>
		</g>
		<path style="fill:#DC8758;" d="M117.752,504.501H88.974V281.736c0-7.947,6.442-14.389,14.389-14.389h0&#10;&#9;&#9;&#9;c7.947,0,14.389,6.442,14.389,14.389V504.501z"/>
	</g>
	<g>
		<g>
			<path style="fill:none;stroke:#000000;stroke-width:15;stroke-linecap:round;stroke-linejoin:round;stroke-miterlimit:10;" d="&#10;&#9;&#9;&#9;&#9;M229.879,393.842h254.231c10.002,0,18.11,8.108,18.11,18.11v0c0,10.002-8.108,18.11-18.11,18.11H135.862&#10;&#9;&#9;&#9;&#9;c-10.002,0-18.11-8.108-18.11-18.11v0c0-10.002,8.108-18.11,18.11-18.11h58.87"/>
			<path style="fill:none;stroke:#000000;stroke-width:15;stroke-linecap:round;stroke-linejoin:round;stroke-miterlimit:10;" d="&#10;&#9;&#9;&#9;&#9;M454.876,355.388H162.348c-10.002,0-18.11-8.108-18.11-18.11v0c0-10.002,8.108-18.11,18.11-18.11h292.528&#10;&#9;&#9;&#9;&#9;c10.002,0,18.11,8.108,18.11,18.11v0C472.986,347.28,464.878,355.388,454.876,355.388z"/>
			<path style="fill:none;stroke:#000000;stroke-width:15;stroke-linecap:round;stroke-linejoin:round;stroke-miterlimit:10;" d="&#10;&#9;&#9;&#9;&#9;M454.876,319.167H162.348c-10.002,0-18.11-8.108-18.11-18.11v0c0-10.002,8.108-18.11,18.11-18.11h292.528&#10;&#9;&#9;&#9;&#9;c10.002,0,18.11,8.108,18.11,18.11v0C472.986,311.059,464.878,319.167,454.876,319.167z"/>
			<path style="fill:none;stroke:#000000;stroke-width:15;stroke-linecap:round;stroke-linejoin:round;stroke-miterlimit:10;" d="&#10;&#9;&#9;&#9;&#9;M425.24,246.726h29.636c10.002,0,18.11,8.108,18.11,18.11v0c0,10.002-8.108,18.11-18.11,18.11H162.348&#10;&#9;&#9;&#9;&#9;c-10.002,0-18.11-8.108-18.11-18.11v0c0-10.002,8.108-18.11,18.11-18.11h227.85"/>
			<g>
				<path style="fill:none;stroke:#000000;stroke-width:15;stroke-linecap:round;stroke-linejoin:round;stroke-miterlimit:10;" d="&#10;&#9;&#9;&#9;&#9;&#9;M147.656,504.501l28.199-59.68c4.258-9.011,13.33-14.758,23.296-14.758h0c14.23,0,25.766,11.536,25.766,25.766v48.673"/>
				<path style="fill:none;stroke:#000000;stroke-width:15;stroke-linecap:round;stroke-linejoin:round;stroke-miterlimit:10;" d="&#10;&#9;&#9;&#9;&#9;&#9;M472.316,504.501l-28.199-59.68c-4.258-9.011-13.33-14.758-23.296-14.758h0c-14.23,0-25.766,11.536-25.766,25.766v48.673"/>
			</g>
			<g>
				
					<line style="fill:none;stroke:#000000;stroke-width:15;stroke-linecap:round;stroke-linejoin:round;stroke-miterlimit:10;" x1="425.24" y1="246.726" x2="425.24" y2="225.641"/>
			</g>
			<g>
				
					<line style="fill:none;stroke:#000000;stroke-width:15;stroke-linecap:round;stroke-linejoin:round;stroke-miterlimit:10;" x1="194.732" y1="393.842" x2="194.732" y2="355.388"/>
				
					<line style="fill:none;stroke:#000000;stroke-width:15;stroke-linecap:round;stroke-linejoin:round;stroke-miterlimit:10;" x1="425.24" y1="393.842" x2="425.24" y2="355.388"/>
			</g>
		</g>
		<g>
			<g>
				<path style="fill:none;stroke:#000000;stroke-width:15;stroke-linecap:round;stroke-linejoin:round;stroke-miterlimit:10;" d="&#10;&#9;&#9;&#9;&#9;&#9;M277.468,44.911l0,156.952c0,6.058,7.267,9.155,11.637,4.96l21.256-20.407l146.07,0c6.566,0,11.889-5.323,11.889-11.889&#10;&#9;&#9;&#9;&#9;&#9;l0-129.615c0-6.566-5.323-11.889-11.889-11.889l-167.074,0C282.79,33.022,277.468,38.345,277.468,44.911z"/>
			</g>
			<g>
				<path style="fill:none;stroke:#000000;stroke-width:15;stroke-linecap:round;stroke-linejoin:round;stroke-miterlimit:10;" d="&#10;&#9;&#9;&#9;&#9;&#9;M366.552,150.866h-52.813c-3.502,0-6.341-2.839-6.341-6.341V72.892c0-3.502,2.839-6.341,6.341-6.341h39.324&#10;&#9;&#9;&#9;&#9;&#9;c10.952,0,19.83,8.878,19.83,19.83v58.145C372.893,148.027,370.054,150.866,366.552,150.866z"/>
				<path style="fill:none;stroke:#000000;stroke-width:15;stroke-linecap:round;stroke-linejoin:round;stroke-miterlimit:10;" d="&#10;&#9;&#9;&#9;&#9;&#9;M432.047,150.866h-52.813c-3.502,0-6.341-2.839-6.341-6.341V86.381c0-10.952,8.878-19.83,19.83-19.83h39.324&#10;&#9;&#9;&#9;&#9;&#9;c3.502,0,6.341,2.839,6.341,6.341v71.634C438.388,148.027,435.549,150.866,432.047,150.866z"/>
			</g>
		</g>
		<path style="fill:none;stroke:#000000;stroke-width:15;stroke-linecap:round;stroke-linejoin:round;stroke-miterlimit:10;" d="&#10;&#9;&#9;&#9;M50.34,42.991c8.853-21.463,30.362-36.378,55.232-35.449c30.4,1.14,54.89,26.41,55.12,56.84c0.04,4.92-0.54,9.69-1.67,14.25&#10;&#9;&#9;&#9;c-2.85,11.53-0.5,23.77,6.09,33.65c7.84,11.75,12.41,25.87,12.41,41.05c0,4.48-0.4,8.87-1.17,13.13&#10;&#9;&#9;&#9;c-1.89,10.55,0.4,21.45,6.14,30.51c9.12,14.4,14.42,31.46,14.45,49.76"/>
		<path style="fill:none;stroke:#000000;stroke-width:15;stroke-linecap:round;stroke-linejoin:round;stroke-miterlimit:10;" d="&#10;&#9;&#9;&#9;M88.972,339.391c-43.8-6.78-77.68-44.26-79.14-89.38c-0.63-19.38,4.66-37.49,14.18-52.68c5.77-9.21,8.28-20.18,6.36-30.87&#10;&#9;&#9;&#9;c-0.76-4.26-1.16-8.65-1.16-13.13c0-15.18,4.57-29.3,12.4-41.05c6.74-10.12,8.66-22.59,5.9-34.43"/>
		<path style="fill:none;stroke:#000000;stroke-width:15;stroke-linecap:round;stroke-linejoin:round;stroke-miterlimit:10;" d="&#10;&#9;&#9;&#9;M145.582,330.441c-8.6,4.36-17.96,7.43-27.83,8.95"/>
		<path style="fill:none;stroke:#000000;stroke-width:15;stroke-linecap:round;stroke-linejoin:round;stroke-miterlimit:10;" d="&#10;&#9;&#9;&#9;M88.974,504.501V281.736c0-7.947,6.442-14.389,14.389-14.389h0c7.947,0,14.389,6.442,14.389,14.389v222.765"/>
	</g>
</g>















</svg>
