<?xml version="1.0" encoding="UTF-8" standalone="no"?>
<!-- Created with Inkscape (http://www.inkscape.org/) -->

<svg
   version="1.1"
   id="svg981"
   xml:space="preserve"
   width="682.66669"
   height="682.66669"
   viewBox="0 0 682.66669 682.66669"
   xmlns="http://www.w3.org/2000/svg"
   xmlns:svg="http://www.w3.org/2000/svg"><defs
     id="defs985"><clipPath
       clipPathUnits="userSpaceOnUse"
       id="clipPath999"><path
         d="M 0,512 H 512 V 0 H 0 Z"
         id="path997" /></clipPath></defs><g
     id="g987"
     transform="matrix(1.3333333,0,0,-1.3333333,0,682.66667)"><g
       id="g989"
       transform="translate(268.9111,316.9224)"><path
         d="M 0,0 70.551,-5.442 75.908,18.226 58.617,35.857 H 0 L -10.459,18.226 Z"
         style="fill:#f9f7f8;fill-opacity:1;fill-rule:evenodd;stroke:none"
         id="path991" /></g><g
       id="g993"><g
         id="g995"
         clip-path="url(#clipPath999)"><g
           id="g1001"
           transform="translate(228.2646,314.4561)"><path
             d="M 0,0 C 0,-7.029 7.341,-11.338 14.229,-8.475 L 40.646,2.466 V 38.324 L 14.229,49.265 C 7.341,52.1 0,47.763 0,40.761 Z"
             style="fill:#a1d4ff;fill-opacity:1;fill-rule:evenodd;stroke:none"
             id="path1003" /></g><g
           id="g1005"
           transform="translate(242.4932,322.2231)"><path
             d="M 0,0 C -6.888,-2.834 -14.229,1.474 -14.229,8.475 V -7.767 c 0,-7.029 7.341,-11.338 14.229,-8.475 L 26.418,-5.301 V 10.941 L 21.146,8.759 Z"
             style="fill:#86beec;fill-opacity:1;fill-rule:evenodd;stroke:none"
             id="path1007" /></g><g
           id="g1009"
           transform="translate(310.1816,330.0464)"><path
             d="M 0,0 -41.271,3.118 V -13.124 L 29.28,-18.566 17.347,22.733 H 2.664 L 5.386,12.727 C 7.965,3.26 10.204,-0.765 0,0"
             style="fill:#e5e3ee;fill-opacity:1;fill-rule:evenodd;stroke:none"
             id="path1011" /></g><g
           id="g1013"
           transform="translate(345.584,290.3623)"><path
             d="m 0,0 c 2.467,-8.532 13.464,-11.452 21.458,-7.653 l 117.291,55.728 c 7.993,3.798 12.67,14.173 7.625,21.457 L 119.276,108.706 96.912,141.02 27.438,117.068 -24.149,83.507 -18.056,62.417 -6.122,21.118 Z"
             style="fill:#a1d4ff;fill-opacity:1;fill-rule:evenodd;stroke:none"
             id="path1015" /></g><g
           id="g1017"
           transform="translate(321.4346,373.8691)"><path
             d="m 0,0 57.002,27.07 64.06,30.443 -11.083,16.016 C 104.933,80.813 96.515,84.98 88.493,81.182 L 40.93,58.59 2.211,40.194 C -5.782,36.396 -7.88,27.24 -5.414,18.736 Z"
             style="fill:#f9f7f8;fill-opacity:1;fill-rule:evenodd;stroke:none"
             id="path1019" /></g><g
           id="g1021"
           transform="translate(409.9277,455.0513)"><path
             d="m 0,0 -25.312,-12.047 c 7.993,3.827 16.412,-0.34 21.457,-7.625 l 9.241,-13.379 1.842,-2.665 25.34,12.047 -11.083,16.016 C 16.439,-0.369 8.021,3.798 0,0"
             style="fill:#e5e3ee;fill-opacity:1;fill-rule:evenodd;stroke:none"
             id="path1023" /></g><g
           id="g1025"
           transform="translate(442.4961,431.3823)"><path
             d="m 0,0 -25.341,-12.047 22.364,-32.314 1.446,-2.069 25.68,-37.105 c 5.046,-7.285 0.37,-17.659 -7.652,-21.458 l 25.34,12.048 c 7.993,3.798 12.67,14.173 7.625,21.457 l -27.098,39.174 z"
             style="fill:#86beec;fill-opacity:1;fill-rule:evenodd;stroke:none"
             id="path1027" /></g><g
           id="g1029"
           transform="translate(19.4189,7.5)"><path
             d="m 0,0 h 473.134 c 6.491,0 11.82,5.244 11.933,11.707 v 0.227 45.523 0.198 c -0.113,6.463 -5.442,11.707 -11.933,11.707 H 415.849 236.566 57.313 0 c -6.491,0 -11.792,-5.244 -11.905,-11.707 V 57.457 11.934 11.707 C -11.792,5.244 -6.491,0 0,0"
             style="fill:#e29d7b;fill-opacity:1;fill-rule:evenodd;stroke:none"
             id="path1031" /></g><g
           id="g1033"
           transform="translate(362.3643,432.4595)"><path
             d="m 0,0 c -4.79,26.503 8.476,53.999 33.958,66.103 30.527,14.513 67.007,1.502 81.52,-28.998 11.622,-24.462 5.584,-52.751 -12.982,-70.496"
             style="fill:none;stroke:#000000;stroke-width:15;stroke-linecap:round;stroke-linejoin:round;stroke-miterlimit:10;stroke-dasharray:none;stroke-opacity:1"
             id="path1035" /></g><g
           id="g1037"
           transform="translate(123.3027,42.167)"><path
             d="M 0,0 -0.028,0.028"
             style="fill:none;stroke:#000000;stroke-width:15;stroke-linecap:round;stroke-linejoin:round;stroke-miterlimit:10;stroke-dasharray:none;stroke-opacity:1"
             id="path1039" /></g><g
           id="g1041"
           transform="translate(196.2627,38.3687)"><path
             d="M 0,0 -0.028,0.028"
             style="fill:none;stroke:#000000;stroke-width:15;stroke-linecap:round;stroke-linejoin:round;stroke-miterlimit:10;stroke-dasharray:none;stroke-opacity:1"
             id="path1043" /></g><g
           id="g1045"
           transform="translate(313.2998,42.167)"><path
             d="M 0,0 -0.028,0.028"
             style="fill:none;stroke:#000000;stroke-width:15;stroke-linecap:round;stroke-linejoin:round;stroke-miterlimit:10;stroke-dasharray:none;stroke-opacity:1"
             id="path1047" /></g><g
           id="g1049"
           transform="translate(376.2539,38.3687)"><path
             d="M 0,0 -0.028,0.028"
             style="fill:none;stroke:#000000;stroke-width:15;stroke-linecap:round;stroke-linejoin:round;stroke-miterlimit:10;stroke-dasharray:none;stroke-opacity:1"
             id="path1051" /></g><g
           id="g1053"
           transform="translate(321.4346,373.8691)"><path
             d="M 0,0 121.062,57.513"
             style="fill:none;stroke:#000000;stroke-width:15;stroke-linecap:round;stroke-linejoin:round;stroke-miterlimit:10;stroke-dasharray:none;stroke-opacity:1"
             id="path1055" /></g><g
           id="g1057"
           transform="translate(130.0205,263.0371)"><path
             d="M 0,0 V -24.746 M 45.664,80.162 H 30.272 C 13.634,80.162 0,66.527 0,49.889 V 33.193"
             style="fill:none;stroke:#000000;stroke-width:15;stroke-linecap:round;stroke-linejoin:round;stroke-miterlimit:10;stroke-dasharray:none;stroke-opacity:1"
             id="path1059" /></g><g
           id="g1061"
           transform="translate(165.3672,266.7788)"><path
             d="m 0,0 v 36.339 c 0,7.455 6.122,13.578 13.605,13.578 h 13.238"
             style="fill:none;stroke:#000000;stroke-width:15;stroke-linecap:round;stroke-linejoin:round;stroke-miterlimit:10;stroke-dasharray:none;stroke-opacity:1"
             id="path1063" /></g><g
           id="g1065"
           transform="translate(76.7324,106.54)"><path
             d="m 0,0 34.779,3.515 c 18.963,1.899 34.439,19.133 34.439,38.267 v 28.742 c 0,3.317 -2.693,5.783 -5.981,5.443 L 34.438,73.076 C 15.504,71.148 0,53.942 0,34.809 v -8.901 z"
             style="fill:#a7e9a6;fill-opacity:1;fill-rule:evenodd;stroke:none"
             id="path1067" /></g><g
           id="g1069"
           transform="translate(111.5117,110.0552)"><path
             d="m 0,0 c 18.963,1.899 34.438,19.133 34.438,38.267 v 28.742 c 0,3.317 -2.692,5.783 -5.98,5.443 l -9.07,-0.908 V 48.415 C 19.416,29.281 5.867,15.505 -13.096,13.606 l -10.091,-1.021 -11.592,-1.19 v -14.91 z"
             style="fill:#7fdbae;fill-opacity:1;fill-rule:evenodd;stroke:none"
             id="path1071" /></g><g
           id="g1073"
           transform="translate(76.7324,141.3486)"><path
             d="m 0,0 c 0,19.133 15.504,36.339 34.438,38.267 l 28.799,2.891 c 3.288,0.34 5.981,-2.126 5.981,-5.442 V 6.973 c 0,-19.133 -15.476,-36.368 -34.439,-38.266 L 0,-34.809"
             style="fill:none;stroke:#000000;stroke-width:15;stroke-linecap:round;stroke-linejoin:round;stroke-miterlimit:10;stroke-dasharray:none;stroke-opacity:1"
             id="path1075" /></g><g
           id="g1077"
           transform="translate(108.875,142.0854)"><path
             d="M 0,0 -30.414,-33.618"
             style="fill:none;stroke:#000000;stroke-width:15;stroke-linecap:round;stroke-linejoin:round;stroke-miterlimit:10;stroke-dasharray:none;stroke-opacity:1"
             id="path1079" /></g><g
           id="g1081"
           transform="translate(323.6455,414.0635)"><path
             d="m 0,0 86.282,40.988 c 8.022,3.798 16.44,-0.369 21.486,-7.654 l 60.544,-87.503 c 5.045,-7.285 0.369,-17.659 -7.625,-21.457 L 43.396,-131.354 c -7.994,-3.799 -18.991,-0.879 -21.458,7.653 L -7.625,-21.458 C -10.091,-12.954 -7.993,-3.798 0,0 Z"
             style="fill:none;stroke:#000000;stroke-width:15;stroke-linecap:round;stroke-linejoin:round;stroke-miterlimit:10;stroke-dasharray:none;stroke-opacity:1"
             id="path1083" /></g><g
           id="g1085"
           transform="translate(268.9111,352.7798)"><path
             d="m 0,0 -26.418,10.941 c -6.888,2.835 -14.228,-1.502 -14.228,-8.503 v -40.762 c 0,-7.029 7.34,-11.338 14.228,-8.475 L 0,-35.857 Z"
             style="fill:none;stroke:#000000;stroke-width:15;stroke-linecap:round;stroke-linejoin:round;stroke-miterlimit:10;stroke-dasharray:none;stroke-opacity:1"
             id="path1087" /></g><g
           id="g1089"
           transform="translate(268.9111,352.7798)"><path
             d="M 0,0 H 58.617 L 70.551,-41.3 0,-35.857 Z"
             style="fill:none;stroke:#000000;stroke-width:15;stroke-linecap:round;stroke-linejoin:round;stroke-miterlimit:10;stroke-dasharray:none;stroke-opacity:1"
             id="path1091" /></g><g
           id="g1093"
           transform="translate(473.1084,64.957)"><path
             d="m 0,0 v -45.523 c 0,-6.548 -5.357,-11.934 -11.934,-11.934 h 31.378 c 6.492,0 11.821,5.244 11.934,11.707 V -45.523 0 0.198 C 31.265,6.661 25.936,11.905 19.444,11.905 H -11.934 C -5.357,11.905 0,6.548 0,0"
             style="fill:#ce8b6b;fill-opacity:1;fill-rule:evenodd;stroke:none"
             id="path1095" /></g><g
           id="g1097"
           transform="translate(373.249,76.8623)"><path
             d="m 0,0 h 119.304 c 6.576,0 11.933,-5.357 11.933,-11.905 v -45.524 c 0,-6.548 -5.357,-11.933 -11.933,-11.933 H -353.83 c -6.548,0 -11.905,5.385 -11.905,11.933 v 45.524 c 0,6.548 5.357,11.905 11.905,11.905 h 319.192"
             style="fill:none;stroke:#000000;stroke-width:15;stroke-linecap:round;stroke-linejoin:round;stroke-miterlimit:10;stroke-dasharray:none;stroke-opacity:1"
             id="path1099" /></g><g
           id="g1101"
           transform="translate(76.9307,145.1187)"><path
             d="m 0,0 -34.779,3.515 c -18.935,1.927 -34.44,19.133 -34.44,38.267 v 28.742 c 0,3.317 2.694,5.783 5.981,5.443 l 28.799,-2.892 C -15.505,71.148 0,53.942 0,34.809 v -8.901 z"
             style="fill:#a7e9a6;fill-opacity:1;fill-rule:evenodd;stroke:none"
             id="path1103" /></g><g
           id="g1105"
           transform="translate(42.1514,148.6338)"><path
             d="m 0,0 c -18.935,1.927 -34.439,19.133 -34.439,38.267 v 28.742 c 0,3.317 2.693,5.783 5.98,5.443 l 9.071,-0.908 V 48.415 c 0,-19.134 13.521,-32.91 32.483,-34.809 L 23.186,12.585 34.779,11.423 V -3.515 Z"
             style="fill:#7fdbae;fill-opacity:1;fill-rule:evenodd;stroke:none"
             id="path1107" /></g><g
           id="g1109"
           transform="translate(76.9307,179.9272)"><path
             d="m 0,0 c 0,19.133 -15.505,36.339 -34.439,38.267 l -28.799,2.891 c -3.287,0.34 -5.981,-2.126 -5.981,-5.442 V 6.973 c 0,-19.133 15.505,-36.339 34.44,-38.266 L 0,-34.809"
             style="fill:none;stroke:#000000;stroke-width:15;stroke-linecap:round;stroke-linejoin:round;stroke-miterlimit:10;stroke-dasharray:none;stroke-opacity:1"
             id="path1111" /></g><g
           id="g1113"
           transform="translate(44.8154,180.6641)"><path
             d="M 0,0 30.386,-33.618"
             style="fill:none;stroke:#000000;stroke-width:15;stroke-linecap:round;stroke-linejoin:round;stroke-miterlimit:10;stroke-dasharray:none;stroke-opacity:1"
             id="path1115" /></g><g
           id="g1117"
           transform="translate(76.7324,179.9272)"><path
             d="M 0,0 V -103.065"
             style="fill:none;stroke:#000000;stroke-width:15;stroke-linecap:round;stroke-linejoin:round;stroke-miterlimit:10;stroke-dasharray:none;stroke-opacity:1"
             id="path1119" /></g><g
           id="g1121"
           transform="translate(255.9854,106.54)"><path
             d="m 0,0 34.809,3.515 c 18.933,1.899 34.438,19.133 34.438,38.267 v 28.742 c 0,3.317 -2.721,5.783 -6.009,5.443 L 34.439,73.076 C 15.505,71.148 0,53.942 0,34.809 v -8.901 z"
             style="fill:#a7e9a6;fill-opacity:1;fill-rule:evenodd;stroke:none"
             id="path1123" /></g><g
           id="g1125"
           transform="translate(290.7939,110.0552)"><path
             d="m 0,0 c 18.934,1.899 34.438,19.133 34.438,38.267 v 28.742 c 0,3.317 -2.72,5.783 -6.008,5.443 L 19.388,71.544 V 48.415 c 0,-19.134 -13.549,-32.91 -32.484,-34.809 l -10.091,-1.021 -11.622,-1.19 v -14.91 z"
             style="fill:#7fdbae;fill-opacity:1;fill-rule:evenodd;stroke:none"
             id="path1127" /></g><g
           id="g1129"
           transform="translate(255.9854,141.3486)"><path
             d="m 0,0 c 0,19.133 15.505,36.339 34.439,38.267 l 28.799,2.891 c 3.288,0.34 6.009,-2.126 6.009,-5.442 V 6.973 c 0,-19.133 -15.505,-36.368 -34.438,-38.266 L 0,-34.809"
             style="fill:none;stroke:#000000;stroke-width:15;stroke-linecap:round;stroke-linejoin:round;stroke-miterlimit:10;stroke-dasharray:none;stroke-opacity:1"
             id="path1131" /></g><g
           id="g1133"
           transform="translate(288.1289,142.0854)"><path
             d="M 0,0 -30.386,-33.618"
             style="fill:none;stroke:#000000;stroke-width:15;stroke-linecap:round;stroke-linejoin:round;stroke-miterlimit:10;stroke-dasharray:none;stroke-opacity:1"
             id="path1135" /></g><g
           id="g1137"
           transform="translate(256.1846,145.1187)"><path
             d="m 0,0 -34.779,3.515 c -18.935,1.927 -34.44,19.133 -34.44,38.267 v 28.742 c 0,3.317 2.693,5.783 5.981,5.443 l 28.799,-2.892 C -15.477,71.148 0,53.942 0,34.809 v -8.901 z"
             style="fill:#a7e9a6;fill-opacity:1;fill-rule:evenodd;stroke:none"
             id="path1139" /></g><g
           id="g1141"
           transform="translate(221.4053,148.6338)"><path
             d="m 0,0 c -18.935,1.927 -34.439,19.133 -34.439,38.267 v 28.742 c 0,3.317 2.692,5.783 5.98,5.443 l 9.07,-0.908 V 48.415 c 0,-19.134 13.549,-32.91 32.484,-34.809 L 23.186,12.585 34.779,11.423 V -3.515 Z"
             style="fill:#7fdbae;fill-opacity:1;fill-rule:evenodd;stroke:none"
             id="path1143" /></g><g
           id="g1145"
           transform="translate(256.1846,179.9272)"><path
             d="m 0,0 c 0,19.133 -15.477,36.339 -34.439,38.267 l -28.799,2.891 c -3.288,0.34 -5.981,-2.126 -5.981,-5.442 V 6.973 c 0,-19.133 15.505,-36.339 34.44,-38.266 L 0,-34.809"
             style="fill:none;stroke:#000000;stroke-width:15;stroke-linecap:round;stroke-linejoin:round;stroke-miterlimit:10;stroke-dasharray:none;stroke-opacity:1"
             id="path1147" /></g><g
           id="g1149"
           transform="translate(224.0693,180.6641)"><path
             d="M 0,0 30.386,-33.618"
             style="fill:none;stroke:#000000;stroke-width:15;stroke-linecap:round;stroke-linejoin:round;stroke-miterlimit:10;stroke-dasharray:none;stroke-opacity:1"
             id="path1151" /></g><g
           id="g1153"
           transform="translate(255.9854,179.9272)"><path
             d="M 0,0 V -103.065"
             style="fill:none;stroke:#000000;stroke-width:15;stroke-linecap:round;stroke-linejoin:round;stroke-miterlimit:10;stroke-dasharray:none;stroke-opacity:1"
             id="path1155" /></g><g
           id="g1157"
           transform="translate(435.2676,106.54)"><path
             d="m 0,0 34.779,3.515 c 18.935,1.899 34.44,19.133 34.44,38.267 v 28.742 c 0,3.317 -2.693,5.783 -6.009,5.443 L 34.411,73.076 C 15.477,71.148 0,53.942 0,34.809 v -8.901 z"
             style="fill:#a7e9a6;fill-opacity:1;fill-rule:evenodd;stroke:none"
             id="path1159" /></g><g
           id="g1161"
           transform="translate(470.0469,110.0552)"><path
             d="m 0,0 c 18.935,1.899 34.439,19.133 34.439,38.267 v 28.742 c 0,3.317 -2.692,5.783 -6.008,5.443 L 19.389,71.544 V 48.415 c 0,-19.134 -13.549,-32.91 -32.484,-34.809 l -10.091,-1.021 -11.593,-1.19 v -14.91 z"
             style="fill:#7fdbae;fill-opacity:1;fill-rule:evenodd;stroke:none"
             id="path1163" /></g><g
           id="g1165"
           transform="translate(435.2676,141.3486)"><path
             d="m 0,0 c 0,19.133 15.477,36.339 34.411,38.267 l 28.799,2.891 c 3.316,0.34 6.009,-2.126 6.009,-5.442 V 6.973 c 0,-19.133 -15.505,-36.368 -34.44,-38.266 L 0,-34.809"
             style="fill:none;stroke:#000000;stroke-width:15;stroke-linecap:round;stroke-linejoin:round;stroke-miterlimit:10;stroke-dasharray:none;stroke-opacity:1"
             id="path1167" /></g><g
           id="g1169"
           transform="translate(467.3828,142.0854)"><path
             d="M 0,0 -30.386,-33.618"
             style="fill:none;stroke:#000000;stroke-width:15;stroke-linecap:round;stroke-linejoin:round;stroke-miterlimit:10;stroke-dasharray:none;stroke-opacity:1"
             id="path1171" /></g><g
           id="g1173"
           transform="translate(435.4668,145.1187)"><path
             d="m 0,0 -34.809,3.515 c -18.933,1.927 -34.438,19.133 -34.438,38.267 v 28.742 c 0,3.317 2.692,5.783 6.009,5.443 l 28.799,-2.892 C -15.505,71.148 0,53.942 0,34.809 v -8.901 z"
             style="fill:#a7e9a6;fill-opacity:1;fill-rule:evenodd;stroke:none"
             id="path1175" /></g><g
           id="g1177"
           transform="translate(400.6582,148.6338)"><path
             d="m 0,0 c -18.934,1.927 -34.438,19.133 -34.438,38.267 v 28.742 c 0,3.317 2.692,5.783 6.008,5.443 l 9.042,-0.908 V 48.415 c 0,-19.134 13.549,-32.91 32.484,-34.809 L 23.187,12.585 34.809,11.423 V -3.515 Z"
             style="fill:#7fdbae;fill-opacity:1;fill-rule:evenodd;stroke:none"
             id="path1179" /></g><g
           id="g1181"
           transform="translate(435.4668,179.9272)"><path
             d="m 0,0 c 0,19.133 -15.505,36.339 -34.439,38.267 l -28.799,2.891 c -3.317,0.34 -6.009,-2.126 -6.009,-5.442 V 6.973 c 0,-19.133 15.505,-36.339 34.438,-38.266 L 0,-34.809"
             style="fill:none;stroke:#000000;stroke-width:15;stroke-linecap:round;stroke-linejoin:round;stroke-miterlimit:10;stroke-dasharray:none;stroke-opacity:1"
             id="path1183" /></g><g
           id="g1185"
           transform="translate(403.3232,180.6641)"><path
             d="M 0,0 30.386,-33.618"
             style="fill:none;stroke:#000000;stroke-width:15;stroke-linecap:round;stroke-linejoin:round;stroke-miterlimit:10;stroke-dasharray:none;stroke-opacity:1"
             id="path1187" /></g><g
           id="g1189"
           transform="translate(435.2676,179.9272)"><path
             d="M 0,0 V -103.065"
             style="fill:none;stroke:#000000;stroke-width:15;stroke-linecap:round;stroke-linejoin:round;stroke-miterlimit:10;stroke-dasharray:none;stroke-opacity:1"
             id="path1191" /></g></g></g></g></svg>
