<?xml version="1.0" encoding="UTF-8" standalone="no"?>
<!-- Created with Inkscape (http://www.inkscape.org/) -->

<svg
   version="1.1"
   id="svg8676"
   xml:space="preserve"
   width="682.66669"
   height="682.66669"
   viewBox="0 0 682.66669 682.66669"
   xmlns="http://www.w3.org/2000/svg"
   xmlns:svg="http://www.w3.org/2000/svg"><defs
     id="defs8680"><clipPath
       clipPathUnits="userSpaceOnUse"
       id="clipPath8690"><path
         d="M 0,512 H 512 V 0 H 0 Z"
         id="path8688" /></clipPath></defs><g
     id="g8682"
     transform="matrix(1.3333333,0,0,-1.3333333,0,682.66667)"><g
       id="g8684"><g
         id="g8686"
         clip-path="url(#clipPath8690)"><g
           id="g8692"
           transform="translate(504.5,146.6016)"><path
             d="m 0,0 c 0,-57.338 -111.257,-103.819 -248.5,-103.819 -137.243,0 -248.5,46.481 -248.5,103.819 0,57.338 111.257,103.819 248.5,103.819 C -111.257,103.819 0,57.338 0,0"
             style="fill:#97d97c;fill-opacity:1;fill-rule:nonzero;stroke:none"
             id="path8694" /></g><g
           id="g8696"
           transform="translate(504.5,146.5977)"><path
             d="m 0,0 c 0,-57.33 -111.26,-103.82 -248.5,-103.82 -6.64,0 -13.23,0.11 -19.74,0.32 128.01,4.21 228.76,48.95 228.76,103.5 0,54.56 -100.75,99.29 -228.76,103.5 6.51,0.21 13.1,0.32 19.74,0.32 C -111.26,103.82 0,57.34 0,0"
             style="fill:#80d361;fill-opacity:1;fill-rule:nonzero;stroke:none"
             id="path8698" /></g><g
           id="g8700"
           transform="translate(239.7871,250.1953)"><path
             d="m 0,0 c -129.684,-3.49 -232.287,-48.532 -232.287,-103.594 0,-57.338 111.258,-103.82 248.5,-103.82 78.279,0 148.091,15.127 193.64,38.76"
             style="fill:none;stroke:#000000;stroke-width:15;stroke-linecap:round;stroke-linejoin:round;stroke-miterlimit:10;stroke-dasharray:none;stroke-opacity:1"
             id="path8702" /></g><g
           id="g8704"
           transform="translate(477.3467,99.3643)"><path
             d="m 0,0 c 17.359,14.17 27.153,30.226 27.153,47.237 0,54.982 -102.305,99.974 -231.722,103.579"
             style="fill:none;stroke:#000000;stroke-width:15;stroke-linecap:round;stroke-linejoin:round;stroke-miterlimit:10;stroke-dasharray:none;stroke-opacity:1"
             id="path8706" /></g><g
           id="g8708"
           transform="translate(243.5,134.5273)"><path
             d="m 0,0 c 0,-13.864 -28.024,-25.104 -62.593,-25.104 -34.569,0 -62.593,11.24 -62.593,25.104 0,13.865 28.024,25.104 62.593,25.104 C -28.024,25.104 0,13.865 0,0"
             style="fill:#4fc223;fill-opacity:1;fill-rule:nonzero;stroke:none"
             id="path8710" /></g><g
           id="g8712"
           transform="translate(234.4941,121.5557)"><path
             d="m 0,0 c -10.97,-7.27 -30.859,-12.13 -53.59,-12.13 -22.729,0 -42.63,4.86 -53.59,12.13 10.96,7.271 30.861,12.13 53.59,12.13 C -30.859,12.13 -10.97,7.271 0,0"
             style="fill:#47a921;fill-opacity:1;fill-rule:nonzero;stroke:none"
             id="path8714" /></g><g
           id="g8716"
           transform="translate(243.5,134.5273)"><path
             d="m 0,0 c 0,-13.864 -28.024,-25.104 -62.593,-25.104 -34.569,0 -62.593,11.24 -62.593,25.104 0,13.865 28.024,25.104 62.593,25.104 C -28.024,25.104 0,13.865 0,0 Z"
             style="fill:none;stroke:#000000;stroke-width:15;stroke-linecap:round;stroke-linejoin:round;stroke-miterlimit:10;stroke-dasharray:none;stroke-opacity:1"
             id="path8718" /></g><g
           id="g8720"
           transform="translate(155.8213,111.5264)"><path
             d="M 0,0 V 357.696"
             style="fill:none;stroke:#000000;stroke-width:15;stroke-linecap:round;stroke-linejoin:round;stroke-miterlimit:10;stroke-dasharray:none;stroke-opacity:1"
             id="path8722" /></g><g
           id="g8724"
           transform="translate(333.374,112.9932)"><path
             d="M 0,0 0.941,-7.134"
             style="fill:none;stroke:#000000;stroke-width:15;stroke-linecap:round;stroke-linejoin:round;stroke-miterlimit:10;stroke-dasharray:none;stroke-opacity:1"
             id="path8726" /></g><g
           id="g8728"
           transform="translate(357.4033,112.9932)"><path
             d="M 0,0 -0.941,-7.134"
             style="fill:none;stroke:#000000;stroke-width:15;stroke-linecap:round;stroke-linejoin:round;stroke-miterlimit:10;stroke-dasharray:none;stroke-opacity:1"
             id="path8730" /></g><g
           id="g8732"
           transform="translate(67.1104,154.6797)"><path
             d="M 0,0 0.942,-7.134"
             style="fill:none;stroke:#000000;stroke-width:15;stroke-linecap:round;stroke-linejoin:round;stroke-miterlimit:10;stroke-dasharray:none;stroke-opacity:1"
             id="path8734" /></g><g
           id="g8736"
           transform="translate(91.1406,154.6797)"><path
             d="M 0,0 -0.942,-7.134"
             style="fill:none;stroke:#000000;stroke-width:15;stroke-linecap:round;stroke-linejoin:round;stroke-miterlimit:10;stroke-dasharray:none;stroke-opacity:1"
             id="path8738" /></g><g
           id="g8740"
           transform="translate(384.3359,163.1992)"><path
             d="M 0,0 0.942,-7.134"
             style="fill:none;stroke:#000000;stroke-width:15;stroke-linecap:round;stroke-linejoin:round;stroke-miterlimit:10;stroke-dasharray:none;stroke-opacity:1"
             id="path8742" /></g><g
           id="g8744"
           transform="translate(408.3662,163.1992)"><path
             d="M 0,0 -0.942,-7.134"
             style="fill:none;stroke:#000000;stroke-width:15;stroke-linecap:round;stroke-linejoin:round;stroke-miterlimit:10;stroke-dasharray:none;stroke-opacity:1"
             id="path8746" /></g><g
           id="g8748"
           transform="translate(250.7549,192.0127)"><path
             d="M 0,0 0.941,-7.134"
             style="fill:none;stroke:#000000;stroke-width:15;stroke-linecap:round;stroke-linejoin:round;stroke-miterlimit:10;stroke-dasharray:none;stroke-opacity:1"
             id="path8750" /></g><g
           id="g8752"
           transform="translate(274.7842,192.0127)"><path
             d="M 0,0 -0.941,-7.134"
             style="fill:none;stroke:#000000;stroke-width:15;stroke-linecap:round;stroke-linejoin:round;stroke-miterlimit:10;stroke-dasharray:none;stroke-opacity:1"
             id="path8754" /></g><g
           id="g8756"
           transform="translate(396.3506,200.5947)"><path
             d="m 0,0 c 0,-6.811 -22.816,-12.332 -50.962,-12.332 -28.145,0 -50.962,5.521 -50.962,12.332 0,6.811 22.817,12.331 50.962,12.331 C -22.816,12.331 0,6.811 0,0"
             style="fill:#80d361;fill-opacity:1;fill-rule:nonzero;stroke:none"
             id="path8758" /></g><g
           id="g8760"
           transform="translate(379.2686,240.4072)"><path
             d="m 0,0 c 0,-19.676 -15.951,-35.627 -35.628,-35.627 -19.676,0 -35.627,15.951 -35.627,35.627 0,19.677 15.951,35.628 35.627,35.628 C -15.951,35.628 0,19.677 0,0"
             style="fill:#eff5f6;fill-opacity:1;fill-rule:nonzero;stroke:none"
             id="path8762" /></g><g
           id="g8764"
           transform="translate(379.2695,240.4023)"><path
             d="m 0,0 c 0,-19.665 -15.946,-35.624 -35.623,-35.624 -5.591,0 -10.872,1.292 -15.572,3.577 11.866,5.784 20.051,17.96 20.051,32.047 0,14.087 -8.185,26.275 -20.051,32.06 4.7,2.286 9.981,3.577 15.572,3.577 C -15.946,35.637 0,19.678 0,0"
             style="fill:#cae5e7;fill-opacity:1;fill-rule:nonzero;stroke:none"
             id="path8766" /></g><g
           id="g8768"
           transform="translate(379.2686,240.4072)"><path
             d="m 0,0 c 0,-19.676 -15.951,-35.627 -35.628,-35.627 -19.676,0 -35.627,15.951 -35.627,35.627 0,19.677 15.951,35.628 35.627,35.628 C -15.951,35.628 0,19.677 0,0 Z"
             style="fill:none;stroke:#000000;stroke-width:15;stroke-linecap:round;stroke-linejoin:round;stroke-miterlimit:10;stroke-dasharray:none;stroke-opacity:1"
             id="path8770" /></g><g
           id="g8772"
           transform="translate(139.1768,441.4307)"><path
             d="m 0,0 v -74.7 c 0,-6.866 6.761,-11.69 13.254,-9.456 l 100.347,34.53 c 11.677,4.019 11.677,20.534 0,24.553 L 13.254,9.456 C 6.761,11.69 0,6.867 0,0"
             style="fill:#fe6a30;fill-opacity:1;fill-rule:nonzero;stroke:none"
             id="path8774" /></g><g
           id="g8776"
           transform="translate(252.7725,391.8047)"><path
             d="m 0,0 -100.344,-34.529 c -6.493,-2.235 -13.254,2.589 -13.254,9.455 v 9.379 C -52.853,2.622 -34.976,21.746 -31.249,35.3 L 0,24.55 C 11.685,20.538 11.685,4.024 0,0"
             style="fill:#fe5426;fill-opacity:1;fill-rule:nonzero;stroke:none"
             id="path8778" /></g><g
           id="g8780"
           transform="translate(139.1768,392.5312)"><path
             d="m 0,0 v -25.801 c 0,-6.866 6.761,-11.689 13.254,-9.455 l 100.347,34.529 c 11.677,4.019 11.677,20.535 0,24.553 L 13.254,58.355 C 6.761,60.59 0,55.766 0,48.9 V 32.99"
             style="fill:none;stroke:#000000;stroke-width:15;stroke-linecap:round;stroke-linejoin:round;stroke-miterlimit:10;stroke-dasharray:none;stroke-opacity:1"
             id="path8782" /></g></g></g></g></svg>
