<?xml version="1.0" encoding="UTF-8"?>
<svg xmlns="http://www.w3.org/2000/svg" xmlns:xlink="http://www.w3.org/1999/xlink" version="1.1" id="Capa_1" x="0px" y="0px" viewBox="0 0 512 512" style="enable-background:new 0 0 512 512;" xml:space="preserve" width="512" height="512">
<g>
	<g>
		<g>
			<g>
				<g>
					<rect x="28.668" y="129" style="fill:#9AD4FE;" width="454.665" height="185.654"/>
				</g>
			</g>
		</g>
		<g>
			<path style="fill:#F7F9FA;" d="M494.47,504.5H17.53c-5.539,0-10.03-4.491-10.03-10.03V294.98c0-5.539,4.491-10.03,10.03-10.03&#10;&#9;&#9;&#9;&#9;h476.94c5.539,0,10.03,4.491,10.03,10.03v199.49C504.5,500.009,500.009,504.5,494.47,504.5z"/>
		</g>
		<path style="fill:#E7D9ED;" d="M494.47,284.95h-40c5.539,0,10.03,4.49,10.03,10.03v199.49c0,5.539-4.491,10.03-10.03,10.03h40&#10;&#9;&#9;&#9;c5.539,0,10.03-4.49,10.03-10.03V294.98C504.5,289.441,500.009,284.95,494.47,284.95z"/>
		<g>
			<path style="fill:#7A6D79;" d="M125.607,504.5H17.529c-5.539,0-10.029-4.491-10.029-10.031V368.472h118.107V504.5z"/>
			<g>
				<path style="fill:#7A6D79;" d="M494.47,504.5H386.393V368.472H504.5V494.47C504.5,500.009,500.009,504.5,494.47,504.5z"/>
				<path style="fill:#685E68;" d="M464.5,368.472V494.47c0,5.539-4.491,10.03-10.03,10.03h40c5.539,0,10.03-4.49,10.03-10.03&#10;&#9;&#9;&#9;&#9;&#9;V368.472H464.5z"/>
				<path style="fill:#FFE177;" d="M386.393,504.5h-44.264L256,468.667L169.872,504.5h-44.264V355.029&#10;&#9;&#9;&#9;&#9;&#9;c0-16.618,13.472-30.09,30.09-30.09h200.606c16.618,0,30.09,13.472,30.09,30.09V504.5z"/>
				<path style="fill:#9AD4FE;" d="M342.128,504.5H169.872V373.487c0-2.77,2.245-5.015,5.015-5.015h162.227&#10;&#9;&#9;&#9;&#9;&#9;c2.77,0,5.015,2.245,5.015,5.015V504.5z"/>
			</g>
		</g>
		<g>
			<g>
				<path style="fill:#FE9738;" d="M494.47,154.132H17.53c-5.54,0-10.03-4.491-10.03-10.03V17.53c0-5.54,4.491-10.03,10.03-10.03&#10;&#9;&#9;&#9;&#9;&#9;H494.47c5.54,0,10.03,4.491,10.03,10.03v126.572C504.5,149.642,500.009,154.132,494.47,154.132z"/>
			</g>
			<path style="fill:#FE860A;" d="M494.47,7.5h-40c5.54,0,10.03,4.491,10.03,10.03v126.572c0,5.54-4.491,10.03-10.03,10.03h40&#10;&#9;&#9;&#9;&#9;c5.54,0,10.03-4.491,10.03-10.03V17.53C504.5,11.991,500.009,7.5,494.47,7.5z"/>
		</g>
	</g>
	<g>
		<g>
			<g>
				<g>
					
						<line style="fill:none;stroke:#000000;stroke-width:15;stroke-linecap:round;stroke-linejoin:round;stroke-miterlimit:10;" x1="28.668" y1="284.95" x2="28.668" y2="154.132"/>
					
						<line style="fill:none;stroke:#000000;stroke-width:15;stroke-linecap:round;stroke-linejoin:round;stroke-miterlimit:10;" x1="483.332" y1="154.132" x2="483.332" y2="284.95"/>
				</g>
			</g>
			<g>
				
					<line style="fill:none;stroke:#000000;stroke-width:15;stroke-linecap:round;stroke-linejoin:round;stroke-miterlimit:10;" x1="57.1" y1="212" x2="87.474" y2="181.626"/>
				
					<line style="fill:none;stroke:#000000;stroke-width:15;stroke-linecap:round;stroke-linejoin:round;stroke-miterlimit:10;" x1="57.1" y1="254.766" x2="130.24" y2="181.626"/>
			</g>
			<g>
				
					<line style="fill:none;stroke:#000000;stroke-width:15;stroke-linecap:round;stroke-linejoin:round;stroke-miterlimit:10;" x1="453.587" y1="228.393" x2="423.213" y2="258.766"/>
				
					<line style="fill:none;stroke:#000000;stroke-width:15;stroke-linecap:round;stroke-linejoin:round;stroke-miterlimit:10;" x1="453.587" y1="185.626" x2="380.447" y2="258.766"/>
			</g>
		</g>
		<g>
			<path style="fill:none;stroke:#000000;stroke-width:15;stroke-linecap:round;stroke-linejoin:round;stroke-miterlimit:10;" d="&#10;&#9;&#9;&#9;&#9;M457.288,504.5h37.182c5.539,0,10.03-4.49,10.03-10.03V294.98c0-5.539-4.491-10.03-10.03-10.03H17.53&#10;&#9;&#9;&#9;&#9;c-5.539,0-10.03,4.49-10.03,10.03v199.49c0,5.539,4.491,10.03,10.03,10.03h409.811"/>
		</g>
		<g>
			
				<line style="fill:none;stroke:#000000;stroke-width:15;stroke-linecap:round;stroke-linejoin:round;stroke-miterlimit:10;" x1="7.5" y1="368.472" x2="125.607" y2="368.472"/>
			<g>
				
					<line style="fill:none;stroke:#000000;stroke-width:15;stroke-linecap:round;stroke-linejoin:round;stroke-miterlimit:10;" x1="504.5" y1="368.472" x2="386.393" y2="368.472"/>
				<path style="fill:none;stroke:#000000;stroke-width:15;stroke-linecap:round;stroke-linejoin:round;stroke-miterlimit:10;" d="&#10;&#9;&#9;&#9;&#9;&#9;M386.393,504.5H125.607V355.029c0-16.618,13.472-30.09,30.09-30.09h200.606c16.618,0,30.09,13.472,30.09,30.09V504.5z"/>
				<path style="fill:none;stroke:#000000;stroke-width:15;stroke-linecap:round;stroke-linejoin:round;stroke-miterlimit:10;" d="&#10;&#9;&#9;&#9;&#9;&#9;M342.128,504.5H169.872V373.487c0-2.77,2.245-5.015,5.015-5.015h162.227c2.77,0,5.015,2.245,5.015,5.015V504.5z"/>
				
					<line style="fill:none;stroke:#000000;stroke-width:15;stroke-linecap:round;stroke-linejoin:round;stroke-miterlimit:10;" x1="256" y1="368.472" x2="256" y2="504.5"/>
			</g>
		</g>
		<g>
			<g>
				<path style="fill:none;stroke:#000000;stroke-width:15;stroke-linecap:round;stroke-linejoin:round;stroke-miterlimit:10;" d="&#10;&#9;&#9;&#9;&#9;&#9;M50.669,7.5H17.53c-5.54,0-10.03,4.491-10.03,10.03v126.572c0,5.54,4.491,10.03,10.03,10.03H494.47&#10;&#9;&#9;&#9;&#9;&#9;c5.54,0,10.03-4.491,10.03-10.03V17.53c0-5.54-4.491-10.03-10.03-10.03H80.652"/>
			</g>
			<g>
				<g>
					<path style="fill:none;stroke:#000000;stroke-width:15;stroke-linecap:round;stroke-linejoin:round;stroke-miterlimit:10;" d="&#10;&#9;&#9;&#9;&#9;&#9;&#9;M290.513,114.646l11.888-67.222c0.297-1.574,2.492-1.732,3.008-0.216l19.971,66.748c0.483,1.421,2.502,1.401,2.96-0.029&#10;&#9;&#9;&#9;&#9;&#9;&#9;l18.818-66.906c0.489-1.525,2.685-1.412,3.011,0.155l13.088,67.123"/>
					<path style="fill:none;stroke:#000000;stroke-width:15;stroke-linecap:round;stroke-linejoin:round;stroke-miterlimit:10;" d="&#10;&#9;&#9;&#9;&#9;&#9;&#9;M202.436,52.523c-5.52-3.692-12.167-5.832-19.313-5.798c-19.056,0.091-34.449,15.604-34.381,34.649&#10;&#9;&#9;&#9;&#9;&#9;&#9;s15.572,34.411,34.628,34.321s29.73-15.581,29.662-34.627l-20.644,0.098"/>
					<g>
						
							<polyline style="fill:none;stroke:#000000;stroke-width:15;stroke-linecap:round;stroke-linejoin:round;stroke-miterlimit:10;" points="&#10;&#9;&#9;&#9;&#9;&#9;&#9;&#9;229.636,46.504 251.8,80.138 273.541,46.469 &#9;&#9;&#9;&#9;&#9;&#9;"/>
						
							<line style="fill:none;stroke:#000000;stroke-width:15;stroke-linecap:round;stroke-linejoin:round;stroke-miterlimit:10;" x1="251.84" y1="115.369" x2="251.8" y2="80.138"/>
					</g>
				</g>
			</g>
		</g>
	</g>
</g>















</svg>
