<svg id="Capa_1" enable-background="new 0 0 511.842 511.842" height="512" viewBox="0 0 511.842 511.842" width="512" xmlns="http://www.w3.org/2000/svg"><g><g><path d="m134.492 402.23 87.254 38.25c10.807 4.728 20.632 11.44 28.979 19.788l38.474 38.474c7.675 7.675 20.117 7.682 27.799 0l20.974-20.974c7.675-7.675 7.675-20.124 0-27.799l-116.101-116.102z" fill="#b3dafe"/><path d="m271.505 383.498 15.398-15.398c9.928-9.928 9.928-26.023 0-35.951l-37.905-37.905-33.373 33.373z" fill="#f28cc4"/><g><path d="m286.903 332.149-21.501-21.501c9.928 9.928 9.928 26.024 0 35.951l-15.398 15.398 21.501 21.501 15.398-15.398c9.928-9.927 9.928-26.023 0-35.951z" fill="#ed74b7"/></g><path d="m217.738 377.239 107.185-158.92-77.687-77.687-158.921 107.185c-48.605 32.782-55.248 101.759-13.792 143.215 41.456 41.456 110.433 34.813 143.215-13.793z" fill="#b3dafe"/><path d="m303.422 196.819-107.185 158.92c-29.879 44.301-89.822 53.735-131.593 23.672 2.921 4.059 6.208 7.95 9.879 11.621 41.456 41.456 110.432 34.813 143.215-13.792l107.185-158.92z" fill="#a4c7ff"/><path d="m398.943 188.476-74.021 29.843-77.687-77.687 29.843-74.021c3.749-9.299 15.776-11.751 22.866-4.661l103.66 103.66c7.09 7.09 4.638 19.117-4.661 22.866z" fill="#f28cc4"/><path d="m403.604 165.61-21.501-21.501c7.09 7.09 4.638 19.117-4.661 22.866l-74.021 29.843-56.187-56.187 77.687 77.687 74.021-29.843c9.3-3.748 11.752-15.775 4.662-22.865z" fill="#ed74b7"/><circle cx="143.474" cy="323.097" fill="#91b6ff" r="65.377"/><path d="m189.702 276.869c-3.703-3.703-7.747-6.851-12.02-9.48 15.497 25.192 12.348 58.608-9.48 80.437-21.828 21.828-55.245 24.977-80.436 9.48 2.629 4.273 5.777 8.318 9.48 12.02 25.531 25.531 66.926 25.531 92.457 0s25.53-66.926-.001-92.457z" fill="#7da8ff"/><path d="m269.794 479.336 19.405 19.405c7.675 7.675 20.117 7.682 27.799 0l20.974-20.974c7.675-7.675 7.675-20.124 0-27.799l-19.405-19.405z" fill="#91b6ff"/></g><g><path d="m305.248 56.647c-9.66-10.321-29.58-7.217-35.125 7.16l-28.985 71.891-157.016 105.901c-25.031 16.882-41.046 43.801-43.941 73.854s7.69 59.533 29.039 80.883c24.587 24.573 59.985 34.766 94.321 26.824 20.174 9.938 66.792 25.288 81.878 42.413l38.477 38.472c9.56 9.912 27.822 10.871 38.409-.001l20.97-20.971c9.698-9.47 11.081-27.66 0-38.409l-61.167-61.165 10.096-10.096c12.124-11.612 13.13-33.906.001-46.555l-18.77-18.779 56.42-83.652 71.891-28.986c13.441-4.977 18.125-24.218 7.16-35.126zm-156.584 353.796c-25.577 2.463-50.667-6.545-68.837-24.715-18.17-18.169-27.178-43.26-24.714-68.838 2.463-25.577 16.094-48.487 37.397-62.855l153.794-103.727 68.944 68.944-103.728 153.793c-14.368 21.303-37.279 34.935-62.856 37.398zm76.089 23.168-40.519-17.759c15.857-7.641 29.596-19.406 39.722-34.419l14.046-20.826 69.958 69.957-38.167 38.166-13.765-13.761c-9.036-9.046-19.56-16.232-31.275-21.358zm107.919 21.665c3.687 3.546 5.343 11.817-.003 17.187l-20.974 20.975c-3.71 3.848-11.851 5.109-17.19-.001l-14.105-14.102 38.166-38.165zm-51.074-117.822c3.386 3.386 5.251 7.886 5.251 12.671s-1.865 9.285-5.251 12.672l-10.096 10.096-24.955-24.955 18.345-27.199zm118.472-160.656c-.443 2.172-1.876 3.893-3.932 4.722l-69.42 27.989-70.673-70.673 27.989-69.42c1.282-3.105 6.277-5.903 10.606-2.162l103.66 103.659c1.568 1.568 2.213 3.712 1.77 5.885z"/><path d="m195.005 374.629c28.415-28.415 28.415-74.649 0-103.064-26.857-27.745-75.243-28.537-103.063 0-28.415 28.415-28.415 74.649 0 103.064 22.626 23.175 62.204 28.579 90.565 9.996 4.433-2.813 8.635-6.132 12.498-9.996zm-51.903-30.98c-4.142 0-7.5 3.357-7.5 7.5v29.256c-6.898-.939-13.653-3.125-19.91-6.546v-101.523c6.257-3.421 13.012-5.607 19.91-6.546v48.21c0 4.143 3.358 7.5 7.5 7.5s7.5-3.357 7.5-7.5v-48.299c6.877.846 13.631 2.909 19.9 6.215v102.363c-6.269 3.306-13.023 5.369-19.9 6.215v-29.345c0-4.143-3.358-7.5-7.5-7.5zm42.4 19.213v-79.529c21.073 22.258 21.073 57.27 0 79.529zm-84.81-78.736v77.942c-20.083-22.022-20.083-55.92 0-77.942z"/><path d="m240.727 232.328c1.919 0 3.839-.732 5.303-2.196l22.249-22.249c2.929-2.93 2.929-7.678 0-10.607-2.929-2.928-7.678-2.928-10.606 0l-22.249 22.249c-2.929 2.93-2.929 7.678 0 10.607 1.464 1.463 3.384 2.196 5.303 2.196z"/><path d="m354.971 49.483c1.919 0 3.839-.732 5.303-2.196l34.483-34.483c2.929-2.93 2.929-7.678 0-10.607-2.929-2.928-7.678-2.928-10.606 0l-34.483 34.483c-2.929 2.93-2.929 7.678 0 10.607 1.465 1.463 3.384 2.196 5.303 2.196z"/><path d="m429 31.531 18.297-18.297c2.929-2.93 2.929-7.678 0-10.607-2.929-2.928-7.678-2.928-10.606 0l-18.297 18.297c-2.929 2.93-2.929 7.678 0 10.607 1.464 1.464 3.384 2.196 5.303 2.196s3.839-.732 5.303-2.196z"/><path d="m376.153 63.164c-2.929 2.93-2.929 7.678 0 10.607 1.464 1.464 3.384 2.196 5.303 2.196s3.839-.732 5.303-2.196l16.564-16.564c2.929-2.93 2.929-7.678 0-10.607-2.929-2.928-7.678-2.928-10.606 0z"/><path d="m469.934 77.373c-2.929-2.927-7.678-2.929-10.606 0l-34.483 34.482c-2.929 2.93-2.929 7.678 0 10.607 1.464 1.464 3.384 2.196 5.303 2.196s3.839-.732 5.303-2.196l34.483-34.482c2.929-2.93 2.929-7.678 0-10.607z"/><path d="m219.73 254.051c4.052 0 7.338-3.285 7.338-7.338s-3.285-7.338-7.338-7.338-7.338 3.285-7.338 7.338 3.286 7.338 7.338 7.338z"/></g></g></svg>