<svg height="512" viewBox="0 0 64 64" width="512" xmlns="http://www.w3.org/2000/svg"><g id="heat-eco-ecology-world-hot"><path d="m61 57v4h-4v-4h2z" fill="#ff3051"/><path d="m61 34v4h-6v-8h2a4 4 0 0 1 4 4z" fill="#c0ab91"/><path d="m9 30v8h-6v-4a4 4 0 0 1 4-4z" fill="#c0ab91"/><path d="m61 34v4h-3v-4a3.992 3.992 0 0 0 -3-3.87v-.13h2a4 4 0 0 1 4 4z" fill="#a78966"/><path d="m55 15v38a2 2 0 0 1 -4 0v-38a2.015 2.015 0 0 1 2-2 2.006 2.006 0 0 1 2 2z" fill="#ff3051"/><path d="m45 17h6v34h-6z" fill="#ffde55"/><path d="m41 13h4v42h-4z" fill="#ff3051"/><path d="m35 17h6v34h-6z" fill="#ffde55"/><path d="m35 16v36a3 3 0 0 1 -6 0v-36a3 3 0 0 1 6 0z" fill="#ff3051"/><path d="m23 17h6v34h-6z" fill="#ffde55"/><path d="m19 13h4v42h-4z" fill="#ff3051"/><path d="m13 17h6v34h-6z" fill="#ffde55"/><path d="m13 15v38a2 2 0 0 1 -4 0v-38a2.006 2.006 0 0 1 2-2 2.015 2.015 0 0 1 2 2z" fill="#ff3051"/><path d="m9 30v8h-3v-7.87a3.657 3.657 0 0 1 1-.13z" fill="#a78966"/><path d="m7 57v4h-4v-4h2z" fill="#ff3051"/><g fill="#ebbf00"><path d="m48 17h3v33h-3z"/><path d="m38 17h3v33h-3z"/><path d="m26 18h3v33h-3z"/><path d="m16 17h3v33h-3z"/></g><path d="m30.36 10h2c0-.254.075-.343.362-.642a2.695 2.695 0 0 0 0-4.052c-.287-.3-.362-.388-.362-.642s.059-.325.361-.639a2.722 2.722 0 0 0 .919-2.025h-2c0 .242-.059.325-.361.639a2.693 2.693 0 0 0 0 4.051c.287.3.362.388.362.642s-.075.343-.362.642a2.726 2.726 0 0 0 -.919 2.026z"/><path d="m37.36 10h2c0-.254.075-.343.362-.642a2.695 2.695 0 0 0 0-4.052c-.287-.3-.362-.388-.362-.642s.059-.325.361-.639a2.722 2.722 0 0 0 .919-2.025h-2c0 .242-.059.325-.361.639a2.693 2.693 0 0 0 0 4.051c.287.3.362.388.362.642s-.075.343-.362.642a2.726 2.726 0 0 0 -.919 2.026z"/><path d="m44.36 10h2c0-.254.075-.343.362-.642a2.695 2.695 0 0 0 0-4.052c-.287-.3-.362-.388-.362-.642s.059-.325.361-.639a2.722 2.722 0 0 0 .919-2.025h-2c0 .242-.059.325-.361.639a2.693 2.693 0 0 0 0 4.051c.287.3.362.388.362.642s-.075.343-.362.642a2.726 2.726 0 0 0 -.919 2.026z"/><path d="m50.36 10h2c0-.254.075-.343.362-.642a2.695 2.695 0 0 0 0-4.052c-.287-.3-.362-.388-.362-.642s.059-.325.361-.639a2.722 2.722 0 0 0 .919-2.025h-2c0 .242-.059.325-.361.639a2.693 2.693 0 0 0 0 4.051c.287.3.362.388.362.642s-.075.343-.362.642a2.726 2.726 0 0 0 -.919 2.026z"/><path d="m16.36 10h2c0-.254.075-.343.362-.642a2.695 2.695 0 0 0 0-4.052c-.287-.3-.362-.388-.362-.642s.059-.325.361-.639a2.722 2.722 0 0 0 .919-2.025h-2c0 .242-.059.325-.361.639a2.693 2.693 0 0 0 0 4.051c.287.3.362.388.362.642s-.075.343-.362.642a2.726 2.726 0 0 0 -.919 2.026z"/><path d="m10.36 10h2c0-.254.075-.343.362-.642a2.695 2.695 0 0 0 0-4.052c-.287-.3-.362-.388-.362-.642s.059-.325.361-.639a2.722 2.722 0 0 0 .919-2.025h-2c0 .242-.059.325-.361.639a2.693 2.693 0 0 0 0 4.051c.287.3.362.388.362.642s-.075.343-.362.642a2.726 2.726 0 0 0 -.919 2.026z"/><path d="m23.36 10h2c0-.254.075-.343.362-.642a2.695 2.695 0 0 0 0-4.052c-.287-.3-.362-.388-.362-.642s.059-.325.361-.639a2.722 2.722 0 0 0 .919-2.025h-2c0 .242-.059.325-.361.639a2.693 2.693 0 0 0 0 4.051c.287.3.362.388.362.642s-.075.343-.362.642a2.726 2.726 0 0 0 -.919 2.026z"/><path d="m61 39a1 1 0 0 0 1-1v-4a5 5 0 0 0 -5-5h-1v-14a3 3 0 0 0 -6 0v1h-4v-3a1 1 0 0 0 -1-1h-4a1 1 0 0 0 -1 1v3h-4a4 4 0 0 0 -8 0h-4v-3a1 1 0 0 0 -1-1h-4a1 1 0 0 0 -1 1v3h-4v-1a3 3 0 0 0 -6 0v14h-1a5 5 0 0 0 -5 5v4a1 1 0 0 0 1 1h1v17h-1a1 1 0 0 0 -1 1v4a1 1 0 0 0 1 1h4a1 1 0 0 0 1-1v-4a1 1 0 0 0 -1-1h-1v-17h2v14a3 3 0 0 0 6 0v-1h4v3a1 1 0 0 0 1 1h4a1 1 0 0 0 1-1v-3h4a4 4 0 0 0 8 0h4v3a1 1 0 0 0 1 1h4a1 1 0 0 0 1-1v-3h4v1a3 3 0 0 0 6 0v-14h2v17h-1a1 1 0 0 0 -1 1v4a1 1 0 0 0 1 1h4a1 1 0 0 0 1-1v-4a1 1 0 0 0 -1-1h-1v-17zm-55 21h-2v-2h2zm2-23h-4v-3a3.009 3.009 0 0 1 3-3h1zm4 16a1 1 0 0 1 -2 0v-38a1 1 0 0 1 2 0zm6-3h-4v-32h4zm4 4h-2v-40h2zm6-4h-4v-32h4zm6 2a2 2 0 0 1 -4 0v-36a2 2 0 0 1 4 0zm6-2h-4v-32h4zm4 4h-2v-40h2zm6-4h-4v-32h4zm4 3a1 1 0 0 1 -2 0v-38a1 1 0 0 1 2 0zm6 7h-2v-2h2zm-4-23v-6h1a3.009 3.009 0 0 1 3 3v3z"/></g></svg>