<svg height="512pt" viewBox="0 -45 512 512" width="512pt" xmlns="http://www.w3.org/2000/svg"><path d="m462 412h-412c-22 0-40-18-40-40v-250.042969c0-5.5 4.5-10 10-10h472c5.5 0 10 4.5 10 10v250.042969c0 22-18 40-40 40zm0 0" fill="#c8e0ff"/><path d="m502 161.964844h-492v-40.007813c0-5.5 4.5-10 10-10h472c5.5 0 10 4.5 10 10zm0 0" fill="#ff697f"/><path d="m492 101.960938h-20.371094c0-31.828126 9.097656-101.96484425-40-101.960938-49.085937.00390625-40 70.128906-40 101.960938h-20c0-31.828126 9.097656-101.96484425-40-101.960938-49.085937.00390625-40 70.128906-40 101.960938h-271.628906c-11.03125 0-20 8.96875-20 20v250.039062c0 27.570312 22.429688 50 50 50h412c27.570312 0 50-22.429688 50-50v-250.039062c0-11.03125-8.96875-20-20-20zm-80.371094-51.949219c0-12.421875 8.03125-34.375 24.308594-29.199219 12.417969 3.953125 15.304688 19.773438 15.691406 30.859375.585938 16.722656 0 33.554687 0 50.289063h-40zm0 71.949219h80.371094v30h-80.371094zm0 50h80.371094v71.097656c-15.0625 2.234375-24.632812 12.773437-38.421875 17.375-15.824219 5.28125-28.8125-.492188-41.949219-8.753906zm-100-121.949219c0-12.421875 8.03125-34.375 24.308594-29.199219 12.417969 3.953125 15.304688 19.773438 15.691406 30.859375.585938 16.722656 0 33.554687 0 50.289063h-40zm0 71.949219h80v30h-80zm0 50h80v71.550781c-15.410156-3.019531-30.777344-.265625-44.265625 7.558593-12.007812 6.964844-21.089843 12.699219-35.734375 10.96875zm-291.628906-50h271.628906v30h-271.628906zm0 91.410156c11.457031 2.644531 20.085938 11.792968 31.109375 15.710937 12.773437 4.539063 28.003906 4.523438 40.777344 0 9.160156-3.246093 16.28125-9.921875 25.109375-13.679687 8.273437-3.523438 28.0625-.375 25.746094-14.632813-4.011719-24.730469-46.300782 5.21875-56.644532 9.144531-26.414062 10.027344-41.980468-13.277343-66.097656-16.855468v-21.097656h271.628906v81.640624c-21.808594-14.152343-47.359375-14.671874-69.613281-1.066406-10.949219 6.691406-20.421875 11.273438-33.78125 9.414063-11.25-1.5625-18.921875-8.976563-28.800781-13.753907-12.160156-5.886718-26.480469-7.335937-39.6875-4.5625-11.417969 2.394532-19.449219 9.214844-29.523438 14.339844-28 14.242188-44.480468-11.097656-70.222656-14.914062zm0 50c17.1875 3.96875 27.949219 17.519531 46.703125 18.835937 18.933594 1.324219 30.554687-6.359375 46.242187-14.757812 15.410157-8.246094 31.042969-5.527344 45.34375 3.292969 15.28125 9.425781 31.320313 14.144531 49.464844 10.335937 14.859375-3.117187 25.386719-15.273437 40.058594-18.074219 18.101562-3.457031 28.300781 6.238282 43.242188 13.515625 16.269531 7.917969 36.605468 7.917969 52.871093 0 14.890625-7.253906 25.160157-16.96875 43.238281-13.515625 17.765626 3.390625 29.402344 17.925782 48.535157 19.203125 10.191406.679688 20.460937-.78125 29.78125-5.019531 9.09375-4.132812 16.609375-11.527344 26.515625-13.816406v29.699218c-16.480469 2.429688-27.480469 15.617188-43.324219 18.640626-18.695313 3.566406-29.144531-7.089844-44.695313-14.179688-16.472656-7.511719-36.714843-6.925781-52.765624 1.378906-15.226563 7.875-26.789063 17.289063-45.28125 12.03125-14.761719-4.195312-24.789063-15.773437-40.734376-17.988281-18.703124-2.597656-32.582031 3.554687-48.050781 12.730469-15.300781 9.074218-31.617187 8.34375-46.625-.851563-15.371093-9.417969-30.296875-14.738281-48.753906-11.535156-17.695313 3.070313-29.980469 18.144531-48.089844 18.980469-20.769531.957031-33.796875-16.261719-53.675781-19.207032zm0 50.007812c17.191406 3.96875 27.949219 17.515625 46.703125 18.828125 18.9375 1.324219 30.546875-6.359375 46.242187-14.75 15.402344-8.238281 31.046876-5.535156 45.34375 3.28125 15.285157 9.425781 31.3125 14.144531 49.464844 10.339844 14.859375-3.113281 25.382813-15.265625 40.058594-18.066406 18.101562-3.457031 28.300781 6.234375 43.242188 13.507812 16.261718 7.917969 36.609374 7.917969 52.871093 0 14.890625-7.25 25.160157-16.957031 43.238281-13.507812 17.769532 3.390625 29.402344 17.917969 48.535157 19.195312 10.191406.679688 20.460937-.777343 29.78125-5.015625 9.09375-4.132812 16.609375-11.523437 26.515625-13.8125v29.699219c-16.480469 2.433594-27.480469 15.617187-43.324219 18.640625-18.695313 3.570312-29.144531-7.089844-44.695313-14.179688-16.472656-7.511718-36.714843-6.925781-52.765624 1.378907-15.226563 7.878906-26.789063 17.289062-45.28125 12.035156-14.761719-4.195313-24.789063-15.777344-40.734376-17.992187-18.703124-2.597657-32.582031 3.554687-48.050781 12.730468-15.300781 9.078125-31.617187 8.34375-46.625-.851562-15.371093-9.417969-30.296875-14.738282-48.753906-11.535156-17.695313 3.074218-29.980469 18.144531-48.089844 18.980468-20.769531.960938-33.796875-16.257812-53.675781-19.207031zm472 58.621094c0 16.539062-13.460938 30-30 30h-412c-16.539062 0-30-13.460938-30-30v-8.609375c17.191406 3.96875 27.949219 17.511719 46.703125 18.824219 18.9375 1.324218 30.546875-6.355469 46.242187-14.75 15.402344-8.234375 31.046876-5.53125 45.34375 3.285156 15.285157 9.425781 31.3125 14.144531 49.464844 10.339844 14.859375-3.117188 25.382813-15.265625 40.058594-18.070313 18.101562-3.453125 28.300781 6.238281 43.242188 13.511719 16.261718 7.914062 36.609374 7.917969 52.871093 0 14.890625-7.253906 25.160157-16.960938 43.238281-13.511719 17.769532 3.390625 29.402344 17.917969 48.535157 19.195313 10.191406.679687 20.460937-.777344 29.78125-5.015625 9.09375-4.128907 16.609375-11.519531 26.515625-13.808594v8.609375zm0 0"/><path d="m168.019531 225.347656c-12.839843 0-12.871093-20-.007812-20h.007812c12.839844 0 12.859375 20 0 20zm0 0"/></svg>