<svg id="Capa_1" enable-background="new 0 0 512 512" height="512" viewBox="0 0 512 512" width="512" xmlns="http://www.w3.org/2000/svg"><path d="m399.443 504.5h40.406l-24.244-163.646h-232.337l-24.244 163.646h40.407l8.397-56.569h183.218zm-187.267-85.864 6.448-43.437h161.626l6.448 43.437z" fill="#daeaef"/><path d="m183.268 340.854-2.544 17.172h237.426l-2.544-17.172z" fill="#a8d0d5"/><path d="m394.537 249.939h-191.135c-11.519 0-20.706-9.616-20.182-21.122l9.2-202.033c.491-10.789 9.381-19.284 20.182-19.284h173.457c10.828 0 19.731 8.537 20.185 19.356l8.478 202.033c.482 11.48-8.695 21.05-20.185 21.05z" fill="#da8659"/><path d="m406.244 26.856c-.454-10.819-9.357-19.356-20.185-19.356h-35.501c10.828 0 19.732 8.537 20.185 19.356l8.478 202.033c.482 11.48-8.695 21.05-20.185 21.05h35.501c11.49 0 20.667-9.57 20.185-21.05z" fill="#c56e37"/><path d="m415.86 340.854h-232.846c-13.807 0-25-11.193-25-25v-.508c0-13.807 11.193-25 25-25h232.846c13.807 0 25 11.193 25 25v.508c0 13.807-11.193 25-25 25z" fill="#da8659"/><path d="m415.606 323.681h-232.338c-10.932 0-20.24-6.948-23.754-16.668-.969 2.681-1.5 5.571-1.5 8.586 0 13.947 11.307 25.254 25.254 25.254h232.337c13.947 0 25.254-11.307 25.254-25.254 0-3.015-.53-5.906-1.5-8.586-3.513 9.72-12.821 16.668-23.753 16.668z" fill="#c56e37"/><path d="m314.793 200.441h-223.653c-11.046 0-20-8.954-20-20v-.407c0-11.046 8.954-20 20-20h223.652c11.046 0 20 8.954 20 20v.407c.001 11.046-8.954 20-19.999 20z" fill="#fad59a"/><path d="m314.589 183.268h-223.246c-8.083 0-15.038-4.759-18.268-11.617-1.229 2.609-1.936 5.512-1.936 8.586 0 11.158 9.045 20.203 20.203 20.203h223.246c11.158 0 20.203-9.045 20.203-20.203 0-3.075-.707-5.978-1.936-8.586-3.228 6.859-10.182 11.617-18.266 11.617z" fill="#fbbe66"/><path d="m387.668 374.098c-.545-3.677-3.702-6.399-7.418-6.399h-161.626c-3.717 0-6.873 2.722-7.418 6.399l-6.448 43.437c-.32 2.158.315 4.348 1.74 6s3.498 2.602 5.679 2.602h174.521c2.181 0 4.254-.95 5.679-2.602s2.06-3.842 1.74-6zm-166.796 37.038 4.221-28.437h148.688l4.221 28.437z"/><path d="m424.131 347.221c13.939-3.762 24.229-16.51 24.229-31.622 0-18.061-14.693-32.754-32.754-32.754h-23.815v-25.407h2.743c7.62 0 14.72-3.027 19.994-8.523 5.275-5.498 8.008-12.721 7.693-20.344l-4.253-101.25c-.173-4.138-3.638-7.348-7.808-7.179-4.138.174-7.352 3.67-7.178 7.809l4.252 101.244c.145 3.497-1.109 6.812-3.529 9.334-2.418 2.52-5.675 3.908-9.17 3.908h-191.134c-3.503 0-6.765-1.396-9.186-3.93-2.42-2.533-3.665-5.854-3.505-9.352l.967-21.217h122.913c15.275 0 27.703-12.428 27.703-27.703s-12.428-27.703-27.703-27.703h-120.391l5.714-125.407c.312-6.798 5.886-12.125 12.691-12.125h173.455c6.829 0 12.403 5.345 12.689 12.169l2.742 65.285c.173 4.139 3.647 7.37 7.808 7.179 4.138-.173 7.352-3.669 7.178-7.808l-2.742-65.285c-.624-14.882-12.781-26.54-27.675-26.54h-173.455c-14.838 0-26.995 11.614-27.675 26.443l-5.745 126.092h-20.487c-4.142 0-7.5 3.358-7.5 7.5s3.358 7.5 7.5 7.5h155.893c7.004 0 12.703 5.699 12.703 12.703s-5.699 12.703-12.703 12.703h-223.247c-7.004 0-12.703-5.699-12.703-12.703s5.699-12.703 12.703-12.703h32.325c4.142 0 7.5-3.358 7.5-7.5s-3.358-7.5-7.5-7.5h-32.325c-15.275 0-27.703 12.428-27.703 27.703s12.428 27.703 27.703 27.703h18.765v77.354c0 20.846 16.959 37.805 37.805 37.805h3.478c2.753 11.703 11.794 21.002 23.352 24.122l-23.137 156.18c-.32 2.157.315 4.347 1.74 5.999s3.498 2.601 5.679 2.601h40.406c3.717 0 6.873-2.722 7.419-6.399l7.447-50.17h170.281l7.447 50.17c.546 3.677 3.702 6.399 7.419 6.399h40.407c2.181 0 4.254-.949 5.679-2.601s2.06-3.841 1.74-5.999zm-47.34-64.375h-154.708v-25.407h154.707v25.407zm-251.683 2.449v-77.354h51.553l-.936 20.533c-.348 7.629 2.366 14.874 7.644 20.397 5.278 5.525 12.393 8.568 20.032 8.568h3.683v25.407h-23.815c-15.48 0-28.476 10.797-31.877 25.254h-3.478c-12.576 0-22.806-10.23-22.806-22.805zm280.804 211.705-7.447-50.17c-.545-3.677-3.702-6.399-7.418-6.399h-183.219c-3.717 0-6.873 2.722-7.419 6.399l-7.447 50.17h-25.245l22.021-148.646h120.954c4.142 0 7.5-3.358 7.5-7.5s-3.358-7.5-7.5-7.5h-127.424c-9.79 0-17.754-7.964-17.754-17.754s7.964-17.754 17.754-17.754h232.338c9.79 0 17.754 7.964 17.754 17.754s-7.964 17.754-17.754 17.754h-69.785c-4.142 0-7.5 3.358-7.5 7.5s3.358 7.5 7.5 7.5h63.314l22.022 148.646z"/></svg>