<svg id="a" height="512" viewBox="0 0 512 512" width="512" xmlns="http://www.w3.org/2000/svg"><g><path d="m454.04 402.6 25.83 39.55-82.44 53.85-25.83-39.55-.25-.43c.1-.05.2-.11.29-.17l80.47-52.57c.35-.22.67-.47.98-.73z" fill="#6994fe"/><path d="m408.01 123.35-179.13-107.35c-34.8 55.42-52.75 122.1-47.26 192.35 5.1 65.19 29.65 124.21 67.52 171.8l158.2-138.07c-4.42-13.82-7.32-28.36-8.5-43.45-2.06-26.29 1.31-51.75 9.17-75.28z" fill="#aecde2"/><g fill="#edacd8"><path d="m167.17 126.27-21.7 9.28c-10.03 4.29-18.02 12.28-22.3 22.3l-9.29 21.71-9.28-21.71c-4.28-10.02-12.27-18.01-22.3-22.3l-21.71-9.28 21.71-9.28c10.03-4.29 18.02-12.28 22.3-22.3l9.28-21.71 9.29 21.71c4.28 10.02 12.27 18.01 22.3 22.3z"/><circle cx="151.57" cy="42.43" r="8"/><path d="m76.73 72.98-9.09 3.88c-4.19 1.8-7.53 5.14-9.33 9.33l-3.88 9.09-3.88-9.09c-1.8-4.19-5.14-7.53-9.34-9.33l-9.08-3.88 9.08-3.88c4.2-1.8 7.54-5.14 9.34-9.34l3.88-9.08 3.88 9.08c1.8 4.2 5.14 7.54 9.33 9.34z"/></g></g><path d="m415.43 356.51c-7.79-11.92-12.09-25.78-12.42-40.02-.17-7.11-2.04-13.67-4.85-19.94-2.8-6.26-6.54-12.24-10.43-18.2l-45.73-70.01c-3.25-4.97-9.9-6.36-14.87-3.12-4.01 2.62-6.19 6.99-6.19 11.45 0 2.56.72 5.15 2.22 7.45l-9.39-14.37c-2.49-3.82-6.65-5.89-10.89-5.89-2.43 0-4.89.68-7.08 2.11-6.01 3.93-7.7 11.97-3.77 17.98l-10.04-15.36c-2.57-3.94-6.86-6.08-11.24-6.08-2.51 0-5.06.71-7.32 2.19-6.2 4.05-7.95 12.36-3.9 18.56l9.95 15.23-.05.03c-3.88-5.93-11.83-7.6-17.76-3.72-3.77 2.46-5.81 6.56-5.81 10.75 0 2.41.67 4.84 2.09 7.01l53.16 81.38c2.19 3.36 1.25 7.85-2.11 10.04l-16.27-24.44c-4.74-7.26-12.65-11.2-20.71-11.2-4.64 0-9.32 1.3-13.49 4.02l-2.311 1.51 44.46 68.06c5.92 9.07 13.09 10.65 19.57 10.08 11.06-.97 22.09 2.08 30.75 9.02l.15.12 9.2 12.72 71.88-46.95-6.8-10.41z" fill="#ffc9c0"/><path d="m211.62 208.35c-5.059-64.735 9.799-126.432 39.392-179.086l-22.132-13.263c-34.8 55.42-52.75 122.1-47.26 192.35 5.1 65.19 29.65 124.21 67.52 171.8l18.181-15.868c-31.131-44.588-51.154-97.803-55.701-155.932z" fill="#8db4c9"/><path d="m415.43 356.51c-7.79-11.92-12.09-25.78-12.42-40.02-.17-7.11-2.04-13.67-4.85-19.94-2.8-6.26-6.54-12.24-10.43-18.2l-45.73-70.01c-3.25-4.97-9.9-6.36-14.87-3.12-1.272.831-2.337 1.853-3.23 2.983.032.047.069.089.1.137l45.73 70.01c3.89 5.96 7.63 11.94 10.43 18.2 2.81 6.27 4.68 12.83 4.85 19.94.33 14.24 4.63 28.1 12.42 40.02l11.074 19.375 13.726-8.965z" fill="#eab3ac"/><path d="m454.04 402.6-.95-.05c-.31.26-.63.51-.98.73l-12.686 8.288.616.032 26.864 39.02 12.966-8.47z" fill="#4c7bd8"/><path d="m454.85 390.24-15.29-23.39c-2.84-4.36-8.68-5.58-13.03-2.74l-80.48 52.57c-4.35 2.84-5.58 8.68-2.73 13.04l15.28 23.39c2.79 4.27 8.43 5.53 12.75 2.91.1-.05.2-.11.29-.17l80.47-52.57c.35-.22.67-.47.98-.73 3.55-3.03 4.37-8.3 1.76-12.31z" fill="#80aaff"/><path d="m454.85 390.24-15.29-23.39c-2.84-4.36-8.68-5.58-13.03-2.74l-12.731 8.316c4.158-1.887 9.188-.526 11.761 3.424l15.29 23.39c2.61 4.01 1.79 9.28-1.76 12.31-.086.072-.173.225-.262.407l13.282-8.677c.35-.22.67-.47.98-.73 3.55-3.03 4.37-8.3 1.76-12.31z" fill="#6492dd"/><g fill="#284268"><path d="m80.337 140.148c8.884 3.799 15.869 10.784 19.668 19.668l9.281 21.709c.787 1.841 2.596 3.035 4.598 3.035s3.811-1.194 4.598-3.035l9.281-21.709c3.799-8.885 10.784-15.87 19.668-19.668l21.71-9.282c1.841-.787 3.034-2.596 3.034-4.598s-1.194-3.811-3.034-4.598l-21.71-9.281c-8.884-3.799-15.869-10.784-19.668-19.668l-9.281-21.709c-.787-1.841-2.596-3.035-4.598-3.035s-3.811 1.194-4.598 3.035l-9.281 21.709c-3.799 8.885-10.784 15.87-19.668 19.668l-21.71 9.281c-1.84.787-3.034 2.596-3.034 4.598s1.193 3.811 3.034 4.598l21.71 9.281zm3.932-18.563c11.262-4.815 20.115-13.669 24.932-24.932l4.684-10.956 4.684 10.956c4.816 11.262 13.67 20.116 24.932 24.932l10.956 4.684-10.956 4.685c-11.262 4.815-20.115 13.669-24.932 24.932l-4.684 10.956-4.684-10.956c-4.816-11.262-13.67-20.116-24.932-24.932l-10.956-4.684 10.956-4.684z"/><path d="m59.026 97.245 3.885-9.085c1.293-3.025 3.672-5.405 6.699-6.699l9.085-3.884c1.84-.787 3.034-2.596 3.034-4.598s-1.194-3.811-3.034-4.598l-9.085-3.883c-3.027-1.294-5.406-3.674-6.699-6.7l-3.885-9.084c-.787-1.84-2.597-3.034-4.598-3.034s-3.811 1.194-4.598 3.035l-3.884 9.085c-1.293 3.025-3.672 5.405-6.699 6.699l-9.085 3.884c-1.84.787-3.034 2.596-3.034 4.598s1.194 3.811 3.034 4.598l9.085 3.883c3.027 1.294 5.406 3.674 6.699 6.7l3.884 9.084c.787 1.841 2.596 3.035 4.598 3.035s3.811-1.194 4.598-3.034zm-14.332-24.266c4.189-2.164 7.572-5.547 9.735-9.735 2.162 4.188 5.545 7.572 9.734 9.735-4.189 2.164-7.572 5.547-9.735 9.735-2.162-4.188-5.545-7.572-9.734-9.735z"/><path d="m151.565 55.429c7.168 0 13-5.832 13-13s-5.832-13-13-13-13 5.832-13 13 5.832 13 13 13zm0-16c1.654 0 3 1.346 3 3s-1.346 3-3 3-3-1.346-3-3 1.346-3 3-3z"/><path d="m238.59 117.726c-2.664-.736-5.415.83-6.148 3.492-3.249 11.792-5.843 23.904-7.709 35.999-1.558 10.088-2.642 20.386-3.224 30.607-.156 2.757 1.951 5.119 4.708 5.275.097.006.193.008.289.008 2.631 0 4.836-2.056 4.987-4.716.562-9.901 1.613-19.876 3.122-29.649 1.808-11.715 4.32-23.446 7.467-34.868.733-2.662-.83-5.415-3.492-6.148z"/><path d="m484.058 439.413-24.355-37.285c2.359-4.484 2.293-10.083-.669-14.618l-15.283-23.396c-4.348-6.656-13.302-8.534-19.958-4.186l-.111.072-4.067-6.226c-7.284-11.151-11.298-24.083-11.608-37.396-.36-15.447-7.817-28.097-16.091-40.764l-5.59-8.558 24.301-21.208c1.502-1.312 2.082-3.39 1.475-5.29-4.365-13.654-7.151-27.892-8.279-42.319-1.956-25.033 1.048-49.698 8.93-73.311.742-2.225-.161-4.667-2.173-5.872l-179.125-107.345c-2.336-1.4-5.358-.675-6.805 1.629-36.82 58.618-53.423 126.186-48.013 195.4 5.008 64.079 28.726 124.427 68.589 174.52 1.681 2.203 5.146 2.521 7.2.654l21.387-18.665 12.685 19.418c5.923 9.068 14.061 13.213 24.188 12.322 10.041-.887 19.696 1.938 27.175 7.933 1.92 1.293 4.242 5.628 5.57 7.496l-.111.073c-3.225 2.106-5.437 5.343-6.227 9.112-.791 3.77-.066 7.622 2.04 10.846l15.282 23.396c2.106 3.225 5.343 5.436 9.112 6.227.995.209 1.995.312 2.989.312.942 0 1.876-.1 2.793-.284l23.929 36.634c1.427 2.277 4.694 2.966 6.921 1.452l82.444-53.853c2.278-1.424 2.965-4.701 1.452-6.92zm-234.231-66.502c-36.672-47.7-58.503-104.615-63.22-164.95-5.113-65.423 10.071-129.325 43.94-185.136l171.483 102.767c-7.384 23.722-10.134 48.401-8.178 73.427 1.102 14.09 3.705 28.013 7.745 41.435l-20.795 18.148-34.616-52.995c-4.747-7.268-14.523-9.319-21.793-4.571-2.616 1.708-4.651 3.971-6.074 6.529l-.361-.554c-5.424-8.304-16.594-10.646-24.896-5.222-2.403 1.57-4.29 3.63-5.65 5.954l-1.232-1.886c-5.553-8.501-16.985-10.898-25.485-5.346-4.118 2.69-6.941 6.822-7.951 11.636-1.011 4.813-.085 9.732 2.604 13.85l1.209 1.851c-2.687.321-5.288 1.242-7.62 2.765-3.987 2.604-6.722 6.606-7.7 11.267s-.082 9.424 2.522 13.411l34.536 52.872c-3.052-1.992-6.48-3.417-10.153-4.188-7.765-1.629-15.702-.137-22.346 4.203l-2.306 1.505c-1.11.725-1.888 1.861-2.16 3.16-.272 1.298-.018 2.651.707 3.761l26.254 40.192-18.465 16.115zm94.463 24.35-.157-.127c-9.515-7.628-21.705-11.216-34.322-10.105-4.33.38-9.934-.166-14.939-7.83l-41.657-63.772c3.968-1.998 8.462-2.59 12.875-1.666 5.152 1.081 9.575 4.104 12.479 8.547l16.271 24.447c1.52 2.285 4.597 2.916 6.896 1.416 2.741-1.791 4.62-4.541 5.293-7.745.671-3.204.056-6.478-1.734-9.218l-53.161-81.386c-5.694-8.414 7.696-17.156 13.11-8.564l.052-.034 38.427 58.829c.96 1.468 2.56 2.266 4.191 2.266.938 0 1.886-.263 2.729-.814 2.312-1.51 2.962-4.608 1.452-6.92l-48.375-74.057c-1.229-1.881-1.651-4.129-1.19-6.328.462-2.2 1.752-4.088 3.634-5.317 3.882-2.536 9.108-1.441 11.645 2.443l48.374 74.056c.96 1.468 2.56 2.266 4.191 2.266.938 0 1.886-.263 2.729-.814 2.312-1.51 2.962-4.608 1.452-6.92l-38.346-58.704c-2.402-3.687-1.361-8.641 2.323-11.048 3.689-2.409 8.648-1.367 11.055 2.319l38.341 58.698c1.512 2.312 4.608 2.963 6.921 1.452 2.312-1.51 2.962-4.608 1.452-6.92l-28.95-44.32c-2.61-3.997-1.483-9.371 2.513-11.981 2.65-1.733 6.221-.984 7.951 1.667l45.729 70.007c7.453 11.41 14.167 22.712 14.466 35.529.354 15.177 4.931 29.918 13.233 42.631l4.068 6.226-63.505 41.481c-2.03-3.043-4.534-7.518-7.515-9.689zm24.616 54.399c-.987.645-2.169.867-3.324.625-1.155-.243-2.146-.92-2.792-1.909l-15.283-23.396c-.646-.988-.867-2.169-.625-3.324s.92-2.147 1.908-2.793l80.472-52.564c.744-.486 1.581-.718 2.41-.718 1.443 0 2.86.705 3.707 2.001l15.282 23.396c1.333 2.04.757 4.784-1.283 6.117l-80.472 52.564zm29.974 37.42-20.628-31.58 74.071-48.383 20.628 31.58-74.071 48.384z"/></g></svg>