<svg id="Capa_1" enable-background="new 0 0 512 512" height="512" viewBox="0 0 512 512" width="512" xmlns="http://www.w3.org/2000/svg"><g><g><path d="m447.071 123.013c0-2.066-1.731-6.383-5.174-9.826-1.791-.756-3.76-1.174-5.826-1.174-8.284 0-15 6.716-15 15 0 2.066.418 4.035 1.174 5.826 3.473 3.473 7.76 5.174 9.826 5.174 8.284 0 15-6.715 15-15z" fill="#b2e5fb"/><path d="m441.897 113.187c.756 1.791 1.174 3.76 1.174 5.826 0 8.284-6.716 15-15 15-2.066 0-4.035-.418-5.826-1.174 2.274 5.39 7.608 9.174 13.826 9.174 8.284 0 15-6.716 15-15 0-6.218-3.784-11.551-9.174-13.826z" fill="#91dafa"/><path d="m87.071 154.013c0-2.066-1.731-6.383-5.174-9.826-1.791-.756-3.76-1.174-5.826-1.174-8.284 0-15 6.716-15 15 0 2.066.418 4.035 1.174 5.826 3.473 3.473 7.76 5.174 9.826 5.174 8.284 0 15-6.715 15-15z" fill="#b2e5fb"/><path d="m81.897 144.187c.756 1.791 1.174 3.76 1.174 5.826 0 8.284-6.716 15-15 15-2.066 0-4.035-.418-5.826-1.174 2.274 5.39 7.608 9.174 13.826 9.174 8.284 0 15-6.716 15-15 0-6.218-3.784-11.551-9.174-13.826z" fill="#91dafa"/><path d="m429.706 170.838c-6.077-3.06-12.937-4.794-20.206-4.794-8.461 0-16.374 2.339-23.135 6.4-7.38-14.771-22.636-24.92-40.27-24.92-21.096 0-38.795 14.52-43.665 34.109-1.917-.385-3.9-.589-5.93-.589-8.884 0-16.862 3.864-22.355 10l170.355 10c0-7.269-1.867-20.429-14.794-30.206z" fill="#b2e5fb"/><path d="m429.706 170.838c1.788 3.55 3.123 7.368 3.924 11.378.916 4.583-2.708 8.828-7.382 8.828h-152.103c-4.752 5.308-7.645 12.315-7.645 20l95 10 93-10c0-17.585-10.092-32.803-24.794-40.206z" fill="#91dafa"/><path d="m484.5 250.239-228.5-9.196-248.5 10v90l10 20-10 20v70l487 10z" fill="#cf9875"/><path d="m484.5 250.239v188.305c0 6.904-5.596 12.5-12.5 12.5h-464.5v20h497v-90l-10-20 10-20v-90z" fill="#c27e4e"/><path d="m484.5 341.043h-477v20l487 10z" fill="#f7f9fa"/><path d="m484.5 341.043v7.5c0 6.904-5.596 12.5-12.5 12.5h-464.5v20h497v-40z" fill="#dce6eb"/><path d="m481.698 211.919c-2.307-.568-4.716-.875-7.198-.875h-437c-13.061 0-24.167 8.349-28.286 20l485.286 10c0-7.269-2.119-24.078-12.802-29.125z" fill="#f7f9fa"/><path d="m504.5 241.043c0-14.086-9.711-25.9-22.802-29.125 1.305 3.165 2.06 6.876 2.45 10.938.422 4.391-3.062 8.187-7.473 8.187h-467.461c-1.106 3.129-1.714 6.493-1.714 10v10h497z" fill="#dce6eb"/></g><g><path d="m436.071 149.513c12.406 0 22.5-10.094 22.5-22.5s-10.094-22.5-22.5-22.5-22.5 10.094-22.5 22.5 10.094 22.5 22.5 22.5zm0-30c4.136 0 7.5 3.364 7.5 7.5s-3.364 7.5-7.5 7.5-7.5-3.364-7.5-7.5 3.365-7.5 7.5-7.5z"/><path d="m76.071 180.513c12.407 0 22.5-10.094 22.5-22.5s-10.093-22.5-22.5-22.5-22.5 10.094-22.5 22.5 10.093 22.5 22.5 22.5zm0-30c4.136 0 7.5 3.364 7.5 7.5s-3.364 7.5-7.5 7.5-7.5-3.364-7.5-7.5 3.364-7.5 7.5-7.5z"/><path d="m474.5 203.543h-13.044c-3.652-25.407-25.554-45-51.956-45-6.987 0-13.873 1.391-20.258 4.061-3.904-5.656-8.823-10.391-14.428-14.055-2.252-13.125-.022-26.566 6.531-39.067 12.169-23.217 12.169-48.788 0-72.005-1.923-3.67-6.457-5.085-10.124-3.161-3.669 1.923-5.084 6.456-3.161 10.124 9.815 18.727 9.815 39.353 0 58.079-6.55 12.495-9.603 25.803-9.047 39.099-4.156-1.044-8.486-1.594-12.917-1.594-21.947 0-41.24 13.497-48.964 33.524-.21-.003-.421-.005-.632-.005-18.11 0-33.261 12.904-36.745 30h-75.029c-4.142 0-7.5 3.357-7.5 7.5s3.358 7.5 7.5 7.5h289.774c12.406 0 22.5 10.094 22.5 22.5v2.5h-482v-2.5c0-12.406 10.093-22.5 22.5-22.5h117.226c4.142 0 7.5-3.357 7.5-7.5s-3.358-7.5-7.5-7.5h-117.226c-20.678 0-37.5 16.822-37.5 37.5v230c0 4.143 3.358 7.5 7.5 7.5h106.943c4.142 0 7.5-3.357 7.5-7.5s-3.358-7.5-7.5-7.5h-9.443v-75h55v75h-15.557c-4.142 0-7.5 3.357-7.5 7.5s3.358 7.5 7.5 7.5h360.057c4.143 0 7.5-3.357 7.5-7.5v-230c0-20.677-16.822-37.5-37.5-37.5zm-178-15c1.493 0 2.992.148 4.455.442 3.929.786 7.787-1.653 8.754-5.544 4.16-16.732 19.123-28.418 36.387-28.418 14.3 0 27.159 7.959 33.561 20.771.934 1.87 2.606 3.266 4.613 3.85 2.005.584 4.165.305 5.958-.772 5.804-3.486 12.468-5.329 19.272-5.329 18.11 0 33.261 12.904 36.745 30h-170.955c3.096-8.729 11.433-15 21.21-15zm40.5 200v75h-73.5v-75zm15 0h55v75h-55zm70 0h35v75h-35zm-407-15v-25h347.492c4.143 0 7.5-3.357 7.5-7.5s-3.357-7.5-7.5-7.5h-10.492v-75h55v75h-14.508c-4.143 0-7.5 3.357-7.5 7.5s3.357 7.5 7.5 7.5h104.508v25zm248.5-40v-75h73.5v75zm-15 0h-73.5v-75h73.5zm-88.5 0h-55v-75h55zm-70 0h-35v-75h35zm332 0v-75h35v75zm75 0h-25v-75h25zm-457-75v75h-25v-75zm-25 130h25v75h-25zm75 75h-35v-75h35zm85-75h73.5v75h-73.5zm297 75v-75h25v75z"/><path d="m128.059 174.525c1.34 2.558 3.949 4.021 6.649 4.021 1.173 0 2.364-.276 3.476-.859 3.668-1.923 5.084-6.456 3.161-10.124-9.815-18.727-9.815-39.354 0-58.079 12.17-23.218 12.17-48.789 0-72.007-1.923-3.668-6.455-5.084-10.125-3.16-3.669 1.923-5.084 6.456-3.161 10.125 9.815 18.726 9.815 39.352 0 58.078-12.169 23.216-12.169 48.788 0 72.005z"/><path d="m188.059 174.525c1.34 2.558 3.949 4.021 6.649 4.021 1.173 0 2.364-.276 3.476-.859 3.668-1.923 5.084-6.456 3.161-10.124-9.815-18.727-9.815-39.354 0-58.079 12.17-23.218 12.17-48.789 0-72.007-1.923-3.668-6.456-5.084-10.125-3.16-3.669 1.923-5.084 6.456-3.161 10.125 9.815 18.726 9.815 39.352 0 58.078-12.169 23.216-12.169 48.788 0 72.005z"/><path d="m248.059 174.525c1.34 2.558 3.949 4.021 6.649 4.021 1.173 0 2.364-.276 3.476-.859 3.669-1.923 5.084-6.456 3.161-10.124-9.816-18.727-9.816-39.354 0-58.079 12.169-23.218 12.169-48.789 0-72.007-1.924-3.668-6.457-5.084-10.125-3.16-3.669 1.923-5.084 6.456-3.161 10.125 9.816 18.726 9.816 39.352 0 58.078-12.169 23.216-12.169 48.788 0 72.005z"/><path d="m306.022 138.952c.271.028.539.043.805.043 3.785 0 7.038-2.856 7.449-6.705.828-7.766 3.207-15.438 7.068-22.808 12.169-23.217 12.169-48.788 0-72.005-1.923-3.67-6.457-5.085-10.124-3.161-3.669 1.923-5.084 6.456-3.161 10.124 9.815 18.727 9.815 39.353 0 58.079-4.742 9.048-7.669 18.528-8.699 28.179-.439 4.119 2.543 7.813 6.662 8.254z"/></g></g></svg>