<svg viewBox="0 0 96 96" xmlns="http://www.w3.org/2000/svg"><g id="Maid_Cleaning_Service" data-name="Maid/Cleaning Service"><path d="m14.42 81.87 1-6a2 2 0 1 1 4 .65l-1 6z" fill="#fb977e"/><path d="m18.42 83.52c-.12 0-.46-.07-4.16-.66a1 1 0 0 1 -.82-1.14l1-6a3 3 0 0 1 6 1l-1 6a1 1 0 0 1 -1.02.8zm-2.85-2.52 2 .33.8-5a1 1 0 1 0 -2-.33z" fill="#302d3d"/><path d="m20.12 11.3h34.63a0 0 0 0 1 0 0v6.75a0 0 0 0 1 0 0h-35.46a2.71 2.71 0 0 1 -2.71-2.71v-.51a3.53 3.53 0 0 1 3.53-3.53z" fill="#fb7c68"/><path d="m54.75 19.05h-35.46a3.71 3.71 0 0 1 -3.7-3.71v-.51a4.53 4.53 0 0 1 4.53-4.53h34.63a1 1 0 0 1 1 1v6.75a1 1 0 0 1 -1 1zm-34.63-6.75a2.53 2.53 0 0 0 -2.53 2.53v.51a1.71 1.71 0 0 0 1.7 1.71h34.46v-4.75z" fill="#302d3d"/><path d="m78 94.63-3.47-20.09a21.42 21.42 0 0 0 -9.82-14.54l-.84-.51a21.44 21.44 0 0 0 -10-3.16c-1-.06-.85 0-12.72 0a21.52 21.52 0 0 0 -5.68.77 22.8 22.8 0 0 0 -6.39 2.9 21.37 21.37 0 0 0 -9.81 14.56l-3.45 20.07z" fill="#34a0a4"/><path d="m20.75 94.79c2.71-16.93 2.58-18 4.41-21.6a17.85 17.85 0 0 1 5.94-6.71l.85-.55a16.31 16.31 0 0 1 8-2.71c.77-.06 0 0 13 0a15.58 15.58 0 0 1 4.46.65 17.85 17.85 0 0 1 5.37 2.66 18.32 18.32 0 0 1 7.72 12.39l2.55 15.87z" fill="#3473a4"/><path d="m78 95.63h-62.18a1 1 0 0 1 -1-1.17l3.45-20.09a22.39 22.39 0 0 1 10.28-15.24 23.37 23.37 0 0 1 6.68-3.05 22.07 22.07 0 0 1 5.94-.81h12.79a22.41 22.41 0 0 1 10.43 3.31l.84.51a22.4 22.4 0 0 1 10.29 15.28l3.48 20.09a1 1 0 0 1 -1 1.17zm-61-2h59.8l-3.26-18.92a20.37 20.37 0 0 0 -9.36-13.88 20.94 20.94 0 0 0 -6.18-2.83 20 20 0 0 0 -5.4-.74c-12.6 0-11.87 0-12.67 0a20.45 20.45 0 0 0 -9.5 3l-.87.53a20.38 20.38 0 0 0 -9.34 13.87z" fill="#302d3d"/><path d="m19.15 67.84h5.47v26.96h-5.47z" fill="#f4a261"/><path d="m24.62 95.8h-5.47a1 1 0 0 1 -1-1v-27a1 1 0 0 1 1-1h5.47a1 1 0 0 1 1 1v27a1 1 0 0 1 -1 1zm-4.47-2h3.47v-25h-3.47z" fill="#302d3d"/><path d="m27.8 84.54a2.07 2.07 0 0 0 -2.06-1.63h-.56a2 2 0 0 0 2-2.13 2.11 2.11 0 0 0 -2.14-1.92h-6.11a4.85 4.85 0 0 0 -4.85 4.85v6.51a4.85 4.85 0 0 0 4.85 4.85h4.82a2.1 2.1 0 0 0 2.14-1.92 2 2 0 0 0 -2-2.13h1.21a2.11 2.11 0 0 0 2.14-1.92 2 2 0 0 0 -2-2.14h.64a2 2 0 0 0 1.92-2.42z" fill="#fb977e"/><path d="m80.07 81.87-.95-6a2 2 0 1 0 -4 .65l.95 6z" fill="#fb977e"/><path d="m76.07 83.52a1 1 0 0 1 -1-.85l-1-6a3 3 0 0 1 6-1l1 6a1 1 0 0 1 -.83 1.14c-3.71.64-4.04.71-4.17.71zm1.05-8.3a1 1 0 0 0 -1 1.19l.8 5 2-.33-.8-5a1 1 0 0 0 -1-.86z" fill="#302d3d"/><path d="m69.87 40.3h5.47a0 0 0 0 1 0 0v53.24a1.26 1.26 0 0 1 -1.26 1.26h-2.94a1.26 1.26 0 0 1 -1.26-1.26v-53.24a0 0 0 0 1 0 0z" fill="#f4a261" transform="matrix(-1 0 0 -1 145.22 135.11)"/><path d="m75.34 95.8h-5.47a1 1 0 0 1 -1-1v-53.23a2.27 2.27 0 0 1 2.27-2.27h2.94a2.27 2.27 0 0 1 2.26 2.27v53.23a1 1 0 0 1 -1 1zm-4.47-2h3.47v-52.23a.27.27 0 0 0 -.26-.27h-2.94a.27.27 0 0 0 -.27.27z" fill="#302d3d"/><path d="m80.42 83.71v6.51a4.85 4.85 0 0 1 -4.85 4.85h-4.82a2.1 2.1 0 0 1 -2.14-1.92 2 2 0 0 1 2-2.13h-1.2a2.1 2.1 0 0 1 -2.14-1.92 2 2 0 0 1 2-2.13h-.63a2 2 0 0 1 -2-2.43 2.08 2.08 0 0 1 2.06-1.63h.56a2 2 0 0 1 -2-2.13 2.1 2.1 0 0 1 2.14-1.92h6.14a4.85 4.85 0 0 1 4.88 4.85z" fill="#fb977e"/><path d="m76.54 83.71v6.51a4.85 4.85 0 0 1 -4.84 4.85h-1a2.1 2.1 0 0 1 -2.14-1.92 2 2 0 0 1 2-2.13h-1.2a2.1 2.1 0 0 1 -2.14-1.92 2 2 0 0 1 2-2.13h-.63a2 2 0 0 1 -2-2.43 2.08 2.08 0 0 1 2.06-1.63h.56a2 2 0 0 1 -2-2.13 2.1 2.1 0 0 1 2.14-1.92h2.35a4.85 4.85 0 0 1 4.84 4.85z" fill="#fbc4ab"/><path d="m17.83 83.71v6.51a4.85 4.85 0 0 0 4.84 4.85h.95a2.1 2.1 0 0 0 2.14-1.92 2 2 0 0 0 -2-2.13h1.2a2.1 2.1 0 0 0 2.14-1.92 2 2 0 0 0 -2-2.13h.63a2 2 0 0 0 2-2.43 2.08 2.08 0 0 0 -2.06-1.63h-.56a2 2 0 0 0 2-2.13 2.1 2.1 0 0 0 -2.14-1.92h-2.3a4.85 4.85 0 0 0 -4.84 4.85z" fill="#fbc4ab"/><path d="m23.75 96.07h-4.82a5.85 5.85 0 0 1 -5.85-5.85v-6.51a5.85 5.85 0 0 1 5.85-5.85h6.14a3 3 0 0 1 2.62 4.72 2.94 2.94 0 0 1 1.1 1.77 3 3 0 0 1 -1.09 3 3 3 0 0 1 -1.14 4.35 3 3 0 0 1 -2.81 4.37zm-4.82-16.21a3.85 3.85 0 0 0 -3.85 3.85v6.51a3.85 3.85 0 0 0 3.85 3.85h4.82a1 1 0 0 0 .86-1.73 1 1 0 0 0 -.75-.32 1 1 0 0 1 0-2h1.21a1 1 0 0 0 .86-1.73 1 1 0 0 0 -.75-.33 1 1 0 1 1 0-2h.64a1 1 0 0 0 1-1.23 1.08 1.08 0 0 0 -1.08-.82h-.56a1 1 0 0 1 0-2 1 1 0 0 0 1-1.08 1.1 1.1 0 0 0 -1.14-1z" fill="#302d3d"/><path d="m75.57 96.07h-4.82a3 3 0 0 1 -2.81-4.41 3 3 0 0 1 -1.14-4.35 3 3 0 0 1 -1.09-3 3 3 0 0 1 1.09-1.77 3 3 0 0 1 2.63-4.72h6.14a5.86 5.86 0 0 1 5.85 5.85v6.51a5.86 5.86 0 0 1 -5.85 5.89zm-3.94-5a1 1 0 0 1 -1 1 1 1 0 0 0 -.74.32 1 1 0 0 0 .86 1.73h4.82a3.86 3.86 0 0 0 3.85-3.85v-6.56a3.86 3.86 0 0 0 -3.85-3.85h-6.14a1.1 1.1 0 0 0 -1.14 1 1 1 0 0 0 1 1.08 1 1 0 0 1 0 2h-.56a1.08 1.08 0 0 0 -1.08.82 1 1 0 0 0 1 1.23h.63a1 1 0 0 1 0 2 1 1 0 0 0 -.74.33 1 1 0 0 0 .89 1.68h1.2a1 1 0 0 1 1 1z" fill="#302d3d"/><path d="m64 94.63h-34.16c1.24-13.19 1.68-17.84 1.85-19.63a5.2 5.2 0 0 1 1.24-2.87l3.68-4.21h20.58l3.68 4.22a5.14 5.14 0 0 1 1.24 2.86c.17 1.79.6 6.41 1.89 19.63z" fill="#fb7c68"/><path d="m59.59 94.63h-25.38c.93-9.82 1.25-13.27 1.38-14.63a3.68 3.68 0 0 1 .92-2.12 9.13 9.13 0 0 1 6.9-3.14h7a9.15 9.15 0 0 1 6.9 3.14 3.82 3.82 0 0 1 .9 2.12c.13 1.35.45 4.78 1.38 14.63z" fill="#d84540"/><path d="m64 95.63h-34.16a1 1 0 0 1 -1-1.09l1.86-19.67a6 6 0 0 1 1.48-3.42l3.67-4.22a1 1 0 0 1 .76-.34h20.58a1 1 0 0 1 .75.34l3.68 4.22a6 6 0 0 1 1.48 3.43c.11 1.07.22 2.27 1.85 19.66a1 1 0 0 1 -.95 1.09zm-33-2h31.86c-1.58-16.83-1.62-17.23-1.75-18.56a4.09 4.09 0 0 0 -1-2.3l-3.39-3.88h-19.66l-3.38 3.87a4.12 4.12 0 0 0 -1 2.3c-.13 1.49-.34 3.66-1.74 18.57z" fill="#302d3d"/><path d="m53.2 56.81a7.72 7.72 0 0 1 -12.61 0v-9.11h12.61z" fill="#f8ad9d"/><path d="m39.77 57.38c-.26-.37-.18.19-.18-9.68a1 1 0 0 1 1-1h12.61a1 1 0 0 1 1 1c0 9.83.08 9.31-.19 9.68a8.7 8.7 0 0 1 -14.24 0zm1.82-.9a6.72 6.72 0 0 0 10.61 0v-7.78h-10.61z" fill="#302d3d"/><path d="m64.7 35.75h-35.61a3.41 3.41 0 0 1 0-6.81h35.61a3.41 3.41 0 0 1 0 6.81z" fill="#f8ad9d"/><path d="m64.7 36.75h-35.61a4.41 4.41 0 0 1 0-8.81h35.61a4.41 4.41 0 0 1 0 8.81zm-35.61-6.81a2.28 2.28 0 0 0 -2.28 2.28v.24a2.29 2.29 0 0 0 2.28 2.29h35.61a2.29 2.29 0 0 0 2.3-2.29v-.24a2.28 2.28 0 0 0 -2.28-2.28z" fill="#302d3d"/><rect fill="#fbc4ab" height="38.89" rx="15.26" width="31.64" x="31.08" y="12.5"/><g fill="#302d3d"><path d="m47.46 52.39h-1.13a16.28 16.28 0 0 1 -16.25-16.26v-8.38a16.27 16.27 0 0 1 16.25-16.25h1.13a16.27 16.27 0 0 1 16.25 16.25v8.38a16.28 16.28 0 0 1 -16.25 16.26zm-1.13-38.89a14.26 14.26 0 0 0 -14.25 14.25v8.38a14.27 14.27 0 0 0 14.25 14.26h1.13a14.27 14.27 0 0 0 14.25-14.26v-8.38a14.26 14.26 0 0 0 -14.25-14.25z"/><path d="m42.08 43.22a1 1 0 1 1 1.31-1.5 5.49 5.49 0 0 0 7 0 1 1 0 1 1 1.31 1.51 7.34 7.34 0 0 1 -9.62-.01z"/><path d="m53.16 33.34a1 1 0 0 1 -1-1v-.7a1 1 0 0 1 2 0v.7a1 1 0 0 1 -1 1z"/><path d="m54.75 28.86h-3.19a1 1 0 0 1 0-2h3.19a1 1 0 0 1 0 2z"/><path d="m40.63 33.34a1 1 0 0 1 -1-1v-.7a1 1 0 0 1 2 0v.7a1 1 0 0 1 -1 1z"/><path d="m42.23 28.86h-3.23a1 1 0 0 1 0-2h3.2a1 1 0 1 1 0 2z"/></g><path d="m66.33 18.05h-39a17.12 17.12 0 0 1 17.16-17.12c4.79 0 5.67-.06 7.23.19a17.14 17.14 0 0 1 14.61 16.93z" fill="#fb4568"/><path d="m66.33 18.05h-29.21a17.08 17.08 0 0 1 5-12 13.64 13.64 0 0 1 19.19-.05 17.07 17.07 0 0 1 5.02 12.05z" fill="#fb7c68"/><path d="m55.65 10.76h2.35a1.62 1.62 0 0 0 1.15-2.76 10.64 10.64 0 0 0 -10.92-2.41 1 1 0 0 0 .19 1.83 8.18 8.18 0 0 1 4 2.07 4.68 4.68 0 0 0 3.23 1.27z" fill="#fbcd9b"/><path d="m66.32 19.05h-38.95a1 1 0 0 1 -1-1 18.14 18.14 0 0 1 18.12-18.12h4.71a18.14 18.14 0 0 1 18.12 18.12 1 1 0 0 1 -1 1zm-37.92-2h36.89a16.13 16.13 0 0 0 -16.09-15.12h-4.71a16.13 16.13 0 0 0 -16.09 15.12z" fill="#302d3d"/><path d="m27.93 13.74a17.5 17.5 0 0 0 -.56 4.31h38.95a17.5 17.5 0 0 0 -.56-4.31z" fill="#345f86"/><path d="m36.32 13.74h22.04v4.31h-22.04z" fill="#34a0a4"/><path d="m66.32 19.05h-38.95a1 1 0 0 1 -1-1 18.09 18.09 0 0 1 .6-4.56 1 1 0 0 1 1-.75h37.78a1 1 0 0 1 1 .75 18 18 0 0 1 .6 4.56 1 1 0 0 1 -1.03 1zm-37.92-2h36.89a15.48 15.48 0 0 0 -.29-2.31h-36.27a15.67 15.67 0 0 0 -.33 2.31z" fill="#302d3d"/><path d="m28.65 28.94a10.45 10.45 0 0 1 -1.73-9.38l.45-1.51h13.26v1.95a4.49 4.49 0 0 1 -1.44 3.29l-4.28 4a2.9 2.9 0 0 0 -.91 2.05v1.26a2.9 2.9 0 0 1 -2.9 2.9v-3.31a1.25 1.25 0 0 0 -1.26-1.25z" fill="#52527b"/><path d="m31.08 34.5a1 1 0 0 1 -1-1v-3.31a.26.26 0 0 0 -.26-.25c-1.27 0-1.6.07-2-.39a11.52 11.52 0 0 1 -1.82-10.28l.45-1.51a1 1 0 0 1 1-.71h13.18a1 1 0 0 1 1 1v1.95a5.5 5.5 0 0 1 -1.76 4l-4.28 4c-.76.7-.61 1.52-.61 2.66a3.91 3.91 0 0 1 -3.9 3.84zm-1.92-6.56h.66a2.26 2.26 0 0 1 2.26 2.25v2c1.93-1.19-.22-3.55 2.15-5.75l4.28-4a4 4 0 0 0 1.12-3.45h-11.52l-.24.79a9.5 9.5 0 0 0 1.29 8.16z" fill="#302d3d"/><path d="m65 28.94.74-1a8 8 0 0 0 1.34-7.24l-.8-2.68h-13.22v2.32a3.55 3.55 0 0 0 1.12 2.66l4.6 4.26a2.9 2.9 0 0 1 .93 2.13v1.21a2.9 2.9 0 0 0 2.9 2.9v-3.31a1.25 1.25 0 0 1 1.26-1.25z" fill="#52527b"/><path d="m62.61 34.5a3.91 3.91 0 0 1 -3.9-3.9c0-1.38.11-2-.61-2.66l-4.6-4.26a4.52 4.52 0 0 1 -1.44-3.31v-2.32a1 1 0 0 1 1-1h13.26a1 1 0 0 1 1 .71l.8 2.68a9.13 9.13 0 0 1 -1.5 8.14c-1.18 1.52-.81 1.36-2.71 1.36a.26.26 0 0 0 -.26.25v3.31a1 1 0 0 1 -1.04 1zm-8.55-15.45v1.32a2.5 2.5 0 0 0 .8 1.84l4.6 4.26c2.36 2.19.23 4.56 2.15 5.75v-2a2.26 2.26 0 0 1 2.26-2.25h.68l.44-.58a7.12 7.12 0 0 0 1.18-6.39l-.59-2z" fill="#302d3d"/><path d="m44.39 18.05v4.34a1 1 0 0 0 1.78.63l4-5z" fill="#52527b"/><path d="m43.39 22.39v-4.34a1 1 0 0 1 1-1h5.76a1 1 0 0 1 .78 1.62l-4 5a2 2 0 0 1 -3.54-1.28zm2-3.34v3.34l2.68-3.34z" fill="#302d3d"/><path d="m46.67 10.3h.33a4.84 4.84 0 0 1 4.84 4.84v2.9a0 0 0 0 1 0 0h-10a0 0 0 0 1 0 0v-2.9a4.84 4.84 0 0 1 4.84-4.84z" fill="#52527b"/><path d="m51.87 19.05h-10a1 1 0 0 1 -1-1v-2.9a5.86 5.86 0 0 1 5.8-5.85h.33a5.86 5.86 0 0 1 5.85 5.85v2.9a1 1 0 0 1 -.98 1zm-9-2h8v-1.9a3.86 3.86 0 0 0 -3.87-3.85h-.35a3.86 3.86 0 0 0 -3.85 3.85z" fill="#302d3d"/><path d="m33.64 54.76h3.66a.94.94 0 0 1 .94.94v15.54a1.57 1.57 0 0 1 -1.57 1.57h-2.4a1.57 1.57 0 0 1 -1.57-1.57v-15.54a.94.94 0 0 1 .94-.94z" fill="#fb7c68" transform="matrix(.969 -.248 .248 .969 -14.68 10.76)"/><path d="m36.15 73.87a2.58 2.58 0 0 1 -2.49-1.93l-3.84-15a1.93 1.93 0 0 1 1.39-2.36l3.56-.91a1.94 1.94 0 0 1 2.35 1.33l3.85 15a2.56 2.56 0 0 1 -1.85 3.12 15.05 15.05 0 0 1 -2.97.75zm-1-18.36-3.48 1 3.89 15a.56.56 0 0 0 .69.41c2.5-.64 2.52-.58 2.68-.85s.46.93-3.74-15.56z" fill="#302d3d"/><path d="m57.12 54.76h2.41a1.57 1.57 0 0 1 1.57 1.57v15.54a.94.94 0 0 1 -.94.94h-3.67a.94.94 0 0 1 -.94-.94v-15.54a1.57 1.57 0 0 1 1.57-1.57z" fill="#fb7c68" transform="matrix(-.969 -.248 .248 -.969 99.05 140.02)"/><path d="m57.65 73.87a13.49 13.49 0 0 1 -3-.68 2.57 2.57 0 0 1 -1.85-3.12l3.84-15a2 2 0 0 1 2.36-1.45l3.55.91a1.94 1.94 0 0 1 1.45 2.36l-3.85 15a2.56 2.56 0 0 1 -2.5 1.98zm.89-18.31c-4 16-3.89 15.14-3.71 15.44a.58.58 0 0 0 .35.26c2.53.64 2.49.69 2.76.53s-.1 1 4.1-15.4z" fill="#302d3d"/><rect fill="#3473a4" height="8.75" rx="1.97" width="15.63" x="39.08" y="77.37"/><path d="m52.74 87.12h-11.69a3 3 0 0 1 -3-3v-4.8a3 3 0 0 1 3-3h11.69a3 3 0 0 1 3 3v4.8a3 3 0 0 1 -3 3zm-11.69-8.75a1 1 0 0 0 -1 1v4.8a1 1 0 0 0 1 1h11.69a1 1 0 0 0 1-1v-4.8a1 1 0 0 0 -1-1z" fill="#302d3d"/><path d="m83.24 66.26a1.25 1.25 0 0 0 1.17-.84c.37-1 1.37-1.31 1.37-2.8 0-1.82-1.51-1.82-1.51-3.64s1.51-1.81 1.51-3.63-1.51-1.81-1.51-3.63 1.51-1.81 1.51-3.63h-24.84c0 1.82-1.5 1.82-1.5 3.63s1.5 1.82 1.5 3.63-1.5 1.82-1.5 3.63 1.5 1.82 1.5 3.64a2.38 2.38 0 0 1 -.59 1.62 1.24 1.24 0 0 0 .95 2z" fill="#7a7aad"/><path d="m85.27 53.85a3.07 3.07 0 0 1 -1-2.13c0-1.81 1.51-1.81 1.51-3.63h-24.84c0 1.82-1.5 1.82-1.5 3.63a3.11 3.11 0 0 0 1 2.13z" fill="#b6c1ea"/><path d="m83.24 67.26h-21.94a2.23 2.23 0 0 1 -1.73-3.64 1.38 1.38 0 0 0 .37-1 1.58 1.58 0 0 0 -.52-1.18 3.57 3.57 0 0 1 0-4.91 1.58 1.58 0 0 0 .52-1.18 1.56 1.56 0 0 0 -.52-1.17 3.57 3.57 0 0 1 0-4.91 1.58 1.58 0 0 0 .52-1.18 1 1 0 0 1 1-1h24.84a1 1 0 0 1 1 1 3.55 3.55 0 0 1 -1 2.46 1.57 1.57 0 0 0 -.53 1.17 1.59 1.59 0 0 0 .53 1.18 3.57 3.57 0 0 1 0 4.91 1.57 1.57 0 0 0 -.51 1.19 1.61 1.61 0 0 0 .53 1.19 3.52 3.52 0 0 1 1 2.45c0 1.89-1.16 2.39-1.43 3.13a2.26 2.26 0 0 1 -2.13 1.49zm-21.43-18.17c-.41 1.39-1.37 1.57-1.37 2.63a1.58 1.58 0 0 0 .56 1.18 3.57 3.57 0 0 1 0 4.91 1.56 1.56 0 0 0 -.56 1.19 1.6 1.6 0 0 0 .56 1.17 3.52 3.52 0 0 1 1 2.45 3.4 3.4 0 0 1 -.81 2.25.23.23 0 0 0 0 .26c.1.2-1.33.13 22.14.13a.23.23 0 0 0 .22-.17c.45-1.27 1.32-1.43 1.32-2.47a1.61 1.61 0 0 0 -.52-1.18 3.54 3.54 0 0 1 0-4.91 1.61 1.61 0 0 0 .52-1.18 1.59 1.59 0 0 0 -.52-1.17 3.51 3.51 0 0 1 -1-2.46 3.75 3.75 0 0 1 1.13-2.63z" fill="#302d3d"/><path d="m62.14 43.84h20.93a2.71 2.71 0 0 1 2.71 2.71v1.54a0 0 0 0 1 0 0h-26.34a0 0 0 0 1 0 0v-1.54a2.71 2.71 0 0 1 2.7-2.71z" fill="#f4a261"/><path d="m85.78 49.09h-26.34a1 1 0 0 1 -1-1v-1.54a3.71 3.71 0 0 1 3.7-3.71h20.93a3.72 3.72 0 0 1 3.71 3.71v1.54a1 1 0 0 1 -1 1zm-25.34-2h24.34v-.54a1.72 1.72 0 0 0 -1.71-1.71h-20.93a1.71 1.71 0 0 0 -1.7 1.71z" fill="#302d3d"/><path d="m65.65 67.26a1 1 0 0 1 -1-1 3.51 3.51 0 0 1 1-2.46 1.6 1.6 0 0 0 0-2.36 3.57 3.57 0 0 1 0-4.91 1.58 1.58 0 0 0 .52-1.18 1.56 1.56 0 0 0 -.52-1.17 3.57 3.57 0 0 1 0-4.91 1.58 1.58 0 0 0 .52-1.18 1 1 0 0 1 2 0 3.55 3.55 0 0 1 -1 2.46 1.56 1.56 0 0 0 -.52 1.17 1.58 1.58 0 0 0 .52 1.18 3.57 3.57 0 0 1 0 4.91 1.56 1.56 0 0 0 -.52 1.19 1.6 1.6 0 0 0 .52 1.19 3.57 3.57 0 0 1 0 4.91 1.58 1.58 0 0 0 -.52 1.18 1 1 0 0 1 -1 .98z" fill="#302d3d"/><path d="m71.86 67.26a1 1 0 0 1 -1-1 3.51 3.51 0 0 1 1-2.46 1.6 1.6 0 0 0 .52-1.18 1.61 1.61 0 0 0 -.52-1.18 3.57 3.57 0 0 1 0-4.91 1.61 1.61 0 0 0 .52-1.18 1.59 1.59 0 0 0 -.52-1.17 3.51 3.51 0 0 1 -1-2.46c0-2.14 1.5-2.41 1.5-3.63a1 1 0 0 1 2 0 3.55 3.55 0 0 1 -1 2.46 1.56 1.56 0 0 0 -.52 1.17 1.58 1.58 0 0 0 .52 1.18 3.57 3.57 0 0 1 0 4.91 1.56 1.56 0 0 0 -.5 1.19 1.6 1.6 0 0 0 .52 1.19 3.57 3.57 0 0 1 0 4.91 1.58 1.58 0 0 0 -.52 1.18 1 1 0 0 1 -1 .98z" fill="#302d3d"/><path d="m78.06 67.26a1 1 0 0 1 -1-1 3.51 3.51 0 0 1 1-2.46 1.6 1.6 0 0 0 .52-1.18 1.61 1.61 0 0 0 -.52-1.18 3.54 3.54 0 0 1 0-4.91 1.61 1.61 0 0 0 .52-1.18 1.59 1.59 0 0 0 -.52-1.17 3.54 3.54 0 0 1 0-4.91 1.61 1.61 0 0 0 .52-1.18 1 1 0 0 1 2 0 3.55 3.55 0 0 1 -1 2.46 1.57 1.57 0 0 0 -.53 1.17 1.59 1.59 0 0 0 .53 1.18 3.57 3.57 0 0 1 0 4.91 1.57 1.57 0 0 0 -.52 1.19 1.61 1.61 0 0 0 .53 1.19 3.57 3.57 0 0 1 0 4.91 1.59 1.59 0 0 0 -.53 1.18 1 1 0 0 1 -1 .98z" fill="#302d3d"/><path d="m24.62 67.84h-5.47l-8.93-9.33h23.33z" fill="#adcaf4"/><path d="m24.62 68.84h-5.47a1 1 0 0 1 -.72-.3l-8.93-9.34a1 1 0 0 1 .72-1.69h23.33a1 1 0 0 1 .73 1.69l-8.94 9.34a1 1 0 0 1 -.72.3zm-5-2h4.61l7-7.33h-18.67z" fill="#302d3d"/><path d="m10.22 54.64h23.33v3.88h-23.33z" fill="#52527b"/><path d="m33.55 59.51h-23.33a1 1 0 0 1 -1-1v-3.87a1 1 0 0 1 1-1h23.33a1 1 0 0 1 1 1v3.87a1 1 0 0 1 -1 1zm-22.33-2h21.33v-1.87h-21.33z" fill="#302d3d"/></g></svg>