<?xml version="1.0" encoding="UTF-8" standalone="no"?>
<!-- Created with Inkscape (http://www.inkscape.org/) -->

<svg
   version="1.1"
   id="svg600"
   xml:space="preserve"
   width="682.66669"
   height="682.66669"
   viewBox="0 0 682.66669 682.66669"
   xmlns="http://www.w3.org/2000/svg"
   xmlns:svg="http://www.w3.org/2000/svg"><defs
     id="defs604"><clipPath
       clipPathUnits="userSpaceOnUse"
       id="clipPath622"><path
         d="M 0,512 H 512 V 0 H 0 Z"
         id="path620" /></clipPath></defs><g
     id="g606"
     transform="matrix(1.3333333,0,0,-1.3333333,0,682.66667)"><g
       id="g608"
       transform="translate(47.2861,373.4521)"><path
         d="M 0,0 112.165,-64.759 224.331,0"
         style="fill:#93d8e4;fill-opacity:1;fill-rule:nonzero;stroke:none"
         id="path610" /></g><g
       id="g612"
       transform="translate(159.4512,179.1756)"><path
         d="M 0,0 V 129.518 Z"
         style="fill:#93d8e4;fill-opacity:1;fill-rule:nonzero;stroke:none"
         id="path614" /></g><g
       id="g616"><g
         id="g618"
         clip-path="url(#clipPath622)"><g
           id="g624"
           transform="translate(309.2832,395.1987)"><path
             d="m 0,0 c -1.366,2.366 -3.344,4.378 -5.792,5.792 l -136.129,78.594 c -4.895,2.826 -10.927,2.826 -15.822,0 L -293.872,5.792 C -296.32,4.378 -298.298,2.366 -299.664,0 l 149.832,-86.505 z"
             style="fill:#daf1f4;fill-opacity:1;fill-rule:nonzero;stroke:none"
             id="path626" /></g><g
           id="g628"
           transform="translate(9.6196,395.1987)"><path
             d="M 0,0 C -1.366,-2.365 -2.12,-5.084 -2.12,-7.911 V -165.1 c 0,-5.652 3.016,-10.875 7.912,-13.702 l 136.129,-78.594 c 2.448,-1.413 5.179,-2.12 7.911,-2.12 v 173.011 z"
             style="fill:#b9e4ef;fill-opacity:1;fill-rule:nonzero;stroke:none"
             id="path630" /></g><g
           id="g632"
           transform="translate(159.4512,308.6938)"><path
             d="m 0,0 v -173.011 c 2.732,0 5.463,0.707 7.911,2.12 l 76.713,44.29 v 63.812 c 0,4.844 2.584,9.32 6.779,11.742 l 60.548,34.958 v 94.683 c 0,2.826 -0.754,5.546 -2.119,7.911 z"
             style="fill:#93d8e4;fill-opacity:1;fill-rule:nonzero;stroke:none"
             id="path634" /></g><g
           id="g636"
           transform="translate(278.1689,234.0488)"><path
             d="M 0,0 96.118,-55.494 192.237,0"
             style="fill:#93d8e4;fill-opacity:1;fill-rule:nonzero;stroke:none"
             id="path638" /></g><g
           id="g640"
           transform="translate(374.2871,178.5547)"><path
             d="M 0,0 V -110.988"
             style="fill:#93d8e4;fill-opacity:1;fill-rule:nonzero;stroke:none"
             id="path642" /></g><g
           id="g644"
           transform="translate(245.8916,252.6846)"><path
             d="M 0,0 C -1.17,-2.027 -1.816,-4.357 -1.816,-6.779 V -141.48 c 0,-4.844 2.584,-9.32 6.779,-11.742 l 116.653,-67.35 c 2.098,-1.211 4.439,-1.817 6.78,-1.817 V -74.13 Z"
             style="fill:#b9e4ef;fill-opacity:1;fill-rule:nonzero;stroke:none"
             id="path646" /></g><g
           id="g648"
           transform="translate(502.6836,252.6846)"><path
             d="m 0,0 c -1.17,2.027 -2.865,3.751 -4.963,4.962 l -116.654,67.351 c -4.195,2.422 -9.363,2.422 -13.559,0 L -251.829,4.962 C -253.927,3.751 -255.622,2.027 -256.792,0 l 128.396,-74.13 z"
             style="fill:#daf1f4;fill-opacity:1;fill-rule:nonzero;stroke:none"
             id="path650" /></g><g
           id="g652"
           transform="translate(374.2871,178.5547)"><path
             d="m 0,0 v -148.259 c 2.342,0 4.682,0.606 6.779,1.817 l 116.655,67.35 c 4.195,2.422 6.779,6.898 6.779,11.742 V 67.351 c 0,2.421 -0.647,4.752 -1.817,6.779 z"
             style="fill:#93d8e4;fill-opacity:1;fill-rule:nonzero;stroke:none"
             id="path654" /></g><g
           id="g656"
           transform="translate(47.2861,373.4521)"><path
             d="M 0,0 112.165,-64.759 224.331,0"
             style="fill:none;stroke:#000000;stroke-width:15;stroke-linecap:round;stroke-linejoin:round;stroke-miterlimit:10;stroke-dasharray:none;stroke-opacity:1"
             id="path658" /></g><g
           id="g660"
           transform="translate(159.4512,198.8413)"><path
             d="M 0,0 V -19.666"
             style="fill:none;stroke:#000000;stroke-width:15;stroke-linecap:round;stroke-linejoin:round;stroke-miterlimit:10;stroke-dasharray:none;stroke-opacity:1"
             id="path662" /></g><g
           id="g664"
           transform="translate(159.4512,308.6934)"><path
             d="M 0,0 V -74.852"
             style="fill:none;stroke:#000000;stroke-width:15;stroke-linecap:round;stroke-linejoin:round;stroke-miterlimit:10;stroke-dasharray:none;stroke-opacity:1"
             id="path666" /></g><g
           id="g668"
           transform="translate(504.5,196.8315)"><path
             d="m 0,0 v 49.074 c 0,4.843 -2.584,9.32 -6.779,11.741 l -116.655,67.351 c -4.194,2.422 -9.363,2.422 -13.557,0 L -253.646,60.815 c -4.195,-2.421 -6.779,-6.898 -6.779,-11.741 V -85.627 c 0,-4.844 2.584,-9.32 6.779,-11.742 l 116.655,-67.35 c 4.194,-2.422 9.363,-2.422 13.557,0 l 116.655,67.35 C -2.584,-94.947 0,-90.471 0,-85.627 V -35"
             style="fill:none;stroke:#000000;stroke-width:15;stroke-linecap:round;stroke-linejoin:round;stroke-miterlimit:10;stroke-dasharray:none;stroke-opacity:1"
             id="path670" /></g><g
           id="g672"
           transform="translate(331.3975,275.2808)"><path
             d="M 0,0 42.891,24.763"
             style="fill:none;stroke:#000000;stroke-width:15;stroke-linecap:round;stroke-linejoin:round;stroke-miterlimit:10;stroke-dasharray:none;stroke-opacity:1"
             id="path674" /></g><g
           id="g676"
           transform="translate(278.1689,234.0488)"><path
             d="M 0,0 96.118,-55.494 192.237,0"
             style="fill:none;stroke:#000000;stroke-width:15;stroke-linecap:round;stroke-linejoin:round;stroke-miterlimit:10;stroke-dasharray:none;stroke-opacity:1"
             id="path678" /></g><g
           id="g680"
           transform="translate(374.2871,178.5547)"><path
             d="M 0,0 V -110.988"
             style="fill:none;stroke:#000000;stroke-width:15;stroke-linecap:round;stroke-linejoin:round;stroke-miterlimit:10;stroke-dasharray:none;stroke-opacity:1"
             id="path682" /></g><g
           id="g684"
           transform="translate(92.6323,445.5737)"><path
             d="m 0,0 -77.221,-44.583 c -4.896,-2.827 -7.911,-8.05 -7.911,-13.703 v -157.189 c 0,-5.652 3.015,-10.875 7.911,-13.702 l 136.129,-78.594 c 4.895,-2.826 10.926,-2.826 15.822,0 l 76.713,44.29"
             style="fill:none;stroke:#000000;stroke-width:15;stroke-linecap:round;stroke-linejoin:round;stroke-miterlimit:10;stroke-dasharray:none;stroke-opacity:1"
             id="path686" /></g><g
           id="g688"
           transform="translate(311.4023,292.6045)"><path
             d="m 0,0 v 94.684 c 0,5.652 -3.016,10.875 -7.911,13.702 L -144.04,186.98 c -4.896,2.826 -10.927,2.826 -15.822,0 l -28.366,-16.377"
             style="fill:none;stroke:#000000;stroke-width:15;stroke-linecap:round;stroke-linejoin:round;stroke-miterlimit:10;stroke-dasharray:none;stroke-opacity:1"
             id="path690" /></g><g
           id="g692"
           transform="translate(64.0146,400.1836)"><path
             d="M 0,0 44.405,25.637"
             style="fill:none;stroke:#000000;stroke-width:15;stroke-linecap:round;stroke-linejoin:round;stroke-miterlimit:10;stroke-dasharray:none;stroke-opacity:1"
             id="path694" /></g></g></g></g></svg>
