<?xml version="1.0" encoding="iso-8859-1"?>
<!-- Generator: Adobe Illustrator 19.0.0, SVG Export Plug-In . SVG Version: 6.00 Build 0)  -->
<svg version="1.1" id="Capa_1" xmlns="http://www.w3.org/2000/svg" xmlns:xlink="http://www.w3.org/1999/xlink" x="0px" y="0px"
	 viewBox="0 0 512 512" style="enable-background:new 0 0 512 512;" xml:space="preserve">
<g>
	<path style="fill:#BAD5E5;" d="M500.103,95.602c6.06,16.105,5.991,34.006-0.805,49.815c-5.576,12.971-16.179,26.085-36.105,33.244
		c-65.359,23.48-65.106-108.23-65.106-108.23l100.469,21.054L500.103,95.602z"/>
	<path style="fill:#BAD5E5;" d="M14.969,424.821c-6.06-16.105-5.991-34.006,0.805-49.815c5.576-12.971,16.179-26.085,36.105-33.244
		c65.359-23.48,65.106,108.23,65.106,108.23L16.517,428.937L14.969,424.821z"/>
</g>
<circle style="fill:#33D8DD;" cx="255.374" cy="256.001" r="247.902"/>
<path style="fill:#10C4C4;" d="M255.374,8.098c-10.44,0-20.728,0.653-30.829,1.906c122.362,15.18,217.072,119.524,217.072,245.995
	s-94.709,230.815-217.072,245.995c10.101,1.253,20.389,1.906,30.829,1.906c136.912,0,247.902-110.99,247.902-247.902
	S392.286,8.098,255.374,8.098z"/>
<g>
	<path style="fill:#E1EFFB;" d="M262.239,334.251l46.031,16.996c1.438,0.531,1.782,2.425,0.613,3.418
		c-83.577,71.059-192.972,92.979-297.422,57.551c0.733,4.205,1.853,8.361,3.37,12.402l1.545,4.118
		c22.302,52.152,78.691,80.504,133.998,67.92c73.301-16.677,140.798-55.434,190.504-109.302c1.013-1.097,2.819-0.757,3.351,0.638
		l18.736,49.166c0.699,1.836,3.348,1.678,3.824-0.228l35.204-140.828c0.371-1.485-0.99-2.822-2.468-2.426l-137.11,36.754
		C260.524,330.935,260.402,333.572,262.239,334.251z"/>
	<path style="fill:#E1EFFB;" d="M252.834,186.173l-46.031-16.996c-1.438-0.531-1.782-2.425-0.613-3.418
		C289.766,94.7,399.161,72.78,503.612,108.208c-0.733-4.205-1.853-8.36-3.37-12.402l-1.545-4.118
		c-22.302-52.152-78.691-80.504-133.998-67.92C291.397,40.445,223.901,79.202,174.195,133.07c-1.013,1.097-2.819,0.757-3.351-0.638
		l-18.736-49.166c-0.699-1.835-3.348-1.678-3.824,0.228l-35.204,140.829c-0.371,1.485,0.99,2.822,2.468,2.426l137.11-36.754
		C254.549,189.489,254.67,186.851,252.834,186.173z"/>
</g>
<path d="M506.162,148.367c5.55-12.911,7.184-27.248,4.723-41.463c-0.009-0.053-0.028-0.103-0.038-0.155
	c-0.002-0.013-0.002-0.025-0.004-0.038c-0.823-4.697-2.084-9.321-3.748-13.742l-1.549-4.116c-0.04-0.105-0.082-0.209-0.126-0.312
	c-23.688-55.264-83.656-85.607-142.586-72.147c-3.89,0.889-7.763,1.85-11.62,2.861C320.746,6.905,288.519,0.626,255.374,0.626
	c-51.948,0-101.943,15.506-144.58,44.841C69.154,74.115,37.204,113.948,18.395,160.66c-1.541,3.828,0.312,8.181,4.14,9.722
	c3.829,1.54,8.18-0.311,9.722-4.14c4.869-12.092,10.68-23.691,17.352-34.72c23.691,5.619,48.98,10.266,75.442,13.831L105.8,222.64
	c-0.807,3.244,0.174,6.714,2.56,9.056c0.268,0.263,0.555,0.503,0.849,0.729c0.089,0.068,0.18,0.131,0.27,0.196
	c0.221,0.159,0.448,0.306,0.68,0.444c0.096,0.057,0.191,0.116,0.288,0.169c0.313,0.171,0.632,0.328,0.961,0.463
	c0.01,0.004,0.02,0.01,0.03,0.014c0.338,0.137,0.685,0.247,1.035,0.344c0.106,0.029,0.212,0.053,0.32,0.079
	c0.262,0.063,0.527,0.115,0.793,0.155c0.108,0.016,0.215,0.035,0.324,0.047c0.363,0.043,0.728,0.071,1.095,0.071
	c0.001,0,0.001,0,0.002,0c0.002,0,0.005,0,0.007,0c0.816,0,1.638-0.106,2.445-0.322l9.906-2.664
	c-0.252,5.382-0.432,10.797-0.519,16.249l-0.016,0.981H15.064c0.455-15.069,2.299-30.056,5.516-44.65
	c0.888-4.03-1.658-8.016-5.689-8.905c-4.028-0.887-8.015,1.659-8.905,5.688C2.015,218.802,0,237.379,0,255.999
	c0,34.329,6.807,67.746,19.74,98.632c-4.41,5.127-8.051,10.961-10.829,17.424c-5.55,12.911-7.184,27.248-4.723,41.463
	c0.009,0.053,0.028,0.102,0.038,0.155c0.002,0.013,0.002,0.026,0.004,0.039c0.823,4.696,2.084,9.32,3.748,13.741l1.549,4.116
	c0.04,0.105,0.082,0.209,0.126,0.313c19.921,46.474,65.49,75.324,114.531,75.321c9.275,0,18.683-1.033,28.055-3.174
	c7.452-1.702,14.844-3.642,22.17-5.789c26.055,8.707,53.279,13.133,80.965,13.133c49.916,0,98.27-14.404,139.838-41.655
	c40.503-26.554,72.517-63.816,92.583-107.759c1.714-3.754,0.06-8.187-3.693-9.901c-3.754-1.716-8.187-0.06-9.901,3.693
	c-6.301,13.798-13.86,26.893-22.544,39.152c-20.21-4.491-41.567-8.284-63.753-11.328l21.37-85.793
	c0.808-3.245-0.174-6.715-2.561-9.057c-2.386-2.342-5.877-3.256-9.101-2.387l-14.802,3.981c0.577-8.608,0.951-17.283,1.088-25.99
	l0.016-0.981h111.773c-0.583,19.337-3.458,38.465-8.58,56.962c-1.101,3.977,1.23,8.093,5.206,9.194
	c0.667,0.185,1.339,0.273,1.998,0.273c3.275,0,6.281-2.17,7.196-5.48c6.13-22.138,9.238-45.117,9.238-68.3
	c0-30.769-5.557-61.023-16.152-89.389C499.347,161.278,503.238,155.17,506.162,148.367z M492.433,142.465
	c-1.243,2.893-2.701,5.622-4.367,8.177c-6.135-13.539-13.448-26.477-21.845-38.735c-0.076-0.111-0.151-0.222-0.226-0.333
	c-0.865-1.259-1.745-2.509-2.634-3.753c-0.368-0.517-0.738-1.032-1.11-1.546c-0.409-0.564-0.804-1.135-1.218-1.696
	c12.008,2.348,23.956,5.435,35.724,9.231C497.746,123.707,496.275,133.532,492.433,142.465z M327.054,26.438
	c-0.464,0.155-0.925,0.319-1.389,0.476c-1.298,0.439-2.595,0.88-3.887,1.333c-0.197,0.069-0.393,0.141-0.59,0.209
	c-1.724,0.607-3.446,1.218-5.16,1.848c0.004-0.002,0.009-0.003,0.013-0.005c-3.236-3.409-6.549-6.525-9.923-9.366
	C313.172,22.45,320.155,24.281,327.054,26.438z M262.725,54.647V15.948l1.154,0.185c12.862,2.061,25.451,8.918,37.222,20.027
	c-13.142,5.463-25.961,11.64-38.377,18.488C262.724,54.648,262.724,54.647,262.725,54.647z M246.869,16.134l1.154-0.185v47.225
	c-21.959,13.406-42.466,28.963-61.038,46.376c-0.3,0.281-0.601,0.564-0.9,0.845c-1.044,0.986-2.085,1.975-3.116,2.973
	c-0.561,0.542-1.116,1.087-1.673,1.632c-0.839,0.822-1.68,1.641-2.51,2.471c-1.137,1.134-2.261,2.279-3.382,3.428
	c-0.263,0.27-0.533,0.535-0.795,0.806l-6.95-18.193c2.685-6.815,5.542-13.364,8.58-19.576
	C195.57,44.413,220.654,20.335,246.869,16.134z M58.146,118.402c16.438-23.545,37.055-44.069,61.116-60.623
	c26-17.889,54.912-30.307,85.348-36.84c-15.546,13.093-29.741,32.343-41.576,56.538c-1,2.043-1.981,4.118-2.944,6.223l-1.151-3.014
	c-0.558-1.457-1.438-2.711-2.542-3.697c-0.134-0.12-0.274-0.23-0.415-0.342c-0.052-0.041-0.101-0.087-0.154-0.127
	c-1.762-1.342-3.983-2.053-6.318-1.912c-4.154,0.252-7.619,3.134-8.625,7.171l-12.259,49.215
	C104.055,127.728,80.436,123.503,58.146,118.402z M122.545,217.242l28.64-114.98l12.572,32.908c1.177,3.086,3.817,5.302,7.06,5.925
	c3.247,0.626,6.524-0.457,8.767-2.891c1.458-1.583,2.934-3.151,4.424-4.707c0.756-0.789,1.526-1.567,2.29-2.35
	c0.718-0.735,1.43-1.475,2.156-2.205c1.082-1.087,2.178-2.164,3.276-3.238c0.396-0.388,0.788-0.78,1.187-1.167
	c1.346-1.304,2.703-2.597,4.072-3.88c0.133-0.125,0.264-0.251,0.398-0.376c36.802-34.409,81.874-61.467,130.469-78.327
	c0.318-0.111,0.638-0.216,0.958-0.325c1.685-0.58,3.372-1.15,5.065-1.705c0.696-0.227,1.396-0.445,2.094-0.669
	c1.352-0.434,2.703-0.87,4.061-1.288c1.218-0.375,2.441-0.733,3.662-1.095c0.875-0.259,1.748-0.529,2.625-0.781
	c6.562-1.892,13.18-3.604,19.845-5.126c51.833-11.839,104.571,14.785,125.459,63.317l0.924,2.452
	c-15.727-4.575-31.688-7.916-47.723-10.025c-0.294-0.076-0.592-0.14-0.896-0.18c-80.317-10.395-159.526,10.81-225.368,59.837
	c-0.763,0.567-1.524,1.137-2.283,1.711c-0.906,0.686-1.813,1.369-2.712,2.066c-1.709,1.32-3.404,2.66-5.09,4.016
	c-0.517,0.416-1.031,0.836-1.546,1.256c-1.9,1.547-3.791,3.108-5.661,4.701c-2.551,2.173-3.77,5.574-3.181,8.877
	c0.59,3.307,2.912,6.081,6.06,7.24l29.917,11.018L122.545,217.242z M263.713,374.792l-0.989-0.008v-32.418l34.131,12.57
	c-0.202,0.162-0.406,0.319-0.608,0.481c-1.359,1.085-2.726,2.152-4.097,3.211c-0.753,0.581-1.506,1.162-2.264,1.736
	c-0.824,0.625-1.655,1.238-2.484,1.853c-1.694,1.256-3.395,2.499-5.109,3.718c-0.116,0.082-0.23,0.164-0.346,0.245
	c-4.25,3.012-8.566,5.904-12.938,8.685C267.242,374.84,265.479,374.806,263.713,374.792z M260.535,323.208l2.189-0.589v-59.27
	h106.489l-0.017,1.013c-0.165,10.072-0.633,20.094-1.398,29.996L260.535,323.208z M262.725,248.649v-94.825l0.989-0.008
	c31.368-0.252,62.53-1.931,92.618-4.993l0.869-0.088l0.202,0.849c7.265,30.597,11.233,63.586,11.795,98.052l0.017,1.013H262.725z
	 M353.122,133.205l0.329,1.148l-1.188,0.118c-28.708,2.837-58.495,4.4-88.535,4.646l-1.005,0.008v-3.444
	c25.625-14.13,52.953-24.414,81.047-30.412C347.202,114.14,350.336,123.466,353.122,133.205z M369.103,132.635l-0.848,0.1
	l-0.228-0.823c-2.836-10.219-6.036-20.033-9.56-29.39c1.289-0.205,2.579-0.405,3.871-0.593c0.094-0.014,0.188-0.028,0.282-0.041
	c25.208-3.626,50.971-3.888,76.578-0.837c0.258,0.306,0.519,0.61,0.775,0.918c0.564,0.674,1.122,1.353,1.678,2.033
	c0.502,0.613,1.002,1.229,1.496,1.846c0.666,0.833,1.327,1.671,1.981,2.512c0.356,0.457,0.712,0.914,1.065,1.373
	c0.84,1.095,1.671,2.198,2.492,3.306c0.152,0.205,0.306,0.41,0.458,0.615c1.155,1.572,2.285,3.158,3.401,4.755
	C426.365,124.4,398.352,129.191,369.103,132.635z M162.684,394.977l-0.408-1.196l1.258-0.118
	c25.966-2.425,52.786-3.802,79.771-4.121c-18.702,9.512-38.228,17.007-58.231,22.325c-1.102,0.292-2.206,0.578-3.312,0.857
	c-0.941,0.238-1.882,0.475-2.825,0.703c-1.667,0.403-3.338,0.792-5.012,1.165c-0.562,0.126-1.123,0.25-1.685,0.372
	c-0.597,0.129-1.195,0.244-1.793,0.37C167.684,408.818,165.084,402.014,162.684,394.977z M158.641,379.376l-0.826,0.08l-0.228-0.798
	c-9.832-34.419-15.376-73.942-16.036-114.297l-0.017-1.013h106.49v111.434l-0.989,0.008
	C217.207,375.033,187.466,376.576,158.641,379.376z M155.654,418.04c-1.05,0.165-2.1,0.336-3.152,0.489
	c-1.031,0.149-2.065,0.283-3.097,0.42c-0.818,0.11-1.637,0.215-2.456,0.318c-22.301,2.766-44.993,2.918-67.589,0.492
	c-0.307-0.33-0.616-0.659-0.923-0.991c-0.602-0.653-1.198-1.31-1.792-1.968c-0.632-0.702-1.263-1.407-1.886-2.115
	c-0.559-0.634-1.11-1.274-1.661-1.913c-0.645-0.749-1.29-1.498-1.926-2.255c-0.487-0.58-0.966-1.164-1.447-1.748
	c-0.257-0.312-0.513-0.627-0.769-0.941c24.505-5.197,50.539-9.371,77.553-12.403l0.805-0.091l0.253,0.769
	C150.051,403.676,152.76,411.001,155.654,418.04z M141.535,248.649l0.017-1.013c0.111-6.804,0.36-13.548,0.736-20.23l105.737-28.439
	v49.682H141.535z M218.217,165.488c0.239-0.193,0.483-0.379,0.723-0.572c1.314-1.048,2.636-2.079,3.961-3.103
	c0.812-0.626,1.625-1.253,2.442-1.871c0.544-0.412,1.092-0.813,1.638-1.221c2.33-1.738,4.687-3.431,7.058-5.098
	c4.327,0.09,8.659,0.158,12.997,0.193l0.989,0.008v22.641L218.217,165.488z M15.068,263.349h111.765l0.016,0.981
	c0.643,40.573,6.115,80.539,15.823,115.576l0.31,1.122l-1.156,0.134c-29.016,3.355-56.796,7.984-82.708,13.744
	c-9.273-13.08-17.224-27.054-23.747-41.808c-0.045-0.101-0.102-0.194-0.151-0.292C22.91,324.829,16.007,294.547,15.068,263.349z
	 M22.639,377.957c1.199-2.789,2.596-5.426,4.18-7.898c6.099,12.2,13.193,23.934,21.244,35.093c0.167,0.23,0.336,0.459,0.503,0.689
	c1.098,1.511,2.213,3.012,3.345,4.501c0.322,0.424,0.647,0.846,0.973,1.269c1,1.297,2.012,2.586,3.038,3.866
	c0.228,0.284,0.447,0.577,0.676,0.86c-12.861-2.402-25.667-5.654-38.282-9.725C17.326,396.716,18.799,386.89,22.639,377.957z
	 M199.616,489.924c0.858-0.316,1.711-0.643,2.567-0.965c0.793,0.707,1.59,1.392,2.39,2.066
	C202.918,490.669,201.262,490.315,199.616,489.924z M248.024,496.051l-1.154-0.185c-9.954-1.595-19.744-6.063-29.119-13.148
	c10.331-4.403,20.433-9.232,30.272-14.482L248.024,496.051L248.024,496.051z M263.879,495.865l-1.154,0.185v-36.085
	c28.622-16.943,54.793-37.515,77.739-61.245l3.19,8.35c-2.849,7.34-5.906,14.37-9.146,20.993
	C315.177,467.585,290.093,491.665,263.879,495.865z M441.832,407.824c-15.534,19.059-33.978,35.735-54.816,49.396
	c-24.799,16.259-52.171,27.651-80.858,33.82c15.537-13.093,29.724-32.335,41.553-56.518c1.207-2.468,2.383-4.997,3.54-7.56
	l4.881,12.775c1.484,3.885,5.258,6.319,9.427,6.078c4.153-0.25,7.619-3.13,8.628-7.171l10.143-40.721
	C404.204,400.616,423.455,403.928,441.832,407.824z M392.527,303.182l-28.64,114.98l-12.571-32.907
	c-1.177-3.086-3.816-5.301-7.059-5.925c-3.246-0.626-6.524,0.455-8.768,2.891c-1.466,1.591-2.95,3.168-4.447,4.732
	c-0.284,0.297-0.574,0.589-0.859,0.885c-1.273,1.321-2.553,2.636-3.849,3.936c-0.176,0.176-0.352,0.35-0.528,0.526
	c-37.839,37.831-85.007,67.272-136.478,85.439c-1.165,0.41-2.336,0.81-3.506,1.208c-0.723,0.247-1.446,0.496-2.171,0.738
	c-1.584,0.529-3.172,1.046-4.764,1.555c-0.311,0.1-0.622,0.2-0.934,0.298c-1.783,0.564-3.571,1.116-5.366,1.654
	c-7.816,2.346-15.709,4.449-23.676,6.269C97.077,501.297,44.34,474.677,23.452,426.146l-0.924-2.453
	c17.018,4.95,34.308,8.457,51.67,10.521c0.26,0.059,0.517,0.131,0.784,0.162c12.03,1.407,24.025,2.103,35.963,2.102
	c14.921-0.001,29.734-1.108,44.36-3.26c0.378-0.055,0.755-0.11,1.133-0.167c1.27-0.191,2.538-0.388,3.805-0.596
	c0.715-0.117,1.429-0.242,2.144-0.365c1.814-0.31,3.624-0.636,5.432-0.98c0.586-0.112,1.173-0.216,1.758-0.331
	c0.265-0.052,0.529-0.11,0.794-0.163c1.163-0.231,2.325-0.47,3.486-0.714c0.632-0.134,1.265-0.273,1.896-0.411
	c44.492-9.689,86.811-29.363,124.522-58.266c0.554-0.423,1.11-0.842,1.661-1.269c0.753-0.585,1.501-1.178,2.251-1.771
	c1.02-0.804,2.035-1.615,3.047-2.432c0.581-0.47,1.162-0.939,1.741-1.414c1.621-1.329,3.235-2.668,4.834-4.03
	c2.55-2.173,3.77-5.573,3.181-8.876c-0.589-3.307-2.91-6.082-6.06-7.242l-29.916-11.017L392.527,303.182z M495.677,248.649H383.914
	l-0.016-0.981c-0.553-34.842-4.5-68.312-11.731-99.484l-0.251-1.082l1.102-0.133c31.049-3.734,60.648-8.918,88.074-15.421
	C482.406,166.777,494.407,207.098,495.677,248.649z"/>
<g>
</g>
<g>
</g>
<g>
</g>
<g>
</g>
<g>
</g>
<g>
</g>
<g>
</g>
<g>
</g>
<g>
</g>
<g>
</g>
<g>
</g>
<g>
</g>
<g>
</g>
<g>
</g>
<g>
</g>
</svg>
