<svg id="Capa_1" enable-background="new 0 0 512 512" height="512" viewBox="0 0 512 512" width="512" xmlns="http://www.w3.org/2000/svg"><g><g><g><path d="m500.854 171.925-17.434 17.435c-4.976 4.976-13.089 4.774-17.83-.428-51.906-56.949-126.643-92.734-209.59-92.734s-157.684 35.785-209.59 92.734c-4.741 5.201-12.854 5.404-17.83.428l-17.435-17.435c-4.64-4.64-4.875-12.138-.44-16.974 60.89-66.39 148.314-108.074 245.295-108.074s184.405 41.684 245.294 108.074c4.435 4.836 4.2 12.335-.44 16.974z" fill="#bed8fb"/></g><g><path d="m256 145.518c-69.793 0-132.563 30.685-175.524 79.283-4.331 4.9-4.139 12.315.485 16.94l17.459 17.459c5.027 5.027 13.294 4.809 17.956-.56 33.921-39.062 83.943-63.802 139.624-63.802s105.703 24.741 139.624 63.802c4.662 5.368 12.929 5.587 17.956.56l17.459-17.459c4.625-4.624 4.817-12.04.485-16.94-42.961-48.598-105.731-79.283-175.524-79.283z" fill="#bed8fb"/></g><g><path d="m256 244.159c-42.799 0-81.039 19.933-105.917 50.997-3.961 4.945-3.655 12.052.825 16.532l17.586 17.586c5.337 5.337 14.077 4.576 18.629-1.445 15.767-20.854 40.775-34.35 68.877-34.35s53.111 13.496 68.877 34.35c4.552 6.021 13.292 6.782 18.629 1.445l17.586-17.586c4.48-4.48 4.786-11.587.825-16.532-24.878-31.064-63.118-50.997-105.917-50.997z" fill="#bed8fb"/></g><g><circle cx="256" cy="379.789" fill="#9dc6fb" r="36.99"/></g><g><g><path d="m286.103 247.537c-12.247 17.333-25.78 32.904-40.156 46.533 3.299-.384 6.652-.591 10.053-.591 28.102 0 53.111 13.496 68.877 34.35 4.552 6.021 13.292 6.782 18.629 1.445l17.586-17.586c4.48-4.48 4.786-11.587.825-16.532-18.865-23.557-45.419-40.703-75.814-47.619z" fill="#9dc6fb"/></g><g><path d="m501.294 154.951c-42.381-46.21-97.625-80.429-159.992-96.975 1.832 16.3 1.728 33.521-.349 51.239 48.395 15.226 91.245 43.082 124.636 79.717 4.741 5.201 12.854 5.404 17.83.428l17.435-17.435c4.64-4.639 4.875-12.138.44-16.974z" fill="#9dc6fb"/></g><g><path d="m330.617 157.705c-4.712 15.314-10.818 30.698-18.337 45.902 32.642 10.453 61.373 29.733 83.344 55.034 4.662 5.368 12.929 5.587 17.956.56l17.459-17.459c4.625-4.624 4.817-12.04.485-16.94-26.911-30.442-61.594-53.852-100.907-67.097z" fill="#9dc6fb"/></g></g></g><g><g><path d="m388.119 460.959 62.626-48.035c4.984-3.823 7.907-9.748 7.907-16.029v-99.272c0-8.453-5.263-16.012-13.19-18.946l-62.626-23.178c-4.525-1.675-9.499-1.675-14.024 0l-62.626 23.178c-7.927 2.934-13.19 10.493-13.19 18.946v99.272c0 6.282 2.922 12.206 7.907 16.029l62.626 48.035c7.253 5.563 17.338 5.563 24.59 0z" fill="#ffe07d"/></g><g><path d="m334.753 427.971c-5.245 0-10.412-.329-15.486-.962l44.263 33.95c7.253 5.563 17.337 5.563 24.59 0l62.626-48.035c4.984-3.823 7.907-9.748 7.907-16.03v-92.823c-.001 68.428-55.473 123.9-123.9 123.9z" fill="#ffd064"/></g><g><circle cx="375.824" cy="354.576" fill="#b3e59f" r="50.504"/></g></g><g><path d="m506.819 149.883c-28.413-30.978-61.795-56.159-99.22-74.845-3.704-1.849-8.209-.346-10.059 3.359-1.85 3.706-.346 8.209 3.36 10.06 35.779 17.864 67.697 41.942 94.867 71.565 1.711 1.865 1.616 4.762-.218 6.597l-17.428 17.437c-.938.937-2.183 1.435-3.507 1.408-1.34-.03-2.58-.597-3.485-1.587-27.034-29.664-59.199-53.049-95.603-69.504-37.696-17.038-77.91-25.677-119.526-25.677s-81.83 8.639-119.525 25.678c-36.404 16.455-68.57 39.84-95.598 69.497-.911.997-2.151 1.563-3.491 1.594-1.314.024-2.57-.471-3.506-1.407l-17.43-17.439c-1.833-1.834-1.928-4.731-.216-6.597 30.212-32.947 66.098-58.909 106.66-77.164 41.985-18.897 86.768-28.479 133.106-28.479 39.053 0 77.253 6.875 113.536 20.433 3.883 1.452 8.201-.519 9.65-4.4 1.45-3.88-.52-8.2-4.4-9.65-37.968-14.188-77.934-21.382-118.786-21.382-48.475 0-95.329 10.026-139.26 29.799-42.43 19.096-79.963 46.25-111.558 80.703-7.157 7.801-6.865 19.811.662 27.34l17.43 17.439c3.862 3.863 8.998 5.942 14.453 5.798 5.395-.122 10.58-2.481 14.232-6.479 25.65-28.145 56.163-50.33 90.695-65.94 35.74-16.155 73.876-24.346 113.347-24.346s77.607 8.191 113.347 24.346c34.532 15.609 65.046 37.794 90.701 65.946 3.646 3.991 8.831 6.35 14.227 6.472.155.004.309.005.463.005 5.284 0 10.237-2.05 13.991-5.804l17.428-17.437c7.526-7.529 7.817-19.539.661-27.339z"/><path d="m448.069 271.639-26.508-9.811 14.779-14.779c7.4-7.4 7.755-19.355.806-27.22-45.967-51.989-111.992-81.806-181.146-81.806-49.054 0-96.314 14.672-136.67 42.428-3.413 2.347-4.277 7.016-1.93 10.429s7.017 4.276 10.429 1.93c37.844-26.029 82.165-39.787 128.171-39.787 64.858 0 126.787 27.972 169.908 76.741 1.712 1.937 1.636 4.872-.173 6.68l-17.453 17.454c-1.306 1.303-2.835 1.452-3.619 1.423-.768-.026-2.228-.27-3.379-1.592-36.63-42.19-89.583-66.388-145.283-66.388s-108.653 24.197-145.274 66.378c-1.16 1.331-2.62 1.575-3.388 1.601-.788.026-2.313-.12-3.614-1.418l-17.459-17.459c-1.809-1.808-1.885-4.743-.178-6.674 4.923-5.56 10.083-10.861 15.335-15.753 3.031-2.823 3.199-7.569.376-10.599-2.825-3.034-7.57-3.2-10.599-.377-5.603 5.219-11.101 10.866-16.347 16.792-6.948 7.863-6.593 19.818.807 27.218l17.464 17.464c3.721 3.714 8.809 5.808 14.052 5.808.228 0 .457-.004.685-.012 5.442-.189 10.608-2.646 14.183-6.749 33.779-38.907 82.604-61.222 133.957-61.222 43.473 0 85.131 15.996 117.392 44.515-2.438.214-4.854.75-7.183 1.608l-31.696 11.731c-23.36-15.399-50.411-23.536-78.513-23.536-43.648 0-84.385 19.613-111.762 53.803-6.386 7.961-5.799 19.369 1.368 26.536l17.587 17.576c3.712 3.713 8.726 5.777 13.933 5.777.452 0 .905-.016 1.359-.047 5.775-.399 11.105-3.297 14.622-7.95 15.071-19.936 37.995-31.37 62.892-31.37 10.254 0 20.154 1.926 29.498 5.726v39.816c-7.858-6.976-18.189-11.224-29.498-11.224-24.532 0-44.49 19.958-44.49 44.49s19.958 44.49 44.49 44.49c12.946 0 24.615-5.562 32.753-14.417 1.844 3.481 4.413 6.58 7.59 9.012l62.625 48.037c4.963 3.806 10.91 5.71 16.858 5.71 5.947 0 11.895-1.903 16.858-5.71l62.625-48.037c6.791-5.208 10.845-13.424 10.845-21.979v-56.946c0-4.142-3.358-7.499-7.499-7.499s-7.499 3.357-7.499 7.499v56.946c0 3.922-1.859 7.689-4.974 10.077l-62.625 48.037c-4.551 3.492-10.909 3.49-15.46 0l-62.631-48.041c-3.111-2.381-4.968-6.146-4.968-10.073v-99.273c0-5.288 3.334-10.077 8.292-11.915l62.617-23.175c2.85-1.05 5.991-1.051 8.832-.003l62.618 23.175c4.965 1.843 8.3 6.632 8.3 11.918v7.33c0 4.142 3.358 7.499 7.499 7.499s7.499-3.357 7.499-7.499v-7.33c0-11.526-7.265-21.967-18.086-25.984zm-192.069 137.641c-16.262 0-29.491-13.229-29.491-29.491s13.23-29.491 29.491-29.491 29.491 13.23 29.491 29.491c0 16.262-13.229 29.491-29.491 29.491zm47.579-137.639c-8.693 3.223-15.083 10.604-17.261 19.362-9.701-3.333-19.858-5.02-30.319-5.02-29.641 0-56.926 13.604-74.857 37.324-1.232 1.63-2.842 1.972-3.692 2.03-.799.058-2.33-.05-3.653-1.373l-17.587-17.576c-1.747-1.747-1.864-4.56-.269-6.549 24.519-30.622 60.989-48.184 100.058-48.184 21.318 0 41.965 5.223 60.493 15.206z"/><path d="m432.668 311.883c-2.928-2.928-7.677-2.928-10.606 0l-3.512 3.512c-10.61-11.561-25.835-18.823-42.726-18.823-31.984 0-58.004 26.021-58.004 58.005 0 31.983 26.021 58.004 58.004 58.004s58.004-26.021 58.004-58.004c0-9.628-2.371-18.707-6.54-26.707l5.379-5.379c2.93-2.931 2.93-7.678.001-10.608zm-13.838 42.693c0 23.713-19.292 43.005-43.005 43.005s-43.005-19.292-43.005-43.005 19.292-43.006 43.005-43.006c12.757 0 24.228 5.589 32.11 14.44l-32.11 32.11-13.836-13.837c-2.928-2.928-7.677-2.928-10.606 0-2.929 2.93-2.929 7.677 0 10.607l19.139 19.139c1.464 1.464 3.384 2.196 5.303 2.196s3.839-.732 5.303-2.196l34.844-34.844c1.839 4.783 2.858 9.969 2.858 15.391z"/></g></g></svg>