<?xml version="1.0" encoding="UTF-8" standalone="no"?>
<!-- Created with Inkscape (http://www.inkscape.org/) -->

<svg
   version="1.1"
   id="svg3384"
   xml:space="preserve"
   width="682.66669"
   height="682.66669"
   viewBox="0 0 682.66669 682.66669"
   xmlns="http://www.w3.org/2000/svg"
   xmlns:svg="http://www.w3.org/2000/svg"><defs
     id="defs3388"><clipPath
       clipPathUnits="userSpaceOnUse"
       id="clipPath3398"><path
         d="M 0,512 H 512 V 0 H 0 Z"
         id="path3396" /></clipPath></defs><g
     id="g3390"
     transform="matrix(1.3333333,0,0,-1.3333333,0,682.66667)"><g
       id="g3392"><g
         id="g3394"
         clip-path="url(#clipPath3398)"><g
           id="g3400"
           transform="translate(444.1548,240.6123)"><path
             d="M 0,0 -21.209,21.202 4.008,46.409 c 5.855,5.853 15.346,5.853 21.201,-10e-4 5.859,-5.856 5.858,-15.353 0,-21.209 z"
             style="fill:#b5adb6;fill-opacity:1;fill-rule:nonzero;stroke:none"
             id="path3402" /></g><g
           id="g3404"
           transform="translate(149.9624,156.8105)"><path
             d="M 0,0 -21.203,-21.209 -46.409,4.008 c -5.854,5.855 -5.853,15.346 0,21.202 5.857,5.858 15.354,5.857 21.21,-0.001 z"
             style="fill:#b5adb6;fill-opacity:1;fill-rule:nonzero;stroke:none"
             id="path3406" /></g><g
           id="g3408"
           transform="translate(363.0645,99.835)"><path
             d="m 0,0 h -82.435 v 28.791 c 0,4.388 3.557,7.944 7.944,7.944 H -7.944 C -3.557,36.735 0,33.179 0,28.791 Z"
             style="fill:#b5adb6;fill-opacity:1;fill-rule:nonzero;stroke:none"
             id="path3410" /></g><g
           id="g3412"
           transform="translate(420.0259,112.1035)"><path
             d="m 0,0 -148.253,-9.745 c -20.783,-1.366 -38.392,15.117 -38.392,35.936 0,13.088 7.091,25.154 18.545,31.495 16.809,9.305 35.858,18.647 57.116,27.262 31.701,12.847 61.259,21.215 87.014,26.748 8.439,1.813 16.792,-3.383 18.831,-11.768 L 14.398,19.604 C 16.73,10.018 9.848,0.647 0,0 M 84.131,-20.242 C 67.94,35.328 51.75,90.898 35.559,146.468 32.4,157.309 22.092,164.452 10.827,163.63 -43.546,159.66 -115.594,146.807 -191.625,109.936 -221.191,95.597 -246.85,79.813 -268.775,64.259 -312.045,31.59 -348.231,-9.52 -375.14,-56.579 l -7.59,-13.275 -10.046,-15 423.064,15 5.78,12.366 c 6.879,14.717 21.66,24.123 37.911,24.123 6.864,0 11.879,6.481 10.152,13.123"
             style="fill:#fee97d;fill-opacity:1;fill-rule:nonzero;stroke:none"
             id="path3414" /></g><g
           id="g3416"
           transform="translate(504.1577,91.8604)"><path
             d="m 0,0 c -16.191,55.571 -32.382,111.142 -48.573,166.711 -3.151,10.812 -13.415,17.987 -24.647,17.168 -1.952,-0.142 -3.934,-0.299 -5.931,-0.465 0.209,-0.558 0.409,-1.122 0.578,-1.703 C -62.382,126.142 -46.191,70.571 -30,15 -28.276,8.368 -33.276,1.895 -40.127,1.878 -56.053,1.84 -70.748,-6.593 -77.492,-21.021 c -3.875,-8.291 -12.2,-13.59 -21.353,-13.59 h -359.41 c -0.335,-0.577 -0.685,-1.146 -1.016,-1.726 l -7.591,-13.274 -10.046,-15 423.064,15 6.352,13.59 c 6.744,14.428 21.439,22.861 37.365,22.899 C -3.276,-13.105 1.724,-6.632 0,0"
             style="fill:#fedf30;fill-opacity:1;fill-rule:nonzero;stroke:none"
             id="path3418" /></g><g
           id="g3420"
           transform="translate(452.9551,7.5)"><path
             d="m 0,0 h -445.455 c 0,19.191 15.558,34.75 34.749,34.75 H 0 c 9.596,0 17.375,-7.779 17.375,-17.375 C 17.375,7.779 9.596,0 0,0"
             style="fill:#b5adb6;fill-opacity:1;fill-rule:nonzero;stroke:none"
             id="path3422" /></g><g
           id="g3424"
           transform="translate(452.9551,42.249)"><path
             d="m 0,0 h -30 c 9.596,0 17.375,-7.778 17.375,-17.374 0,-9.597 -7.779,-17.375 -17.375,-17.375 H 0 c 9.596,0 17.375,7.778 17.375,17.375 C 17.375,-7.778 9.596,0 0,0"
             style="fill:#a79ba7;fill-opacity:1;fill-rule:nonzero;stroke:none"
             id="path3426" /></g><g
           id="g3428"
           transform="translate(264.5498,102.6084)"><path
             d="m 0,0 c -0.001,0.001 -0.003,0.001 -0.004,0.002 -17.479,2.357 -31.164,17.332 -31.164,35.685 0,13.087 7.09,25.153 18.544,31.494 16.81,9.305 35.858,18.647 57.116,27.262 31.701,12.846 61.259,21.216 87.015,26.747 4.08,0.877 8.134,0.103 11.471,-1.867 0.004,0.001 0.008,0.003 0.013,0.004 -12.539,16.444 -22.932,18.288 -27.705,18.403 -2.42,0.058 -6.204,-0.491 -13.779,-1.54 C 80.896,133.337 70.275,132.049 14.492,109.443 -6.766,100.828 -25.814,91.486 -42.624,82.181 -54.078,75.84 -61.168,63.774 -61.168,50.687 -60.08,44.299 -57.427,34.478 -50.313,24.926 -33.083,1.788 -4.549,0.183 0,0"
             style="fill:#fedf30;fill-opacity:1;fill-rule:nonzero;stroke:none"
             id="path3430" /></g><g
           id="g3432"
           transform="translate(468.04,288.1899)"><path
             d="m 0,0 26.17,31.47 c 6.65,7.99 10.29,18.07 10.29,28.47 0,12.29 -4.98,23.42 -13.04,31.47 -8.05,8.06 -19.18,13.04 -31.47,13.04 h -80.97 c -30.89,0 -55.93,25.04 -55.93,55.93 0,15.45 6.26,29.43 16.38,39.55 10.12,10.12 24.11,16.38 39.55,16.38 H 36.46"
             style="fill:none;stroke:#000000;stroke-width:15;stroke-linecap:round;stroke-linejoin:round;stroke-miterlimit:10;stroke-dasharray:none;stroke-opacity:1"
             id="path3434" /></g><g
           id="g3436"
           transform="translate(436.6001,275.46)"><path
             d="m 0,0 11.56,11.56 c 5.86,5.85 15.35,5.85 21.2,0 2.93,-2.93 4.4,-6.77 4.4,-10.6 0,-3.84 -1.47,-7.68 -4.4,-10.61 l -12.31,-12.3"
             style="fill:none;stroke:#000000;stroke-width:15;stroke-linecap:round;stroke-linejoin:round;stroke-miterlimit:10;stroke-dasharray:none;stroke-opacity:1"
             id="path3438" /></g><g
           id="g3440"
           transform="translate(117.0098,147.3604)"><path
             d="m 0,0 -13.46,13.46 c -5.85,5.85 -5.85,15.35 0,21.199 2.93,2.931 6.77,4.401 10.61,4.401 3.84,0 7.68,-1.47 10.6,-4.401 L 22.57,19.84"
             style="fill:none;stroke:#000000;stroke-width:15;stroke-linecap:round;stroke-linejoin:round;stroke-miterlimit:10;stroke-dasharray:none;stroke-opacity:1"
             id="path3442" /></g><g
           id="g3444"
           transform="translate(280.6299,102.9404)"><path
             d="m 0,0 v 25.689 c 0,4.38 3.56,7.941 7.94,7.941 h 66.55 c 4.39,0 7.94,-3.561 7.94,-7.941 V 5.42"
             style="fill:none;stroke:#000000;stroke-width:15;stroke-linecap:round;stroke-linejoin:round;stroke-miterlimit:10;stroke-dasharray:none;stroke-opacity:1"
             id="path3446" /></g><g
           id="g3448"
           transform="translate(125.1685,42.25)"><path
             d="m 0,0 h 327.787 c 9.595,0 17.375,-7.779 17.375,-17.375 0,-9.596 -7.78,-17.375 -17.375,-17.375 h -445.455 c 0,19.191 15.558,34.75 34.749,34.75 H -30"
             style="fill:none;stroke:#000000;stroke-width:15;stroke-linecap:round;stroke-linejoin:round;stroke-miterlimit:10;stroke-dasharray:none;stroke-opacity:1"
             id="path3450" /></g><g
           id="g3452"
           transform="translate(420.0259,112.1035)"><path
             d="m 0,0 -148.253,-9.745 c -20.783,-1.366 -38.392,15.117 -38.392,35.936 0,13.088 7.091,25.154 18.545,31.495 16.809,9.305 35.858,18.647 57.116,27.262 31.701,12.847 61.259,21.215 87.014,26.748 8.439,1.813 16.792,-3.383 18.831,-11.768 L 14.398,19.604 C 16.73,10.018 9.848,0.647 0,0 Z m 30.288,-69.854 5.78,12.366 c 6.879,14.717 21.66,24.123 37.911,24.123 6.864,0 11.879,6.481 10.152,13.123 C 67.94,35.328 51.75,90.898 35.559,146.468 32.4,157.309 22.092,164.452 10.827,163.63 c -17.79,-1.299 -37.473,-3.549 -58.569,-7.28 m -28.975,-5.911 c -35.859,-8.305 -74.83,-21.068 -114.908,-40.503 C -221.191,95.597 -246.85,79.813 -268.775,64.259 -312.045,31.59 -348.231,-9.52 -375.14,-56.579 l -7.59,-13.275"
             style="fill:none;stroke:#000000;stroke-width:15;stroke-linecap:round;stroke-linejoin:round;stroke-miterlimit:10;stroke-dasharray:none;stroke-opacity:1"
             id="path3454" /></g></g></g></g></svg>
