<svg id="Artboard_30" height="512" viewBox="0 0 64 64" width="512" xmlns="http://www.w3.org/2000/svg" data-name="Artboard 30"><path d="m8 58v-6-17l4-33h29l4 33v17 6z" fill="#ccc"/><path d="m41.485 6-.485-4h-29l-.485 4z" fill="#ccc"/><path d="m16 35 4-33h-6l-4 33v17 6h6v-6z" fill="#f4f4f5"/><path d="m38 35-4-33h6l4 33v17 6h-6v-6z" fill="#8c8c8c"/><path d="m21 2h12v56h-12z" fill="#f4f4f5"/><path d="m8 51h37v2h-37z" fill="#515151"/><path d="m45 47h11v4h-11z" fill="#515151"/><path d="m11.03 10h-9.03v4l7.697 6.998z" fill="#515151"/><rect fill="#84ade9" height="33" rx="4" width="8" x="23" y="13"/><path d="m23 27v15a4 4 0 0 0 8 0v-15z" fill="#6a84cc"/><g fill="#5367a1"><path d="m27 38h4v2h-4z"/><path d="m27 33h4v2h-4z"/><path d="m27 28h4v2h-4z"/><path d="m27 23h4v2h-4z"/><path d="m27 18h4v2h-4z"/></g><path d="m41 2 15.137 2.671a6 6 0 0 1 3.2 1.666l.906.906a6 6 0 0 1 1.757 4.242v20.836a4 4 0 0 1 -2.477 3.7l-14.523 5.979v-6l10.266-4.186a2.8 2.8 0 0 0 1.734-2.589v-14.585a4.2 4.2 0 0 0 -1.23-2.97l-.634-.634a4.2 4.2 0 0 0 -2.236-1.166l-11.184-1.961z" fill="#414141"/><path d="m11.394 7h30.212l-.242-2h-29.728z" fill="#515151" opacity=".5"/><path d="m60.243 7.243-.906-.906a6 6 0 0 0 -3.2-1.666l-11.01-1.943a2.477 2.477 0 0 0 2.035 3.249l13.588 1.852a5.98 5.98 0 0 0 -.507-.586z" fill="#707070"/><path d="m45 58h-37l-2 4h41z" fill="#414141"/><path d="m13 60h33l-1-2h-34a2 2 0 0 0 2 2z" fill="#515151"/><path d="m47 47a2 2 0 0 0 2 2h7v-2z" fill="#707070"/><path d="m9.894 19.372-7.894-6.68v1.308l7.697 6.997z" fill="#707070"/><path d="m60.95 6.536-.906-.906a6.959 6.959 0 0 0 -3.733-1.943l-15.137-2.672a1.022 1.022 0 0 0 -.174-.015h-29a1 1 0 0 0 -.993.88l-.863 7.12h-8.144a1 1 0 0 0 -1 1v4a1 1 0 0 0 .327.74l7.315 6.65-1.635 13.49a.955.955 0 0 0 -.007.12v22.764l-1.895 3.789a1 1 0 0 0 .895 1.447h41a1 1 0 0 0 .9-1.447l-1.9-3.789v-5.764h10a1 1 0 0 0 1-1v-4a1 1 0 0 0 -1-1h-10v-3.33l13.9-5.725a4.985 4.985 0 0 0 3.1-4.624v-20.836a6.954 6.954 0 0 0 -2.05-4.949zm-16.95 46.464v4h-35v-4h6v-2h-6v-15.939l3.4-28.061h28.2l3.4 28.061v15.939h-27v2zm1.951-18.467-3.08-25.406 9.852 1.728a3.179 3.179 0 0 1 1.706.888l.634.634a3.18 3.18 0 0 1 .937 2.263v14.585a1.8 1.8 0 0 1 -1.111 1.663zm-5.837-31.533.242 2h-27.712l.242-2zm-31.176 15.956-5.938-5.398v-2.558h6.9zm-1.32 42.044 1-2h35.764l1 2zm47.382-13v2h-9v-2zm6-15.679a2.988 2.988 0 0 1 -1.858 2.779l-13.142 5.407v-3.835l9.647-3.933a3.789 3.789 0 0 0 2.353-3.514v-14.585a5.165 5.165 0 0 0 -1.523-3.677l-.634-.634a5.169 5.169 0 0 0 -2.774-1.444l-10.449-1.833-.465-3.833 13.808 2.437a4.973 4.973 0 0 1 2.667 1.388l.906.906a4.967 4.967 0 0 1 1.464 3.535z"/><path d="m27 47a5.006 5.006 0 0 0 5-5v-25a5 5 0 0 0 -10 0v25a5.006 5.006 0 0 0 5 5zm-3-30a3 3 0 0 1 6 0v1h-3v2h3v3h-3v2h3v3h-3v2h3v3h-3v2h3v3h-3v2h3v2a3 3 0 0 1 -6 0z"/></svg>