<svg height="512" viewBox="0 0 88 88" width="512" xmlns="http://www.w3.org/2000/svg"><g id="Kitchen"><path d="m33 54a3.0033 3.0033 0 0 1 -3-3v-5h10v5a3.0033 3.0033 0 0 1 -3 3z" fill="#da684e"/><path d="m13 54a5.0059 5.0059 0 0 1 -5-5v-3h10v3a5.0059 5.0059 0 0 1 -5 5z" fill="#da684e"/><path d="m50 54a2.0027 2.0027 0 0 1 -2-2v-3h10v3a2.0027 2.0027 0 0 1 -2 2z" fill="#da684e"/><path d="m62 64h12v18h-12z" fill="#5e5044"/><path d="m74 64h12v18h-12z" fill="#7f7266"/><path d="m62 54h24v10h-24z" fill="#a0968c"/><path d="m58 2h14v22h-14z" fill="#a0968c"/><path d="m28 35v-4l9-8v-21h14v21l9 8v4z" fill="#fff4e3"/><path d="m28 31h31.997v4h-31.997z" fill="#da684e"/><path d="m72 2h14v22h-14z" fill="#7f7266"/><path d="m69 15a1 1 0 0 1 -1-1v-2a1 1 0 0 1 2 0v2a1 1 0 0 1 -1 1z" fill="#7f7266"/><path d="m75 15a1 1 0 0 1 -1-1v-2a1 1 0 0 1 2 0v2a1 1 0 0 1 -1 1z" fill="#5e5044"/><path d="m16 2h14v22h-14z" fill="#a0968c"/><path d="m2 2h14v22h-14z" fill="#7f7266"/><path d="m19 15a1 1 0 0 0 1-1v-2a1 1 0 0 0 -2 0v2a1 1 0 0 0 1 1z" fill="#7f7266"/><path d="m13 15a1 1 0 0 0 1-1v-2a1 1 0 0 0 -2 0v2a1 1 0 0 0 1 1z" fill="#5e5044"/><path d="m2 68h24v14h-24z" fill="#5e5044"/><path d="m2 54h24v14h-24z" fill="#7f7266"/><path d="m26 54h36v28h-36z" fill="#fff4e3"/><path d="m32 64h24v18h-24z" fill="#7f7266"/><path d="m32 78h24v4h-24z" fill="#5e5044"/><circle cx="52" cy="59" fill="#7f7266" r="2"/><circle cx="44" cy="59" fill="#7f7266" r="2"/><circle cx="36" cy="59" fill="#7f7266" r="2"/><path d="m2 82h84v4h-84z" fill="#44352d"/><g fill="#302b25"><path d="m27 31v4a1 1 0 0 0 1 1h32a1 1 0 0 0 1-1v-4a1.1068 1.1068 0 0 0 -.3359-.7471l-8.6641-7.7021v-20.5508a1 1 0 0 0 -1-1h-14a1 1 0 0 0 -1 1v20.5508l-8.6641 7.7021a1.024 1.024 0 0 0 -.3359.7471zm10.6641-7.2529a.9988.9988 0 0 0 .3359-.7471v-20h12v20a.9988.9988 0 0 0 .3359.7471l7.0341 6.2529h-15.37a1 1 0 0 0 0 2h17v2h-30v-2h8a1 1 0 0 0 0-2h-6.37z"/><path d="m86 1h-28a1 1 0 0 0 -1 1v22a1 1 0 0 0 1 1h28a1 1 0 0 0 1-1v-22a1 1 0 0 0 -1-1zm-27 2h12v20h-12zm26 20h-12v-20h12z"/><path d="m69 11a1 1 0 0 0 -1 1v2a1 1 0 0 0 2 0v-2a1 1 0 0 0 -1-1z"/><path d="m75 15a1 1 0 0 0 1-1v-2a1 1 0 0 0 -2 0v2a1 1 0 0 0 1 1z"/><path d="m2 25h28a1 1 0 0 0 1-1v-22a1 1 0 0 0 -1-1h-28a1 1 0 0 0 -1 1v22a1 1 0 0 0 1 1zm27-2h-12v-20h12zm-26-20h12v20h-12z"/><path d="m13 11a1 1 0 0 0 -1 1v2a1 1 0 0 0 2 0v-2a1 1 0 0 0 -1-1z"/><path d="m19 15a1 1 0 0 0 1-1v-2a1 1 0 0 0 -2 0v2a1 1 0 0 0 1 1z"/><path d="m86 53h-2v-9a3 3 0 0 0 -6 0v2a1 1 0 0 0 2 0v-2a1 1 0 0 1 2 0v9h-23.1843a2.9635 2.9635 0 0 0 .1843-1v-2h3a1 1 0 0 0 0-2h-14a1 1 0 0 0 -1 1v3a2.966 2.966 0 0 0 .1843 1h-6.74a3.9545 3.9545 0 0 0 .5557-2v-2h1a1 1 0 0 0 0-2h-1v-1a1 1 0 0 0 -1-1h-10a1 1 0 0 0 -1 1v1h-1a1 1 0 0 0 0 2h1v2a3.9545 3.9545 0 0 0 .5562 2h-12.0962a5.9688 5.9688 0 0 0 1.54-4v-3a1 1 0 0 0 -1-1h-3.5859l1.2929-1.293a1 1 0 0 0 -1.414-1.414l-2.7071 2.707h-3.5859a1 1 0 0 0 -1 1v3a5.9688 5.9688 0 0 0 1.54 4h-6.54a1 1 0 0 0 -1 1v32a1 1 0 0 0 1 1h16a1 1 0 0 0 0-2h-15v-2h82v2h-61a1 1 0 0 0 0 2h62a1 1 0 0 0 1-1v-7a1 1 0 0 0 -2 0v2h-10v-16h10v10a1 1 0 0 0 2 0v-21a1 1 0 0 0 -1-1zm-37-1v-2h8v2a1.0006 1.0006 0 0 1 -1 1h-6a1.0006 1.0006 0 0 1 -1-1zm-18-1v-4h8v4a2.0027 2.0027 0 0 1 -2 2h-4a2.0027 2.0027 0 0 1 -2-2zm-22-2v-2h8v2a4 4 0 0 1 -8 0zm-6 6h22v12h-22zm0 14h22v12h-22zm24-14h34v26h-4v-6a1 1 0 0 0 -2 0v2h-22v-12h22v6a1 1 0 0 0 2 0v-7a1 1 0 0 0 -1-1h-24a1 1 0 0 0 -1 1v17h-4zm6 26v-2h22v2zm40 0h-10v-16h10zm-10-18v-8h22v8z"/><path d="m16 60h-4a1 1 0 0 0 0 2h4a1 1 0 0 0 0-2z"/><path d="m75 58h-2a1 1 0 0 0 0 2h2a1 1 0 0 0 0-2z"/><path d="m16 74h-4a1 1 0 0 0 0 2h4a1 1 0 0 0 0-2z"/><path d="m76 72v2a1 1 0 0 0 2 0v-2a1 1 0 0 0 -2 0z"/><path d="m71 75a1 1 0 0 0 1-1v-2a1 1 0 0 0 -2 0v2a1 1 0 0 0 1 1z"/><path d="m52 62a3 3 0 1 0 -3-3 3.0033 3.0033 0 0 0 3 3zm0-4a1 1 0 1 1 -1 1 1.0006 1.0006 0 0 1 1-1z"/><path d="m44 62a3 3 0 1 0 -3-3 3.0033 3.0033 0 0 0 3 3zm0-4a1 1 0 1 1 -1 1 1.0006 1.0006 0 0 1 1-1z"/><path d="m36 62a3 3 0 1 0 -3-3 3.0033 3.0033 0 0 0 3 3zm0-4a1 1 0 1 1 -1 1 1.0006 1.0006 0 0 1 1-1z"/><path d="m50 67h-12a1 1 0 0 0 0 2h12a1 1 0 0 0 0-2z"/></g></g></svg>