<svg id="Layer_1" enable-background="new 0 0 74 74" viewBox="0 0 74 74" xmlns="http://www.w3.org/2000/svg"><g><g><g><path d="m9.35 66.44c-1.84 0-3.12-1.73-3.46-3.6-.31-1.67.21-2.93 1.28-3.15 1.96-.39 2.89 1.4 3.1 2.41.06.27-.11.54-.39.6-.27.06-.54-.11-.6-.39-.04-.2-.47-1.91-1.91-1.63-.46.09-.67.94-.48 1.96.23 1.25 1.17 3.02 2.81 2.73.27-.04.54.14.59.42s-.14.54-.42.59c-.18.05-.35.06-.52.06z"/></g></g><g><path d="m29.11 42.54c-.49.15-1.03.25-1.64.3-6.32.53-10.76 2.59-10.86 8.19v7.91 9.55h6.22 29.26 6.22v-17.46c-.1-5.6-4.55-7.66-10.86-8.19-.61-.05-1.15-.14-1.64-.29z" fill="#ff8fbc"/></g><g><path d="m58.3 68.87h-41.69c-.21 0-.38-.17-.38-.38v-17.46c.09-5.21 3.65-7.93 11.2-8.56.58-.05 1.09-.14 1.56-.29.04-.01.07-.02.11-.02l16.7.01c.04 0 .08.01.11.02.44.14.95.23 1.56.28 7.55.63 11.11 3.35 11.2 8.56v17.47c.01.2-.16.37-.37.37zm-41.32-.75h40.94v-17.09c-.09-4.74-3.43-7.22-10.52-7.81-.64-.05-1.18-.15-1.66-.29l-16.59-.01c-.51.15-1.05.25-1.66.3-7.09.59-10.43 3.08-10.52 7.82v17.08z"/></g><g><path d="m45.81 42.55c-1.92 2.51-4.95 4.1-8.34 4.1-3.4 0-6.43-1.63-8.36-4.11 2.68-.78 3.62-2.84 3.93-4.43h8.84c.32 1.58 1.27 3.65 3.93 4.44z" fill="#f5b379"/></g><g><path d="m37.47 47.03c-3.4 0-6.56-1.55-8.66-4.26-.08-.1-.1-.23-.06-.35s.13-.21.25-.24c2.5-.73 3.37-2.65 3.67-4.14.03-.18.19-.3.37-.3h8.84c.18 0 .33.13.37.3.31 1.49 1.19 3.43 3.67 4.16.12.04.21.13.25.24.04.12.02.25-.06.34-2.07 2.7-5.22 4.25-8.64 4.25zm-7.73-4.31c1.95 2.27 4.74 3.56 7.73 3.56 3.01 0 5.79-1.29 7.71-3.55-2.29-.88-3.23-2.71-3.6-4.25h-8.24c-.37 1.53-1.3 3.36-3.6 4.24z"/></g><g><path d="m47.56 27.05h-3.39v5.7h3.39c.4 0 .73-.33.73-.73v-4.23c.01-.41-.32-.74-.73-.74z" fill="#363d54"/></g><g><path d="m47.56 33.12h-3.39c-.21 0-.38-.17-.38-.38v-5.7c0-.21.17-.38.38-.38h3.39c.61 0 1.11.5 1.11 1.11v4.23c0 .63-.49 1.12-1.11 1.12zm-3.01-.75h3.02c.2 0 .36-.16.36-.36v-4.23c0-.2-.16-.36-.36-.36h-3.02z"/></g><g><g><path d="m29.45 31.71.36-.36-.36.36c-.05-.05-.13-.13-.19-.25l.91-.45z"/></g></g><g><g><path d="m42.65 11.56c-.04 0-.07 0-.11-.01-.27-.06-.45-.33-.39-.61.01-.05.01-.12.01-.2 0-2.61-2.12-4.73-4.73-4.73-2.6 0-4.72 2.12-4.72 4.73 0 .09 0 .14.01.19.06.27-.11.55-.39.61-.27.06-.55-.11-.61-.39-.02-.15-.02-.28-.02-.4 0-3.17 2.57-5.75 5.73-5.75 3.17 0 5.75 2.58 5.75 5.75 0 .12 0 .26-.03.42-.05.23-.26.39-.5.39z"/></g></g><g><path d="m27.35 27.05h3.39v5.7h-3.39c-.4 0-.73-.33-.73-.73v-4.23c-.01-.41.32-.74.73-.74z" fill="#363d54"/></g><g><path d="m30.74 33.12h-3.39c-.61 0-1.11-.5-1.11-1.11v-4.23c0-.61.5-1.11 1.11-1.11h3.39c.21 0 .38.17.38.38v5.7c-.01.2-.17.37-.38.37zm-3.39-5.69c-.2 0-.36.16-.36.36v4.23c0 .2.16.36.36.36h3.02v-4.95z"/></g><g><g><path d="m49.67 28.7c-.28 0-.51-.23-.51-.51v-5.98c0-6.46-5.26-11.72-11.72-11.72s-11.72 5.26-11.72 11.72v5.98c0 .28-.23.51-.51.51s-.51-.23-.51-.51v-5.98c0-7.02 5.71-12.74 12.74-12.74s12.74 5.71 12.74 12.74v5.98c0 .28-.23.51-.51.51z"/></g></g><g><path d="m53.52 49.66h-32.12c-.91 0-1.62.78-1.54 1.69l1.43 15.74c.07.8.74 1.41 1.54 1.41h29.27c.8 0 1.47-.61 1.54-1.41l1.43-15.74c.07-.91-.64-1.69-1.55-1.69z" fill="#1a4fa1"/></g><g><path d="m52.09 68.87h-29.26c-1 0-1.82-.75-1.91-1.75l-1.43-15.74c-.05-.54.13-1.07.49-1.47s.88-.63 1.42-.63h32.12c.54 0 1.06.23 1.42.63s.54.93.5 1.47l-1.43 15.74c-.1 1-.92 1.75-1.92 1.75zm-30.69-18.84c-.33 0-.64.14-.87.38-.22.25-.33.56-.3.9l1.43 15.74c.06.61.56 1.07 1.17 1.07h29.27c.61 0 1.11-.46 1.17-1.07l1.43-15.74c.03-.33-.08-.65-.3-.9s-.53-.38-.87-.38z"/></g><g><path d="m37.46 57.01c-2.08 0-3.76.93-3.76 2.07s1.68 2.07 3.76 2.07c2.07 0 3.76-.93 3.76-2.07 0-1.15-1.69-2.07-3.76-2.07z" fill="#ecedff"/></g><g><path d="m37.46 61.52c-2.32 0-4.13-1.07-4.13-2.44s1.81-2.44 4.13-2.44 4.13 1.07 4.13 2.44c0 1.36-1.81 2.44-4.13 2.44zm0-4.14c-2.02 0-3.38.88-3.38 1.69 0 .82 1.36 1.69 3.38 1.69s3.38-.88 3.38-1.69-1.36-1.69-3.38-1.69z"/></g><g><path d="m54.04 28.05v8.69h2.04v3.74l2.76-3.74h9.59v-8.69z" fill="#a9dcea"/></g><g><path d="m54.04 28.05v8.69h2.04v3.74l2.76-3.74h9.59v-8.69z" fill="#a9dcea"/></g><g><path d="m56.08 40.85c-.04 0-.08-.01-.12-.02-.15-.05-.26-.19-.26-.36v-3.36h-1.67c-.21 0-.38-.17-.38-.38v-8.69c0-.21.17-.38.38-.38h14.39c.21 0 .38.17.38.38v8.69c0 .21-.17.38-.38.38h-9.4l-2.65 3.58c-.06.11-.17.16-.29.16zm-1.67-4.48h1.67c.21 0 .38.17.38.38v2.6l2.09-2.82c.07-.1.18-.15.3-.15h9.21v-7.94h-13.65z"/></g><g><g><path d="m58.78 32.81h-.88c-.28 0-.51-.23-.51-.51s.23-.51.51-.51h.88c.28 0 .51.23.51.51s-.23.51-.51.51z"/></g></g><g><g><path d="m61.67 32.81h-.88c-.28 0-.51-.23-.51-.51s.23-.51.51-.51h.88c.28 0 .51.23.51.51s-.23.51-.51.51z"/></g></g><g><g><path d="m64.57 32.81h-.88c-.28 0-.51-.23-.51-.51s.23-.51.51-.51h.88c.28 0 .51.23.51.51s-.23.51-.51.51z"/></g></g><g><path d="m23.31 6.35v11.5h-2.53v4.64l-3.44-4.64h-11.9v-11.5z" fill="#a9dcea"/></g><g><path d="m20.78 22.86c-.12 0-.23-.05-.3-.15l-3.32-4.48h-11.72c-.21 0-.38-.17-.38-.38v-11.5c0-.21.17-.38.38-.38h17.88c.21 0 .38.17.38.38v11.5c0 .21-.17.38-.38.38h-2.16v4.26c0 .16-.1.31-.26.36-.05 0-.08.01-.12.01zm-14.97-5.38h11.53c.12 0 .23.06.3.15l2.76 3.72v-3.5c0-.21.17-.38.38-.38h2.16v-10.75h-17.13z"/></g><g><path d="m17.67 15.32h-6.59c0-1.82 1.48-3.29 3.29-3.29 1.82 0 3.3 1.47 3.3 3.29z" fill="#7b5aaf"/></g><g><path d="m17.67 15.69h-6.59c-.21 0-.38-.17-.38-.38 0-2.02 1.64-3.67 3.66-3.67 2.03 0 3.68 1.64 3.68 3.67.01.22-.16.38-.37.38zm-6.19-.75h5.79c-.19-1.43-1.42-2.54-2.9-2.54s-2.7 1.11-2.89 2.54z"/></g><g><circle cx="14.38" cy="10.39" fill="#f29a67" r="1.59"/></g><g><path d="m14.38 12.35c-1.08 0-1.96-.88-1.96-1.96s.88-1.96 1.96-1.96 1.96.88 1.96 1.96-.88 1.96-1.96 1.96zm0-3.17c-.67 0-1.21.54-1.21 1.21s.54 1.21 1.21 1.21 1.21-.54 1.21-1.21-.54-1.21-1.21-1.21z"/></g><g><path d="m9.09 58.95v7.47c0 1.14.93 2.07 2.07 2.07h4.63c1.14 0 2.07-.93 2.07-2.07v-7.47z" fill="#9df"/></g><g><path d="m15.8 68.87h-4.63c-1.35 0-2.45-1.1-2.45-2.45v-7.47c0-.21.17-.38.38-.38h8.78c.21 0 .38.17.38.38v7.47c-.02 1.35-1.12 2.45-2.46 2.45zm-6.33-9.55v7.1c0 .94.76 1.7 1.7 1.7h4.63c.94 0 1.7-.76 1.7-1.7v-7.1z"/></g><g><g><g><path d="m13.12 57.75c-.1 0-.2-.03-.28-.09-.23-.16-.3-.47-.14-.7.61-.91.46-1.18.11-1.81-.14-.24-.28-.5-.41-.82-.47-1.22.27-2.14.72-2.45.23-.16.55-.1.71.13s.1.54-.13.7c-.07.05-.65.5-.36 1.25.1.26.23.48.34.69.4.71.82 1.44-.15 2.87-.08.15-.25.23-.41.23z"/></g></g><g><g><path d="m10.09 55.81c-.1 0-.2-.03-.28-.09-.23-.16-.3-.47-.14-.7.61-.91.46-1.18.11-1.81-.14-.24-.28-.5-.41-.82-.47-1.22.27-2.14.72-2.45.23-.16.55-.1.71.13s.1.54-.13.7c-.07.05-.65.5-.36 1.25.1.26.23.48.34.68.4.71.82 1.44-.15 2.87-.08.16-.24.24-.41.24z"/></g></g></g><g><path d="m25.06 27.93h1.55v3.42h-1.55c-.4 0-.73-.33-.73-.73v-1.96c0-.4.33-.73.73-.73z" fill="#ff8fbc"/></g><g><path d="m26.61 31.72h-1.55c-.61 0-1.11-.5-1.11-1.11v-1.96c0-.61.5-1.11 1.11-1.11h1.55c.21 0 .38.17.38.38v3.42c0 .22-.17.38-.38.38zm-1.55-3.42c-.2 0-.36.16-.36.36v1.96c0 .2.16.36.36.36h1.18v-2.68z"/></g><g><path d="m49.85 28.19h-1.55v3.42h1.55c.4 0 .73-.33.73-.73v-1.96c0-.4-.32-.73-.73-.73z" fill="#ff8fbc"/></g><g><path d="m49.85 31.99h-1.55c-.21 0-.38-.17-.38-.38v-3.42c0-.21.17-.38.38-.38h1.55c.61 0 1.11.5 1.11 1.11v1.96c0 .61-.5 1.11-1.11 1.11zm-1.18-.75h1.18c.2 0 .36-.16.36-.36v-1.96c0-.2-.16-.36-.36-.36h-1.18z"/></g><g><path d="m27.33 27.05c-.39-1.12-.59-2.33-.59-3.59 0-6.07 4.8-10.99 10.71-10.99 5.94 0 10.72 4.92 10.72 10.99 0 1.26-.2 2.47-.59 3.59z" fill="#a07fc6"/></g><g><path d="m47.58 27.43h-20.25c-.16 0-.3-.1-.35-.25-.41-1.17-.61-2.42-.61-3.71 0-6.27 4.97-11.37 11.09-11.37s11.1 5.1 11.1 11.37c0 1.29-.21 2.54-.61 3.71-.07.15-.21.25-.37.25zm-19.98-.75h19.71c.32-1.02.49-2.1.49-3.21 0-5.85-4.64-10.62-10.35-10.62-5.7 0-10.34 4.76-10.34 10.62 0 1.11.17 2.19.49 3.21z"/></g><g><path d="m42.36 39.61c-1.46.92-3.15 1.41-4.91 1.41-1.8 0-3.47-.52-4.9-1.41.23-.51.38-1.03.48-1.5h8.84c.11.47.25.99.49 1.5z"/></g><g><path d="m38.72 19.37c.95 1.14 3.07 3.03 6.47 2.78v9.61c0 2.13-.87 4.07-2.26 5.47-1.41 1.4-3.33 2.26-5.47 2.26-4.27 0-7.73-3.46-7.73-7.73v-6.47c5.81-.46 8.11-3.78 8.99-5.92z" fill="#f5b379"/></g><g><path d="m37.46 39.87c-4.47 0-8.11-3.64-8.11-8.11v-6.47c0-.2.15-.36.35-.37 5.69-.46 7.88-3.76 8.68-5.7.05-.12.16-.21.29-.23s.26.03.34.13c.91 1.09 2.92 2.88 6.15 2.65.1-.01.21.03.28.1.08.07.12.17.12.27v9.61c0 2.16-.84 4.2-2.37 5.74-1.54 1.54-3.57 2.38-5.73 2.38zm-7.36-14.23v6.13c0 4.06 3.3 7.36 7.36 7.36 1.96 0 3.81-.76 5.21-2.15 1.39-1.4 2.15-3.24 2.15-5.21v-9.22c-2.92.1-4.9-1.36-5.99-2.5-1.01 2.07-3.38 5.04-8.73 5.59z"/></g><g><g><path d="m68.43 69h-60.9c-.28 0-.51-.23-.51-.51s.23-.51.51-.51h60.9c.28 0 .51.23.51.51s-.23.51-.51.51z"/></g></g></g></svg>