<svg height="512pt" viewBox="-12 0 512 512.00147" width="512pt" xmlns="http://www.w3.org/2000/svg"><path d="m157.472656 159.730469 57.605469 326.707031c2.097656 11.886719 13.433594 19.824219 25.320313 17.726562l223.421874-39.394531c11.886719-2.09375 19.824219-13.433593 17.730469-25.320312l-57.609375-326.703125c-2.09375-11.886719-13.429687-19.828125-25.320312-17.730469l-223.417969 39.394531c-11.890625 2.097656-19.828125 13.433594-17.730469 25.320313zm0 0" fill="#c2f4ff"/><path d="m295.308594 426.78125 57.0625-323.613281-177.167969 31.242187c-11.890625 2.09375-19.828125 13.433594-17.730469 25.320313l48.214844 273.445312 64.300781 11.335938c11.886719 2.097656 23.226563-5.839844 25.320313-17.730469zm0 0" fill="#87d1ea"/><path d="m342.300781 270.800781c-.457031.082031-.910156.171875-1.363281.273438 2.117188-5.1875 2.84375-11.011719 1.796875-16.933594-2.949219-16.734375-18.90625-27.90625-35.636719-24.957031-16.734375 2.953125-27.90625 18.90625-24.957031 35.640625 1.046875 5.921875 3.71875 11.148437 7.480469 15.296875-.457032.0625-.914063.128906-1.371094.210937-16.734375 2.949219-27.90625 18.90625-24.953125 35.640625 2.949219 16.730469 18.902344 27.902344 35.636719 24.953125 11.800781-2.082031 20.835937-10.628906 24.101562-21.355469 6.738282 8.964844 18.152344 13.90625 29.949219 11.828126 16.734375-2.953126 27.90625-18.90625 24.957031-35.640626-2.953125-16.734374-18.910156-27.90625-35.640625-24.957031zm0 0" fill="#7d8eb0"/><path d="m307.097656 229.183594c-16.734375 2.953125-27.90625 18.90625-24.957031 35.640625 1.046875 5.921875 3.71875 11.148437 7.480469 15.296875-.457032.0625-.914063.128906-1.371094.210937-16.734375 2.949219-27.90625 18.90625-24.953125 35.640625 2.949219 16.730469 18.902344 27.902344 35.636719 24.953125 4.628906-.816406 8.832031-2.625 12.429687-5.175781l17.976563-101.972656c-6.328125-4.164063-14.195313-6.011719-22.242188-4.59375zm0 0" fill="#516789"/><path d="m65.445312 25.570312-57.609374 326.703126c-2.09375 11.886718 5.84375 23.222656 17.730468 25.320312l223.421875 39.394531c11.886719 2.097657 23.226563-5.84375 25.320313-17.730469l57.605468-326.703124c2.097657-11.886719-5.839843-23.226563-17.726562-25.320313l-223.421875-39.394531c-11.886719-2.097656-23.226563 5.839844-25.320313 17.730468zm0 0" fill="#c2f4ff"/><path d="m160.523438 265.449219c-8.382813-11.277344-21.6875-21.296875-30.195313-32.476563-7.382813-9.699218-13.679687-20.558594-15.988281-32.527344-2.308594-11.972656-.179688-25.214843 7.703125-34.515624 6.46875-7.628907 16.550781-12.042969 26.542969-11.65625 11.726562.453124 22.949218 7.492187 28.382812 17.90625 8.671875-7.929688 21.625-10.703126 32.796875-7.117188 9.523437 3.054688 17.488281 10.648438 20.957031 20.03125 4.226563 11.4375 1.699219 24.609375-4.566406 35.066406-6.265625 10.457032-15.894531 18.507813-26.148438 25.101563-11.816406 7.59375-27.746093 12.457031-39.484374 20.1875zm0 0" fill="#ea6789"/><path d="m488.9375 438.152344-57.609375-326.714844c-2.8125-15.929688-18.066406-26.613281-34.007813-23.8125l-62.386718 11 4.367187-24.769531c2.8125-15.941407-7.871093-31.195313-23.8125-34.007813l-223.421875-39.394531c-7.722656-1.359375-15.511718.367187-21.9375 4.863281-6.421875 4.496094-10.710937 11.226563-12.074218 18.949219l-18.296876 103.789063c-.71875 4.078124 2.003907 7.96875 6.082032 8.6875s7.96875-2.003907 8.6875-6.085938l18.300781-103.785156c.667969-3.777344 2.761719-7.066406 5.902344-9.269532 3.144531-2.199218 6.953125-3.042968 10.730469-2.375l223.421874 39.394532c7.796876 1.375 13.019532 8.835937 11.644532 16.632812l-6.171875 35.011719c-.042969.203125-.082031.410156-.109375.621094l-51.324219 291.074219c-1.375 7.796874-8.851563 13.015624-16.632813 11.644531l-223.421874-39.394531c-7.796876-1.375-13.019532-8.835938-11.644532-16.632813l34.015625-192.921875c.71875-4.078125-2.003906-7.96875-6.082031-8.6875-4.074219-.71875-7.972656 2.003906-8.691406 6.085938l-34.015625 192.917968c-2.808594 15.941406 7.871093 31.199219 23.8125 34.007813l223.421875 39.398437c1.71875.300782 3.425781.449219 5.113281.449219 13.972656-.003906 26.390625-10.039063 28.898437-24.265625l9.125-51.757812c.898438.066406 1.796876.097656 2.699219.097656 2.226563 0 4.46875-.199219 6.714844-.59375 7.09375-1.25 13.503906-4.394532 18.671875-8.949219l4.332031 24.554687-15.683593 2.765626c-4.078126.71875-6.804688 4.609374-6.082032 8.6875.640625 3.636718 3.804688 6.199218 7.375 6.199218.433594 0 .871094-.039062 1.3125-.117187l23.0625-4.066407h.007813.003906l23.0625-4.066406c4.078125-.71875 6.800781-4.609375 6.082031-8.6875-.71875-4.082031-4.609375-6.800781-8.6875-6.085937l-15.679687 2.765625-4.332031-24.554688c6.414062 2.507813 13.511718 3.277344 20.609374 2.027344 20.777344-3.664062 34.703126-23.550781 31.042969-44.328125-1.773437-10.066406-7.363281-18.835937-15.738281-24.699219-5.714844-4-12.261719-6.316406-19.035156-6.824218.300781-3.347657.15625-6.734376-.433594-10.078126-1.324219-7.550781-4.835938-14.449218-10.15625-19.953124-2.882812-2.976563-7.628906-3.054688-10.605469-.175782-2.976562 2.878906-3.058593 7.628906-.179687 10.605469 3.230468 3.339844 5.363281 7.527344 6.167968 12.125.765626 4.320313.300782 8.742187-1.351562 12.792969-1.054688 2.589844-.582031 5.550781 1.230469 7.683594 1.808593 2.132812 4.65625 3.082031 7.382812 2.457031.316407-.070313.648438-.136719.996094-.195313 6.121094-1.078125 12.292969.289063 17.382813 3.851563 5.09375 3.5625 8.488281 8.898437 9.566406 15.015625 2.226562 12.632812-6.238282 24.722656-18.875 26.949218-8.625 1.523438-17.246094-1.855468-22.554688-8.8125-1.632812-2.265624-4.464844-3.527343-7.394531-3.007812-2.925781.515625-5.152344 2.65625-5.914063 5.335938-2.601562 8.363281-9.558593 14.492187-18.179687 16.015624-1.402344.246094-2.800781.363282-4.1875.359376l38.710937-219.550782 67.761719-11.945312c7.796875-1.371094 15.257813 3.851562 16.632813 11.644531l57.609375 326.707031c1.371093 7.796875-3.851563 15.257813-11.644531 16.636719l-223.421876 39.390625c-3.777343.664062-7.589843-.179688-10.730468-2.378906-3.144532-2.199219-5.242188-5.492188-5.910156-9.269532l-8.46875-48.078124c-.71875-4.078126-4.609376-6.808594-8.6875-6.085938-4.082032.71875-6.804688 4.609375-6.085938 8.6875l8.46875 48.082031c2.515625 14.226563 14.929688 24.265625 28.898438 24.261719 1.6875 0 3.402343-.144531 5.121093-.449219l223.421875-39.390625c15.929688-2.8125 26.613282-18.070312 23.808594-34.007812zm0 0"/><path d="m423.835938 438.164062c2.773437.683594 6.578124.15625 9.207031-1.722656 1.257812-.902344 1.953125-1.980468 2.082031-3.242187l7.042969-56.890625c.035156-.480469.042969-.773438.023437-.886719-.222656-1.261719-1.1875-2.210937-2.894531-2.855469-1.703125-.640625-3.359375-.820312-4.960937-.539062-2.117188.371094-3.242188 1.335937-3.378907 2.894531l-1.25 11.988281-18.382812 3.242188-5.210938-10.855469c-.714843-1.402344-2.261719-1.894531-4.644531-1.472656-1.871094.328125-3.574219 1.117187-5.105469 2.363281-1.53125 1.25-2.175781 2.574219-1.929687 3.980469.023437.125.136718.417969.335937.886719 28.242188 53.945312 25.117188 52.140624 29.066407 53.109374zm6.316406-42.308593-2.816406 27.65625-12.019532-25.039063zm0 0"/><path d="m119.265625 49.570312c-.132813-1.261718-.824219-2.34375-2.082031-3.242187-1.257813-.898437-2.746094-1.5-4.460938-1.804687-1.714844-.300782-3.296875-.277344-4.746094.082031-1.449218.355469-2.441406 1.042969-2.972656 2.0625l-26.09375 51.042969c-.199218.46875-.3125.765624-.332031.886718-.25 1.40625.390625 2.734375 1.925781 3.980469 1.53125 1.25 3.234375 2.039063 5.101563 2.367187 2.382812.417969 3.933593-.070312 4.648437-1.476562l5.207032-10.851562 18.386718 3.238281 1.246094 11.988281c.136719 1.558594 1.265625 2.523438 3.382812 2.894531 1.601563.285157 3.253907.105469 4.960938-.539062 1.707031-.640625 2.667969-1.59375 2.890625-2.851563.023437-.113281.015625-.410156-.019531-.890625zm-19.808594 34.726563 12.019531-25.042969 2.820313 27.660156zm0 0"/><path d="m223.984375 316.941406c-.1875-1.5625-1.476563-2.554687-3.859375-2.976562-1.871094-.328125-3.738281-.167969-5.605469.480468-1.867187.644532-2.925781 1.675782-3.171875 3.082032-.023437.121094-.019531.4375.007813.945312l7.0625 56.886719c.152343 1.144531.847656 2.128906 2.089843 2.960937 3.667969 2.457032 10.53125 2.835938 12.304688-.808593l26.078125-51.046875c.195313-.441406.300781-.714844.320313-.828125.222656-1.261719-.355469-2.484375-1.738282-3.671875-1.386718-1.1875-2.878906-1.921875-4.480468-2.203125-2.113282-.375-3.507813.148437-4.167969 1.566406l-5.273438 10.835937-18.382812-3.242187zm16.929687 23.78125-12.109374 25.023438-2.726563-27.640625zm0 0"/><path d="m370.328125 42.703125c1.179687 2.917969 3.988281 4.691406 6.957031 4.691406.933594 0 1.886719-.175781 2.804688-.546875 3.84375-1.550781 5.699218-5.925781 4.148437-9.765625l-10.734375-26.566406c-1.554687-3.839844-5.917968-5.695313-9.765625-4.144531-3.839843 1.550781-5.695312 5.925781-4.144531 9.765625zm0 0"/><path d="m419.054688 47.1875c.957031.40625 1.949218.597656 2.925781.597656 2.921875 0 5.695312-1.714844 6.90625-4.570312l11.199219-26.378906c1.617187-3.8125-.160157-8.214844-3.976563-9.832032-3.8125-1.617187-8.214844.160156-9.832031 3.972656l-11.195313 26.375c-1.621093 3.8125.160157 8.214844 3.972657 9.835938zm0 0"/><path d="m453.320312 79.671875c.9375 0 1.886719-.179687 2.808594-.550781l26.566406-10.734375c3.839844-1.550781 5.695313-5.921875 4.144532-9.761719-1.550782-3.839844-5.917969-5.695312-9.765625-4.144531l-26.566407 10.734375c-3.839843 1.550781-5.695312 5.921875-4.144531 9.761718 1.179688 2.921876 3.988281 4.695313 6.957031 4.695313zm0 0"/><path d="m212.058594 157.917969c-11.015625-3.53125-23.304688-2.042969-33.21875 3.667969-7.363282-8.761719-18.40625-14.359376-29.964844-14.808594-12.378906-.476563-24.558594 4.871094-32.554688 14.304687-8.777343 10.359375-12.273437 25.605469-9.34375 40.785157 2.226563 11.542968 7.910157 23.203124 17.382813 35.648437 4.507813 5.925781 10.132813 11.421875 15.574219 16.738281 5.480468 5.351563 10.65625 10.40625 14.570312 15.671875 1.46875 1.972657 3.730469 3.023438 6.027344 3.023438 1.417969 0 2.851562-.398438 4.117188-1.234375 5.480468-3.609375 12.074218-6.589844 19.054687-9.746094 6.929687-3.132812 14.09375-6.371094 20.359375-10.398438 13.15625-8.457031 22.488281-17.46875 28.527344-27.554687 7.945312-13.261719 9.875-28.78125 5.167968-41.519531-4.285156-11.601563-13.894531-20.789063-25.699218-24.578125zm7.664062 58.390625c-4.828125 8.058594-12.601562 15.464844-23.769531 22.640625-5.339844 3.433593-11.699219 6.308593-18.429687 9.351562-5.117188 2.3125-10.355469 4.679688-15.277344 7.386719-3.703125-4.226562-7.816406-8.242188-11.832032-12.167969-5.285156-5.160156-10.277343-10.039062-14.121093-15.085937-8.039063-10.5625-12.8125-20.183594-14.589844-29.410156-2.074219-10.757813.1875-21.316407 6.058594-28.242188 4.765625-5.625 12.207031-9.03125 19.613281-9.03125.304688 0 .613281.003906.921875.015625 9.023437.351563 17.871094 5.929687 22.023437 13.882813 1.078126 2.0625 3.054688 3.511718 5.347657 3.914062 2.292969.40625 4.644531-.277344 6.363281-1.851562 6.621094-6.054688 16.847656-8.265626 25.441406-5.507813 7.339844 2.351563 13.554688 8.289063 16.214844 15.492187 3.148438 8.515626 1.664062 19.214844-3.964844 28.613282zm0 0"/></svg>