<svg height="512" viewBox="0 0 64 64" width="512" xmlns="http://www.w3.org/2000/svg"><g id="Blanket"><path id="rect30259" d="m56.17 32.47h-47.31a4.86 4.86 0 0 0 0 9.72h47.31a3.83 3.83 0 0 0 3.83-3.83v-23.9a3.82 3.82 0 0 0 -3.83-3.83z" fill="#52b5e9"/><path id="rect35961-7" d="m8.86 6.31a4.85 4.85 0 0 0 -4.86 4.86v26.16a4.86 4.86 0 0 1 4.86-4.86h28.49v-26.16zm32.44 0v26.16h4.08v-26.16zm8 0v26.16h6.83v-26.16z" fill="#81ceee"/><path id="rect31729-7-5" d="m49.34 6.31h-4v26.16h4zm-8 0h-4v26.16h4z" fill="#facc7d"/><path id="path32059" d="m60 38.36a3.83 3.83 0 0 1 -3.83 3.83v5.81h-47.31a4.86 4.86 0 1 0 0 9.71h47.31a3.82 3.82 0 0 0 3.83-3.85z" fill="#f7b54e"/><path id="path32061" d="m4 37.33v15.5a4.85 4.85 0 0 1 4.86-4.83h28.49v-5.81h-28.49a4.85 4.85 0 0 1 -4.86-4.86zm37.3 4.86v5.81h4.08v-5.81zm8 0v5.81h6.83v-5.81z" fill="#facc7d"/><path id="path32065" d="m49.34 42.19h-4v5.81h4zm-8 0h-4v5.81h4z" fill="#81ceee"/><path d="m57.17 9.73v-3.42a1 1 0 0 0 -1-1h-47.31a5.87 5.87 0 0 0 -5.86 5.86v41.66a5.87 5.87 0 0 0 5.86 5.86h48.68a3.46 3.46 0 0 0 3.46-3.46v-40.77a4.86 4.86 0 0 0 -3.83-4.73zm1.83 4.73v22.15a3.37 3.37 0 0 0 -1.46-.34h-48.37a1 1 0 0 0 0 2h48.37a1.46 1.46 0 1 1 0 2.92h-48.68a3.86 3.86 0 0 1 0-7.72h47.31a1 1 0 0 0 1-1v-20.65a2.82 2.82 0 0 1 1.83 2.64zm-16.69 32.54v-3.81h2.07v3.81zm-33.45 0a5.81 5.81 0 0 0 -3.86 1.44v-6.71a5.86 5.86 0 0 0 3.86 1.46h27.49v3.81zm29.49-3.79h2v3.79h-2zm8 0h2v3.79h-2zm4 0h4.83v3.79h-4.84zm-8-11.72v-24.18h2.07v24.16zm12.86 0h-4.87v-24.18h4.83zm-6.87-24.18v24.16h-2v-24.16zm-8 0v24.16h-2v-24.16zm-35.34 3.86a3.86 3.86 0 0 1 3.86-3.86h27.49v24.16h-27.49a5.81 5.81 0 0 0 -3.86 1.46zm52.54 45.52h-48.68a3.86 3.86 0 1 1 0-7.71h47.31a1 1 0 0 0 1-1v-4.79h.37a3.37 3.37 0 0 0 1.46-.34v9.25a3.44 3.44 0 0 0 -1.46-.34h-48.37a1 1 0 0 0 0 2h48.37a1.47 1.47 0 0 1 0 2.93z" fill="#343f69"/></g></svg>