<?xml version="1.0" encoding="UTF-8"?>
<svg xmlns="http://www.w3.org/2000/svg" id="Layer_32" data-name="Layer 32" viewBox="0 0 64 64" width="512" height="512"><path d="M14,46a6,6,0,0,1-6-6H8a6,6,0,0,1,6-6H53a3,3,0,0,1,3,3h0a3,3,0,0,1-3,3,3,3,0,0,1,3,3h0a3,3,0,0,1-3,3Z" style="fill:#99483e"/><path d="M55.816,44A2.962,2.962,0,0,0,56,43a3,3,0,0,0-3-3,3,3,0,0,0,0-6H14a6,6,0,0,0-1.673.241A6,6,0,0,0,17,44Z" style="fill:#af544e"/><path d="M62,54a8,8,0,0,1-8,8H6a4,4,0,0,1,0-8,4,4,0,0,1,0-8H54a7.989,7.989,0,0,1,8,8Z" style="fill:#40906a"/><path d="M2,58H51a7.984,7.984,0,0,0,7.573-10.56A7.977,7.977,0,0,0,54,46H6a4,4,0,1,0,0,8A4,4,0,0,0,2,58Z" style="fill:#50af88"/><path d="M45,34a3,3,0,0,0,3-3h0a3,3,0,0,0-3-3H11a3,3,0,0,0-3,3H8a3,3,0,0,0,3,3H45Z" style="fill:#3582c0"/><path d="M45,28H11a3,3,0,0,0,3,3H48A3,3,0,0,0,45,28Z" style="fill:#44a1df"/><rect x="8" y="22" width="40" height="6" rx="3" style="fill:#aab1b7"/><path d="M45,22H11a3,3,0,0,0,3,3H48A3,3,0,0,0,45,22Z" style="fill:#cacbcd"/><path d="M32,22h0a49.559,49.559,0,0,0,27.484-8.323L62,12l-1.126-1.408A22.9,22.9,0,0,0,43,2H21A22.9,22.9,0,0,0,3.126,10.592L2,12l2.516,1.677A49.559,49.559,0,0,0,32,22Z" style="fill:#40906a"/><path d="M60.009,13.327,62,12l-1.126-1.408A22.9,22.9,0,0,0,43,2H21a22.859,22.859,0,0,0-9.2,1.942,22.877,22.877,0,0,0-3.672,3.65L7,9l2.516,1.677A49.559,49.559,0,0,0,37,19,49.559,49.559,0,0,0,60.009,13.327Z" style="fill:#50af88"/><path d="M56,53H3.378A4,4,0,0,0,6,54a3.966,3.966,0,0,0-2.621,1H56Z" style="fill:#327352"/><path d="M13,41H55.221A2.978,2.978,0,0,0,53,40a2.978,2.978,0,0,0,2.221-1H13" style="fill:#824036"/><path d="M56.263,45.3a3.95,3.95,0,0,0-.645-5.3A3.983,3.983,0,0,0,53,33H48.444a3.92,3.92,0,0,0-.826-5,3.98,3.98,0,0,0-1.826-6.92,50.508,50.508,0,0,0,14.247-6.571l2.5-1.669a1,1,0,0,0,.23-1.476l-1.118-1.4A23.775,23.775,0,0,0,43,1H21A23.775,23.775,0,0,0,2.346,9.968l-1.118,1.4a1,1,0,0,0,.23,1.476l2.5,1.669A50.532,50.532,0,0,0,17.926,21H11a3.983,3.983,0,0,0-2.618,7,3.977,3.977,0,0,0,1.072,6.688A6.977,6.977,0,0,0,9.111,45H6a5,5,0,0,0-3,9,5,5,0,0,0,3,9H54a8.994,8.994,0,0,0,2.263-17.7ZM5.071,12.845c-.676-.451-1.2-.8-1.613-1.068.134-.166.283-.352.449-.56A21.784,21.784,0,0,1,21,3H43a21.784,21.784,0,0,1,17.093,8.217c.166.208.315.394.449.56-.413.268-.938.618-1.613,1.068A48.4,48.4,0,0,1,32,21,48.4,48.4,0,0,1,5.071,12.845ZM9,25a2,2,0,0,1,2-2H45a2,2,0,0,1,0,4H11A2,2,0,0,1,9,25Zm2,8a2,2,0,0,1,0-4H45a2,2,0,0,1,0,4H11ZM9,40a5.006,5.006,0,0,1,5-5H53a2,2,0,0,1,0,4H12v2H53a2,2,0,0,1,0,4H14A5.006,5.006,0,0,1,9,40ZM54,61H6a3,3,0,0,1,0-6H56V53H6a3,3,0,0,1,0-6H54a7,7,0,0,1,0,14Z"/></svg>
