<svg id="Capa_1" enable-background="new 0 0 512.008 512.008" height="512" viewBox="0 0 512.008 512.008" width="512" xmlns="http://www.w3.org/2000/svg"><g><path d="m344.032 391.304h-276.887c-11.275 0-20.416-9.141-20.416-20.416v-27.396c0-11.275 9.141-20.416 20.416-20.416h276.888c11.275 0 20.416 9.141 20.416 20.416v27.396c-.001 11.275-9.141 20.416-20.417 20.416z" fill="#e4989d"/><path d="m344.032 323.076h-19.589c.003.138.004.277.004.416v27.396c0 11.275-9.14 20.416-20.416 20.416h-257.298c.222 11.083 9.275 20 20.411 20h276.888c11.275 0 20.416-9.141 20.416-20.416v-27.396c0-11.276-9.14-20.416-20.416-20.416z" fill="#e28086"/><path d="m369.073 266.353h-7.757c-9.545 0-17.283 7.738-17.283 17.283v39.44c11.275 0 20.416 9.141 20.416 20.416v27.396c0 11.275-9.14 20.416-20.416 20.416h-276.888c-11.275 0-20.416-9.141-20.416-20.416v-27.396c0-11.275 9.14-20.416 20.416-20.416v-39.44c0-9.545-7.738-17.283-17.283-17.283h-7.757c-19.112 0-34.605 15.493-34.605 34.605v85.011c0 22.904 18.567 41.471 41.471 41.471h313.236c22.904 0 41.471-18.567 41.471-41.471v-85.011c-.001-19.112-15.494-34.605-34.605-34.605z" fill="#dd636e"/><path d="m308.022 205.343h-204.867c-19.888 0-36.011 16.122-36.011 36.011v81.723h276.888v-81.723c0-19.889-16.122-36.011-36.01-36.011z" fill="#da4a54"/><g fill="#ffd064"><path d="m141.887 323.076h-38.718c-4.173 0-7.556-3.383-7.556-7.556v-38.718c0-4.173 3.383-7.556 7.556-7.556h38.718c4.173 0 7.556 3.383 7.556 7.556v38.718c0 4.173-3.383 7.556-7.556 7.556z"/><path d="m224.947 323.076h-38.717c-4.173 0-7.556-3.383-7.556-7.556v-38.718c0-4.173 3.383-7.556 7.556-7.556h38.718c4.173 0 7.556 3.383 7.556 7.556v38.718c-.001 4.173-3.384 7.556-7.557 7.556z"/><path d="m308.008 323.076h-38.718c-4.173 0-7.556-3.383-7.556-7.556v-38.718c0-4.173 3.383-7.556 7.556-7.556h38.718c4.173 0 7.556 3.383 7.556 7.556v38.718c0 4.173-3.383 7.556-7.556 7.556z"/></g><path d="m76.192 474.91h-18.925c-1.964 0-3.594-1.52-3.729-3.48l-3.046-43.991h32.476l-3.046 43.991c-.136 1.959-1.765 3.48-3.73 3.48z" fill="#c6865c"/><path d="m334.985 474.91h18.926c1.964 0 3.594-1.52 3.729-3.48l3.046-43.991h-32.476l3.046 43.991c.135 1.959 1.764 3.48 3.729 3.48z" fill="#c6865c"/><path d="m466.668 436.226h-26.415c-13.882 0-26.415 8.311-31.817 21.099l-5.792 13.712c-.777 1.838.573 3.873 2.569 3.873h96.496c1.996 0 3.345-2.035 2.569-3.873l-5.792-13.712c-5.403-12.788-17.936-21.099-31.818-21.099z" fill="#f6f9f9"/><path d="m440.253 223.57h26.415v212.655h-26.415z" fill="#b9c1cb"/><path d="m485.997 131.869c-.338-1.718-1.844-2.956-3.595-2.956h-57.883c-1.751 0-3.257 1.239-3.595 2.956l-13.021 66.188h91.114z" fill="#f6f9f9"/><path d="m499.018 198.057h-91.114l-4.159 21.142c-.445 2.264 1.288 4.371 3.595 4.371h92.243c2.307 0 4.04-2.107 3.595-4.371z" fill="#ffd064"/><path d="m169.351 94.507c-2.125-2.125-5.571-2.125-7.696 0l-58.982 58.983c0 4.639 3.76 8.399 8.399 8.399h125.661z" fill="#78c2a4"/><path d="m169.351 94.507 36.238 36.238 36.238-36.238c2.125-2.125 5.571-2.125 7.696 0l58.982 58.983v-107.993c0-4.639-3.761-8.399-8.399-8.399h-189.035c-4.639 0-8.399 3.76-8.399 8.399v107.992l58.982-58.983c2.126-2.125 5.571-2.125 7.697.001z" fill="#90d8f9"/><path d="m249.523 94.507c-2.125-2.125-5.571-2.125-7.696 0l-36.238 36.238 31.144 31.144h63.373c4.639 0 8.399-3.761 8.399-8.399z" fill="#66b394"/><circle cx="205.589" cy="75.856" fill="#ffd064" r="13.758"/><path d="m43.472 434.631 2.583 37.316c.406 5.867 5.331 10.462 11.211 10.462h18.926c5.88 0 10.805-4.596 11.211-10.462l2.562-37.009h231.245l2.562 37.009c.406 5.867 5.331 10.462 11.211 10.462h18.926c5.881 0 10.806-4.596 11.212-10.462l2.584-37.316c24.424-2.742 43.471-23.52 43.471-48.663v-85.011c0-23.216-18.888-42.104-42.104-42.104h-7.757c-3.472 0-6.78.718-9.783 2.013v-19.513c0-23.992-19.519-43.51-43.511-43.51h-204.866c-23.992 0-43.51 19.519-43.51 43.51v19.513c-3.003-1.295-6.311-2.013-9.783-2.013h-7.757c-23.217 0-42.105 18.888-42.105 42.104v85.011c0 25.144 19.048 45.922 43.472 48.663zm29.21 32.779h-11.905l-2.248-32.471h16.402zm265.813 0-2.248-32.471h16.401l-2.248 32.471zm-263.85-226.057c0-15.721 12.79-28.51 28.51-28.51h204.866c15.721 0 28.511 12.79 28.511 28.51v74.223h-13.469c.025-3.834 0 13.786 0-38.773 0-8.302-6.754-15.056-15.056-15.056h-38.717c-8.302 0-15.056 6.754-15.056 15.056 0 52.798-.012 35.007 0 38.773h-14.232c.013-3.901 0 14.025 0-38.773 0-8.302-6.754-15.056-15.056-15.056h-38.716c-8.302 0-15.056 6.754-15.056 15.056 0 52.798-.012 35.007 0 38.773h-14.232c.013-3.901 0 14.025 0-38.773 0-8.302-6.754-15.056-15.056-15.056h-38.718c-8.302 0-15.056 6.754-15.056 15.056 0 52.798-.012 35.007 0 38.773h-13.467zm194.589 74.167.056-38.773 38.773.056-.036 38.772c-.102.025-6.053-.008-38.793-.055zm-83.06 0 .056-38.773 38.773.056-.036 38.772c-1.602 0-36.569-.052-38.793-.055zm-83.061 0 .056-38.773 38.773.056-.036 38.772c-.1.027-7.216-.009-38.793-.055zm-88.113-14.563c0-14.945 12.159-27.104 27.104-27.104h7.757c5.395 0 9.783 4.389 9.783 9.783v32.964c-11.762 3.284-20.416 14.096-20.416 26.892v27.396c0 15.393 12.523 27.916 27.916 27.916h25.272c4.142 0 7.5-3.358 7.5-7.5s-3.358-7.5-7.5-7.5h-25.271c-7.122 0-12.916-5.794-12.916-12.916v-27.396c0-7.122 5.794-12.916 12.916-12.916h276.887c7.122 0 12.916 5.794 12.916 12.916v27.396c0 7.122-5.794 12.916-12.916 12.916h-216.615c-4.142 0-7.5 3.358-7.5 7.5s3.358 7.5 7.5 7.5h216.615c15.393 0 27.916-12.523 27.916-27.916v-27.396c0-12.796-8.654-23.608-20.416-26.892v-32.964c0-5.394 4.389-9.783 9.783-9.783h7.757c14.945 0 27.104 12.159 27.104 27.104v85.011c0 18.731-15.239 33.971-33.971 33.971-116.202 0-196.217 0-313.235 0-18.731 0-33.97-15.239-33.97-33.971z"/><path d="m505.395 454.406c-5.6-13.254-17.414-22.523-31.227-25.012v-66.706c0-4.142-3.357-7.5-7.5-7.5s-7.5 3.358-7.5 7.5v66.037h-11.415v-197.655h11.415v96.618c0 4.142 3.357 7.5 7.5 7.5s7.5-3.358 7.5-7.5v-96.618h25.414c7.038 0 12.309-6.427 10.954-13.318-2.257-11.471-15.595-79.275-17.18-87.33-1.027-5.22-5.634-9.009-10.954-9.009h-21.441v-8.06c0-4.142-3.357-7.5-7.5-7.5s-7.5 3.358-7.5 7.5v8.06h-21.441c-5.32 0-9.927 3.789-10.954 9.009-5.984 30.417-11.161 56.73-17.181 87.33-1.359 6.912 3.939 13.318 10.954 13.318h25.414v198.324c-13.813 2.489-25.627 11.758-31.226 25.012l-5.791 13.709c-2.863 6.772 2.106 14.294 9.477 14.294h96.496c7.348 0 12.346-7.502 9.478-14.292zm-77.72-317.993h51.572l10.651 54.144h-72.876zm-13.603 69.144h78.777l2.068 10.513h-82.913zm-1.754 261.853 3.027-7.167c4.238-10.034 14.015-16.517 24.907-16.517h26.415c10.893 0 20.67 6.483 24.908 16.518l3.027 7.167h-82.284z"/><path d="m102.672 103.356c-4.142 0-7.5 3.358-7.5 7.5v42.633c0 8.767 7.132 15.899 15.899 15.899h189.035c8.767 0 15.899-7.132 15.899-15.899v-107.992c0-8.767-7.133-15.899-15.9-15.899h-189.034c-8.767 0-15.899 7.132-15.899 15.899v30.358c0 4.142 3.358 7.5 7.5 7.5s7.5-3.358 7.5-7.5v-30.358c0-.496.403-.899.899-.899h189.034c.496 0 .9.403.9.899v89.885l-46.18-46.179c-5.057-5.058-13.245-5.059-18.303 0l-30.935 30.935-30.935-30.935c-5.057-5.058-13.245-5.059-18.303 0l-46.179 46.179v-24.527c.002-4.141-3.356-7.499-7.498-7.499zm143.003-2.091 53.124 53.124h-58.96l-23.644-23.644zm-80.173 0 53.124 53.124h-106.247z"/><path d="m226.847 75.856c0-11.722-9.536-21.258-21.258-21.258s-21.258 9.536-21.258 21.258 9.537 21.258 21.258 21.258 21.258-9.537 21.258-21.258zm-27.516 0c0-3.451 2.808-6.258 6.258-6.258s6.258 2.807 6.258 6.258-2.807 6.258-6.258 6.258-6.258-2.808-6.258-6.258z"/></g></svg>