<?xml version="1.0" encoding="UTF-8" standalone="no"?>
<!-- Created with Inkscape (http://www.inkscape.org/) -->

<svg
   version="1.1"
   id="svg1632"
   xml:space="preserve"
   width="682.66669"
   height="682.66669"
   viewBox="0 0 682.66669 682.66669"
   xmlns="http://www.w3.org/2000/svg"
   xmlns:svg="http://www.w3.org/2000/svg"><defs
     id="defs1636"><clipPath
       clipPathUnits="userSpaceOnUse"
       id="clipPath1646"><path
         d="M 0,512 H 512 V 0 H 0 Z"
         id="path1644" /></clipPath></defs><g
     id="g1638"
     transform="matrix(1.3333333,0,0,-1.3333333,0,682.66667)"><g
       id="g1640"><g
         id="g1642"
         clip-path="url(#clipPath1646)"><g
           id="g1648"
           transform="translate(186,284.6553)"><path
             d="m 0,0 c 45.071,0 81.608,-36.537 81.608,-81.608 0,-45.072 -36.537,-81.609 -81.608,-81.609 -45.071,0 -81.608,36.537 -81.608,81.609 C -81.608,-36.537 -45.071,0 0,0"
             style="fill:#f7e365;fill-opacity:1;fill-rule:nonzero;stroke:none"
             id="path1650" /></g><g
           id="g1652"
           transform="translate(186,284.6553)"><path
             d="m 0,0 c 45.071,0 81.608,-36.537 81.608,-81.608 0,-45.072 -36.537,-81.609 -81.608,-81.609 -45.071,0 -81.608,36.537 -81.608,81.609 C -81.608,-36.537 -45.071,0 0,0 Z"
             style="fill:none;stroke:#000000;stroke-width:15;stroke-linecap:round;stroke-linejoin:round;stroke-miterlimit:10;stroke-dasharray:none;stroke-opacity:1"
             id="path1654" /></g><g
           id="g1656"
           transform="translate(186,319.0308)"><path
             d="M 0,0 V 9.374"
             style="fill:none;stroke:#000000;stroke-width:15;stroke-linecap:round;stroke-linejoin:round;stroke-miterlimit:10;stroke-dasharray:none;stroke-opacity:1"
             id="path1658" /></g><g
           id="g1660"
           transform="translate(243.9922,303.4922)"><path
             d="M 0,0 4.687,8.118"
             style="fill:none;stroke:#000000;stroke-width:15;stroke-linecap:round;stroke-linejoin:round;stroke-miterlimit:10;stroke-dasharray:none;stroke-opacity:1"
             id="path1662" /></g><g
           id="g1664"
           transform="translate(286.4453,261.0391)"><path
             d="M 0,0 8.118,4.687"
             style="fill:none;stroke:#000000;stroke-width:15;stroke-linecap:round;stroke-linejoin:round;stroke-miterlimit:10;stroke-dasharray:none;stroke-opacity:1"
             id="path1666" /></g><g
           id="g1668"
           transform="translate(85.5547,261.0391)"><path
             d="M 0,0 -8.118,4.687"
             style="fill:none;stroke:#000000;stroke-width:15;stroke-linecap:round;stroke-linejoin:round;stroke-miterlimit:10;stroke-dasharray:none;stroke-opacity:1"
             id="path1670" /></g><g
           id="g1672"
           transform="translate(128.0078,303.4922)"><path
             d="M 0,0 -4.687,8.118"
             style="fill:none;stroke:#000000;stroke-width:15;stroke-linecap:round;stroke-linejoin:round;stroke-miterlimit:10;stroke-dasharray:none;stroke-opacity:1"
             id="path1674" /></g><path
           d="M 504.5,53.956 H 7.5 v 153.406 h 497 z"
           style="fill:#80b6fc;fill-opacity:1;fill-rule:nonzero;stroke:none"
           id="path1676" /><g
           id="g1678"
           transform="translate(68.6045,53.9556)"><path
             d="M 0,0 H -61.104"
             style="fill:none;stroke:#000000;stroke-width:15;stroke-linecap:round;stroke-linejoin:round;stroke-miterlimit:10;stroke-dasharray:none;stroke-opacity:1"
             id="path1680" /></g><g
           id="g1682"
           transform="translate(504.5,53.9556)"><path
             d="M 0,0 H -400.896"
             style="fill:none;stroke:#000000;stroke-width:15;stroke-linecap:round;stroke-linejoin:round;stroke-miterlimit:10;stroke-dasharray:none;stroke-opacity:1"
             id="path1684" /></g><g
           id="g1686"
           transform="translate(504.5,207.3618)"><path
             d="M 0,0 H -497"
             style="fill:none;stroke:#000000;stroke-width:15;stroke-linecap:round;stroke-linejoin:round;stroke-miterlimit:10;stroke-dasharray:none;stroke-opacity:1"
             id="path1688" /></g><g
           id="g1690"
           transform="translate(105.8213,371.0342)"><path
             d="m 0,0 c -2.65,3.17 -6.641,5.19 -11.091,5.19 -4.869,0 -9.178,-2.409 -11.795,-6.097 -0.7,-0.989 -2.188,-0.988 -2.889,0 C -28.39,2.781 -32.69,5.19 -37.561,5.19 -42.021,5.19 -46,3.17 -48.65,0"
             style="fill:none;stroke:#000000;stroke-width:15;stroke-linecap:round;stroke-linejoin:round;stroke-miterlimit:10;stroke-dasharray:none;stroke-opacity:1"
             id="path1692" /></g><g
           id="g1694"
           transform="translate(228.8506,452.8545)"><path
             d="m 0,0 c -2.65,3.17 -6.641,5.19 -11.09,5.19 -4.87,0 -9.179,-2.409 -11.795,-6.098 -0.701,-0.988 -2.189,-0.988 -2.89,0.001 C -28.39,2.781 -32.69,5.19 -37.561,5.19 -42.021,5.19 -46,3.17 -48.65,0"
             style="fill:none;stroke:#000000;stroke-width:15;stroke-linecap:round;stroke-linejoin:round;stroke-miterlimit:10;stroke-dasharray:none;stroke-opacity:1"
             id="path1696" /></g><g
           id="g1698"
           transform="translate(387.9727,348.7974)"><path
             d="M 0,0 C 8.148,2.323 16.27,4.638 24.362,6.946 87.518,-57.466 107.29,-149.463 61.803,-221.431 43.334,-223.672 24.839,-225.906 6.318,-228.133 54.74,-155.896 55.586,-69.376 0,0"
             style="fill:#cf9875;fill-opacity:1;fill-rule:nonzero;stroke:none"
             id="path1700" /></g><g
           id="g1702"
           transform="translate(412.335,355.7432)"><path
             d="m 0,0 c -4.079,-1.163 -8.187,-2.334 -12.28,-3.501 54.043,-63.445 68.756,-148.518 26.111,-215.988 -7.971,-0.967 -15.965,-1.928 -23.945,-2.892 -2.485,-4.276 -5.123,-8.512 -7.93,-12.698 18.521,2.227 37.016,4.461 55.484,6.702 C 82.928,-156.409 63.155,-64.412 0,0"
             style="fill:#c7865b;fill-opacity:1;fill-rule:nonzero;stroke:none"
             id="path1704" /></g><g
           id="g1706"
           transform="translate(387.9727,348.7974)"><path
             d="M 0,0 C 8.148,2.323 16.27,4.638 24.362,6.946 87.518,-57.466 107.29,-149.463 61.803,-221.431 43.334,-223.672 24.839,-225.906 6.318,-228.133 54.74,-155.896 55.586,-69.376 0,0 Z"
             style="fill:none;stroke:#000000;stroke-width:15;stroke-linecap:round;stroke-linejoin:round;stroke-miterlimit:10;stroke-dasharray:none;stroke-opacity:1"
             id="path1708" /></g><g
           id="g1710"
           transform="translate(310.2305,101.9219)"><path
             d="m 0,0 h 194.27 v 49.3 c -15.51,7.58 -32.94,11.84 -51.361,11.84 -23.8,0 -45.939,-7.1 -64.42,-19.3 C 70.97,36.87 62.119,34.5 53.109,34.82 52.449,34.84 51.79,34.86 51.13,34.86 27.88,34.86 8.02,20.41 0,0"
             style="fill:#ffeed2;fill-opacity:1;fill-rule:nonzero;stroke:none"
             id="path1712" /></g><g
           id="g1714"
           transform="translate(504.5,101.9219)"><path
             d="m 0,0 v 49.3 c -11.028,5.39 -23.031,9.09 -35.668,10.785 0.837,-0.827 1.467,-1.479 1.788,-1.845 5.129,-5.853 9.282,-13.134 8.659,-21.179 C -26.094,25.786 -36.004,17.206 -46.384,12.721 -57.982,7.71 -70.307,3.541 -82.828,0 Z"
             style="fill:#f4daa7;fill-opacity:1;fill-rule:nonzero;stroke:none"
             id="path1716" /></g><g
           id="g1718"
           transform="translate(504.5,151.2217)"><path
             d="m 0,0 c -15.51,7.58 -32.939,11.84 -51.36,11.84 -23.8,0 -45.94,-7.1 -64.42,-19.3 -7.52,-4.97 -16.37,-7.34 -25.38,-7.02 -0.66,0.02 -1.319,0.04 -1.98,0.04 -23.25,0 -43.11,-14.45 -51.13,-34.86 H 0"
             style="fill:none;stroke:#000000;stroke-width:15;stroke-linecap:round;stroke-linejoin:round;stroke-miterlimit:10;stroke-dasharray:none;stroke-opacity:1"
             id="path1720" /></g><g
           id="g1722"
           transform="translate(451.8926,101.9258)"><path
             d="M 0,0 H -166.172"
             style="fill:none;stroke:#000000;stroke-width:15;stroke-linecap:round;stroke-linejoin:round;stroke-miterlimit:10;stroke-dasharray:none;stroke-opacity:1"
             id="path1724" /></g><g
           id="g1726"
           transform="translate(317.7979,424.4878)"><path
             d="M 0,0 C 22.506,10.948 51.479,7.289 69.258,-10.501 83.857,-25.11 89.517,-47.541 85.08,-67.589 78.365,-72.083 71.609,-76.633 65.771,-80.577 58.87,-46.359 33.091,-16.497 0.274,-4.626 -1.807,-3.874 -1.99,-0.968 0,0"
             style="fill:#bce097;fill-opacity:1;fill-rule:nonzero;stroke:none"
             id="path1728" /></g><g
           id="g1730"
           transform="translate(377.127,421.8179)"><path
             d="M 0,0 C 3.574,-2.202 6.913,-4.813 9.929,-7.832 24.528,-22.44 30.187,-44.871 25.751,-64.919 19.036,-69.413 12.28,-73.963 6.442,-77.907 c -6.901,34.218 -32.68,64.08 -65.497,75.95 -2.081,0.753 -2.264,3.659 -0.274,4.627 8.017,3.9 16.856,5.946 25.717,6.16"
             style="fill:none;stroke:#000000;stroke-width:15;stroke-linecap:round;stroke-linejoin:round;stroke-miterlimit:10;stroke-dasharray:none;stroke-opacity:1"
             id="path1732" /></g><g
           id="g1734"
           transform="translate(299.5732,360.0342)"><path
             d="M 0,0 C -1.669,0.381 -2.536,2.254 -1.722,3.759 9.338,24.204 33.017,35.656 56.785,30.232 81.7,24.546 98.481,2.194 98.064,-22.38 Z"
             style="fill:#8cc951;fill-opacity:1;fill-rule:nonzero;stroke:none"
             id="path1736" /></g><g
           id="g1738"
           transform="translate(299.5732,360.0342)"><path
             d="M 0,0 C -1.669,0.381 -2.536,2.254 -1.722,3.759 9.338,24.204 33.017,35.656 56.785,30.232 81.7,24.546 98.481,2.194 98.064,-22.38 Z"
             style="fill:none;stroke:#000000;stroke-width:15;stroke-linecap:round;stroke-linejoin:round;stroke-miterlimit:10;stroke-dasharray:none;stroke-opacity:1"
             id="path1740" /></g><g
           id="g1742"
           transform="translate(447.001,445.1514)"><path
             d="m 0,0 c 0.505,1.636 -0.684,3.323 -2.395,3.371 -23.235,0.644 -44.993,-14.136 -52.179,-37.432 -7.533,-24.42 3.433,-50.129 24.924,-62.055 z"
             style="fill:#8cc951;fill-opacity:1;fill-rule:nonzero;stroke:none"
             id="path1744" /></g><g
           id="g1746"
           transform="translate(447.001,445.1514)"><path
             d="m 0,0 c 0.505,1.636 -0.684,3.323 -2.395,3.371 -23.235,0.644 -44.993,-14.136 -52.179,-37.432 -7.533,-24.42 3.433,-50.129 24.924,-62.055 z"
             style="fill:none;stroke:#000000;stroke-width:15;stroke-linecap:round;stroke-linejoin:round;stroke-miterlimit:10;stroke-dasharray:none;stroke-opacity:1"
             id="path1748" /></g><g
           id="g1750"
           transform="translate(348.876,347.9443)"><path
             d="m 0,0 c 11.297,11.706 26.669,17.092 41.722,16.097 3.128,-0.207 6.035,1.472 7.42,4.283 6.664,13.534 19.015,24.154 34.8,28.084 23.158,5.765 46.545,-4.637 58.272,-24.047 1.262,-2.089 0.118,-4.809 -2.25,-5.398 L 56.919,-1.658 -2.51,-63.239 c -1.695,-1.756 -4.622,-1.386 -5.8,0.751 C -19.256,-42.628 -16.571,-17.172 0,0"
             style="fill:#acd980;fill-opacity:1;fill-rule:nonzero;stroke:none"
             id="path1752" /></g><g
           id="g1754"
           transform="translate(348.876,347.9443)"><path
             d="m 0,0 c 11.297,11.706 26.669,17.092 41.722,16.097 3.128,-0.207 6.035,1.472 7.42,4.283 6.664,13.534 19.015,24.154 34.8,28.084 23.158,5.765 46.545,-4.637 58.272,-24.047 1.262,-2.089 0.118,-4.809 -2.25,-5.398 L 56.919,-1.658 -2.51,-63.239 c -1.695,-1.756 -4.622,-1.386 -5.8,0.751 C -19.256,-42.628 -16.571,-17.172 0,0 Z"
             style="fill:none;stroke:#000000;stroke-width:15;stroke-linecap:round;stroke-linejoin:round;stroke-miterlimit:10;stroke-dasharray:none;stroke-opacity:1"
             id="path1756" /></g><g
           id="g1758"
           transform="translate(407.6631,183.8896)"><path
             d="M 0,0 C 15.494,0 28.055,-12.561 28.055,-28.055 28.055,-43.549 15.494,-56.11 0,-56.11 c -15.494,0 -28.055,12.561 -28.055,28.055 C -28.055,-12.561 -15.494,0 0,0"
             style="fill:#c77e67;fill-opacity:1;fill-rule:nonzero;stroke:none"
             id="path1760" /></g><g
           id="g1762"
           transform="translate(420.5908,180.7314)"><path
             d="m 0,0 c 1.133,-3.046 1.755,-6.34 1.755,-9.781 0,-15.494 -12.561,-28.055 -28.055,-28.055 -4.663,0 -9.057,1.145 -12.927,3.158 3.97,-10.671 14.246,-18.274 26.299,-18.274 15.494,0 28.055,12.561 28.055,28.055 C 15.127,-14.066 8.986,-4.676 0,0"
             style="fill:#be694e;fill-opacity:1;fill-rule:nonzero;stroke:none"
             id="path1764" /></g><g
           id="g1766"
           transform="translate(407.6631,183.8896)"><path
             d="M 0,0 C 15.494,0 28.055,-12.561 28.055,-28.055 28.055,-43.549 15.494,-56.11 0,-56.11 c -15.494,0 -28.055,12.561 -28.055,28.055 C -28.055,-12.561 -15.494,0 0,0 Z"
             style="fill:none;stroke:#000000;stroke-width:15;stroke-linecap:round;stroke-linejoin:round;stroke-miterlimit:10;stroke-dasharray:none;stroke-opacity:1"
             id="path1768" /></g><g
           id="g1770"
           transform="translate(238.3682,172.2598)"><path
             d="M 0,0 H -104.736"
             style="fill:none;stroke:#000000;stroke-width:15;stroke-linecap:round;stroke-linejoin:round;stroke-miterlimit:10;stroke-dasharray:none;stroke-opacity:1"
             id="path1772" /></g><g
           id="g1774"
           transform="translate(219.1885,143.5728)"><path
             d="M 0,0 H -66.377"
             style="fill:none;stroke:#000000;stroke-width:15;stroke-linecap:round;stroke-linejoin:round;stroke-miterlimit:10;stroke-dasharray:none;stroke-opacity:1"
             id="path1776" /></g><g
           id="g1778"
           transform="translate(200.0088,114.8853)"><path
             d="M 0,0 H -28.018"
             style="fill:none;stroke:#000000;stroke-width:15;stroke-linecap:round;stroke-linejoin:round;stroke-miterlimit:10;stroke-dasharray:none;stroke-opacity:1"
             id="path1780" /></g></g></g></g></svg>
