<svg id="head-massage" enable-background="new 0 0 300 300" height="512" viewBox="0 0 300 300" width="512" xmlns="http://www.w3.org/2000/svg"><g><circle cx="124" cy="172" fill="#efefd2" r="86"/><g><path d="m226 266h-144l4.828-24.139c1.937-9.685 9.281-17.388 18.864-19.783l48.308-12.078 48.308 12.077c9.582 2.396 16.927 10.098 18.864 19.783z" fill="#e66353"/><path d="m226 270h-144c-1.199 0-2.334-.537-3.094-1.465-.76-.926-1.064-2.145-.828-3.32l4.828-24.139c2.229-11.143 10.791-20.123 21.814-22.881l48.309-12.076c.637-.16 1.305-.16 1.941 0l48.309 12.076c11.023 2.758 19.586 11.738 21.814 22.881l4.828 24.139c.236 1.176-.068 2.395-.828 3.32-.759.928-1.894 1.465-3.093 1.465zm-139.121-8h134.242l-3.871-19.354c-1.627-8.129-7.871-14.68-15.912-16.689l-47.338-11.834-47.338 11.834c-8.041 2.01-14.285 8.561-15.912 16.689z" fill="#4c241d"/></g><g><path d="m154.88 226h-1.76c-8.351 0-15.12-6.769-15.12-15.12v-16.88h32v16.88c0 8.351-6.769 15.12-15.12 15.12z" fill="#ffded5"/><path d="m154.881 230h-1.762c-10.543 0-19.119-8.576-19.119-19.119v-16.881c0-2.209 1.791-4 4-4h32c2.209 0 4 1.791 4 4v16.881c0 10.543-8.576 19.119-19.119 19.119zm-12.881-32v12.881c0 6.131 4.988 11.119 11.119 11.119h1.762c6.131 0 11.119-4.988 11.119-11.119v-12.881z" fill="#4c241d"/></g><g><path d="m183.459 194.153-.821.462c-17.082 9.623-38.029 9.832-55.306.552l-2.151-1.155c-11.811-6.345-19.181-18.679-19.181-32.099v-44.768c0-26.037 21.49-47.145 48-47.145 26.51 0 48 21.108 48 47.145v45.262c0 13.158-7.087 25.293-18.541 31.746z" fill="#ffded5"/><path d="m154.475 205.928c-10.023 0-20.047-2.41-29.035-7.238l-2.15-1.154c-13.132-7.056-21.29-20.706-21.29-35.624v-44.768c0-28.201 23.326-51.144 52-51.144s52 22.943 52 51.145v45.262c0 14.582-7.885 28.082-20.578 35.23l-.818.463c-9.256 5.214-19.692 7.828-30.129 7.828zm-.475-131.928c-24.262 0-44 19.355-44 43.145v44.768c0 11.967 6.543 22.918 17.074 28.576l2.15 1.154c15.957 8.572 35.674 8.375 51.451-.512l.818-.463h.002c10.18-5.734 16.504-16.564 16.504-28.262v-45.262c.001-23.789-19.737-43.144-43.999-43.144z" fill="#4c241d"/></g><g fill="#4c241d"><circle cx="250" cy="166" r="4"/><path d="m256 86c-7.719 0-14-6.281-14-14s6.281-14 14-14 14 6.281 14 14-6.281 14-14 14zm0-20c-3.309 0-6 2.691-6 6s2.691 6 6 6 6-2.691 6-6-2.691-6-6-6z"/><path d="m153.752 170.258c-.367 0-.736-.016-1.105-.049-3.311-.295-6.309-1.859-8.439-4.406-1.418-1.695-1.195-4.217.498-5.635 1.695-1.418 4.213-1.197 5.635.498.762.91 1.832 1.469 3.016 1.574 1.465.125 2.906-.479 3.842-1.627 1.396-1.711 3.912-1.975 5.627-.58s1.975 3.914.58 5.627c-2.383 2.926-5.927 4.598-9.654 4.598z"/><path d="m129.752 143.258c-.367 0-.736-.016-1.105-.049-3.311-.295-6.309-1.859-8.439-4.406-1.418-1.695-1.195-4.217.498-5.635 1.695-1.418 4.217-1.197 5.635.498.762.91 1.832 1.469 3.016 1.574 1.459.129 2.906-.477 3.842-1.627 1.396-1.715 3.912-1.975 5.627-.58s1.975 3.914.58 5.627c-2.383 2.926-5.927 4.598-9.654 4.598z"/><path d="m177.752 143.258c-.367 0-.736-.016-1.105-.049-3.311-.295-6.309-1.859-8.439-4.406-1.418-1.695-1.195-4.217.498-5.635s4.219-1.197 5.635.498c.762.91 1.832 1.469 3.016 1.574 1.451.129 2.906-.477 3.842-1.627 1.396-1.715 3.916-1.975 5.627-.58 1.715 1.395 1.975 3.914.58 5.627-2.383 2.926-5.927 4.598-9.654 4.598z"/></g><g><path d="m154 70h-48v36h1.423c-.37 1.499-.682 3.021-.903 4.572 7.072 4.64 15.886 7.428 25.48 7.428 11.954 0 22.715-4.302 30.364-11.172 4.965 6.707 13.683 11.172 23.636 11.172 5.876 0 11.324-1.558 15.828-4.209-1.759-24.466-22.471-43.791-47.828-43.791z" fill="#6b4f5b"/><path d="m186 122c-9.354 0-18.084-3.533-24.117-9.611-8.326 6.224-18.785 9.611-29.883 9.611-10.043 0-19.611-2.795-27.674-8.082-1.299-.852-1.986-2.377-1.766-3.914.076-.531.162-1.059.256-1.582-.511-.672-.816-1.512-.816-2.422v-36c0-2.209 1.791-4 4-4h48c27.143 0 49.904 20.867 51.818 47.504.109 1.518-.652 2.963-1.961 3.734-5.295 3.116-11.468 4.762-17.857 4.762zm-23.637-19.172c.133 0 .268.006.402.02 1.121.113 2.143.695 2.812 1.6 4.429 5.982 12.064 9.552 20.423 9.552 4.084 0 8.037-.855 11.574-2.492-2.836-21.231-21.49-37.508-43.574-37.508h-44v28.941c.207.176.398.373.57.592.758.967 1.029 2.229.736 3.422-.133.539-.258 1.082-.373 1.627 6.27 3.553 13.499 5.418 21.067 5.418 10.572 0 20.406-3.604 27.689-10.148.739-.663 1.692-1.024 2.674-1.024z" fill="#4c241d"/></g><g><path d="m218 34v31.721l4.274 37.488-10.421 49.779c-.651 2.928-3.248 5.012-6.248 5.012-3.535 0-3.605-2.866-3.605-6.401v-43.017c0-7.255-9.433-12.697-16.547-11.274l-13.633 2.727c-2.409.482-4.899-.272-6.636-2.009-3.173-3.173-5.289-8.504-1.35-10.652l7.706-2.047c11.527-4.894 18.46-16.204 18.46-28.727v-22.6" fill="#ffe8dc"/><path d="m205.605 162c-7.605 0-7.605-7.289-7.605-10.4v-43.018c0-2.207-1.697-3.928-2.709-4.758-2.543-2.086-6.264-3.156-9.053-2.594l-13.633 2.727c-3.729.752-7.561-.412-10.252-3.105-2.609-2.607-5.182-6.9-4.572-11.123.363-2.527 1.832-4.609 4.137-5.867.281-.152.58-.271.889-.354l7.422-1.973c9.736-4.25 15.771-13.777 15.771-24.935v-22.6c0-2.209 1.791-4 4-4s4 1.791 4 4v22.6c0 14.301-8.203 27.021-20.898 32.408-.174.074-.354.137-.535.184l-6.846 1.818c-.068.658.635 2.531 2.291 4.188.793.793 1.918 1.125 3.023.916l13.633-2.727c5.137-1.029 11.291.643 15.693 4.25 3.637 2.98 5.639 6.867 5.639 10.945v43.018c0 .621 0 1.613.064 2.324.99-.203 1.682-.891 1.885-1.803l10.277-49.1-4.201-36.848c-.018-.15-.025-.301-.025-.453v-31.72c0-2.209 1.791-4 4-4s4 1.791 4 4v31.494l4.248 37.262c.049.424.027.854-.059 1.273l-10.42 49.779c-1.076 4.842-5.251 8.192-10.164 8.192z" fill="#4c241d"/></g><g><path d="m89.966 34v31.721l-4.274 37.488 10.421 49.779c.651 2.928 3.248 5.012 6.248 5.012 3.535 0 3.605-2.866 3.605-6.401v-43.017c0-7.255 9.433-12.697 16.547-11.274l13.633 2.727c2.409.482 4.899-.272 6.636-2.009 3.173-3.173 5.289-8.504 1.35-10.652l-7.706-2.047c-11.527-4.893-18.46-16.203-18.46-28.726v-22.601" fill="#ffe8dc"/><path d="m102.361 162c-4.912 0-9.088-3.35-10.152-8.145l-10.434-49.826c-.086-.42-.107-.85-.059-1.273l4.25-37.262v-31.494c0-2.209 1.791-4 4-4s4 1.791 4 4v31.721c0 .152-.008.303-.025.453l-4.203 36.848 10.291 49.146c.201.912.943 1.611 1.869 1.789.068-.715.068-1.727.068-2.357v-43.018c0-4.078 2.002-7.965 5.637-10.945 4.404-3.607 10.553-5.279 15.695-4.25l13.633 2.727c1.094.217 2.23-.123 3.023-.916 1.621-1.623 2.328-3.453 2.328-4.178l-6.885-1.828c-.182-.047-.361-.109-.535-.184-12.693-5.387-20.896-18.109-20.896-32.408v-22.6c0-2.209 1.791-4 4-4s4 1.791 4 4v22.6c0 11.158 6.035 20.686 15.77 24.936l7.424 1.973c.309.082.607.201.889.354 2.305 1.258 3.773 3.342 4.137 5.867.607 4.223-1.965 8.516-4.574 11.125-2.689 2.691-6.535 3.854-10.25 3.104l-13.633-2.727c-2.787-.559-6.51.508-9.053 2.594-1.012.83-2.709 2.551-2.709 4.758v43.016c0 3.111 0 10.4-7.606 10.4z" fill="#4c241d"/></g><path d="m58 178c-2.209 0-4-1.791-4-4v-8c0-2.209 1.791-4 4-4s4 1.791 4 4v8c0 2.209-1.791 4-4 4z" fill="#4c241d"/><path d="m58 202c-2.209 0-4-1.791-4-4v-8c0-2.209 1.791-4 4-4s4 1.791 4 4v8c0 2.209-1.791 4-4 4z" fill="#4c241d"/><path d="m50 186h-8c-2.209 0-4-1.791-4-4s1.791-4 4-4h8c2.209 0 4 1.791 4 4s-1.791 4-4 4z" fill="#4c241d"/><path d="m74 186h-8c-2.209 0-4-1.791-4-4s1.791-4 4-4h8c2.209 0 4 1.791 4 4s-1.791 4-4 4z" fill="#4c241d"/><circle cx="34" cy="114" fill="#4c241d" r="4"/></g></svg>