<?xml version="1.0" encoding="UTF-8" standalone="no"?>
<!-- Created with Inkscape (http://www.inkscape.org/) -->

<svg
   version="1.1"
   id="svg921"
   xml:space="preserve"
   width="682.66669"
   height="682.66669"
   viewBox="0 0 682.66669 682.66669"
   xmlns="http://www.w3.org/2000/svg"
   xmlns:svg="http://www.w3.org/2000/svg"><defs
     id="defs925"><clipPath
       clipPathUnits="userSpaceOnUse"
       id="clipPath935"><path
         d="M 0,512 H 512 V 0 H 0 Z"
         id="path933" /></clipPath></defs><g
     id="g927"
     transform="matrix(1.3333333,0,0,-1.3333333,0,682.66667)"><g
       id="g929"><g
         id="g931"
         clip-path="url(#clipPath935)"><g
           id="g937"
           transform="translate(78.1816,67.8862)"><path
             d="m 0,0 h -23.131 c -6.321,0 -11.446,5.125 -11.446,11.446 V 46.022 H 11.446 V 11.446 C 11.446,5.125 6.321,0 0,0"
             style="fill:#394949;fill-opacity:1;fill-rule:nonzero;stroke:none"
             id="path939" /></g><g
           id="g941"
           transform="translate(456.9492,67.8862)"><path
             d="m 0,0 h -23.131 c -6.321,0 -11.446,5.125 -11.446,11.446 V 46.022 H 11.446 V 11.446 C 11.446,5.125 6.321,0 0,0"
             style="fill:#394949;fill-opacity:1;fill-rule:nonzero;stroke:none"
             id="path943" /></g><g
           id="g945"
           transform="translate(479.7637,96.6543)"><path
             d="m 0,0 h -447.527 c -13.662,0 -24.737,11.075 -24.737,24.737 v 297.986 c 0,13.662 11.075,24.736 24.737,24.736 H 0 c 13.662,0 24.736,-11.074 24.736,-24.736 V 24.737 C 24.736,11.075 13.662,0 0,0"
             style="fill:#557981;fill-opacity:1;fill-rule:nonzero;stroke:none"
             id="path947" /></g><g
           id="g949"
           transform="translate(45.5298,145.8838)"><path
             d="m 0,0 v 249 c 0,6.186 5.014,11.2 11.2,11.2 h 292.902 c 6.186,0 11.2,-5.014 11.2,-11.2 V 0 c 0,-6.186 -5.014,-11.2 -11.2,-11.2 H 11.2 C 5.014,-11.2 0,-6.186 0,0"
             style="fill:#e8f3ff;fill-opacity:1;fill-rule:nonzero;stroke:none"
             id="path951" /></g><g
           id="g953"
           transform="translate(349.6318,406.084)"><path
             d="m 0,0 h -39.693 c 6.186,0 11.2,-5.014 11.2,-11.2 v -249 c 0,-6.186 -5.014,-11.2 -11.2,-11.2 H 0 c 6.186,0 11.2,5.014 11.2,11.2 v 249 C 11.2,-5.014 6.186,0 0,0"
             style="fill:#d8eafb;fill-opacity:1;fill-rule:nonzero;stroke:none"
             id="path955" /></g><g
           id="g957"
           transform="translate(45.5293,174.7896)"><path
             d="m 0,0 v -28.906 c 0,-6.185 5.015,-11.199 11.2,-11.199 h 292.903 c 6.185,0 11.199,5.014 11.199,11.199 V 0 Z"
             style="fill:#c1e2ff;fill-opacity:1;fill-rule:nonzero;stroke:none"
             id="path959" /></g><g
           id="g961"
           transform="translate(321.1387,145.8838)"><path
             d="m 0,0 c 0,-6.186 -5.014,-11.2 -11.2,-11.2 h 39.693 c 6.186,0 11.2,5.014 11.2,11.2 V 28.906 H 0 Z"
             style="fill:#b3d8fb;fill-opacity:1;fill-rule:nonzero;stroke:none"
             id="path963" /></g><g
           id="g965"
           transform="translate(479.7637,444.1138)"><path
             d="M 0,0 H -82.153 V -347.459 H 0 c 13.662,0 24.736,11.075 24.736,24.736 V -24.736 C 24.736,-11.075 13.662,0 0,0"
             style="fill:#688b96;fill-opacity:1;fill-rule:nonzero;stroke:none"
             id="path967" /></g><g
           id="g969"
           transform="translate(479.7637,444.1138)"><path
             d="m 0,0 h -39.693 c 13.662,0 24.736,-11.075 24.736,-24.736 v -297.987 c 0,-13.661 -11.074,-24.736 -24.736,-24.736 H 0 c 13.662,0 24.736,11.075 24.736,24.736 V -24.736 C 24.736,-11.075 13.662,0 0,0"
             style="fill:#557981;fill-opacity:1;fill-rule:nonzero;stroke:none"
             id="path971" /></g><g
           id="g973"
           transform="translate(428.0088,307.4795)"><path
             d="m 0,0 v 90.512 c 0,4.469 3.624,8.092 8.093,8.092 H 38 c 4.469,0 8.093,-3.623 8.093,-8.092 V 0 c 0,-4.47 -3.624,-8.093 -8.093,-8.093 H 8.093 C 3.624,-8.093 0,-4.47 0,0"
             style="fill:#62d8f9;fill-opacity:1;fill-rule:nonzero;stroke:none"
             id="path975" /></g><g
           id="g977"
           transform="translate(474.1016,157.7305)"><path
             d="m 0,0 c 0,-12.728 -10.318,-23.046 -23.046,-23.046 -12.728,0 -23.047,10.318 -23.047,23.046 0,12.728 10.319,23.046 23.047,23.046 C -10.318,23.046 0,12.728 0,0"
             style="fill:#fbd307;fill-opacity:1;fill-rule:nonzero;stroke:none"
             id="path979" /></g><g
           id="g981"
           transform="translate(428.0088,265.3599)"><path
             d="M 0,0 H 46.093"
             style="fill:none;stroke:#000000;stroke-width:15;stroke-linecap:round;stroke-linejoin:round;stroke-miterlimit:10;stroke-dasharray:none;stroke-opacity:1"
             id="path983" /></g><g
           id="g985"
           transform="translate(428.0088,240.0815)"><path
             d="M 0,0 H 46.093"
             style="fill:none;stroke:#000000;stroke-width:15;stroke-linecap:round;stroke-linejoin:round;stroke-miterlimit:10;stroke-dasharray:none;stroke-opacity:1"
             id="path987" /></g><g
           id="g989"
           transform="translate(428.0088,240.0815)"><path
             d="M 0,0 H 46.093"
             style="fill:none;stroke:#000000;stroke-width:15;stroke-linecap:round;stroke-linejoin:round;stroke-miterlimit:10;stroke-dasharray:none;stroke-opacity:1"
             id="path991" /></g><g
           id="g993"
           transform="translate(105.144,174.7896)"><path
             d="M 0,0 H 255.687"
             style="fill:none;stroke:#000000;stroke-width:15;stroke-linecap:round;stroke-linejoin:round;stroke-miterlimit:10;stroke-dasharray:none;stroke-opacity:1"
             id="path995" /></g><g
           id="g997"
           transform="translate(45.5298,174.7896)"><path
             d="M 0,0 H 24.524"
             style="fill:none;stroke:#000000;stroke-width:15;stroke-linecap:round;stroke-linejoin:round;stroke-miterlimit:10;stroke-dasharray:none;stroke-opacity:1"
             id="path999" /></g><g
           id="g1001"
           transform="translate(269.7124,174.7896)"><path
             d="m 0,0 h -133.064 l -27.267,45.321 c -5.284,8.783 1.042,19.971 11.292,19.971 H 15.975 c 10.251,0 16.576,-11.188 11.292,-19.971 z"
             style="fill:#fd7e42;fill-opacity:1;fill-rule:nonzero;stroke:none"
             id="path1003" /></g><g
           id="g1005"
           transform="translate(285.6875,240.0815)"><path
             d="m 0,0 h -38.933 c 10.25,0 16.576,-11.188 11.292,-19.971 l -27.267,-45.321 h 38.933 l 27.267,45.321 C 16.576,-11.188 10.25,0 0,0"
             style="fill:#fc5327;fill-opacity:1;fill-rule:nonzero;stroke:none"
             id="path1007" /></g><g
           id="g1009"
           transform="translate(221.2065,332.606)"><path
             d="m 0,0 c -3.203,-3.676 -6.919,-6.785 -6.919,-14 0,-12.68 11.477,-12.68 11.477,-25.361 0,-7.291 -3.795,-10.39 -7.02,-14.118"
             style="fill:none;stroke:#000000;stroke-width:15;stroke-linecap:round;stroke-linejoin:round;stroke-miterlimit:10;stroke-dasharray:none;stroke-opacity:1"
             id="path1011" /></g><g
           id="g1013"
           transform="translate(176.3013,332.606)"><path
             d="m 0,0 c -3.203,-3.676 -6.919,-6.785 -6.919,-14 0,-12.68 11.477,-12.68 11.477,-25.361 0,-7.291 -3.795,-10.39 -7.02,-14.118"
             style="fill:none;stroke:#000000;stroke-width:15;stroke-linecap:round;stroke-linejoin:round;stroke-miterlimit:10;stroke-dasharray:none;stroke-opacity:1"
             id="path1015" /></g><g
           id="g1017"
           transform="translate(479.7637,96.6543)"><path
             d="m 0,0 h -447.527 c -13.662,0 -24.737,11.075 -24.737,24.737 v 297.986 c 0,13.662 11.075,24.736 24.737,24.736 H 0 c 13.662,0 24.736,-11.074 24.736,-24.736 V 24.737 C 24.736,11.075 13.662,0 0,0 Z"
             style="fill:none;stroke:#000000;stroke-width:15;stroke-linecap:round;stroke-linejoin:round;stroke-miterlimit:10;stroke-dasharray:none;stroke-opacity:1"
             id="path1019" /></g><g
           id="g1021"
           transform="translate(45.5298,145.8838)"><path
             d="m 0,0 v 249 c 0,6.186 5.014,11.2 11.2,11.2 h 292.902 c 6.186,0 11.2,-5.014 11.2,-11.2 V 0 c 0,-6.186 -5.014,-11.2 -11.2,-11.2 H 11.2 C 5.014,-11.2 0,-6.186 0,0 Z"
             style="fill:none;stroke:#000000;stroke-width:15;stroke-linecap:round;stroke-linejoin:round;stroke-miterlimit:10;stroke-dasharray:none;stroke-opacity:1"
             id="path1023" /></g><g
           id="g1025"
           transform="translate(397.6104,444.1138)"><path
             d="M 0,0 V -347.459"
             style="fill:none;stroke:#000000;stroke-width:15;stroke-linecap:round;stroke-linejoin:round;stroke-miterlimit:10;stroke-dasharray:none;stroke-opacity:1"
             id="path1027" /></g><g
           id="g1029"
           transform="translate(269.7124,174.7896)"><path
             d="m 0,0 h -133.064 l -27.267,45.321 c -5.284,8.783 1.042,19.971 11.292,19.971 H 15.975 c 10.251,0 16.576,-11.188 11.292,-19.971 z"
             style="fill:none;stroke:#000000;stroke-width:15;stroke-linecap:round;stroke-linejoin:round;stroke-miterlimit:10;stroke-dasharray:none;stroke-opacity:1"
             id="path1031" /></g><g
           id="g1033"
           transform="translate(428.0088,372.8774)"><path
             d="m 0,0 v 25.114 c 0,4.469 3.624,8.093 8.093,8.093 H 38 c 4.469,0 8.093,-3.624 8.093,-8.093 v -90.512 c 0,-4.47 -3.624,-8.093 -8.093,-8.093 H 8.093 C 3.624,-73.491 0,-69.868 0,-65.398 v 30.308"
             style="fill:none;stroke:#000000;stroke-width:15;stroke-linecap:round;stroke-linejoin:round;stroke-miterlimit:10;stroke-dasharray:none;stroke-opacity:1"
             id="path1035" /></g><g
           id="g1037"
           transform="translate(474.1016,157.7305)"><path
             d="m 0,0 c 0,-12.728 -10.318,-23.046 -23.046,-23.046 -12.728,0 -23.047,10.318 -23.047,23.046 0,12.728 10.319,23.046 23.047,23.046 C -10.318,23.046 0,12.728 0,0 Z"
             style="fill:none;stroke:#000000;stroke-width:15;stroke-linecap:round;stroke-linejoin:round;stroke-miterlimit:10;stroke-dasharray:none;stroke-opacity:1"
             id="path1039" /></g><g
           id="g1041"
           transform="translate(43.605,96.6548)"><path
             d="m 0,0 v -17.323 c 0,-6.321 5.125,-11.446 11.446,-11.446 h 23.131 c 6.321,0 11.445,5.125 11.445,11.446 V 0"
             style="fill:none;stroke:#000000;stroke-width:15;stroke-linecap:round;stroke-linejoin:round;stroke-miterlimit:10;stroke-dasharray:none;stroke-opacity:1"
             id="path1043" /></g><g
           id="g1045"
           transform="translate(422.3726,96.6543)"><path
             d="m 0,0 v -17.322 c 0,-6.322 5.125,-11.446 11.446,-11.446 h 23.131 c 6.321,0 11.445,5.124 11.445,11.446 V 0"
             style="fill:none;stroke:#000000;stroke-width:15;stroke-linecap:round;stroke-linejoin:round;stroke-miterlimit:10;stroke-dasharray:none;stroke-opacity:1"
             id="path1047" /></g></g></g></g></svg>
