<?xml version="1.0" encoding="iso-8859-1"?>
<!-- Generator: Adobe Illustrator 19.0.0, SVG Export Plug-In . SVG Version: 6.00 Build 0)  -->
<svg version="1.1" id="Layer_1" xmlns="http://www.w3.org/2000/svg" xmlns:xlink="http://www.w3.org/1999/xlink" x="0px" y="0px"
	 viewBox="0 0 511.995 511.995" style="enable-background:new 0 0 511.995 511.995;" xml:space="preserve">
<path style="fill:#BCAE8A;" d="M412.436,200.458l-33.667-45.266c-5.577-7.381-14.619-7.381-20.198,0l-27.815,36.825l-31.413-41.429
	l-33.667-45.267c-5.577-7.381-14.62-7.381-20.198,0L132.607,254.754l-22.958-30.87c-5.577-7.381-14.619-7.381-20.198,0
	L15.311,322.04h4.526c37.095-25.423,91.234-41.452,151.539-41.452c48.757,0,93.488,10.476,128.438,27.923
	c26.256-7.564,55.615-11.8,86.605-11.8c43.042,0,82.936,8.168,115.745,22.084l-74.284-97.972"/>
<g style="opacity:0.1;">
	<path style="fill:#231F20;" d="M350.278,208.16l34.181-45.319l-5.688-7.649c-5.577-7.381-14.619-7.381-20.198,0l-27.815,36.825
		L350.278,208.16z"/>
	<path style="fill:#231F20;" d="M151.433,272.116L271.366,112.97l-5.688-7.648c-5.577-7.381-14.619-7.381-20.198,0L132.607,254.754
		L151.433,272.116z"/>
	<path style="fill:#231F20;" d="M115.338,231.533l-5.688-7.649c-5.577-7.381-14.619-7.381-20.198,0L15.312,322.04h4.526
		c12.883-8.829,27.825-16.522,44.364-22.807L115.338,231.533z"/>
</g>
<path style="fill:#B0E046;" d="M299.814,308.512c26.256-7.564,55.615-11.8,86.605-11.8c43.042,0,82.947,8.162,115.754,22.079
	v185.125H9.822V322.04h10.015C19.837,322.04,136.868,238.162,299.814,308.512z"/>
<path style="fill:#EDE1CA;" d="M255.293,146.182c12.16,0,23.101-5.211,30.72-13.518l-20.337-27.343
	c-5.577-7.381-14.62-7.381-20.198,0l-20.765,27.492C232.328,141.032,243.206,146.182,255.293,146.182z"/>
<path style="fill:#36CC6B;" d="M502.171,452.547c-44.819-43.141-134.571-72.59-238.005-72.59
	c-118.169,0-218.503,38.431-254.345,91.815v32.143h492.35V452.547z"/>
<g>
	<path style="fill:#2DA555;" d="M127.942,398.625c-0.232-2.233-0.377-3.627-0.377-3.629c0.066-0.784,0.108-1.574,0.108-2.374
		c0-15.477-12.548-28.025-28.025-28.025c-8.029,0-15.265,3.382-20.374,8.792c1.869-3.317,2.947-7.139,2.947-11.217
		c0-12.649-10.255-22.904-22.905-22.904c-12.648,0-22.903,10.255-22.903,22.904c0,1.179,0.115,2.326,0.289,3.457
		c-2.015-0.662-4.162-1.033-6.398-1.033c-11.309,0-20.48,9.17-20.48,20.48v9.919v25.652v51.126
		C30.583,440.854,72.978,414.951,127.942,398.625z"/>
	<path style="fill:#2DA555;" d="M488.962,400.313c-4.769,0-9.24,1.255-13.116,3.444c-0.952-17.003-15.04-30.499-32.28-30.499
		c-16.676,0-30.398,12.623-32.145,28.834c37.209,12.314,67.967,29.158,89.181,48.974c0.532-0.259,1.056-0.531,1.57-0.825V403.81
		C498.275,401.589,493.768,400.313,488.962,400.313z"/>
</g>
<g>
	<path style="fill:#B8E5F4;" d="M374.306,73.381c7.055,0,13.445,2.832,18.105,7.417c2.716-15.055,15.875-26.478,31.712-26.478
		c17.56,0,31.831,14.041,32.219,31.506c2.101-0.742,4.358-1.149,6.714-1.149c11.137,0,20.162,9.027,20.162,20.163
		s-9.025,20.163-20.162,20.163h-88.75c-14.255,0-25.81-11.557-25.81-25.812S360.052,73.381,374.306,73.381z"/>
	<path style="fill:#B8E5F4;" d="M374.306,73.381c5.941,0,11.406,2.015,15.769,5.387h2.779c3.476-14.005,16.095-24.397,31.162-24.446
		c0.025-0.453,0.038-0.908,0.038-1.367c0-14.255-11.556-25.81-25.812-25.81c-7.053,0-13.442,2.832-18.103,7.417
		c-2.715-15.055-15.875-26.478-31.713-26.478c-17.558,0-31.829,14.041-32.217,31.506c-2.101-0.742-4.36-1.149-6.714-1.149
		c-11.137,0-20.164,9.027-20.164,20.163s9.027,20.163,20.164,20.163h49.038C362.896,75.393,368.363,73.381,374.306,73.381z"/>
	<path style="fill:#B8E5F4;" d="M115.163,67.601c0-9.329,7.56-16.893,16.893-16.893h57.739c9.328,0,16.893,7.564,16.893,16.893l0,0
		c0,9.329-7.565,16.892-16.893,16.892h-57.739C122.723,84.494,115.163,76.93,115.163,67.601L115.163,67.601z"/>
	<circle style="fill:#B8E5F4;" cx="70.966" cy="67.601" r="16.893"/>
</g>
<g>
	<path style="fill:#231F20;" d="M463.055,133.088h-88.75c-18.69,0-33.894-15.206-33.894-33.897c0-18.69,15.206-33.894,33.894-33.894
		c4.858,0,9.566,1.019,13.878,2.957c6.723-13.231,20.436-22.017,35.939-22.017c18.624,0,34.562,12.975,39.051,30.357
		c15.521,0.064,28.129,12.711,28.129,28.247C491.303,120.415,478.631,133.088,463.055,133.088z M374.306,81.465
		c-9.774,0-17.726,7.952-17.726,17.726c0,9.775,7.952,17.728,17.726,17.728h88.75c6.66,0,12.078-5.419,12.078-12.079
		c0-6.66-5.418-12.079-12.078-12.079c-1.375,0-2.728,0.232-4.021,0.688c-2.445,0.864-5.156,0.501-7.288-0.971
		c-2.132-1.473-3.431-3.88-3.487-6.472c-0.289-13.014-11.117-23.602-24.137-23.602c-11.693,0-21.683,8.34-23.756,19.829
		c-0.531,2.949-2.653,5.363-5.508,6.269c-2.86,0.908-5.981,0.16-8.117-1.942C383.402,83.275,378.985,81.465,374.306,81.465z"/>
	<path style="fill:#231F20;" d="M392.854,86.852h-2.779c-1.789,0-3.529-0.594-4.945-1.689c-3.128-2.42-6.872-3.698-10.823-3.698
		c-3.956,0-7.699,1.279-10.83,3.699c-1.416,1.095-3.156,1.688-4.945,1.688h-49.038c-15.576,0-28.248-12.672-28.248-28.247
		c0-15.537,12.607-28.184,28.131-28.247C313.864,12.975,329.801,0,348.425,0c15.504,0,29.216,8.786,35.94,22.017
		c4.312-1.936,9.02-2.956,13.877-2.956c18.691,0,33.897,15.206,33.897,33.894c0,0.609-0.017,1.215-0.051,1.817
		c-0.238,4.273-3.765,7.62-8.045,7.634c-11.076,0.036-20.676,7.565-23.342,18.309C399.806,84.32,396.569,86.852,392.854,86.852z
		 M309.494,46.525c-6.661,0-12.08,5.419-12.08,12.079s5.419,12.079,12.08,12.079h46.478c5.465-3.533,11.747-5.387,18.335-5.387
		c4.863,0,9.56,1.011,13.885,2.964c5.387-10.617,15.233-18.319,26.842-20.993c-2.376-6.992-9.006-12.038-16.793-12.038
		c-4.678,0-9.093,1.81-12.434,5.096c-2.134,2.102-5.258,2.85-8.117,1.942c-2.855-0.907-4.977-3.32-5.508-6.269
		c-2.074-11.49-12.066-19.83-23.759-19.83c-13.019,0-23.846,10.587-24.135,23.602c-0.057,2.591-1.355,4.998-3.487,6.472
		c-2.132,1.473-4.84,1.836-7.288,0.971C312.222,46.757,310.87,46.525,309.494,46.525z"/>
	<path style="fill:#231F20;" d="M189.795,92.578h-57.739c-13.772,0-24.977-11.204-24.977-24.976s11.205-24.977,24.977-24.977h57.739
		c13.772,0,24.977,11.205,24.977,24.977C214.772,81.373,203.567,92.578,189.795,92.578z M132.056,58.793
		c-4.857,0-8.809,3.952-8.809,8.809s3.952,8.807,8.809,8.807h57.739c4.857,0,8.809-3.95,8.809-8.807
		c0-4.857-3.952-8.809-8.809-8.809C189.794,58.793,132.056,58.793,132.056,58.793z"/>
	<path style="fill:#231F20;" d="M70.966,92.578c-13.772,0-24.977-11.205-24.977-24.977s11.205-24.977,24.977-24.977
		s24.977,11.205,24.977,24.977C95.942,81.373,84.738,92.578,70.966,92.578z M70.966,58.793c-4.857,0-8.809,3.952-8.809,8.809
		s3.952,8.809,8.809,8.809c4.857,0,8.809-3.952,8.809-8.809C79.773,62.744,75.822,58.793,70.966,58.793z"/>
	<path style="fill:#231F20;" d="M266.636,190.599c-3.618,2.615-4.431,7.669-1.816,11.288l50.749,70.208
		c1.581,2.187,4.052,3.349,6.558,3.349c1.641,0,3.298-0.499,4.73-1.534c3.618-2.616,4.431-7.669,1.816-11.288l-50.749-70.208
		C275.307,188.795,270.252,187.983,266.636,190.599z"/>
	<path style="fill:#231F20;" d="M509.847,316.283c-0.004-0.012-0.01-0.024-0.014-0.036c-0.13-0.392-0.292-0.771-0.48-1.136
		c-0.029-0.057-0.064-0.112-0.095-0.168c-0.177-0.327-0.375-0.639-0.595-0.938c-0.023-0.03-0.037-0.064-0.059-0.094L434.32,215.94
		c-2.698-3.557-7.768-4.258-11.327-1.558c-3.558,2.698-4.254,7.768-1.558,11.325l57.776,76.199
		c-0.112-0.035-0.225-0.065-0.337-0.099c-1.008-0.305-2.025-0.597-3.041-0.891c-1.119-0.326-2.24-0.647-3.367-0.959
		c-1.018-0.282-2.038-0.561-3.063-0.833c-1.234-0.328-2.475-0.643-3.718-0.956c-0.908-0.229-1.811-0.464-2.723-0.683
		c-2.018-0.487-4.049-0.954-6.089-1.401c-0.86-0.189-1.728-0.364-2.591-0.545c-1.38-0.29-2.762-0.575-4.151-0.846
		c-0.927-0.181-1.856-0.359-2.787-0.532c-1.447-0.269-2.9-0.527-4.356-0.777c-0.807-0.139-1.611-0.284-2.422-0.416
		c-2.182-0.357-4.371-0.695-6.572-1.009c-0.643-0.092-1.292-0.171-1.937-0.26c-1.68-0.23-3.365-0.448-5.056-0.652
		c-0.831-0.1-1.663-0.195-2.497-0.289c-1.62-0.182-3.246-0.352-4.874-0.511c-0.741-0.072-1.479-0.149-2.22-0.217
		c-2.314-0.21-4.635-0.402-6.965-0.566c-0.362-0.025-0.727-0.043-1.089-0.067c-2.02-0.135-4.044-0.252-6.075-0.351
		c-0.757-0.037-1.516-0.068-2.273-0.1c-1.729-0.073-3.46-0.133-5.195-0.18c-0.727-0.019-1.452-0.042-2.18-0.057
		c-2.399-0.05-4.803-0.083-7.214-0.083c-1.873,0-3.742,0.015-5.607,0.044c-0.601,0.01-1.2,0.03-1.799,0.043
		c-1.26,0.027-2.522,0.051-3.779,0.091c-0.793,0.025-1.581,0.064-2.372,0.095c-1.061,0.041-2.122,0.077-3.18,0.127
		c-0.874,0.042-1.744,0.098-2.616,0.147c-0.968,0.054-1.939,0.101-2.905,0.164c-0.931,0.06-1.857,0.135-2.786,0.203
		c-0.902,0.066-1.808,0.124-2.707,0.197c-0.979,0.079-1.952,0.174-2.929,0.261c-0.844,0.075-1.69,0.144-2.532,0.226
		c-1.012,0.099-2.019,0.212-3.028,0.32c-0.801,0.085-1.604,0.164-2.403,0.255c-1.042,0.12-2.078,0.253-3.117,0.383
		c-0.759,0.094-1.521,0.181-2.278,0.28c-1.063,0.14-2.119,0.294-3.178,0.444c-0.729,0.103-1.459,0.198-2.186,0.306
		c-1.082,0.161-2.158,0.337-3.235,0.509c-0.696,0.111-1.397,0.215-2.091,0.33c-1.096,0.182-2.185,0.379-3.277,0.572
		c-0.672,0.119-1.345,0.231-2.015,0.354c-1.11,0.204-2.213,0.424-3.318,0.639c-0.645,0.126-1.292,0.245-1.935,0.374
		c-1.113,0.224-2.22,0.465-3.329,0.702c-0.628,0.135-1.261,0.261-1.888,0.399c-1.112,0.245-2.218,0.506-3.326,0.762
		c-0.617,0.143-1.236,0.278-1.851,0.426c-1.107,0.264-2.208,0.543-3.309,0.82c-0.609,0.153-1.221,0.299-1.828,0.455
		c-1.097,0.282-2.187,0.58-3.278,0.874c-0.579,0.156-1.162,0.305-1.74,0.465c-32.237-15.525-71.444-24.899-112.199-26.953
		c-6.391-0.396-12.777-0.619-19.153-0.619c-4.618,0-9.146,0.108-13.592,0.303l-12.913-17.866l83.18-110.123
		c8.468,6.188,18.772,9.631,29.378,9.631c10.663,0,21.003-3.471,29.49-9.709l8.118,10.915l31.367,41.369l25.871,35.792
		c1.58,2.187,4.052,3.349,6.558,3.349c1.641,0,3.298-0.498,4.73-1.533c3.618-2.616,4.431-7.669,1.816-11.288l-22.435-31.039
		l24.213-32.057c1.134-1.5,2.431-2.326,3.651-2.326c1.219,0,2.515,0.826,3.612,2.277l33.667,45.267
		c2.663,3.582,7.729,4.327,11.31,1.662c3.583-2.665,4.328-7.73,1.662-11.311l-33.704-45.316c-4.199-5.559-10.23-8.747-16.548-8.747
		h-0.001c-6.316,0-12.348,3.188-16.55,8.748l-21.377,28.301l-24.913-32.857l-13.328-17.921c-0.001-0.001-0.001-0.002-0.002-0.003
		l-20.372-27.391c-0.278-0.369-0.566-0.724-0.859-1.071c-2.98-3.521-6.742-5.945-10.815-7.029c-0.071-0.019-0.142-0.043-0.213-0.061
		c-0.21-0.054-0.423-0.095-0.635-0.141c-0.171-0.038-0.341-0.081-0.512-0.113c-0.659-0.125-1.324-0.207-1.993-0.262
		c-0.113-0.01-0.225-0.025-0.34-0.032c-0.182-0.012-0.365-0.011-0.548-0.017c-0.211-0.008-0.42-0.019-0.632-0.019h-0.001
		c-0.789,0-1.575,0.05-2.352,0.148c-3.888,0.49-7.591,2.186-10.727,4.887c-1.256,1.081-2.42,2.322-3.471,3.712L132.663,241.269
		l-16.558-22.264c-4.199-5.559-10.23-8.747-16.548-8.747h-0.006c-6.316,0-12.348,3.187-16.55,8.748l-71.716,94.944H9.822
		c-4.466,0-8.084,3.618-8.084,8.084v63.036v86.696v32.143c0,4.466,3.618,8.084,8.084,8.084h492.35c4.466,0,8.084-3.618,8.084-8.084
		v-51.368v-2.305v-46.431v-85.021C510.256,317.922,510.108,317.081,509.847,316.283z M264.168,371.874
		c-45.92,0-89.876,5.823-128.694,16.305c-2.198-17.821-17.421-31.666-35.826-31.666c-3.28,0-6.526,0.455-9.645,1.325
		c-2.116-15.041-15.071-26.653-30.688-26.653c-15.166,0-27.824,10.954-30.475,25.365c-3.901,0.198-7.595,1.188-10.933,2.803v-29.227
		h1.931c0.416,0,0.829-0.033,1.236-0.097c0.094-0.015,0.184-0.045,0.277-0.064c0.313-0.059,0.623-0.124,0.926-0.22
		c0.115-0.037,0.224-0.092,0.337-0.133c0.271-0.099,0.541-0.198,0.801-0.327c0.139-0.069,0.268-0.157,0.403-0.234
		c0.197-0.112,0.401-0.212,0.589-0.342c0.727-0.498,1.47-0.984,2.209-1.474c8.16-5.251,39.931-24.134,87.81-33.459
		c18.278-3.348,37.45-5.104,56.949-5.104c5.45,0,10.88,0.147,16.282,0.419c36.247,2.278,72.747,11.237,108.758,26.762
		c15.86,7.942,29.445,17.264,40.377,27.713c1.566,1.497,3.576,2.24,5.586,2.24c2.131,0,4.257-0.836,5.845-2.497
		c3.085-3.227,2.97-8.345-0.258-11.431c-7.713-7.373-16.572-14.21-26.461-20.445c20.751-4.405,42.501-6.637,64.913-6.637
		c2.478,0,4.95,0.03,7.414,0.085c0.781,0.017,1.556,0.053,2.336,0.077c1.684,0.05,3.367,0.098,5.043,0.174
		c0.909,0.041,1.812,0.1,2.718,0.149c1.542,0.082,3.085,0.162,4.621,0.265c0.942,0.064,1.877,0.144,2.815,0.216
		c1.496,0.114,2.993,0.227,4.482,0.362c0.937,0.085,1.868,0.185,2.801,0.278c1.484,0.148,2.97,0.296,4.446,0.465
		c0.921,0.105,1.836,0.223,2.753,0.335c1.482,0.182,2.963,0.366,4.436,0.57c0.895,0.123,1.785,0.258,2.676,0.388
		c1.491,0.219,2.979,0.442,4.459,0.681c0.859,0.139,1.713,0.287,2.568,0.432c1.505,0.257,3.005,0.521,4.499,0.8
		c0.819,0.153,1.636,0.313,2.452,0.472c1.522,0.297,3.039,0.605,4.548,0.925c0.774,0.164,1.546,0.333,2.317,0.503
		c1.544,0.341,3.08,0.693,4.609,1.057c0.725,0.172,1.449,0.348,2.171,0.526c1.566,0.387,3.124,0.787,4.675,1.199
		c0.673,0.179,1.345,0.358,2.015,0.541c1.594,0.437,3.179,0.889,4.756,1.352c0.611,0.18,1.223,0.358,1.832,0.541
		c1.632,0.492,3.251,1.002,4.861,1.522c0.541,0.175,1.085,0.346,1.624,0.525c1.678,0.555,3.341,1.129,4.996,1.715
		c0.46,0.163,0.924,0.321,1.382,0.486c1.744,0.628,3.47,1.278,5.186,1.941c0.358,0.138,0.72,0.272,1.077,0.412
		c0.371,0.146,0.731,0.301,1.101,0.448v68.389c-1.693-0.252-3.405-0.396-5.126-0.396c-2.357,0-4.703,0.241-6.998,0.712
		c-5.326-16.191-20.581-27.768-38.398-27.768c-17.366,0-32.321,10.919-37.99,26.578
		C363.629,378.959,315.006,371.874,264.168,371.874z M25.714,441.992c-0.84,0.738-1.668,1.481-2.482,2.228
		c-0.08,0.073-0.161,0.147-0.241,0.22c-0.781,0.719-1.551,1.442-2.309,2.17c-0.081,0.078-0.164,0.154-0.244,0.232
		c-0.858,0.827-1.704,1.658-2.531,2.494v-64.258c0-6.835,5.561-12.396,12.396-12.396c1.301,0,2.605,0.211,3.874,0.628
		c2.669,0.876,5.602,0.305,7.748-1.509c2.144-1.815,3.193-4.613,2.768-7.391c-0.134-0.875-0.196-1.586-0.196-2.237
		c0-8.172,6.647-14.82,14.819-14.82c8.173,0,14.821,6.648,14.821,14.82c0,2.565-0.641,5.005-1.906,7.248
		c-2.006,3.559-1.042,8.055,2.246,10.478c3.29,2.422,7.868,2.012,10.673-0.958c3.811-4.036,8.961-6.259,14.497-6.259
		c10.996,0,19.941,8.945,19.941,19.941c0,0.035,0,0.069,0,0.106c-38.878,12.24-71.019,29.192-93.816,49.212
		C25.753,441.957,25.733,441.975,25.714,441.992z M420.949,396.802c3.528-9.134,12.374-15.459,22.617-15.459
		c12.857,0,23.491,10.044,24.208,22.866c0.156,2.79,1.742,5.301,4.194,6.642c2.45,1.341,5.422,1.32,7.854-0.055
		c4.289-2.422,9.552-3.03,14.266-1.679v25.84C474.432,419.772,449.519,406.889,420.949,396.802z M259.191,110.146l15.953,21.449
		c-5.718,4.183-12.679,6.502-19.849,6.502c-7.195,0-13.984-2.216-19.653-6.337l16.288-21.564c1.134-1.5,2.431-2.326,3.651-2.326
		C256.798,107.869,258.094,108.695,259.191,110.146z M95.901,228.758c1.134-1.5,2.431-2.326,3.651-2.326
		c1.219,0,2.515,0.826,3.611,2.277l22.958,30.87c0.249,0.334,0.528,0.638,0.821,0.926l9.781,13.533
		c-14.366,1.522-27.662,3.959-39.776,6.911c-19.639,4.593-38.142,10.968-54.801,18.977L95.901,228.758z M17.907,495.832v-21.522
		c0.087-0.124,0.17-0.248,0.259-0.372c0.283-0.396,0.575-0.79,0.867-1.184c0.274-0.371,0.55-0.741,0.831-1.109
		c0.424-0.556,0.853-1.111,1.292-1.664c0.088-0.111,0.178-0.221,0.266-0.332c17.684-22.031,48.247-41.754,87.172-56.094
		c0.146-0.054,0.29-0.107,0.435-0.161c2.608-0.957,5.25-1.884,7.914-2.789c0.437-0.148,0.875-0.294,1.313-0.441
		c2.411-0.808,4.844-1.596,7.298-2.362c0.771-0.24,1.552-0.473,2.329-0.709c40.966-12.488,87.633-19.052,136.285-19.052
		c52.173,0,101.74,7.598,143.513,21.214c0.382,0.199,0.78,0.373,1.2,0.511c35.559,11.767,64.971,27.77,85.208,46.313v39.752H17.907z
		"/>
</g>
<g style="opacity:0.1;">
	<rect x="17.885" y="316.287" style="fill:#231F20;" width="17.246" height="184.169"/>
</g>
<g>
</g>
<g>
</g>
<g>
</g>
<g>
</g>
<g>
</g>
<g>
</g>
<g>
</g>
<g>
</g>
<g>
</g>
<g>
</g>
<g>
</g>
<g>
</g>
<g>
</g>
<g>
</g>
<g>
</g>
</svg>
