<?xml version="1.0" encoding="iso-8859-1"?>
<!-- Generator: Adobe Illustrator 19.0.0, SVG Export Plug-In . SVG Version: 6.00 Build 0)  -->
<svg version="1.1" id="Capa_1" xmlns="http://www.w3.org/2000/svg" xmlns:xlink="http://www.w3.org/1999/xlink" x="0px" y="0px"
	 viewBox="0 0 512 512" style="enable-background:new 0 0 512 512;" xml:space="preserve">
<path style="fill:#C16B3D;" d="M381.666,187.559c0-13.457-20.184-22.427-20.184-22.427l-4.822-19.727
	c-2.579-10.546-6.941-6.581-9.412-3.08c-0.836,1.407-1.854,3.08-1.854,3.08l-0.006-0.004c-28.153,45.418-64.657,60.87-98.468,64.586
	c-71.797-3.392-57.411-2.375-72.053-4.549c-6.404-0.951-11.993-0.888-16.872-0.016l-0.001-0.002
	c-5.717,1.159-12.297-2.423-13.908-6.337c-3.025-8.186-5.026-20.279,3.453-30.141l-16.91-16.909
	c-5.648,1.837-11.312,4.909-16.596,9.764c-21.782,20.005-6.97,48.298,10.256,58.673l-0.003,0.003
	c3.734,1.603,6.737,6.281,5.222,13.638h0.006c-4.975,17.451-3.111,38.124-1.277,48.393c3.739,20.932-14.205,55.321-14.205,55.321
	v34.651c0.317,3.038,2.063,7.96,10.054,7.96c15.293,0,13.792,0,28.288,0c9.188,0,6.174-6.834,6.174-6.834V373.6
	c-2.347-4.767-6.875-10.654-15.361-12.865v-16.934c19.95-11.55,30.673-33.407,35.296-45.408l0.003-0.001
	c1.523-3.907,5.498-6.569,10.258-4.268c30.935,15.697,65.939,14.798,81.519,13.364c2.95,0.078,8.237,1.677,8.237,12.14v53.338
	c0.407,3.048,2.362,7.469,10.286,7.469c17.018,0,13.03,0,30.571,0c7.964,0,5.412-5.96,5.412-5.96l0,0
	c-2.009-4.438-5.939-10.188-13.377-12.972c0-36.083-1.196-19.258,6.557-80.484c14.39-17.282,25.242-35.695,30.907-46.107
	c0,0,0.001,0,0.001-0.001c3.177-5.691,10.192-5.075,10.192-5.075l-0.002-0.011c22.895,12.194,33.866,2.219,43.549-11.615
	C413.064,203.257,381.666,201.014,381.666,187.559z"/>
<g>
	<path style="fill:#AF542C;" d="M133.108,372.473v-34.651c0,0,17.944-34.388,14.205-55.321c-1.835-10.269-3.699-30.942,1.277-48.393
		h-0.006c1.523-7.397-1.542-12.058-5.222-13.637l0.003-0.003c-18.135-10.922-33.712-41.799-6.26-61.961l-6.474-6.474
		c-5.648,1.837-11.312,4.909-16.596,9.764c-21.782,20.005-6.97,48.298,10.256,58.673l-0.003,0.003
		c3.734,1.603,6.737,6.281,5.222,13.637h0.006c-4.975,17.451-3.111,38.124-1.277,48.393c3.739,20.932-14.205,55.321-14.205,55.321
		v34.651c0.317,3.038,2.063,7.96,10.054,7.96h19.075C135.172,380.433,133.425,375.51,133.108,372.473z"/>
	<path style="fill:#AF542C;" d="M265.994,209.987c31.574-3.47,65.493-17.183,92.77-55.968l-2.106-8.614
		c-2.579-10.546-6.941-6.581-9.412-3.08c-0.836,1.407-1.854,3.08-1.854,3.08l-0.006-0.004
		c-26.74,43.138-61.011,59.235-93.355,63.926L265.994,209.987z"/>
	<path style="fill:#AF542C;" d="M297.576,372.964v-53.338c0-10.463-5.287-12.062-8.237-12.14c-4.097,0.378-9.544,0.714-15.899,0.726
		c2.535,1.187,5.06,4.182,5.06,11.414v53.338c0.407,3.048,2.362,7.469,10.286,7.469h19.075
		C299.938,380.433,297.983,376.011,297.576,372.964z"/>
</g>
<path style="fill:#EA473B;" d="M7.544,256.34c0,137.219,111.238,248.457,248.457,248.457c137.217,0,248.457-111.238,248.457-248.457
	C504.456,119.122,393.218,7.884,256.001,7.884C118.781,7.884,7.544,119.122,7.544,256.34z M463.041,256.34
	c0,47.672-16.121,91.573-43.198,126.57L129.429,92.498C164.427,65.422,208.331,49.3,256.001,49.3
	C370.344,49.299,463.039,141.996,463.041,256.34z M48.959,256.34c0-51.812,19.033-99.178,50.486-135.491L391.49,412.894
	c-36.312,31.455-83.679,50.487-135.489,50.487C141.656,463.382,48.959,370.685,48.959,256.34z"/>
<path style="fill:#E03B36;" d="M27.635,256.34C27.637,122.49,133.49,13.377,266.047,8.101C124.077,2.489,7.546,115.951,7.544,256.34
	c0,140.428,116.57,253.849,258.503,248.238C133.489,499.304,27.635,390.193,27.635,256.34z"/>
<path d="M93.778,115.94c-33.737,38.95-52.317,88.811-52.317,140.401c0,118.298,96.242,214.541,214.541,214.541
	c51.589,0,101.451-18.58,140.4-52.318c3.291-2.852,3.466-7.898,0.393-10.971c-35.877-35.877-248.598-248.597-292.044-292.044
	C101.678,112.476,96.63,112.647,93.778,115.94z M303.894,335.903v25.599c0,3.128,1.941,5.926,4.869,7.023
	c2.713,1.016,4.752,2.642,6.278,4.41c-24.438,0-28.066,0.261-28.971-0.446c0-0.001-0.034-0.057-0.072-0.189
	c0-56.998,0.016-53.166-0.037-54.329L303.894,335.903z M149.423,181.432l15.833,15.833c-8.243,0.1-11.702,2.319-14.393-1.497
	C148.977,190.382,148.506,185.593,149.423,181.432z M128.792,160.801l9.062,9.062c-5.372,10.01-4.682,22.646-0.667,32.161
	c2.377,5.554,9.544,11.071,18.599,11.071c6.695,0,3.854-2.43,26.341,1.042l86.009,86.009c-25.261,2.093-53.45-1.268-75.998-12.709
	c-8.184-4.174-17.368-0.261-20.652,8.26c-4.27,11.082-14.11,31.226-32.055,41.614c-2.316,1.341-3.742,3.814-3.742,6.49v16.934
	c0,3.414,2.306,6.396,5.608,7.257c3.558,0.927,6.111,2.838,7.932,4.943h-25.143c-1.817,0-2.37-0.405-2.372-0.405
	c-0.284-0.357-0.183-32.453-0.183-32.909c3.964-7.945,17.799-37.664,14.088-58.438c-4.815-26.946,1.144-44.905,1.302-45.905
	c2.169-11.167-3.29-18.214-7.717-20.631c-8.78-4.776-17.308-15.727-18.438-26.951C109.522,175.347,118.113,165.777,128.792,160.801z
	 M120.65,227.03c1,0.597,2.364,1.18,1.547,5.397c-6.107,21.861-2.192,46.626-1.342,51.391c2.69,15.061-8.813,41.586-13.472,50.533
	c-1.134,2.175-0.851,0.253-0.851,38.121c0,7.593,6.011,15.459,17.553,15.459h36.809c4.609,0,8.132-4.129,7.404-8.683
	c-0.12-0.753-2.852-16.744-17.613-23.744v-7.549c24.475-16.399,34.126-45.837,34.914-47.019
	c25.413,12.819,56.696,16.533,84.611,14.083c0.204,0.327,0.789,1.536,0.789,4.605c0,56.923-0.037,53.557,0.066,54.331
	c0.902,6.756,6.031,13.975,17.719,13.975h37.924c5.032,0,8.578-4.791,7.239-9.533c-0.71-3.273-3.959-15.005-15.057-21.594V350.9
	l61.483,61.484c-35.238,28.108-79.088,43.498-124.374,43.498c-110.028,0-199.542-89.514-199.542-199.542
	c0-45.286,15.39-89.136,43.497-124.375l17.764,17.763C80.983,171.716,96.06,213.452,120.65,227.03z"/>
<path d="M436.988,75.353c-100.032-100.034-261.933-100.042-361.975,0c-98.49,98.492-99.528,255.913-5.856,355.915
	c44.353,47.35,104.311,75.9,168.827,80.389c4.121,0.286,7.714-2.829,8.002-6.96c0.287-4.132-2.829-7.714-6.961-8.002
	c-125.595-8.74-223.979-114.316-223.979-240.354c0-132.864,108.093-240.959,240.958-240.959
	c132.862,0,240.955,108.093,240.957,240.959c0,126.037-98.384,231.614-223.98,240.354c-4.132,0.287-7.248,3.87-6.96,8.002
	c0.286,4.108,3.842,7.247,8.001,6.96c64.515-4.49,124.472-33.039,168.827-80.388C536.44,331.351,535.558,173.922,436.988,75.353z"/>
<path d="M453.566,228.257c0.577,4.101,4.368,6.956,8.472,6.38c4.102-0.578,6.957-4.371,6.38-8.472
	C445.721,65.013,255.653-14.635,124.842,86.566c-3.572,2.764-3.907,8.041-0.714,11.234c9.012,9.012,182.503,182.503,188.519,188.519
	c0.001,0,0.001,0.001,0.002,0.001c109.564,109.563,102.758,104.089,107.194,104.089c2.306,0,4.503-1.064,5.932-2.911
	c27.454-35.486,42.845-77.85,44.59-122.654c0.309-0.821,0.477-1.71,0.477-2.638c0-9.734-15.112-10.103-15.389-0.209
	c-1.104,39.646-13.677,77.307-36.458,109.458l-90.98-90.98c5.532-7.044,10.46-14.086,14.693-20.602
	c4.364-0.806,7.048-5.136,5.864-9.373c3.232-5.371,5.852-10.068,7.754-13.626c23.055,11.942,38.614,5.345,52.413-14.368
	c3.006-4.295,4.082-8.622,3.197-12.863c-1.535-7.356-8.297-11.49-14.263-15.135c-2.975-1.818-8.51-5.201-8.51-6.951
	c0-14.332-14.312-23.827-21.223-27.577l-4-16.357c-2.532-10.356-7.852-12.531-11.871-12.531c-4.721,0-9.002,3.572-11.271,7.399
	c-1.012,1.702-1.205,2.01-1.788,2.958c-13.156,21.224-28.861,36.842-47.44,47.101c-4.978-4.849-13.305-0.885-12.706,6.002
	c-9.113,3.626-18.843,6.139-29.231,7.544L140.882,93.344C263.1,6.697,433.021,82.383,453.566,228.257z M350.424,151.479
	c3.946,16.139,3.768,18.597,7.996,20.5c5.138,2.312,15.746,9.162,15.746,15.58c0,14.952,19.875,20.212,23.012,25.067
	c-0.085,0.225-0.281,0.646-0.725,1.281c-9.863,14.089-17.897,19.79-39.16,6.205c-3.796-2.424-8.863-0.977-10.804,3.087
	c-0.07,0.146-3.805,7.897-10.351,18.844c-21.112-10.645-32.762-28.601-38.336-39.914
	C318.435,190.938,336.035,174.018,350.424,151.479z M284.152,208.513c6.378,13.162,19.592,33.616,43.931,46.287
	c-3.231,4.843-6.828,9.924-10.748,14.997l-54.745-54.745C270.072,213.447,277.258,211.259,284.152,208.513z"/>
<g>
</g>
<g>
</g>
<g>
</g>
<g>
</g>
<g>
</g>
<g>
</g>
<g>
</g>
<g>
</g>
<g>
</g>
<g>
</g>
<g>
</g>
<g>
</g>
<g>
</g>
<g>
</g>
<g>
</g>
</svg>
