<svg fill="none" height="512" viewBox="0 0 48 48" width="512" xmlns="http://www.w3.org/2000/svg" xmlns:xlink="http://www.w3.org/1999/xlink"><clipPath id="clip0_110_129"><path d="m0 0h48v48h-48z"/></clipPath><g clip-path="url(#clip0_110_129)"><path d="m36.9296 25.8594c-6.1019 0-11.0702 4.9683-11.0702 11.0702s4.9683 11.0703 11.0702 11.0703 11.0703-4.9684 11.0703-11.0703-4.9684-11.0702-11.0703-11.0702z" fill="#dc1c4b"/><path d="m33.5897 32.5898c-.2652.0001-.5195.1055-.707.293s-.2929.4419-.2929.707c0 .2652.1054.5195.2929.7071l2.6328 2.6328-2.6328 2.6328c-.1875.1875-.2929.4418-.2929.707s.1054.5195.2929.707.4418.2928.707.2928.5195-.1053.707-.2928l2.6328-2.6328 2.6328 2.6328c.1875.1875.4419.2928.707.2928.2652 0 .5195-.1053.7071-.2928.1875-.1875.2928-.4418.2928-.707s-.1053-.5195-.2928-.707l-2.6328-2.6328 2.6328-2.6328c.1875-.1876.2928-.4419.2928-.7071 0-.2651-.1053-.5195-.2928-.707-.1876-.1875-.4419-.2928-.7071-.2928-.2651 0-.5195.1053-.707.2928l-2.6328 2.6328-2.6328-2.6328c-.1875-.1875-.4418-.2929-.707-.293z" fill="#e2f0fa"/><path d="m19.2071 7.9689c-.1521.02049-.2975.07572-.4248.16141-.1273.08568-.2333.19954-.3095.33273l-18.34173 32.09156c-.1085205.1906-.1514139.4115-.12207773.6288.02933613.2173.12927573.4189.28443573.5739.155161.1549.356942.2546.574285.2836.217347.029.438207-.0142.628587-.123l32.0994-18.33c.1333-.0763.2472-.1823.3329-.3098.0857-.1274.1409-.2729.1613-.4252.0204-.1522.0055-.3071-.0437-.4526-.0491-.1456-.1311-.2778-.2396-.3866l-13.7596-13.76159c-.1088-.10858-.2412-.1906-.3869-.23972-.1456-.04912-.3006-.064-.453-.04349z" fill="#fec872"/><path d="m36.0583 4.69941s-.7693.09977-1.5547.54101c-.7853.44124-1.7107 1.43379-1.6328 2.83592.0387.69525-.1975 1.05946-.5351 1.3457s-.8375.41201-1.0371.40039c-.2647-.01548-.5247.07479-.7228.25097-.1982.1762-.3183.4238-.3339.6885-.0154.2647.0748.5246.251.7228.1762.1981.4238.3182.6885.3338.8304.0484 1.6998-.2373 2.4472-.8711.7475-.6337 1.3116-1.69765 1.2403-2.98238-.0321-.57786.208-.75171.6152-.98047.4071-.22875.8574-.30468.8574-.30468.2623-.03772.4989-.17801.6578-.39004.159-.21203.2272-.47848.1899-.74082-.0185-.13004-.0624-.25518-.1292-.36827-.0668-.11308-.1552-.21189-.2603-.29079-.105-.0789-.2245-.13633-.3517-.16903-.1272-.03269-.2596-.04-.3897-.02151z" fill="#4895ef"/><path d="m27.7162.0138171c-.1295-.02176282-.2621-.0177852-.3901.0117056s-.249.0839173-.356.1601683c0 0-.6379.43933-1.1347 1.189449-.4968.75011-.8688 2.05371-.1582 3.2617.3487.59765.304 1.02696.1328 1.43553-.1714.40913-.5628.75122-.748.83398-.1202.0535-.2286.13016-.319.2256-.0905.09544-.1612.20779-.2082.33061s-.0693.2537-.0657.38515c.0037.13145.0333.26089.087.3809.0537.11996.1305.22816.226.31842s.2079.1608.3307.2076.2536.06894.385.06514c.1313-.00379.2607-.03344.3806-.08726.7547-.33723 1.3968-.98334 1.7753-1.8867.3786-.90337.3978-2.10961-.2519-3.22069 0-.00065 0-.0013 0-.00195-.2894-.492-.1567-.75269.1015-1.14257.2583-.38987.625-.66601.625-.66601.1071-.07604.1982-.17243.2681-.28366.0698-.11124.117-.23515.139-.36465.0219-.12949.0181-.262048-.0111-.390086-.0293-.128037-.0836-.24905-.1596-.356126-.1538-.216027-.387-.3621558-.6485-.4062509z" fill="#dc1c4b"/><path d="m41.6739 14.3043c-.2615.0441-.4947.1902-.6485.4062 0 0-.2761.3668-.666.625s-.6506.391-1.1426.1016c-.0006 0-.0013 0-.002 0-1.111-.6498-2.3173-.6305-3.2206-.252-.9034.3786-1.5495 1.0226-1.8867 1.7774-.1081.2419-.1157.5168-.0213.7644.0945.2475.2834.4475.5252.5559.12.0537.2494.0833.3809.0869.1314.0037.2623-.0186.3851-.0656s.2352-.1177.3306-.2082c.0955-.0905.1721-.1989.2256-.319.0828-.1852.4249-.5766.834-.748.4091-.1715.8386-.2155 1.4375.1347l-.002-.002c1.208.7106 2.5116.3386 3.2617-.1582.7501-.4967 1.1894-1.1347 1.1894-1.1347.1539-.216.2156-.4843.1716-.7458-.0439-.2615-.19-.4949-.4059-.6487-.2164-.1534-.4846-.2144-.746-.1699z" fill="#e2f0fa"/><path d="m16.6269 11.6934-1.0684 1.8691 11.1035 13.9843 1.7578-1.0039zm-2.8242 4.9394-1.0684 1.8711 9.2949 11.6874 1.7578-1.002zm-2.8145 4.9257-1.06831 1.8692 7.48241 9.4081 1.7578-1.0039zm-2.81049 4.916-1.06835 1.8711 5.65814 7.1347 1.7578-1.0019zm-2.82225 4.9394-1.06835 1.8692 3.84568 4.8437 1.7578-1.002z" fill="#4895ef"/></g></svg>