<svg height="512" viewBox="0 0 96 96" width="512" xmlns="http://www.w3.org/2000/svg"><g id="No_Smoking_Room" data-name="No Smoking Room"><path d="m86.76 23.08v63.43h-4.11v-60.61l-34.65-13.36-34.65 13.36v60.61h-4.11v-63.43l38.76-14.94z" fill="#bbb2ce"/><g fill="#7f94ce"><path d="m13.35 39.33v-13.43l34.65-13.36 34.65 13.36v13.43h4.11v-16.25l-38.76-14.94-38.76 14.94v16.25z"/><path d="m9.24 75.17h4.11v11.34h-4.11z"/><path d="m82.65 75.17h4.11v11.34h-4.11z"/></g><path d="m86.76 87.51h-77.52a1 1 0 0 1 -1-1v-63.43a1 1 0 0 1 .64-.93c41.33-15.93 38.93-15.15 39.48-14.94l38.76 14.94a1 1 0 0 1 .64.93v63.43a1 1 0 0 1 -1 1zm-76.52-2h75.52v-61.74l-37.76-14.55-37.76 14.55z" fill="#302d3d"/><path d="m82.65 25.9v60.61h-69.3v-60.61l34.65-13.36z" fill="#e9e8f4"/><path d="m18.25 79.54v-48.66a2.52 2.52 0 0 1 1.61-2.35l27.24-10.53a2.46 2.46 0 0 1 1.81 0l27.23 10.5a2.52 2.52 0 0 1 1.61 2.35v48.69a2.52 2.52 0 0 1 -2.52 2.52h-54.46a2.52 2.52 0 0 1 -2.52-2.52z" fill="#adc5e5"/><path d="m82.65 87.51h-69.3a1 1 0 0 1 -1-1v-60.61a1 1 0 0 1 .65-.9c37.09-14.3 34.84-13.56 35.37-13.36l34.63 13.36a1 1 0 0 1 .64.93v60.58a1 1 0 0 1 -.99 1zm-68.3-2h67.3v-58.92l-33.65-12.97-33.65 13z" fill="#302d3d"/><path d="m25.05 71.43h45.13l-1.32-7.54a2.87 2.87 0 0 0 -2.86-2.38h-4.5a2.44 2.44 0 0 0 -2.44 2.43 2 2 0 0 1 -3.19 1.69l-5.38-3.7a2.49 2.49 0 0 0 -1.38-.42h-19.9a2.87 2.87 0 0 0 -2.84 2.38z" fill="#fff"/><path d="m29.21 61.5h13a2.88 2.88 0 0 0 -2.84 2.39l-1.32 7.54h-13l1.32-7.54a2.88 2.88 0 0 1 2.84-2.39z" fill="#d1d3d4"/><path d="m70.18 72.43h-45.13a1 1 0 0 1 -1-1.17l1.32-7.55a3.87 3.87 0 0 1 3.82-3.2h19.9a3.52 3.52 0 0 1 1.93.58l5.4 3.71a1 1 0 0 0 1.62-.86 3.44 3.44 0 0 1 3.44-3.43h4.52a3.87 3.87 0 0 1 3.82 3.21l1.32 7.54a1 1 0 0 1 -.96 1.17zm-43.94-2h42.76l-1.12-6.37a1.87 1.87 0 0 0 -1.88-1.55h-4.5a1.44 1.44 0 0 0 -1.44 1.43 3 3 0 0 1 -4.76 2.51l-5.37-3.7c-.54-.35 1-.24-20.72-.24a1.86 1.86 0 0 0 -1.85 1.55z" fill="#302d3d"/><path d="m71.15 77.01h-47.07l.97-5.59h45.12z" fill="#6d6e71"/><path d="m71.15 77.01h-27.03l.97-5.59h25.08z" fill="#939598"/><path d="m71.15 78h-47.07a1 1 0 0 1 -1-1.18l1-5.59a1 1 0 0 1 1-.83h45.09a1 1 0 0 1 1 .83l1 5.59a1 1 0 0 1 -1.02 1.18zm-45.88-2h44.73l-.63-3.6h-43.48z" fill="#302d3d"/><path d="m35.08 67.47h-9.16a1 1 0 0 1 0-2h9.16a1 1 0 0 1 0 2z" fill="#302d3d"/><path d="m26.6 52.75h42.02v4.51h-42.02z" fill="#f4a261"/><path d="m68.62 58.26h-42a1 1 0 0 1 -1-1v-4.51a1 1 0 0 1 1-1h42a1 1 0 0 1 1 1v4.51a1 1 0 0 1 -1 1zm-41-2h40v-2.51h-40z" fill="#302d3d"/><path d="m39.45 52.75h24.66v4.51h-24.66z" fill="#fff"/><path d="m64.12 58.26h-24.67a1 1 0 0 1 -1-1v-4.51a1 1 0 0 1 1-1h24.67a1 1 0 0 1 1 1v4.51a1 1 0 0 1 -1 1zm-23.67-2h22.67v-2.51h-22.67z" fill="#302d3d"/><path d="m61.51 27.35a7.12 7.12 0 0 0 -6.63 9.72 4.86 4.86 0 1 0 5.12 8.06 4.84 4.84 0 0 0 3.76 1.87 2.41 2.41 0 0 0 1.81 2.33v3.43h3.06v-18.29a7.12 7.12 0 0 0 -7.12-7.12z" fill="#44437c"/><path d="m68.62 53.75h-3.05a1 1 0 0 1 -1-1v-2.75a3.4 3.4 0 0 1 -1.67-2.08 5.79 5.79 0 0 1 -3-1.44 5.85 5.85 0 1 1 -6.21-9.92 8.12 8.12 0 1 1 16-2.09v18.28a1 1 0 0 1 -1.07 1zm-2.05-2h1.05v-17.28a6.12 6.12 0 1 0 -12.23 0c0 1.9.73 2.26.41 3a1.05 1.05 0 0 1 -.55.53 3.85 3.85 0 1 0 4 6.39 1 1 0 0 1 1.47.1 3.82 3.82 0 0 0 3 1.49 1 1 0 0 1 1 1 1.43 1.43 0 0 0 1.07 1.37 1 1 0 0 1 .74 1z" fill="#302d3d"/><path d="m54.88 37.08a4.88 4.88 0 0 1 3.06-.15" fill="#fff"/><path d="m54.88 38.08a1 1 0 0 1 -.35-1.93 5.87 5.87 0 0 1 3.68-.15 1 1 0 0 1 -.54 1.93 5.1 5.1 0 0 0 -2.79.15z" fill="#302d3d"/><path d="m68.63 34.47a7.13 7.13 0 0 1 -3.25 6" fill="#fff"/><path d="m65.38 41.45a1 1 0 0 1 -.55-1.84 6.09 6.09 0 0 0 2.79-5.14 1 1 0 0 1 2 0 8.1 8.1 0 0 1 -3.7 6.82 1 1 0 0 1 -.54.16z" fill="#302d3d"/><path d="m60 45.13a4.86 4.86 0 0 1 -1-3" fill="#fff"/><path d="m60 46.13a1 1 0 0 1 -.78-.38 5.76 5.76 0 0 1 -1.26-3.63 1 1 0 0 1 2 0 3.83 3.83 0 0 0 .83 2.39 1 1 0 0 1 -.79 1.62z" fill="#302d3d"/><path d="m5.75 86.51h84.5v8.49h-84.5z" fill="#f46b4d"/><path d="m17.25 86.51h61.5v8.49h-61.5z" fill="#f4a261"/><path d="m5.75 86.51h84.5v2.99h-84.5z" fill="#f4ca93"/><path d="m90.25 96h-84.5a1 1 0 0 1 -1-1v-8.49a1 1 0 0 1 1-1h84.5a1 1 0 0 1 1 1v8.49a1 1 0 0 1 -1 1zm-83.5-2h82.5v-6.49h-82.5z" fill="#302d3d"/><path d="m94 18.48-2.48 6.43-43.52-16.77-43.52 16.77-2.48-6.43 44.76-17.25a3.42 3.42 0 0 1 2.48 0z" fill="#5d669a"/><path d="m92.74 21.74-1.22 3.17-43.52-16.77-43.52 16.77-1.22-3.17 43.5-16.74a3.42 3.42 0 0 1 2.48 0z" fill="#3f4372"/><path d="m91.52 25.92c-.29 0 2.63 1.08-43.52-16.7l-43.16 16.63a1 1 0 0 1 -1.29-.57l-2.48-6.44a1 1 0 0 1 .57-1.29l44.76-17.25a4.42 4.42 0 0 1 3.2 0l44.76 17.25a1 1 0 0 1 .57 1.29l-2.48 6.44a1 1 0 0 1 -.93.64zm-43.52-18.78c.29 0-2.56-1 42.94 16.48l1.76-4.56-43.82-16.89a2.43 2.43 0 0 0 -1.76 0l-43.82 16.89 1.76 4.56c45.66-17.62 42.65-16.48 42.94-16.48z" fill="#302d3d"/><path d="m44.73 22.41a29.76 29.76 0 1 0 29.76 29.76 29.77 29.77 0 0 0 -29.76-29.76zm-24.73 29.76a24.75 24.75 0 0 1 40.37-19.17l-34.82 34.81a24.68 24.68 0 0 1 -5.55-15.64zm24.73 24.76a24.68 24.68 0 0 1 -15.64-5.58l34.82-34.82a24.75 24.75 0 0 1 -19.18 40.4z" fill="#fb5968" stroke="#302d3d" stroke-linecap="round" stroke-linejoin="round" stroke-width="2"/></g></svg>