<svg height="512" viewBox="0 0 48 48" width="512" xmlns="http://www.w3.org/2000/svg"><g id="Line"><g><path d="m4.999 46c-.721.015-1.236-.804-.894-1.447 0 0 4-8 4-8 .589-1.165 2.37-.279 1.789.895 0 0-4 8-4 8-.175.35-.528.552-.895.552z" fill="#7f6654"/></g><g><path d="m17.001 46c-.367 0-.72-.202-.896-.553l-4-8c-.579-1.169 1.198-2.065 1.789-.894 0 0 4 8 4 8 .342.642-.172 1.464-.893 1.447z" fill="#7f6654"/></g><g><path d="m43.001 46c-.367 0-.72-.202-.896-.553l-4-8c-.579-1.169 1.198-2.065 1.789-.894 0 0 4 8 4 8 .342.642-.172 1.464-.893 1.447z" fill="#7f6654"/></g><g><path d="m30.999 46c-.721.015-1.236-.804-.894-1.447 0 0 4-8 4-8 .589-1.165 2.37-.279 1.789.895 0 0-4 8-4 8-.175.35-.528.552-.895.552z" fill="#7f6654"/></g><g><path d="m24 46c-.553 0-1-.448-1-1v-31c0-.552.447-1 1-1s1 .448 1 1v31c0 .552-.447 1-1 1z" fill="#7f6654"/></g><g fill="#ffd267"><path d="m17.727 31.521c-4.701-1.567-9.038-4.248-12.543-7.752l-1.477-1.477c-.587-.628-1.738-.157-1.707.708v10c0 2.757 2.243 5 5 5h9.676c3.722-.004 4.586-5.302 1.051-6.479z"/><path d="m45.383 22.076c-.374-.154-.803-.07-1.09.217l-1.477 1.477c-3.505 3.504-7.842 6.185-12.543 7.752-1.359.453-2.273 1.72-2.273 3.153 0 1.833 1.491 3.325 3.324 3.325h9.676c2.757 0 5-2.243 5-5v-10c0-.404-.243-.769-.617-.924z"/></g><path d="m45.94 13.33c-.11.31-.35.54-.67.63-4.648 1.336-9.608 1.354-14.27.08-4.59 1.26-9.41 1.26-14 0-4.669 1.274-9.611 1.258-14.27-.08-.646-.161-.943-.996-.55-1.53 4.54-6.49 11.96-10.38 19.87-10.43h3.9c7.91.05 15.33 3.94 19.87 10.43.18.26.23.6.12.9z" fill="#ffd267"/><path d="m32 13v1.29c-.33-.07-.67-.16-1-.25-4.59 1.26-9.41 1.26-14 0-.33.09-.67.18-1 .25-.301-4.789 1.808-9.821 6.05-12.29h3.9c3.811 2.239 6.033 6.632 6.05 11z" fill="#f8a358"/><path d="m34 23h-20c-3.95.101-3.96 5.896 0 6h20c3.95-.101 3.96-5.896 0-6z" fill="#997e6c"/><path d="m45.383 22.076c-.374-.154-.803-.07-1.09.217l-1.477 1.477c-3.505 3.504-7.842 6.185-12.543 7.752-3.531 1.176-2.677 6.475 1.051 6.478h2.058l-3.276 6.553c-.575 1.163 1.189 2.068 1.789.894 0 0 3.724-7.447 3.724-7.447h2.764l3.724 7.447c.248.499.858.692 1.342.447.494-.247.694-.848.447-1.342l-3.278-6.552c2.884.188 5.394-2.091 5.382-5v-10c0-.404-.243-.769-.617-.924zm-1.383 10.924c0 1.654-1.346 3-3 3h-9.676c-1.473.015-1.825-2.131-.418-2.581 4.891-1.63 9.411-4.396 13.094-8.007z"/><path d="m2 23v10c-.012 2.909 2.498 5.188 5.382 5l-3.276 6.553c-.247.494-.047 1.095.447 1.342.484.244 1.093.051 1.342-.447l3.723-7.448h2.764s3.724 7.447 3.724 7.447c.6 1.174 2.365.269 1.789-.894l-3.277-6.553h2.058c3.728-.003 4.582-5.303 1.051-6.478-4.701-1.567-9.038-4.248-12.543-7.752l-1.477-1.477c-.287-.287-.716-.371-1.09-.217-.374.155-.617.52-.617.924zm2 2.412c3.683 3.611 8.203 6.376 13.094 8.007 1.407.45 1.055 2.596-.418 2.581h-9.676c-1.654 0-3-1.346-3-3z"/><path d="m31 14.039c4.678 1.282 9.608 1.257 14.274-.077.643-.164.944-1.001.545-1.535-5.591-7.94-14.14-11.017-23.612-10.427-7.971 0-15.457 3.898-20.026 10.427-.394.536-.103 1.369.545 1.535 4.666 1.334 9.596 1.358 14.274.077 1.968.539 3.981.833 6 .909v8.052h-9c-3.949.099-3.961 5.897 0 6h9v16c0 .552.447 1 1 1s1-.448 1-1v-16h9c1.654 0 3-1.346 3-3s-1.346-3-3-3h-9v-8.052c2.019-.077 4.032-.37 6-.909zm4 11.961c0 .551-.448 1-1 1h-20c-.552 0-1-.449-1-1s.448-1 1-1h20c.552 0 1 .449 1 1zm-12.634-21.862.18-.138h2.907l.179.138c2.53 1.943 4.098 4.926 4.322 8.092-3.914.982-7.996.982-11.91 0 .225-3.166 1.794-6.149 4.322-8.092zm20.935 8.262c-3.744.83-7.624.759-11.347-.19-.183-2.983-1.388-5.823-3.375-8.03 5.768.722 11.064 3.66 14.722 8.22zm-38.602 0c3.658-4.56 8.954-7.498 14.722-8.22-1.986 2.207-3.192 5.047-3.375 8.031-3.723.949-7.603 1.02-11.347.189z"/></g></svg>