<svg id="Capa_1" enable-background="new 0 0 512.017 512.017" height="512" viewBox="0 0 512.017 512.017" width="512" xmlns="http://www.w3.org/2000/svg"><path d="m90.97 512.017c-33.77 0-63.298-18.506-78.978-45.909-2.411-4.213 6.355-16.879 6.355-16.879s-16.097-7.339-17.063-13.134c-.814-4.881-1.237-9.893-1.237-15.002s.423-10.12 1.237-15.001c1.037-6.219 15.02-15.331 15.02-15.331s-6.522-10.82-4.32-14.669c15.678-27.41 45.211-45.921 78.986-45.921 50.135 0 90.923 40.788 90.923 90.923s-40.788 90.923-90.923 90.923z" fill="#00da26"/><path d="m90.97 330.171v181.846c50.135 0 90.923-40.788 90.923-90.923s-40.788-90.923-90.923-90.923z" fill="#00a600"/><path d="m374.851 329.33c-40.247-40.247-58.901-104.383-74.559-166.625-2.021-8.034-10.175-12.91-18.206-10.888-8.034 2.021-12.908 10.172-10.888 18.206 16.681 66.308 36.785 134.866 82.439 180.519 2.929 2.929 6.768 4.394 10.606 4.394s7.678-1.464 10.606-4.394c5.861-5.857 5.861-15.355.002-21.212z" fill="#76e2f8"/><path d="m173.332 271.456c-8.029-2.036-16.189 2.827-18.225 10.857-2.034 8.03 2.827 16.19 10.857 18.224 58.468 14.81 123.554 35.266 162.983 74.696 2.929 2.929 6.768 4.394 10.606 4.394s7.678-1.465 10.606-4.394c5.858-5.857 5.858-15.355 0-21.213-44.455-44.458-111.259-65.955-176.827-82.564z" fill="#76e2f8"/><path d="m374.851 329.33c-40.247-40.247-58.901-104.383-74.559-166.625-2.021-8.034-10.175-12.91-18.206-10.888-8.034 2.021-12.908 10.172-10.888 18.206 16.681 66.308 36.785 134.866 82.439 180.519 2.929 2.929 6.768 4.394 10.606 4.394s7.678-1.464 10.606-4.394c5.861-5.857 5.861-15.355.002-21.212z" fill="#4bb9ec"/><path d="m293.332 187.588-16.76-16.76 15.425-15.425c5.858-5.858 5.858-15.355 0-21.213-5.857-5.858-15.355-5.858-21.213 0l-15.425 15.425-20.859-20.859 22.496-22.496c5.858-5.858 5.858-15.355 0-21.213-5.857-5.858-15.355-5.857-21.213 0l-22.496 22.496-21.037-21.036 26.163-26.163c5.858-5.858 5.858-15.355 0-21.213-5.857-5.858-15.355-5.858-21.213 0l-26.163 26.163-21.391-21.391 12.021-12.021c5.858-5.858 5.858-15.355 0-21.213-5.857-5.858-15.355-5.858-21.213 0l-12.021 12.021-14.496-14.495c-5.857-5.858-15.355-5.858-21.213 0s-5.858 15.355 0 21.213l14.496 14.496-21.037 21.036-27.876-27.876c-5.857-5.858-15.355-5.858-21.213 0s-5.858 15.355 0 21.213l27.876 27.876-21.391 21.391-14.495-14.496c-5.857-5.858-15.355-5.858-21.213 0s-5.858 15.355 0 21.213l14.496 14.496-9.899 9.899c-5.858 5.858-5.858 15.355 0 21.213 2.929 2.929 6.768 4.394 10.606 4.394s7.678-1.464 10.606-4.394l9.899-9.899 21.391 21.39-24.521 24.521c-5.858 5.858-5.858 15.355 0 21.213 2.929 2.929 6.768 4.394 10.606 4.394s7.678-1.465 10.606-4.394l24.521-24.521 21.037 21.037-22.471 22.471c-5.858 5.858-5.858 15.355 0 21.213 2.929 2.929 6.768 4.394 10.606 4.394s7.678-1.465 10.606-4.394l22.471-22.471 20.86 20.86-15.4 15.4c-5.858 5.858-5.858 15.355 0 21.213 2.929 2.929 6.768 4.394 10.606 4.394s7.678-1.464 10.606-4.394l15.4-15.4 16.76 16.76c2.929 2.929 6.768 4.394 10.606 4.394s7.678-1.464 10.606-4.394c5.858-5.858 5.858-15.355 0-21.213l-16.76-16.76 21.391-21.391 28.126 28.126c2.929 2.929 6.768 4.394 10.606 4.394s7.678-1.464 10.606-4.394c5.858-5.858 5.858-15.355 0-21.213l-28.126-28.126 21.037-21.037 16.76 16.76c2.929 2.929 6.768 4.394 10.606 4.394s7.678-1.464 10.606-4.394c5.863-5.859 5.863-15.356.005-21.214zm-101.258-58.832-21.037 21.037-21.037-21.036 21.037-21.037zm-63.641-63.64 21.391 21.391-21.037 21.037-21.391-21.391zm-63.641 63.641 21.391-21.391 21.391 21.391-21.391 21.391zm42.604 42.603 21.391-21.391 21.037 21.037-21.391 21.391zm63.109 63.109-20.859-20.859 21.391-21.391 20.859 20.859zm42.604-42.603-20.859-20.859 21.037-21.037 20.859 20.859z" fill="#f6efea"/><path d="m262.716 262.121c5.576-5.877 5.495-15.154-.268-20.917l-28.126-28.126 21.037-21.037 16.76 16.76c2.929 2.929 6.768 4.394 10.606 4.394s7.678-1.464 10.606-4.394c5.858-5.858 5.858-15.355 0-21.213l-16.76-16.76 15.425-15.425c5.858-5.858 5.858-15.355 0-21.213-5.857-5.858-15.355-5.858-21.213 0l-15.425 15.425-20.859-20.859 22.496-22.496c5.858-5.858 5.858-15.355 0-21.213-5.857-5.858-15.355-5.857-21.213 0l-22.496 22.496-21.036-21.036 26.163-26.163c5.858-5.858 5.858-15.355 0-21.213-5.857-5.858-15.355-5.858-21.213 0l-26.163 26.163-21.391-21.391 12.021-12.021c5.858-5.858 5.858-15.355 0-21.213-5.857-5.858-15.355-5.858-21.213 0l-12.021 12.021-14.496-14.495c-5.857-5.858-15.355-5.858-21.213 0s-5.858 15.355 0 21.213l14.496 14.496-21.037 21.036-27.876-27.876c-5.591-5.592-14.492-5.833-20.384-.749zm-49.429-112.152 20.859 20.859-21.037 21.037-20.859-20.859zm-42.25-42.249 21.037 21.037-21.037 21.037-21.037-21.037zm-42.604-42.604 21.391 21.391-21.037 21.037-21.391-21.391z" fill="#eee1dc"/><path d="m91.049 376.094h-79.062c-5.223 9.131-8.903 19.25-10.695 30h89.757c8.271 0 14.999 6.729 14.999 15s-6.729 15-14.999 15h-89.757c1.792 10.75 5.473 20.869 10.696 30h79.061c24.813 0 44.999-20.187 44.999-45s-20.187-45-44.999-45z" fill="#fff4f4"/><path d="m181.031 301.706c-5.512 0-11.118-.313-16.804-.944-39.432-4.381-78.072-23.719-108.803-54.449s-50.067-69.371-54.449-108.803c-4.52-40.681 7.283-77.377 33.236-103.329 25.952-25.953 62.65-37.757 103.329-33.236 39.433 4.381 78.073 23.718 108.804 54.449 30.73 30.73 50.067 69.371 54.449 108.803 4.52 40.68-7.284 77.377-33.236 103.329-22.326 22.325-52.603 34.179-86.526 34.18zm-60.159-271.697c-25.968 0-48.861 8.798-65.447 25.385-19.378 19.378-28.126 47.364-24.633 78.803 3.632 32.688 19.914 64.971 45.846 90.903 30.61 30.61 69.172 46.637 104.132 46.639 25.155.001 48.442-8.295 65.574-25.426 40.939-40.939 31.423-117.069-21.213-169.706-25.933-25.932-58.216-42.214-90.903-45.846-4.529-.503-8.987-.752-13.356-.752zm-76.054 14.778h.01z" fill="#00607f"/><path d="m56.192 54.666c16.523-16.105 39.103-24.657 64.68-24.657 4.369 0 8.827.25 13.355.752 32.688 3.632 64.971 19.914 90.903 45.846 52.499 52.5 62.097 128.368 21.526 169.383l21.166 21.262c25.764-25.936 37.474-62.516 32.97-103.055-4.382-39.432-23.719-78.072-54.449-108.803s-69.371-50.068-108.803-54.449c-40.263-4.475-76.619 7.052-102.521 32.452z" fill="#002c3c"/><path d="m500.325 500.356c-15.548 15.548-40.757 15.548-56.305 0l-111.787-111.787c-15.548-15.548-15.548-40.757 0-56.305 15.548-15.548 40.757-15.548 56.305 0l111.787 111.787c15.548 15.548 15.548 40.757 0 56.305z" fill="#ff193d"/><path d="m500.097 500.573c.075-.074.153-.142.228-.217 15.548-15.548 15.548-40.757 0-56.305l-111.787-111.787c-15.496-15.496-40.585-15.544-56.146-.152z" fill="#ea0016"/><path d="m91.049 376.094h-79.062c-5.223 9.131-8.903 19.25-10.695 30h89.757c8.271 0 14.999 6.729 14.999 15s-6.729 15-14.999 15h-89.757c1.792 10.75 5.473 20.869 10.696 30h79.061c24.813 0 44.999-20.187 44.999-45s-20.187-45-44.999-45z" fill="#fff4f4"/><path d="m91.049 376.094h-.079v30h.078c8.271 0 14.999 6.729 14.999 15s-6.729 15-14.999 15h-.078v30h.078c24.813 0 44.999-20.187 44.999-45 .001-24.813-20.186-45-44.998-45z" fill="#f6efea"/></svg>