<?xml version="1.0" encoding="iso-8859-1"?>
<!-- Generator: Adobe Illustrator 19.0.0, SVG Export Plug-In . SVG Version: 6.00 Build 0)  -->
<svg version="1.1" id="Capa_1" xmlns="http://www.w3.org/2000/svg" xmlns:xlink="http://www.w3.org/1999/xlink" x="0px" y="0px"
	 viewBox="0 0 512 512" style="enable-background:new 0 0 512 512;" xml:space="preserve">
<path style="fill:#4FC3F7;" d="M465.638,382.992H30.236v8.063C30.236,457.978,84.258,512,151.181,512h193.512
	c66.923,0,120.945-54.022,120.945-120.945V382.992z"/>
<g>
	<path style="fill:#1A237E;" d="M286.639,446.077c-14.642,0-28.511-6.015-38.702-16.666c-10.192,10.651-24.052,16.666-38.702,16.666
		c-14.642,0-28.511-6.015-38.702-16.666c-10.006,10.385-24.141,16.473-38.702,16.473c-2.225,0-4.031-1.806-4.031-4.031
		s1.806-4.031,4.031-4.031c13.731,0,27.027-6.37,35.55-17.029c0.766-0.96,1.927-1.516,3.145-1.516c0,0,0,0,0.008,0
		c1.218,0,2.371,0.548,3.137,1.508c8.837,10.95,21.802,17.239,35.566,17.239c13.764,0,26.729-6.281,35.566-17.239
		c1.524-1.903,4.749-1.903,6.273,0c8.837,10.95,21.802,17.239,35.566,17.239c13.764,0,26.721-6.281,35.558-17.239
		c0.774-0.959,1.919-1.508,3.145-1.508h0.008c1.217,0,2.379,0.556,3.145,1.516c8.531,10.659,21.827,17.029,35.558,17.029
		c2.225,0,4.031,1.806,4.031,4.031s-1.806,4.031-4.031,4.031c-14.562,0-28.704-6.088-38.71-16.473
		C315.15,440.054,301.282,446.077,286.639,446.077z"/>
	<path style="fill:#1A237E;" d="M286.639,482.36c-14.642,0-28.511-6.015-38.702-16.666c-10.192,10.651-24.052,16.666-38.702,16.666
		c-14.642,0-28.511-6.015-38.702-16.666c-10.006,10.385-24.141,16.473-38.702,16.473c-2.225,0-4.031-1.806-4.031-4.031
		c0-2.225,1.806-4.031,4.031-4.031c13.731,0,27.027-6.37,35.55-17.029c0.766-0.951,1.919-1.516,3.145-1.516c0,0,0,0,0.008,0
		c1.218,0,2.371,0.548,3.137,1.508c8.837,10.95,21.802,17.239,35.566,17.239c13.764,0,26.729-6.281,35.566-17.239
		c1.524-1.903,4.749-1.903,6.273,0c8.837,10.95,21.802,17.239,35.566,17.239c13.764,0,26.721-6.281,35.558-17.239
		c0.774-0.951,1.919-1.508,3.145-1.508h0.008c1.217,0,2.379,0.556,3.145,1.516c8.531,10.659,21.827,17.029,35.558,17.029
		c2.225,0,4.031,1.806,4.031,4.031c0,2.225-1.806,4.031-4.031,4.031c-14.562,0-28.704-6.088-38.71-16.473
		C315.15,476.337,301.282,482.36,286.639,482.36z"/>
	<path style="fill:#1A237E;" d="M363.238,306.394c-20.004,0-36.283-16.279-36.283-36.283c0-2.225,1.806-4.031,4.031-4.031
		c2.225,0,4.031,1.806,4.031,4.031c0,15.562,12.659,28.22,28.22,28.22c2.225,0,4.031,1.806,4.031,4.031
		C367.269,304.588,365.463,306.394,363.238,306.394z"/>
	<path style="fill:#1A237E;" d="M151.987,370.898c-1.032,0-2.064-0.395-2.854-1.177c-1.572-1.572-1.572-4.128,0-5.701l76.969-76.977
		l-2.79-2.79c-9.764-9.772-22.931-15.15-37.058-15.15c-14.134,0-27.293,5.378-37.066,15.15L91.942,341.5
		c-4.789,5.233-11.538,8.273-18.884,8.434c-7.579-0.008-15.158-2.903-20.682-8.434c-10.49-11.433-10.434-29.124,0-39.565
		l57.247-57.247c20.649-20.649,48.007-32.026,77.026-32.026s56.385,11.377,77.034,32.026L383.016,364.02
		c1.572,1.572,1.572,4.128,0,5.701c-1.572,1.572-4.128,1.572-5.701,0L257.983,250.388c-19.125-19.125-44.459-29.664-71.333-29.664
		s-52.2,10.538-71.325,29.664l-57.247,57.247c-7.297,7.297-7.241,20.262,0.121,28.293c3.911,3.902,8.966,6.2,14.683,5.942
		c5.128-0.113,9.829-2.217,13.239-5.942l57.368-57.368c11.288-11.288,26.479-17.513,42.766-17.513s31.47,6.217,42.758,17.513
		l5.644,5.636c0.758,0.758,1.177,1.782,1.177,2.854c0,1.072-0.427,2.096-1.177,2.854l-79.824,79.824
		C154.052,370.503,153.019,370.898,151.987,370.898z"/>
	<path style="fill:#1A237E;" d="M24.592,294.299c-0.943,0-1.887-0.331-2.661-1c-1.677-1.467-1.846-4.007-0.371-5.684l5.644-6.45
		c1.459-1.685,4.007-1.846,5.692-0.379c1.677,1.467,1.846,4.007,0.371,5.684l-5.644,6.45
		C26.826,293.832,25.713,294.299,24.592,294.299z"/>
	<path style="fill:#1A237E;" d="M41.524,276.561c-1.032,0-2.064-0.395-2.854-1.177c-1.572-1.572-1.572-4.128,0-5.701l74.18-74.18
		c1.572-1.572,4.128-1.572,5.701,0s1.572,4.128,0,5.701l-74.18,74.18C43.589,276.166,42.556,276.561,41.524,276.561z"/>
	<path style="fill:#1A237E;" d="M481.764,362.835c-11.119,0-20.157-9.039-20.157-20.158c0-11.119,9.039-20.157,20.157-20.157
		c11.119,0,20.158,9.039,20.158,20.157C501.921,353.796,492.883,362.835,481.764,362.835z M481.764,330.583
		c-6.668,0-12.094,5.426-12.094,12.094s5.426,12.095,12.094,12.095s12.095-5.426,12.095-12.095S488.432,330.583,481.764,330.583z"/>
	<path style="fill:#1A237E;" d="M30.236,222.539c-11.111,0-20.157-9.047-20.157-20.157s9.047-20.157,20.157-20.157
		s20.157,9.047,20.157,20.157S41.347,222.539,30.236,222.539z M30.236,190.287c-6.668,0-12.094,5.426-12.094,12.094
		s5.426,12.094,12.094,12.094s12.094-5.426,12.094-12.094S36.904,190.287,30.236,190.287z"/>
</g>
<polygon style="fill:#66BB6A;" points="426.129,320.907 312.441,207.219 323.729,195.931 437.417,309.619 431.773,315.263 "/>
<g>
	<path style="fill:#1A237E;" d="M426.129,324.939c-1.032,0-2.064-0.395-2.854-1.177L309.587,210.073
		c-1.572-1.572-1.572-4.128,0-5.701l11.288-11.288c1.516-1.516,4.193-1.516,5.701,0l113.688,113.696
		c0.758,0.758,1.177,1.782,1.177,2.854c0,1.072-0.427,2.096-1.177,2.854l-11.288,11.28
		C428.185,324.543,427.161,324.939,426.129,324.939z M318.141,207.219l107.988,107.988l5.588-5.58L323.729,201.631L318.141,207.219z
		"/>
	<path style="fill:#1A237E;" d="M440.643,293.493c-0.589,0-1.185-0.129-1.758-0.403c-2.008-0.976-2.846-3.386-1.871-5.386
		c12.53-25.842,6.894-57.747-13.683-77.59c-20.214-20.206-51.442-25.705-77.776-13.747c-2.016,0.935-4.41,0.032-5.338-2
		c-0.919-2.024-0.024-4.419,2-5.338c29.373-13.352,64.246-7.192,86.758,15.336c23.012,22.173,29.325,57.916,15.295,86.846
		C443.577,292.662,442.142,293.493,440.643,293.493z"/>
	<path style="fill:#1A237E;" d="M375.348,334.784c-20.101,0-39.871-7.724-54.466-22.318c-23.012-22.181-29.325-57.925-15.296-86.855
		c0.976-2.008,3.378-2.838,5.386-1.863c2.008,0.968,2.846,3.378,1.871,5.386c-12.53,25.834-6.894,57.739,13.683,77.582
		c20.23,20.23,51.466,25.705,77.776,13.747c2.032-0.895,4.419-0.032,5.338,2c0.919,2.032,0.024,4.419-2,5.338
		C397.296,332.502,386.266,334.784,375.348,334.784z"/>
</g>
<path style="fill:#4FC3F7;" d="M481.764,124.976c0-8.869-7.257-16.126-16.126-16.126c-8.869,0-16.126,7.257-16.126,16.126
	c-8.869,0-16.126,7.257-16.126,16.126s7.257,16.126,16.126,16.126h32.252c8.869,0,16.126-7.257,16.126-16.126
	S490.633,124.976,481.764,124.976z"/>
<g>
	<path style="fill:#1A237E;" d="M167.307,96.756c-15.562,0-28.22-12.659-28.22-28.22s12.659-28.22,28.22-28.22
		s28.22,12.659,28.22,28.22S182.869,96.756,167.307,96.756z M167.307,48.378c-11.111,0-20.157,9.047-20.157,20.157
		s9.047,20.157,20.157,20.157s20.157-9.047,20.157-20.157S178.418,48.378,167.307,48.378z"/>
	<path style="fill:#1A237E;" d="M167.307,32.252c-2.225,0-4.031-1.806-4.031-4.031V4.031c0-2.225,1.806-4.031,4.031-4.031
		c2.225,0,4.031,1.806,4.031,4.031V28.22C171.339,30.446,169.532,32.252,167.307,32.252z"/>
	<path style="fill:#1A237E;" d="M167.307,137.071c-2.225,0-4.031-1.806-4.031-4.031V108.85c0-2.225,1.806-4.032,4.031-4.032
		c2.225,0,4.031,1.806,4.031,4.032v24.189C171.339,135.265,169.532,137.071,167.307,137.071z"/>
	<path style="fill:#1A237E;" d="M231.811,72.567h-24.189c-2.225,0-4.031-1.806-4.031-4.031s1.806-4.031,4.031-4.031h24.189
		c2.225,0,4.031,1.806,4.031,4.031S234.036,72.567,231.811,72.567z"/>
	<path style="fill:#1A237E;" d="M126.992,72.567h-24.189c-2.225,0-4.031-1.806-4.031-4.031s1.806-4.031,4.031-4.031h24.189
		c2.225,0,4.031,1.806,4.031,4.031S129.217,72.567,126.992,72.567z"/>
	<path style="fill:#1A237E;" d="M195.528,44.346c-1.032,0-2.064-0.395-2.854-1.177c-1.572-1.572-1.572-4.128,0-5.701l11.288-11.288
		c1.572-1.572,4.128-1.572,5.701,0s1.572,4.128,0,5.701l-11.288,11.288C197.592,43.951,196.56,44.346,195.528,44.346z"/>
	<path style="fill:#1A237E;" d="M127.798,112.076c-1.032,0-2.064-0.395-2.854-1.177c-1.572-1.572-1.572-4.128,0-5.701l11.288-11.288
		c1.572-1.572,4.128-1.572,5.701,0s1.572,4.128,0,5.701l-11.288,11.288C129.863,111.681,128.83,112.076,127.798,112.076z"/>
	<path style="fill:#1A237E;" d="M206.816,112.076c-1.032,0-2.064-0.395-2.854-1.177L192.673,99.61c-1.572-1.572-1.572-4.128,0-5.701
		s4.128-1.572,5.701,0l11.288,11.288c1.572,1.572,1.572,4.128,0,5.701C208.88,111.681,207.848,112.076,206.816,112.076z"/>
	<path style="fill:#1A237E;" d="M139.087,44.346c-1.032,0-2.064-0.395-2.854-1.177l-11.288-11.288c-1.572-1.572-1.572-4.128,0-5.701
		s4.128-1.572,5.701,0l11.288,11.288c1.572,1.572,1.572,4.128,0,5.701C141.151,43.951,140.119,44.346,139.087,44.346z"/>
</g>
<path style="fill:#66BB6A;" d="M346.306,253.178l-11.288-11.288c-6.45-6.45-6.45-16.126,0-22.576l0,0
	c6.45-6.45,16.126-6.45,22.576,0l11.288,11.288c6.45,6.45,6.45,16.126,0,22.576l0,0
	C362.431,258.822,352.756,258.822,346.306,253.178z"/>
<path style="fill:#1A237E;" d="M357.521,261.402c-4.975,0-9.917-1.734-13.868-5.193c-0.073-0.056-0.137-0.121-0.193-0.185
	l-11.288-11.288c-3.878-3.878-6.015-8.902-6.015-14.134s2.137-10.256,6.015-14.134c7.757-7.757,20.504-7.773,28.277,0l11.288,11.288
	c8.063,8.063,8.063,20.214,0,28.277C367.64,259.62,362.56,261.402,357.521,261.402z M349.055,250.227
	c4.935,4.225,12.272,4.193,17.174-0.081c4.693-4.701,4.693-11.796-0.194-16.69l-11.288-11.288c-4.725-4.717-12.151-4.701-16.876,0
	c-4.886,4.886-4.886,11.982,0,16.876L349.055,250.227z"/>
<path style="fill:#66BB6A;" d="M392.265,298.331l-11.288-11.288c-6.45-6.45-6.45-16.126,0-22.576l0,0
	c6.45-6.45,16.126-6.45,22.576,0l11.288,11.288c6.45,6.45,6.45,16.126,0,22.576l0,0
	C408.391,304.781,397.909,304.781,392.265,298.331z"/>
<path style="fill:#1A237E;" d="M403.254,307.2c-0.218,0-0.443,0-0.669-0.008c-5.209-0.169-9.917-2.338-13.256-6.096l-11.208-11.208
	c-3.878-3.878-6.015-8.902-6.015-14.134c0-5.241,2.137-10.256,6.015-14.142c7.781-7.765,20.528-7.749,28.277,0l11.288,11.288
	c3.878,3.878,6.015,8.902,6.015,14.143c0,5.233-2.137,10.248-6.015,14.134C413.849,305.023,408.616,307.2,403.254,307.2z
	 M392.265,263.644c-2.999,0-5.999,1.226-8.442,3.669c-4.886,4.886-4.886,11.982,0,16.876l11.288,11.288
	c0.065,0.064,0.129,0.129,0.177,0.193c1.854,2.129,4.539,3.354,7.563,3.451c3.435,0.242,6.7-1.209,9.135-3.644
	c4.886-4.886,4.886-11.982,0-16.876l-11.288-11.288C398.263,264.877,395.256,263.644,392.265,263.644z"/>
<g>
</g>
<g>
</g>
<g>
</g>
<g>
</g>
<g>
</g>
<g>
</g>
<g>
</g>
<g>
</g>
<g>
</g>
<g>
</g>
<g>
</g>
<g>
</g>
<g>
</g>
<g>
</g>
<g>
</g>
</svg>
