<?xml version="1.0" encoding="UTF-8"?>
<svg xmlns="http://www.w3.org/2000/svg" xmlns:xlink="http://www.w3.org/1999/xlink" version="1.1" id="Capa_1" x="0px" y="0px" viewBox="0 0 512 512" style="enable-background:new 0 0 512 512;" xml:space="preserve" width="512" height="512">
<g>
	<g>
		<rect x="63.613" y="245.341" style="fill:#DBD8DB;" width="48.097" height="144.29"/>
		<rect x="87.661" y="245.341" style="fill:#C9C5C9;" width="24.048" height="144.29"/>
		<polygon style="fill:#B8B2B8;" points="151.79,357.567 23.532,389.631 23.532,421.696 159.806,421.696 159.806,357.567 &#9;&#9;"/>
		<path style="fill:#9E959E;" d="M151.79,357.567l-24.048,6.038v18.01c0,8.854-7.178,16.032-16.032,16.032H23.532v24.048h136.274&#10;&#9;&#9;&#9;v-64.129H151.79z"/>
		<rect x="151.79" y="173.196" style="fill:#C9C5C9;" width="336.677" height="248.5"/>
		<path style="fill:#B8B2B8;" d="M488.468,173.196h-24.048v208.419c0,8.854-7.178,16.032-16.032,16.032H151.79v24.048h336.677&#10;&#9;&#9;&#9;V173.196z"/>
		<rect x="191.871" y="205.26" style="fill:#615260;" width="160.323" height="32.065"/>
		<rect x="352.194" y="205.26" style="fill:#B8B2B8;" width="32.065" height="32.065"/>
		<rect x="256" y="205.26" style="fill:#B8B2B8;" width="32.065" height="32.065"/>
		<polygon style="fill:#B8B2B8;" points="23.532,317.486 23.532,349.551 151.79,317.486 151.79,285.422 &#9;&#9;"/>
		<rect x="384.258" y="205.26" style="fill:#4E3D4D;" width="64.129" height="32.065"/>
		<rect x="191.871" y="277.405" style="fill:#615260;" width="160.323" height="32.065"/>
		<rect x="352.194" y="277.405" style="fill:#B8B2B8;" width="32.065" height="32.065"/>
		<rect x="256" y="277.405" style="fill:#B8B2B8;" width="32.065" height="32.065"/>
		<rect x="384.258" y="277.405" style="fill:#4E3D4D;" width="64.129" height="32.065"/>
		<rect x="191.871" y="349.551" style="fill:#615260;" width="160.323" height="32.065"/>
		<rect x="352.194" y="349.551" style="fill:#B8B2B8;" width="32.065" height="32.065"/>
		<rect x="256" y="349.551" style="fill:#B8B2B8;" width="32.065" height="32.065"/>
		<rect x="384.258" y="349.551" style="fill:#4E3D4D;" width="64.129" height="32.065"/>
		<polygon style="fill:#9E959E;" points="127.742,323.498 151.79,317.486 151.79,285.422 127.742,291.434 &#9;&#9;"/>
		<polygon style="fill:#B8B2B8;" points="23.532,245.341 23.532,277.406 151.79,245.341 151.79,213.277 &#9;&#9;"/>
		<polygon style="fill:#9E959E;" points="127.742,251.353 151.79,245.341 151.79,213.276 127.742,219.288 &#9;&#9;"/>
	</g>
	<g>
		
			<line style="fill:none;stroke:#000000;stroke-width:15;stroke-linecap:round;stroke-linejoin:round;stroke-miterlimit:10;" x1="7.5" y1="421.696" x2="504.5" y2="421.696"/>
		<path style="fill:none;stroke:#000000;stroke-width:15;stroke-linecap:round;stroke-linejoin:round;stroke-miterlimit:10;" d="&#10;&#9;&#9;&#9;M198.536,136.327l17.281-45.374c0.353-0.863,1.575-0.865,1.93-0.002l17.124,45.376"/>
		
			<line style="fill:none;stroke:#000000;stroke-width:15;stroke-linecap:round;stroke-linejoin:round;stroke-miterlimit:10;" x1="203.926" y1="125.026" x2="229.569" y2="125.026"/>
		<path style="fill:none;stroke:#000000;stroke-width:15;stroke-linecap:round;stroke-linejoin:round;stroke-miterlimit:10;" d="&#10;&#9;&#9;&#9;M388.485,136.327V90.39l31.057,44.973c0.576,0.832,1.193,0.424,1.193-0.587l-0.43-44.471"/>
		
			<line style="fill:none;stroke:#000000;stroke-width:15;stroke-linecap:round;stroke-linejoin:round;stroke-miterlimit:10;" x1="310.583" y1="90.304" x2="310.583" y2="136.327"/>
		
			<polyline style="fill:none;stroke:#000000;stroke-width:15;stroke-linecap:round;stroke-linejoin:round;stroke-miterlimit:10;" points="&#10;&#9;&#9;&#9;335.34,90.885 312.056,112.287 336.974,136.327 &#9;&#9;"/>
		
			<line style="fill:none;stroke:#000000;stroke-width:15;stroke-linecap:round;stroke-linejoin:round;stroke-miterlimit:10;" x1="361.081" y1="90.304" x2="361.081" y2="136.327"/>
		<path style="fill:none;stroke:#000000;stroke-width:15;stroke-linecap:round;stroke-linejoin:round;stroke-miterlimit:10;" d="&#10;&#9;&#9;&#9;M480.904,94.234c-3.673-2.481-8.1-3.93-12.866-3.93c-12.709,0-23.011,10.302-23.011,23.011s10.302,23.011,23.011,23.011&#10;&#9;&#9;&#9;c12.709,0,19.864-10.302,19.864-23.011h-13.767"/>
		
			<line style="fill:none;stroke:#000000;stroke-width:15;stroke-linecap:round;stroke-linejoin:round;stroke-miterlimit:10;" x1="264.98" y1="114.361" x2="284.313" y2="136.327"/>
		
			<line style="fill:none;stroke:#000000;stroke-width:15;stroke-linecap:round;stroke-linejoin:round;stroke-miterlimit:10;" x1="259.43" y1="90.304" x2="259.43" y2="136.327"/>
		<path style="fill:none;stroke:#000000;stroke-width:15;stroke-linecap:round;stroke-linejoin:round;stroke-miterlimit:10;" d="&#10;&#9;&#9;&#9;M284.313,102.265c0,6.606-5.792,11.961-12.638,11.961c-3.395,0-12.145,0.053-12.145,0.053s-0.055-8.684-0.055-12.014&#10;&#9;&#9;&#9;c0-2.735-0.03-11.961-0.03-11.961s8.218,0,12.23,0C278.521,90.304,284.313,95.659,284.313,102.265z"/>
		
			<line style="fill:none;stroke:#000000;stroke-width:15;stroke-linecap:round;stroke-linejoin:round;stroke-miterlimit:10;" x1="154.204" y1="90.304" x2="154.204" y2="136.327"/>
		<path style="fill:none;stroke:#000000;stroke-width:15;stroke-linecap:round;stroke-linejoin:round;stroke-miterlimit:10;" d="&#10;&#9;&#9;&#9;M180.261,103.292c0,7.173-6.069,12.988-13.242,12.988c-3.557,0-12.725,0.057-12.725,0.057s-0.057-9.429-0.057-13.045&#10;&#9;&#9;&#9;c0-2.97-0.032-12.988-0.032-12.988s8.611,0,12.815,0C174.192,90.304,180.261,96.119,180.261,103.292z"/>
		
			<polyline style="fill:none;stroke:#000000;stroke-width:15;stroke-linecap:round;stroke-linejoin:round;stroke-miterlimit:10;" points="&#10;&#9;&#9;&#9;151.79,373.599 151.79,173.196 488.468,173.196 488.468,421.696 &#9;&#9;"/>
		
			<line style="fill:none;stroke:#000000;stroke-width:15;stroke-linecap:round;stroke-linejoin:round;stroke-miterlimit:10;" x1="151.79" y1="421.696" x2="151.79" y2="405.664"/>
		
			<polyline style="fill:none;stroke:#000000;stroke-width:15;stroke-linecap:round;stroke-linejoin:round;stroke-miterlimit:10;" points="&#10;&#9;&#9;&#9;151.79,357.567 23.532,389.631 23.532,421.696 &#9;&#9;"/>
		<g>
			
				<polyline style="fill:none;stroke:#000000;stroke-width:15;stroke-linecap:round;stroke-linejoin:round;stroke-miterlimit:10;" points="&#10;&#9;&#9;&#9;&#9;151.79,213.276 23.532,245.341 23.532,277.405 151.79,245.341 &#9;&#9;&#9;"/>
			
				<polyline style="fill:none;stroke:#000000;stroke-width:15;stroke-linecap:round;stroke-linejoin:round;stroke-miterlimit:10;" points="&#10;&#9;&#9;&#9;&#9;151.79,285.422 23.532,317.486 23.532,349.551 151.79,317.486 &#9;&#9;&#9;"/>
		</g>
		
			<line style="fill:none;stroke:#000000;stroke-width:15;stroke-linecap:round;stroke-linejoin:round;stroke-miterlimit:10;" x1="63.613" y1="269.389" x2="63.613" y2="301.454"/>
		
			<line style="fill:none;stroke:#000000;stroke-width:15;stroke-linecap:round;stroke-linejoin:round;stroke-miterlimit:10;" x1="111.71" y1="261.373" x2="111.71" y2="293.438"/>
		
			<line style="fill:none;stroke:#000000;stroke-width:15;stroke-linecap:round;stroke-linejoin:round;stroke-miterlimit:10;" x1="63.613" y1="341.534" x2="63.613" y2="373.599"/>
		
			<line style="fill:none;stroke:#000000;stroke-width:15;stroke-linecap:round;stroke-linejoin:round;stroke-miterlimit:10;" x1="111.71" y1="333.518" x2="111.71" y2="365.583"/>
		
			<polyline style="fill:none;stroke:#000000;stroke-width:15;stroke-linecap:round;stroke-linejoin:round;stroke-miterlimit:10;" points="&#10;&#9;&#9;&#9;432.355,205.26 448.387,205.26 448.387,237.325 191.871,237.325 191.871,205.26 400.29,205.26 &#9;&#9;"/>
		
			<line style="fill:none;stroke:#000000;stroke-width:15;stroke-linecap:round;stroke-linejoin:round;stroke-miterlimit:10;" x1="256" y1="205.26" x2="256" y2="237.325"/>
		
			<line style="fill:none;stroke:#000000;stroke-width:15;stroke-linecap:round;stroke-linejoin:round;stroke-miterlimit:10;" x1="288.065" y1="205.26" x2="288.065" y2="237.325"/>
		
			<line style="fill:none;stroke:#000000;stroke-width:15;stroke-linecap:round;stroke-linejoin:round;stroke-miterlimit:10;" x1="352.194" y1="205.26" x2="352.194" y2="237.325"/>
		
			<line style="fill:none;stroke:#000000;stroke-width:15;stroke-linecap:round;stroke-linejoin:round;stroke-miterlimit:10;" x1="384.258" y1="205.26" x2="384.258" y2="237.325"/>
		
			<rect x="191.871" y="277.405" style="fill:none;stroke:#000000;stroke-width:15;stroke-linecap:round;stroke-linejoin:round;stroke-miterlimit:10;" width="256.516" height="32.065"/>
		
			<line style="fill:none;stroke:#000000;stroke-width:15;stroke-linecap:round;stroke-linejoin:round;stroke-miterlimit:10;" x1="256" y1="277.405" x2="256" y2="309.47"/>
		
			<line style="fill:none;stroke:#000000;stroke-width:15;stroke-linecap:round;stroke-linejoin:round;stroke-miterlimit:10;" x1="288.065" y1="277.405" x2="288.065" y2="309.47"/>
		
			<line style="fill:none;stroke:#000000;stroke-width:15;stroke-linecap:round;stroke-linejoin:round;stroke-miterlimit:10;" x1="352.194" y1="277.405" x2="352.194" y2="309.47"/>
		
			<line style="fill:none;stroke:#000000;stroke-width:15;stroke-linecap:round;stroke-linejoin:round;stroke-miterlimit:10;" x1="384.258" y1="277.405" x2="384.258" y2="309.47"/>
		
			<rect x="191.871" y="349.551" style="fill:none;stroke:#000000;stroke-width:15;stroke-linecap:round;stroke-linejoin:round;stroke-miterlimit:10;" width="256.516" height="32.065"/>
		
			<line style="fill:none;stroke:#000000;stroke-width:15;stroke-linecap:round;stroke-linejoin:round;stroke-miterlimit:10;" x1="256" y1="349.551" x2="256" y2="381.615"/>
		
			<line style="fill:none;stroke:#000000;stroke-width:15;stroke-linecap:round;stroke-linejoin:round;stroke-miterlimit:10;" x1="288.065" y1="349.551" x2="288.065" y2="381.615"/>
		
			<line style="fill:none;stroke:#000000;stroke-width:15;stroke-linecap:round;stroke-linejoin:round;stroke-miterlimit:10;" x1="352.194" y1="349.551" x2="352.194" y2="381.615"/>
		
			<line style="fill:none;stroke:#000000;stroke-width:15;stroke-linecap:round;stroke-linejoin:round;stroke-miterlimit:10;" x1="384.258" y1="349.551" x2="384.258" y2="381.615"/>
	</g>
</g>















</svg>
