<svg id="Filled_Expand" height="512" viewBox="0 0 64 64" width="512" xmlns="http://www.w3.org/2000/svg" data-name="Filled Expand"><path d="m2 8h60v55h-60z" fill="#f1f6ff"/><path d="m4 8h58v55h-58z" fill="#e6f0ff"/><path d="m2 8h60v2h-60z" fill="#e6f0ff"/><path d="m4 8h58v2h-58z" fill="#d7e4f7"/><path d="m43 8h15v20h-15z" fill="#929baa"/><path d="m43 8h15v2h-15z" fill="#7e8799"/><path d="m6 8h37v10h-37z" fill="#fff0aa"/><path d="m6 18h37v10h-37z" fill="#ffe675"/><path d="m8 20h35v8h-35z" fill="#fff0aa"/><path d="m34 23h4a2 2 0 0 1 2 2v3a0 0 0 0 1 0 0h-8a0 0 0 0 1 0 0v-3a2 2 0 0 1 2-2z" fill="#eba554"/><path d="m22.5 23h4a2 2 0 0 1 2 2v3a0 0 0 0 1 0 0h-8a0 0 0 0 1 0 0v-3a2 2 0 0 1 2-2z" fill="#eba554"/><path d="m11 23h4a2 2 0 0 1 2 2v3a0 0 0 0 1 0 0h-8a0 0 0 0 1 0 0v-3a2 2 0 0 1 2-2z" fill="#eba554"/><path d="m6 8h37v10h-37z" fill="#ffe675"/><path d="m8 8h35v10h-35z" fill="#fff0aa"/><path d="m6 8h37v2h-37z" fill="#ffe675"/><path d="m34 13h4a2 2 0 0 1 2 2v3a0 0 0 0 1 0 0h-8a0 0 0 0 1 0 0v-3a2 2 0 0 1 2-2z" fill="#eba554"/><path d="m22.5 13h4a2 2 0 0 1 2 2v3a0 0 0 0 1 0 0h-8a0 0 0 0 1 0 0v-3a2 2 0 0 1 2-2z" fill="#eba554"/><path d="m11 13h4a2 2 0 0 1 2 2v3a0 0 0 0 1 0 0h-8a0 0 0 0 1 0 0v-3a2 2 0 0 1 2-2z" fill="#eba554"/><circle cx="50.5" cy="21" fill="#bbc2cc" r="3"/><path d="m43 32h15v27h-15z" fill="#929baa"/><path d="m47 52h7v7h-7z" fill="#fac819"/><path d="m49 54h5v5h-5z" fill="#fcd841"/><path d="m6 50h37v9h-37z" fill="#ffe675"/><path d="m8 52h35v7h-35z" fill="#fff0aa"/><path d="m6 32h37v9h-37z" fill="#ffe675"/><path d="m8 34h35v7h-35z" fill="#fff0aa"/><path d="m6 41h37v9h-37z" fill="#ffe675"/><path d="m8 43h35v7h-35z" fill="#fff0aa"/><g fill="#eba554"><path d="m13 46a4 4 0 0 0 -4 4h8a4 4 0 0 0 -4-4z"/><path d="m24.5 46a4 4 0 0 0 -4 4h8a4 4 0 0 0 -4-4z"/><path d="m36 46a4 4 0 0 0 -4 4h8a4 4 0 0 0 -4-4z"/><path d="m13 37a4 4 0 0 0 -4 4h8a4 4 0 0 0 -4-4z"/><path d="m24.5 37a4 4 0 0 0 -4 4h8a4 4 0 0 0 -4-4z"/><path d="m36 37a4 4 0 0 0 -4 4h8a4 4 0 0 0 -4-4z"/><path d="m13 55a4 4 0 0 0 -4 4h8a4 4 0 0 0 -4-4z"/><path d="m24.5 55a4 4 0 0 0 -4 4h8a4 4 0 0 0 -4-4z"/><path d="m36 55a4 4 0 0 0 -4 4h8a4 4 0 0 0 -4-4z"/></g><circle cx="50.5" cy="45" fill="#bbc2cc" r="3"/><path d="m2 1h60v7h-60z" fill="#8e6340"/><path d="m4 3h58v5h-58z" fill="#7f5737"/><path d="m62 0h-60a1 1 0 0 0 -1 1v62a1 1 0 0 0 1 1h60a1 1 0 0 0 1-1v-62a1 1 0 0 0 -1-1zm-59 2h58v5h-58zm36 25h-6v-2a1.0006 1.0006 0 0 1 1-1h4a1.0006 1.0006 0 0 1 1 1zm-1-5h-4a3.0033 3.0033 0 0 0 -3 3v2h-1.5v-2a3.0033 3.0033 0 0 0 -3-3h-4a3.0033 3.0033 0 0 0 -3 3v2h-1.5v-2a3.0033 3.0033 0 0 0 -3-3h-4a3.0033 3.0033 0 0 0 -3 3v2h-1v-8h35v8h-1v-2a3.0033 3.0033 0 0 0 -3-3zm-10.5 5h-6v-2a1.0006 1.0006 0 0 1 1-1h4a1.0006 1.0006 0 0 1 1 1zm-11.5 0h-6v-2a1.0006 1.0006 0 0 1 1-1h4a1.0006 1.0006 0 0 1 1 1zm26-18v8h-1v-2a3.0033 3.0033 0 0 0 -3-3h-4a3.0033 3.0033 0 0 0 -3 3v2h-1.5v-2a3.0033 3.0033 0 0 0 -3-3h-4a3.0033 3.0033 0 0 0 -3 3v2h-1.5v-2a3.0033 3.0033 0 0 0 -3-3h-4a3.0033 3.0033 0 0 0 -3 3v2h-1v-8zm-3 8h-6v-2a1.0006 1.0006 0 0 1 1-1h4a1.0006 1.0006 0 0 1 1 1zm-11.5 0h-6v-2a1.0006 1.0006 0 0 1 1-1h4a1.0006 1.0006 0 0 1 1 1zm-11.5 0h-6v-2a1.0006 1.0006 0 0 1 1-1h4a1.0006 1.0006 0 0 1 1 1zm28-8h13v18h-13zm-41 53v-53h2v19a1 1 0 0 0 1 1h52a1 1 0 0 0 1-1v-19h2v53z"/><path d="m51.5 17.142v-1.142a1 1 0 0 0 -2 0v1.142a4 4 0 1 0 2 0zm-1 5.858a2 2 0 1 1 2-2 2.0027 2.0027 0 0 1 -2 2z"/><circle cx="47" cy="12" r="1"/><circle cx="54" cy="12" r="1"/><circle cx="50.5" cy="12" r="1"/><path d="m58 31h-52a1 1 0 0 0 -1 1v27a1 1 0 0 0 1 1h52a1 1 0 0 0 1-1v-27a1 1 0 0 0 -1-1zm-17.1011 18a5 5 0 0 0 -9.7978 0h-1.7022a5 5 0 0 0 -9.7978 0h-1.7022a5 5 0 0 0 -9.7978 0h-1.1011v-7h35v7zm-2.0832 0h-5.6314a2.982 2.982 0 0 1 5.6314 0zm-11.5 0h-5.6314a2.982 2.982 0 0 1 5.6314 0zm-11.5 0h-5.6314a2.982 2.982 0 0 1 5.6314 0zm-5.6314-9a2.982 2.982 0 0 1 5.6314 0zm11.5 0a2.982 2.982 0 0 1 5.6314 0zm11.5 0a2.982 2.982 0 0 1 5.6314 0zm8.8157-7v7h-1.1011a5 5 0 0 0 -9.7978 0h-1.7022a5 5 0 0 0 -9.7978 0h-1.7022a5 5 0 0 0 -9.7978 0h-1.1011v-7zm-35 18h35v7h-1.1011a5 5 0 0 0 -9.7978 0h-1.7022a5 5 0 0 0 -9.7978 0h-1.7022a5 5 0 0 0 -9.7978 0h-1.1011zm31.8157 7h-5.6314a2.982 2.982 0 0 1 5.6314 0zm-11.5 0h-5.6314a2.982 2.982 0 0 1 5.6314 0zm-11.5 0h-5.6314a2.982 2.982 0 0 1 5.6314 0zm32.1843 0v-5h5v5zm9 0h-2v-6a1 1 0 0 0 -1-1h-7a1 1 0 0 0 -1 1v6h-2v-25h13z"/><path d="m46.5 45a4 4 0 1 0 5-3.858v-1.142a1 1 0 0 0 -2 0v1.142a3.9955 3.9955 0 0 0 -3 3.858zm6 0a2 2 0 1 1 -2-2 2.0027 2.0027 0 0 1 2 2z"/><circle cx="47" cy="36" r="1"/><circle cx="54" cy="36" r="1"/><circle cx="50.5" cy="36" r="1"/></svg>