<?xml version="1.0" encoding="iso-8859-1"?>
<!-- Generator: Adobe Illustrator 19.0.0, SVG Export Plug-In . SVG Version: 6.00 Build 0)  -->
<svg xmlns="http://www.w3.org/2000/svg" xmlns:xlink="http://www.w3.org/1999/xlink" version="1.1" id="Layer_1" x="0px" y="0px" viewBox="0 0 511.97 511.97" style="enable-background:new 0 0 511.97 511.97;" xml:space="preserve" width="512" height="512">
<g>
	<g>
		<g>
			<polygon style="fill:#AD4F3D;" points="101.982,400.196 121.803,472.615 151.884,472.615 129.733,392.154    "/>
		</g>
		<g>
			<polygon style="fill:#AD4F3D;" points="90.247,400.196 70.426,472.615 40.345,472.615 62.496,392.154    "/>
		</g>
		<g>
			<polygon style="fill:#AD4F3D;" points="409.988,400.196 390.168,472.615 360.087,472.615 382.238,392.154    "/>
		</g>
		<g>
			<polygon style="fill:#AD4F3D;" points="421.724,400.196 441.544,472.615 471.625,472.615 449.474,392.154    "/>
		</g>
		<polygon style="fill:#C86D5C;" points="327.513,324.55 300.026,305.04 181.086,472.615 222.421,472.615   "/>
		<polygon style="fill:#AD4F3D;" points="240.657,446.923 291.981,374.612 271.314,345.493 219.989,417.804   "/>
		<polygon style="fill:#C86D5C;" points="184.457,324.55 211.944,305.04 330.884,472.615 289.549,472.615   "/>
		<g>
			<rect x="239.131" y="139.836" style="fill:#C86D5C;" width="33.708" height="174.959"/>
		</g>
		<path style="fill:#E34B4C;" d="M107.286,145.582L70.112,156.85c0,20.531,16.644,37.175,37.175,37.175h0    c20.531,0,37.175-16.644,37.175-37.175L107.286,145.582z"/>
		<path style="fill:#D2D2D2;" d="M181.636,145.582l-37.175,11.269c0,20.531,16.644,37.175,37.175,37.175h0    c20.531,0,37.175-16.644,37.175-37.175L181.636,145.582z"/>
		<path style="fill:#E34B4C;" d="M293.16,156.85l-37.175-11.269l-37.175,11.269h0c0,20.531,16.644,37.175,37.175,37.175h0    C276.516,194.025,293.16,177.382,293.16,156.85L293.16,156.85z"/>
		<path style="fill:#D2D2D2;" d="M367.51,156.85l-37.175-11.269L293.16,156.85h0c0,20.531,16.644,37.175,37.175,37.175h0    C350.866,194.025,367.509,177.382,367.51,156.85L367.51,156.85z"/>
		<path style="fill:#E34B4C;" d="M441.859,156.85l-37.175-11.269L367.51,156.85h0c0,20.531,16.644,37.175,37.175,37.175h0    C425.215,194.025,441.859,177.382,441.859,156.85L441.859,156.85z"/>
		<path style="fill:#FD6F71;" d="M144.461,156.85h-74.35c0,0,35.634-117.495,185.874-117.495L144.461,156.85z"/>
		<polygon style="fill:#FD6F71;" points="300.768,66.803 255.985,39.355 211.202,66.803 192.904,134.218 218.81,156.85     293.16,156.85 319.067,134.218   "/>
		<path style="fill:#FD6F71;" d="M255.985,39.355c150.24,0,185.874,117.495,185.874,117.495h-74.349L255.985,39.355z"/>
		<path style="fill:#AD4F3D;" d="M410.077,298.423H101.893c-9.042,0-16.372,7.33-16.372,16.372v0c0,9.042,7.33,16.372,16.372,16.372    h308.184c9.042,0,16.372-7.33,16.372-16.372v0C426.45,305.753,419.12,298.423,410.077,298.423z"/>
		<path style="fill:#EFEDEE;" d="M255.985,39.355c0,0-37.175,30.501-37.175,117.495h-74.35    C144.461,156.85,170.271,39.355,255.985,39.355z"/>
		<path style="fill:#EFEDEE;" d="M367.509,156.85h-74.35c0-86.995-37.175-117.495-37.175-117.495    C341.699,39.355,367.509,156.85,367.509,156.85z"/>
		<g>
			<path style="fill:#C86D5C;" d="M144.31,412.547H52.295c-7.757,0-14.512-5.294-16.366-12.826L7.749,285.211     c-1.191-4.841,1.767-9.73,6.608-10.921l15.202-3.741c4.84-1.191,9.73,1.767,10.921,6.608L65.503,378.84h78.806     c3.966,0,7.182,3.215,7.182,7.182v19.344C151.491,409.332,148.276,412.547,144.31,412.547z"/>
		</g>
		<g>
			<path style="fill:#C86D5C;" d="M367.661,412.547h92.015c7.757,0,14.512-5.294,16.366-12.826l28.18-114.509     c1.191-4.841-1.767-9.73-6.608-10.921l-15.202-3.741c-4.84-1.191-9.73,1.767-10.921,6.608L446.467,378.84h-78.806     c-3.966,0-7.182,3.215-7.182,7.182v19.344C360.479,409.332,363.694,412.547,367.661,412.547z"/>
		</g>
	</g>
	<g>
		<path d="M62.611,156.85c0,24.634,20.041,44.675,44.675,44.675c15.489,0,29.157-7.926,37.175-19.933    c8.017,12.006,21.686,19.933,37.174,19.933c15.489,0,29.157-7.926,37.175-19.933c3.369,5.045,7.739,9.364,12.821,12.682v96.648    H170.65c-4.142,0-7.5,3.358-7.5,7.5s3.358,7.5,7.5,7.5h239.428c4.893,0,8.873,3.98,8.873,8.873c0,4.892-3.98,8.872-8.873,8.872    H101.893c-4.892,0-8.873-3.98-8.873-8.873s3.98-8.872,8.873-8.872h38.756c4.142,0,7.5-3.358,7.5-7.5s-3.358-7.5-7.5-7.5h-38.756    c-13.164,0-23.873,10.709-23.873,23.873s10.709,23.872,23.873,23.872h83.387l40.841,57.541c0,0-51.041,71.912-51.151,72.066    c-3.463,4.88,0.15,11.841,6.116,11.841h41.335c2.43,0,4.709-1.177,6.116-3.159l27.448-38.671l27.448,38.671    c1.407,1.982,3.686,3.159,6.116,3.159c0,0,41.256,0,41.334,0c5.972,0,9.576-6.966,6.116-11.841l-51.15-72.066l40.841-57.541    h83.387c13.164,0,23.873-10.709,23.873-23.873c0-13.163-10.709-23.872-23.873-23.872H280.339v-96.648    c5.082-3.318,9.452-7.636,12.821-12.682c8.017,12.006,21.686,19.933,37.175,19.933s29.157-7.926,37.175-19.933    c8.017,12.006,21.686,19.933,37.175,19.933c24.633,0,44.674-20.041,44.674-44.675c0-0.763-0.13-1.533-0.349-2.263    c-0.593-1.923-9.655-30.312-36.33-59.506c-2.794-3.058-7.538-3.271-10.596-0.478s-3.272,7.538-0.478,10.596    c15.568,17.039,24.643,33.953,29.23,44.15h-57.491c-0.044-0.162-0.092-0.334-0.139-0.502c-5.064-18.38-12.397-36.352-21.877-52.9    c-7.758-13.543-17.249-26.413-28.803-37.072c-1.571-1.449-3.177-2.861-4.825-4.222c23.486,6.419,44.483,16.786,62.796,31.038    c3.27,2.544,7.982,1.956,10.525-1.313c2.544-3.269,1.956-7.981-1.313-10.525c-35.806-27.866-80.792-41.996-133.726-42    c-0.01,0-0.019,0-0.029,0c-35.326,0.003-67.448,6.402-95.475,19.019c-22.548,10.151-42.477,24.31-59.23,42.083    c-28.167,29.881-37.658,59.579-38.288,61.624C62.849,154.95,62.611,156.473,62.611,156.85z M245.009,338.667h21.953    l-10.976,15.464L245.009,338.667z M218.547,465.115h-22.94l39.711-55.949l11.47,16.16L218.547,465.115z M293.423,465.115    l-89.749-126.448h22.94l89.749,126.448H293.423z M276.652,383.25l-11.47-16.16l20.174-28.423h22.94L276.652,383.25z     M107.286,186.525c-13.773,0-25.384-9.431-28.715-22.175h57.43C132.671,177.094,121.059,186.525,107.286,186.525z M273.674,48.776    c0.174,0.039,0.346,0.084,0.52,0.124c0.705,0.163,1.408,0.334,2.107,0.517c17.805,4.642,32.819,15.716,44.774,29.442    c10.17,11.676,18.14,25.005,24.68,39.002c4.756,10.176,8.759,20.725,11.968,31.49h-57.156c-0.002-0.105-0.008-0.207-0.01-0.312    c-0.455-17.792-2.486-35.601-6.84-52.877c-4.168-16.557-10.459-32.851-19.962-47.109c-0.065-0.098-0.132-0.203-0.197-0.3    C273.597,48.761,273.636,48.768,273.674,48.776z M214.304,115.801c-1.354,8.125-2.04,16.337-2.538,24.554    c-0.168,2.995-0.294,5.995-0.364,8.995h-57.146c7.227-24.112,31.24-88.535,84.124-100.549    c-8.51,12.742-18.982,34.16-24.043,66.791C214.325,115.662,214.314,115.732,214.304,115.801z M226.578,144.527    c0.429-9.707,1.389-19.394,2.998-28.978c3.141-18.739,8.764-37.281,18.453-53.722c2.384-4.045,5.021-7.957,7.998-11.591    c0.024,0.03,0.048,0.057,0.073,0.087c3.01,3.6,5.639,7.516,8.02,11.557c9.831,16.684,15.417,35.661,18.492,54.688    c1.747,10.81,2.732,21.798,2.951,32.747c0,0.012,0,0.023,0.001,0.035h-59.155C226.451,147.742,226.507,146.134,226.578,144.527z     M181.635,186.525c-13.773,0-25.384-9.431-28.714-22.175h57.429C207.02,177.094,195.408,186.525,181.635,186.525z     M265.339,200.547v90.376h-18.708v-90.376c0.106,0.022,0.214,0.037,0.32,0.059C252.996,201.86,259.301,201.821,265.339,200.547z     M268.361,183.807c-7.795,3.596-16.959,3.592-24.754-0.001c-7.986-3.682-14.075-10.799-16.337-19.456h57.43    C282.437,173.007,276.348,180.126,268.361,183.807z M330.335,186.525c-13.773,0-25.384-9.431-28.715-22.175h57.43    C355.719,177.094,344.108,186.525,330.335,186.525z M433.399,164.35c-3.33,12.744-14.941,22.175-28.714,22.175h0    c-13.773,0-25.384-9.431-28.714-22.175H433.399z M112.65,102.736c15.405-16.208,33.713-29.12,54.416-38.375    c8.631-3.858,17.695-7.084,27.163-9.673c-0.701,0.58-1.397,1.173-2.09,1.774c-17.047,14.796-29.631,34.118-39.224,54.392    c-5.83,12.322-10.618,25.159-14.237,38.302c-0.017,0.063-0.037,0.132-0.054,0.194H81.132    C85.939,138.661,95.672,120.6,112.65,102.736z"/>
		<path d="M367.661,371.339c-8.096,0-14.682,6.586-14.682,14.682v19.344c0,7.802,6.123,14.184,13.813,14.638    c0,0-13.889,50.449-13.936,50.621c-1.293,4.697,2.378,9.491,7.231,9.491h30.081c3.379,0,6.342-2.26,7.234-5.52l14.929-54.548h7.05    l14.929,54.548c0.892,3.26,3.854,5.52,7.234,5.52c0,0,30.035,0,30.081,0c4.889,0,8.527-4.781,7.231-9.491l-14.077-51.134    c8.981-1.913,16.277-8.761,18.545-17.978c0,0,28.166-114.452,28.18-114.509c2.154-8.751-3.368-17.848-12.098-19.997l-15.202-3.741    c-8.764-2.155-17.841,3.341-19.997,12.098l-23.618,95.975H367.661z M384.444,465.115h-14.514l12.407-45.068h14.441    L384.444,465.115z M447.267,465.115l-12.334-45.068h14.441l12.407,45.068H447.267z M453.75,380.631l25.023-101.682    c0.197-0.802,1.046-1.315,1.847-1.118c0,0,15.203,3.741,15.204,3.741c0.814,0.201,1.316,1.033,1.115,1.846l-28.18,114.509    c-1.032,4.191-4.767,7.119-9.083,7.119h-91.697v-18.708h78.488C449.919,386.339,452.925,383.984,453.75,380.631z"/>
		<path d="M28.646,401.513c2.268,9.216,9.564,16.065,18.545,17.978c0,0-14.054,51.052-14.077,51.134    c-1.296,4.707,2.362,9.491,7.231,9.491h30.081c3.379,0,6.342-2.26,7.234-5.52l14.929-54.548h7.05l14.929,54.548    c0.892,3.26,3.854,5.52,7.234,5.52c0,0,30.073,0,30.081,0c4.77,0,8.546-4.711,7.231-9.491l-13.936-50.622    c7.691-0.454,13.813-6.835,13.813-14.638v-19.344c0-8.096-6.586-14.682-14.682-14.682H71.381c0,0-23.602-95.911-23.618-95.976    c-2.145-8.716-11.291-14.239-19.996-12.098c0,0-15.195,3.739-15.202,3.741c-8.736,2.15-14.25,11.257-12.099,19.997L28.646,401.513    z M64.703,465.115H50.189l12.407-45.068h14.441L64.703,465.115z M127.526,465.115l-12.334-45.068h14.441l12.407,45.068H127.526z     M15.208,282.265c0.149-0.247,0.434-0.567,0.941-0.692l15.203-3.741c0.805-0.199,1.648,0.312,1.846,1.117L58.22,380.631    c0.825,3.352,3.831,5.708,7.283,5.708h78.488v18.708H52.295c-4.316,0-8.052-2.927-9.083-7.119l-28.18-114.509    C14.906,282.912,15.058,282.511,15.208,282.265z"/>
	</g>
</g>















</svg>
