<?xml version="1.0" encoding="UTF-8"?>
<svg xmlns="http://www.w3.org/2000/svg" id="Filled" viewBox="0 0 512 512" width="512" height="512"><path d="M496,433c0,61.856-46.562,63-104,63s-104-1.144-104-63,46.562-161,104-161S496,371.144,496,433Z" style="fill:#7e8589"/><path d="M472,464a16,16,0,0,1,15.984,16.724C487.6,489.359,480.142,496,471.5,496H424.054A16.054,16.054,0,0,1,408,479.946V464.052a.052.052,0,0,0-.053-.052c-8.975-.028-15.54-7.111-15.911-15.994L392,448l-.036.006c-.371,8.883-6.936,15.966-15.911,15.994a.052.052,0,0,0-.053.052v15.894A16.054,16.054,0,0,1,359.946,496H312.5c-8.644,0-16.105-6.641-16.486-15.276A16,16,0,0,1,312,464h7.946a.054.054,0,0,0,.054-.054V320a64,64,0,0,1,64-64h16a64,64,0,0,1,64,64V463.946a.054.054,0,0,0,.054.054Z" style="fill:#9aa3a8"/><path d="M416,387.429C416,409.52,405.255,416,392,416s-24-6.48-24-28.571S378.745,336,392,336,416,365.337,416,387.429Z" style="fill:#7e8589"/><rect x="344" y="448" width="160" height="48" rx="22.883" ry="22.883" style="fill:#b6b9ba"/><path d="M392,448v48H366.88A22.888,22.888,0,0,1,344,473.12v-2.24A22.888,22.888,0,0,1,366.88,448Z" style="fill:#7e8589"/><path d="M480,216V113.893a9.883,9.883,0,0,0-15.121-8.376L424,136H360l-40.879-30.483A9.883,9.883,0,0,0,304,113.893V216Z" style="fill:#9aa3a8"/><path d="M480,217.455C480,270.474,448.7,280,392,280s-88-9.526-88-62.545S335.3,120,392,120,480,164.435,480,217.455Z" style="fill:#b6b9ba"/><path d="M8,448H152a0,0,0,0,1,0,0v48a0,0,0,0,1,0,0H56A48,48,0,0,1,8,448v0a0,0,0,0,1,0,0Z" style="fill:#8c5237"/><path d="M288,424c0,70.692-53.726,72-120,72S48,494.692,48,424s53.726-184,120-184S288,353.308,288,424Z" style="fill:#b37a60"/><path d="M264,464a16,16,0,0,1,0,32H200a16,16,0,0,1-16-16V464c-9,0-15.593-7.094-15.964-15.994L168,448l-.036.006C167.593,456.906,161,464,152,464v16a16,16,0,0,1-16,16H72a16,16,0,0,1,0-32h8V288a80,80,0,0,1,80-80h16a80,80,0,0,1,80,80V464Z" style="fill:#d49073"/><path d="M208,360c0,30.928-17.909,40-40,40s-40-9.072-40-40,17.909-72,40-72S208,329.072,208,360Z" style="fill:#b37a60"/><path d="M160,32H105.808C94.721,33.594,86.623,40.54,80,48.1l-41.99,56.34C20.416,136.62,43.559,176,80.068,176H160Z" style="fill:#8c5237"/><path d="M176,32h54.192c11.087,1.594,19.185,8.54,25.808,16.1l41.99,56.34C315.584,136.62,292.441,176,255.932,176H176Z" style="fill:#8c5237"/><path d="M168,16c-40,0-56,24-72,72s-24,48-24,80,16,55.711,32,55.711H232c16,0,32-23.711,32-55.711s-8-32-24-80S208,16,168,16Z" style="fill:#c48669"/><path d="M224,199.711c0,28.719-25.072,24-56,24s-56,4.719-56-24,25.072-80,56-80S224,170.993,224,199.711Z" style="fill:#f0c6a4"/><path d="M484.6,244.278l17.832,3.567a8,8,0,1,0,3.138-15.69L487.49,228.54c.33-3.529.51-7.212.51-11.085,0-.354-.017-.7-.02-1.056.006-.133.02-.264.02-.4V203.359l17.569-3.514a8,8,0,1,0-3.138-15.69L488,187.041V113.893a17.883,17.883,0,0,0-27.359-15.161c-.187.116-.369.241-.544.372l-28.064,20.927a103.794,103.794,0,0,0-80.066,0L323.9,99.1c-.175-.131-.357-.256-.544-.372a17.9,17.9,0,0,0-18.149-.473c-.436.242-.855.506-1.265.78L262.414,43.316c-.126-.169-.259-.333-.4-.492-6.169-7.039-16.063-16.64-30.686-18.742A7.893,7.893,0,0,0,230.192,24H214.255C202.169,13.119,187.3,8,168,8s-34.169,5.119-46.255,16H105.808a7.893,7.893,0,0,0-1.139.082c-14.623,2.1-24.517,11.7-30.686,18.742-.138.159-.271.323-.4.492L31.6,99.656a8.041,8.041,0,0,0-.606.943,56.4,56.4,0,0,0,33.977,81.342c3.256,23.344,14.5,41.922,28.884,47.966A87.205,87.205,0,0,0,72,288v21.022C52.235,345.667,40,389.531,40,424a123.7,123.7,0,0,0,.986,16H8a8,8,0,0,0-8,8,56.063,56.063,0,0,0,56,56H264a24.024,24.024,0,0,0,23.987-23.47c0,.182,0,.364.01.547A24.211,24.211,0,0,0,312.476,504H481.117A30.918,30.918,0,0,0,512,473.117v-2.234a30.789,30.789,0,0,0-9.124-21.893A107.641,107.641,0,0,0,504,433c0-32.808-12.522-75.135-32-108.484V320a71.355,71.355,0,0,0-13.993-42.657c1.16-.6,2.294-1.222,3.392-1.886C472.879,268.522,480.555,258.211,484.6,244.278ZM469.3,112.2a1.885,1.885,0,0,1,2.7,1.7v41.935a93.966,93.966,0,0,0-8.614-12.131A88.026,88.026,0,0,0,447.2,128.681Zm-156.334.054a1.789,1.789,0,0,1,1.73-.054L336.8,128.681A88,88,0,0,0,320.614,143.7,93.966,93.966,0,0,0,312,155.828V128.774c.017-.885.025-1.77,0-2.654V113.893A1.788,1.788,0,0,1,312.968,112.252ZM272.155,241.569a8,8,0,0,0,9.414,6.276l17.832-3.567c4.044,13.933,11.72,24.244,23.2,31.179,1.046.632,2.159,1.265,3.351,1.893A71.457,71.457,0,0,0,311.974,320v4.562a249.028,249.028,0,0,0-22.338,51.3A285.859,285.859,0,0,0,264,309.022V288a87.205,87.205,0,0,0-21.851-58.093c14.387-6.043,25.626-24.617,28.883-47.959A55.645,55.645,0,0,0,296,167.018v20.023l-14.431-2.886a8,8,0,1,0-3.138,15.69L296,203.359v12.352c0,.162.015.319.024.478,0,.423-.024.842-.024,1.266,0,3.873.18,7.556.51,11.085l-18.079,3.615A8,8,0,0,0,272.155,241.569ZM264,347.357c10.126,26.364,16,53.8,16,76.643,0,13.945-2.18,25.117-6.618,33.911A23.876,23.876,0,0,0,264,456Zm22.4,120.137a55.371,55.371,0,0,0,2.694,5.191,23.956,23.956,0,0,0-1.112,6.751,23.828,23.828,0,0,0-2.562-10.232C285.763,468.644,286.082,468.068,286.4,467.494Zm13.809-8.4C297.389,452.061,296,443.439,296,433c0-21.558,5.958-47.711,15.974-72.216V456A24.093,24.093,0,0,0,300.213,459.093ZM120,199.778C120,173.417,143.719,128,168,128s48,45.417,48,71.778c0,12.37-6.62,16.222-48,16.222C131.4,216,120,213.763,120,199.778ZM249.779,53.138l41.447,55.61A40.409,40.409,0,0,1,296,127.018v.22a40.673,40.673,0,0,1-24.032,37.42c-.362-19.447-3.958-27.817-10.219-42.374-3.736-8.684-8.386-19.492-14.159-36.814-6.72-20.158-13.025-34.6-20-45.47h1.987C236.534,41.151,242.8,45.228,249.779,53.138ZM64.032,164.665a40.466,40.466,0,0,1-19.258-55.917l41.447-55.61C93.2,45.228,99.466,41.151,106.42,40h1.987c-6.972,10.871-13.277,25.312-20,45.47-5.773,17.322-10.423,28.13-14.159,36.814C67.989,136.842,64.393,145.213,64.032,164.665ZM80,168c0-18.591,2.62-24.681,8.949-39.393C92.6,120.119,97.6,108.493,103.59,90.53,120.585,39.544,135.634,24,168,24s47.415,15.544,64.41,66.53c5.988,17.963,10.989,29.589,14.641,38.077C253.38,143.319,256,149.409,256,168c0,29.3-14.215,48-24,48h-4.224A30.66,30.66,0,0,0,232,199.778C232,168.946,205.607,112,168,112s-64,56.946-64,87.778A30.66,30.66,0,0,0,108.224,216H104C94.215,216,80,197.3,80,168ZM72,347.357V456a23.876,23.876,0,0,0-9.382,1.911C58.18,449.117,56,437.945,56,424,56,401.155,61.874,373.721,72,347.357ZM16.8,456h27.75a64.922,64.922,0,0,0,6.022,13.2,23.92,23.92,0,0,0-1.4,18.209A40.112,40.112,0,0,1,16.8,456ZM168,392c-22.131,0-32-9.869-32-32,0-29.907,17.047-64,32-64s32,34.093,32,64C200,382.131,190.131,392,168,392Zm0,73.872a23.318,23.318,0,0,0,8,4.782V480a23.885,23.885,0,0,0,1.376,8H158.624A23.885,23.885,0,0,0,160,480v-9.346A23.318,23.318,0,0,0,168,465.872ZM264,488H200a8.009,8.009,0,0,1-8-8V464a8,8,0,0,0-8-8c-4.488,0-7.767-3.424-7.972-8.328,0-.111-.019-.22-.028-.33V407.584c25.874-2.765,40-19.412,40-47.584,0-16.688-4.708-35.845-12.595-51.245C193.908,290.212,181.335,280,168,280s-25.908,10.212-35.4,28.755C124.708,324.155,120,343.312,120,360c0,28.172,14.126,44.819,40,47.584V447.34c-.009.111-.024.22-.028.332-.205,4.9-3.484,8.328-7.972,8.328a8,8,0,0,0-8,8v16a8.009,8.009,0,0,1-8,8H72a8,8,0,0,1,0-16h32a8,8,0,0,0,0-16H88V288a71.408,71.408,0,0,1,26.747-56H221.253A71.41,71.41,0,0,1,248,288V456H232a8,8,0,0,0,0,16h32a8,8,0,0,1,0,16Zm88-14.883v-2.234A14.9,14.9,0,0,1,366.883,456H384v32H366.883A14.9,14.9,0,0,1,352,473.117ZM392,408c-8.311,0-16-2.492-16-20.571C376,365,387,344,392,344s16,21,16,43.429C408,405.508,400.311,408,392,408Zm104,65.117A14.9,14.9,0,0,1,481.117,488H400V456h24v8a8,8,0,0,0,16,0v-8h16v8a8,8,0,0,0,8,8h.054a8,8,0,0,0,8-8c0-2.073-.022-8-.022-8h9.085A14.9,14.9,0,0,1,496,470.883Zm-8.29-32.4a30.816,30.816,0,0,0-6.593-.716H472V360.719c10.032,24.523,16,50.7,16,72.281Q488,437.016,487.71,440.716ZM456,320v24h-8a8,8,0,0,0,0,16h8v16h-8a8,8,0,0,0,0,16h8v48H400V423.228c11.232-2.257,24-10.4,24-35.8a98.975,98.975,0,0,0-7.681-37.16C408.4,331.863,398.724,328,392,328s-16.4,3.863-24.319,22.269A98.975,98.975,0,0,0,360,387.429c0,25.4,12.768,33.542,24,35.8V440H366.883A30.918,30.918,0,0,0,336,470.883v2.234A30.689,30.689,0,0,0,339.833,488H312.476c-4.5,0-8.309-3.422-8.5-7.628A8,8,0,0,1,311.974,472H328a8,8,0,0,0,.053-16h-.08V392H336a8,8,0,0,0,0-16h-8.026V360H336a8,8,0,0,0,0-16h-8.026V320a55.576,55.576,0,0,1,13.757-36.744C352.656,286.049,368.238,288,392,288c16.6,0,34.618-.713,50.209-4.784A55.5,55.5,0,0,1,456,320Zm-2.874-58.238a51.334,51.334,0,0,1-10.59,4.751c-.171.047-.338.1-.506.162C430.5,270.36,414.642,272,392,272c-30.967,0-49.248-3.062-61.126-10.238-7.68-4.64-12.838-11.3-15.8-20.618l6.494-1.3a8,8,0,1,0-3.138-15.69l-6.165,1.233q-.264-3.771-.266-7.933c0-3.605.165-7.212.492-10.8l5.939,1.188a8,8,0,0,0,3.138-15.69l-6.5-1.3C320.3,168.876,332.352,149.2,352,137.937V152a8,8,0,0,0,16,0V131.21a82.9,82.9,0,0,1,16-2.879V168a8,8,0,0,0,16,0V128.331a82.9,82.9,0,0,1,16,2.879V152a8,8,0,0,0,16,0V137.937c19.648,11.264,31.7,30.939,36.936,52.917l-6.5,1.3a8,8,0,1,0,3.138,15.69l5.939-1.188c.327,3.586.492,7.193.492,10.8q0,4.168-.266,7.933l-6.165-1.233a8,8,0,0,0-3.138,15.69l6.494,1.3C465.964,250.46,460.806,257.122,453.126,261.762Z"/><circle cx="432" cy="192" r="8"/><circle cx="352" cy="192" r="8"/><circle cx="200" cy="95.711" r="8"/><circle cx="136" cy="95.711" r="8"/><path d="M192,184c-14.509,0-15.878-6.656-16-8.166V168a8,8,0,0,0,8-8c0-7.756-5.607-16-16-16s-16,8.244-16,16a8,8,0,0,0,8,8v8a7.689,7.689,0,0,1-1.4,3.2c-2.355,3.14-7.4,4.8-14.6,4.8a8,8,0,0,0,0,16c11.841,0,19.3-3.33,24-7.508,4.7,4.178,12.159,7.508,24,7.508a8,8,0,0,0,0-16Zm-16-8v-.135C176,175.953,176,176,176,176Z"/><path d="M411.568,240.84c-5.125-2.564-10.752-6.951-11.568-8.991V224a8,8,0,0,0,8-8c0-7.756-5.607-16-16-16s-16,8.244-16,16a8,8,0,0,0,8,8v7.847c-.813,2.039-6.441,6.427-11.558,8.987a8,8,0,1,0,7.116,14.332A57.733,57.733,0,0,0,392,246.854a57.733,57.733,0,0,0,12.442,8.312,8,8,0,0,0,7.126-14.326Z"/></svg>
