<svg height="512" viewBox="0 0 60 60" width="512" xmlns="http://www.w3.org/2000/svg"><g id="Page-1" fill="none" fill-rule="evenodd"><g id="019---Swimming-Pool" fill-rule="nonzero"><path id="Shape" d="m57 59h-54c-.6006454.0001226-1.16954348-.2697116-1.54947247-.7349308s-.53065662-1.0765593-.41052753-1.6650692l9.184-45c.1901074-.9313325 1.0094628-1.600194 1.96-1.6h35.632c.9501616.0002812 1.7689677.6690356 1.959 1.6l9.184 45c.1200941.5883383-.0305094 1.1995034-.4102113 1.6646819s-.9483184.7351404-1.5487887.7353181z" fill="#ced7db"/><path id="Shape" d="m58.959 56.6-9.184-45c-.1900323-.9309644-1.0088384-1.5997188-1.959-1.6h-3c.9501616.0002812 1.7689677.6690356 1.959 1.6l9.184 45c.1200941.5883383-.0305094 1.1995034-.4102113 1.6646819s-.9483184.7351404-1.5487887.7353181h3c.6004703-.0001777 1.1690868-.2701396 1.5487887-.7353181s.5303054-1.0763436.4102113-1.6646819z" fill="#9d9d9d"/><path id="Shape" d="m40 14h5.366c.4752686-.000097.8849463.3343337.98.8l7.959 39c.0600645.294255-.0152993.599925-.2052638.8325346s-.4744135.3675267-.7747362.3674654h-46.65c-.3003227.0000613-.58477174-.1348558-.77473623-.3674654-.1899645-.2326096-.26532832-.5382796-.20526377-.8325346l7.959-39c.0950537-.4656663.5047314-.800097.98-.8z" fill="#02a8f3"/><path id="Shape" d="m46.346 14.8c-.0950537-.4656663-.5047314-.800097-.98-.8h-3c.4752686-.000097.8849463.3343337.98.8l7.959 39c.0600645.294255-.0152993.599925-.2052638.8325346s-.4744135.3675267-.7747362.3674654h3c.3003227.0000613.5847717-.1348558.7747362-.3674654s.2653283-.5382796.2052638-.8325346z" fill="#0377bb"/><g fill="#f4f4f4"><path id="Shape" d="m22 27c-1.1257333-.050131-2.1936265-.5128847-3-1.3-.8063735.7871153-1.8742667 1.249869-3 1.3-.5522847 0-1-.4477153-1-1s.4477153-1 1-1c.909584-.0722089 1.7117668-.6236381 2.105-1.447.187968-.3152706.5279475-.5083906.895-.5083906s.707032.19312.895.5083906c.3951738.827024 1.2029291 1.3791364 2.117 1.447.5495531.0104026.9876943.4623893.981 1.012-.0027516.5464651-.4465279.9880069-.993.988z"/><path id="Shape" d="m34 26c-1.1257333-.050131-2.1936265-.5128847-3-1.3-.8063735.7871153-1.8742667 1.249869-3 1.3-.5522847 0-1-.4477153-1-1s.4477153-1 1-1c.909584-.0722089 1.7117668-.6236381 2.105-1.447.187968-.3152706.5279475-.5083906.895-.5083906s.707032.19312.895.5083906c.3951738.827024 1.2029291 1.3791364 2.117 1.447.5495531.0104026.9876943.4623893.981 1.012-.0027516.5464651-.4465279.9880069-.993.988z"/><path id="Shape" d="m39 37c-1.1257333-.050131-2.1936265-.5128847-3-1.3-.8063735.7871153-1.8742667 1.249869-3 1.3-.5522847 0-1-.4477153-1-1s.4477153-1 1-1c.9077427-.0739265 1.7076473-.6250989 2.1-1.447.187968-.3152706.5279475-.5083906.895-.5083906s.707032.19312.895.5083906c.396046.828499 1.2060906 1.3808715 2.122 1.447.5495531.0104026.9876943.4623893.981 1.012-.0027516.5464651-.4465279.9880069-.993.988z"/><path id="Shape" d="m48 50c-1.1257333-.050131-2.1936265-.5128847-3-1.3-.8063735.7871153-1.8742667 1.249869-3 1.3-.5522847 0-1-.4477153-1-1s.4477153-1 1-1c.9077427-.0739265 1.7076473-.6250989 2.1-1.447.187968-.3152706.5279475-.5083906.895-.5083906s.707032.19312.895.5083906c.396046.828499 1.2060906 1.3808715 2.122 1.447.5495531.0104026.9876943.4623893.981 1.012-.0027516.5464651-.4465279.9880069-.993.988z"/><path id="Shape" d="m19 49c-1.1257333-.050131-2.1936265-.5128847-3-1.3-.8063735.7871153-1.8742667 1.249869-3 1.3-.5522847 0-1-.4477153-1-1s.4477153-1 1-1c.909584-.0722089 1.7117668-.6236381 2.105-1.447.187968-.3152706.5279475-.5083906.895-.5083906s.707032.19312.895.5083906c.3951738.827024 1.2029291 1.3791364 2.117 1.447.5495531.0104026.9876943.4623893.981 1.012-.0027516.5464651-.4465279.9880069-.993.988z"/><path id="Shape" d="m46 43c-1.1257333-.050131-2.1936265-.5128847-3-1.3-.8063735.7871153-1.8742667 1.249869-3 1.3-.5522847 0-1-.4477153-1-1s.4477153-1 1-1c.9077427-.0739265 1.7076473-.6250989 2.1-1.447.187968-.3152706.5279475-.5083906.895-.5083906s.707032.19312.895.5083906c.396046.828499 1.2060906 1.3808715 2.122 1.447.5495531.0104026.9876943.4623893.981 1.012-.0027516.5464651-.4465279.9880069-.993.988z"/><path id="Shape" d="m19 40c-1.1257333-.050131-2.1936265-.5128847-3-1.3-.8063735.7871153-1.8742667 1.249869-3 1.3-.5522847 0-1-.4477153-1-1s.4477153-1 1-1c.909584-.0722089 1.7117668-.6236381 2.105-1.447.187968-.3152706.5279475-.5083906.895-.5083906s.707032.19312.895.5083906c.3951738.827024 1.2029291 1.3791364 2.117 1.447.5495531.0104026.9876943.4623893.981 1.012-.0027516.5464651-.4465279.9880069-.993.988z"/><path id="Shape" d="m27 35c-1.1257333-.050131-2.1936265-.5128847-3-1.3-.8063735.7871153-1.8742667 1.249869-3 1.3-.5522847 0-1-.4477153-1-1s.4477153-1 1-1c.909584-.0722089 1.7117668-.6236381 2.105-1.447.187968-.3152706.5279475-.5083906.895-.5083906s.707032.19312.895.5083906c.3951738.827024 1.2029291 1.3791364 2.117 1.447.5495531.0104026.9876943.4623893.981 1.012-.0027516.5464651-.4465279.9880069-.993.988z"/><path id="Shape" d="m45 30c-1.1257333-.050131-2.1936265-.5128847-3-1.3-.8063735.7871153-1.8742667 1.249869-3 1.3-.5522847 0-1-.4477153-1-1s.4477153-1 1-1c.9077427-.0739265 1.7076473-.6250989 2.1-1.447.187968-.3152706.5279475-.5083906.895-.5083906s.707032.19312.895.5083906c.396046.828499 1.2060906 1.3808715 2.122 1.447.5495531.0104026.9876943.4623893.981 1.012-.0027516.5464651-.4465279.9880069-.993.988z"/><path id="Shape" d="m31 43c-1.1257333-.050131-2.1936265-.5128847-3-1.3-.8063735.7871153-1.8742667 1.249869-3 1.3-.5522847 0-1-.4477153-1-1s.4477153-1 1-1c.909584-.0722089 1.7117668-.6236381 2.105-1.447.187968-.3152706.5279475-.5083906.895-.5083906s.707032.19312.895.5083906c.3951738.827024 1.2029291 1.3791364 2.117 1.447.5495531.0104026.9876943.4623893.981 1.012-.0027516.5464651-.4465279.9880069-.993.988z"/><path id="Shape" d="m36 50c-1.1257333-.050131-2.1936265-.5128847-3-1.3-.8063735.7871153-1.8742667 1.249869-3 1.3-.5522847 0-1-.4477153-1-1s.4477153-1 1-1c.9077427-.0739265 1.7076473-.6250989 2.1-1.447.187968-.3152706.5279475-.5083906.895-.5083906s.707032.19312.895.5083906c.396046.828499 1.2060906 1.3808715 2.122 1.447.5495531.0104026.9876943.4623893.981 1.012-.0027516.5464651-.4465279.9880069-.993.988z"/></g><path id="Shape" d="m3 60h54c.900793-.0001164 1.7538585-.4049955 2.3235249-1.1027835.5696664-.6977881.7956337-1.6146232.6154751-2.4972165l-9.183-45c-.2890936-1.3950306-1.516334-2.39651884-2.941-2.4h-10.815v-8c0-.55228475-.4477153-1-1-1s-1 .44771525-1 1v3h-10v-3c0-.55228475-.4477153-1-1-1s-1 .44771525-1 1v8h-10.815c-1.4242903.00395353-2.65098366 1.0053359-2.94 2.4l-9.183 45c-.18012368.8824217.04571937 1.7990819.61515877 2.4968293s1.42222339 1.1027541 2.32284123 1.1031707zm22-54h10v3h-10zm10 8h-10v-3h10zm-23.8-2.2c.0951286-.4660347.5053558-.8005727.981-.8h10.819v8c0 .5522847.4477153 1 1 1s1-.4477153 1-1v-3h10v3c0 .5522847.4477153 1 1 1s1-.4477153 1-1v-8h10.815c.4756442-.0005727.8858714.3339653.981.8l9.183 45c.0600296.2940834-.01521.5995785-.2049475.8321474-.1897374.232569-.4739049.3676137-.7740525.3678526h-54c-.3003227.0000613-.58477174-.1348558-.77473623-.3674654-.1899645-.2326096-.26532832-.5382796-.20526377-.8325346z" fill="#000"/><path id="Shape" d="m6.675 56h46.65c.6004703-.0001777 1.1690868-.2701396 1.5487887-.7353181s.5303054-1.0763436.4102113-1.6646819l-7.959-39c-.1900323-.9309644-1.0088384-1.5997188-1.959-1.6h-5.366c-.5522847 0-1 .4477153-1 1s.4477153 1 1 1h5.366l7.959 39h-46.65l7.959-39h5.366c.5522847 0 1-.4477153 1-1s-.4477153-1-1-1h-5.366c-.9494718.002212-1.7672135.670097-1.959 1.6l-7.959 39c-.12009409.5883383.03050935 1.1995034.41021129 1.6646819s.94831844.7351404 1.54878871.7353181z" fill="#000"/></g></g></svg>