<svg id="Filled_Expand" height="512" viewBox="0 0 64 64" width="512" xmlns="http://www.w3.org/2000/svg" data-name="Filled Expand"><path d="m44 4h-24a4 4 0 0 0 -4 4v48h4l12-2 12 2h4v-48a4 4 0 0 0 -4-4z" fill="#ffe657"/><path d="m20 8h24v48h-24z" fill="#00508c"/><path d="m22 10h22v46h-22z" fill="#246fbe"/><path d="m54.5 36h5v24h-5z" fill="#3cf0f3"/><path d="m54.5 36v3.53a6.884 6.884 0 0 0 5 0v-3.53z" fill="#1dc8dc"/><circle cx="57" cy="33" fill="#fac837" r="5"/><path d="m4.5 36h5v24h-5z" fill="#3cf0f3" transform="matrix(-1 0 0 -1 14 96)"/><path d="m4.5 36v3.53a6.884 6.884 0 0 0 5 0v-3.53z" fill="#1dc8dc"/><circle cx="7" cy="33" fill="#fac837" r="5"/><rect fill="#ffe657" height="10" rx="2" width="4" x="36" y="25"/><circle cx="5.5" cy="31.5" fill="#fffdaa" r="1.5"/><circle cx="55.5" cy="31.5" fill="#fffdaa" r="1.5"/><path d="m57 27a5.991 5.991 0 0 0 -4.728 9.682q-1.623.881-3.272 1.618v-30.3a5.006 5.006 0 0 0 -5-5h-24a5.006 5.006 0 0 0 -5 5v30.3q-1.65-.735-3.272-1.619a6 6 0 1 0 -8.228 1.183v22.136a1 1 0 0 0 1 1h5a1 1 0 0 0 1-1v-21.709a49.113 49.113 0 0 0 4.5 2.209v15.5a1 1 0 0 0 1 1h32a1 1 0 0 0 1-1v-15.5a49.113 49.113 0 0 0 4.5-2.211v21.711a1 1 0 0 0 1 1h5a1 1 0 0 0 1-1v-22.136a5.994 5.994 0 0 0 -3.5-10.864zm-48.5 32h-3v-20.2a5.809 5.809 0 0 0 3 0zm-1.5-22a4 4 0 1 1 4-4 4 4 0 0 1 -4 4zm12 18h-2v-13.726c.664.245 1.331.469 2 .681zm24 0h-22v-12.452a42.393 42.393 0 0 0 22 0zm0-14.514a40.717 40.717 0 0 1 -22 0v-31.486h22zm4 14.514h-2v-13.045c.669-.212 1.336-.436 2-.681zm0-15.869c-.664.258-1.33.505-2 .728v-31.859a1 1 0 0 0 -1-1h-24a1 1 0 0 0 -1 1v31.859c-.67-.223-1.336-.47-2-.728v-31.131a3 3 0 0 1 3-3h24a3 3 0 0 1 3 3zm11.5 19.869h-3v-20.2a5.809 5.809 0 0 0 3 0zm-1.5-22a4 4 0 1 1 4-4 4 4 0 0 1 -4 4z"/><path d="m38 36a3 3 0 0 0 3-3v-6a3 3 0 0 0 -6 0v6a3 3 0 0 0 3 3zm-1-9a1 1 0 0 1 2 0v6a1 1 0 0 1 -2 0z"/></svg>