<svg viewBox="0 0 512 512" xmlns="http://www.w3.org/2000/svg"><g id="_23._Swimming_Pool" data-name="23. Swimming Pool"><path d="m8 208h496v40h-496z" fill="#c1d1f7"/><path d="m408 216h-400a8 8 0 0 1 0-16h400a8 8 0 0 1 0 16z"/><path d="m504 256h-496a8 8 0 0 1 0-16h496a8 8 0 0 1 0 16z"/><path d="m504 216h-64a8 8 0 0 1 0-16h64a8 8 0 0 1 0 16z"/><path d="m8 248h496v264h-496z" fill="#eaf2ff"/><path d="m504 256h-496a8 8 0 0 1 0-16h496a8 8 0 0 1 0 16z"/><path d="m104 408a8 8 0 0 1 -8-8v-208a16 16 0 0 0 -32 0v16a8 8 0 0 1 -16 0v-16a32 32 0 0 1 64 0v208a8 8 0 0 1 -8 8z"/><path d="m216 408a8 8 0 0 1 -8-8v-208a16 16 0 0 0 -32 0v16a8 8 0 0 1 -16 0v-16a32 32 0 0 1 64 0v208a8 8 0 0 1 -8 8z"/><path d="m216 256h-112a8 8 0 0 1 0-16h112a8 8 0 0 1 0 16z"/><path d="m216 304h-112a8 8 0 0 1 0-16h112a8 8 0 0 1 0 16z"/><path d="m216 352h-112a8 8 0 0 1 0-16h112a8 8 0 0 1 0 16z"/><path d="m504 380.87v131.13h-496v-131.13a28.24 28.24 0 0 1 28 7.13 28.28 28.28 0 0 0 40 0 28.28 28.28 0 0 1 40 0 28.28 28.28 0 0 0 40 0 28.28 28.28 0 0 1 40 0 28.28 28.28 0 0 0 40 0 28.28 28.28 0 0 1 40 0 28.28 28.28 0 0 0 40 0 28.28 28.28 0 0 1 40 0 28.28 28.28 0 0 0 40 0 28.28 28.28 0 0 1 40 0 28.28 28.28 0 0 0 40 0 28.24 28.24 0 0 1 28-7.13z" fill="#a8edfd"/><path d="m8 488h496v24h-496z" fill="#8bd4de"/><path d="m430.34 393.66a20.24 20.24 0 0 0 -28.68 0 36.26 36.26 0 0 1 -51.32 0 20.24 20.24 0 0 0 -28.68 0 36.26 36.26 0 0 1 -51.32 0 20.24 20.24 0 0 0 -28.68 0 36.26 36.26 0 0 1 -51.32 0 20.24 20.24 0 0 0 -28.68 0 36.26 36.26 0 0 1 -51.32 0 20.24 20.24 0 0 0 -28.68 0 36.26 36.26 0 0 1 -51.32 0 20.22 20.22 0 0 0 -20-5.13 8 8 0 1 1 -4.6-15.32 36.18 36.18 0 0 1 36 9.13 20.24 20.24 0 0 0 28.68 0 36.26 36.26 0 0 1 51.32 0 20.24 20.24 0 0 0 28.68 0 36.26 36.26 0 0 1 51.32 0 20.24 20.24 0 0 0 28.68 0 36.26 36.26 0 0 1 51.32 0 20.24 20.24 0 0 0 28.68 0 36.26 36.26 0 0 1 51.32 0 20.24 20.24 0 0 0 28.68 0 36.26 36.26 0 0 1 51.32 0 20.24 20.24 0 0 0 28.68 0 36.18 36.18 0 0 1 36-9.13 8 8 0 1 1 -4.6 15.32 20.21 20.21 0 0 0 -20 5.13 36.26 36.26 0 0 1 -51.48 0z"/><path d="m504 104c-196.29 0-192-.1-192 0a96 96 0 0 1 192 0z" fill="#e9a648"/><path d="m315 80a96.35 96.35 0 0 0 -3 24h192a96.35 96.35 0 0 0 -3-24z" fill="#d08840"/><path d="m504 112h-192a8 8 0 0 1 -8-8 104 104 0 0 1 208 0 8 8 0 0 1 -8 8zm-183.64-16h175.28a88 88 0 0 0 -175.28 0z"/><path d="m408 216a8 8 0 0 1 -8-8v-104a8 8 0 0 1 16 0v104a8 8 0 0 1 -8 8z"/><path d="m440 85.25v18.75h-64v-18.75a109.25 109.25 0 0 1 32-77.25 109.25 109.25 0 0 1 32 77.25z" fill="#e38343"/><path d="m376.13 80c-.17 3.56-.13 3.57-.13 24h64c0-19 .05-20.28-.13-24z" fill="#df6117"/><path d="m440 112h-64a8 8 0 0 1 -8-8v-18.75a116.53 116.53 0 0 1 34.34-82.91 8 8 0 0 1 11.32 0 116.53 116.53 0 0 1 34.34 82.91v18.75a8 8 0 0 1 -8 8zm-56-16h48v-10.75a100.52 100.52 0 0 0 -24-65.46 100.52 100.52 0 0 0 -24 65.46z"/></g></svg>