<svg id="Layer_3" enable-background="new 0 0 64 64" height="512" viewBox="0 0 64 64" width="512" xmlns="http://www.w3.org/2000/svg"><g><g><path d="m32 56h6v6h-6z" fill="#4d5d7a"/></g><g><path d="m6 62v-6h6v6" fill="#4d5d7a"/></g><g><path d="m36 48 4 2v4c0 2.209-1.791 4-4 4h-28c-2.209 0-4-1.791-4-4v-4l4-2z" fill="#c66b60"/></g><g><path d="m6 49 6 2v3h-8v-4" fill="#f9d18b"/></g><g><path d="m38 49-6 2v3h8v-4" fill="#f9d18b"/></g><g><path d="m36 48-3.894-7.789c-.678-1.355-2.063-2.211-3.578-2.211h-13.056c-1.515 0-2.9.856-3.578 2.211l-3.894 7.789" fill="#c7e2fc"/></g><g><path d="m14 46c6.351 0 11.706-3.376 13.42-8h-11.948c-1.515 0-2.9.856-3.578 2.211l-2.569 5.137c1.464.415 3.033.652 4.675.652z" fill="#ebf7fe"/></g><g><path d="m40 50h2v-4h-4l-2 2" fill="#8892a0"/></g><g><path d="m4 50h-2v-4h4l2 2" fill="#8892a0"/></g><g><path d="m45 26h8v6h-8z" fill="#976947"/></g><g><path d="m45 58h8v4h-8z" fill="#976947"/></g><g><path d="m47 32h4v26h-4z" fill="#c18e59"/></g><g><circle cx="49" cy="15" fill="#2b74ca" r="13"/></g><g><path d="m36 15c0 2.753.861 5.302 2.321 7.404 1.324.384 2.725.596 4.179.596 8.008 0 14.5-6.268 14.5-14 0-1.727-.339-3.374-.932-4.901-2.035-1.323-4.459-2.099-7.068-2.099-7.18 0-13 5.82-13 13z" fill="#3d98f7"/></g><g><path d="m1 61h62v2h-62z"/></g><g><path d="m49 29c-7.72 0-14-6.28-14-14s6.28-14 14-14 14 6.28 14 14-6.28 14-14 14zm0-26c-6.617 0-12 5.383-12 12s5.383 12 12 12 12-5.383 12-12-5.383-12-12-12z"/></g><g><path d="m47 23h-2v-14c0-.553.448-1 1-1h5c2.206 0 4 1.794 4 4s-1.794 4-4 4h-4zm0-9h4c1.103 0 2-.897 2-2s-.897-2-2-2h-4z"/></g><g><path d="m53 33h-8c-.552 0-1-.447-1-1v-4h2v3h6v-3h2v4c0 .553-.448 1-1 1z"/></g><g><path d="m46 32h2v26h-2z"/></g><g><path d="m50 32h2v26h-2z"/></g><g><path d="m54 62h-2v-3h-6v3h-2v-4c0-.553.448-1 1-1h8c.552 0 1 .447 1 1z"/></g><g><path d="m36 59h-28c-2.757 0-5-2.243-5-5v-4c0-.379.214-.725.553-.895l4-2c.138-.069.292-.105.447-.105h28c.155 0 .309.036.447.105l4 2c.339.17.553.516.553.895v4c0 2.757-2.243 5-5 5zm-31-8.382v3.382c0 1.654 1.346 3 3 3h28c1.654 0 3-1.346 3-3v-3.382l-3.236-1.618h-27.528z"/></g><g><path d="m11 58h2v4h-2z"/></g><g><path d="m5 57h2v5h-2z"/></g><g><path d="m37 57h2v5h-2z"/></g><g><path d="m31 58h2v4h-2z"/></g><g><path d="m12 55h-8v-2h7v-1.279l-5.316-1.772.633-1.896 6 2c.408.135.683.516.683.947v3c0 .553-.448 1-1 1z"/></g><g><path d="m40 55h-8c-.552 0-1-.447-1-1v-3c0-.431.275-.812.684-.948l6-2 .633 1.896-5.317 1.773v1.279h7z"/></g><g><path d="m15 53h14v2h-14z"/></g><g><path d="m35.105 48.447-3.895-7.789c-.51-1.022-1.539-1.658-2.682-1.658h-13.056c-1.144 0-2.172.636-2.683 1.658l-3.895 7.789-1.789-.895 3.895-7.788c.853-1.705 2.566-2.764 4.472-2.764h13.056c1.906 0 3.62 1.059 4.472 2.764l3.895 7.789z"/></g><g><path d="m42 51h-2v-2h1v-2h-2.586l-1.707 1.707-1.414-1.414 2-2c.187-.188.442-.293.707-.293h4c.552 0 1 .447 1 1v4c0 .553-.448 1-1 1z"/></g><g><path d="m4 51h-2c-.552 0-1-.447-1-1v-4c0-.553.448-1 1-1h4c.265 0 .52.105.707.293l2 2-1.414 1.414-1.707-1.707h-2.586v2h1z"/></g></g></svg>