<svg clip-rule="evenodd" fill-rule="evenodd" height="2.667in" image-rendering="optimizeQuality" shape-rendering="geometricPrecision" text-rendering="geometricPrecision" viewBox="0 0 2.66666 2.66666" width="2.667in" xmlns="http://www.w3.org/2000/svg"><path d="m2.24073.424024c.148323.148327.148339.391004 0 .539343l-.307547.307547c.0537559.0181299.104193.0484843.146823.0911181.148339.148339.148339.391.00001181.539327l-.532909.532909c-.148327.148327-.390992.148327-.539331-.00001181-.044248-.044248-.0752795-.096874-.0931339-.152909-.148571.10415-.35628.0899882-.488752-.0424843-.148311-.148311-.148323-.390988 0-.539315l.305744-.30574c-.0516535-.018315-.100083-.0480433-.141236-.0892008-.148311-.148311-.148311-.390972.00001575-.539299l.532909-.532909c.148327-.148327.390988-.148327.539299-.00001575.042874.042874.0733307.0936378.0914173.147724.148425-.102575.354846-.0879252.486689.0439173zm.397531.605228c.037878.037874.037878.0998228 0 .137697l-.136067.136067c-.037874.037878-.0998228.037878-.137697 0-.037878-.037874-.037878-.0998228 0-.137697l.136067-.136067c.037874-.037878.0998228-.037878.137697 0zm-2.33609.33063c.037874.037874.037874.0998228 0 .137701l-.136067.136067c-.037878.037874-.0998268.037874-.137701 0-.037878-.037878-.037878-.0998268 0-.137701l.136067-.136067c.037874-.037878.0998228-.037878.137701 0z" fill="#ebebf7"/><g id="Layer_x0020_1"><path d="m2.06126 2.02611v-.240413h-.043311v.240413zm-.639264-.944917c-.00874803 0-.0164724-.00570866-.0190394-.0140709l-.0261693-.0851614-.0851535-.0261614c-.0083622-.00257087-.0140709-.0102913-.0140709-.0190433 0-.00874803.00570866-.0164724.0140709-.0190394l.0851535-.0261654.0261693-.0851614c.00256693-.0083622.0102953-.0140709.0190394-.0140709.00875197 0 .0164764.00570866.0190433.0140709l.0261614.0851575.0851614.0261654c.00836614.00257087.0140709.0102953.0140709.0190433 0 .00874803-.0057126.0164764-.0140709.0190394l-.0851614.0261614-.0261614.0851614c-.00256693.00836614-.0102913.0140748-.0190433.0140748zm-.0566772-.144441.0332638.0102205c.00631496.00194094.0112559.00688189.0131969.0131929l.0102205.0332677.0102205-.0332677c.00193701-.00631102.00687795-.0112559.0131929-.0131969l.0332677-.0102205-.0332677-.0102165c-.00631102-.00194094-.011252-.00688189-.0131929-.0131969l-.0102205-.0332677-.0102205.0332677c-.00194094.00631102-.00687795.011252-.0131929.0131929l-.0332677.0102244zm-.236866-.0211063c-.00874803 0-.0164724-.00570472-.0190394-.0140709l-.0261654-.0851575-.0851614-.0261654c-.0083622-.00257087-.0140709-.0102953-.0140709-.0190433 0-.00874409.00570866-.0164724.0140709-.0190394l.0851614-.0261654.0261654-.0851614c.00256693-.0083622.0102953-.0140709.0190394-.0140709.00875197 0 .0164764.00570866.0190433.0140709l.0261614.0851614.0851614.0261654c.0083622.00256693.0140709.0102953.0140709.0190394 0 .00874803-.00570866.0164724-.0140709.0190433l-.0851614.0261654-.0261614.0851575c-.00256693.00836614-.0102913.0140709-.0190433.0140709zm-.0566811-.144437.0332677.0102205c.00631102.00193701.011252.00687795.0131929.0131929l.0102205.0332638.0102205-.0332638c.00193701-.00631496.00687795-.0112559.013189-.0131969l.0332677-.0102205-.0332677-.0102205c-.00631102-.00193701-.011252-.00687795-.013189-.0131969l-.0102205-.0332638-.0102205.0332638c-.00194094.00631496-.00688189.0112559-.0131929.0131929l-.0332677.0102283zm.770913.886016h-.105094l-.00025984-.00000394h-.209917c-.0500157 0-.0910236.0392953-.0937913.0886339h.0654803.0831535.0831535.0831575.0831496.0831535.0831535.0831575.0654764c-.00276772-.0493386-.0437756-.0886339-.0937874-.0886339h-.209929l-.00025591.00000394zm-.125016-.0398465v-.987232c0-.0399606.0325118-.0724685.0724724-.0724685.0399567 0 .0724646.0325079.0724646.0724685v.987232h.190264c.0737717 0 .133787.0600197.133787.133799v.294858c0 .0110039-.00892126.0199213-.0199213.0199213h-.0855551-.0831575-.0831535-.0831535-.0831496-.0831575-.0831535-.0831535-.0855551c-.011 0-.0199213-.00892126-.0199213-.0199213v-.28026-.0145984c0-.0737795.0600118-.133799.133787-.133799h.190256zm.105091 0v-.987232c0-.0179882-.0146299-.032626-.0326181-.032626-.0179921 0-.0326299.0146378-.0326299.032626l.00000394.987232h.0652441zm.155343.408732v-.240413h-.043311v.240413zm-.0831535 0v-.240413h-.043311v.240413zm-.0831535 0v-.240413h-.0433071v.240413zm-.0831535 0v-.240413h-.0433071v.240413zm-.0831535 0v-.240413h-.0433071v.240413zm-.0831535 0v-.240413h-.043311v.240413zm-.0831535 0v-.240413h-.0457126v.240413zm.66763-.240413h-.0457047v.240413h.0457047zm-.78837-.247354h-.0105157l-.0852913.399776-.00017323.00081102-.0329134.154283c-.00196457.00919291-.0100866.0157677-.0194882.0157677h-.461579c-.00940157 0-.0175236-.00657087-.0194843-.0157677l-.0329134-.154283-.00017323-.00081102-.0852913-.399776h-.0105157c-.0200709 0-.0363976-.0163268-.0363976-.0363898v-.0232205h-.0637835c-.011 0-.0199213-.00892126-.0199213-.0199213v-.198453c0-.057126.0306339-.11248.0862598-.155866.0501811-.0391417.114744-.0625118.172701-.0625118h.521201c.120413 0 .21837.0979646.21837.218378v.198453c0 .011-.00892126.0199213-.0199252.0199213h-.0637717v.0232205c-.00000394.020063-.0163307.0363898-.0363937.0363898zm-.794736-.0994528v-.0333346c0-.0200669.0163268-.0363937.0363976-.0363937h.758339c.0200669 0 .0363937.0163228.0363937.0363937v.0333346h.0438504v-.178531c0-.0984449-.0800866-.178531-.178528-.178531h-.521197c-.0986339 0-.219118.0823819-.219118.178531v.178531h.0438622zm.0398465.0596102h.023189.705063.023185v-.039689-.0498071h-.751437zm.161047.570634h.429343l.0245039-.114858h-.47835l.0245039.114858zm.462346-.154701.0802402-.376091h-.655827l.0802362.376091h.49535z" fill="#2a2a68"/><path d="m1.19394 2.06913.02451-.11485h-.478352l.024504.11485z" fill="#00a5f7"/><path d="m.731598 1.91443h.495352l.08024-.37609h-.655828z" fill="#f8f8f8"/><g fill="#00a5f7"><path d="m.626744 1.4985h.705066.02318v-.03969-.04981h-.751435v.0895z"/><path d="m1.11824.794622.0102205.0332638.0102205-.0332638c.00193701-.00631496.00687795-.0112559.013189-.0131969l.0332677-.0102205-.0332677-.0102205c-.00631102-.00193701-.011252-.00687795-.013189-.0131969l-.0102205-.0332638-.0102205.0332638c-.00194094.00631496-.00688189.0112559-.0131929.0131929l-.0332677.0102283.0332677.0102205c.00631102.00193701.011252.00687795.0131929.0131929z"/><path d="m1.39859.926528-.0332677.0102244.0332638.0102205c.00631496.00194094.0112559.00688189.0131969.0131929l.0102205.0332677.0102205-.0332677c.00193701-.00631102.00687795-.0112559.0131929-.0131969l.0332677-.0102205-.0332677-.0102165c-.00631102-.00194094-.011252-.00688189-.0131929-.0131969l-.0102205-.0332677-.0102205.0332677c-.00194094.00631102-.00687795.011252-.0131929.0131929z"/><path d="m1.75752.630146.00000394.987232h.0652441v-.987232c0-.0179882-.0146299-.032626-.0326181-.032626-.0179921 0-.0326299.0146378-.0326299.032626z"/><path d="m2.05287 1.65722h-.209929l-.00025591.00000394h-.105094l-.00025984-.00000394h-.209917c-.0500157 0-.0910236.0392953-.0937913.0886339h.0654803.0831535.0831535.0831575.0831496.0831535.0831535.0831575.0654764c-.00276772-.0493386-.0437756-.0886339-.0937874-.0886339z"/><path d="m1.89495 2.02611v-.24041h-.04331v.24041z"/><path d="m1.9348 1.7857v.24041h.04331v-.24041z"/><path d="m2.01795 1.7857v.24041h.04331v-.24041z"/><path d="m2.10111 1.7857v.24041h.0457v-.24041z"/><path d="m1.8118 2.02611v-.24041h-.04331v.24041z"/><path d="m1.72865 2.02611v-.24041h-.04331v.24041z"/><path d="m1.64549 2.02611v-.24041h-.0433v.24041z"/><path d="m1.56234 2.02611v-.24041h-.04331v.24041z"/><path d="m1.47919 2.02611v-.24041h-.04572v.24041z"/></g></g></svg>