<svg enable-background="new 0 0 512 512" height="512" viewBox="0 0 512 512" width="512" xmlns="http://www.w3.org/2000/svg"><g id="_x30_6_Bed"><g><g><path d="m100.178 457.401v16.498c0 8.228-6.67 14.897-14.897 14.897h-12.384c-8.228 0-14.897-6.67-14.897-14.897v-16.498z" fill="#878787"/><path d="m454.174 457.401v16.498c0 8.228-6.67 14.897-14.897 14.897h-12.384c-8.228 0-14.897-6.67-14.897-14.897v-16.498z" fill="#878787"/><path d="m473.004 57.086v240.734h-432.704v-240.734c0-6.344 5.142-11.486 11.486-11.486 6.344 0 11.486 5.142 11.486 11.486v17.772c0 7.36 5.032 13.812 12.199 15.486 124.124 28.98 244.89 29.159 362.295.537 7.176-1.749 12.266-8.118 12.266-15.504v-18.291c0-6.344 5.142-11.486 11.486-11.486 6.344 0 11.486 5.143 11.486 11.486z" fill="#f8664f"/><g><path d="m330.442 129.784c-.161-1.788 1.158-3.37 2.947-3.531 2.868-.258 5.71-.544 8.58-.852 1.783-.183 3.389 1.097 3.58 2.884.193 1.785-1.099 3.389-2.884 3.58-2.905.314-5.785.602-8.691.865-1.786.161-3.37-1.155-3.532-2.946z" fill="#fff"/></g><g><path d="m355.61 127.073c-.23-1.781 1.026-3.412 2.807-3.643 11.431-1.482 24.137-3.448 32.61-4.92 1.779-.311 3.453.879 3.76 2.647.307 1.769-.878 3.452-2.647 3.76-8.627 1.5-21.457 3.483-32.887 4.964-1.826.228-3.417-1.062-3.643-2.808z" fill="#fff"/></g><g fill="#eef0ee"><circle cx="50.091" cy="45.757" r="22.557"/><circle cx="463.213" cy="45.757" r="22.557"/><path d="m225.206 244.815v39.448h-138.962v-39.448c0-15.339 12.435-27.774 27.774-27.774h83.415c15.339 0 27.773 12.435 27.773 27.774z"/><path d="m425.93 244.815v39.448h-138.963v-39.448c0-15.339 12.435-27.774 27.774-27.774h83.415c15.339 0 27.774 12.435 27.774 27.774z"/></g><path d="m508.404 321.922v97.832c0 20.799-16.861 37.659-37.659 37.659h-429.316c-20.799 0-37.659-16.861-37.659-37.659v-97.832c0-20.799 16.861-37.659 37.659-37.659h429.315c20.799 0 37.66 16.86 37.66 37.659z" fill="#f8664f"/><path d="m508.404 346.4v-24.478c0-20.799-16.861-37.659-37.659-37.659h-429.315c-20.799 0-37.659 16.861-37.659 37.659v24.478z" fill="#eef0ee"/><path d="m508.404 321.928v97.831c0 15.139-8.948 28.223-21.85 34.18 2.601-5.098 4.058-10.873 4.058-16.986v-97.831c0-20.81-16.856-37.666-37.665-37.666h-429.304c-5.645 0-11.003 1.249-15.815 3.486 6.191-12.278 18.911-20.68 33.608-20.68h429.303c20.809.001 37.665 16.857 37.665 37.666z" opacity=".1"/></g><g><path d="m19.395 167.991c1.796 0 3.252-1.456 3.252-3.252v-9c0-1.796-1.456-3.252-3.252-3.252s-3.252 1.456-3.252 3.252v9c0 1.796 1.456 3.252 3.252 3.252z"/><path d="m19.395 141.875c1.796 0 3.252-1.456 3.252-3.252v-49.11c0-1.796-1.456-3.252-3.252-3.252s-3.252 1.456-3.252 3.252v49.11c0 1.796 1.456 3.252 3.252 3.252z"/><path d="m284.691 474.985h-8.973c-1.796 0-3.252 1.456-3.252 3.252s1.456 3.251 3.252 3.251h8.973c1.796 0 3.251-1.456 3.251-3.251s-1.455-3.252-3.251-3.252z"/><path d="m258.601 474.985h-49.11c-1.796 0-3.252 1.456-3.252 3.252s1.456 3.251 3.252 3.251h49.11c1.796 0 3.252-1.456 3.252-3.251s-1.456-3.252-3.252-3.252z"/><path d="m476.166 281.428v-213.436c7.625-4.49 12.769-12.762 12.769-22.233 0-14.23-11.578-25.809-25.809-25.809-14.23 0-25.809 11.578-25.809 25.809 0 7.993 3.654 15.147 9.377 19.885v9.728c0 5.868-4.028 10.943-9.798 12.344-116.33 28.381-237.717 28.202-360.776-.526-5.709-1.35-9.696-6.423-9.696-12.339v-9.197c5.73-4.737 9.389-11.897 9.389-19.895 0-14.23-11.578-25.809-25.809-25.809s-25.808 11.579-25.808 25.81c0 9.466 5.138 17.735 12.757 22.226v213.271c-20.501 2.198-36.521 19.593-36.521 40.668v97.832c0 22.559 18.352 40.911 40.911 40.911h13.318v13.232c0 10.007 8.141 18.149 18.149 18.149h12.384c10.007 0 18.149-8.141 18.149-18.149v-13.233h305.316v13.233c0 10.007 8.141 18.149 18.149 18.149h12.384c10.007 0 18.149-8.141 18.149-18.149v-13.233h13.318c22.559 0 40.911-18.352 40.911-40.911 0-29.786 0-68.924 0-97.832-.002-20.686-15.448-37.791-35.404-40.496zm-32.346-235.668c0-10.645 8.661-19.306 19.306-19.306s19.306 8.661 19.306 19.306-8.661 19.305-19.306 19.305-19.306-8.66-19.306-19.305zm-413.121 0c0-10.645 8.661-19.306 19.306-19.306s19.305 8.661 19.305 19.306-8.661 19.305-19.306 19.305-19.305-8.66-19.305-19.305zm19.305 25.807c3.513 0 6.862-.711 9.917-1.988v5.272c0 8.945 6.046 16.622 14.712 18.669 118.477 27.657 241.283 30.402 363.802.514 8.691-2.11 14.763-9.784 14.763-18.663v-5.797c3.058 1.28 6.411 1.992 9.929 1.992 2.262 0 4.445-.322 6.537-.871v210.317h-40.569v-36.196c0-17.107-13.918-31.025-31.025-31.025h-83.415c-17.107 0-31.025 13.918-31.025 31.025v36.196h-55.258v-36.196c0-17.107-13.918-31.025-31.025-31.025h-83.415c-17.107 0-31.025 13.918-31.025 31.025v36.196h-39.45v-210.319c2.094.551 4.281.874 6.547.874zm372.587 209.445h-132.46v-36.196c0-13.522 11-24.522 24.522-24.522h83.415c13.522 0 24.522 11.001 24.522 24.522v36.196zm-200.723 0h-132.459v-36.196c0-13.522 11.001-24.522 24.522-24.522h83.415c13.522 0 24.522 11.001 24.522 24.522zm-214.933 40.912c0-18.973 15.436-34.409 34.408-34.409h429.316c18.972 0 34.408 15.436 34.408 34.409v21.226h-498.132zm89.904 151.976c0 6.422-5.224 11.646-11.646 11.646h-12.384c-6.422 0-11.646-5.224-11.646-11.646v-13.233h35.675v13.233zm353.997 0c0 6.422-5.224 11.646-11.646 11.646h-12.384c-6.422 0-11.646-5.224-11.646-11.646v-13.233h35.675v13.233zm19.822-19.736c-.655 0-427.27 0-429.316 0-18.972 0-34.408-15.436-34.408-34.408v-70.103h498.131v70.103c0 18.972-15.435 34.408-34.407 34.408z"/></g></g></g></svg>