<?xml version="1.0" encoding="UTF-8" standalone="no"?>
<!-- Created with Inkscape (http://www.inkscape.org/) -->

<svg
   version="1.1"
   id="svg6417"
   xml:space="preserve"
   width="682.66669"
   height="682.66669"
   viewBox="0 0 682.66669 682.66669"
   xmlns="http://www.w3.org/2000/svg"
   xmlns:svg="http://www.w3.org/2000/svg"><defs
     id="defs6421"><clipPath
       clipPathUnits="userSpaceOnUse"
       id="clipPath6431"><path
         d="M 0,512 H 512 V 0 H 0 Z"
         id="path6429" /></clipPath></defs><g
     id="g6423"
     transform="matrix(1.3333333,0,0,-1.3333333,0,682.66667)"><g
       id="g6425"><g
         id="g6427"
         clip-path="url(#clipPath6431)"><g
           id="g6433"
           transform="translate(123.4658,342.1172)"><path
             d="m 0,0 h -66.267 v 30.134 c 0,4.419 3.582,8 8,8 H -8 c 4.418,0 8,-3.581 8,-8 z"
             style="fill:#ffce69;fill-opacity:1;fill-rule:nonzero;stroke:none"
             id="path6435" /></g><g
           id="g6437"
           transform="translate(115.4658,380.251)"><path
             d="m 0,0 h -23 c 4.418,0 8,-3.581 8,-8 V -36.134 H 8 V -8 C 8,-3.581 4.418,0 0,0"
             style="fill:#ffbd61;fill-opacity:1;fill-rule:nonzero;stroke:none"
             id="path6439" /></g><g
           id="g6441"
           transform="translate(454.8013,344.1172)"><path
             d="m 0,0 h -66.267 v 28.134 c 0,4.419 3.581,8 8,8 H -8 c 4.418,0 8,-3.581 8,-8 z"
             style="fill:#868eaf;fill-opacity:1;fill-rule:nonzero;stroke:none"
             id="path6443" /></g><g
           id="g6445"
           transform="translate(355.4004,344.1172)"><path
             d="m 0,0 h -66.267 v 28.134 c 0,4.419 3.582,8 8,8 H -8 c 4.418,0 8,-3.581 8,-8 z"
             style="fill:#868eaf;fill-opacity:1;fill-rule:nonzero;stroke:none"
             id="path6447" /></g><g
           id="g6449"
           transform="translate(446.8013,380.251)"><path
             d="m 0,0 h -23 c 4.418,0 8,-3.581 8,-8 V -36.134 H 8 V -8 C 8,-3.581 4.418,0 0,0"
             style="fill:#7d83ad;fill-opacity:1;fill-rule:nonzero;stroke:none"
             id="path6451" /></g><g
           id="g6453"
           transform="translate(347.4004,380.251)"><path
             d="m 0,0 h -23 c 4.418,0 8,-3.581 8,-8 V -36.134 H 8 V -8 C 8,-3.581 4.418,0 0,0"
             style="fill:#7d83ad;fill-opacity:1;fill-rule:nonzero;stroke:none"
             id="path6455" /></g><g
           id="g6457"
           transform="translate(272.5664,15.7822)"><path
             d="m 0,0 h 198.801 c 18.299,0 33.133,14.834 33.133,33.133 v 265.069 c 0,18.299 -14.834,33.133 -33.133,33.133 H 0 Z"
             style="fill:#a0c8ff;fill-opacity:1;fill-rule:nonzero;stroke:none"
             id="path6459" /></g><g
           id="g6461"
           transform="translate(289.1333,347.1172)"><path
             d="m 0,0 h -248.5 c -18.299,0 -33.133,-14.834 -33.133,-33.132 v -265.07 c 0,-18.299 14.834,-33.133 33.133,-33.133 H 0 Z"
             style="fill:#bdd3dd;fill-opacity:1;fill-rule:nonzero;stroke:none"
             id="path6463" /></g><g
           id="g6465"
           transform="translate(256,181.4492)"><path
             d="m 0,0 c 0,-59.472 -48.212,-107.684 -107.684,-107.684 -59.472,0 -107.684,48.212 -107.684,107.684 0,59.473 48.212,107.684 107.684,107.684 C -48.212,107.684 0,59.473 0,0"
             style="fill:#868eaf;fill-opacity:1;fill-rule:nonzero;stroke:none"
             id="path6467" /></g><g
           id="g6469"
           transform="translate(189.7329,181.4492)"><path
             d="m 0,0 c 0,-22.874 -18.543,-41.417 -41.417,-41.417 -22.874,0 -41.416,18.543 -41.416,41.417 0,22.874 18.542,41.417 41.416,41.417 C -18.543,41.417 0,22.874 0,0"
             style="fill:#7d83ad;fill-opacity:1;fill-rule:nonzero;stroke:none"
             id="path6471" /></g><g
           id="g6473"
           transform="translate(463.3677,264.2842)"><path
             d="m 0,0 h -133.101 c -4.418,0 -8,3.582 -8,8 v 33.7 c 0,4.418 3.582,8 8,8 H 0 c 4.418,0 8,-3.582 8,-8 V 8 C 8,3.582 4.418,0 0,0"
             style="fill:#f9f5f3;fill-opacity:1;fill-rule:nonzero;stroke:none"
             id="path6475" /></g><g
           id="g6477"
           transform="translate(371.9673,206.3008)"><path
             d="m 0,0 c 0,-13.725 -11.126,-24.851 -24.85,-24.851 -13.725,0 -24.85,11.126 -24.85,24.851 0,13.724 11.125,24.85 24.85,24.85 C -11.126,24.85 0,13.724 0,0"
             style="fill:#868eaf;fill-opacity:1;fill-rule:nonzero;stroke:none"
             id="path6479" /></g><g
           id="g6481"
           transform="translate(471.3677,206.3008)"><path
             d="m 0,0 c 0,-13.725 -11.125,-24.851 -24.85,-24.851 -13.724,0 -24.85,11.126 -24.85,24.851 0,13.724 11.126,24.85 24.85,24.85 C -11.125,24.85 0,13.724 0,0"
             style="fill:#868eaf;fill-opacity:1;fill-rule:nonzero;stroke:none"
             id="path6483" /></g><g
           id="g6485"
           transform="translate(438.2344,479.6514)"><path
             d="m 0,0 c 0,-9.149 -7.417,-16.567 -16.567,-16.567 -9.149,0 -16.567,7.418 -16.567,16.567 0,9.149 7.418,16.566 16.567,16.566 C -7.417,16.566 0,9.149 0,0"
             style="fill:#ffce69;fill-opacity:1;fill-rule:nonzero;stroke:none"
             id="path6487" /></g><g
           id="g6489"
           transform="translate(148.3159,289.1328)"><path
             d="m 0,0 c -3.885,0 -7.721,-0.21 -11.5,-0.611 54.064,-5.741 96.184,-51.486 96.184,-107.073 0,-55.587 -42.12,-101.331 -96.184,-107.072 3.779,-0.4 7.615,-0.611 11.5,-0.611 59.472,0 107.684,48.212 107.684,107.683 C 107.684,-48.211 59.472,0 0,0"
             style="fill:#7d83ad;fill-opacity:1;fill-rule:nonzero;stroke:none"
             id="path6491" /></g><g
           id="g6493"
           transform="translate(463.3677,313.9844)"><path
             d="m 0,0 h -23 c 4.418,0 8,-3.582 8,-8 v -33.7 c 0,-4.419 -3.582,-8 -8,-8 H 0 c 4.418,0 8,3.581 8,8 V -8 C 8,-3.582 4.418,0 0,0"
             style="fill:#f9eae0;fill-opacity:1;fill-rule:nonzero;stroke:none"
             id="path6495" /></g><g
           id="g6497"
           transform="translate(446.5176,231.1504)"><path
             d="m 0,0 c -4.151,0 -8.061,-1.023 -11.5,-2.822 7.933,-4.151 13.35,-12.454 13.35,-22.028 0,-9.574 -5.417,-17.878 -13.35,-22.028 3.439,-1.799 7.349,-2.822 11.5,-2.822 13.725,0 24.85,11.126 24.85,24.85 C 24.85,-11.126 13.725,0 0,0"
             style="fill:#7d83ad;fill-opacity:1;fill-rule:nonzero;stroke:none"
             id="path6499" /></g><g
           id="g6501"
           transform="translate(347.1172,231.1504)"><path
             d="m 0,0 c -4.151,0 -8.061,-1.023 -11.5,-2.822 7.933,-4.151 13.35,-12.454 13.35,-22.028 0,-9.574 -5.417,-17.878 -13.35,-22.028 3.439,-1.799 7.349,-2.822 11.5,-2.822 13.724,0 24.85,11.126 24.85,24.85 C 24.85,-11.126 13.724,0 0,0"
             style="fill:#7d83ad;fill-opacity:1;fill-rule:nonzero;stroke:none"
             id="path6503" /></g><g
           id="g6505"
           transform="translate(471.3672,347.1172)"><path
             d="m 0,0 h -23 c 18.299,0 33.133,-14.834 33.133,-33.132 v -265.07 c 0,-18.299 -14.834,-33.133 -33.133,-33.133 H 0 c 18.299,0 33.133,14.834 33.133,33.133 v 265.07 C 33.133,-14.834 18.299,0 0,0"
             style="fill:#91b2fa;fill-opacity:1;fill-rule:nonzero;stroke:none"
             id="path6507" /></g><g
           id="g6509"
           transform="translate(62.5977,116.2617)"><path
             d="m 0,0 c -13.782,18.096 -21.965,40.686 -21.965,65.188 0,59.472 48.211,107.683 107.683,107.683 59.472,0 107.684,-48.211 107.684,-107.683 0,-59.472 -48.212,-107.684 -107.684,-107.684 -24.151,0 -46.445,7.95 -64.407,21.377"
             style="fill:none;stroke:#000000;stroke-width:15;stroke-linecap:round;stroke-linejoin:round;stroke-miterlimit:10;stroke-dasharray:none;stroke-opacity:1"
             id="path6511" /></g><g
           id="g6513"
           transform="translate(189.7329,181.4492)"><path
             d="m 0,0 c 0,-22.874 -18.543,-41.417 -41.417,-41.417 -22.874,0 -41.416,18.543 -41.416,41.417 0,22.874 18.542,41.417 41.416,41.417 C -18.543,41.417 0,22.874 0,0 Z"
             style="fill:none;stroke:#000000;stroke-width:15;stroke-linecap:round;stroke-linejoin:round;stroke-miterlimit:10;stroke-dasharray:none;stroke-opacity:1"
             id="path6515" /></g><g
           id="g6517"
           transform="translate(504.5,261.1514)"><path
             d="M 0,0 V 52.833 C 0,71.132 -14.834,85.966 -33.133,85.966 H -463.867 C -482.166,85.966 -497,71.132 -497,52.833 v -265.069 c 0,-18.299 14.834,-33.133 33.133,-33.133 h 430.734 c 18.299,0 33.133,14.834 33.133,33.133 v 182.235"
             style="fill:none;stroke:#000000;stroke-width:15;stroke-linecap:round;stroke-linejoin:round;stroke-miterlimit:10;stroke-dasharray:none;stroke-opacity:1"
             id="path6519" /></g><g
           id="g6521"
           transform="translate(289.1333,347.1172)"><path
             d="M 0,0 V -331.335"
             style="fill:none;stroke:#000000;stroke-width:15;stroke-linecap:round;stroke-linejoin:round;stroke-miterlimit:10;stroke-dasharray:none;stroke-opacity:1"
             id="path6523" /></g><g
           id="g6525"
           transform="translate(463.3677,264.2842)"><path
             d="m 0,0 h -133.101 c -4.418,0 -8,3.582 -8,8 v 33.7 c 0,4.418 3.582,8 8,8 H 0 c 4.418,0 8,-3.582 8,-8 V 8 C 8,3.582 4.418,0 0,0 Z"
             style="fill:none;stroke:#000000;stroke-width:15;stroke-linecap:round;stroke-linejoin:round;stroke-miterlimit:10;stroke-dasharray:none;stroke-opacity:1"
             id="path6527" /></g><g
           id="g6529"
           transform="translate(371.9673,206.3008)"><path
             d="m 0,0 c 0,-13.725 -11.126,-24.851 -24.85,-24.851 -13.725,0 -24.85,11.126 -24.85,24.851 0,13.724 11.125,24.85 24.85,24.85 C -11.126,24.85 0,13.724 0,0 Z"
             style="fill:none;stroke:#000000;stroke-width:15;stroke-linecap:round;stroke-linejoin:round;stroke-miterlimit:10;stroke-dasharray:none;stroke-opacity:1"
             id="path6531" /></g><g
           id="g6533"
           transform="translate(471.3677,206.3008)"><path
             d="m 0,0 c 0,-13.725 -11.125,-24.851 -24.85,-24.851 -13.724,0 -24.85,11.126 -24.85,24.851 0,13.724 11.126,24.85 24.85,24.85 C -11.125,24.85 0,13.724 0,0 Z"
             style="fill:none;stroke:#000000;stroke-width:15;stroke-linecap:round;stroke-linejoin:round;stroke-miterlimit:10;stroke-dasharray:none;stroke-opacity:1"
             id="path6535" /></g><g
           id="g6537"
           transform="translate(322.2671,148.3164)"><path
             d="M 0,0 H 149.101"
             style="fill:none;stroke:#000000;stroke-width:15;stroke-linecap:round;stroke-linejoin:round;stroke-miterlimit:10;stroke-dasharray:none;stroke-opacity:1"
             id="path6539" /></g><g
           id="g6541"
           transform="translate(322.2671,115.1836)"><path
             d="M 0,0 H 149.101"
             style="fill:none;stroke:#000000;stroke-width:15;stroke-linecap:round;stroke-linejoin:round;stroke-miterlimit:10;stroke-dasharray:none;stroke-opacity:1"
             id="path6543" /></g><g
           id="g6545"
           transform="translate(322.2671,82.0498)"><path
             d="M 0,0 H 149.101"
             style="fill:none;stroke:#000000;stroke-width:15;stroke-linecap:round;stroke-linejoin:round;stroke-miterlimit:10;stroke-dasharray:none;stroke-opacity:1"
             id="path6547" /></g><g
           id="g6549"
           transform="translate(454.8013,347.1172)"><path
             d="m 0,0 h -66.267 v 25.134 c 0,4.419 3.581,8 8,8 H -8 c 4.418,0 8,-3.581 8,-8 z"
             style="fill:none;stroke:#000000;stroke-width:15;stroke-linecap:round;stroke-linejoin:round;stroke-miterlimit:10;stroke-dasharray:none;stroke-opacity:1"
             id="path6551" /></g><g
           id="g6553"
           transform="translate(355.4004,347.1172)"><path
             d="m 0,0 h -66.267 v 25.134 c 0,4.419 3.582,8 8,8 H -8 c 4.418,0 8,-3.581 8,-8 z"
             style="fill:none;stroke:#000000;stroke-width:15;stroke-linecap:round;stroke-linejoin:round;stroke-miterlimit:10;stroke-dasharray:none;stroke-opacity:1"
             id="path6555" /></g><g
           id="g6557"
           transform="translate(123.4658,347.1172)"><path
             d="m 0,0 h -66.267 v 25.134 c 0,4.419 3.582,8 8,8 H -8 c 4.418,0 8,-3.581 8,-8 z"
             style="fill:none;stroke:#000000;stroke-width:15;stroke-linecap:round;stroke-linejoin:round;stroke-miterlimit:10;stroke-dasharray:none;stroke-opacity:1"
             id="path6559" /></g><g
           id="g6561"
           transform="translate(406.0298,474.1777)"><path
             d="M 0,0 -283.169,-99.108"
             style="fill:none;stroke:#000000;stroke-width:15;stroke-linecap:round;stroke-linejoin:round;stroke-miterlimit:10;stroke-dasharray:none;stroke-opacity:1"
             id="path6563" /></g><g
           id="g6565"
           transform="translate(438.2344,479.6514)"><path
             d="m 0,0 c 0,-9.149 -7.417,-16.567 -16.567,-16.567 -9.149,0 -16.567,7.418 -16.567,16.567 0,9.149 7.418,16.566 16.567,16.566 C -7.417,16.566 0,9.149 0,0 Z"
             style="fill:none;stroke:#000000;stroke-width:15;stroke-linecap:round;stroke-linejoin:round;stroke-miterlimit:10;stroke-dasharray:none;stroke-opacity:1"
             id="path6567" /></g></g></g></g></svg>
