<svg height="512" viewBox="0 0 128 128" width="512" xmlns="http://www.w3.org/2000/svg"><g><rect fill="#fde7ae" height="86.189" rx="2.547" width="49.708" x="28.188" y="20.906"/><path d="m79.931 15.667h-53.778a4.166 4.166 0 0 0 -4.171 4.17v88.325a4.167 4.167 0 0 0 4.171 4.171h53.778a4.167 4.167 0 0 0 4.171-4.171v-88.325a4.166 4.166 0 0 0 -4.171-4.17zm-2.031 88.833a2.607 2.607 0 0 1 -2.609 2.6h-44.491a2.607 2.607 0 0 1 -2.609-2.6v-80.995a2.607 2.607 0 0 1 2.609-2.6h44.49a2.607 2.607 0 0 1 2.609 2.6z" fill="#d5d6d8"/><path d="m92 15.667h.067a9 9 0 0 1 9 9v77.155a9 9 0 0 1 -9 9h-.067a0 0 0 0 1 0 0v-95.155a0 0 0 0 1 0 0z" fill="#d5d6d8"/><path d="m84.106 93.779h7.892v6.045h-7.892z" fill="#bebebe"/><path d="m84.106 30.225h7.892v6.045h-7.892z" fill="#bebebe"/><path d="m101.065 57.368h1.635a3.321 3.321 0 0 1 3.321 3.321v5.111a3.321 3.321 0 0 1 -3.321 3.321h-1.633a0 0 0 0 1 0 0v-11.753a0 0 0 0 1 -.002 0z" fill="#49a7dc"/><path d="m62.19 33.247v3.808a9.736 9.736 0 0 1 -9.108 9.722l-1.36-.01a9.741 9.741 0 0 1 -9.007-9.712v-3.808z" fill="#5dc99d"/><path d="m49.6 71.469a7.565 7.565 0 0 1 -6.643 7.366l-2.541-.013a7.562 7.562 0 0 1 -6.516-7.353 7.859 7.859 0 0 1 15.7 0z" fill="#e08736"/><g><path d="m70.2 68.325v10.59h-11.981v-10.59a4.544 4.544 0 0 1 3.044-3.987v-7.271h5.893v7.271a5.794 5.794 0 0 1 1.277.74 4.1 4.1 0 0 1 1.767 3.247z" fill="#9fe8fc"/><rect fill="#5fc1ed" height="4.563" rx=".52" width="7.818" x="60.301" y="52.504"/></g></g><g><path d="m75.287 19.155h-44.487a4.36 4.36 0 0 0 -4.36 4.35v80.995a4.36 4.36 0 0 0 4.36 4.35h44.49a4.36 4.36 0 0 0 4.359-4.35v-80.995a4.36 4.36 0 0 0 -4.362-4.35zm-8.918 36.162h-4.318v-1.063h4.318zm-6.4 13.007a2.876 2.876 0 0 1 1.992-2.382 1.748 1.748 0 0 0 1.053-1.6v-5.525h2.392v5.521a1.749 1.749 0 0 0 1.071 1.612 4.128 4.128 0 0 1 .9.526 2.438 2.438 0 0 1 1.071 1.848v8.841h-8.479zm9.531-4.634c-.189-.146-.388-.283-.592-.411v-4.879a2.266 2.266 0 0 0 .963-1.85v-3.526a2.272 2.272 0 0 0 -2.27-2.27h-6.78a2.272 2.272 0 0 0 -2.27 2.27v3.523a2.266 2.266 0 0 0 .963 1.85v4.886a6.008 6.008 0 0 0 -3.045 5.041v8.841h-7.16a8.957 8.957 0 0 0 2.041-5.7 9.608 9.608 0 0 0 -19.2 0 8.971 8.971 0 0 0 2.048 5.7h-4.261v-28.647h46.209v28.647h-4.2v-8.841a5.848 5.848 0 0 0 -2.446-4.634zm-33.85 7.779a6.113 6.113 0 0 1 12.2 0 5.777 5.777 0 0 1 -5.023 5.615l-2.261-.011a5.792 5.792 0 0 1 -4.916-5.604zm8.816-34.413v-2.056h15.973v2.059a8 8 0 0 1 -7.327 7.962h-1.312a8.015 8.015 0 0 1 -7.334-7.965zm-13.666-14.401h44.49a.855.855 0 0 1 .859.85v21.513h-15.429a11.466 11.466 0 0 0 3.219-7.962v-3.809a1.749 1.749 0 0 0 -1.75-1.75h-19.473a1.749 1.749 0 0 0 -1.75 1.75v3.809a11.466 11.466 0 0 0 3.234 7.962h-14.263v-21.513a.856.856 0 0 1 .863-.85zm44.49 82.69h-44.49a.856.856 0 0 1 -.86-.85v-23.83h46.206v23.835a.855.855 0 0 1 -.859.845z"/><path d="m102.814 55.629v-30.962a10.776 10.776 0 0 0 -10.814-10.75 1.749 1.749 0 0 0 -1.75 1.75v12.808h-4.4v-8.637a5.927 5.927 0 0 0 -5.92-5.921h-53.778a5.928 5.928 0 0 0 -5.921 5.921v88.324a5.928 5.928 0 0 0 5.921 5.921h53.78a5.927 5.927 0 0 0 5.92-5.921v-6.588h4.4v9.248a1.749 1.749 0 0 0 1.75 1.75h.066a10.762 10.762 0 0 0 10.75-10.75v-30.963a5.07 5.07 0 0 0 4.955-5.058v-5.112a5.072 5.072 0 0 0 -4.959-5.06zm-16.962-17.609h4.4v54.009h-4.4zm4.4-6.045v2.545h-4.4v-2.545zm-7.9 76.187a2.423 2.423 0 0 1 -2.42 2.421h-53.78a2.424 2.424 0 0 1 -2.421-2.421v-88.324a2.424 2.424 0 0 1 2.421-2.421h53.78a2.423 2.423 0 0 1 2.42 2.421zm3.5-10.088v-2.545h4.4v2.545zm13.462 3.748a7.264 7.264 0 0 1 -5.566 7.053v-91.261a7.264 7.264 0 0 1 5.566 7.053zm4.955-36.022a1.568 1.568 0 0 1 -1.455 1.558v-8.23a1.569 1.569 0 0 1 1.455 1.56z"/></g></svg>