<svg id="River" enable-background="new 0 0 64 64" height="512" viewBox="0 0 64 64" width="512" xmlns="http://www.w3.org/2000/svg"><g><g><path d="m53.16811 62.76809c-5.12311-.00001-26.04967-.00002-34.71502-.00002-1.31713 0-1.91836-1.66109-.89594-2.49144 1.4275-1.15934 2.77885-2.16391 3.99292-3.0536 4.22849-3.09192 6.07476-4.45491 6.36924-7.88172.28057-3.10296-1.12052-4.15148-4.01132-6.34198-3.47252-2.6456-7.75395-5.91504-6.09656-11.08937.42468-1.34194 1.62091-2.64364 3.03695-3.82719 3.71004-3.05225 9.50739-4.52547 17.89926-4.52547h7.8363c-.52641 2.1394-3.20929 3.14536-5.37476 4.34232-2.21578 1.23467-6.32081 3.84857 1.37379 8.20566 4.08874 2.30548 10.34943 5.69551 12.8033 13.23603 1.53954 4.81492.9616 8.84603-.57791 12.37428-.28368.65015-.93091 1.0525-1.64025 1.0525z" fill="#8cd9f4"/><g fill="#0e0e0f"><path d="m29.06142 56.91359c-.29567 0-.59254-.10577-.82811-.31971-.5024-.45672-.53965-1.23555-.08293-1.73795 1.64059-1.80526 2.4687-3.74031 2.68625-6.27392.05649-.67787.66465-1.18027 1.3305-1.12017.67787.05769 1.18027.65384 1.12138 1.33171-.26202 3.06485-1.31608 5.51672-3.31605 7.7162-.24279.26923-.57692.40384-.91104.40384z"/><path d="m49.92521 51.02428c-.51922 0-.99998-.32932-1.17065-.84854-1.65862-5.09365-5.93018-7.49986-9.69934-9.62241l-.27644-.15384c-.85094-.48317-2.60212-1.47593-4.18863-2.9735-.49398-.46634-.51682-1.24517-.05048-1.73795.46754-.49518 1.24397-.51922 1.74035-.05048 1.36897 1.29084 2.88817 2.15141 3.70306 2.61534l.27644.15384c3.95666 2.22832 8.87964 4.9999 10.83634 11.0046.20913.64662-.14423 1.34132-.78845 1.55286-.1274.04085-.2572.06008-.3822.06008z"/><path d="m53.16793 64h-34.71449c-1.13219 0-2.10813-.6923-2.48793-1.76199-.3774-1.06248-.05769-2.2091.81609-2.91821 1.44468-1.17065 2.81245-2.18987 4.04079-3.08889 4.3653-3.19225 5.63331-4.2355 5.87128-6.99506.20913-2.31967-.55167-2.99994-3.49393-5.22827-3.6021-2.74514-8.48422-6.46622-6.55997-12.47332.4435-1.40382 1.56247-2.8437 3.41941-4.39655 3.0985-2.54923 7.45659-4.0468 13.33148-4.58405.67186-.0661 1.27522.43749 1.33772 1.11416.06129.67667-.43629 1.27522-1.11416 1.33772-5.36649.49038-9.28588 1.80766-11.98295 4.02637-1.45791 1.22113-2.35092 2.31486-2.64659 3.24754-1.39541 4.35809 2.35813 7.21861 5.66936 9.74261 2.92182 2.2139 4.83164 3.66099 4.4915 7.43015-.34374 3.99031-2.52399 5.58643-6.86886 8.76426-1.1995.87979-2.53361 1.87016-3.94464 3.01677l.12139.30528h34.71449c.22836 0 .42788-.1226.51201-.3149 1.63699-3.74752 1.81006-7.51188.53365-11.507-2.24996-6.91573-7.86764-10.07914-11.96612-12.38679l-.26682-.15144c-3.43744-1.94708-5.10447-3.85089-5.09846-5.82441.00841-2.45669 2.61533-3.90858 3.72829-4.52876.3798-.21153.77162-.41345 1.16584-.61658.86777-.44831 1.74997-.90503 2.43024-1.42065h-1.92304c-.68027 0-1.23075-.55047-1.23075-1.23075 0-.68027.55047-1.23075 1.23075-1.23075h4.3004c.3774 0 .73556.17428.96873.47115.23317.29807.3173.68629.22596 1.05407-.5697 2.31967-2.85572 3.49994-4.87251 4.54318-.37259.1923-.74518.38461-1.10094.58172-.67066.37259-2.45909 1.37017-2.46149 2.38457-.0024.44951.37019 1.70429 3.84608 3.67301l.26442.14904c4.20184 2.36774 10.55269 5.9422 13.10312 13.77859 1.46872 4.59607 1.2644 8.92772-.62259 13.24734-.47593 1.08893-1.56005 1.79084-2.76676 1.79084z"/></g></g><g><path d="m35.3493 16.66925c0 5.36198 4.34674 9.70872 9.70872 9.70872s9.70872-4.34674 9.70872-9.70872-4.34674-15.43847-9.70872-15.43847-9.70872 10.07649-9.70872 15.43847z" fill="#80d34a"/><g fill="#0e0e0f"><path d="m45.05751 27.60886c-6.03114 0-10.9385-4.90736-10.9385-10.9397 0-5.70663 4.61891-16.66916 10.9385-16.66916s10.9397 10.96253 10.9397 16.66916c0 6.03234-4.90856 10.9397-10.9397 10.9397zm0-25.14737c-4.28838 0-8.47701 8.99022-8.47701 14.20767 0 4.67539 3.80161 8.4782 8.47701 8.4782s8.47821-3.80281 8.47821-8.4782c0-5.21745-4.18983-14.20767-8.47821-14.20767z"/><path d="m45.05751 33.99816c-.68027 0-1.23075-.55047-1.23075-1.23075v-18.96358c0-.68028.55047-1.23075 1.23075-1.23075s1.23075.55047 1.23075 1.23075v18.96359c0 .68027-.55047 1.23074-1.23075 1.23074z"/><path d="m45.05751 22.99116c-.31009 0-.62259-.11779-.86296-.35216-.48317-.47595-.49038-1.25599-.01442-1.74035l4.62491-4.71265c.47595-.48557 1.25238-.49158 1.74035-.01683.48317.47595.49038 1.25599.01442 1.74035l-4.62491 4.71265c-.24038.24639-.55768.36899-.87739.36899z"/></g></g><g><path d="m27.12517 34.92294c0 5.36198-4.34674 9.70872-9.70872 9.70872s-9.70872-4.34674-9.70872-9.70872 4.34674-15.43847 9.70872-15.43847 9.70872 10.07648 9.70872 15.43847z" fill="#80d34a"/><g fill="#0e0e0f"><path d="m17.4162 52.25022c-.68028 0-1.23075-.55047-1.23075-1.23075v-18.96118c0-.68027.55047-1.23075 1.23075-1.23075.68027 0 1.23075.55047 1.23075 1.23075v18.96118c0 .68028-.55047 1.23075-1.23075 1.23075z"/><path d="m17.4162 41.24322c-.3185 0-.63701-.1226-.87859-.36778l-4.62371-4.71145c-.47595-.48557-.46874-1.2644.01683-1.74035.48196-.47836 1.262-.47115 1.74035.01442l4.62371 4.71145c.47595.48557.46874 1.2644-.01683 1.74035-.23917.23557-.55047.35336-.86176.35336z"/><path d="m17.4162 45.86332c-.68028 0-1.23075-.55047-1.23075-1.23075s.55047-1.23075 1.23075-1.23075c4.67539 0 8.4782-3.80281 8.4782-8.47821 0-5.21865-4.18983-14.20887-8.4782-14.20887s-8.4782 8.99023-8.4782 14.20888c0 3.31965 1.95549 6.35084 4.98068 7.72582.61898.28124.89301 1.00959.61177 1.62978-.28004.61537-1.00839.8894-1.62858.61057-3.90377-1.7716-6.42536-5.68259-6.42536-9.96616 0-5.70662 4.62011-16.67036 10.9397-16.67036s10.93969 10.96373 10.93969 16.67035c0 6.03114-4.90736 10.9397-10.9397 10.9397z"/></g></g></g></svg>