<svg height="512pt" viewBox="-11 0 512 512" width="512pt" xmlns="http://www.w3.org/2000/svg"><path d="m139.617188 162.210938h-76.980469v166.890624l76.980469-57.84375zm0 0" fill="#fed8e4"/><path d="m62.636719 329.101562v175.398438h365.085937v-175.398438l-182.542968-115.65625zm0 0" fill="#fed8e4"/><path d="m62.636719 329.101562v75.601563c3.460937-1.136719 6.792969-2.695313 9.894531-4.703125l172.648438-111.605469 172.648437 111.605469c3.101563 2.007812 6.433594 3.566406 9.894531 4.703125v-75.601563l-182.542968-115.65625zm0 0" fill="#f797b1"/><path d="m476.960938 308.523438-210.355469-135.984376c-13.039063-8.429687-29.808594-8.429687-42.847657 0l-210.359374 135.984376c-5.992188 3.871093-7.707032 11.867187-3.835938 17.859374l28.824219 44.585938c3.875 5.992188 11.867187 7.707031 17.859375 3.835938l188.933594-122.132813 188.933593 122.132813c5.992188 3.871093 13.984375 2.15625 17.859375-3.835938l28.824219-44.585938c3.871094-5.992187 2.152344-13.988281-3.835937-17.859374zm0 0" fill="#ed697f"/><path d="m185.820312 27.140625c-24.953124-45.660156-101.09375-7.441406-23.507812 70.636719.914062.917968 2.230469 1.320312 3.496094 1.070312 107.984375-21.34375 66.234375-95.609375 20.011718-71.707031zm0 0" fill="#ed697f"/><path d="m61.972656 56.625c-34.339844-17.484375-64.917968 37.710938 15.15625 53.011719.941406.179687 1.914063-.121094 2.582032-.808594 57.101562-58.183594.53125-86.136719-17.738282-52.203125zm0 0" fill="#f797b1"/><path d="m62.636719 162.210938h76.980469v57.25h-76.980469zm0 0" fill="#f797b1"/><path d="m146.566406 134.957031h-90.878906c-6.222656 0-11.269531 5.046875-11.269531 11.269531v31.964844c0 6.222656 5.046875 11.269532 11.269531 11.269532h90.878906c6.226563 0 11.269532-5.046876 11.269532-11.269532v-31.964844c0-6.222656-5.042969-11.269531-11.269532-11.269531zm0 0" fill="#ed697f"/><path d="m153.9375 395.691406c-4.144531 0-7.5 3.359375-7.5 7.5v16.515625c0 4.140625 3.355469 7.5 7.5 7.5 4.140625 0 7.5-3.359375 7.5-7.5v-16.515625c0-4.140625-3.359375-7.5-7.5-7.5zm0 0"/><path d="m336.425781 395.691406c-4.144531 0-7.5 3.359375-7.5 7.5v16.515625c0 4.140625 3.355469 7.5 7.5 7.5 4.140625 0 7.5-3.359375 7.5-7.5v-16.515625c0-4.140625-3.359375-7.5-7.5-7.5zm0 0"/><path d="m272.636719 412.910156c-3.121094-2.726562-7.859375-2.40625-10.582031.710938-4.113282 4.703125-10.261719 7.402344-16.875 7.402344-6.613282 0-12.761719-2.699219-16.875-7.402344-2.726563-3.117188-7.464844-3.4375-10.582032-.710938-3.117187 2.726563-3.4375 7.464844-.710937 10.582032 6.960937 7.960937 17.226562 12.53125 28.167969 12.53125 10.941406 0 21.207031-4.566407 28.167968-12.53125 2.726563-3.117188 2.40625-7.855469-.710937-10.582032zm0 0"/><path d="m204.0625 14.957031c-5.148438 0-10.292969.921875-15.363281 2.75-8.226563-11.199219-20.191407-17.707031-33.0625-17.707031-14.28125 0-26.488281 8.015625-31.855469 20.917969-4.253906 10.226562-3.882812 22.675781 1.078125 36.003906 5.445313 14.640625 16.257813 30.164063 32.136719 46.140625 2.652344 2.667969 6.582031 3.871094 10.269531 3.140625 25.578125-5.054687 45.0625-13.335937 57.925781-24.617187 11.578125-10.160157 17.289063-22.59375 16.074219-35.007813-1.769531-18.027344-17.761719-31.621094-37.203125-31.621094zm-37.796875 76.144531c-24.363281-24.992187-35.054687-48.988281-28.632813-64.421874 2.996094-7.203126 9.894532-11.679688 18.003907-11.679688 9.394531 0 18.21875 5.882812 23.605469 15.734375 1.953124 3.578125 6.40625 4.9375 10.023437 3.066406 4.9375-2.550781 9.914063-3.847656 14.792969-3.847656 11.691406 0 21.265625 7.777344 22.273437 18.085937 2.167969 22.113282-30.570312 36.890626-60.066406 43.0625zm0 0"/><path d="m84.378906 34.4375c-9.792968 0-18.882812 4.730469-25.292968 12.925781-3.464844-1.078125-6.96875-1.625-10.480469-1.625-15.46875 0-28.167969 10.871094-29.53125 25.28125-.933594 9.851563 3.570312 19.632813 12.683593 27.542969 9.835938 8.542969 24.628907 14.746094 43.960938 18.441406 3.371094.644532 6.941406-.46875 9.347656-2.921875 31.144532-31.738281 28.8125-53.113281 24.652344-63.03125-4.300781-10.246093-14.011719-16.613281-25.339844-16.613281zm-8.285156 67.347656c-32.417969-6.730468-42.980469-19.921875-42.085938-29.351562.628907-6.667969 6.90625-11.695313 14.601563-11.695313 3.261719 0 6.617187.867188 9.964844 2.570313 3.628906 1.847656 8.074219.460937 10.003906-3.128906 3.621094-6.726563 9.527344-10.742188 15.800781-10.742188 5.257813 0 9.558594 2.773438 11.507813 7.417969 1.671875 3.984375 5.058593 18.800781-19.792969 44.929687zm0 0"/><path d="m481.03125 302.222656-210.355469-135.980468c-15.488281-10.011719-35.5-10.011719-50.988281 0l-72.566406 46.910156v-16.21875c10.09375-.296875 18.21875-8.578125 18.21875-18.742188v-31.964844c0-10.347656-8.421875-18.769531-18.769532-18.769531h-18.0625c-4.144531 0-7.5 3.359375-7.5 7.5 0 4.144531 3.355469 7.5 7.5 7.5h18.0625c2.078126 0 3.769532 1.691407 3.769532 3.769531v31.964844c0 2.078125-1.691406 3.769532-3.769532 3.769532h-90.882812c-2.078125 0-3.769531-1.691407-3.769531-3.769532v-31.964844c0-2.078124 1.691406-3.769531 3.769531-3.769531h42.9375c4.144531 0 7.5-3.355469 7.5-7.5 0-4.140625-3.355469-7.5-7.5-7.5h-42.9375c-10.351562 0-18.769531 8.421875-18.769531 18.769531v31.964844c0 10.164063 8.125 18.445313 18.21875 18.742188v75.675781l-45.808594 29.613281c-9.457031 6.113282-12.175781 18.773438-6.0625 28.230469l28.824219 44.585937c5.046875 7.808594 14.558594 11.007813 23.046875 8.445313v121.015625c0 4.140625 3.355469 7.5 7.5 7.5h365.085937c4.144532 0 7.5-3.359375 7.5-7.5v-121.003906c1.925782.582031 3.902344.871094 5.871094.871094 6.703125 0 13.273438-3.289063 17.175781-9.328126l28.824219-44.585937c6.113281-9.453125 3.390625-22.117187-6.0625-28.230469zm-410.894531-105.261718h61.980469v25.886718l-61.980469 40.066406zm404.359375 125.347656-28.824219 44.589844c-1.621094 2.507812-4.980469 3.226562-7.488281 1.609374l-58.945313-38.105468c-3.480469-2.25-8.121093-1.253906-10.371093 2.226562-2.191407 3.394532-1.15625 8.179688 2.226562 10.367188l49.128906 31.761718v122.242188h-350.085937v-122.242188l175.042969-113.15625 100.144531 64.738282c3.480469 2.25 8.125 1.253906 10.371093-2.226563 2.214844-3.425781 1.195313-8.160156-2.226562-10.367187l-104.21875-67.371094c-2.4375-1.578125-5.707031-1.558594-8.144531 0l-188.929688 122.132812c-2.507812 1.621094-5.867187.898438-7.488281-1.609374l-28.824219-44.585938c-1.621093-2.507812-.898437-5.871094 1.609375-7.492188l210.355469-135.980468c10.539063-6.8125 24.164063-6.8125 34.703125 0l210.359375 135.980468c2.507813 1.621094 3.226563 4.980469 1.605469 7.488282zm0 0"/></svg>