<?xml version="1.0" encoding="UTF-8"?>
<svg xmlns="http://www.w3.org/2000/svg" xmlns:xlink="http://www.w3.org/1999/xlink" version="1.1" id="Capa_1" x="0px" y="0px" viewBox="0 0 512 512" style="enable-background:new 0 0 512 512;" xml:space="preserve" width="512" height="512">
<g>
	<g>
		<g>
			<path style="fill:#8795DE;" d="M494.5,465.47H327.717l-116-23.804l-116,23.804H17.5c-5.523,0-10-4.477-10-10V179.53&#10;&#9;&#9;&#9;&#9;c0-5.523,4.477-10,10-10h477c5.523,0,10,4.477,10,10v275.94C504.5,460.993,500.023,465.47,494.5,465.47z"/>
			<path style="fill:#6C7FD8;" d="M494.5,169.53h-30c5.523,0,10,4.477,10,10v275.94c0,5.523-4.477,10-10,10h30&#10;&#9;&#9;&#9;&#9;c5.523,0,10-4.477,10-10V179.53C504.5,174.007,500.023,169.53,494.5,169.53z"/>
			<g>
				<path style="fill:#54469C;" d="M77.596,504.5H44.37c-2.691,0-4.021-3.268-2.095-5.147L77,465.47h44.667L84.58,501.657&#10;&#9;&#9;&#9;&#9;&#9;C82.712,503.48,80.206,504.5,77.596,504.5z"/>
				<path style="fill:#54469C;" d="M434.404,504.5h33.226c2.691,0,4.021-3.268,2.095-5.147L435,465.47h-44.667l37.087,36.187&#10;&#9;&#9;&#9;&#9;&#9;C429.288,503.48,431.794,504.5,434.404,504.5z"/>
			</g>
		</g>
		<g>
			<g>
				<polygon style="fill:#54469C;" points="297.732,465.47 125.703,465.47 175.703,268.432 247.732,268.432 &#9;&#9;&#9;&#9;"/>
				<path style="fill:#FE73C5;" d="M291.247,429h-159.06c-20.142,0-36.47,16.328-36.47,36.47v0h232v0&#10;&#9;&#9;&#9;&#9;&#9;C327.717,445.328,311.389,429,291.247,429z"/>
				<path style="fill:#FE4FB7;" d="M291.247,429h-30c20.142,0,36.47,16.328,36.47,36.47l0,0h30l0,0&#10;&#9;&#9;&#9;&#9;&#9;C327.717,445.328,311.389,429,291.247,429z"/>
			</g>
			<g>
				<g>
					<g>
						<polygon style="fill:#54469C;" points="340.666,101.581 284.181,186.997 266.05,168.866 247.918,150.735 333.334,94.25 &#9;&#9;&#9;&#9;&#9;&#9;&#10;&#9;&#9;&#9;&#9;&#9;&#9;&#9;"/>
						<circle style="fill:#FE73C5;" cx="340.895" cy="94.021" r="24.077"/>
					</g>
					<g>
						<path style="fill:#FAF7F7;" d="M405.054,278.584c4.193,4.193,4.05,11.079-0.378,15.024&#10;&#9;&#9;&#9;&#9;&#9;&#9;&#9;c-73.051,65.077-185.096,62.584-255.159-7.479S76.961,104.02,142.038,30.97c3.945-4.428,10.831-4.571,15.024-0.378&#10;&#9;&#9;&#9;&#9;&#9;&#9;&#9;L405.054,278.584z"/>
					</g>
					<path style="fill:#D8E8F0;" d="M405.054,278.584L157.062,30.592c-4.193-4.193-11.079-4.05-15.024,0.378&#10;&#9;&#9;&#9;&#9;&#9;&#9;c-2.95,3.312-5.757,6.705-8.429,10.169l237.445,237.445c4.193,4.193,4.05,11.079-0.378,15.024&#10;&#9;&#9;&#9;&#9;&#9;&#9;c-30.66,27.314-68.19,42.718-106.602,46.226c49.721,4.531,100.916-10.871,140.602-46.226&#10;&#9;&#9;&#9;&#9;&#9;&#9;C409.104,289.663,409.247,282.777,405.054,278.584z"/>
				</g>
			</g>
		</g>
	</g>
	<g>
		<g>
			<path style="fill:none;stroke:#000000;stroke-width:15;stroke-linecap:round;stroke-linejoin:round;stroke-miterlimit:10;" d="&#10;&#9;&#9;&#9;&#9;M504.5,390.078v65.392c0,5.523-4.477,10-10,10h-477c-5.523,0-10-4.477-10-10V179.53c0-5.523,4.477-10,10-10h77.531"/>
			<path style="fill:none;stroke:#000000;stroke-width:15;stroke-linecap:round;stroke-linejoin:round;stroke-miterlimit:10;" d="&#10;&#9;&#9;&#9;&#9;M297.732,169.53H494.5c5.523,0,10,4.477,10,10v179.531"/>
			<g>
				<path style="fill:none;stroke:#000000;stroke-width:15;stroke-linecap:round;stroke-linejoin:round;stroke-miterlimit:10;" d="&#10;&#9;&#9;&#9;&#9;&#9;M77.596,504.5H44.37c-2.691,0-4.021-3.268-2.095-5.147L77,465.47h44.667L84.58,501.657C82.712,503.48,80.206,504.5,77.596,504.5&#10;&#9;&#9;&#9;&#9;&#9;z"/>
				<path style="fill:none;stroke:#000000;stroke-width:15;stroke-linecap:round;stroke-linejoin:round;stroke-miterlimit:10;" d="&#10;&#9;&#9;&#9;&#9;&#9;M434.404,504.5h33.226c2.691,0,4.021-3.268,2.095-5.147L435,465.47h-44.667l37.087,36.187&#10;&#9;&#9;&#9;&#9;&#9;C429.288,503.48,431.794,504.5,434.404,504.5z"/>
			</g>
		</g>
		<g>
			<g>
				
					<line style="fill:none;stroke:#000000;stroke-width:15;stroke-linecap:round;stroke-linejoin:round;stroke-miterlimit:10;" x1="135.083" y1="428.504" x2="167.37" y2="301.268"/>
				
					<line style="fill:none;stroke:#000000;stroke-width:15;stroke-linecap:round;stroke-linejoin:round;stroke-miterlimit:10;" x1="265.862" y1="339.878" x2="288.478" y2="429"/>
				<path style="fill:none;stroke:#000000;stroke-width:15;stroke-linecap:round;stroke-linejoin:round;stroke-miterlimit:10;" d="&#10;&#9;&#9;&#9;&#9;&#9;M291.247,429h-159.06c-20.142,0-36.47,16.328-36.47,36.47v0h232v0C327.717,445.328,311.389,429,291.247,429z"/>
			</g>
			<g>
				<g>
					<g>
						
							<line style="fill:none;stroke:#000000;stroke-width:15;stroke-linecap:round;stroke-linejoin:round;stroke-miterlimit:10;" x1="331.116" y1="116.023" x2="296.341" y2="168.61"/>
						
							<line style="fill:none;stroke:#000000;stroke-width:15;stroke-linecap:round;stroke-linejoin:round;stroke-miterlimit:10;" x1="265.547" y1="139.077" x2="316.818" y2="105.172"/>
						
							<circle style="fill:none;stroke:#000000;stroke-width:15;stroke-linecap:round;stroke-linejoin:round;stroke-miterlimit:10;" cx="340.895" cy="94.021" r="24.077"/>
					</g>
					<g>
						
							<path style="fill:none;stroke:#000000;stroke-width:15;stroke-linecap:round;stroke-linejoin:round;stroke-miterlimit:10;" d="&#10;&#9;&#9;&#9;&#9;&#9;&#9;&#9;M105.056,94.251c-22.248,65.055-7.435,139.981,44.461,191.877c70.063,70.063,182.108,72.556,255.159,7.479&#10;&#9;&#9;&#9;&#9;&#9;&#9;&#9;c4.428-3.945,4.571-10.831,0.378-15.024L157.062,30.592c-4.193-4.193-11.079-4.05-15.024,0.378&#10;&#9;&#9;&#9;&#9;&#9;&#9;&#9;c-9.936,11.153-18.288,23.219-25.073,35.902"/>
					</g>
				</g>
				<g>
					<path style="fill:none;stroke:#000000;stroke-width:15;stroke-linecap:round;stroke-linejoin:round;stroke-miterlimit:10;" d="&#10;&#9;&#9;&#9;&#9;&#9;&#9;M362.245,38.73c18.134,0,32.807,14.674,32.807,32.807"/>
					<path style="fill:none;stroke:#000000;stroke-width:15;stroke-linecap:round;stroke-linejoin:round;stroke-miterlimit:10;" d="&#10;&#9;&#9;&#9;&#9;&#9;&#9;M362.245,7.5c35.396,0,64.037,28.642,64.037,64.037"/>
				</g>
			</g>
		</g>
	</g>
</g>















</svg>
