<svg height="512" viewBox="0 0 512 512" width="512" xmlns="http://www.w3.org/2000/svg"><g id="Filled_outline" data-name="Filled outline"><g fill="#92563a"><path d="m24 344h320v32h-320z"/><path d="m24 376h32v112h-32z"/><path d="m312 376h32v112h-32z"/></g><path d="m24 376h32v16h-32z" fill="#804a32"/><path d="m312 376h32v16h-32z" fill="#804a32"/><path d="m240 240v-64l-5.33 24-9.29 41.77a16.074 16.074 0 0 0 1.9 11.7l16.16 26.93a32.015 32.015 0 0 1 4.56 16.46v15.14a31.847 31.847 0 0 1 -4.23 15.91c.01.01.01.01-.01.02-.16.3-.34.59-.53.88a32.075 32.075 0 0 1 -10.78 10.64c-.61.38-1.24.72-1.88 1.05l-.12.06c-.23.12-.46.23-.69.34a30.352 30.352 0 0 1 -3.49 1.42c-.5.17-1 .32-1.51.47-.76.21-1.53.4-2.31.56-.27.06-.54.11-.81.16-1.04.18-2.1.32-3.18.4q-1.215.09-2.46.09h-56a32 32 0 0 1 -32-32v-17.84a32.022 32.022 0 0 1 2.29-11.88l11.04-27.61 2.67-6.67-3.15-6.31-.06-.12-4.79-9.57c-.42-.42-.82-.84-1.22-1.28s-.78-.87-1.16-1.32a43.168 43.168 0 0 1 -5.62-8.71v19.31l-24 104h-48a22.187 22.187 0 0 1 15.18-21.06l8.82-2.94 16-80v-64a32 32 0 0 1 32-32h36.33v-40h39.34l.33 40h36a32 32 0 0 1 32 32v64l16 80 8.82 2.94a22.187 22.187 0 0 1 15.18 21.06h-48z" fill="#fec9a3"/><path d="m169.344 124.229a26.419 26.419 0 0 0 29.312 0 38.674 38.674 0 0 0 5.144-4.191l-.133-16.038h-39.334v16.169a38.818 38.818 0 0 0 5.01 4.06z" fill="#feb784"/><path d="m248 296.86v15.14a31.847 31.847 0 0 1 -4.23 15.91c.01.01.01.01-.01.02-.16.3-.34.59-.53.88a33.2 33.2 0 0 1 -10.78 10.64c-.61.37-1.24.72-1.88 1.05l-.12.06c-.23.12-.46.23-.69.34a30.352 30.352 0 0 1 -3.49 1.42c-.5.17-1 .32-1.51.47-.76.22-1.53.41-2.31.56-.27.06-.54.11-.81.16-1.04.18-2.1.32-3.18.4q-1.215.09-2.46.09h-56a32 32 0 0 1 -32-32v-17.84a32.022 32.022 0 0 1 2.29-11.88l11.04-27.61a16.041 16.041 0 0 0 -.48-12.98l-.06-.12-4.79-9.57c-.42-.42-.82-.84-1.22-1.28s-.78-.87-1.16-1.32a41.521 41.521 0 0 1 -5.62-8.59 42.455 42.455 0 0 1 -4.28-20.81h110.95l-9.29 41.77a16.074 16.074 0 0 0 1.9 11.7l16.16 26.93a32.015 32.015 0 0 1 4.56 16.46z" fill="#e0e0de"/><path d="m184 344h-56v-56h48z" fill="#f5af7d"/><path d="m344 344h144v144h-144z" fill="#c7c7c5"/><path d="m344 473.171v14.829h144v-144h-6.495z" fill="#bfbfbd"/><path d="m344 344v-24l16-16h24v24l-16 16z" fill="#3b495e"/><path d="m464 312v-24l-16-16h-24l-8 16 24 24z" fill="#404f66"/><path d="m424 344v-24l-16-16h-24v16 8l16 16z" fill="#404f66"/><path d="m376 312h32l8-24-8-16h-32l-8 16z" fill="#4d5e78"/><path d="m456 344h-32l-8-24 8-16h32z" fill="#4d5e78"/><path d="m448 328v16h40v-16l-8-16h-16z" fill="#3b495e"/><path d="m264 487.333h-40l-8-39.333-59.921-130.469a22.02 22.02 0 0 1 20.445-30.2 28.036 28.036 0 0 1 26.57 19.09z" fill="#fec9a3"/><path d="m199.333 488-47.333-.667-49.671-167.433a25.358 25.358 0 0 1 24.311-32.57 22.02 22.02 0 0 1 21.411 16.881l30.616 143.119z" fill="#fec9a3"/><circle cx="144" cy="39.333" fill="#ffa912" r="23.333"/><path d="m216 63.33v19.16a38.975 38.975 0 0 1 -17.34 32.41 26.49 26.49 0 0 1 -22.32 3.3c-.14-.04-.29-.09-.43-.14a26.178 26.178 0 0 1 -6.57-3.16 38.97 38.97 0 0 1 -17.34-32.41v-19.16a32 32 0 1 1 64 0z" fill="#fec9a3"/><path d="m216 63.33v19.16a38.975 38.975 0 0 1 -17.34 32.41 26.49 26.49 0 0 1 -22.32 3.3c-.14-.04-.29-.09-.43-.14a32.019 32.019 0 0 0 25.76-31.39v-24a32.014 32.014 0 0 0 -23.39-30.83 32 32 0 0 1 37.72 31.49z" fill="#fec093"/><path d="m214.99 55.71-13.38 5.02-49.61 18.6v-16a31.95 31.95 0 0 1 62.99-7.62z" fill="#ffb531"/><path d="m214.99 55.71-13.38 5.02a32.012 32.012 0 0 0 -23.33-28.89 31.931 31.931 0 0 1 36.71 23.87z" fill="#ffa912"/><path d="m495.155 324.422-8-16a8 8 0 0 0 -7.155-4.422h-8v-16a8 8 0 0 0 -2.343-5.657l-16-16a8 8 0 0 0 -5.657-2.343h-24a8 8 0 0 0 -7.155 4.422l-.845 1.689-.845-1.689a8 8 0 0 0 -7.155-4.422h-32a8 8 0 0 0 -7.155 4.422l-8 16a8 8 0 0 0 -.435 6.108l1.823 5.47h-2.233a8 8 0 0 0 -5.657 2.343l-16 16a8 8 0 0 0 -2.343 5.657v16h-16.906a30.151 30.151 0 0 0 -19.742-21.316l-4.417-1.472-14.935-74.671v-63.208a40.045 40.045 0 0 0 -40-40h-28.066l-.177-21.223a46.842 46.842 0 0 0 12.243-31.621v-19.156a39.981 39.981 0 0 0 -58.824-35.281 24 24 0 1 0 -21.176 35.281v19.156a46.84 46.84 0 0 0 12.334 31.716v21.128h-28.334a40.045 40.045 0 0 0 -40 40v63.208l-14.935 74.671-4.417 1.472a30.151 30.151 0 0 0 -19.742 21.316h-24.906a8 8 0 0 0 -8 8v144a8 8 0 0 0 8 8h32a8 8 0 0 0 8-8v-104h49l31.33 105.608a8 8 0 0 0 7.558 5.724l47.333.667h.112a8 8 0 0 0 7.132-11.624l-20.194-39.737-16.9-78.992 38.974 84.854 7.815 38.428a8 8 0 0 0 7.84 6.405h40a8 8 0 0 0 7.582-10.553l-33.929-100.78h66.347v104a8 8 0 0 0 8 8h176a8 8 0 0 0 8-8v-160a7.994 7.994 0 0 0 -.845-3.578zm-15.155 5.467v6.111h-24v-4.687l11.313-11.313h7.743zm-88-5.2v-12.689h12.687l4.245 4.247-.087.175a8 8 0 0 0 -.435 6.108l4.49 13.47h-9.587zm32.638-4.073 4.306-8.616h19.056v4.686l-5.657 5.657a8 8 0 0 0 -2.343 5.657v8h-10.234zm4.306-40.616h15.743l11.313 11.313v4.687h-20.686l-9.58-9.58zm-52.306 8.613 4.306-8.613h22.112l4.306 8.614-2.462 7.386h-25.8zm-24.638 34.7 11.313-11.313h12.687v12.687l-11.313 11.313h-12.687zm-200.334-30.791c-.028.042-.052.085-.08.127a29.871 29.871 0 0 0 -12.792-10.761l12.634-31.588a8 8 0 0 0 -.273-6.549s-14.25-23.738-15.972-27.25c-.064-.13-.137-.254-.207-.38a34.4 34.4 0 0 1 -2.8-8.792h92.522l-7.119 32.035a23.91 23.91 0 0 0 2.848 17.554l16.157 26.927a24.008 24.008 0 0 1 3.416 12.355v15.137a24.038 24.038 0 0 1 -18.916 23.453l-10.408-30.92a36.009 36.009 0 0 0 -34.153-24.537 29.987 29.987 0 0 0 -24.857 13.189zm8.434-207.683 47.9-17.963v15.613a30.884 30.884 0 0 1 -13.781 25.75 18.423 18.423 0 0 1 -20.438 0 30.87 30.87 0 0 1 -13.681-23.4zm44.514-33.779-44.614 16.73v-4.457a23.993 23.993 0 0 1 44.614-12.273zm-60.614-3.727a8 8 0 1 1 8-8v.03a40.026 40.026 0 0 0 -4.215 7.011 7.985 7.985 0 0 1 -3.785.959zm-70.291 282.53 8.821-2.94a8 8 0 0 0 5.315-6.021l16-80a8.026 8.026 0 0 0 .155-1.569v-64a24.028 24.028 0 0 1 24-24h36.334a8 8 0 0 0 8-8v-18.052a34.216 34.216 0 0 0 23.514-.063l.152 18.182a8 8 0 0 0 8 7.934h36a24.028 24.028 0 0 1 24 24v64a8.026 8.026 0 0 0 .155 1.569l16 80a8 8 0 0 0 5.315 6.021l8.821 2.94a14.18 14.18 0 0 1 7.246 5.47h-31.173l-22.364-96.912v-63.089a8 8 0 0 0 -15.81-1.735l-3.941 17.735h-95.049l2.665-14.56-15.738-2.88-4.327 23.667.119.022a8.015 8.015 0 0 0 -.19 1.354 50.46 50.46 0 0 0 4.271 22.934v16.552l-10.534 45.647a33.434 33.434 0 0 0 -9.559 8.668 33.073 33.073 0 0 0 -5.248 29.442l3.9 13.154h-32.1a14.18 14.18 0 0 1 7.25-5.47zm180.391 6.137h-6.654a40.032 40.032 0 0 0 4.844-7.843zm-206.1 144h-16v-96h16zm-16-112v-16h71.506l4.747 16zm139.535 82.957 14.665 28.857-28.2-.4-48-161.786a17.358 17.358 0 0 1 16.641-22.295 13.978 13.978 0 0 1 13.612 10.661l30.592 143.013a8.031 8.031 0 0 0 .69 1.95zm59 28.376-6.7-32.928a8.054 8.054 0 0 0 -.57-1.744l-59.824-130.267a14.02 14.02 0 0 1 13.082-19.061 20.019 20.019 0 0 1 18.989 13.643l57.353 170.357zm-3.656-127.333h109.121v16h-103.734zm93.121 32h16v96h-16zm32 96v-128h128v16h-112v16h112v96z"/><path d="m368 400h16v16h-16z"/><path d="m368 432h16v32h-16z"/><path d="m364.839 188.423a26.017 26.017 0 0 0 0 23.155 9.934 9.934 0 0 1 0 8.845 26.017 26.017 0 0 0 0 23.155l4 8 14.31-7.156-4-8a9.947 9.947 0 0 1 0-8.845 26 26 0 0 0 0-23.155 9.947 9.947 0 0 1 0-8.845 26.006 26.006 0 0 0 0-23.156l-4-8-14.31 7.156 4 8a9.934 9.934 0 0 1 0 8.846z"/><path d="m404.845 188.423a26.014 26.014 0 0 0 0 23.154 9.942 9.942 0 0 1 0 8.846 26.017 26.017 0 0 0 0 23.155l4 8 14.31-7.156-4-8a9.942 9.942 0 0 1 0-8.846 26.014 26.014 0 0 0 0-23.154 9.942 9.942 0 0 1 0-8.846 26.017 26.017 0 0 0 0-23.155l-4-8-14.31 7.156 4 8a9.942 9.942 0 0 1 0 8.846z"/><path d="m444.845 188.423a26.014 26.014 0 0 0 0 23.154 9.942 9.942 0 0 1 0 8.846 26.017 26.017 0 0 0 0 23.155l4 8 14.31-7.156-4-8a9.942 9.942 0 0 1 0-8.846 26.014 26.014 0 0 0 0-23.154 9.942 9.942 0 0 1 0-8.846 26.017 26.017 0 0 0 0-23.155l-4-8-14.31 7.156 4 8a9.942 9.942 0 0 1 0 8.846z"/></g></svg>