<svg id="Artboard_30" height="512" viewBox="0 0 64 64" width="512" xmlns="http://www.w3.org/2000/svg" data-name="Artboard 30"><path d="m60 59v-35.28a2 2 0 0 0 -1.7-1.978l-31.3-4.742v42z" fill="#b5b1a5"/><path d="m60 23.72a2 2 0 0 0 -1.7-1.978l-28.3-4.287v26.132a11.413 11.413 0 0 0 11.413 11.413h18.587z" fill="#d9d5ca"/><path d="m25 13.173v-7.731a2 2 0 0 0 -1.368-1.9l-1.312-.435a21.568 21.568 0 0 0 -6.82-1.107 21.568 21.568 0 0 0 -6.82 1.107l-1.312.437a2 2 0 0 0 -1.368 1.898v7.732z" fill="#66c2ed"/><path d="m4 59v-42.362a4 4 0 0 1 2.424-3.677l.44-.188a21.916 21.916 0 0 1 8.636-1.773 21.916 21.916 0 0 1 8.636 1.773l.44.188a4 4 0 0 1 2.424 3.677v42.362z" fill="#66c2ed"/><path d="m27 16.638a4 4 0 0 0 -2.424-3.677l-.44-.188a21.712 21.712 0 0 0 -16.114-.429c-.007.1-.022.194-.022.294v31.732a10.63 10.63 0 0 0 10.63 10.63h8.37z" fill="#76d8ff"/><rect fill="#494949" height="3" rx="1.5" width="20" x="33" y="40"/><path d="m36 43h14v16h-14z" fill="#76d8ff"/><path d="m42 43h2v16h-2z" fill="#d6fdff"/><path d="m21 11.73c-.661-.171-1.326-.312-2-.421v9.022a19.511 19.511 0 0 0 -7 .02v-9.042c-.674.109-1.339.25-2 .421v9.094a19.246 19.246 0 0 0 -5.294 2.493l-.706.473v2.41l1.825-1.221a17.257 17.257 0 0 1 4.175-2.05v7.9a19.272 19.272 0 0 0 -5.293 2.494l-.707.467v2.41l1.825-1.22a17.221 17.221 0 0 1 4.175-2.05v7.894a19.246 19.246 0 0 0 -5.294 2.493l-.706.473v2.41l1.825-1.221a17.257 17.257 0 0 1 4.175-2.05v8.895a19.246 19.246 0 0 0 -5.294 2.493l-.706.473v2.41l1.825-1.221a17.257 17.257 0 0 1 4.175-2.05v5.071h2v-5.623a17.5 17.5 0 0 1 7 0v5.623h2v-5.106a17.328 17.328 0 0 1 4.841 2.494l1.159.894v-2.522a19.286 19.286 0 0 0 -6-2.948v-8.918a17.328 17.328 0 0 1 4.841 2.494l1.159.894v-2.522a19.286 19.286 0 0 0 -6-2.948v-7.918a17.328 17.328 0 0 1 4.841 2.494l1.159.894v-2.522a19.275 19.275 0 0 0 -6-2.948v-7.918a17.328 17.328 0 0 1 4.841 2.494l1.159.894v-2.522a19.286 19.286 0 0 0 -6-2.948zm-2 39.6a19.511 19.511 0 0 0 -7 .02v-8.973a17.479 17.479 0 0 1 7 0zm0-11a19.511 19.511 0 0 0 -7 .02v-7.972a17.479 17.479 0 0 1 7 0zm0-10a19.488 19.488 0 0 0 -7 .02v-7.973a17.479 17.479 0 0 1 7 0z" fill="#d6fdff"/><g fill="#b53c33"><path d="m36 23.97h-1a1 1 0 0 0 -.928.628l-1.072 2.68-1.071-2.678a1 1 0 0 0 -.929-.63h-1a1 1 0 0 0 -1 1v7a1 1 0 0 0 1 1 1 1 0 0 0 1-1v-4.308l1.071 2.679a1 1 0 0 0 1.858 0l1.071-2.679v4.308a1 1 0 0 0 1 1 1 1 0 0 0 1-1v-7a1 1 0 0 0 -1-1z"/><path d="m43 23.97h-2a1 1 0 0 0 -.97.757l-1.758 7.03a1 1 0 0 0 .728 1.213 1 1 0 0 0 1.213-.728l.568-2.272h2.438l.568 2.272a1 1 0 0 0 1.213.728 1 1 0 0 0 .728-1.213l-1.758-7.03a1 1 0 0 0 -.97-.757zm-1.719 4 .5-2h.438l.5 2z"/><path d="m48 23.97a1 1 0 0 0 -1 1v7a1 1 0 0 0 1 1h3a1 1 0 0 0 1-1 1 1 0 0 0 -1-1h-2v-6a1 1 0 0 0 -1-1z"/><path d="m55 30.97v-6a1 1 0 0 0 -1-1 1 1 0 0 0 -1 1v7a1 1 0 0 0 1 1h3a1 1 0 0 0 1-1 1 1 0 0 0 -1-1z"/></g><path d="m25 5.442a2 2 0 0 0 -1.368-1.9l-1.312-.435a21.562 21.562 0 0 0 -13.64 0l-.68.226v4.613a2.085 2.085 0 0 0 2.631 2.028c5.84-1.706 12.016-.084 14.369.677z" fill="#76d8ff"/><rect fill="#494949" height="3" rx="1.5" width="60" x="2" y="59"/><path d="m31 33v-5.308l1.071 2.679a1 1 0 0 0 1.858 0l1.071-2.679v5.308h2v-8a1 1 0 0 0 -1-1h-1a1 1 0 0 0 -.929.629l-1.071 2.679-1.071-2.679a1 1 0 0 0 -.929-.629h-1a1 1 0 0 0 -1 1v8z"/><path d="m40.781 30h2.438l.811 3.242 1.94-.484-2-8a1 1 0 0 0 -.97-.758h-2a1 1 0 0 0 -.97.758l-2 8 1.94.484zm1.438-4 .5 2h-1.438l.5-2z"/><path d="m48 33h4v-2h-3v-7h-2v8a1 1 0 0 0 1 1z"/><path d="m54 33h4v-2h-3v-7h-2v8a1 1 0 0 0 1 1z"/><path d="m61 58.051v-34.331a2.982 2.982 0 0 0 -2.55-2.966l-30.487-4.619a4.977 4.977 0 0 0 -1.963-3.482v-7.212a3 3 0 0 0 -2.051-2.841l-1.313-.439a22.681 22.681 0 0 0 -14.273 0l-1.312.439a3 3 0 0 0 -2.051 2.841v7.212a4.983 4.983 0 0 0 -2 3.985v41.413a2.5 2.5 0 0 0 .5 4.949h57a2.5 2.5 0 0 0 .5-4.949zm-2-34.331v34.28h-8v-14h.5a2.5 2.5 0 0 0 0-5h-17a2.5 2.5 0 0 0 0 5h.5v14h-7v-39.838l30.15 4.568a1 1 0 0 1 .85.99zm-24.5 18.28a.5.5 0 0 1 0-1h17a.5.5 0 0 1 0 1zm7.5 2v14h-5v-14zm2 0h5v14h-5zm-25-31.676v8.007a19.488 19.488 0 0 0 -7 .02v-8.027a21.086 21.086 0 0 1 7 0zm5.182 1.556a3 3 0 0 1 1.818 2.758v6.445a19.28 19.28 0 0 0 -5-2.271v-8.048a20.76 20.76 0 0 1 2.742.927zm1.818 19.203a19.28 19.28 0 0 0 -5-2.271v-7.918a17.252 17.252 0 0 1 4.841 2.5l.159.117zm-.159 2.306.159.117v7.577a19.28 19.28 0 0 0 -5-2.271v-7.918a17.252 17.252 0 0 1 4.841 2.495zm-6.841 4.942a19.511 19.511 0 0 0 -7 .02v-7.973a17.479 17.479 0 0 1 7-.005zm-9 .493a19.276 19.276 0 0 0 -5 2.312v-7.6l.825-.556a17.261 17.261 0 0 1 4.175-2.051zm-4.175 4.152a17.261 17.261 0 0 1 4.175-2.047v8.895a19.276 19.276 0 0 0 -5 2.312v-8.6zm6.175-2.598a17.479 17.479 0 0 1 7-.005v8.958a19.511 19.511 0 0 0 -7 .02zm9 .516a17.252 17.252 0 0 1 4.841 2.5l.159.117v8.577a19.28 19.28 0 0 0 -5-2.271zm-2-20.521v7.958a19.511 19.511 0 0 0 -7 .02v-7.974a17.479 17.479 0 0 1 7-.004zm-9 8.451a19.276 19.276 0 0 0 -5 2.312v-7.6l.825-.556a17.261 17.261 0 0 1 4.175-2.051zm-5 25.708.825-.556a17.261 17.261 0 0 1 4.175-2.047v4.071h-5zm7-3.154a17.479 17.479 0 0 1 7-.005v4.627h-7zm9 .516a17.252 17.252 0 0 1 4.841 2.5l.159.117v1.489h-5zm-13.316-49.402 1.316-.436a20.669 20.669 0 0 1 13-.001l1.312.437a1 1 0 0 1 .688.949v6.2a23.015 23.015 0 0 0 -17 0v-6.2a1 1 0 0 1 .684-.949zm-.866 9.388.439-.189a20.724 20.724 0 0 1 2.743-.927v8.06a19.276 19.276 0 0 0 -5 2.312v-6.5a3 3 0 0 1 1.818-2.756zm53.682 47.12h-57a.5.5 0 0 1 0-1h57a.5.5 0 0 1 0 1z"/></svg>