<svg id="Layer_1" enable-background="new 0 0 140 140" height="512" viewBox="0 0 140 140" width="512" xmlns="http://www.w3.org/2000/svg"><g><g><g><g><g><g><path d="m6 75.76h128v25.22h-128z" fill="#efbe95"/></g></g></g></g><g><g><g><g><path d="m134 101.97h-128c-.55 0-1-.45-1-1v-25.21c0-.55.45-1 1-1h128c.55 0 1 .45 1 1v25.22c0 .55-.45.99-1 .99zm-127-2h126v-23.21h-126z" fill="#231f20"/></g></g></g></g></g><g><g><g><g><path d="m134 115h-5.04c-4.95 0-8.96-4.01-8.96-8.96v-72.08c0-4.95 4.01-8.96 8.96-8.96h5.04z" fill="#efbe95"/></g></g></g></g><g><g><g><g><path d="m122.11 106.04v-72.08c0-4.27 2.09-7.84 4.89-8.73-4 .89-7 4.46-7 8.73v72.08c0 4.27 3 7.84 7 8.73-2.8-.89-4.89-4.46-4.89-8.73z" fill="#f4d4b8"/></g></g></g></g><g><g><g><g><path d="m131.89 25h2.11v89.99h-2.11z" fill="#d1a682"/></g></g></g></g><g><g><g><g><path d="m134 116h-5.04c-5.49 0-9.96-4.47-9.96-9.96v-72.08c0-5.49 4.47-9.96 9.96-9.96h5.04c.55 0 1 .45 1 1v90c0 .55-.45 1-1 1zm-5.04-90c-4.39 0-7.96 3.57-7.96 7.96v72.08c0 4.39 3.57 7.96 7.96 7.96h4.04v-88z" fill="#231f20"/></g></g></g></g><g><g><g><g><path d="m6.09 115h-.09v-59.92h.09c4.95 0 8.96 4.01 8.96 8.96v42.01c0 4.94-4.01 8.95-8.96 8.95z" fill="#efbe95"/></g></g></g></g><g><g><g><g><path d="m8.12 55.32c-.65-.15-1.33-.24-2.03-.24h-.09v59.92h.09c.7 0 1.37-.09 2.03-.24z" fill="#f4d4b8"/></g></g></g></g><g><g><g><g><path d="m10.52 56.26c1.44 1.54 2.41 4.44 2.41 7.78v42.01c0 3.33-.97 6.23-2.41 7.78 2.7-1.54 4.52-4.44 4.52-7.78v-42.02c.01-3.33-1.82-6.23-4.52-7.77z" fill="#d1a682"/></g></g></g></g><g><g><g><g><path d="m15.05 68.11h104.95v7.65h-104.95z" fill="#cfd6ee"/></g></g></g><g><g><g><path d="m120 76.76h-104.95c-.55 0-1-.45-1-1v-7.65c0-.55.45-1 1-1h104.95c.55 0 1 .45 1 1v7.65c0 .55-.45 1-1 1zm-103.95-2h102.95v-5.65h-102.95z" fill="#231f20"/></g></g></g></g><g><g><g><g><path d="m15.05 68.11h73.62v21.93h-73.62z" fill="#f05262"/></g></g></g></g><g><g><g><g><path d="m62.82 68.11h25.85v21.93h-25.85z" fill="#d24856"/></g></g></g></g><g><g><g><g><path d="m88.67 91.04h-73.62c-.55 0-1-.45-1-1v-21.93c0-.55.45-1 1-1h73.62c.55 0 1 .45 1 1v21.93c0 .55-.45 1-1 1zm-72.62-2h71.62v-19.93h-71.62z" fill="#231f20"/></g></g></g></g><g><g><g><g><ellipse cx="109.39" cy="56.69" fill="#f05262" rx="13.31" ry="8.57" transform="matrix(.641 -.768 .768 .641 -4.222 104.357)"/></g></g></g><g><g><g><path d="m104.95 69.27c-1.8 0-3.43-.51-4.73-1.59-4.05-3.38-3.24-11.06 1.81-17.12s12.46-8.23 16.52-4.85c4.05 3.38 3.24 11.06-1.81 17.12-3.44 4.11-7.97 6.44-11.79 6.44zm8.81-23.2c-3.19 0-7.13 2.11-10.19 5.77-4.35 5.21-5.28 11.63-2.07 14.3 3.21 2.68 9.35.61 13.7-4.6s5.27-11.63 2.07-14.3c-.95-.8-2.17-1.17-3.51-1.17z" fill="#231f20"/></g></g></g></g><g><g><g><g><path d="m6.09 116h-.09c-.55 0-1-.45-1-1v-59.92c0-.55.45-1 1-1 5.58 0 10.05 4.47 10.05 9.96v42.01c0 5.48-4.47 9.95-9.96 9.95zm.91-59.87v57.82c3.96-.45 7.05-3.82 7.05-7.9v-42.02c0-4.08-3.09-7.45-7.05-7.9z" fill="#231f20"/></g></g></g></g><g><g><g><g><path d="m20.93 85.18c-.55 0-1-.45-1-1v-12.25c0-.55.45-1 1-1s1 .45 1 1v12.25c0 .55-.44 1-1 1z" fill="#fff"/></g></g></g></g><g><g><g><g><path d="m30.8 85.18h-9.87c-.55 0-1-.45-1-1s.45-1 1-1h9.87c.55 0 1 .45 1 1s-.45 1-1 1z" fill="#fff"/></g></g></g></g></g></svg>