<?xml version="1.0" encoding="UTF-8"?>
<svg xmlns="http://www.w3.org/2000/svg" xmlns:xlink="http://www.w3.org/1999/xlink" version="1.1" id="Capa_1" x="0px" y="0px" viewBox="0 0 512 512" style="enable-background:new 0 0 512 512;" xml:space="preserve" width="512" height="512">
<g>
	<g>
		<rect x="78.078" y="272.638" style="fill:#FECE85;" width="32.378" height="93.341"/>
		<rect x="231.822" y="272.638" style="fill:#FECE85;" width="32.378" height="93.341"/>
	</g>
	<path style="fill:#FFE177;" d="M144.406,153.301L144.406,153.301c-12.317,0-23.123-8.078-26.75-19.849&#10;&#9;&#9;c-10.302-33.432-41.438-57.728-78.251-57.728h0c-9.037,0-16.362,7.326-16.362,16.362v138.792l47.948,31.045h50.285l77.738-31.045&#10;&#9;&#9;v-22.97C199.013,177.75,174.565,153.301,144.406,153.301z"/>
	<path style="fill:#FECE85;" d="M199.013,207.909v22.962l-77.733,31.053H85.635l77.745-31.053v-22.962&#10;&#9;&#9;c0-30.162-24.452-54.613-54.613-54.613c-12.31,0-23.12-8.079-26.742-19.848C74.17,107.946,54.187,87.771,28.81,79.624&#10;&#9;&#9;c2.855-2.437,6.556-3.904,10.596-3.904c36.819,0,67.95,24.294,78.253,57.728c3.622,11.769,14.432,19.848,26.754,19.848&#10;&#9;&#9;C174.561,153.295,199.013,177.747,199.013,207.909z"/>
	
		<line style="fill:none;stroke:#000000;stroke-width:15;stroke-linecap:round;stroke-linejoin:round;stroke-miterlimit:10;" x1="23.04" y1="230.875" x2="23.04" y2="177.505"/>
	<path style="fill:none;stroke:#000000;stroke-width:15;stroke-linecap:round;stroke-linejoin:round;stroke-miterlimit:10;" d="&#10;&#9;&#9;M23.04,142.505v-50.42c0-4.52,1.83-8.61,4.79-11.57c2.97-2.96,7.05-4.79,11.57-4.79c36.82,0,67.95,24.3,78.26,57.73&#10;&#9;&#9;c1.81,5.88,5.42,10.85,10.11,14.34c4.7,3.49,10.48,5.51,16.64,5.51c30.15,0,54.6,24.44,54.6,54.6v22.97"/>
	<path style="fill:#C38F86;" d="M504.5,319.98c0,39.76-32.35,72.11-72.11,72.11H30.72c-12.82,0-23.22-10.4-23.22-23.22&#10;&#9;&#9;c0-12.82,10.4-23.22,23.22-23.22h401.67c14.15,0,25.67-11.52,25.67-25.67c0-14.16-11.52-25.68-25.67-25.68h-45.35&#10;&#9;&#9;c-12.83,0-23.22-10.39-23.22-23.22c0-12.82,10.39-23.22,23.22-23.22h45.35C472.15,247.86,504.5,280.21,504.5,319.98z"/>
	<path style="fill:#B87D72;" d="M504.5,319.98c0,39.76-32.35,72.11-72.11,72.11c25.95-25.95,0-46.44,0-46.44&#10;&#9;&#9;c14.15,0,25.67-11.52,25.67-25.67c0-14.16-11.52-25.68-25.67-25.68c22.33-22.33,0-46.44,0-46.44&#10;&#9;&#9;C472.15,247.86,504.5,280.21,504.5,319.98z"/>
	<path style="fill:none;stroke:#000000;stroke-width:15;stroke-linecap:round;stroke-linejoin:round;stroke-miterlimit:10;" d="&#10;&#9;&#9;M494.7,283.715c6.23,10.66,9.8,23.05,9.8,36.26c0,25.48-13.28,47.92-33.28,60.74"/>
	<path style="fill:none;stroke:#000000;stroke-width:15;stroke-linecap:round;stroke-linejoin:round;stroke-miterlimit:10;" d="&#10;&#9;&#9;M24.89,391.355c-10-2.6-17.39-11.68-17.39-22.48c0-12.82,10.4-23.22,23.22-23.22h401.67c14.15,0,25.67-11.52,25.67-25.68&#10;&#9;&#9;c0-14.15-11.52-25.68-25.67-25.68h-45.35c-12.83,0-23.22-10.38-23.22-23.22c0-12.82,10.39-23.22,23.22-23.22h45.35&#10;&#9;&#9;c13.97,0,27.03,4,38.09,10.91"/>
	<path style="fill:#DFF6FD;" d="M490.1,436.27H21.9c-9.8,0-16.71-9.58-13.68-18.9c7.96-24.54,31.01-42.27,58.2-42.27&#10;&#9;&#9;c15.64,0,29.91,5.88,40.72,15.54c12.99-15.36,32.38-25.13,54.07-25.13c21.68,0,41.09,9.77,54.06,25.13&#10;&#9;&#9;c10.82-9.66,25.09-15.54,40.73-15.54s29.91,5.88,40.73,15.54c12.97-15.36,32.37-25.13,54.06-25.13s41.08,9.77,54.07,25.13&#10;&#9;&#9;c10.81-9.66,25.08-15.54,40.72-15.54c27.19,0,50.24,17.74,58.2,42.27C506.81,426.69,499.9,436.27,490.1,436.27z"/>
	<path style="fill:#C8EFFE;" d="M490.1,436.27h-78.89c11.93-22.96-6.35-45.63-6.35-45.63c10.81-9.66,25.08-15.54,40.72-15.54&#10;&#9;&#9;c27.19,0,50.24,17.74,58.2,42.27C506.81,426.69,499.9,436.27,490.1,436.27z"/>
	<path style="fill:none;stroke:#000000;stroke-width:15;stroke-linecap:round;stroke-linejoin:round;stroke-miterlimit:10;" d="&#10;&#9;&#9;M344.42,365.785c2.1-0.18,4.22-0.28,6.37-0.28c21.69,0,41.08,9.78,54.07,25.13c10.81-9.66,25.08-15.54,40.72-15.54&#10;&#9;&#9;c27.19,0,50.24,17.75,58.2,42.27c3.03,9.32-3.88,18.91-13.68,18.91H21.9c-9.8,0-16.71-9.59-13.68-18.91&#10;&#9;&#9;c7.96-24.53,31.01-42.27,58.2-42.27c15.64,0,29.91,5.88,40.72,15.54c12.99-15.35,32.38-25.13,54.07-25.13&#10;&#9;&#9;c21.68,0,41.09,9.78,54.06,25.13c10.82-9.66,25.09-15.54,40.73-15.54s29.91,5.88,40.73,15.54c4.46-5.27,9.67-9.89,15.47-13.68"/>
	<path style="fill:#C38F86;" d="M308.912,292.968H23.042c-8.581,0-15.538-6.956-15.538-15.538v-31.013&#10;&#9;&#9;c0-8.581,6.957-15.538,15.538-15.538h285.87c8.581,0,15.538,6.957,15.538,15.538v31.013&#10;&#9;&#9;C324.45,286.011,317.493,292.968,308.912,292.968z"/>
	<path style="fill:#B87D72;" d="M324.45,246.417v31.008c0,8.587-6.951,15.538-15.538,15.538h-52.413&#10;&#9;&#9;c8.587,0,15.538-6.951,15.538-15.538v-31.008c0-8.587-6.951-15.538-15.538-15.538h52.413&#10;&#9;&#9;C317.499,230.879,324.45,237.83,324.45,246.417z"/>
	<path style="fill:none;stroke:#000000;stroke-width:15;stroke-linecap:round;stroke-linejoin:round;stroke-miterlimit:10;" d="&#10;&#9;&#9;M308.912,292.968H23.042c-8.581,0-15.538-6.956-15.538-15.538v-31.013c0-8.581,6.957-15.538,15.538-15.538h285.87&#10;&#9;&#9;c8.581,0,15.538,6.957,15.538,15.538v31.013C324.45,286.011,317.493,292.968,308.912,292.968z"/>
	<g>
		
			<rect x="78.078" y="292.968" style="fill:none;stroke:#000000;stroke-width:15;stroke-linecap:round;stroke-linejoin:round;stroke-miterlimit:10;" width="32.378" height="52.682"/>
		
			<rect x="231.822" y="292.968" style="fill:none;stroke:#000000;stroke-width:15;stroke-linecap:round;stroke-linejoin:round;stroke-miterlimit:10;" width="32.378" height="52.682"/>
	</g>
</g>















</svg>
