<svg height="512" viewBox="0 0 48 48" width="512" xmlns="http://www.w3.org/2000/svg"><g id="Smart_TV" data-name="Smart TV"><path d="m1 7h46v26h-46z" fill="#9fdbf3"/><path d="m47 7v24h-20a24 24 0 0 1 -24-24z" fill="#b2e5fb"/><path d="m5 33h42v4h-42z" fill="#7c7d7d"/><path d="m1 33h4v4h-4z" fill="#db5669"/><path d="m5 35a2 2 0 0 1 -2-2h2z" fill="#f26674"/><path d="m19 37h10v4h-10z" fill="#7c7d7d"/><path d="m19 37v1h9v3h1v-4z" fill="#747575"/><path d="m5 33h42v2h-42z" fill="#919191"/><g fill="#231f20"><path d="m47 6h-46a1 1 0 0 0 -1 1v30a1 1 0 0 0 1 1h17v2.18l-9.2 1.82a1 1 0 0 0 .4 2c11.88-2.38 7.36-2 19.7-2 10.62 2.12 10 2 10.1 2a1 1 0 0 0 .2-2l-9.2-1.82v-2.18h17a1 1 0 0 0 1-1v-30a1 1 0 0 0 -1-1zm-1 2v24h-44v-24zm-44 26h2v2h-2zm26 6h-8v-2h8zm-22-4v-2h40v2z"/><path d="m21.3 23.7a1 1 0 0 0 1.41-.06 2 2 0 0 1 2.83-.11 1 1 0 0 0 1.35-1.47c-2.79-2.58-7.13.21-5.59 1.64z"/><path d="m18.3 19.57a1 1 0 0 0 1.47 1.36 6 6 0 0 1 8.48-.35 1 1 0 0 0 1.36-1.47 8 8 0 0 0 -11.31.46z"/><path d="m24.18 25a1 1 0 0 0 .09 2 1 1 0 0 0 -.09-2z"/></g></g></svg>