<svg id="Layer_1" enable-background="new 0 0 38 38" height="512" viewBox="0 0 38 38" width="512" xmlns="http://www.w3.org/2000/svg"><g id="_x33_7"><g><path d="m31.6873341 24.4380455c-.2435493.2338467-.2638035.237587-.3109627.3167953-.3047504.5138683-.6561413.8734207-1.0510616 1.087986-.0999012.0544205-.1698704.1496506-.1990223.2600479-.0878487.3323402-.2678146.6059856-.4742203.8629246l-3.1916599.0606403c-1.7709408-.6957893-5.6463394-2.2070732-5.746624-2.1569328-.1302204.0649166-6.6791315.6188221-6.874651.7494259-.1080618.071909-2.0305986.9468861-3.7327414 1.7173042l-1.660161.0314827c-.6132178-.7587128-.3678188-.9507885-.6732311-1.1148109-.3949308-.213398-.7463222-.5702286-1.0510616-1.0802097-.039773-.0667858-.0805006-.0977116-.1383815-.1523743.261209-8.3252945 24.2062545-8.7528706 25.1037784-.5822792z" fill="#31445b"/></g><g><path d="m31.6873341 24.4380455c-.2435493.2338467-.2638035.237587-.3109627.3167953-.1694813.2856979-.3533382.5239754-.5511875.7159977-3.948082-5.2393646-19.8752937-4.9657154-23.5046425.4567299-.2161226-.197855-.415524-.4489574-.5986032-.7548695-.039773-.0667858-.0805006-.0977116-.1383815-.1523743.261208-8.3252944 24.2062535-8.7528705 25.1037774-.5822791z" fill="#4c5c75"/></g><g><path d="m31.6873341 24.4380455c-.2435493.2338467-.2638035.237587-.3109627.3167953-.089016.1504288-.1823063.2876434-.2794819.4116383-3.5084591-5.7932701-20.9096451-5.4892998-24.0344467.4901562-.1193352-.1422672-.2328343-.3035755-.3405066-.4839363-.039773-.0667858-.0805006-.0977116-.1383815-.1523743.26121-8.3252945 24.2062555-8.7528706 25.1037794-.5822792z" fill="#1d2943"/></g><g><path d="m4.7701244 12.9593048h4.9778051v5.9794807h-4.1145105v3.7329063h.6323204v2.0502148c.1046925.0990505.2103434.1983147.3178163.298418 2.6174331-7.6953411 21.7552071-7.6953468 25.1037788-.5822792.0337143-.0324135.0669098-.0646076.1003323-.0968838v-2.6049862h1.048439v-7.5455017h1.2169342c-3.6062989-7.5708536-23.6140761-7.4083012-29.2829156-1.2313689z" fill="#e3e7f0"/></g><g opacity=".6"><path d="m30.4610004 21.689312c-.3660183 1.3654423-.9124565 2.6952171-1.6040039 3.9606781-.1002827-.065731-1.5846882-1.038681-1.4844055-.9729519.70327-1.286953 1.2578964-2.6414394 1.6269627-4.0488777.5214195.3008384 1.0261669.655653 1.4614467 1.0611515z" fill="#111d33"/></g><g opacity=".6"><path d="m11.0666103 24.718729c-.1002913.0657196-1.6002388 1.0485973-1.4999485.9828796-.7260342-1.3294983-1.2617435-2.6693707-1.6171184-3.9909191.3253608-.3134842 1.1189418-.8149128 1.489778-1.0207214.3735286 1.4073238.9320184 2.7563648 1.6272889 4.0287609z" fill="#111d33"/></g><g opacity=".6"><path d="m12.3266258 24.2543907-.9235897.5163879c-.7496672-1.4062119-1.3437433-2.9081116-1.6918917-4.1381626.2760353-.2004719.5964174-.3710842.9247084-.5473614.3893118 1.4667893.9688902 2.8480359 1.690773 4.1691361z" fill="#111d33"/></g><g><path d="m29.313364 20.9387684c-.3823452 1.3649368-.9209156 2.6662216-1.5797062 3.9018345l-.8593788-.5097237c.6854172-1.2542839 1.2293758-2.542263 1.59338-3.9304008.3113785.1638431.5890617.338068.845705.53829z" fill="#7f8eb2"/></g><g opacity=".6"><path d="m29.0220509 20.5851364c-.427702 1.5268517-1.030159 2.982502-1.7670975 4.364687l-.9613228-.5701885c.7667236-1.4030724 1.3752079-2.8438377 1.7823944-4.3966427.3483143.183279.6589375.37817.9460259.6021442z" fill="#111d33"/></g><g><g><path d="m30.1639957 21.5837822c-.3532887 1.3179474-.8807201 2.601469-1.548214 3.8229141-.1002827-.065731-1.5330544-1.0048389-1.4327736-.9391098.6788082-1.2421894 1.2141438-2.5495625 1.5703735-3.9080467.5032827.2903728.9904729.6328468 1.4106141 1.0242424z" fill="#c9cee2"/></g><g><path d="m29.5976524 21.1130562c-.382309 1.3648071-.9208374 2.6660767-1.5797043 3.9018307l-.83494-.5473003c.6788082-1.2421894 1.2141438-2.5495625 1.5703735-3.9080467.3004724.1733607.5826684.3576068.8442708.5535163z" fill="#b0b8cf"/></g></g><g><g opacity=".6"><path d="m20.9029999 23.1778641h-2.8773861l-.1783123-2.1180573-.2059574-2.5007629c.8140888-.0424938 2.4925919-.0187435 3.1622982-.0207748.0021991.102663.1057777 4.9393806.0993576 4.639595z" fill="#111d33"/></g><g><path d="m20.2355804 23.1778641h-1.69981c-.0050411-.102562-.2417259-4.918314-.2270069-4.6188202.4809227-.0424938 1.4714966-.0187378 1.8681221-.0207748.0012837.1014976.0618649 4.8902835.0586948 4.639595z" fill="#c9cee2"/></g><g><path d="m20.2355804 23.1778641h-.9674892l.0040798-4.6440163c.3024044-.0250015.6015167-.0031986.9047146.0044212.0012837.1014977.0618649 4.8902836.0586948 4.6395951z" fill="#b0b8cf"/></g></g><g><path d="m34.4875679 17.5210304c.3117409 3.2721214-1.0565033 5.2405262-2.8002338 6.9170151-.8942699-8.15592-24.8434086-7.7457008-25.1037788.5822792-2.1515131-2.0045166-3.2641251-3.9929028-2.9732089-7.0301285-4.2708805-12.4794159 33.4347471-14.1655414 30.8772215-.4691658z" fill="#c9cee2"/></g><g><path d="m11.8365355 24.2862263-.8666496.4845524c-.7087059-1.32938-1.2656984-2.745779-1.5875826-3.8830376.259017-.1881123.5596466-.3482075.8676977-.5136147.3653097 1.37636.9091568 2.6724472 1.5865345 3.9120999z" fill="#7f8eb2"/></g><g><g><path d="m11.3615227 24.4675865c-.1002903.0657177-1.5334435 1.0048275-1.4331532.9391098-.6705999-1.2279873-1.1927891-2.5030231-1.545105-3.8131962.310873-.2995243 1.0691128-.7786217 1.4234352-.9752655.3612004 1.3608742.8980437 2.6473961 1.554823 3.8493519z" fill="#c9cee2"/></g><g><path d="m11.3615227 24.4675865-.834939.5473003c-.6554565-1.2294941-1.1874905-2.5143051-1.5699778-3.8656807.2654791-.186964.5496254-.3642159.8500938-.5309715.3612004 1.3608742.8980437 2.6473961 1.554823 3.8493519z" fill="#b0b8cf"/></g></g><g opacity=".5"><path d="m34.4875679 17.5210304c.0975647 1.0234604.0307045 1.919035-.1609268 2.7182159-2.0873451-8.6969003-27.8690252-7.9688548-30.6906431-.2767581-.0812335-.6013279-.0944529-1.2555161-.0256512-1.9722919-4.2703242-12.4778405 33.4352884-14.1671539 30.8772211-.4691659z" fill="#b0b8cf"/></g><g opacity=".4"><path d="m34.5287666 18.6708202c-.0151558.5628452-.0859032 1.0837116-.2021255 1.5684261-2.0873451-8.6969003-27.8690252-7.9688548-30.6906431-.2767581-.0606403-.4477863-.0831788-.9251175-.0621872-1.4358826 4.9778335-7.2713137 26.6011408-7.8102112 30.9549558.1442146z" fill="#fff"/></g><g opacity=".1"><path d="m34.4875679 17.5210304c.3117409 3.2721214-1.0565033 5.2405262-2.8002338 6.9170151-.1515999-1.3826294-.9639912-2.5195923-2.209795-3.412838.6759605-1.9462471 1.1268578-3.9888916 1.1517353-4.3535023.3735466-5.47647-6.038929-8.2596064-13.1565189-8.6895123.6600037-.0376768 1.2470894-.0590839 1.9909496-.0590839 8.2211246-.0000004 16.2502269 3.0303517 15.0238628 9.5979214z" fill="#111d33"/></g><g opacity=".4"><path d="m7.4729099 17.1004486c.0244932.3614979.468781 2.3757687 1.1358061 4.3080273-1.2240434.9643764-1.9800739 2.1697521-2.0251603 3.6118488-2.148242-2.0014687-3.2603333-4.0172691-2.9693274-7.0705509-1.3254805-7.098547 8.161271-10.0647574 17.0163717-9.5388422-7.1183663.4295215-13.5316201 3.2126579-13.1576901 8.689517z" fill="#e3e7f0"/></g><g><path d="m3.6103468 17.9901962c-.120028-9.8066711 29.8031921-10.8089256 30.85886-.3976021.6418686-1.3603992.6355858-2.5501022.3295059-4.4179134-.1367302-.8343878-.496624-1.6175404-1.0475807-2.2589016-4.9003324-5.7044034-22.3726988-7.1124723-29.203176-.2389212-.7485845.7533054-1.2366581 1.7264767-1.390651 2.7772541-.2731397 1.8637829-.2308562 3.7463885.4530418 4.5360842z" fill="#e3e7f0"/></g><g><path d="m3.6105354 17.9902382c-2.8347469-10.6777606 32.5446427-12.1248732 30.8547737-.3698864.6418648-1.3604031.6394844-3.1250563.3334045-4.9928675-.1367302-.8343878-.496624-1.6175404-1.0475807-2.2589016-4.9003333-5.7044034-22.3726997-7.1124723-29.2031769-.2389211-.7485845.7533054-1.2366581 1.7264767-1.390651 2.7772541-.2731397 1.8637828-.2306662 4.2936248.4532304 5.0833225z" fill="#9ea9c9"/></g><g><path d="m5.3974056 13.1092215v-3.748723c-1.1864128.9692221-2.0098209 1.9751177-2.2400963 3.5464172-.2731378 1.8637848-.2306707 4.2936211.4532273 5.0833225-.5149117-1.9395332.231297-3.5743933 1.786869-4.8810167z" fill="#7f8eb2"/></g><g><path d="m18.1520653 5.5178504c-2.1734772.0398812-4.3409758.3030949-6.3539705.8154325v3.9221311c1.9776735-.4737167 4.1546526-.7589207 6.3539705-.8467064z" fill="#7f8eb2"/></g><g><path d="m34.5509186 17.4260845c.5549088-1.332119.5395279-3.018363.2477989-4.7985983-.0514984-.3142481-.1347084-.6212082-.2477989-.9160872z" fill="#7f8eb2"/></g><g><path d="m29.6452789 7.5614352c-1.680479-.73316-3.64785-1.2859697-5.7466049-1.6314321v3.7134886c2.1100941.2689953 4.0851479.7457867 5.7466049 1.4394112z" fill="#7f8eb2"/></g><g opacity=".1"><path d="m34.9948235 15.119216c-.0163193-.6258144-.0870667-1.278842-.1962929-1.9446955-.1364365-.8341608-.496376-1.617403-1.0475616-2.2587671-4.9000225-5.7042556-22.3727264-7.1125355-29.2030697-.2390556-.7486377.7533121-1.2364652 1.7266321-1.3907802 2.7772999-.0870793.5935545-.1418834 1.2450256-.1543245 1.8825035-.0167117-.8034563.0423725-1.6640463.1543245-2.42941.154315-1.0510569.6421425-2.0239878 1.3907802-2.7772999 6.8303437-6.8738713 24.3030472-5.4655914 29.2030697.2386656.5511856.6413651.9111252 1.4246025 1.0475616 2.2591572.1414909.8625354.2180633 1.702917.1962929 2.4916019z" fill="#111d33"/></g><g><g><path d="m28.6476593 13.3721428c-.4761333-.0781736-.8961182-.191782-.9536552-.3492031-.0589828-.1540413.3346882-.3125429.9045372-.2342844.569931.0774717 1.0079803.3647518.9724293.5169516-.0344277.1556701-.4487439.1405401-.9233113.0665359z" fill="#fff"/></g><g><path d="m31.3928738 13.7568674c.7255039.494504 1.0508022 1.1281328.8484478 1.2184095-.2001724.096549-.7477379-.2433281-1.3128128-.621417-.5617523-.3862314-1.0233746-.7371769-.97715-.9439917.0399437-.2030944.7159653-.1477069 1.441515.3469992z" fill="#fff"/></g></g><g><g><g><path d="m13.3305607 11.2752419.8355074.795825-.9623823-.6391926c-.1168203-.077589-.286479.0297699-.2833729.1593466l.0506344 2.1124525-.4167843-2.0722094c-.0256901-.1277285-.2150269-.1941757-.3124046-.0920401l-.7959213.8348112.6398678-.9609213c.0773745-.1161976-.0282621-.2862968-.1590662-.2831669l-2.1143885.0505886 2.0734253-.416379c.1283588-.0257769.1937275-.2148333.091609-.3122082l-.8348675-.7960843.9616537.6393862c.1170092.0777969.2864876-.029273.2833786-.1589413l-.050642-2.1127882.4167814 2.0722046c.0256891.1277237.2150106.1941757.3124189.0920649l.7966413-.8351049-.6405668.9612112c-.0774088.1161556.0282087.2862663.1590061.2831659l2.115407-.0501423-2.0743809.4159422c-.1283921.0257444-.1937789.2148104-.0915536.3121796z" fill="#fff"/></g></g></g><g><path d="m5.2456298 15.2710295c-.2680087 1.923234-.1781001 3.7897329.4545503 5.6354895-1.4163852-1.4764367-1.5516739-3.9385834-.4545503-5.6354895z" fill="#fff"/></g><g><g><path d="m29.8807926 27.4947624c0 2.617197-4.812994 4.9929924-10.7502193 4.9929924s-10.750226-2.1212864-10.750226-4.7384834c0-2.6167278 4.812995-4.7380142 10.750226-4.7380142s10.7502193 1.8667774 10.7502193 4.4835052z" fill="#e3e7f0"/></g><g><path d="m29.8806267 27.4948273c0 2.6171532-4.8129501 4.9929276-10.7500401 4.9929276s-10.7500458-2.12117-10.7500458-4.7383289c0-.0571384.0023346-.1142769.0069942-.1710262.204071 2.5378609 4.9357929 4.5676804 10.7430515 4.5676804s10.5385818-2.2731495 10.743042-4.8218956c.0046693.0563601.0069982.1134985.0069982.1706427z" fill="#c9cee2"/></g><g opacity=".3"><path d="m29.8806267 27.4948273c0 1.0868187-.8302746 2.1328278-2.2268906 2.9833145 2.3039169-4.9828243-12.5124645-7.4151955-19.0971107-3.586977.9161816-2.2070656 5.3019409-3.8800564 10.5739603-3.8800564 5.9370908 0 10.750041 1.8669548 10.750041 4.4837189z" fill="#fff"/></g><g><g><path d="m28.3701897 26.8525066c.1313934.333849-.3942146.8518009-1.172533 1.1581631-.7788754.3065815-1.5159321.2856388-1.6473255-.0482101-.1310253-.3329124.3936615-.851572 1.1725368-1.1581535.7783184-.3063603 1.5162964-.2847119 1.6473217.0482005z" fill="#e93565"/></g><g><path d="m27.1975079 28.0104694c-.7786217.3069324-1.5156136.2858677-1.6471424-.0482292-.0177612-.0443954-.0233097-.0921288-.0177612-.1420727.6230011.4564209 2.6564369-.3711376 2.7265644-1.1061745.051609.0377407.0893421.0843563.1109943.1387424.1315212.333542-.3940316.8513566-1.1726551 1.157734z" fill="#cc104a"/></g></g><g><g><path d="m15.6314955 30.4622612c-2.1612997-.8654804-2.1612549-2.558979.0000191-3.4242916 1.8757811-.7510662 4.8587942-.7516365 6.7358427 0 2.1612015.8654099 2.1611214 2.5587654.0000191 3.4242916-1.8764897.7514763-4.8588315.7516365-6.7358809 0zm.3467798-2.5582447c-1.3562355.5430222-1.357254 1.1486931.0000191 1.6921978 1.6549244.6627407 4.3877163.662653 6.0422649 0 1.3561382-.5430908 1.357214-1.1487503.0000191-1.6921978-1.6519165-.6614571-4.3853932-.663393-6.0423031 0z" fill="#c9cee2"/></g></g></g></g></svg>