<svg fill="none" height="100" viewBox="0 0 100 100" width="100" xmlns="http://www.w3.org/2000/svg"><circle cx="50" cy="50" fill="#dc3e3e" r="41.667"/><circle cx="50" cy="50" fill="#f2f2f2" r="36.059"/><path d="m25.844 47.679h48.313v9.424h-48.313z" fill="#e1e1e1"/><path d="m26.9843 20.3193 52.6968 52.6968-6.664 6.664-52.6968-52.6968z" fill="#dc3e3e"/><path d="m66.931 47.679h7.226v9.424h-7.226z" fill="#dc3e3e"/><path d="m25.844 47.679h19.325v9.424h-19.325z" fill="#d68f25"/><g fill="#000"><path d="m53.5798 32.9968c-1.4019 0-2.5385 1.1365-2.5385 2.5385 0 1.4019 1.1366 2.5384 2.5385 2.5384h11.4836c3.4551 0 6.256 2.8009 6.256 6.2561v.1346c0 .5753-.4663 1.0416-1.0416 1.0416s-1.0417-.4663-1.0417-1.0416v-.1346c0-2.3046-1.8682-4.1727-4.1727-4.1727h-11.4836c-2.5525 0-4.6218-2.0693-4.6218-4.6218 0-2.5526 2.0693-4.6218 4.6218-4.6218h16.698c.5753 0 1.0416.4663 1.0416 1.0416s-.4663 1.0417-1.0416 1.0417z"/><path clip-rule="evenodd" d="m78.6123 71.9477c4.67-6.0792 7.4462-13.6891 7.4462-21.9474 0-19.9147-16.144-36.0587-36.0587-36.0587-9.0046 0-17.2382 3.3006-23.5572 8.758l50.858 50.858c.4522-.5237.8897-1.0606 1.3117-1.6099zm-1.4866-1.4866c4.2996-5.6913 6.8495-12.7783 6.8495-20.4608 0-18.7641-15.2113-33.9754-33.9754-33.9754-7.6825 0-14.7695 2.5499-20.4607 6.8495l24.8043 24.8044h19.8126l.0001 9.4243h-10.3884zm-15.4413-15.4414-5.2576-5.2576h10.5035v5.2576zm7.3293 0v-5.2576h3.0589v5.2576z" fill-rule="evenodd"/><path clip-rule="evenodd" d="m73.5577 77.3005-50.8581-50.858c-5.4577 6.319-8.7585 14.5529-8.7585 23.5578 0 19.9147 16.1441 36.0587 36.0587 36.0587 8.2589 0 15.8693-2.7766 21.9487-7.4472.5491-.4219 1.0857-.8592 1.6092-1.3113zm-3.0958-.1753-20.0221-20.0221h-24.5963v-9.4243h15.172l-18.1406-18.1406c-4.3002 5.6915-6.8504 12.779-6.8504 20.4621 0 18.7641 15.2112 33.9754 33.9753 33.9754 7.6831 0 14.7706-2.5503 20.4621-6.8505zm-25.2934-25.2934 3.1879 3.1879h-3.1879zm-2.0833-2.0697h-15.1584v5.2576h15.1584z" fill-rule="evenodd"/><path clip-rule="evenodd" d="m91.6663 50.0002c0 23.0118-18.6548 41.6666-41.6666 41.6666-23.0119 0-41.66669-18.6548-41.66669-41.6666 0-23.0119 18.65479-41.6667 41.66669-41.6667 23.0118 0 41.6666 18.6548 41.6666 41.6667zm-2.0833 0c0 21.8612-17.722 39.5833-39.5833 39.5833s-39.5834-17.7221-39.5834-39.5833c0-21.8613 17.7221-39.5834 39.5834-39.5834s39.5833 17.7221 39.5833 39.5834z" fill-rule="evenodd"/></g></svg>