<?xml version="1.0" encoding="iso-8859-1"?>
<!-- Generator: Adobe Illustrator 19.0.0, SVG Export Plug-In . SVG Version: 6.00 Build 0)  -->
<svg version="1.1" id="Capa_1" xmlns="http://www.w3.org/2000/svg" xmlns:xlink="http://www.w3.org/1999/xlink" x="0px" y="0px"
	 viewBox="0 0 512 512" style="enable-background:new 0 0 512 512;" xml:space="preserve">
<path style="fill:#E4EAF8;" d="M244.494,377.991H40.935c-15.272,0-27.768-12.496-27.768-27.768v-15.691
	c0-15.272,12.496-27.768,27.768-27.768h203.558c15.272,0,27.768,12.496,27.768,27.768v15.691
	C272.263,365.495,259.767,377.991,244.494,377.991z"/>
<g>
	<path style="fill:#D8DCE5;" d="M244.495,360.184H40.935c-14.918,0-27.179-11.924-27.741-26.711
		c-0.013,0.351-0.027,0.703-0.027,1.058v15.691c0,15.272,12.496,27.768,27.768,27.768h203.559c15.272,0,27.768-12.496,27.768-27.768
		v-15.691c0-0.355-0.013-0.706-0.027-1.058C271.674,348.26,259.412,360.184,244.495,360.184z"/>
	<circle style="fill:#D8DCE5;" cx="71.862" cy="342.378" r="17.807"/>
</g>
<g>
	<path style="fill:#C3C8D1;" d="M74.056,342.376c0-6.126,3.095-11.529,7.807-14.732c-2.851-1.939-6.293-3.074-10.001-3.074
		c-9.835,0-17.807,7.973-17.807,17.807c0,9.835,7.973,17.808,17.807,17.808c3.708,0,7.15-1.135,10.001-3.074
		C77.151,353.905,74.056,348.503,74.056,342.376z"/>
	<path style="fill:#C3C8D1;" d="M48.781,306.761h258.9c0,0,101.428-9.406,134.407-75.462H231.375l-39.149,25.731
		c-2.469,1.623-5.359,2.487-8.314,2.487h-58.125c-4.525,0-8.718-2.374-11.046-6.254l-27.916-46.523
		c-1.84-3.066-5.153-4.942-8.73-4.942H12.351c-2.656,0-4.81,2.153-4.81,4.81v23.924c0,2.184,0.565,4.331,1.641,6.234L48.781,306.761
		z"/>
</g>
<g>
	<path style="fill:#B4B8BF;" d="M212.228,257.03l39.149-25.731h-20.002l-39.149,25.731c-2.469,1.623-5.358,2.487-8.314,2.487h20.002
		C206.869,259.517,209.759,258.652,212.228,257.03z"/>
	<path style="fill:#B4B8BF;" d="M27.542,230.532v-23.924c0-2.656,2.153-4.81,4.81-4.81H12.351c-2.656,0-4.81,2.153-4.81,4.81v23.924
		c0,2.184,0.565,4.331,1.641,6.233l39.599,69.997h20.002l-39.599-69.997C28.108,234.863,27.542,232.716,27.542,230.532z"/>
</g>
<path style="fill:#00C3FF;" d="M231.375,231.299l-23.74-34.632l36.933-37.531c5.038-5.12,11.921-8.004,19.105-8.004l0,0
	c60.371,0,118.437,23.184,162.205,64.765l16.21,15.4L231.375,231.299L231.375,231.299z"/>
<path style="fill:#06A4EA;" d="M263.569,159.137c3.897-3.96,8.899-6.575,14.288-7.56c-4.71-0.284-9.439-0.444-14.184-0.444l0,0
	c-7.184,0-14.066,2.883-19.105,8.004l-36.933,37.531l23.741,34.632h19.002l-21.701-31.657c-1.184-1.728-0.979-4.053,0.491-5.546
	L263.569,159.137z"/>
<path style="fill:#707487;" d="M114.742,253.263c2.328,3.88,6.522,6.255,11.047,6.255h58.125c2.955,0,5.844-0.865,8.314-2.487
	l39.148-25.731l-23.74-34.632l-18.256,17.967c-1.863,1.834-4.373,2.861-6.988,2.861H93.278L114.742,253.263z"/>
<path style="fill:#5B5D6E;" d="M134.743,253.263l-21.463-35.768H93.279l21.463,35.768c2.328,3.88,6.522,6.255,11.047,6.255h20.002
	C141.265,259.517,137.072,257.144,134.743,253.263z"/>
<path style="fill:#707487;" d="M403.484,377.991h-70.166c-8.855,0-16.033-7.179-16.033-16.033c0-8.855,7.179-16.033,16.033-16.033
	h70.166c27.492,0,54.321-11.237,73.608-30.83c6.212-6.311,16.362-6.391,22.674-0.178c6.31,6.213,6.39,16.363,0.178,22.674
	C474.67,363.265,439.511,377.991,403.484,377.991z"/>
<path style="fill:#5B5D6E;" d="M499.767,314.917c-0.055-0.053-0.114-0.098-0.169-0.15c-0.729,2.398-2.023,4.662-3.903,6.573
	c-25.275,25.675-60.434,40.4-96.461,40.4h-70.166c-4.304,0-8.204-1.705-11.084-4.465c-0.452,1.482-0.699,3.054-0.699,4.684
	c0,8.855,7.179,16.033,16.033,16.033h70.166c36.027,0,71.186-14.725,96.461-40.4C506.157,331.28,506.077,321.128,499.767,314.917z"
	/>
<circle style="fill:#D8DCE5;" cx="142.712" cy="342.378" r="17.807"/>
<path style="fill:#C3C8D1;" d="M144.909,342.376c0-6.126,3.095-11.529,7.807-14.732c-2.851-1.939-6.293-3.074-10.001-3.074
	c-9.835,0-17.807,7.973-17.807,17.807c0,9.835,7.973,17.808,17.807,17.808c3.708,0,7.15-1.135,10.001-3.074
	C148.004,353.905,144.909,348.503,144.909,342.376z"/>
<circle style="fill:#D8DCE5;" cx="213.568" cy="342.378" r="17.807"/>
<path style="fill:#C3C8D1;" d="M215.762,342.376c0-6.126,3.095-11.529,7.807-14.732c-2.851-1.939-6.293-3.074-10.001-3.074
	c-9.835,0-17.807,7.973-17.807,17.807c0,9.835,7.973,17.808,17.807,17.808c3.708,0,7.15-1.135,10.001-3.074
	C218.858,353.905,215.762,348.503,215.762,342.376z"/>
<path d="M46.513,342.543c0,13.955,11.353,25.308,25.308,25.308s25.308-11.353,25.308-25.308s-11.353-25.308-25.308-25.308
	S46.513,328.588,46.513,342.543z M82.128,342.543c0,5.684-4.623,10.307-10.307,10.307s-10.307-4.623-10.307-10.307
	s4.623-10.307,10.307-10.307S82.128,336.86,82.128,342.543z"/>
<path d="M167.982,342.543c0-13.955-11.353-25.308-25.308-25.308s-25.308,11.353-25.308,25.308s11.353,25.308,25.308,25.308
	S167.982,356.497,167.982,342.543z M142.674,352.85c-5.683,0-10.307-4.623-10.307-10.307s4.623-10.307,10.307-10.307
	c5.683,0,10.307,4.624,10.307,10.307S148.357,352.85,142.674,352.85z"/>
<path d="M238.835,342.543c0-13.955-11.353-25.308-25.308-25.308s-25.308,11.353-25.308,25.308s11.353,25.308,25.308,25.308
	S238.835,356.497,238.835,342.543z M203.221,342.543c0-5.684,4.623-10.307,10.307-10.307s10.307,4.624,10.307,10.307
	s-4.623,10.307-10.307,10.307S203.221,348.226,203.221,342.543z"/>
<path d="M504.987,309.737c-9.248-9.103-24.179-8.985-33.281,0.262c-17.887,18.17-42.769,28.591-68.264,28.591h-9.102l-19.84-41.226
	c35.475-14.596,61.045-36.084,74.256-62.548c1.454-2.911,0.82-6.539-1.539-8.784c-0.002-0.002-0.003-0.004-0.005-0.005
	c-20.01-19.011-47.794-48.54-101.07-67.775c-3.894-1.406-8.195,0.611-9.603,4.507c-1.406,3.896,0.612,8.196,4.508,9.602
	c33.372,12.048,58.655,29.22,82.213,51.602H235.286l-18.012-26.274l32.599-33.126c3.604-3.663,8.62-5.763,13.759-5.763
	c14.901,0,29.905,1.485,44.593,4.415c4.063,0.815,8.013-1.826,8.823-5.888c0.81-4.063-1.826-8.013-5.889-8.823
	c-15.651-3.122-31.643-4.705-47.527-4.705c-9.133,0-18.045,3.733-24.45,10.243l-11.926,12.119l-12.625-11.317l15.49-15.741
	c2.905-2.953,2.867-7.702-0.085-10.607c-2.953-2.905-7.703-2.868-10.607,0.085l-42.004,42.684
	c-2.905,2.953-2.867,7.702,0.085,10.607c2.954,2.907,7.704,2.865,10.607-0.085l15.98-16.238l12.625,11.317l-14.431,14.665
	l-18.214,17.925c-0.463,0.456-1.076,0.707-1.726,0.707H97.484l-4.268-7.114c-3.177-5.294-8.987-8.584-15.161-8.584H12.31
	C5.522,194.464,0,199.986,0,206.775v23.923c0,3.472,0.903,6.905,2.613,9.927l33.458,59.141c-17.172,2.36-30.446,17.12-30.446,34.931
	v15.691c0,19.448,15.821,35.27,35.27,35.27h84.278c4.142,0,7.501-3.358,7.501-7.501s-3.358-7.501-7.501-7.501H40.895
	c-11.176,0-20.269-9.093-20.269-20.269v-15.691c0-11.176,9.093-20.268,20.269-20.268h7.846h195.712
	c11.176,0,20.269,9.092,20.269,20.268v15.691c0,11.176-9.093,20.269-20.269,20.269h-84.278c-4.142,0-7.501,3.358-7.501,7.501
	s3.358,7.501,7.501,7.501h84.278c19.448,0,35.27-15.821,35.27-35.27v-15.691c0-7.54-2.386-14.529-6.432-20.268h34.35
	c0.231,0,0.462-0.011,0.692-0.032c1.019-0.094,24.07-2.32,52.057-11.762l17.303,35.956h-44.417
	c-12.977,0-23.534,10.557-23.534,23.534s10.558,23.534,23.534,23.534h70.166c38.024,0,75.131-15.541,101.807-42.64
	C514.352,333.772,514.234,318.843,504.987,309.737z M182.35,225.162c4.612,0,8.962-1.781,12.249-5.016l11.872-11.684l14.352,20.937
	l-32.757,21.53c-1.189,0.781-2.73,1.255-4.194,1.255h-58.125c-1.929,0-3.686-1.064-4.614-2.612l-14.646-24.408L182.35,225.162
	L182.35,225.162z M307.258,299.428c-19.751,0-247.082,0-254.143,0l-37.445-66.19c-0.438-0.773-0.668-1.651-0.668-2.54v-21.233
	h63.053c0.936,0,1.816,0.499,2.298,1.301l11.423,19.037l16.493,27.486l0,0c3.652,6.086,10.339,9.896,17.478,9.896l0,0h58.125
	c4.548,0,8.896-1.396,12.434-3.72L228,242.634l5.579-3.667h195.325C394.095,289.214,312.955,298.816,307.258,299.428z
	 M494.56,332.495c-23.874,24.252-57.085,38.161-91.116,38.161h-70.166c-4.705,0-8.533-3.827-8.533-8.533s3.827-8.533,8.533-8.533
	c6.871,0,63.327,0,70.166,0c29.487,0,58.266-12.053,78.954-33.069c3.3-3.354,8.715-3.394,12.067-0.095
	C497.816,323.729,497.859,329.142,494.56,332.495z"/>
<g>
</g>
<g>
</g>
<g>
</g>
<g>
</g>
<g>
</g>
<g>
</g>
<g>
</g>
<g>
</g>
<g>
</g>
<g>
</g>
<g>
</g>
<g>
</g>
<g>
</g>
<g>
</g>
<g>
</g>
</svg>
