<svg id="Layer_1" enable-background="new 0 0 479.904 479.904" height="512" viewBox="0 0 479.904 479.904" width="512" xmlns="http://www.w3.org/2000/svg"><path d="m449.68 112.478-169.55 3.39c.228-7.734-.873-10.048-8.21-40.67-4.796-20.018-22.68-33.48-42.4-33.48-28.252 0-49.056 26.395-42.48 53.82l6.77 28.25-169.31 48.369c-27.91 7.98-17.8 49.46 10.39 44.24l159-28.98c14.225 28.837 22.079 64.627 21.63 73.57l-47.94 8.41c-19.62 3.44-36.01 16.89-43.2 35.47l-16.82 43.4-8.9-3.48c-9.64-3.77-20.5 1.17-23.99 10.93l-5.15 14.42c19.84 8.09 47.13 18.08 80.42 29.44 14.63-20.56 11.73-42.36 11.72-42.26-1.14-23.39 21.68-38.84 44.24-35.18 26.52 4.297 36.916 5.98 36.916 5.98-2.14 3.709-3.687 7.85-4.506 12.34l-8.03 43.97c-8.617-3.878-11.096-5.45-16.02-5.45-8.05 0-15.59 5.36-17.78 13.76l-5.35 20.6c26.94 8.82 56.66 18.25 88.63 28.09 10.02-12.29 15.21-27.81 14.6-43.66l-.92-23.62c-.44-11.05 8.41-20.25 19.48-20.25 30.084 0 53.582-25.355 51.99-54.92-.387-7.437-1.096-14.74-2.02-21.54-5.18-38.03-28.09-86.74-37.92-105.5l128.5-16.3c26.73-3.389 23.47-43.709-3.79-43.159z" fill="#ff6d7a"/><path d="m364.98 301.758c0 28.6-23.12 52.14-52.06 52.14-11.07 0-19.92 9.2-19.48 20.25l.92 23.62c.61 15.85-4.58 31.37-14.6 43.66-31.97-9.84-61.69-19.271-88.63-28.09l5.35-20.6c2.876-11.032 14.962-16.798 25.31-12.13l8.49 3.82 8.03-43.97c.82-4.49 2.366-8.63 4.506-12.34-3.782-.613 13.679 2.223-36.916-5.98-22.56-3.658-45.38 11.79-44.24 35.18.01-.1 2.91 21.7-11.72 42.26-33.29-11.36-60.58-21.35-80.42-29.44l5.15-14.42c3.49-9.76 14.35-14.7 23.99-10.93l8.9 3.48 16.82-43.4c7.19-18.58 23.58-32.03 43.2-35.47l47.94-8.41 148.12 22.55c.55 4.854 1.34 13.798 1.34 18.22z" fill="#585966"/><path d="m220.895 268.885c3.904 5.737.585 13.59-6.249 14.789l-33.366 5.853c-19.62 3.44-36.01 16.89-43.2 35.47l-13.356 34.463c-1.911 4.931-7.465 7.372-12.39 5.446 0 0 .008.003.027.01-9.64-3.77-20.5 1.17-23.99 10.93l-.53 1.49c-6.67-2.54-12.78-4.94-18.32-7.2l5.15-14.42c3.49-9.76 14.35-14.7 23.99-10.93l8.9 3.48 16.82-43.4c7.19-18.58 23.58-32.03 43.2-35.47l41.861-7.344c3.7-.649 7.438.93 9.552 4.036z" fill="#6e6f80"/><path d="m278.63 337.528c-5.41 3.6-9.44 9.12-11.11 15.68l-9.52 37.61c-2.16 8.486-10.158 13.795-18.26 13.09-6.982-.552-13.566 3.134-16.77 9.21l-4.95 8.93c-9.24-2.96-18.21-5.87-26.89-8.71l5.35-20.6c2.19-8.4 9.73-13.76 17.78-13.76 5.977 0 9.067 2.645 16.02 5.45.722-3.955 7.251-39.703 8.03-43.97 3.057-16.743 16.516-29.162 32.767-31.447 6.421-.903 12.511 3.141 14.322 9.367 2.09 7.18-.549 15.02-6.769 19.15z" fill="#6e6f80"/><path d="m278.95 104.498-7.03-29.3c-4.79-20.02-22.68-33.48-42.4-33.48-28.252 0-49.056 26.395-42.48 53.82l7.02 29.3c5.62 23.44 29.17 37.89 52.61 32.27 23.632-5.646 37.833-29.368 32.28-52.61z" fill="#ffebd2"/><path d="m243.061 381.398c-1.834 4.095-6.645 5.802-10.58 4.02l-2.2-.99 2.251-12.327c.361-1.975 2.479-3.087 4.309-2.264l2.2.99c4.03 1.811 5.829 6.541 4.02 10.571z" fill="#42434d"/><path d="m214.04 103.538c-.499-2.092 7.058 29.547 7.433 30.892 2.864 10.25-9.791 17.679-17.022 9.871-4.919-5.311-8.584-11.922-10.392-19.463-.718-2.996 2.604 10.852-7.02-29.3-6.587-27.481 14.273-53.82 42.48-53.82 9.17 0 17.94 2.91 25.19 8.04-27.44 1.089-47.076 27.057-40.669 53.78z" fill="#fff3e4"/><path d="m271.92 75.198.73 3.03-84.88 20.34-.73-3.03c-5.62-23.44 8.83-47 32.27-52.61 23.4-5.61 46.995 8.798 52.61 32.27z" fill="#ff6d7a"/><path d="m228.264 60.068c-9.287 7.888-15.194 19.57-15.414 32.49l-25.08 6.01-.73-3.03c-5.62-23.44 8.83-47 32.27-52.61 10.664-2.558 16.732 10.533 8.954 17.14z" fill="#ff8c95"/><path d="m232.467 32.282c-3.169-13.168-20.799-15.965-27.874-4.416-6.26 10.221 1.173 23.257 13.043 23.257 9.827 0 17.15-9.217 14.831-18.841z" fill="#eef7ff"/><path d="m215.52 260.988c.191-3.815-.93-9.387-.93-9.76-1.968-11.557-5.45-24.338-9.47-36.169-2.399-7.059 2.078-14.596 9.413-15.934 5.607-1.023 11.194 1.948 13.441 7.187 8.718 20.321 15.544 44.936 17.227 59.196z" fill="#ff8c95"/><path d="m201.14 140.268-146.64 41.889c-14.3 4.093-18.621 16.978-15.631 27.867.793 2.888-1.034 5.832-3.979 6.373-28.197 5.18-38.3-36.26-10.39-44.24l169.31-48.37c1.382 5.802 3.372 11.012 7.33 16.481z" fill="#ff8c95"/><path d="m287.358 115.723c5.095-.102 8.935 4.511 8.017 9.524-4.955 27.05-28.897 49.07-58.885 49.07-12.26 0-43.572-6.306-55.528-37.775-1.671-4.4.741-9.295 5.266-10.588l7.582-2.166c6.135 25.764 30.35 38.717 52.86 33.32 19.63-4.69 32.95-21.98 33.46-41.24z" fill="#fe4f60"/><g><path d="m207.525 261.398c.111 2.207 1.133 4.28 2.875 5.732 2.618 2.182 1.602 1.47 71.09 11.995 4.397.666 8.452-2.36 9.113-6.705.665-4.368-2.338-8.448-6.705-9.113l-60.846-9.261c-2.362-18.826-13.556-59.34-32.129-88.492-2.375-3.726-7.321-4.822-11.046-2.448-3.727 2.374-4.822 7.319-2.448 11.046 16.194 25.415 29.04 66.124 30.096 87.246z"/><path d="m479.822 132.271c-1.03-14.091-11.765-28.143-30.306-27.793l-161.84 3.235c-.484-3.539-.29-2.306-7.972-34.381-5.458-22.79-25.128-38.169-46.951-39.526-1.226-9.007-9.925-14.908-18.694-12.809-8.692 2.082-13.874 11.225-10.855 19.887-18.777 11.061-29.42 33.645-23.943 56.515.758 3.165 4.933 20.588 4.985 20.802l-161.942 46.268c-18.477 5.278-24.779 22.354-21.457 36.492 3.613 15.375 17.646 26.611 35.482 23.303l108.162-19.717c4.347-.792 7.229-4.958 6.436-9.305-.792-4.346-4.96-7.228-9.305-6.436l-108.185 19.722c-10.169 1.883-15.521-4.869-17.015-11.226-1.474-6.273.333-14.607 10.277-17.448l161.773-46.221c7.8 19.794 27.057 32.688 48.031 32.687 25.014 0 46.408-17.966 50.831-42.598 169.849-3.395 162.591-3.252 162.885-3.252 9.36 0 13.204 6.95 13.645 12.969.429 5.86-2.301 13.112-11.406 14.267l-128.495 16.296c-5.527.702-8.666 6.711-6.08 11.648 3.191 6.092 31.341 60.729 37.076 102.862.938 6.905 1.6 13.932 1.963 20.885 1.323 25.318-18.706 46.501-44.006 46.501-15.59 0-28.085 12.928-27.476 28.566l.92 23.612c.474 12.138-2.93 24.042-9.652 34.047-27.797-8.581-53.102-16.603-75.952-24.038l3.468-13.339c1.617-6.217 8.438-9.477 14.287-6.845l17.986 8.094c4.029 1.814 8.766.016 10.578-4.012 1.813-4.029.017-8.766-4.012-10.578l-3.792-1.706 6.907-37.807c3.383-18.526 22.479-29.68 40.268-23.566 4.175 1.435 8.73-.786 10.166-4.965 1.437-4.179-.786-8.729-4.965-10.166-27.074-9.307-56.069 7.696-61.209 35.822l-6.201 33.943c-14.766-6.049-31.481 2.306-35.498 17.759l-3.217 12.376c-8.225-2.712-16.106-5.341-23.63-7.882 3.68-7.239 6.174-15.151 7.31-23.332.161-1.158 1.235-9.321.402-14.95l.043-.002c-.881-18.08 17.242-29.772 34.974-26.899l4.942.802c4.364.707 8.471-2.255 9.178-6.615.708-4.361-2.254-8.471-6.615-9.178l-4.944-.803c-27.617-4.474-54.906 14.953-53.515 43.473.013.27.045.534.078.796.142 1.107 1.514 16.022-7.189 31.484-27.677-9.516-49.951-17.673-66.923-24.378l2.573-7.205c1.973-5.524 8.101-8.295 13.54-6.167 4.758 1.862 21.274 8.325 23.275 9.107 4.112 1.609 8.755-.421 10.365-4.535 1.609-4.114-.421-8.755-4.535-10.365l-6.948-2.719 13.933-35.971c6.145-15.864 20.372-27.544 37.129-30.482 4.352-.763 7.261-4.909 6.498-9.262-.764-4.353-4.907-7.264-9.262-6.498-22.243 3.9-41.129 19.405-49.285 40.463l-13.913 35.92-1.427-.559c-13.866-5.423-29.43 1.668-34.438 15.686l-2.332 6.53c-13.403-5.694-21.651-9.938-24.81-12.632-12.194-10.402-15.766-22.728-10.919-37.681 1.362-4.203-.94-8.715-5.144-10.077-4.199-1.36-8.714.941-10.077 5.144-6.868 21.19-1.42 40.135 15.755 54.786 5.144 4.388 17.947 10.629 36.136 18.09.345.185.703.354 1.083.49 4.829 1.722 61.429 26.17 234.901 78.844 26.483 8.04 54.681-1.546 70.242-23.631 2.545-3.611 1.68-8.603-1.932-11.147-3.613-2.543-8.603-1.68-11.148 1.932-11.623 16.497-32.729 23.547-52.514 17.536-4.688-1.424-9.304-2.832-13.867-4.228 6.918-11.913 10.378-25.596 9.835-39.526l-.92-23.612c-.255-6.539 4.969-11.943 11.487-11.943 34.498 0 61.785-28.878 59.984-63.337-.387-7.393-1.089-14.863-2.088-22.206-4.812-35.352-24.063-78.232-33.621-97.902l117.28-14.874c17.983-2.282 26.366-17.477 25.353-31.309zm-235.012 17.061c-19.114 4.588-38.389-7.243-42.969-26.356-3.42-14.272-3.885-16.213-7.021-29.305-4.589-19.156 7.198-38.375 26.357-42.968 17.632-4.226 35.197 5.433 41.508 21.685l-34.271 8.213c-4.297 1.029-6.945 5.347-5.915 9.644 1.029 4.297 5.343 6.944 9.644 5.915l34.592-8.289 4.431 18.494c4.58 19.112-7.243 38.387-26.356 42.967zm-91.049 209.268c.072.452.183.891.328 1.313-.152-.433-.261-.874-.328-1.313z"/></g></svg>