<svg id="Filloutline" enable-background="new 0 0 128 128" height="512" viewBox="0 0 128 128" width="512" xmlns="http://www.w3.org/2000/svg" xmlns:xlink="http://www.w3.org/1999/xlink"><linearGradient id="lg1"><stop offset="0" stop-color="#d69b61"/><stop offset="1" stop-color="#c17e51"/></linearGradient><linearGradient id="SVGID_1_" gradientTransform="matrix(-1 0 0 1 437.994 0)" gradientUnits="userSpaceOnUse" x1="353.543" x2="345.812" xlink:href="#lg1" y1="114.5" y2="114.5"/><linearGradient id="SVGID_2_" gradientUnits="userSpaceOnUse" x1="4.821" x2="13.024" xlink:href="#lg1" y1="114.5" y2="114.5"/><linearGradient id="lg2"><stop offset="0" stop-color="#e4e5e3"/><stop offset="1" stop-color="#7c8378"/></linearGradient><linearGradient id="SVGID_3_" gradientUnits="userSpaceOnUse" x1="64" x2="64" xlink:href="#lg2" y1="-36.333" y2="115.035"/><linearGradient id="SVGID_4_" gradientUnits="userSpaceOnUse" x1="15.993" x2="111.993" y1="111.5" y2="111.5"><stop offset="0" stop-color="#93634d"/><stop offset="1" stop-color="#93634d"/></linearGradient><linearGradient id="SVGID_5_" gradientUnits="userSpaceOnUse" x1="63.993" x2="63.993" xlink:href="#lg2" y1="40.5" y2="69.682"/><linearGradient id="lg3"><stop offset="0" stop-color="#d1d4d4"/><stop offset="1" stop-color="#abafb2"/></linearGradient><linearGradient id="SVGID_6_" gradientUnits="userSpaceOnUse" x1="106.407" x2="1.74" xlink:href="#lg3" y1="83.973" y2="88.14"/><linearGradient id="SVGID_7_" gradientUnits="userSpaceOnUse" x1="126.667" x2="73.667" xlink:href="#lg3" y1="86.5" y2="86.5"/><linearGradient id="lg4"><stop offset=".0399" stop-color="#fc9f4b"/><stop offset="1" stop-color="#f68741"/></linearGradient><linearGradient id="SVGID_8_" gradientUnits="userSpaceOnUse" x1="71.988" x2="98" xlink:href="#lg4" y1="68" y2="68"/><linearGradient id="SVGID_9_" gradientUnits="userSpaceOnUse" x1="29.988" x2="56" xlink:href="#lg4" y1="68" y2="68"/><linearGradient id="lg5"><stop offset="0" stop-color="#f18774"/><stop offset=".2844" stop-color="#ee8372"/><stop offset=".579" stop-color="#e7766c"/><stop offset=".8773" stop-color="#da6263"/><stop offset="1" stop-color="#d3575e"/></linearGradient><linearGradient id="SVGID_10_" gradientUnits="userSpaceOnUse" x1="33" x2="33" xlink:href="#lg5" y1=".25" y2="-13.172"/><linearGradient id="lg6"><stop offset="0" stop-color="#ffac27"/><stop offset=".9973" stop-color="#ffbe5f"/></linearGradient><linearGradient id="SVGID_11_" gradientUnits="userSpaceOnUse" x1="39" x2="39" xlink:href="#lg6" y1="-4.833" y2="11.043"/><linearGradient id="SVGID_12_" gradientUnits="userSpaceOnUse" x1="27" x2="27" xlink:href="#lg6" y1="-4.833" y2="11.043"/><linearGradient id="SVGID_13_" gradientUnits="userSpaceOnUse" x1="45" x2="45" xlink:href="#lg5" y1=".25" y2="-13.172"/><linearGradient id="SVGID_14_" gradientUnits="userSpaceOnUse" x1="26" x2="26" xlink:href="#lg1" y1="-11.25" y2="52.012"/><linearGradient id="SVGID_15_" gradientUnits="userSpaceOnUse" x1="112.001" x2="112.001" xlink:href="#lg1" y1="1" y2="42.042"/><linearGradient id="SVGID_16_" gradientUnits="userSpaceOnUse" x1="112" x2="112" y1="15.417" y2="12.738"><stop offset="0" stop-color="#50a8d2"/><stop offset="1" stop-color="#198dc4"/></linearGradient><linearGradient id="SVGID_17_" gradientUnits="userSpaceOnUse" x1="112" x2="112" y1="17.583" y2="21.878"><stop offset="0" stop-color="#3779a1"/><stop offset="1" stop-color="#174f71"/></linearGradient><linearGradient id="SVGID_18_" gradientUnits="userSpaceOnUse" x1="74.5" x2="74.5" xlink:href="#lg1" y1="1" y2="42.042"/><linearGradient id="SVGID_19_" gradientUnits="userSpaceOnUse" x1="74.5" x2="74.5" y1="4.667" y2="-2.185"><stop offset="0" stop-color="#e3ddcb"/><stop offset=".6667" stop-color="#f5ebde"/></linearGradient><linearGradient id="lg7"><stop offset="0" stop-color="#076d54"/><stop offset="1" stop-color="#2e7452"/></linearGradient><linearGradient id="SVGID_20_" gradientUnits="userSpaceOnUse" x1="85.625" x2="92.21" xlink:href="#lg7" y1="18.505" y2="18.505"/><linearGradient id="SVGID_21_" gradientUnits="userSpaceOnUse" x1="73.5" x2="73.5" xlink:href="#lg7" y1="2.667" y2="7.194"/><linearGradient id="SVGID_22_" gradientTransform="matrix(-1 0 0 1 822 0)" gradientUnits="userSpaceOnUse" x1="810" x2="810" y1="17.75" y2="7.07"><stop offset="0" stop-color="#809000"/><stop offset="1" stop-color="#6b7f00"/></linearGradient><linearGradient id="SVGID_23_" gradientUnits="userSpaceOnUse" x1="12" x2="12" y1="4.5" y2="16.667"><stop offset="0" stop-color="#e4e5e3"/><stop offset=".9" stop-color="#a9aea7"/><stop offset="1" stop-color="#7c8378"/></linearGradient><linearGradient id="lg8"><stop offset="0" stop-color="#a6b046"/><stop offset="1" stop-color="#9ca728"/></linearGradient><linearGradient id="SVGID_24_" gradientTransform="matrix(-1 0 0 1 822 0)" gradientUnits="userSpaceOnUse" x1="806.5" x2="806.5" xlink:href="#lg8" y1="13.594" y2="16.453"/><linearGradient id="SVGID_25_" gradientUnits="userSpaceOnUse" x1="8.5" x2="8.5" xlink:href="#lg8" y1="13.594" y2="16.453"/><g><g><g><path d="m102.986 103 8.007 20s.227 3-2 3c-1.103 0-2.25-.203-3-2l-11.007-21z" fill="url(#SVGID_1_)"/><path d="m24.993 103-8.986 20s-.227 3 2 3c1.103 0 2.25-.203 3-2l11.986-21z" fill="url(#SVGID_2_)"/><path d="m112 84h-96l2-29c1.005-6.834 7.093-12 14-12h64c6.907 0 12.995 5.166 14 12z" fill="url(#SVGID_3_)"/><path d="m109.003 114h-90.021c-1.651 0-2.99-1.338-2.99-2.99v-2.01h96v2.01c.001 1.652-1.338 2.99-2.989 2.99z" fill="url(#SVGID_4_)"/><path d="m118.993 69c-3.907-.298-7.605 2.228-10 6-1.897 2.987-3 8-3 8h-42-42s-1.103-5.013-3-8c-2.395-3.772-6.093-6.298-10-6-4.098.312-7.177 4.429-7 11 .188 6.958 3.218 16.588 7 24 1.802 3.531 3.869 5 7 5h48 48c3.131 0 5.198-1.469 7-5 3.782-7.412 6.812-17.042 7-24 .177-6.571-2.902-10.688-7-11z" fill="url(#SVGID_5_)"/><path d="m18.993 92h43.002c1.103 0 1.998-.895 1.998-1.998v-7.004c0-1.103-.895-1.998-1.998-1.998h-38.002c-4.418 0-8 3.582-8 8 0 1.65 1.35 3 3 3z" fill="url(#SVGID_6_)"/><path d="m108.993 92h-43.002c-1.103 0-1.998-.895-1.998-1.998v-7.004c0-1.103.895-1.998 1.998-1.998h38.002c4.418 0 8 3.582 8 8 0 1.65-1.35 3-3 3z" fill="url(#SVGID_7_)"/><g><path d="m95.994 64.98-8-8c-1.248-1.338-2.105-2.001-2.994-1.98-.889-.021-1.758.661-3.006 1.999l-8 8c-1.334 1.397-3.754 2.83 0 6l8 8c1.272 1.289 2.167 1.949 3.006 2.001.839-.053 1.728-.711 3-2l7.994-8.02c3.754-3.17 1.334-4.603 0-6z" fill="url(#SVGID_8_)"/></g><g><path d="m53.994 64.98-8-8c-1.248-1.338-2.105-2.001-2.994-1.98-.889-.021-1.758.661-3.006 1.999l-8 8c-1.334 1.397-3.754 2.83 0 6l8 8c1.272 1.289 2.166 1.949 3.006 2.001.839-.053 1.728-.711 3-2l7.994-8.02c3.754-3.17 1.334-4.603 0-6z" fill="url(#SVGID_9_)"/></g></g><g><path d="m36 28h-6v-23c0-.55.45-1 1-1h4c.55 0 1 .45 1 1z" fill="url(#SVGID_10_)"/><path d="m42 28h-6v-19c0-.55.45-1 1-1h4c.55 0 1 .45 1 1z" fill="url(#SVGID_11_)"/><path d="m30 28h-6v-21c0-.55.45-1 1-1h4c.55 0 1 .45 1 1z" fill="url(#SVGID_12_)"/><g><path d="m48 28h-6v-22c0-.55.45-1 1-1h4c.55 0 1 .45 1 1z" fill="url(#SVGID_13_)"/></g></g><path d="m49 32h-46c-.55 0-1-.45-1-1v-2c0-.55.45-1 1-1h46c.55 0 1 .45 1 1v2c0 .55-.45 1-1 1z" fill="url(#SVGID_14_)"/><path d="m125.002 38h-26.002c-.549 0-.998-.449-.998-.998v-23.004c0-.549.449-.998.998-.998h26.002c.549 0 .998.449.998.998v23.004c0 .549-.449.998-.998.998z" fill="url(#SVGID_15_)"/><path d="m102 17h20v17h-20z" fill="url(#SVGID_16_)"/><path d="m118 25-4 3-6-6-6 7v5h20v-5z" fill="url(#SVGID_17_)"/><g><path d="m88 28h-27c-.55 0-1-.45-1-1v-24c0-.55.45-1 1-1h27c.55 0 1 .45 1 1v24c0 .55-.45 1-1 1z" fill="url(#SVGID_18_)"/><path d="m64 6h21v18h-21z" fill="url(#SVGID_19_)"/><path d="m75 16c.139-.774 4.212-6.324 10 0v8h-10z" fill="url(#SVGID_20_)"/><path d="m64 15c2.111-2.896 8.708-5.688 13.933 2l5.067 7h-19z" fill="url(#SVGID_21_)"/></g><g><path d="m12 9c3 4 3 14 3 14h-3-3s0-10 3-14z" fill="url(#SVGID_22_)"/><path d="m6.002 28h11.996c.551 0 1.002-.451 1.002-1.002v-3.996c0-.551-.451-1.002-1.002-1.002h-11.996c-.551 0-1.002.451-1.002 1.002v3.996c0 .551.451 1.002 1.002 1.002z" fill="url(#SVGID_23_)"/><path d="m17 22s0-5 2-9c0 0-5 0-7 9 0 0 5.047 0 5 0z" fill="url(#SVGID_24_)"/><path d="m7 22s0-5-2-9c0 0 5 0 7 9z" fill="url(#SVGID_25_)"/></g></g><g fill="#3a322b"><path d="m3 33h46c1.103 0 2-.897 2-2v-2c0-1.103-.897-2-2-2v-21c0-1.103-.897-2-2-2h-4c-1.103 0-2 .897-2 2v1h-4v-2c0-1.103-.897-2-2-2h-4c-1.103 0-2 .897-2 2h-4c-1.103 0-2 .897-2 2v20h-3c0-.001 0-.001 0-.002v-3.996c0-1.088-.873-1.971-1.955-1.997.11-1.601.495-4.849 1.849-7.557.155-.31.138-.678-.044-.973s-.503-.475-.85-.475c-.135 0-2.008.043-3.991 1.862-.542-2.386-1.28-4.224-2.209-5.463-.378-.504-1.222-.504-1.6 0-.93 1.239-1.668 3.077-2.209 5.462-1.984-1.818-3.856-1.861-3.991-1.861-.347 0-.668.18-.851.474-.182.295-.199.663-.044.973 1.355 2.709 1.739 5.956 1.849 7.557-1.081.027-1.954.91-1.954 1.998v3.996.002h-1c-1.103 0-2 .897-2 2v2c0 1.103.897 2 2 2zm40-6v-14h4v14zm-6 0v-3h4v3zm-6 0v-12h4v12zm-6-8h4v2h-4zm16 3h-4v-2h4zm-6-9h-4v-2h4zm12-7v5h-4v-5zm-6 3v9h-4v-9zm-6-4v4h-4v-4zm-6 2v10h-4v-10zm-4 16h4v4h-4zm-7.759-8.359c-.855 2.517-1.121 5.017-1.203 6.359h-2.754c.534-1.91 1.206-3.301 1.902-4.311.03-.037.054-.076.079-.117.678-.953 1.372-1.553 1.976-1.931zm-5.241-3.652c.561 1.232 1.021 2.885 1.362 4.86-.484.744-.948 1.617-1.362 2.678-.415-1.06-.878-1.934-1.362-2.678.341-1.975.8-3.628 1.362-4.86zm-3.264 5.585c.024.04.047.078.077.114.697 1.009 1.369 2.401 1.903 4.312h-2.754c-.083-1.342-.348-3.841-1.202-6.356.604.378 1.299.978 1.976 1.93zm-2.736 10.424.002-3.998 11.998.002-.004 3.998h-11.986c-.004 0-.007-.002-.01-.002zm-3 2.002h46l-.003 2h-45.997z"/><path d="m125.002 12h-26.002c-1.102 0-1.998.896-1.998 1.998v23.004c0 1.102.896 1.998 1.998 1.998h26.002c1.102 0 1.998-.896 1.998-1.998v-23.004c0-1.102-.896-1.998-1.998-1.998zm-.004 25-25.996.002-.002-23.002 26-.002z"/><path d="m102 35h20c.552 0 1-.448 1-1v-17c0-.552-.448-1-1-1h-20c-.552 0-1 .448-1 1v17c0 .552.448 1 1 1zm1-2v-3.63l5.057-5.899 5.236 5.236c.351.352.909.392 1.307.093l3.306-2.479 3.094 3.093v3.586zm18-15v8.586l-2.293-2.293c-.352-.352-.909-.392-1.307-.093l-3.306 2.479-5.387-5.387c-.197-.197-.458-.304-.746-.292-.278.01-.54.137-.721.348l-4.24 4.949v-8.297z"/><path d="m61 29h27c1.103 0 2-.897 2-2v-24c0-1.103-.897-2-2-2h-27c-1.103 0-2 .897-2 2v24c0 1.103.897 2 2 2zm0-26h27l-.003 24h-26.997z"/><path d="m85 5h-21c-.552 0-1 .448-1 1v18c0 .552.448 1 1 1h21c.552 0 1-.448 1-1v-18c0-.552-.448-1-1-1zm-1 2v6.717c-1.418-1.097-2.854-1.676-4.289-1.706-1.608-.046-2.891.632-3.743 1.283-2.121-1.763-4.189-2.241-5.746-2.267-2.007-.034-3.836.683-5.222 1.659v-5.686zm-19 8.36c.99-1.189 2.93-2.368 5.188-2.333 2.538.042 4.93 1.61 6.935 4.56l3.919 5.413h-16.042zm18.511 7.64-4.75-6.562c-.443-.652-.894-1.221-1.346-1.73.559-.384 1.317-.728 2.255-.698 1.377.029 2.833.841 4.331 2.395v6.595z"/><path d="m119.069 68.003c-2.434-.188-4.864.604-7.019 2.195l-1.061-15.343c-1.077-7.329-7.521-12.855-14.989-12.855h-64c-7.468 0-13.912 5.526-14.998 12.931l-1.054 15.277c-2.159-1.599-4.596-2.396-7.032-2.205-4.923.375-8.107 5.208-7.923 12.024.182 6.732 2.972 16.32 7.109 24.428 1.763 3.456 3.922 5.173 6.891 5.481v1.074c0 2.044 1.55 3.714 3.533 3.944l-3.431 7.637c-.047.105-.076.219-.085.334-.016.208-.123 2.067.943 3.217.521.562 1.231.858 2.054.858 1.307 0 2.927-.292 3.898-2.556l5.39-9.444h72.852l4.924 9.385c.967 2.317 2.604 2.615 3.923 2.615.823 0 1.533-.297 2.054-.858 1.066-1.15.959-3.009.943-3.217-.008-.102-.031-.201-.069-.296l-3.054-7.629h.135c2.2 0 3.99-1.79 3.99-3.99v-1.074c2.969-.309 5.127-2.026 6.891-5.481 4.137-8.108 6.928-17.697 7.109-24.428.183-6.817-3.001-11.649-7.924-12.024zm-87.069-24.003h64c6.483 0 12.076 4.792 13.002 11.069l1.159 16.807c-.725.765-1.402 1.626-2.013 2.588-1.06 1.668-1.873 3.884-2.428 5.706-.56-.109-1.137-.17-1.728-.17h-15.581c.099-.097.196-.191.297-.293l7.909-7.94c.029-.023.063-.033.09-.06.017-.017.022-.039.038-.057 1.475-1.273 2.217-2.463 2.254-3.633.047-1.48-.985-2.471-1.814-3.267-.162-.155-.321-.308-.467-.46-.005-.006-.011-.011-.016-.017l-7.976-7.975c-1.322-1.417-2.404-2.298-3.639-2.298-.021 0-.042 0-.064.001-1.318-.051-2.406.864-3.736 2.292l-8.016 8.017c-.145.152-.304.304-.466.459-.83.796-1.862 1.787-1.815 3.267.038 1.2.81 2.419 2.297 3.671l7.995 7.996c.102.104.202.2.302.298h-15.593c-.767 0-1.467.29-1.998.765-.531-.476-1.232-.766-1.998-.766h-15.584c.099-.097.196-.191.297-.293l7.909-7.94c.029-.023.063-.033.09-.06.017-.017.022-.039.038-.057 1.475-1.273 2.217-2.463 2.254-3.633.047-1.48-.985-2.471-1.814-3.267-.162-.155-.321-.308-.467-.46-.005-.006-.011-.011-.016-.017l-7.976-7.975c-1.322-1.417-2.404-2.298-3.639-2.298-.021 0-.042 0-.064.001-1.305-.051-2.406.864-3.736 2.292l-8.016 8.017c-.145.152-.304.304-.466.459-.83.796-1.862 1.787-1.815 3.267.038 1.2.81 2.419 2.297 3.671l7.995 7.996c.102.104.202.2.302.298h-15.591c-.591 0-1.168.061-1.728.17-.555-1.822-1.368-4.038-2.428-5.706-.607-.956-1.28-1.812-2-2.573l1.152-16.745c.935-6.355 6.528-11.147 13.011-11.147zm-8.007 38h18.992.016s.01 0 .016 0h18.979c.55 0 .998.448.998.998v7.004c0 .55-.448.998-.998.998h-43.003c-1.103 0-2-.897-2-2 0-3.86 3.14-7 7-7zm30.02-12.401-12.609-12.609c.711-.683 1.205-.99 1.603-.99h.017c.521.004 1.143.488 2.264 1.688l7.992 7.992c.162.169.339.34.52.513.627.602 1.219 1.17 1.2 1.761-.011.323-.21.849-.987 1.645zm-14.016-11.188 12.578 12.578-6.575 6.597-12.589-12.589zm-8.007 7.993 12.584 12.584c-.559.509-1.136.945-1.574 1.008-.635-.091-1.556-.951-2.299-1.704l-8.062-8.057c-1.341-1.132-1.638-1.855-1.65-2.263-.017-.527.454-1.036 1.001-1.568zm33.003 16.594c0-.55.448-.998.998-.998h18.994.016s.01 0 .016 0h18.977c3.86 0 7 3.14 7 7 0 1.103-.897 2-2 2h-43.003c-.55 0-.998-.448-.998-.998zm31.02-13.399-12.609-12.609c.711-.683 1.205-.99 1.603-.99h.032c.472 0 1.139.5 2.248 1.688l7.992 7.992c.162.169.339.34.52.513.627.602 1.219 1.17 1.2 1.761-.01.323-.209.849-.986 1.645zm-14.016-11.188 12.578 12.578-6.575 6.597-12.589-12.589zm-8.007 7.993 12.584 12.584c-.559.509-1.136.945-1.574 1.008-.635-.091-1.556-.951-2.299-1.704l-8.062-8.057c-1.341-1.132-1.638-1.855-1.65-2.263-.017-.527.454-1.036 1.001-1.568zm-53.852 57.1c-.02.036-.039.072-.054.11-.537 1.286-1.199 1.385-2.077 1.385-.339 0-.491-.115-.585-.216-.351-.376-.423-1.155-.422-1.553l3.697-8.23h4.295zm89.864-.291c.004.424-.085 1.206-.421 1.568-.094.102-.246.218-.587.218-.878 0-1.541-.099-2.114-1.464l-4.475-8.535h4.308zm-.999-10.213h-88.927c-.002 0-.004 0-.006 0h-1.088c-1.097 0-1.99-.893-1.99-1.99v-1.01h94v1.01c.001 1.097-.892 1.99-1.989 1.99zm9.099-9.455c-1.636 3.206-3.349 4.455-6.109 4.455h-96c-2.761 0-4.474-1.249-6.109-4.455-3.95-7.741-6.719-17.214-6.891-23.572-.153-5.678 2.289-9.687 6.077-9.976 3.308-.245 6.716 1.817 9.08 5.539.976 1.537 1.739 3.695 2.209 5.238-3.155 1.4-5.365 4.558-5.365 8.226 0 2.206 1.794 4 4 4h43.002c.767 0 1.467-.29 1.998-.765.529.475 1.23.765 1.997.765h43.002c2.206 0 4-1.794 4-4 0-3.668-2.209-6.826-5.365-8.226.47-1.542 1.233-3.701 2.209-5.238 2.364-3.722 5.762-5.792 9.08-5.539 3.788.289 6.229 4.298 6.077 9.976-.172 6.357-2.942 15.83-6.892 23.572z"/></g></g></svg>