<svg id="Flat" height="512" viewBox="0 0 64 64" width="512" xmlns="http://www.w3.org/2000/svg"><path d="m34.23 11.34c-.7 0-1.28.57-1.28 1.27v-3.54c-5.21.75-8.5-3.97-8.5-3.97-.85 2.55-3.4 3.97-3.4 3.97v3.54c0-.7-.58-1.27-1.28-1.27s-1.27.57-1.27 1.27v2.99c0 .7.57 1.27 1.27 1.27s1.28-.57 1.28-1.27v-.24c0 1.66.67 3.17 1.75 4.27.65.66 1.45 1.17 2.34 1.47-.05.69-.17 1.39-.39 2.04-.34 1.06-1.23 1.73-2.35 2.17.58.43 1.45 1.87 2.77 2.2 0 0 1 5 2 7 1-2 2-7 2-7 1.32-.33 2.19-1.77 2.77-2.2-1.12-.44-2.01-1.11-2.35-2.17-.23-.69-.36-1.43-.4-2.16.76-.31 1.44-.77 2.01-1.35 1.08-1.1 1.75-2.61 1.75-4.27v.24c0 .7.58 1.27 1.28 1.27s1.27-.57 1.27-1.27v-2.99c0-.7-.57-1.27-1.27-1.27z" fill="#ffd5c2"/><path d="m40.86 38.16c-.51-2.21-1.53-6.62-2.16-9.33-.32-1.41-1.48-2.47-2.91-2.66-1.29-.17-2.69-.39-3.85-.86-.58.43-1.45.87-2.77 1.2 0 0-1 5-2 7-1-2-2-7-2-7-1.32-.33-2.19-.77-2.77-1.2-1.16.47-2.56.69-3.85.86-1.43.19-2.59 1.25-2.91 2.66-.63 2.71-1.65 7.12-2.16 9.33-.15.66.4 1.28 1.08 1.21l2.66-.27.68 10.64v.01l.174 2.62c.54.04 2.076.58 2.076.58.61-.12 1.24-.24 1.88-.35 1.66-.31 3.38-.62 4.92-.93.04-.01.07-.01.1-.02.06-.01.11-.02.16-.03 1.62-.34 3.28-.67 4.92-.51.11 0 .22.02.33.03 1.21.15 2.35.58 3.51.96l.03-1.1 1.12-11.9 2.66.27c.68.07 1.23-.55 1.08-1.21z" fill="#6871d8"/><path d="m41 58v5h-22s.34-3.7.45-5h18.05z" fill="#6871d8"/><path d="m59.963 55.481c-1.12-.82-2.23-1.63-3.35-2.45-.83-.61-1.7-1.26-2.18-2.18-.41-.8-.49-1.74-.88-2.55-.23-.47-.57-.9-1.03-1.13-.46-.24-1.05-.25-1.47.06-.21.15-.35.34-.45.57-2.87-.28-6.153 1.659-8.003 3.869-1.26 1.21-3.42.26-5.12-.13-.51-.12-1.01-.28-1.51-.44-1.16-.38-2.3-.81-3.51-.96-.11-.01-.22-.03-.33-.03-1.64-.16-3.3.17-4.92.51-.05.01-.1.02-.16.03-.03.01-.06.01-.1.02-1.54.31-3.26.62-4.92.93-.64.11-1.27.23-1.88.35h-.01c-.529.809-.63 1.513-.69 2.05-.142 1.267-.302 2.926 1 5h20.55l7.66-1.91c.054.365.6.91.92.91h11.06c.06 0 .13 0 .19.01l.01-1.32c-.121-.406-.547-.959-.877-1.209z" fill="#ffd5c2"/><path d="m33.01 3.49c-1.53-1.54-3.66-2.49-6.01-2.49-2.54 0-4.82 1.11-6.38 2.88-.54-.42-1.12-.75-1.79-.78-1.2-.04-2.18.91-2.95 1.84-.83.99-1.65 2.23-1.32 3.47.23.87 1.02 1.54 1.9 1.72.69.14 1.41.01 2.04-.29v3.77c0-.7.57-1.27 1.27-1.27s1.28.57 1.28 1.27v-2.993c0-.325.154-.632.422-.816.575-.396 1.62-1.22 2.37-2.422.341-.547 1.096-.648 1.549-.189 1.198 1.212 3.483 2.997 6.535 2.96.561-.007 1.024.433 1.024.994v2.466c0-.7.58-1.27 1.28-1.27s1.27.57 1.27 1.27v-4.11c0-2.34-.95-4.47-2.49-6.01z" fill="#212647"/><g><path d="m23.222 13.172c-.162 0-.32-.078-.417-.223-.153-.23-.091-.541.139-.693.058-.038 1.427-.929 2.822 0 .23.153.292.463.139.693-.153.229-.464.291-.693.139-.847-.566-1.705-.006-1.712 0-.087.057-.183.084-.278.084z" fill="#212647"/></g><g><path d="m27.057 18.324c-.991 0-1.735-.343-1.782-.365-.249-.118-.355-.414-.239-.664.117-.25.414-.356.664-.242.013.006 1.328.599 2.598.001.249-.119.547-.011.666.239.118.25.011.547-.239.666-.58.273-1.157.365-1.668.365z" fill="#fcad95"/></g><g><path d="m30.778 13.172c-.095 0-.191-.027-.277-.084-.832-.556-1.68-.021-1.715.002-.229.148-.54.085-.691-.145s-.089-.537.139-.689c.058-.039 1.428-.929 2.822 0 .229.153.292.463.139.693-.096.145-.255.223-.417.223z" fill="#212647"/></g><g><path d="m39.993 56.686c-.045.617-.314 1.174-.723 1.584-.45.45-1.08.73-1.77.73h-.25c0-.14.11-.25.25-.25.6 0 1.17-.23 1.59-.66.507-.496.736-1.2.637-1.916-.156-1.128-1.201-1.924-2.34-1.924h-16.917c0-.08-.01-.17-.02-.25h16.855c1.478 0 2.797 1.213 2.688 2.686z" fill="#fcad95"/></g><path d="m20.45 59c-.11 1.3-.28 2.63-.46 4h-18.99s.13-7.39.09-11.14c-.01-.91.71-1.67 1.63-1.7l12.11-.45c1.02-.03 2.05-.04 3.07.04h.06c.54.04 1.08.15 1.47.51.41.38.56.96.68 1.51.01.06.03.12.03.18.15.69.25 1.37.31 2.05.18 1.68.14 3.33 0 5z" fill="#ff9700"/><path d="m29.21 21.24c-.68.27-1.43.42-2.21.42-.66 0-1.3-.11-1.89-.3.02-.09.02-.17.03-.26.58.2 1.21.31 1.86.31.78 0 1.51-.15 2.19-.43 0 .09.01.17.02.26z" fill="#fcad95"/><g><path d="m22.169 38.487.846-.092-.973-4.865c-.014-.067.03-.133.098-.147.071-.011.134.031.147.098l1 5c.007.035-.001.07-.022.099s-.053.047-.088.05l-.924.09z" fill="#212647"/></g><g><path d="m32.089 38.707-.936-.076c-.035-.003-.067-.022-.088-.05s-.029-.064-.022-.099l1-5c.013-.067.076-.11.147-.098.068.014.112.08.098.147l-.973 4.865.876.076z" fill="#212647"/></g><g fill="#ffd5c2"><path d="m36.88 39.08-4.75-.47-3.53 8.89c-.65.03-1.21.52-1.32 1.18l-.23 1.97c.06-.01.11-.02.16-.03 1.62-.34 3.28-.67 4.92-.51l.1-.7c.04-.25.01-.49-.08-.7z"/><path d="m25.7 48.26v-.01l-3.49-9.64-4.75.47 4.6 10.05h.01c-.21.28-.3.64-.25 1.01l.21 1.46c1.66-.31 3.38-.62 4.92-.93l-.19-1.26c-.08-.59-.52-1.03-1.06-1.15z"/></g><g fill="#fcad95"><path d="m26.91 50.43.04.24c-1.54.31-3.26.62-4.92.93l-.04-.26 1.23-.22c1.27-.23 2.53-.47 3.69-.69z"/><path d="m32.16 49.9-.03.21c-1.64-.16-3.3.17-4.92.51-.05.01-.1.02-.16.03l.03-.25c.03-.01.05-.01.08-.02 1.8-.38 3.3-.65 4.86-.54.05 0 .1.03.14.06z"/></g><path d="m58.61 44.05c-.63-.78-1.36-1.52-2.21-2.04.24-.29.43-.62.57-.97.29-.74.36-1.55.4-2.35.05-.88.02-1.83-.54-2.51-.62-.76-1.73-.92-2.72-.86-1.09.07-2.2.35-3.1.98s-1.58 1.64-1.64 2.73c-.04.77.26 1.57.8 2.11-.43.07-.85.2-1.22.43-.68.43-1.11 1.16-1.52 1.85-1.56 2.67-3.13 5.34-4.69 8l-.14.25c1.85-2.21 4.89-3.43 7.76-3.15.1-.23.24-.42.45-.57.42-.31 1.01-.3 1.47-.06.46.23.8.66 1.03 1.13.39.81.47 1.75.88 2.55.48.92 1.35 1.57 2.18 2.18 1.12.82 2.23 1.63 3.35 2.45.33.25.71.5 1.12.49.43-.02.8-.35.99-.73.19-.39.23-.83.25-1.26.17-3.81-1.09-7.67-3.47-10.65z" fill="#212647"/><g><path d="m48.88 51.705c-.063 0-.117-.047-.124-.111-.008-.068.042-.13.11-.138.634-.071.963-.843 1.06-1.543l.033-.226c.097-.671.206-1.431.779-1.839.436-.321 1.065-.349 1.6-.069.436.218.812.628 1.084 1.186.03.062.004.137-.058.167s-.137.004-.167-.058c-.173-.354-.483-.828-.974-1.073-.447-.233-.984-.212-1.34.049-.487.347-.584 1.021-.678 1.672l-.033.226c-.109.791-.503 1.669-1.28 1.755-.003.002-.008.002-.012.002z" fill="#fcad95"/></g><path d="m63 59.36v3.64h-18v-1.42c0-2.21 1.57-4.06 3.66-4.49.3-.06.6-.09.92-.09h11.06c.06 0 .13 0 .19.01 1.21.1 2.17 1.11 2.17 2.35z" fill="#6871d8"/></svg>