<svg id="Layer_5" enable-background="new 0 0 64 64" height="512" viewBox="0 0 64 64" width="512" xmlns="http://www.w3.org/2000/svg"><g><g><path d="m2 42h60v16h-60z" fill="#aab2bd"/><path d="m15 58-1 4h-8l-1-4z" fill="#838f9b"/><path d="m59 58-1 4h-8l-1-4z" fill="#838f9b"/><path d="m2 46h12v8h-12z" fill="#fcd770"/><path d="m50 46h12v8h-12z" fill="#fcd770"/><circle cx="40" cy="50" fill="#a0d468" r="4"/><circle cx="24" cy="50" fill="#a0d468" r="4"/><path d="m58 28h-52l-4 14h60z" fill="#ccd1d9"/><path d="m47.98 28c-.27-6.02-2.98-6.3-2.98-12 0 0-.98-.16-2.15.3-.73-5.79-3.85-4.58-3.85-14.3 0 0-7 0-7 13v2c0-13-7-13-7-13 0 8.74-2.53 8.64-3.56 12.75-1.29-.75-2.44-.75-2.44-.75 0 5.7-2.71 5.98-2.98 12-.01.32-.02.65-.02 1 0 .85.08 1.63.24 2.36.62 3.02 2.47 5.01 4.95 5.97l.22.09v.03c2.8.32 6.01.51 9.45.54-.03 0-.06 0-.09-.01-1.56-.07-2.96-.73-3.99-1.76-1.1-1.1-1.78-2.62-1.78-4.3 0-1.25.38-2.47 1.1-3.49l1.25-1.79 4.65-6.64 4.65 6.64 1.25 1.79c.72 1.02 1.1 2.24 1.1 3.49 0 3.26-2.55 5.91-5.77 6.06-.03.01-.06.01-.09.01 3.36-.03 6.51-.22 9.26-.51.01-.01.02-.01.02-.01 2.68-.9 4.7-2.94 5.34-6.12.16-.72.24-1.51.24-2.35 0-.35-.01-.68-.02-1z" fill="#ff826e"/><path d="m36 34.92c0-.64-.19-1.25-.56-1.77l-3.44-4.92-3.44 4.92c-.37.52-.56 1.13-.56 1.77 0 1.59 1.21 2.91 2.77 3.06-1.56-.07-2.96-.73-3.99-1.76-1.1-1.1-1.78-2.62-1.78-4.3 0-1.25.38-2.47 1.1-3.49l1.25-1.79 4.65-6.64 4.65 6.64 1.25 1.79c.72 1.02 1.1 2.24 1.1 3.49 0 3.26-2.55 5.91-5.77 6.06 1.56-.15 2.77-1.47 2.77-3.06z" fill="#fc6e51"/><path d="m36 34.92c0 1.59-1.21 2.91-2.77 3.06-.03.01-.06.01-.09.01-.02 0-.05 0-.07 0-.35.01-.71.01-1.07.01s-.72 0-1.07-.01c-.02 0-.05 0-.07 0-.03 0-.06 0-.09-.01-1.56-.15-2.77-1.47-2.77-3.06 0-.64.19-1.25.56-1.77l3.44-4.92 3.44 4.92c.37.52.56 1.13.56 1.77z" fill="#e9573f"/><g fill="#e6e9ed"><path d="m21.41 37.45c-6.23-.69-10.41-1.98-10.41-3.45 0-1.01 1.98-1.94 5.24-2.64.62 3.02 2.47 5.01 4.95 5.97l.22.09z"/><path d="m47.76 31.35c3.26.71 5.24 1.64 5.24 2.65 0 1.49-4.26 2.78-10.58 3.47 2.68-.9 4.7-2.94 5.34-6.12z"/></g></g><g><path d="m63 42-4.246-15h-9.854c-.247-2.568-.943-4.109-1.579-5.482-.709-1.532-1.321-2.854-1.321-5.518v-.847l-.835-.14c-.048-.008-.663-.099-1.511.041-.378-1.84-1.015-2.961-1.636-4.042-.993-1.722-2.018-3.503-2.018-9.012v-1h-1c-.267 0-5.433.11-7.318 7.69-2.208-5.596-6.441-5.69-6.682-5.69h-1v1c0 5.509-1.025 7.29-2.017 9.013-.407.707-.822 1.436-1.168 2.373-1.021-.371-1.792-.386-1.815-.386h-1v1c0 2.664-.612 3.986-1.321 5.518-.636 1.373-1.332 2.914-1.579 5.482h-9.854l-4.207 14.726-.039 17.274h3.219l1 4h9.562l1-4h32.438l1 4h9.562l1-4h3.219zm-14.528-9.449c2.393.601 3.297 1.195 3.5 1.453-.359.532-2.187 1.242-5.317 1.838.813-.927 1.425-2.032 1.817-3.291zm-29.978-10.194c.641-1.383 1.3-2.808 1.466-5.176 1.459.46 4.04 2.084 4.04 7.819h2c0-4.871-1.683-7.367-3.398-8.649.3-.904.681-1.587 1.115-2.341.996-1.729 2.115-3.675 2.267-8.801 1.71.602 5.016 2.909 5.016 11.791h2v-2c0-8.89 3.312-11.194 5.017-11.791.151 5.127 1.271 7.071 2.267 8.802.62 1.077 1.164 2.027 1.468 3.725-.279.161-.559.347-.836.582-1.935 1.638-2.916 4.559-2.916 8.682h2c0-3.434.753-5.899 2.178-7.131.652-.564 1.339-.781 1.851-.859.146 2.473.821 3.932 1.477 5.348.768 1.66 1.494 3.227 1.494 6.642 0 3.766-1.72 6.421-4.838 7.495-1.271.137-2.657.253-4.157.338 1.232-1.275 1.995-3.007 1.995-4.916 0-1.461-.443-2.865-1.28-4.061l-6.72-9.6-6.719 9.6c-.838 1.196-1.281 2.6-1.281 4.061 0 1.909.763 3.641 1.995 4.916-1.53-.087-2.94-.206-4.232-.347l-.212-.089c-2.934-1.135-4.551-3.762-4.551-7.397 0-3.415.726-4.982 1.494-6.643zm18.506 12.559c0-.842-.255-1.651-.738-2.339l-4.262-6.09-4.262 6.09c-.482.688-.738 1.497-.738 2.339-.621-.843-1-1.874-1-2.999 0-1.049.318-2.056.919-2.914l5.081-7.259 5.082 7.26c.6.857.918 1.864.918 2.913 0 1.125-.379 2.156-1 2.999zm-6.014 2.074c-1.102-.052-1.986-.958-1.986-2.073 0-.429.13-.841.376-1.192l2.624-3.749 2.624 3.749c.246.35.376.762.376 1.192 0 1.115-.884 2.021-1.986 2.073-.339.003-.667.01-1.014.01s-.675-.007-1.014-.01zm-13.662-1.152c-3.117-.595-4.938-1.302-5.296-1.834.204-.257 1.109-.852 3.508-1.454.392 1.25.984 2.364 1.788 3.288zm-10.57-6.838h8.246c0 .551.034 1.086.098 1.603-3.456.857-5.098 1.944-5.098 3.397 0 4.403 16.213 4.932 20.934 4.992.05.001.098.008.149.008h1.834c.05 0 .099-.007.149-.008 4.721-.06 20.934-.589 20.934-4.992 0-1.454-1.643-2.542-5.101-3.398.064-.517.101-1.049.101-1.602h8.246l3.429 12h-57.349zm-3.754 18h10v6h-10zm10.219 14h-6.438l-.5-2h7.438zm44 0h-6.438l-.5-2h7.438zm-54.219-4v-2h12v-10h-12v-2h58v2h-12v10h12v2zm58-10v6h-10v-6z"/><path d="m40 45c-2.757 0-5 2.243-5 5s2.243 5 5 5 5-2.243 5-5-2.243-5-5-5zm0 8c-1.654 0-3-1.346-3-3 0-1.302.839-2.402 2-2.816v3.816h2v-3.816c1.161.414 2 1.514 2 2.816 0 1.654-1.346 3-3 3z"/><path d="m24 45c-2.757 0-5 2.243-5 5s2.243 5 5 5 5-2.243 5-5-2.243-5-5-5zm0 8c-1.654 0-3-1.346-3-3 0-1.302.839-2.402 2-2.816v3.816h2v-3.816c1.161.414 2 1.514 2 2.816 0 1.654-1.346 3-3 3z"/><path d="m57 49h2v2h-2z"/><path d="m53 49h2v2h-2z"/><path d="m5 49h2v2h-2z"/><path d="m9 49h2v2h-2z"/></g></g></svg>