<?xml version="1.0" encoding="UTF-8" standalone="no"?>
<!-- Created with Inkscape (http://www.inkscape.org/) -->

<svg
   version="1.1"
   id="svg5337"
   xml:space="preserve"
   width="682.66669"
   height="682.66669"
   viewBox="0 0 682.66669 682.66669"
   xmlns="http://www.w3.org/2000/svg"
   xmlns:svg="http://www.w3.org/2000/svg"><defs
     id="defs5341"><clipPath
       clipPathUnits="userSpaceOnUse"
       id="clipPath5351"><path
         d="M 0,512 H 512 V 0 H 0 Z"
         id="path5349" /></clipPath></defs><g
     id="g5343"
     transform="matrix(1.3333333,0,0,-1.3333333,0,682.66667)"><g
       id="g5345"><g
         id="g5347"
         clip-path="url(#clipPath5351)"><g
           id="g5353"
           transform="translate(411.6484,103.501)"><path
             d="m 0,0 -17.152,-6.013 c 0,-9.472 7.679,-17.152 17.152,-17.152 9.473,0 17.151,7.68 17.151,17.152 z"
             style="fill:#efedff;fill-opacity:1;fill-rule:nonzero;stroke:none"
             id="path5355" /></g><g
           id="g5357"
           transform="translate(377.3437,103.501)"><path
             d="m 0,0 -17.151,-6.013 c 0,-9.472 7.678,-17.152 17.151,-17.152 9.474,0 17.152,7.68 17.152,17.152 z"
             style="fill:#d4d4ff;fill-opacity:1;fill-rule:nonzero;stroke:none"
             id="path5359" /></g><g
           id="g5361"
           transform="translate(340.627,153.6396)"><path
             d="m 0,0 c -4.676,-10.723 -4.868,-19.142 -4.868,-26.688 0,-9.168 7.432,-16.602 16.6,-16.602 h 42.137 l 0.002,43.291 z"
             style="fill:#ffbf9d;fill-opacity:1;fill-rule:nonzero;stroke:none"
             id="path5363" /></g><g
           id="g5365"
           transform="translate(394.498,153.6406)"><path
             d="m 0,0 -0.002,-43.291 h 42.145 c 9.168,0 16.6,7.434 16.6,16.602 0,9.319 -0.593,16.882 -4.868,26.689 z"
             style="fill:#ffd4bd;fill-opacity:1;fill-rule:nonzero;stroke:none"
             id="path5367" /></g><g
           id="g5369"
           transform="translate(360.1924,126.9512)"><path
             d="M 0,0 V -29.463 H 34.295 68.607 V 0 L 34.862,11.396 Z"
             style="fill:#9ea2e3;fill-opacity:1;fill-rule:nonzero;stroke:none"
             id="path5371" /></g><g
           id="g5373"
           transform="translate(422.1699,126.9512)"><path
             d="m 0,0 h -61.978 v -29.463 h 34.295 v 1.931 C -27.683,-12.244 -15.289,0 0,0"
             style="fill:#8288cb;fill-opacity:1;fill-rule:nonzero;stroke:none"
             id="path5375" /></g><g
           id="g5377"
           transform="translate(414.2451,185.5703)"><path
             d="m 0,0 c -6.199,2.219 -12.871,3.418 -19.746,3.418 -6.927,0 -13.572,-1.206 -19.748,-3.418 -14.959,-5.357 -27.524,-16.792 -34.124,-31.931 5.828,-5.123 12.587,-10.026 19.565,-14.18 v -12.508 h 68.608 v 12.504 c 6.98,4.155 13.743,9.06 19.573,14.185 C 27.774,-17.36 15.542,-5.564 0,0"
             style="fill:#7ce3ff;fill-opacity:1;fill-rule:nonzero;stroke:none"
             id="path5379" /></g><g
           id="g5381"
           transform="translate(394.499,188.9883)"><path
             d="m 0,0 c -6.927,0 -13.572,-1.206 -19.748,-3.418 -14.959,-5.356 -27.523,-16.792 -34.124,-31.931 5.828,-5.123 12.587,-10.026 19.565,-14.181 v -9.212 -3.295 h 10.015 v 3.295 c 0.028,25.524 15.259,47.488 37.125,57.324 C 8.684,-0.489 4.384,0 0,0"
             style="fill:#55dafe;fill-opacity:1;fill-rule:nonzero;stroke:none"
             id="path5383" /></g><g
           id="g5385"
           transform="translate(394.499,391.8066)"><path
             d="m 0,0 -109.999,-110.001 49.3,-67.4 c 18.768,-25.661 48.653,-40.827 80.445,-40.827 3.768,0.684 7.468,1.559 11.092,2.616 45.74,13.333 79.163,55.566 79.163,105.611 z"
             style="fill:#ffd4bd;fill-opacity:1;fill-rule:nonzero;stroke:none"
             id="path5387" /></g><g
           id="g5389"
           transform="translate(320.9639,281.8057)"><path
             d="m 0,0 h -36.464 c 0,-50.045 33.423,-92.277 79.162,-105.611 9.785,-2.853 20.131,-4.388 30.837,-4.388 6.643,0 13.235,0.59 19.746,1.772 C 41.209,-99.539 0,-54.539 0,0"
             style="fill:#ffbf9d;fill-opacity:1;fill-rule:nonzero;stroke:none"
             id="path5391" /></g><g
           id="g5393"
           transform="translate(486.4736,342.167)"><path
             d="m 0,0 -28.124,-14.211 -8.684,-25.287 C -21.934,-52.517 -2.452,-60.352 18.026,-60.354 18.024,-38.066 11.396,-17.326 0,0"
             style="fill:#e8b5b1;fill-opacity:1;fill-rule:nonzero;stroke:none"
             id="path5395" /></g><g
           id="g5397"
           transform="translate(483.6387,381.292)"><path
             d="m 0,0 c -7.079,-4.628 -14.58,-8.65 -22.437,-12.01 -4.73,3.613 -9.763,6.851 -15.053,9.669 l -131.36,-21.342 22.871,-70.785 c 0.965,-2.99 3.75,-5.016 6.894,-5.014 l 39.772,0.019 C -44.775,-98.434 0.574,-61.06 14.882,-10.905 17.389,-2.119 7.648,5 0,0"
             style="fill:#d6948c;fill-opacity:1;fill-rule:nonzero;stroke:none"
             id="path5399" /></g><g
           id="g5401"
           transform="translate(412.7314,390.3027)"><path
             d="m 0,0 c -5.931,0.988 -12.021,1.504 -18.232,1.504 -31.369,0 -59.672,-13.133 -79.711,-34.197 -18.769,-19.731 -30.288,-46.421 -30.288,-75.803 l 60.053,0.003 c -4.779,7.207 -5.894,16.131 -3.649,24.482 5.612,20.876 18.258,38.948 35.508,51.331 11.284,8.101 24.532,13.771 39.069,16.196 l 30.667,5.132 C 23.14,-5.874 11.896,-1.984 0,0"
             style="fill:#ce857a;fill-opacity:1;fill-rule:nonzero;stroke:none"
             id="path5403" /></g><g
           id="g5405"
           transform="translate(359.4824,237.7246)"><path
             d="m 0,0 c 0,-9.006 -9.167,-16.307 -20.476,-16.307 -11.308,0 -20.476,7.301 -20.476,16.307 0,9.005 9.168,16.306 20.476,16.306 C -9.167,16.306 0,9.005 0,0"
             style="fill:#ff8e9e;fill-opacity:1;fill-rule:nonzero;stroke:none"
             id="path5407" /></g><g
           id="g5409"
           transform="translate(429.5176,237.7246)"><path
             d="m 0,0 c 0,-9.006 9.167,-16.307 20.476,-16.307 11.308,0 20.475,7.301 20.475,16.307 0,9.005 -9.167,16.306 -20.475,16.306 C 9.167,16.306 0,9.005 0,0"
             style="fill:#ff8e9e;fill-opacity:1;fill-rule:nonzero;stroke:none"
             id="path5411" /></g><g
           id="g5413"
           transform="translate(142.5,108.6191)"><path
             d="m 0,0 v -11.966 c 0,-9.012 7.306,-16.317 16.317,-16.317 9.012,0 16.317,7.305 16.317,16.317 V 0 L 16.317,10.878 Z"
             style="fill:#ffddcf;fill-opacity:1;fill-rule:nonzero;stroke:none"
             id="path5415" /></g><g
           id="g5417"
           transform="translate(109.8657,108.6191)"><path
             d="m 0,0 v -11.966 c 0,-9.012 7.306,-16.317 16.317,-16.317 9.012,0 16.317,7.305 16.317,16.317 V 0 L 16.317,10.878 Z"
             style="fill:#ffcbbe;fill-opacity:1;fill-rule:nonzero;stroke:none"
             id="path5419" /></g><g
           id="g5421"
           transform="translate(47.6875,429.4824)"><path
             d="M 0,0 C -7.112,4.358 -16.424,1.973 -20.595,-5.251 L -38.17,-35.693 c -5.009,-8.676 -0.261,-19.834 9.513,-22.029 20.075,-4.508 37.741,-15.38 50.783,-30.377 l 23.177,2.433 c 0.074,1.538 0.112,3.085 0.112,4.641 C 45.415,-46.735 27.24,-16.694 0,0"
             style="fill:#676fb2;fill-opacity:1;fill-rule:nonzero;stroke:none"
             id="path5423" /></g><g
           id="g5425"
           transform="translate(275.4829,393.7783)"><path
             d="m 0,0 -17.576,30.442 c -4.17,7.224 -13.483,9.61 -20.594,5.251 -27.241,-16.694 -45.415,-46.735 -45.415,-81.024 0,-1.541 0.037,-3.073 0.109,-4.596 l 23.203,-2.453 c 13.04,14.985 30.696,25.846 50.759,30.352 C 0.261,-19.833 5.009,-8.676 0,0"
             style="fill:#676fb2;fill-opacity:1;fill-rule:nonzero;stroke:none"
             id="path5427" /></g><g
           id="g5429"
           transform="translate(187.0259,126.1543)"><path
             d="M 0,0 11.741,21.893 C 9.759,30.564 5.851,38.501 0.499,45.221 -7.807,55.65 -19.593,63.147 -33.064,65.896 c -8.349,0 -16.447,-2.847 -22.958,-8.073 L -100.792,21.893 -89.051,0 h -0.001 l -1.543,-2.314 c -4.336,-6.507 0.328,-15.221 8.147,-15.221 h 75.844 c 7.819,0 12.483,8.715 8.146,15.221 z"
             style="fill:#ffb5c0;fill-opacity:1;fill-rule:nonzero;stroke:none"
             id="path5431" /></g><g
           id="g5433"
           transform="translate(198.7666,148.0469)"><path
             d="m 0,0 c 0,0 0,0 0,0 -7.029,-2.787 -14.31,-5.065 -21.807,-6.793 l 10.066,-15.1 h 4.406 c 4.863,0 8.806,3.943 8.806,8.806 C 1.471,-8.588 0.962,-4.209 0,0"
             style="fill:#ffddcf;fill-opacity:1;fill-rule:nonzero;stroke:none"
             id="path5435" /></g><g
           id="g5437"
           transform="translate(86.2334,148.0469)"><path
             d="m 0,0 c 0,0 -1.446,-8.435 -1.464,-12.85 0,-0.08 -0.007,-0.158 -0.007,-0.237 0,-1.216 0.247,-2.374 0.693,-3.428 0.334,-0.79 0.78,-1.52 1.319,-2.172 1.413,-1.713 3.461,-2.882 5.783,-3.148 0.332,-0.038 0.67,-0.058 1.011,-0.058 h 4.406 v 0 L 21.807,-6.793 11.167,0 Z"
             style="fill:#ffcbbe;fill-opacity:1;fill-rule:nonzero;stroke:none"
             id="path5439" /></g><g
           id="g5441"
           transform="translate(108.0405,141.2539)"><path
             d="m 0,0 h 0.014 c 2.714,25.281 21.554,45.82 45.907,50.797 -0.509,0.103 -1.025,0.183 -1.539,0.273 -3.226,0.568 -6.538,0.879 -9.923,0.879 -3.41,0 -6.752,-0.299 -10.001,-0.875 C 22.292,50.691 20.167,50.186 18.09,49.565 6.67,46.152 -3.285,39.264 -10.565,30.121 c -1.338,-1.68 -2.586,-3.435 -3.736,-5.26 -3.45,-5.474 -6.02,-11.564 -7.506,-18.068 C -14.777,4.006 -7.497,1.728 0,0"
             style="fill:#ff8e9e;fill-opacity:1;fill-rule:nonzero;stroke:none"
             id="path5443" /></g><g
           id="g5445"
           transform="translate(160.4199,385.9111)"><path
             d="M 0,0 C -5.829,0.973 -11.816,1.479 -17.921,1.479 L -126.04,-106.642 -33.23,-213.278 H 0 c 4.217,0.705 8.352,1.654 12.39,2.831 44.958,13.105 77.81,54.616 77.81,103.805 C 90.2,-53.033 51.185,-8.538 0,0"
             style="fill:#ffddcf;fill-opacity:1;fill-rule:nonzero;stroke:none"
             id="path5447" /></g><g
           id="g5449"
           transform="translate(70.2212,279.2695)"><path
             d="M 0,0 C 0,53.607 39.017,98.103 90.199,106.642 84.37,107.614 78.383,108.12 72.278,108.12 12.567,108.12 -35.841,59.713 -35.841,0 c 0,-49.189 32.852,-90.7 77.809,-103.806 9.618,-2.803 19.787,-4.313 30.31,-4.313 6.105,0 12.092,0.509 17.921,1.482 C 39.017,-98.098 0,-53.606 0,0"
             style="fill:#ffcbbe;fill-opacity:1;fill-rule:nonzero;stroke:none"
             id="path5451" /></g><g
           id="g5453"
           transform="translate(250.001,315.9648)"><path
             d="m 0,0 c -6.42,18.82 -17.549,35.303 -31.97,48.123 -2.684,2.387 -6.034,3.511 -9.537,3.511 h -3.626 c -0.486,4.632 -3.223,8.725 -7.297,10.981 -6.961,3.856 -14.368,6.999 -22.125,9.341 h -65.859 l -72.064,-82.674 0.006,-0.005 h 35.805 7.448 c 39.517,0 77.416,15.698 105.359,43.641 v 0 L -29.943,-1 c 6.226,-6.226 14.67,-9.723 23.475,-9.723 h 3.941 l 0.001,0.001 C 0.28,-7.916 1.281,-3.756 0,0"
             style="fill:#8288cb;fill-opacity:1;fill-rule:nonzero;stroke:none"
             id="path5455" /></g><g
           id="g5457"
           transform="translate(161.4136,391.2021)"><path
             d="m 0,0 v 0 c -12.48,2.092 -25.345,2.092 -37.827,0 -41.375,-6.937 -75.212,-36.016 -88.59,-75.239 -1.281,-3.754 -0.278,-7.912 2.526,-10.716 l 0.006,-0.006 h 35.833 c 10.167,41.793 44.237,74.58 87.058,80.67 4.156,0.591 9.256,1.27 15.027,2.01 C 9.47,-1.903 4.786,-0.802 0,0"
             style="fill:#676fb2;fill-opacity:1;fill-rule:nonzero;stroke:none"
             id="path5459" /></g><g
           id="g5461"
           transform="translate(108.4014,242.6484)"><path
             d="m 0,0 c 0,-8.852 -9.011,-16.027 -20.126,-16.027 -11.115,0 -20.126,7.175 -20.126,16.027 0,8.852 9.011,16.027 20.126,16.027 C -9.011,16.027 0,8.852 0,0"
             style="fill:#ff8e9e;fill-opacity:1;fill-rule:nonzero;stroke:none"
             id="path5463" /></g><g
           id="g5465"
           transform="translate(177.2383,242.6484)"><path
             d="m 0,0 c 0,-8.852 9.011,-16.027 20.126,-16.027 11.115,0 20.126,7.175 20.126,16.027 0,8.852 -9.011,16.027 -20.126,16.027 C 9.011,16.027 0,8.852 0,0"
             style="fill:#ff8e9e;fill-opacity:1;fill-rule:nonzero;stroke:none"
             id="path5467" /></g><g
           id="g5469"
           transform="translate(229.2222,363.7676)"><path
             d="m 0,0 c -6.18,6.339 -10.27,10.469 -18.642,11.218 -1.099,2.443 -2.677,4.646 -4.658,6.567 7.023,17.148 19.403,31.765 35.327,41.525 3.517,2.155 8.117,0.967 10.181,-2.607 L 39.783,26.262 C 42.287,21.928 39.926,16.379 35.122,15.3 22.651,12.499 10.639,7.247 0,0 m 13.844,-51.021 c -6.682,0.122 -12.947,2.782 -17.687,7.522 L -37.76,-9.581 c -2.926,2.926 -7.678,2.929 -10.607,-0.001 -26.725,-26.726 -62.258,-41.444 -100.055,-41.444 h -38.832 c 0.008,0.27 0.056,0.54 0.145,0.8 21.344,62.58 94.053,89.977 151.218,58.811 3.342,-1.82 3.938,-4.031 4.096,-5.536 0.4,-3.819 3.619,-6.718 7.459,-6.718 3.984,0 6.061,0.268 8.18,-1.615 20.851,-18.54 29.909,-43.095 30,-45.737 M -208.53,15.311 c -4.811,1.081 -7.16,6.632 -4.662,10.96 l 17.576,30.443 c 2.072,3.588 6.677,4.752 10.18,2.606 15.726,-9.638 27.995,-24.013 35.063,-40.883 -8.447,-5.194 -16.18,-11.384 -23.048,-18.417 -10.635,7.241 -22.642,12.49 -35.109,15.291 m 72.87,-232.705 0.009,-0.002 c 2,8.747 6.22,16.693 12.285,23.225 11.526,-3.853 23.853,-5.946 36.661,-5.946 12.605,0 24.955,2.027 36.666,5.935 6.072,-6.536 10.294,-14.478 12.29,-23.212 h 0.001 c 0.85,-3.721 1.281,-7.561 1.281,-11.414 0,-0.719 -0.586,-1.305 -1.306,-1.305 h -0.392 l -7.839,11.759 c -2.297,3.446 -6.955,4.377 -10.401,2.08 -3.446,-2.298 -4.378,-6.955 -2.08,-10.401 6.604,-9.905 4.971,-7.456 11.609,-17.413 1.013,-1.519 -0.06,-3.56 -1.906,-3.56 h -75.844 c -1.83,0 -2.929,2.026 -1.906,3.56 l 11.609,17.412 c 2.298,3.447 1.366,8.104 -2.08,10.402 -3.444,2.295 -8.102,1.366 -10.401,-2.08 l -8.231,-11.759 c -0.72,0 -1.306,0.586 -1.306,1.305 0,3.724 0.455,7.777 1.281,11.414 m 74.09,-49.72 c 0,-4.863 -3.955,-8.818 -8.817,-8.818 -4.862,0 -8.817,3.955 -8.817,8.818 v 4.466 h 17.634 z m -32.634,0 c 0,-4.863 -3.955,-8.818 -8.817,-8.818 -4.862,0 -8.817,3.955 -8.817,8.818 v 4.466 h 17.634 z M 52.774,33.762 35.198,64.203 C 28.908,75.099 14.9,78.665 4.189,72.099 -13.81,61.068 -27.956,44.738 -36.316,25.549 c -32.89,15.041 -69.607,14.121 -100.76,-0.028 -8.359,19.206 -22.511,35.549 -40.522,46.588 -10.686,6.549 -24.702,3.03 -31.008,-7.895 l -17.576,-30.443 c -3.619,-6.269 -4.026,-13.67 -1.117,-20.307 2.879,-6.565 8.522,-11.226 15.482,-12.788 10.083,-2.266 19.819,-6.409 28.54,-12.105 -7.688,-10.158 -13.81,-21.585 -18.03,-33.955 -1.685,-4.942 -1.046,-10.382 1.548,-14.822 -11.3,-52.558 14.828,-104.681 61.825,-127.95 -9.326,-11.891 -14.007,-26.27 -14.007,-40.652 0,-6.568 4.016,-12.554 10.093,-15.069 -0.793,-9.212 5.8,-17.445 15.01,-18.626 v -4.611 c 0,-13.133 10.684,-23.818 23.817,-23.818 6.311,0 12.051,2.472 16.317,6.493 4.266,-4.021 10.007,-6.493 16.317,-6.493 13.133,0 23.817,10.685 23.817,23.818 v 4.611 c 9.209,1.181 15.803,9.412 15.01,18.626 5.917,2.449 10.093,8.277 10.093,15.069 0,8.288 -1.658,14.758 -1.658,14.758 -2.175,9.513 -6.389,18.294 -12.342,25.88 4.52,2.24 8.914,4.768 13.139,7.611 3.436,2.313 4.347,6.974 2.034,10.41 -2.313,3.437 -6.974,4.348 -10.41,2.034 -16.525,-11.123 -35.89,-17.002 -56.001,-17.002 -62.631,0 -110.596,56.856 -98.921,119.091 h 37.204 c 39.293,0 76.376,14.384 105.234,40.659 l 28.739,-28.739 c 7.181,-7.181 16.573,-11.345 26.639,-11.863 5.791,-30.758 -3.076,-61.043 -22.157,-83.569 -2.678,-3.161 -2.286,-7.894 0.875,-10.57 3.161,-2.679 7.894,-2.285 10.57,0.875 22.319,26.348 32.732,62.362 24.861,99.004 2.602,4.443 3.246,9.895 1.556,14.848 -4.17,12.225 -10.288,23.685 -18.042,33.932 8.726,5.701 18.468,9.847 28.556,12.114 14.686,3.298 21.931,19.989 14.365,33.097"
             style="fill:#000000;fill-opacity:1;fill-rule:nonzero;stroke:none"
             id="path5471" /></g><g
           id="g5473"
           transform="translate(92.5044,266.3037)"><path
             d="m 0,0 v -8.228 c 0,-4.142 3.358,-7.5 7.5,-7.5 4.142,0 7.5,3.358 7.5,7.5 V 0 C 15,4.143 11.642,7.5 7.5,7.5 3.358,7.5 0,4.143 0,0"
             style="fill:#000000;fill-opacity:1;fill-rule:nonzero;stroke:none"
             id="path5475" /></g><g
           id="g5477"
           transform="translate(178.1348,266.3037)"><path
             d="m 0,0 v -8.228 c 0,-4.142 3.358,-7.5 7.5,-7.5 4.142,0 7.5,3.358 7.5,7.5 V 0 C 15,4.143 11.642,7.5 7.5,7.5 3.358,7.5 0,4.143 0,0"
             style="fill:#000000;fill-opacity:1;fill-rule:nonzero;stroke:none"
             id="path5479" /></g><g
           id="g5481"
           transform="translate(148.4536,263.249)"><path
             d="m 0,0 c -1.423,-1.634 -3.477,-2.57 -5.634,-2.57 -2.157,0 -4.21,0.936 -5.634,2.57 -2.721,3.122 -7.459,3.447 -10.581,0.727 -3.123,-2.722 -3.448,-7.459 -0.727,-10.582 4.273,-4.903 10.448,-7.715 16.942,-7.715 6.494,0 12.67,2.812 16.943,7.715 2.721,3.123 2.396,7.86 -0.727,10.582 C 7.459,3.447 2.722,3.123 0,0"
             style="fill:#000000;fill-opacity:1;fill-rule:nonzero;stroke:none"
             id="path5483" /></g><g
           id="g5485"
           transform="translate(343.4404,261.791)"><path
             d="m 0,0 v -8.37 c 0,-4.143 3.357,-7.5 7.5,-7.5 4.143,0 7.5,3.357 7.5,7.5 V 0 C 15,4.143 11.643,7.5 7.5,7.5 3.357,7.5 0,4.143 0,0"
             style="fill:#000000;fill-opacity:1;fill-rule:nonzero;stroke:none"
             id="path5487" /></g><g
           id="g5489"
           transform="translate(430.5596,261.791)"><path
             d="m 0,0 v -8.37 c 0,-4.143 3.357,-7.5 7.5,-7.5 4.143,0 7.5,3.357 7.5,7.5 V 0 C 15,4.143 11.643,7.5 7.5,7.5 3.357,7.5 0,4.143 0,0"
             style="fill:#000000;fill-opacity:1;fill-rule:nonzero;stroke:none"
             id="path5491" /></g><g
           id="g5493"
           transform="translate(400.3311,258.5977)"><path
             d="m 0,0 c -1.474,-1.689 -3.599,-2.659 -5.831,-2.659 -2.232,0 -4.357,0.969 -5.83,2.658 -2.721,3.124 -7.459,3.448 -10.581,0.728 -3.123,-2.721 -3.449,-7.459 -0.728,-10.581 4.322,-4.96 10.569,-7.805 17.139,-7.805 6.568,0 12.815,2.844 17.138,7.804 2.721,3.122 2.397,7.859 -0.726,10.581 C 7.46,3.449 2.721,3.123 0,0"
             style="fill:#000000;fill-opacity:1;fill-rule:nonzero;stroke:none"
             id="path5495" /></g><g
           id="g5497"
           transform="translate(462.1631,302.499)"><path
             d="M 0,0 C 8.96,7.228 17.024,15.71 23.934,25.328 29.906,13.466 33.5,0.565 34.524,-12.746 22.296,-11.422 10.381,-7.032 0,0 m -77.911,-13.17 -91.976,-0.02 c 3.855,53.029 48.228,94.997 102.223,94.997 22.674,0 44.164,-7.258 62.146,-20.991 2.268,-1.732 5.225,-1.971 7.669,-0.859 8.143,3.493 16.024,7.718 23.425,12.557 1.861,1.214 4.152,-0.523 3.546,-2.649 C 26.5,60.696 22.696,51.813 17.818,43.464 17.777,43.394 17.75,43.318 17.711,43.247 -2.576,8.683 -38.298,-12.399 -77.911,-13.17 m -23.061,-120.206 c 10.565,-3.129 21.743,-4.816 33.308,-4.816 11.378,0 22.585,1.631 33.325,4.804 4.478,-3.845 8.249,-8.433 11.167,-13.533 -4.384,-3.481 -9.152,-6.776 -14.027,-9.679 -2.273,-1.351 -3.664,-3.8 -3.664,-6.444 v -5.004 h -53.608 v 5.007 c 0,2.644 -1.391,5.092 -3.663,6.444 -4.873,2.902 -9.638,6.195 -14.02,9.674 2.921,5.105 6.697,9.697 11.182,13.547 m 83.433,-28.122 c 0.891,-4.316 1.117,-8.667 1.117,-14.05 0,-5.018 -4.082,-9.101 -9.1,-9.101 h -0.341 v 9.101 8.318 c 2.842,1.811 5.63,3.735 8.324,5.732 m -23.324,-43.513 c 0,-5.322 -4.329,-9.652 -9.652,-9.652 -5.322,0 -9.652,4.33 -9.652,9.652 v 7.127 c 0,4.143 -3.357,7.5 -7.5,7.5 -4.143,0 -7.5,-3.357 -7.5,-7.5 v -7.127 c 0,-5.322 -4.33,-9.652 -9.652,-9.652 -5.323,0 -9.652,4.33 -9.652,9.652 v 21.963 h 53.608 z m -68.608,29.463 v -9.101 h -0.333 c -5.018,0 -9.1,4.083 -9.1,9.101 0,4.004 0.007,8.644 1.138,14.033 2.687,-1.99 5.464,-3.906 8.295,-5.712 z M 33.018,39.902 c 4.442,8.25 7.975,16.921 10.526,25.837 C 48.013,81.364 30.751,93.808 17.372,85.07 11.826,81.445 5.984,78.203 -0.043,75.403 c -19.853,14.018 -43.138,21.404 -67.621,21.404 -64.789,0 -117.499,-52.711 -117.499,-117.501 0,-47.377 28.187,-88.289 68.67,-106.86 -4.943,-5.395 -8.985,-11.581 -11.918,-18.307 -5.073,-11.635 -5.493,-20.681 -5.493,-29.687 0,-13.29 10.811,-24.101 24.1,-24.101 h 0.333 v -5.362 c 0,-13.593 11.059,-24.652 24.652,-24.652 6.66,0 12.712,2.655 17.152,6.962 4.44,-4.307 10.492,-6.962 17.152,-6.962 13.593,0 24.652,11.059 24.652,24.652 v 5.362 h 0.341 c 13.289,0 24.1,10.811 24.1,24.101 0,9.005 -0.42,18.051 -5.493,29.688 -2.932,6.72 -6.967,12.899 -11.9,18.289 5.248,2.401 10.336,5.193 15.219,8.376 3.471,2.26 4.45,6.907 2.189,10.378 -2.263,3.47 -6.911,4.451 -10.378,2.188 -16.629,-10.836 -35.951,-16.563 -55.879,-16.563 -53.997,0 -98.372,41.97 -102.224,95.002 l 92.052,0.02 c 0.046,0 0.093,0 0.14,0.001 23.414,0.441 45.619,7.151 64.773,19.008 C 0.92,-19.812 17.513,-26.307 34.563,-27.832 33.005,-50.2 24.188,-71.479 9.295,-88.391 c -2.737,-3.108 -2.437,-7.847 0.672,-10.586 3.109,-2.736 7.847,-2.435 10.586,0.672 18.883,21.444 29.283,49.005 29.284,77.611 0,21.48 -5.801,42.331 -16.819,60.596"
             style="fill:#000000;fill-opacity:1;fill-rule:nonzero;stroke:none"
             id="path5499" /></g></g></g></g></svg>
