<?xml version="1.0" encoding="UTF-8" standalone="no"?>
<!-- Created with Inkscape (http://www.inkscape.org/) -->

<svg
   version="1.1"
   id="svg9"
   xml:space="preserve"
   width="682.66669"
   height="682.66669"
   viewBox="0 0 682.66669 682.66669"
   xmlns="http://www.w3.org/2000/svg"
   xmlns:svg="http://www.w3.org/2000/svg"><defs
     id="defs13"><clipPath
       clipPathUnits="userSpaceOnUse"
       id="clipPath31"><path
         d="M 0,512 H 512 V 0 H 0 Z"
         id="path29" /></clipPath></defs><g
     id="g15"
     transform="matrix(1.3333333,0,0,-1.3333333,0,682.66667)"><path
       d="M 504.5,107.5 H 7.5 v 150 h 497 z"
       style="fill:#2accf4;fill-opacity:1;fill-rule:nonzero;stroke:none"
       id="path17" /><path
       d="m 474.5,107.5 h 30 v 150 h -30 z"
       style="fill:#22b3eb;fill-opacity:1;fill-rule:nonzero;stroke:none"
       id="path19" /><path
       d="M 504.5,257.5 H 7.5 v 30 h 497 z"
       style="fill:#8aeeff;fill-opacity:1;fill-rule:nonzero;stroke:none"
       id="path21" /><path
       d="m 474.5,257.5 h 30 v 30 h -30 z"
       style="fill:#63e5ff;fill-opacity:1;fill-rule:nonzero;stroke:none"
       id="path23" /><g
       id="g25"><g
         id="g27"
         clip-path="url(#clipPath31)"><g
           id="g33"
           transform="translate(119,112)"><path
             d="m 0,0 h -30 v 258 c 0,8.284 6.716,15 15,15 8.284,0 15,-6.716 15,-15 z"
             style="fill:#f1f1f1;fill-opacity:1;fill-rule:nonzero;stroke:none"
             id="path35" /></g><g
           id="g37"
           transform="translate(235,112)"><path
             d="m 0,0 h -30 v 258 c 0,8.284 6.716,15 15,15 8.284,0 15,-6.716 15,-15 z"
             style="fill:#f1f1f1;fill-opacity:1;fill-rule:nonzero;stroke:none"
             id="path39" /></g><g
           id="g41"
           transform="translate(504.5,166.5)"><path
             d="M 0,0 C -20.711,0 -20.711,-17.341 -41.423,-17.341 -62.134,-17.341 -62.134,0 -82.846,0 c -20.708,0 -20.708,-17.341 -41.417,-17.341 -20.709,0 -20.709,17.341 -41.418,17.341 -20.709,0 -20.709,-17.341 -41.417,-17.341 -20.708,0 -20.708,17.341 -41.416,17.341 -20.705,0 -20.705,-17.341 -41.411,-17.341 -20.707,0 -20.707,17.341 -41.415,17.341 -20.709,0 -20.709,-17.341 -41.417,-17.341 C -393.465,-17.341 -393.465,0 -414.173,0 -434.88,0 -434.88,-17.341 -455.587,-17.341 -476.293,-17.341 -476.293,0 -497,0 v -103 c 0,-30.928 25.072,-56 56,-56 h 385 c 30.928,0 56,25.072 56,56 z"
             style="fill:#b9f5ff;fill-opacity:1;fill-rule:nonzero;stroke:none"
             id="path43" /></g><g
           id="g45"
           transform="translate(267.4023,149.1587)"><path
             d="M 0,0 C 6.703,0 11.231,1.821 15,4.279 7.127,9.414 2.589,17.341 -11.416,17.341 c -6.703,0 -11.231,-1.821 -14.999,-4.279 C -18.543,7.927 -14.004,0 0,0"
             style="fill:#8aeeff;fill-opacity:1;fill-rule:nonzero;stroke:none"
             id="path47" /></g><g
           id="g49"
           transform="translate(350.2373,149.1587)"><path
             d="M 0,0 C 6.703,0 11.231,1.821 15,4.278 7.126,9.414 2.587,17.341 -11.418,17.341 c -6.704,0 -11.232,-1.82 -15,-4.278 C -18.544,7.928 -14.006,0 0,0"
             style="fill:#8aeeff;fill-opacity:1;fill-rule:nonzero;stroke:none"
             id="path51" /></g><g
           id="g53"
           transform="translate(184.5752,149.1587)"><path
             d="m 0,0 c 6.703,0 11.231,1.822 14.999,4.28 -7.872,5.135 -12.41,13.061 -26.415,13.061 -6.703,0 -11.231,-1.821 -15,-4.278 C -18.542,7.928 -14.004,0 0,0"
             style="fill:#8aeeff;fill-opacity:1;fill-rule:nonzero;stroke:none"
             id="path55" /></g><g
           id="g57"
           transform="translate(433.0771,149.1587)"><path
             d="M 0,0 C 6.703,0 11.231,1.82 15,4.277 7.124,9.412 2.586,17.341 -11.423,17.341 c -6.702,0 -11.231,-1.82 -14.999,-4.278 C -18.547,7.929 -14.008,0 0,0"
             style="fill:#8aeeff;fill-opacity:1;fill-rule:nonzero;stroke:none"
             id="path59" /></g><g
           id="g61"
           transform="translate(474.5,151.459)"><path
             d="m 0,0 v -87.959 c 0,-30.928 -25.072,-56 -56,-56 h 30 c 30.928,0 56,25.072 56,56 v 103 C 14.012,15.041 10.359,4.713 0,0"
             style="fill:#8aeeff;fill-opacity:1;fill-rule:nonzero;stroke:none"
             id="path63" /></g><g
           id="g65"
           transform="translate(18.9131,149.1587)"><path
             d="M 0,0 C 6.703,0 11.232,1.821 15,4.28 7.128,9.415 2.59,17.341 -11.413,17.341 V 2.297 C -8.355,0.906 -4.719,0 0,0"
             style="fill:#8aeeff;fill-opacity:1;fill-rule:nonzero;stroke:none"
             id="path67" /></g><g
           id="g69"
           transform="translate(101.7432,149.1587)"><path
             d="M 0,0 C 6.703,0 11.231,1.821 15,4.279 7.127,9.414 2.589,17.341 -11.416,17.341 c -6.703,0 -11.231,-1.821 -15,-4.279 C -18.543,7.927 -14.005,0 0,0"
             style="fill:#8aeeff;fill-opacity:1;fill-rule:nonzero;stroke:none"
             id="path71" /></g><path
           d="m 205,327.5 h -86 v 30 h 86 z"
           style="fill:#d0d0d0;fill-opacity:1;fill-rule:nonzero;stroke:none"
           id="path73" /><path
           d="m 205,257.5 h -86 v 30 h 86 z"
           style="fill:#d0d0d0;fill-opacity:1;fill-rule:nonzero;stroke:none"
           id="path75" /><path
           d="m 205,187.5 h -86 v 30 h 86 z"
           style="fill:#d0d0d0;fill-opacity:1;fill-rule:nonzero;stroke:none"
           id="path77" /><g
           id="g79"
           transform="translate(446,421)"><path
             d="m 0,0 c 0,-26.51 -21.49,-48 -48,-48 -26.51,0 -48,21.49 -48,48 0,26.51 21.49,48 48,48 C -21.49,48 0,26.51 0,0"
             style="fill:#ffd54f;fill-opacity:1;fill-rule:nonzero;stroke:none"
             id="path81" /></g><g
           id="g83"
           transform="translate(398,469)"><path
             d="M 0,0 C -5.24,0 -10.279,-0.852 -15,-2.404 4.161,-8.704 18,-26.73 18,-48 18,-69.27 4.161,-87.296 -15,-93.596 -10.279,-95.148 -5.24,-96 0,-96 26.51,-96 48,-74.51 48,-48 48,-21.49 26.51,0 0,0"
             style="fill:#ffc128;fill-opacity:1;fill-rule:nonzero;stroke:none"
             id="path85" /></g><g
           id="g87"
           transform="translate(7.5,107.5)"><path
             d="m 0,0 v 59 91 h 81.5"
             style="fill:none;stroke:#000000;stroke-width:15;stroke-linecap:round;stroke-linejoin:round;stroke-miterlimit:10;stroke-dasharray:none;stroke-opacity:1"
             id="path89" /></g><g
           id="g91"
           transform="translate(504.5,107.5)"><path
             d="m 0,0 v 59 91 h -269.5"
             style="fill:none;stroke:#000000;stroke-width:15;stroke-linecap:round;stroke-linejoin:round;stroke-miterlimit:10;stroke-dasharray:none;stroke-opacity:1"
             id="path93" /></g><g
           id="g95"
           transform="translate(205,257.5)"><path
             d="M 0,0 H -86"
             style="fill:none;stroke:#000000;stroke-width:15;stroke-linecap:round;stroke-linejoin:round;stroke-miterlimit:10;stroke-dasharray:none;stroke-opacity:1"
             id="path97" /></g><g
           id="g99"
           transform="translate(205,257.5)"><path
             d="M 0,0 H -86"
             style="fill:none;stroke:#000000;stroke-width:15;stroke-linecap:round;stroke-linejoin:round;stroke-miterlimit:10;stroke-dasharray:none;stroke-opacity:1"
             id="path101" /></g><g
           id="g103"
           transform="translate(205,287.5)"><path
             d="M 0,0 H -86"
             style="fill:none;stroke:#000000;stroke-width:15;stroke-linecap:round;stroke-linejoin:round;stroke-miterlimit:10;stroke-dasharray:none;stroke-opacity:1"
             id="path105" /></g><g
           id="g107"
           transform="translate(481,287.5)"><path
             d="M 0,0 H 23.5 V -30 H -246"
             style="fill:none;stroke:#000000;stroke-width:15;stroke-linecap:round;stroke-linejoin:round;stroke-miterlimit:10;stroke-dasharray:none;stroke-opacity:1"
             id="path109" /></g><g
           id="g111"
           transform="translate(235,287.5)"><path
             d="M 0,0 H 211"
             style="fill:none;stroke:#000000;stroke-width:15;stroke-linecap:round;stroke-linejoin:round;stroke-miterlimit:10;stroke-dasharray:none;stroke-opacity:1"
             id="path113" /></g><g
           id="g115"
           transform="translate(89,257.5)"><path
             d="M 0,0 H -81.5 V 30 H 0"
             style="fill:none;stroke:#000000;stroke-width:15;stroke-linecap:round;stroke-linejoin:round;stroke-miterlimit:10;stroke-dasharray:none;stroke-opacity:1"
             id="path117" /></g><g
           id="g119"
           transform="translate(89,352.0259)"><path
             d="m 0,0 v 17.974 c 0,8.28 6.72,15 15,15 4.14,0 7.89,-1.68 10.6,-4.4 2.72,-2.71 4.4,-6.46 4.4,-10.6 v -217.9"
             style="fill:none;stroke:#000000;stroke-width:15;stroke-linecap:round;stroke-linejoin:round;stroke-miterlimit:10;stroke-dasharray:none;stroke-opacity:1"
             id="path121" /></g><g
           id="g123"
           transform="translate(89,166.4702)"><path
             d="M 0,0 V 153.966"
             style="fill:none;stroke:#000000;stroke-width:15;stroke-linecap:round;stroke-linejoin:round;stroke-miterlimit:10;stroke-dasharray:none;stroke-opacity:1"
             id="path125" /></g><g
           id="g127"
           transform="translate(205,150.7002)"><path
             d="m 0,0 v 219.3 c 0,8.28 6.72,15 15,15 4.14,0 7.89,-1.68 10.6,-4.4 2.72,-2.71 4.4,-6.46 4.4,-10.6 V 6.9"
             style="fill:none;stroke:#000000;stroke-width:15;stroke-linecap:round;stroke-linejoin:round;stroke-miterlimit:10;stroke-dasharray:none;stroke-opacity:1"
             id="path129" /></g><g
           id="g131"
           transform="translate(302.1372,149.4946)"><path
             d="m 0,0 c -1.453,-0.217 -3.023,-0.336 -4.735,-0.336 -20.708,0 -20.708,17.341 -41.416,17.341 -20.705,0 -20.705,-17.341 -41.411,-17.341 -20.708,0 -20.708,17.341 -41.416,17.341 -20.708,0 -20.708,-17.341 -41.416,-17.341 -20.708,0 -20.708,17.341 -41.416,17.341 -20.707,0 -20.707,-17.341 -41.414,-17.341 -20.707,0 -20.707,17.341 -41.413,17.341 v -103 c 0,-30.927 25.072,-56 56,-56 h 385 c 30.928,0 56,25.073 56,56 v 103 c -20.712,0 -20.712,-17.341 -41.423,-17.341 -20.711,0 -20.711,17.341 -41.423,17.341 -20.708,0 -20.708,-17.341 -41.417,-17.341 -20.709,0 -20.709,17.341 -41.418,17.341 -3.482,0 -6.379,-0.49 -8.887,-1.305"
             style="fill:none;stroke:#000000;stroke-width:15;stroke-linecap:round;stroke-linejoin:round;stroke-miterlimit:10;stroke-dasharray:none;stroke-opacity:1"
             id="path133" /></g><path
           d="m 205,327.5 h -86 v 30 h 86 z"
           style="fill:none;stroke:#000000;stroke-width:15;stroke-linecap:round;stroke-linejoin:round;stroke-miterlimit:10;stroke-dasharray:none;stroke-opacity:1"
           id="path135" /><path
           d="m 205,187.5 h -86 v 30 h 86 z"
           style="fill:none;stroke:#000000;stroke-width:15;stroke-linecap:round;stroke-linejoin:round;stroke-miterlimit:10;stroke-dasharray:none;stroke-opacity:1"
           id="path137" /><g
           id="g139"
           transform="translate(446,421)"><path
             d="m 0,0 c 0,-26.51 -21.49,-48 -48,-48 -26.51,0 -48,21.49 -48,48 0,26.51 21.49,48 48,48 C -21.49,48 0,26.51 0,0 Z"
             style="fill:none;stroke:#000000;stroke-width:15;stroke-linecap:round;stroke-linejoin:round;stroke-miterlimit:10;stroke-dasharray:none;stroke-opacity:1"
             id="path141" /></g><g
           id="g143"
           transform="translate(398,504.5)"><path
             d="M 0,0 V -14"
             style="fill:none;stroke:#000000;stroke-width:15;stroke-linecap:round;stroke-linejoin:round;stroke-miterlimit:10;stroke-dasharray:none;stroke-opacity:1"
             id="path145" /></g><g
           id="g147"
           transform="translate(398.5,352.5)"><path
             d="M 0,0 V -14"
             style="fill:none;stroke:#000000;stroke-width:15;stroke-linecap:round;stroke-linejoin:round;stroke-miterlimit:10;stroke-dasharray:none;stroke-opacity:1"
             id="path149" /></g><g
           id="g151"
           transform="translate(356.5,493.3799)"><path
             d="M 0,0 7,-12.124"
             style="fill:none;stroke:#000000;stroke-width:15;stroke-linecap:round;stroke-linejoin:round;stroke-miterlimit:10;stroke-dasharray:none;stroke-opacity:1"
             id="path153" /></g><g
           id="g155"
           transform="translate(432.9331,361.9941)"><path
             d="M 0,0 7,-12.124"
             style="fill:none;stroke:#000000;stroke-width:15;stroke-linecap:round;stroke-linejoin:round;stroke-miterlimit:10;stroke-dasharray:none;stroke-opacity:1"
             id="path157" /></g><g
           id="g159"
           transform="translate(326.1201,463)"><path
             d="M 0,0 12.124,-7"
             style="fill:none;stroke:#000000;stroke-width:15;stroke-linecap:round;stroke-linejoin:round;stroke-miterlimit:10;stroke-dasharray:none;stroke-opacity:1"
             id="path161" /></g><g
           id="g163"
           transform="translate(458.0059,387.4331)"><path
             d="M 0,0 12.124,-7"
             style="fill:none;stroke:#000000;stroke-width:15;stroke-linecap:round;stroke-linejoin:round;stroke-miterlimit:10;stroke-dasharray:none;stroke-opacity:1"
             id="path165" /></g><g
           id="g167"
           transform="translate(315,421.5)"><path
             d="M 0,0 H 14"
             style="fill:none;stroke:#000000;stroke-width:15;stroke-linecap:round;stroke-linejoin:round;stroke-miterlimit:10;stroke-dasharray:none;stroke-opacity:1"
             id="path169" /></g><g
           id="g171"
           transform="translate(467,422)"><path
             d="M 0,0 H 14"
             style="fill:none;stroke:#000000;stroke-width:15;stroke-linecap:round;stroke-linejoin:round;stroke-miterlimit:10;stroke-dasharray:none;stroke-opacity:1"
             id="path173" /></g><g
           id="g175"
           transform="translate(326.1201,380)"><path
             d="M 0,0 12.124,7"
             style="fill:none;stroke:#000000;stroke-width:15;stroke-linecap:round;stroke-linejoin:round;stroke-miterlimit:10;stroke-dasharray:none;stroke-opacity:1"
             id="path177" /></g><g
           id="g179"
           transform="translate(457.5059,456.4331)"><path
             d="M 0,0 12.124,7"
             style="fill:none;stroke:#000000;stroke-width:15;stroke-linecap:round;stroke-linejoin:round;stroke-miterlimit:10;stroke-dasharray:none;stroke-opacity:1"
             id="path181" /></g><g
           id="g183"
           transform="translate(356.5,349.6201)"><path
             d="M 0,0 7,12.124"
             style="fill:none;stroke:#000000;stroke-width:15;stroke-linecap:round;stroke-linejoin:round;stroke-miterlimit:10;stroke-dasharray:none;stroke-opacity:1"
             id="path185" /></g><g
           id="g187"
           transform="translate(432.0669,481.5059)"><path
             d="M 0,0 7,12.124"
             style="fill:none;stroke:#000000;stroke-width:15;stroke-linecap:round;stroke-linejoin:round;stroke-miterlimit:10;stroke-dasharray:none;stroke-opacity:1"
             id="path189" /></g><g
           id="g191"
           transform="translate(90,108)"><path
             d="M 0,0 H 30"
             style="fill:none;stroke:#000000;stroke-width:15;stroke-linecap:round;stroke-linejoin:round;stroke-miterlimit:10;stroke-dasharray:none;stroke-opacity:1"
             id="path193" /></g><g
           id="g195"
           transform="translate(382,64)"><path
             d="M 0,0 H 40"
             style="fill:none;stroke:#000000;stroke-width:15;stroke-linecap:round;stroke-linejoin:round;stroke-miterlimit:10;stroke-dasharray:none;stroke-opacity:1"
             id="path197" /></g><g
           id="g199"
           transform="translate(252,93)"><path
             d="M 0,0 H 84"
             style="fill:none;stroke:#000000;stroke-width:15;stroke-linecap:round;stroke-linejoin:round;stroke-miterlimit:10;stroke-dasharray:none;stroke-opacity:1"
             id="path201" /></g><g
           id="g203"
           transform="translate(144,71)"><path
             d="M 0,0 H 56"
             style="fill:none;stroke:#000000;stroke-width:15;stroke-linecap:round;stroke-linejoin:round;stroke-miterlimit:10;stroke-dasharray:none;stroke-opacity:1"
             id="path205" /></g></g></g></g></svg>
