<?xml version="1.0" encoding="UTF-8" standalone="no"?>
<!-- Created with Inkscape (http://www.inkscape.org/) -->

<svg
   version="1.1"
   id="svg2421"
   xml:space="preserve"
   width="682.66669"
   height="682.66669"
   viewBox="0 0 682.66669 682.66669"
   xmlns="http://www.w3.org/2000/svg"
   xmlns:svg="http://www.w3.org/2000/svg"><defs
     id="defs2425"><clipPath
       clipPathUnits="userSpaceOnUse"
       id="clipPath2443"><path
         d="M 0,512 H 512 V 0 H 0 Z"
         id="path2441" /></clipPath></defs><g
     id="g2427"
     transform="matrix(1.3333333,0,0,-1.3333333,0,682.66667)"><g
       id="g2429"
       transform="translate(434.2734,375.1191)"><path
         d="m 0,0 h -355.961 l -32.452,-165 H 32.452 Z"
         style="fill:#60b8fe;fill-opacity:1;fill-rule:nonzero;stroke:none"
         id="path2431" /></g><g
       id="g2433"
       transform="translate(78.3125,375.1191)"><path
         d="m 0,0 -32.452,-165 h 44 L 44,0 Z"
         style="fill:#23a8fe;fill-opacity:1;fill-rule:nonzero;stroke:none"
         id="path2435" /></g><g
       id="g2437"><g
         id="g2439"
         clip-path="url(#clipPath2443)"><g
           id="g2445"
           transform="translate(51.6494,211.6196)"><path
             d="M 0,0 C -2.054,0 -3.597,1.875 -3.2,3.891 L 27.379,159.368 C 27.68,160.897 29.021,162 30.58,162 h 166.699 c 11.358,12.002 24.637,22.167 39.347,30 H 15.561 C 8.393,192 2.226,186.929 0.843,179.895 l -37.763,-192 C -38.743,-21.368 -31.642,-30 -22.202,-30 h 419.53 l 19.258,30 z"
             style="fill:#6c7ed6;fill-opacity:1;fill-rule:nonzero;stroke:none"
             id="path2447" /></g><g
           id="g2449"
           transform="translate(48.7295,199.5141)"><path
             d="m 0,0 2.393,12.166 c -1.78,0.291 -3.035,1.994 -2.673,3.83 l 30.579,155.477 c 0.301,1.529 1.642,2.632 3.201,2.632 h 0.743 L 37.763,192 c 1.383,7.034 7.55,12.105 14.717,12.105 h -34 C 11.313,204.105 5.146,199.034 3.763,192 L -34,0 c -1.823,-9.263 5.278,-17.895 14.718,-17.895 h 34 C 5.278,-17.895 -1.823,-9.263 0,0"
             style="fill:#4f67d2;fill-opacity:1;fill-rule:nonzero;stroke:none"
             id="path2451" /></g><g
           id="g2453"
           transform="translate(442.5683,324.771)"><path
             d="m 0,0 20.681,-109.148 2.985,4.97 c 4.265,7.102 13.478,9.403 20.582,5.136 3.953,-2.375 6.413,-6.284 7.086,-10.508 L 30.574,0 Z"
             style="fill:#6c7ed6;fill-opacity:1;fill-rule:nonzero;stroke:none"
             id="path2455" /></g><g
           id="g2457"
           transform="translate(443.1611,127.9062)"><path
             d="m 0,0 c -2.712,-4.516 -7.593,-7.277 -12.859,-7.277 h -15 v -45.199 c 0,-8.284 6.715,-15 15,-15 8.284,0 15,6.716 15,15 v 56.04 z"
             style="fill:#bc7c63;fill-opacity:1;fill-rule:nonzero;stroke:none"
             id="path2459" /></g><g
           id="g2461"
           transform="translate(263.8095,120.6289)"><path
             d="m 0,0 v -45.198 c 0,-8.284 6.716,-15 15,-15 8.284,0 15,6.716 15,15 V 0 Z"
             style="fill:#bc7c63;fill-opacity:1;fill-rule:nonzero;stroke:none"
             id="path2463" /></g><g
           id="g2465"
           transform="translate(443.1611,127.9062)"><path
             d="m 0,0 c -2.712,-4.516 -7.593,-7.277 -12.859,-7.277 h -15 v -45.199 c 0,-8.284 6.715,-15 15,-15 8.284,0 15,6.716 15,15 v 56.04 z"
             style="fill:#bc7c63;fill-opacity:1;fill-rule:nonzero;stroke:none"
             id="path2467" /></g><g
           id="g2469"
           transform="translate(263.8095,120.6289)"><path
             d="m 0,0 v -45.198 c 0,-8.284 6.716,-15 15,-15 8.284,0 15,6.716 15,15 V 0 Z"
             style="fill:#ab6b51;fill-opacity:1;fill-rule:nonzero;stroke:none"
             id="path2471" /></g><g
           id="g2473"
           transform="translate(356.0947,421.8174)"><path
             d="m 0,0 v 0 c 5.062,0 10.064,-0.247 15,-0.727 v 15.479 c 0,8.285 -6.716,15 -15,15 -8.284,0 -15,-6.715 -15,-15 V -0.727 C -10.065,-0.247 -5.062,0 0,0"
             style="fill:#bc7c63;fill-opacity:1;fill-rule:nonzero;stroke:none"
             id="path2475" /></g><g
           id="g2477"
           transform="translate(361.0947,436.6079)"><path
             d="m 0,0 c 0,4.462 1.695,8.52 4.459,11.598 -2.581,2.101 -5.872,3.364 -9.459,3.364 -8.284,0 -15,-6.716 -15,-15 v -15.479 c 4.935,0.48 9.938,0.726 15,0.726 1.674,0 3.339,-0.037 5,-0.09 z"
             style="fill:#ab6b51;fill-opacity:1;fill-rule:nonzero;stroke:none"
             id="path2479" /></g><path
           d="m 341.095,146.629 h 30 v 178.142 h -30 z"
           style="fill:#bc7c63;fill-opacity:1;fill-rule:nonzero;stroke:none"
           id="path2481" /><path
           d="m 341.095,146.629 h 19.773 v 178.142 h -19.773 z"
           style="fill:#ab6b51;fill-opacity:1;fill-rule:nonzero;stroke:none"
           id="path2483" /><g
           id="g2485"
           transform="translate(498.3174,327.3896)"><path
             d="m 0,0 c -22.51,56.496 -77.7,96.428 -142.223,96.428 -64.523,0 -119.714,-39.932 -142.222,-96.428 -0.883,-2.214 0.771,-4.619 3.155,-4.619 h 53.072 c 13.107,57.876 46.661,99.047 85.995,99.047 39.334,0 72.889,-41.171 85.994,-99.047 H -3.156 C -0.772,-4.619 0.882,-2.214 0,0"
             style="fill:#dfebfa;fill-opacity:1;fill-rule:nonzero;stroke:none"
             id="path2487" /></g><g
           id="g2489"
           transform="translate(340.0185,419.4804)"><path
             d="m 0,0 c 2.158,1.562 4.359,2.911 6.598,4.044 -60.411,-3.691 -111.346,-42.426 -132.744,-96.135 -0.883,-2.214 0.771,-4.618 3.155,-4.618 h 53.072 C -58.64,-46.903 -32.217,-9.471 0,0"
             style="fill:#b1dbfc;fill-opacity:1;fill-rule:nonzero;stroke:none"
             id="path2491" /></g><g
           id="g2493"
           transform="translate(356.0947,421.8174)"><path
             d="M 0,0 C 15.59,0 28.889,-41.171 34.083,-99.046 H 86.441 C 73.662,-40.12 39.785,2 0,2 -39.786,2 -73.662,-40.12 -86.442,-99.046 h 52.358 C -28.889,-41.171 -15.59,0 0,0"
             style="fill:#ff656f;fill-opacity:1;fill-rule:nonzero;stroke:none"
             id="path2495" /></g><g
           id="g2497"
           transform="translate(345.1318,422.7383)"><path
             d="m 0,0 c -34.957,-6.923 -63.892,-46.536 -75.479,-99.967 h 23.891 C -42.838,-50.792 -23.65,-13.095 0,0"
             style="fill:#ff4756;fill-opacity:1;fill-rule:nonzero;stroke:none"
             id="path2499" /></g><g
           id="g2501"
           transform="translate(356.0947,423.8174)"><path
             d="M 0,0 C -15.77,0 -29.195,-42.12 -34.261,-101.046 H 34.26 C 29.195,-42.12 15.769,0 0,0"
             style="fill:#dfebfa;fill-opacity:1;fill-rule:nonzero;stroke:none"
             id="path2503" /></g><g
           id="g2505"
           transform="translate(430.3017,118.6289)"><path
             d="m 0,0 h -167.209 c -8.284,0 -15,6.716 -15,15 0,8.284 6.716,15 15,15 H -8.488 l 44.42,73.964 c 4.264,7.102 13.477,9.403 20.582,5.137 7.102,-4.266 9.401,-13.481 5.136,-20.582 L 12.859,7.277 C 10.147,2.762 5.267,0 0,0"
             style="fill:#dfebfa;fill-opacity:1;fill-rule:nonzero;stroke:none"
             id="path2507" /></g><g
           id="g2509"
           transform="translate(322.3008,133.6289)"><path
             d="m 0,0 c 0,8.284 6.716,15 15,15 h -74.208 c -8.283,0 -15,-6.716 -15,-15 0,-8.284 6.717,-15 15,-15 H 15 C 6.716,-15 0,-8.284 0,0"
             style="fill:#b1dbfc;fill-opacity:1;fill-rule:nonzero;stroke:none"
             id="path2511" /></g><g
           id="g2513"
           transform="translate(222.8623,283.3374)"><path
             d="m 0,0 c -10.529,0.003 -21.056,4.481 -28.455,13.423 -1.608,1.943 -4.528,1.943 -6.137,0 -14.8,-17.883 -42.105,-17.911 -56.928,0 -1.608,1.943 -4.529,1.943 -6.136,0 -7.101,-8.58 -17.079,-13.037 -27.177,-13.388"
             style="fill:none;stroke:#000000;stroke-width:15;stroke-linecap:round;stroke-linejoin:round;stroke-miterlimit:10;stroke-dasharray:none;stroke-opacity:1"
             id="path2515" /></g><g
           id="g2517"
           transform="translate(175.3408,330.0986)"><path
             d="m 0,0 c -14.64,-6.789 -32.85,-3.465 -43.998,10.005 -1.608,1.944 -4.529,1.944 -6.137,0 -7.1,-8.579 -17.079,-13.037 -27.177,-13.387"
             style="fill:none;stroke:#000000;stroke-width:15;stroke-linecap:round;stroke-linejoin:round;stroke-miterlimit:10;stroke-dasharray:none;stroke-opacity:1"
             id="path2519" /></g><g
           id="g2521"
           transform="translate(133.9668,157.0605)"><path
             d="m 0,0 v 70.69 c 0,13.014 -10.55,23.564 -23.563,23.564 -13.014,0 -23.564,-10.55 -23.564,-23.564 V 55.855"
             style="fill:none;stroke:#000000;stroke-width:15;stroke-linecap:round;stroke-linejoin:round;stroke-miterlimit:10;stroke-dasharray:none;stroke-opacity:1"
             id="path2523" /></g><g
           id="g2525"
           transform="translate(181.0937,157.0605)"><path
             d="m 0,0 v 70.69 c 0,13.014 -10.55,23.564 -23.563,23.564 -13.014,0 -23.564,-10.55 -23.564,-23.564 V 55.855"
             style="fill:none;stroke:#000000;stroke-width:15;stroke-linecap:round;stroke-linejoin:round;stroke-miterlimit:10;stroke-dasharray:none;stroke-opacity:1"
             id="path2527" /></g><g
           id="g2529"
           transform="translate(434.5722,115.2632)"><path
             d="m 0,0 h -171.306 c -8.487,0 -15.367,6.88 -15.367,15.367 0,8.487 6.88,15.368 15.367,15.368 h 162.61 l 45.509,75.776 c 4.369,7.277 13.807,9.634 21.085,5.262 7.277,-4.37 9.632,-13.81 5.263,-21.086 L 13.175,7.456 C 10.396,2.829 5.396,0 0,0 Z"
             style="fill:none;stroke:#000000;stroke-width:15;stroke-linecap:round;stroke-linejoin:round;stroke-miterlimit:10;stroke-dasharray:none;stroke-opacity:1"
             id="path2531" /></g><g
           id="g2533"
           transform="translate(447.747,122.7187)"><path
             d="m 0,0 c -2.778,-4.626 -7.779,-7.456 -13.175,-7.456 h -15.367 v -44.256 c 0,-8.487 6.88,-15.368 15.367,-15.368 8.488,0 15.367,6.881 15.367,15.368 V 3.652 Z"
             style="fill:none;stroke:#000000;stroke-width:15;stroke-linecap:round;stroke-linejoin:round;stroke-miterlimit:10;stroke-dasharray:none;stroke-opacity:1"
             id="path2535" /></g><g
           id="g2537"
           transform="translate(264.0009,115.2632)"><path
             d="m 0,0 v -44.257 c 0,-8.487 6.881,-15.367 15.368,-15.367 8.486,0 15.367,6.88 15.367,15.367 V 0 Z"
             style="fill:none;stroke:#000000;stroke-width:15;stroke-linecap:round;stroke-linejoin:round;stroke-miterlimit:10;stroke-dasharray:none;stroke-opacity:1"
             id="path2539" /></g><g
           id="g2541"
           transform="translate(447.747,122.7187)"><path
             d="m 0,0 c -2.778,-4.626 -7.779,-7.456 -13.175,-7.456 h -15.367 v -44.256 c 0,-8.487 6.88,-15.368 15.367,-15.368 8.488,0 15.367,6.881 15.367,15.368 V 3.652 Z"
             style="fill:none;stroke:#000000;stroke-width:15;stroke-linecap:round;stroke-linejoin:round;stroke-miterlimit:10;stroke-dasharray:none;stroke-opacity:1"
             id="path2543" /></g><g
           id="g2545"
           transform="translate(264.0009,115.2632)"><path
             d="m 0,0 v -44.257 c 0,-8.487 6.881,-15.367 15.368,-15.367 8.486,0 15.367,6.88 15.367,15.367 V 0 Z"
             style="fill:none;stroke:#000000;stroke-width:15;stroke-linecap:round;stroke-linejoin:round;stroke-miterlimit:10;stroke-dasharray:none;stroke-opacity:1"
             id="path2547" /></g><g
           id="g2549"
           transform="translate(504.2539,329.1386)"><path
             d="m 0,0 c -23.061,57.88 -79.604,98.79 -145.707,98.79 -66.104,0 -122.647,-40.91 -145.708,-98.79 -0.903,-2.269 0.792,-4.732 3.233,-4.732 H -3.233 C -0.791,-4.732 0.903,-2.269 0,0 Z"
             style="fill:none;stroke:#000000;stroke-width:15;stroke-linecap:round;stroke-linejoin:round;stroke-miterlimit:10;stroke-dasharray:none;stroke-opacity:1"
             id="path2551" /></g><g
           id="g2553"
           transform="translate(358.5468,427.9287)"><path
             d="m 0,0 v 0 c 5.186,0 10.312,-0.252 15.367,-0.744 v 13.809 c 0,8.487 -6.881,15.367 -15.367,15.367 -8.487,0 -15.368,-6.88 -15.368,-15.367 V -0.744 C -10.312,-0.252 -5.186,0 0,0 Z"
             style="fill:none;stroke:#000000;stroke-width:15;stroke-linecap:round;stroke-linejoin:round;stroke-miterlimit:10;stroke-dasharray:none;stroke-opacity:1"
             id="path2555" /></g><path
           d="m 343.179,145.998 h 30.735 v 178.409 h -30.735 z"
           style="fill:none;stroke:#000000;stroke-width:15;stroke-linecap:round;stroke-linejoin:round;stroke-miterlimit:10;stroke-dasharray:none;stroke-opacity:1"
           id="path2557" /><g
           id="g2559"
           transform="translate(358.5468,427.9287)"><path
             d="M 0,0 C -40.761,0 -75.468,-43.152 -88.56,-103.522 H 88.56 C 75.467,-43.152 40.761,0 0,0 Z"
             style="fill:none;stroke:#000000;stroke-width:15;stroke-linecap:round;stroke-linejoin:round;stroke-miterlimit:10;stroke-dasharray:none;stroke-opacity:1"
             id="path2561" /></g><g
           id="g2563"
           transform="translate(358.5468,427.9287)"><path
             d="M 0,0 C -16.155,0 -29.911,-43.152 -35.101,-103.522 H 35.1 C 29.91,-43.152 16.155,0 0,0 Z"
             style="fill:none;stroke:#000000;stroke-width:15;stroke-linecap:round;stroke-linejoin:round;stroke-miterlimit:10;stroke-dasharray:none;stroke-opacity:1"
             id="path2565" /></g><g
           id="g2567"
           transform="translate(373.914,212.9155)"><path
             d="M 0,0 V -30.735 H 73.691 L 92.15,0 Z"
             style="fill:none;stroke:#000000;stroke-width:15;stroke-linecap:round;stroke-linejoin:round;stroke-miterlimit:10;stroke-dasharray:none;stroke-opacity:1"
             id="path2569" /></g><g
           id="g2571"
           transform="translate(163.165,409.6196)"><path
             d="m 0,0 h -101.605 c -7.344,0 -13.662,-5.196 -15.079,-12.402 l -38.688,-196.704 c -1.867,-9.49 5.408,-18.333 15.079,-18.333 h 320.307 v 30.735 h -301.623 l 32.643,165.969 H 81.492 C 93.128,-18.438 106.732,-8.025 121.803,0 H 35.857"
             style="fill:none;stroke:#000000;stroke-width:15;stroke-linecap:round;stroke-linejoin:round;stroke-miterlimit:10;stroke-dasharray:none;stroke-opacity:1"
             id="path2573" /></g><g
           id="g2575"
           transform="translate(484.0693,295.8999)"><path
             d="M 0,0 -5.606,28.507 H -36.93 l 21.187,-107.725 3.058,5.092 c 4.37,7.277 13.808,9.634 21.086,5.263 4.051,-2.433 6.571,-6.439 7.26,-10.766 l -8.608,43.772"
             style="fill:none;stroke:#000000;stroke-width:15;stroke-linecap:round;stroke-linejoin:round;stroke-miterlimit:10;stroke-dasharray:none;stroke-opacity:1"
             id="path2577" /></g></g></g></g></svg>
