<?xml version="1.0" encoding="UTF-8"?>
<svg xmlns="http://www.w3.org/2000/svg" xmlns:xlink="http://www.w3.org/1999/xlink" version="1.1" id="Capa_1" x="0px" y="0px" viewBox="0 0 511.996 511.996" style="enable-background:new 0 0 511.996 511.996;" xml:space="preserve" width="512" height="512">
<g>
	<g>
		<rect x="93.998" y="246.166" style="fill:#FFD086;" width="361.49" height="228.5"/>
		<rect x="56.508" y="246.166" style="fill:#FFC365;" width="41.09" height="228.5"/>
		<path style="fill:#00D2FC;" d="M238.389,302.104h-35.046c-4.801,0-8.693,3.892-8.693,8.693v88.325&#10;&#9;&#9;&#9;c0,4.801,3.892,8.693,8.693,8.693h35.046c4.801,0,8.693-3.892,8.693-8.693v-88.325&#10;&#9;&#9;&#9;C247.081,305.995,243.19,302.104,238.389,302.104z"/>
		<path style="fill:#00C2FB;" d="M223.192,399.121v-88.325c0-4.801,3.892-8.693,8.693-8.693h-28.543&#10;&#9;&#9;&#9;c-4.801,0-8.693,3.892-8.693,8.693v88.325c0,4.801,3.892,8.693,8.693,8.693h28.543&#10;&#9;&#9;&#9;C227.084,407.814,223.192,403.922,223.192,399.121z"/>
		<path style="fill:#00D2FC;" d="M323.847,302.104h-35.046c-4.801,0-8.693,3.892-8.693,8.693v88.325&#10;&#9;&#9;&#9;c0,4.801,3.892,8.693,8.693,8.693h35.046c4.801,0,8.693-3.892,8.693-8.693v-88.325&#10;&#9;&#9;&#9;C332.54,305.995,328.648,302.104,323.847,302.104z"/>
		<path style="fill:#00C2FB;" d="M308.651,399.121v-88.325c0-4.801,3.892-8.693,8.693-8.693h-28.543&#10;&#9;&#9;&#9;c-4.801,0-8.693,3.892-8.693,8.693v88.325c0,4.801,3.892,8.693,8.693,8.693h28.543&#10;&#9;&#9;&#9;C312.542,407.814,308.651,403.922,308.651,399.121z"/>
		<path style="fill:#00D2FC;" d="M409.305,302.104h-35.046c-4.801,0-8.693,3.892-8.693,8.693v88.325&#10;&#9;&#9;&#9;c0,4.801,3.892,8.693,8.693,8.693h35.046c4.801,0,8.693-3.892,8.693-8.693v-88.325&#10;&#9;&#9;&#9;C417.998,305.995,414.106,302.104,409.305,302.104z"/>
		<path style="fill:#00C2FB;" d="M394.109,399.121v-88.325c0-4.801,3.892-8.693,8.693-8.693h-28.543&#10;&#9;&#9;&#9;c-4.801,0-8.693,3.892-8.693,8.693v88.325c0,4.801,3.892,8.693,8.693,8.693h28.543&#10;&#9;&#9;&#9;C398.001,407.814,394.109,403.922,394.109,399.121z"/>
		<path style="fill:#E39B74;" d="M155.305,302.104h-15.682l-2.349,1.312l-4,5.125v166.125h30.724v-163.87&#10;&#9;&#9;&#9;C163.998,305.995,160.106,302.104,155.305,302.104z"/>
		<path style="fill:#DD8858;" d="M143.781,302.104h-41.09c-4.801,0-8.693,3.892-8.693,8.693v163.87h41.09v-163.87&#10;&#9;&#9;&#9;C135.088,305.995,138.98,302.104,143.781,302.104z"/>
		<path style="fill:#EF6060;" d="M350.838,35.332c-30.85,0-57.448,18.194-69.656,44.437c-1.743,3.748,1.024,8.037,5.157,8.037&#10;&#9;&#9;&#9;h37.156v0l4.153-3.14h23.189V35.332z"/>
		<path style="fill:#F67B7B;" d="M350.838,35.332L350.838,35.332v49.334h24.311l3.031,3.14v0h37.156c4.133,0,6.901-4.29,5.157-8.037&#10;&#9;&#9;&#9;C408.287,53.526,381.688,35.332,350.838,35.332z"/>
		<path style="fill:#C9F0FE;" d="M361.755,41.046L361.755,41.046h-1.855l-8.833,15.37l-5.25,19.083l-2,9.667l1.513,2.64h32.851&#10;&#9;&#9;&#9;C375.522,66.574,369.477,49.478,361.755,41.046z"/>
		<path style="fill:#9BE8FD;" d="M350.838,35.332L350.838,35.332c-12.727,0-23.525,21.983-27.342,52.474h21.833&#10;&#9;&#9;&#9;c2.658-21.232,8.703-38.328,16.425-46.76C358.388,37.37,354.703,35.332,350.838,35.332z"/>
		<path style="fill:#FFC365;" d="M130.785,49.193h-3.402l-8.128,9.091l-3.189,11.729l2.139,12.037l4.63,8.025l7.951,2.832&#10;&#9;&#9;&#9;c7.554-4.357,12.641-12.51,12.641-21.857S138.339,53.551,130.785,49.193z"/>
		<path style="fill:#FFA90F;" d="M118.144,71.05c0-9.347,5.088-17.5,12.641-21.857c-3.704-2.137-7.997-3.365-12.581-3.365&#10;&#9;&#9;&#9;c-13.93,0-25.222,11.292-25.222,25.222s11.292,25.222,25.222,25.222c4.583,0,8.877-1.229,12.581-3.365&#10;&#9;&#9;&#9;C123.232,88.55,118.144,80.397,118.144,71.05z"/>
		<path style="fill:#92DF93;" d="M493.402,468.692H55.125l-3.893,2.224l-3.583,3v21.417l0.917,4.583l4.333,3.917l1.929,0.663&#10;&#9;&#9;&#9;h438.574c6.127,0,11.094-4.967,11.094-11.094v-13.617C504.496,473.659,499.529,468.692,493.402,468.692z"/>
		<path style="fill:#73D578;" d="M48.59,493.403v-13.617c0-6.127,4.967-11.094,11.094-11.094h-41.09&#10;&#9;&#9;&#9;c-6.127,0-11.094,4.967-11.094,11.094v13.617c0,6.127,4.967,11.094,11.094,11.094h41.09&#10;&#9;&#9;&#9;C53.557,504.496,48.59,499.529,48.59,493.403z"/>
		<path style="fill:#62DDFC;" d="M469.118,215.602H78.604c-2.105,1.325-3.788,2.398-3.788,2.398l-3.667,5.333v22.333l3.625,4&#10;&#9;&#9;&#9;c0,0,3.154,0.936,5.898,1.74h388.446c6.127,0,11.094-4.967,11.094-11.094v-13.617&#10;&#9;&#9;&#9;C480.211,220.568,475.245,215.602,469.118,215.602z"/>
		<path style="fill:#00D2FC;" d="M72.875,240.313v-13.617c0-6.127,4.967-11.094,11.094-11.094h-41.09&#10;&#9;&#9;&#9;c-6.127,0-11.094,4.967-11.094,11.094v13.617c0,6.127,4.967,11.094,11.094,11.094h41.09&#10;&#9;&#9;&#9;C77.842,251.406,72.875,246.439,72.875,240.313z"/>
	</g>
	<g>
		<path style="fill:none;stroke:#000000;stroke-width:15;stroke-linecap:round;stroke-linejoin:round;stroke-miterlimit:10;" d="&#10;&#9;&#9;&#9;M469.118,215.602H42.878c-6.127,0-11.094,4.967-11.094,11.094v13.617c0,6.127,4.967,11.094,11.094,11.094h426.24&#10;&#9;&#9;&#9;c6.127,0,11.094-4.967,11.094-11.094v-13.617C480.212,220.568,475.245,215.602,469.118,215.602z"/>
		<g>
			
				<circle style="fill:none;stroke:#000000;stroke-width:15;stroke-linecap:round;stroke-linejoin:round;stroke-miterlimit:10;" cx="118.205" cy="71.05" r="25.222"/>
			
				<line style="fill:none;stroke:#000000;stroke-width:15;stroke-linecap:round;stroke-linejoin:round;stroke-miterlimit:10;" x1="118.205" y1="16.973" x2="118.205" y2="7.5"/>
			
				<line style="fill:none;stroke:#000000;stroke-width:15;stroke-linecap:round;stroke-linejoin:round;stroke-miterlimit:10;" x1="118.205" y1="134.601" x2="118.205" y2="125.128"/>
			
				<line style="fill:none;stroke:#000000;stroke-width:15;stroke-linecap:round;stroke-linejoin:round;stroke-miterlimit:10;" x1="79.966" y1="32.812" x2="73.268" y2="26.113"/>
			
				<line style="fill:none;stroke:#000000;stroke-width:15;stroke-linecap:round;stroke-linejoin:round;stroke-miterlimit:10;" x1="163.142" y1="115.987" x2="156.443" y2="109.289"/>
			
				<line style="fill:none;stroke:#000000;stroke-width:15;stroke-linecap:round;stroke-linejoin:round;stroke-miterlimit:10;" x1="64.127" y1="71.05" x2="54.654" y2="71.05"/>
			
				<line style="fill:none;stroke:#000000;stroke-width:15;stroke-linecap:round;stroke-linejoin:round;stroke-miterlimit:10;" x1="181.755" y1="71.05" x2="172.282" y2="71.05"/>
			
				<line style="fill:none;stroke:#000000;stroke-width:15;stroke-linecap:round;stroke-linejoin:round;stroke-miterlimit:10;" x1="79.966" y1="109.289" x2="73.268" y2="115.987"/>
			
				<line style="fill:none;stroke:#000000;stroke-width:15;stroke-linecap:round;stroke-linejoin:round;stroke-miterlimit:10;" x1="163.142" y1="26.113" x2="156.443" y2="32.812"/>
		</g>
		
			<line style="fill:none;stroke:#000000;stroke-width:15;stroke-linecap:round;stroke-linejoin:round;stroke-miterlimit:10;" x1="276.088" y1="135.437" x2="276.088" y2="214.602"/>
		
			<polyline style="fill:none;stroke:#000000;stroke-width:15;stroke-linecap:round;stroke-linejoin:round;stroke-miterlimit:10;" points="&#10;&#9;&#9;&#9;276.088,177.576 318.088,177.576 318.088,214.602 &#9;&#9;"/>
		
			<line style="fill:none;stroke:#000000;stroke-width:15;stroke-linecap:round;stroke-linejoin:round;stroke-miterlimit:10;" x1="425.588" y1="135.437" x2="425.588" y2="214.602"/>
		
			<polyline style="fill:none;stroke:#000000;stroke-width:15;stroke-linecap:round;stroke-linejoin:round;stroke-miterlimit:10;" points="&#10;&#9;&#9;&#9;425.588,177.576 383.588,177.576 383.588,214.602 &#9;&#9;"/>
		
			<line style="fill:none;stroke:#000000;stroke-width:15;stroke-linecap:round;stroke-linejoin:round;stroke-miterlimit:10;" x1="319.172" y1="151.704" x2="382.505" y2="151.704"/>
		
			<line style="fill:none;stroke:#000000;stroke-width:15;stroke-linecap:round;stroke-linejoin:round;stroke-miterlimit:10;" x1="350.838" y1="155.887" x2="350.838" y2="214.602"/>
		
			<line style="fill:none;stroke:#000000;stroke-width:15;stroke-linecap:round;stroke-linejoin:round;stroke-miterlimit:10;" x1="350.838" y1="150.27" x2="350.838" y2="89.103"/>
		
			<line style="fill:none;stroke:#000000;stroke-width:15;stroke-linecap:round;stroke-linejoin:round;stroke-miterlimit:10;" x1="350.838" y1="33.77" x2="350.838" y2="18.77"/>
		<path style="fill:none;stroke:#000000;stroke-width:15;stroke-linecap:round;stroke-linejoin:round;stroke-miterlimit:10;" d="&#10;&#9;&#9;&#9;M420.494,79.769c-12.208-26.243-38.806-44.437-69.656-44.437h0c-30.85,0-57.448,18.194-69.656,44.437&#10;&#9;&#9;&#9;c-1.743,3.748,1.024,8.037,5.157,8.037h128.997C419.47,87.806,422.237,83.517,420.494,79.769z"/>
		<path style="fill:none;stroke:#000000;stroke-width:15;stroke-linecap:round;stroke-linejoin:round;stroke-miterlimit:10;" d="&#10;&#9;&#9;&#9;M323.496,87.806h54.684c-3.817-30.491-14.616-52.474-27.342-52.474h0C338.112,35.332,327.313,57.315,323.496,87.806z"/>
		
			<line style="fill:none;stroke:#000000;stroke-width:15;stroke-linecap:round;stroke-linejoin:round;stroke-miterlimit:10;" x1="138.498" y1="381.523" x2="138.498" y2="389.273"/>
		<path style="fill:none;stroke:#000000;stroke-width:15;stroke-linecap:round;stroke-linejoin:round;stroke-miterlimit:10;" d="&#10;&#9;&#9;&#9;M155.305,302.104h-52.615c-4.801,0-8.693,3.892-8.693,8.693v157.896h70V310.796C163.998,305.995,160.106,302.104,155.305,302.104z&#10;&#9;&#9;&#9;"/>
		<path style="fill:none;stroke:#000000;stroke-width:15;stroke-linecap:round;stroke-linejoin:round;stroke-miterlimit:10;" d="&#10;&#9;&#9;&#9;M238.389,302.104h-35.046c-4.801,0-8.693,3.892-8.693,8.693v88.325c0,4.801,3.892,8.693,8.693,8.693h35.046&#10;&#9;&#9;&#9;c4.801,0,8.693-3.892,8.693-8.693v-88.325C247.081,305.995,243.19,302.104,238.389,302.104z"/>
		<path style="fill:none;stroke:#000000;stroke-width:15;stroke-linecap:round;stroke-linejoin:round;stroke-miterlimit:10;" d="&#10;&#9;&#9;&#9;M323.847,302.104h-35.046c-4.801,0-8.693,3.892-8.693,8.693v88.325c0,4.801,3.892,8.693,8.693,8.693h35.046&#10;&#9;&#9;&#9;c4.801,0,8.693-3.892,8.693-8.693v-88.325C332.54,305.995,328.648,302.104,323.847,302.104z"/>
		<path style="fill:none;stroke:#000000;stroke-width:15;stroke-linecap:round;stroke-linejoin:round;stroke-miterlimit:10;" d="&#10;&#9;&#9;&#9;M409.305,302.104h-35.046c-4.801,0-8.693,3.892-8.693,8.693v88.325c0,4.801,3.892,8.693,8.693,8.693h35.046&#10;&#9;&#9;&#9;c4.801,0,8.693-3.892,8.693-8.693v-88.325C417.998,305.995,414.106,302.104,409.305,302.104z"/>
		
			<line style="fill:none;stroke:#000000;stroke-width:15;stroke-linecap:round;stroke-linejoin:round;stroke-miterlimit:10;" x1="199.908" y1="354.959" x2="241.908" y2="354.959"/>
		
			<line style="fill:none;stroke:#000000;stroke-width:15;stroke-linecap:round;stroke-linejoin:round;stroke-miterlimit:10;" x1="285.158" y1="354.959" x2="326.908" y2="354.959"/>
		
			<line style="fill:none;stroke:#000000;stroke-width:15;stroke-linecap:round;stroke-linejoin:round;stroke-miterlimit:10;" x1="370.658" y1="354.959" x2="412.992" y2="354.959"/>
		<path style="fill:none;stroke:#000000;stroke-width:15;stroke-linecap:round;stroke-linejoin:round;stroke-miterlimit:10;" d="&#10;&#9;&#9;&#9;M273.498,504.496h219.904c6.127,0,11.094-4.967,11.094-11.094v-13.617c0-6.127-4.967-11.094-11.094-11.094H18.594&#10;&#9;&#9;&#9;c-6.127,0-11.094,4.967-11.094,11.094v13.617c0,6.127,4.967,11.094,11.094,11.094h219.904"/>
		
			<polyline style="fill:none;stroke:#000000;stroke-width:15;stroke-linecap:round;stroke-linejoin:round;stroke-miterlimit:10;" points="&#10;&#9;&#9;&#9;455.488,337.459 455.488,251.406 56.508,251.406 56.508,468.692 455.488,468.692 455.488,372.459 &#9;&#9;"/>
	</g>
</g>















</svg>
