<svg id="_x33_0" enable-background="new 0 0 64 64" height="512" viewBox="0 0 64 64" width="512" xmlns="http://www.w3.org/2000/svg"><g><g><g><path d="m44.33 44.83-4.51 2.26-.37-2.14-.71-4.14h.01l6.99-1.75.25 2.81c.01.09.01.17.01.26 0 1.15-.65 2.19-1.67 2.7z" fill="#fcd770"/></g><g><path d="m40.66 52 .3 1.79c.03.14.04.28.04.42 0 1.08-.66 2.05-1.66 2.45l-4.59 1.84c-5.78 2.31-11.95 3.5-18.17 3.5-.92 0-1.73-.62-1.96-1.51-.19-.73-.62-1.36-1.18-1.8-.57-.43-1.28-.69-2.03-.69h-1.48c-1.07 0-1.93-.86-1.93-1.93 0-.05 0-.09.01-.14l.29-3.93h32.35z" fill="#ffeaa7"/></g><g><path d="m43 8 2.74 31.06-6.99 1.75h-.01l-4.63-27.14c-.07-.45-.11-.9-.11-1.35v-.32c0-1.46.39-2.83 1.07-4h.01z" fill="#48cfad"/></g><g><path d="m20.36 2h15.03c2.36 0 4.65.7 6.61 2-2.21 0-4.21.9-5.66 2.34-.49.49-.92 1.05-1.26 1.66h-.01c-.68 1.17-1.07 2.54-1.07 4v.32c0 .45.04.9.11 1.35l4.63 27.14.71 4.14.37 2.14.83 4.91h-32.35l.59-8 2.49-33.66c.06-.82.23-1.6.5-2.34.55-1.59 1.54-2.96 2.83-3.99 1.54-1.26 3.51-2.01 5.65-2.01z" fill="#5cd6b3"/></g><g><path d="m8 4h6.7l.01.01c-1.29 1.03-2.28 2.4-2.83 3.99h-.01-3.87z" fill="#e6e9ed"/></g><g><path d="m56 4v4h-13-7.92c.34-.61.77-1.17 1.26-1.66 1.45-1.44 3.45-2.34 5.66-2.34z" fill="#e6e9ed"/></g><g><path d="m8 8v1c0 .55-.45 1-1 1h-1c-1.1 0-2.1-.45-2.83-1.17-.72-.73-1.17-1.73-1.17-2.83 0-2.21 1.79-4 4-4h1c.55 0 1 .45 1 1v1z" fill="#aab2bd"/></g><g><path d="m58 2c2.21 0 4 1.79 4 4 0 1.1-.45 2.1-1.17 2.83-.73.72-1.73 1.17-2.83 1.17h-1c-.55 0-1-.45-1-1v-1-4-1c0-.55.45-1 1-1z" fill="#aab2bd"/></g></g><g><path d="m58 1h-1c-1.103 0-2 .897-2 2h-12.704c-2.068-1.31-4.448-2-6.901-2h-15.037c-2.223 0-4.292.746-5.968 2h-5.39c0-1.103-.897-2-2-2h-1c-2.757 0-5 2.243-5 5s2.243 5 5 5h1c1.103 0 2-.897 2-2h1.571c-.085.413-.153.831-.185 1.261l-3.379 45.606c-.004.069-.007.136-.007.204 0 1.616 1.313 2.929 2.929 2.929h1.482c1.056 0 1.978.714 2.242 1.736.346 1.333 1.549 2.264 2.925 2.264 6.38 0 12.618-1.201 18.541-3.57l4.591-1.836c1.392-.557 2.29-1.885 2.29-3.384 0-.196-.017-.392-.05-.585l-1.02-5.972 3.847-1.923c1.371-.686 2.223-2.064 2.223-3.597 0-.118-.005-.235-.016-.354l-2.892-32.779h10.908c0 1.103.897 2 2 2h1c2.757 0 5-2.243 5-5s-2.243-5-5-5zm-51 8h-1c-1.654 0-3-1.346-3-3s1.346-3 3-3h1zm2-2v-2h3.377c-.464.614-.852 1.287-1.167 2zm.817 38h3.183v-2h-3.035l2.415-32.591c.308-4.155 3.812-7.409 7.978-7.409h15.036c1.188 0 2.357.192 3.468.564-3.42 1.277-5.862 4.577-5.862 8.436v.322c0 .507.043 1.017.129 1.514l5.161 30.23-9.39.939.199 1.99 9.528-.953.847 4.958h-30.101zm29.151 10.736-4.591 1.836c-5.687 2.275-11.675 3.428-17.799 3.428-.465 0-.872-.315-.989-.766-.492-1.904-2.211-3.234-4.178-3.234h-1.482c-.512 0-.929-.417-.927-.997l.222-3.003h30.591l.164.961c.014.082.021.166.021.249 0 .677-.405 1.275-1.032 1.526zm6.024-13.781c.005.06.008.118.008.178 0 .771-.428 1.463-1.117 1.808l-3.304 1.652-.689-4.035 4.958-1.239zm-.322-3.653-5.117 1.279-4.453-26.082c-.066-.387-.1-.782-.1-1.177v-.322c0-1.074.251-2.089.685-3h6.399zm10.33-31.302h-17.889c1.263-1.235 2.987-2 4.889-2h13zm3 2h-1v-6h1c1.654 0 3 1.346 3 3s-1.346 3-3 3z"/><path d="m21.515 5.857-1.029-1.715c-3.384 2.031-5.486 5.744-5.486 9.689v3.169h2v-3.169c0-3.247 1.729-6.303 4.515-7.974z"/><path d="m15 21h2v26h-2z"/><path d="m25 23h2v4h-2z"/><path d="m38.5 16.969h2v8.062h-2z" transform="matrix(.992 -.124 .124 .992 -2.3 5.062)"/><path d="m25 43h-3.586l-1.707-1.707-1.414 1.414 2.293 2.293h4.414v4h2v-18h-2z"/></g></g></svg>