<?xml version="1.0" encoding="UTF-8" standalone="no"?>
<!-- Created with Inkscape (http://www.inkscape.org/) -->

<svg
   version="1.1"
   id="svg111"
   xml:space="preserve"
   width="682.66669"
   height="682.66669"
   viewBox="0 0 682.66669 682.66669"
   xmlns="http://www.w3.org/2000/svg"
   xmlns:svg="http://www.w3.org/2000/svg"><defs
     id="defs115"><clipPath
       clipPathUnits="userSpaceOnUse"
       id="clipPath125"><path
         d="M 0,512 H 512 V 0 H 0 Z"
         id="path123" /></clipPath></defs><g
     id="g117"
     transform="matrix(1.3333333,0,0,-1.3333333,0,682.66667)"><g
       id="g119"><g
         id="g121"
         clip-path="url(#clipPath125)"><g
           id="g127"
           transform="translate(502,191)"><path
             d="m 0,0 v -50 c 0,-16.57 -13.43,-30 -30,-30 h -432 c -16.57,0 -30,13.43 -30,30 V 0 Z"
             style="fill:#f3eff0;fill-opacity:1;fill-rule:nonzero;stroke:none"
             id="path129" /></g><g
           id="g131"
           transform="translate(502,191)"><path
             d="m 0,0 v -50 c 0,-16.57 -13.43,-30 -30,-30 h -432 c -16.57,0 -30,13.43 -30,30 V 0 Z"
             style="fill:none;stroke:#000000;stroke-width:20;stroke-linecap:round;stroke-linejoin:round;stroke-miterlimit:10;stroke-dasharray:none;stroke-opacity:1"
             id="path133" /></g><g
           id="g135"
           transform="translate(397.5,51)"><path
             d="m 0,0 h -40 l -23,60 h 40 z"
             style="fill:#f3eff0;fill-opacity:1;fill-rule:nonzero;stroke:none"
             id="path137" /></g><g
           id="g139"
           transform="translate(397.5,51)"><path
             d="m 0,0 h -40 l -23,60 h 40 z"
             style="fill:none;stroke:#000000;stroke-width:20;stroke-linecap:round;stroke-linejoin:round;stroke-miterlimit:10;stroke-dasharray:none;stroke-opacity:1"
             id="path141" /></g><g
           id="g143"
           transform="translate(154.5,51)"><path
             d="m 0,0 h -40 l 20,60 h 40 z"
             style="fill:#f3eff0;fill-opacity:1;fill-rule:nonzero;stroke:none"
             id="path145" /></g><g
           id="g147"
           transform="translate(154.5,51)"><path
             d="m 0,0 h -40 l 20,60 h 40 z"
             style="fill:none;stroke:#000000;stroke-width:20;stroke-linecap:round;stroke-linejoin:round;stroke-miterlimit:10;stroke-dasharray:none;stroke-opacity:1"
             id="path149" /></g><g
           id="g151"
           transform="translate(210.625,151)"><path
             d="M 0,0 H 90.75"
             style="fill:none;stroke:#000000;stroke-width:20;stroke-linecap:round;stroke-linejoin:round;stroke-miterlimit:10;stroke-dasharray:0, 45;stroke-dashoffset:0;stroke-opacity:1"
             id="path153" /></g><g
           id="g155"
           transform="translate(10,191)"><path
             d="m 0,0 v 240 c 0,16.57 13.43,30 30,30 h 432 c 16.57,0 30,-13.43 30,-30 V 0 Z"
             style="fill:#aab1c7;fill-opacity:1;fill-rule:nonzero;stroke:none"
             id="path157" /></g><g
           id="g159"
           transform="translate(10,191)"><path
             d="m 0,0 v 240 c 0,16.57 13.43,30 30,30 h 432 c 16.57,0 30,-13.43 30,-30 V 0 Z"
             style="fill:none;stroke:#000000;stroke-width:20;stroke-linecap:round;stroke-linejoin:round;stroke-miterlimit:10;stroke-dasharray:458, 45, 0, 45, 1000;stroke-dashoffset:0;stroke-opacity:1"
             id="path161" /></g></g></g></g></svg>
