<svg height="512" viewBox="0 0 64 64" width="512" xmlns="http://www.w3.org/2000/svg"><g id="_06-Wash_hands" data-name="06-Wash hands"><path d="m63 51v12l-22.64-10.83.64-.17 5-5z" fill="#f2b59d"/><path d="m4 43.87a4.078 4.078 0 0 1 -1.83-1.04 4.025 4.025 0 0 1 -1.17-2.83 3 3 0 0 1 3-3h4l.03-.04 4.53 3.47a2.8 2.8 0 0 0 3.64-.22 2.714 2.714 0 0 0 .8-1.92v-.47a2 2 0 0 0 -1-1.82l-3.99-3.15.03-.04 7.15 5.56a2.975 2.975 0 0 0 4.81-2.35v-.53a2.956 2.956 0 0 0 -1.15-2.35l1.15.86a4.022 4.022 0 0 0 2.02 1 2.97 2.97 0 0 0 2.98-2.98v-.53a2.965 2.965 0 0 0 -1.19-2.38l-2.81-2.11h1v-1a2.006 2.006 0 0 0 -2-2h-8.53a2.469 2.469 0 0 1 -1.1-4.68l2.75-.96 3.88-1.36 3 .33 6 .67 3.84 3.2 14.16 11.8h15v18l-17-4-5 5-.64.17-17.97 4.73a3.056 3.056 0 0 1 -.79.1h-2.3a3.142 3.142 0 0 1 -2.22-.92l-2.08-2.08h-1.29a4.015 4.015 0 0 1 -3.72-2.51l-.99-2.49h-.97a2.986 2.986 0 0 1 -2.78-1.89l-1.25-3.11z" fill="#f2c4b2"/><path d="m33 16 1 5-.16.2-3.84-3.2-6-.67v-2.95a3.373 3.373 0 0 1 6.01-2.11z" fill="#f2b59d"/><path d="m26 26v1h-1l-3.28-2.46a2.7 2.7 0 0 0 -1.62-.54h3.9a2.006 2.006 0 0 1 2 2z" fill="#ed9776"/><path d="m27.81 29.11-2.81-2.11-3.28-2.46a2.7 2.7 0 0 0 -1.62-.54h-1.41a2.684 2.684 0 0 0 -2.69 2.69 2.887 2.887 0 0 0 .8 1.91l-.08-.06a2.7 2.7 0 0 0 -1.62-.54h-1.41a2.687 2.687 0 0 0 -1.65 4.81l7.15 5.56a2.975 2.975 0 0 0 4.81-2.35v-.53a2.956 2.956 0 0 0 -1.15-2.35l1.15.86a4.022 4.022 0 0 0 2.02 1 2.97 2.97 0 0 0 2.98-2.98v-.53a2.965 2.965 0 0 0 -1.19-2.38z" fill="#f2b59d"/><path d="m18 1v8h-1-7-1v-2h-8v-6z" fill="#d4d4d4"/><g fill="#f2b59d"><path d="m17 37.82v.47a2.714 2.714 0 0 1 -.8 1.92 2.8 2.8 0 0 1 -3.64.22l-4.53-3.47-2.08-1.6a2.429 2.429 0 0 1 -.89-1.37 2.505 2.505 0 0 1 -.06-.55 2.458 2.458 0 0 1 2.48-2.44h1.31a2.487 2.487 0 0 1 1.49.49l1.73 1.36 3.99 3.15a2 2 0 0 1 1 1.82z"/><path d="m29.81 32.11-.81-.61v.518a2.97 2.97 0 0 1 -2.98 2.982 4.022 4.022 0 0 1 -2.02-1l-1.15-.86a2.956 2.956 0 0 1 1.15 2.35v.01l.81.607-.81-.6v.514a2.978 2.978 0 0 1 -4.81 2.35l-6.18-4.806c0 .024 0 .047-.006.071l2.996 2.364a2 2 0 0 1 1 1.82v.292l4.19 3.258a2.975 2.975 0 0 0 4.81-2.35v-.53a2.956 2.956 0 0 0 -1.15-2.35l1.15.86a4.022 4.022 0 0 0 2.02 1 2.97 2.97 0 0 0 2.98-2.98v-.53a2.965 2.965 0 0 0 -1.19-2.38z"/><path d="m18 39-1-.789v.079a2.714 2.714 0 0 1 -.8 1.92 2.8 2.8 0 0 1 -3.64.22l-4.53-3.47-.03.04h-.937a2.432 2.432 0 0 0 .887 1.36l2.08 1.6 4.53 3.47a2.8 2.8 0 0 0 3.64-.22 2.714 2.714 0 0 0 .8-1.92v-.47a2 2 0 0 0 -1-1.82z"/></g><path d="m13 60.75c0 1.66-.9 2.25-2 2.25s-2-.59-2-2.25 2-3.75 2-3.75 2 2.09 2 3.75z" fill="#96e0ff"/><path d="m10 59.75a5.1 5.1 0 0 1 1.1-2.638l-.1-.112s-2 2.09-2 3.75.9 2.25 2 2.25a1.786 1.786 0 0 0 1.812-1.134 2.385 2.385 0 0 1 -.812.134c-1.1 0-2-.59-2-2.25z" fill="#81d2f5"/><path d="m8.03 36.96-.03.04h-4a3 3 0 0 0 -3 3v-2a4 4 0 0 1 4-4l.06-.01a2.429 2.429 0 0 0 .89 1.37z" fill="#ed9776"/><path d="m8 56a2.7 2.7 0 0 1 -3 3 2.7 2.7 0 0 1 -3-3c0-2.21 3-5 3-5s3 2.79 3 5z" fill="#96e0ff"/><path d="m3 54a3.114 3.114 0 0 1 .118-.8 5.382 5.382 0 0 0 -1.118 2.8 2.7 2.7 0 0 0 3 3 2.651 2.651 0 0 0 2.965-2.563 3.277 3.277 0 0 1 -1.965.563 2.7 2.7 0 0 1 -3-3z" fill="#81d2f5"/><path d="m25.243 54.189a1 1 0 0 0 .757-.97v-1.219l-8.66 1.87a1.851 1.851 0 0 1 -.7.13h-1.64l1.667 1.667 1.333.333z" fill="#f2b59d"/><path d="m22.358 49.3a2 2 0 0 0 1.642-1.969v-.331l-11 2h-4l.8 2h3.2z" fill="#f2b59d"/><path d="m19.027 44.329a2.361 2.361 0 0 0 1.973-2.329l-13 2h-3a3.657 3.657 0 0 1 -1-.13v.13l.8 2h4.2z" fill="#f2b59d"/><path d="m49.564 50.754 13.436 3.952v-3.706l-17-4-5 5-.64.17 6.64 3.176v-2.673a2 2 0 0 1 2.564-1.919z" fill="#ed9776"/><path d="m26.414 32.89-7.574-5.3a1.971 1.971 0 0 1 -.84-1.616 1.97 1.97 0 0 1 1.97-1.974h-1.28a2.684 2.684 0 0 0 -2.69 2.69 2.887 2.887 0 0 0 .8 1.91l.01.01 6 4.5c.01.01.03.02.04.03l1.15.86a4.022 4.022 0 0 0 2.02 1 2.943 2.943 0 0 0 2.886-2.27 2 2 0 0 1 -2.492.16z" fill="#f2a283"/><path d="m14.414 38.89-7.574-5.3a1.971 1.971 0 0 1 -.84-1.616 1.952 1.952 0 0 1 .087-.549 2.425 2.425 0 0 0 -1.087 2.015 2.505 2.505 0 0 0 .06.55 2.429 2.429 0 0 0 .89 1.37l2.08 1.6 4.53 3.47a2.8 2.8 0 0 0 3.64-.22 2.72 2.72 0 0 0 .761-1.54 2 2 0 0 1 -2.547.22z" fill="#f2a283"/><path d="m21.414 36.89-8.574-6.3a1.971 1.971 0 0 1 -.84-1.616 1.966 1.966 0 0 1 .039-.386 2.661 2.661 0 0 0 -.579.6 2.691 2.691 0 0 0 .58 3.63l7.15 5.56a2.96 2.96 0 0 0 4.716-1.64 2 2 0 0 1 -2.492.152z" fill="#f2a283"/><path d="m63 33h-4v7.838a3 3 0 0 1 -3.949 2.846l-2.28-.76a5.2 5.2 0 0 0 -6.771 4.076l17 4z" fill="#f2b59d"/><path d="m24 22h-9a2 2 0 0 1 -1.855-1.262 2.416 2.416 0 0 0 -.145.792 2.475 2.475 0 0 0 2.47 2.47h8.53a2.006 2.006 0 0 1 2 2v-2a2 2 0 0 0 -2-2z" fill="#f2b59d"/><path d="m18.69 24h-1.69v.61a2.665 2.665 0 0 1 1.69-.61z" fill="#81d2f5"/><path d="m12.01 32.85.03-.04a2.686 2.686 0 0 1 1.65-4.81h1.41a2.7 2.7 0 0 1 1.62.54l.08.06a2.887 2.887 0 0 1 -.8-1.91 2.671 2.671 0 0 1 1-2.08v-.61h-1.53a2.469 2.469 0 0 1 -1.1-4.68l2.63-.92v-9.4h-7v22.315a2.469 2.469 0 0 1 .28.175z" fill="#96e0ff"/><path d="m3 1v2a2 2 0 0 0 2 2h4v2h-8v-6z" fill="#bfbfbf"/><path d="m9 8h9v1h-9z" fill="#bfbfbf"/><path d="m14 11h3v-2h-7v22.315a2.469 2.469 0 0 1 .28.175l1.73 1.36.03-.04a2.644 2.644 0 0 1 -.04-4.2v-15.61a2 2 0 0 1 2-2z" fill="#81d2f5"/><rect fill="#b3f5ff" height="6" rx="1" width="2" x="14" y="12"/><rect fill="#b3f5ff" height="3" rx="1" width="2" x="14" y="24"/><rect fill="#b3f5ff" height="3" rx="1" width="2" x="12" y="17"/><path d="m6.3 55.991c.357.082.555-.429.541-.755a1.186 1.186 0 0 0 -.641-1.107 1.421 1.421 0 0 0 -.9-.1.665.665 0 0 0 -.345.154.388.388 0 0 0 -.107.384.537.537 0 0 0 .139.193l1.019 1.031a.637.637 0 0 0 .294.2z" fill="#fff"/><path d="m12.066 61.5c.178.041.277-.215.271-.378a.594.594 0 0 0 -.317-.553.716.716 0 0 0 -.449-.05.333.333 0 0 0 -.172.077.193.193 0 0 0 -.054.192.26.26 0 0 0 .07.1l.509.515a.32.32 0 0 0 .142.097z" fill="#fff"/><path d="m63 32h-14.638l-13.425-11.188.043-.008-1-5a.994.994 0 0 0 -.2-.429l-2.98-3.732a4.377 4.377 0 0 0 -7.8 2.734v.623h2v-.623a2.376 2.376 0 0 1 4.232-1.485l2.835 3.543.477 2.383-1.9-1.586a1 1 0 0 0 -.531-.226l-9-1a1 1 0 0 0 -.44.05l-2.673.933v-6.989a1 1 0 0 0 1-1v-8a1 1 0 0 0 -1-1h-17v2h16v6h-7v-1a1 1 0 0 0 -1-1h-8v2h7v1a1 1 0 0 0 1 1v12h2v-12h5v7.687l-1.964.686a1 1 0 0 0 -.117.049 3.47 3.47 0 0 0 1.511 6.578 3.629 3.629 0 0 0 -.43 1.69c0 .107.027.209.036.314h-1.349a3.679 3.679 0 0 0 -3.642 3.241 3.489 3.489 0 0 0 -1.256-.245h-1.31a3.458 3.458 0 0 0 -3.444 3.1 5.005 5.005 0 0 0 -4.035 4.9v2a5 5 0 0 0 3.181 4.645l1.136 2.84a3.981 3.981 0 0 0 3.714 2.515h.292l.742 1.856a4.976 4.976 0 0 0 4.643 3.144h.878l1.79 1.791a4.161 4.161 0 0 0 2.924 1.209h2.3a4.14 4.14 0 0 0 1.051-.136l18.609-4.9a.99.99 0 0 0 .452-.26l4.601-4.604 15.687 3.692v9.621l-14.572-6.97-.864 1.8 16 7.654a1 1 0 0 0 1.436-.897v-30a1 1 0 0 0 -1-1zm-41.883-6.663 6.092 4.569a1.991 1.991 0 0 1 .791 1.583v.533a1.981 1.981 0 0 1 -1.979 1.978c-.065 0-.442-.038-1.423-.8l-1.168-.871c-.008-.006-.014-.014-.022-.02l-5.887-4.419a1.664 1.664 0 0 1 -.521-1.2 1.688 1.688 0 0 1 1.687-1.69h1.413a1.7 1.7 0 0 1 1.017.337zm2.883-.337a.989.989 0 0 1 .939.7zm-10.313 4h1.413a1.7 1.7 0 0 1 1.013.337l.19.142c.047.041.083.091.132.129l5.8 4.322a1.988 1.988 0 0 1 .765 1.559v.533a1.977 1.977 0 0 1 -3.192 1.561l-7.157-5.566a1.686 1.686 0 0 1 1.036-3.017zm-6.208 3h1.31a1.5 1.5 0 0 1 .886.287l5.731 4.513c.52.384.594.563.594 1.018v.47a1.73 1.73 0 0 1 -1.749 1.712 1.781 1.781 0 0 1 -1.079-.364l-6.615-5.067a1.427 1.427 0 0 1 -.557-1.127 1.463 1.463 0 0 1 1.479-1.442zm-5.479 8a2 2 0 0 1 2-2h1v-2h-1a3.966 3.966 0 0 0 -1.453.283 3 3 0 0 1 1.875-1.225 3.408 3.408 0 0 0 .918 1.1l6.615 5.067a3.8 3.8 0 0 0 2.3.776 3.844 3.844 0 0 0 .494-.049l-6.825 1.048h-2.924a3 3 0 0 1 -3-3zm44.229 6.026a1 1 0 0 0 -.936.267l-4.809 4.807-18.347 4.83a2.11 2.11 0 0 1 -.537.07h-2.3a2.147 2.147 0 0 1 -1.506-.624l-.466-.466a2.9 2.9 0 0 0 .292-.074l8.595-1.858-.422-1.956-8.664 1.878a.848.848 0 0 0 -.141.042.994.994 0 0 1 -.35.063h-2.93a2.984 2.984 0 0 1 -2.785-1.886l-.446-1.119h2.523a.977.977 0 0 0 .179-.016l11-2-.358-1.968-10.911 1.984h-4.879a1.988 1.988 0 0 1 -1.856-1.257l-.698-1.743h2.523a.964.964 0 0 0 .152-.012l13-2-.3-1.976-5.752.888a3.71 3.71 0 0 0 2.86-3.22l.619.482a3.979 3.979 0 0 0 6.421-3.14v-.245a2.769 2.769 0 0 0 1.021.223 3.983 3.983 0 0 0 3.979-3.978v-.533a4 4 0 0 0 -1.592-3.182l-.408-.307h3v-2h-4a3 3 0 0 0 -3-3h-8.528a1.472 1.472 0 0 1 -.708-2.763l6.351-2.218 8.476.941 17.768 14.808a1 1 0 0 0 .641.232h14v15.737z"/><path d="m43.001 52.805h2.001v2.217h-2.001z" transform="matrix(.431 -.902 .902 .431 -23.621 70.346)"/><path d="m5.681 50.268a1 1 0 0 0 -1.362 0c-.34.316-3.319 3.162-3.319 5.732a3.675 3.675 0 0 0 4 4 3.675 3.675 0 0 0 4-4c0-2.57-2.979-5.416-3.319-5.732zm-.681 7.732c-1.383 0-2-.617-2-2 0-1.026 1.048-2.517 2-3.569.856.95 2 2.469 2 3.569 0 1.383-.617 2-2 2z"/><path d="m10.277 56.309c-.233.244-2.277 2.441-2.277 4.441a2.9 2.9 0 0 0 3 3.25 2.9 2.9 0 0 0 3-3.25c0-2-2.044-4.2-2.277-4.441a1.032 1.032 0 0 0 -1.446 0zm.723 5.691c-.506 0-1-.1-1-1.25a4.5 4.5 0 0 1 1-2.184 4.5 4.5 0 0 1 1 2.184c0 1.15-.494 1.25-1 1.25z"/><path d="m9 24h2v4h-2z"/></g></svg>