<svg id="Capa_1" enable-background="new 0 0 511.05 511.05" height="512" viewBox="0 0 511.05 511.05" width="512" xmlns="http://www.w3.org/2000/svg"><path d="m440.77 65.595h-353.513l-43.602 34.663v373.29l133.009 15h217.71l73.021-15v-373.29z" fill="#7ca1b1"/><path d="m467.395 26.478v73.78h-423.74v-73.78c0-10.48 8.49-18.98 18.97-18.98h385.8c10.48 0 18.97 8.5 18.97 18.98z" fill="#cbc4cc"/><path d="m467.395 473.548v11.03c0 10.48-8.49 18.97-18.97 18.97h-385.8c-10.48 0-18.97-8.49-18.97-18.97v-11.03z" fill="#cbc4cc"/><path d="m147.643 7.498h-85.018c-10.48 0-18.97 8.5-18.97 18.98v73.78h103.988z" fill="#b5adb6"/><path d="m147.643 269.056v-168.798h-103.988v373.29h423.74v-67.04h-182.3c-75.912 0-137.452-61.539-137.452-137.452z" fill="#678d98"/><circle cx="255.525" cy="286.478" fill="#cbe5e8" r="150.03"/><path d="m206.781 290.388c0-67.107 44.061-123.918 104.83-143.095-17.328-6.989-36.255-10.845-56.086-10.845-82.86 0-150.03 67.17-150.03 150.03s67.17 150.03 150.03 150.03c15.752 0 30.935-2.434 45.2-6.935-55.074-22.214-93.944-76.156-93.944-139.185z" fill="#a8d3d8"/><path d="m362.785 232.648c1.02 2.02 0 4.48-2.14 5.21l-9.51 3.23c-2.62.89-4.38 3.35-4.38 6.12v27.08l-5.36 3c-15.56 8.72-32.84 13.1-50.13 13.1-16.35 0-32.71-3.91-47.63-11.75-32.83-17.23-72.41-15.39-103.49 4.82l-4.65 3.02c0-1.59.03-3.16.09-4.76 2.44-62.58 53.35-113.16 115.93-115.2 48.52-1.59 90.94 25.79 111.27 66.13z" fill="#dcf5f8"/><path d="m208.497 267.667c6.289-41.389 29.487-77.217 62.329-100.227-6.301-.806-12.748-1.138-19.312-.923-62.58 2.04-113.49 52.62-115.93 115.2-.06 1.6-.09 3.17-.09 4.76l4.65-3.02c20.54-13.355 44.791-18.681 68.353-15.79z" fill="#d4f2f6"/><path d="m360.645 335.098c2.15.73 3.16 3.2 2.14 5.22-19.77 39.23-60.42 66.19-107.26 66.19-66.19 0-120.04-53.85-120.03-120.03l4.65-3.02c31.08-20.21 70.66-22.05 103.49-4.82 14.92 7.84 31.28 11.75 47.63 11.75 17.29 0 34.57-4.38 50.13-13.1l5.36-3v51.46c0 2.77 1.76 5.24 4.38 6.13z" fill="#a6e7f0"/><path d="m255.525 406.508c2.044 0 4.071-.07 6.091-.171-33.478-27.513-54.835-69.233-54.835-115.949 0-7.725.591-15.311 1.717-22.72-23.562-2.891-47.813 2.435-68.352 15.791l-4.65 3.02c-.011 66.179 53.839 120.029 120.029 120.029z" fill="#6bd9e7"/><path d="m428.429 165.113h-26.834c-4.529 0-8.2-3.671-8.2-8.2v-15.265c0-4.529 3.671-8.2 8.2-8.2h26.834c4.529 0 8.2 3.671 8.2 8.2v15.265c0 4.529-3.672 8.2-8.2 8.2z" fill="#8ebac5"/><path d="m152.123 70.699h-63.752c-2.896 0-5.243-2.347-5.243-5.243v-19.513c0-2.896 2.347-5.243 5.243-5.243h63.753c2.896 0 5.243 2.347 5.243 5.243v19.514c0 2.895-2.348 5.242-5.244 5.242z" fill="#a6e7f0"/><path d="m147.643 40.7h-59.272c-2.896 0-5.243 2.347-5.243 5.243v19.513c0 2.896 2.347 5.243 5.243 5.243h59.273v-29.999z" fill="#6bd9e7"/><circle cx="242.339" cy="55.7" fill="#e94444" r="18.945"/><circle cx="311.009" cy="55.7" fill="#a6e7f0" r="18.945"/><circle cx="379.678" cy="55.7" fill="#fee45a" r="18.945"/><path d="m448.422 0h-385.793c-14.598 0-26.475 11.876-26.475 26.474v458.102c0 14.598 11.876 26.474 26.475 26.474h385.793c14.598 0 26.475-11.876 26.475-26.474v-458.102c-.001-14.598-11.877-26.474-26.475-26.474zm-385.793 15h385.793c6.327 0 11.475 5.147 11.475 11.474v66.287h-408.743v-66.287c0-6.327 5.148-11.474 11.475-11.474zm385.793 481.05h-385.793c-6.327 0-11.475-5.147-11.475-11.474v-3.526h322.441c4.142 0 7.5-3.358 7.5-7.5s-3.358-7.5-7.5-7.5h-322.441v-358.29h408.742v358.29h-54.339c-4.142 0-7.5 3.358-7.5 7.5s3.358 7.5 7.5 7.5h54.339v3.526c0 6.327-5.147 11.474-11.474 11.474z"/><path d="m255.525 128.948c-86.864 0-157.532 70.668-157.532 157.532s70.668 157.532 157.532 157.532 157.532-70.668 157.532-157.532-70.668-157.532-157.532-157.532zm0 300.064c-78.593 0-142.532-63.939-142.532-142.532s63.939-142.532 142.532-142.532 142.532 63.939 142.532 142.532-63.939 142.532-142.532 142.532z"/><path d="m363.054 328.001-8.803-2.99v-50.808c0-.012 0-.024 0-.035v-26.219l8.804-2.99c3.083-1.047 5.559-3.376 6.792-6.391 1.231-3.009 1.099-6.399-.362-9.298-22.323-44.295-68.75-71.869-118.21-70.252-23.229.76-45.82 7.913-65.331 20.686-3.465 2.269-4.436 6.917-2.167 10.383 2.27 3.466 6.919 4.437 10.383 2.167 17.207-11.265 37.127-17.573 57.605-18.243 42.217-1.389 81.898 21.322 102.292 58.164l-5.329 1.81c-5.668 1.924-9.477 7.24-9.477 13.227v22.685l-1.525.855c-28.154 15.788-62.025 16.256-90.606 1.252-32.497-17.061-71.273-16.662-103.26.558 2.809-22.381 12.422-43.651 27.593-60.709 2.752-3.095 2.475-7.836-.62-10.589s-7.836-2.474-10.589.62c-19.595 22.033-31.013 50.281-32.152 79.54-.062 1.602-.085 3.199-.089 4.793-.005.139-.003.277-.001.416.023 33.064 12.559 64.213 35.632 88.202 24.301 25.265 56.935 39.179 91.891 39.179 24.043 0 47.48-6.757 67.777-19.541 19.733-12.428 35.701-29.986 46.179-50.775 1.462-2.903 1.595-6.294.363-9.305-1.232-3.016-3.708-5.345-6.79-6.392zm-107.529 71.011c-30.839 0-59.633-12.28-81.08-34.578-19.451-20.223-30.423-46.211-31.383-73.93l1.167-.759c28.774-18.708 65.528-20.418 95.918-4.463 16.086 8.445 33.615 12.657 51.133 12.656 16.405 0 32.796-3.704 47.971-11.077v38.888c0 5.987 3.809 11.303 9.477 13.227l5.332 1.811c-19.885 36.028-57.25 58.225-98.535 58.225z"/><path d="m401.595 172.613h26.833c8.657 0 15.7-7.043 15.7-15.7v-15.265c0-8.657-7.043-15.7-15.7-15.7h-26.833c-8.657 0-15.7 7.043-15.7 15.7v15.265c0 8.657 7.043 15.7 15.7 15.7zm-.7-30.965c0-.386.314-.7.7-.7h26.833c.386 0 .7.314.7.7v15.265c0 .386-.314.7-.7.7h-26.833c-.386 0-.7-.314-.7-.7z"/><path d="m88.37 78.199h63.753c7.026 0 12.743-5.717 12.743-12.743v-19.513c0-7.026-5.717-12.743-12.743-12.743h-11.613c-4.142 0-7.5 3.358-7.5 7.5s3.358 7.5 7.5 7.5h9.356v15h-59.238v-15h17.921c4.142 0 7.5-3.358 7.5-7.5s-3.358-7.5-7.5-7.5h-20.179c-7.026 0-12.743 5.717-12.743 12.743v19.513c.001 7.026 5.717 12.743 12.743 12.743z"/><path d="m188.747 63.2h7.092c4.142 0 7.5-3.358 7.5-7.5s-3.358-7.5-7.5-7.5h-7.092c-4.142 0-7.5 3.358-7.5 7.5s3.358 7.5 7.5 7.5z"/><path d="m426.178 63.2h7.092c4.142 0 7.5-3.358 7.5-7.5s-3.358-7.5-7.5-7.5h-7.092c-4.142 0-7.5 3.358-7.5 7.5s3.358 7.5 7.5 7.5z"/><path d="m242.339 82.145c14.582 0 26.445-11.863 26.445-26.445s-11.863-26.446-26.445-26.446-26.446 11.864-26.446 26.446 11.864 26.445 26.446 26.445zm0-37.891c6.311 0 11.445 5.135 11.445 11.446s-5.134 11.445-11.445 11.445-11.446-5.134-11.446-11.445 5.135-11.446 11.446-11.446z"/><path d="m311.009 82.145c14.582 0 26.445-11.863 26.445-26.445s-11.863-26.446-26.445-26.446-26.446 11.864-26.446 26.446 11.864 26.445 26.446 26.445zm0-37.891c6.311 0 11.445 5.135 11.445 11.446s-5.134 11.445-11.445 11.445-11.445-5.134-11.445-11.445 5.134-11.446 11.445-11.446z"/><path d="m379.678 82.145c14.582 0 26.446-11.863 26.446-26.445s-11.864-26.446-26.446-26.446-26.445 11.864-26.445 26.446 11.863 26.445 26.445 26.445zm0-37.891c6.311 0 11.446 5.135 11.446 11.446s-5.135 11.445-11.446 11.445-11.445-5.134-11.445-11.445 5.134-11.446 11.445-11.446z"/><path d="m374.575 261.745c-4.142 0-7.5 3.358-7.5 7.5v33.196c0 4.142 3.358 7.5 7.5 7.5s7.5-3.358 7.5-7.5v-33.196c0-4.142-3.357-7.5-7.5-7.5z"/></svg>