<svg id="Capa_1" enable-background="new 0 0 512 512" height="512" viewBox="0 0 512 512" width="512" xmlns="http://www.w3.org/2000/svg"><g><g><path clip-rule="evenodd" d="m224.21 129.986v20.392h63.58v-20.392c0-17.451-14.315-31.705-31.804-31.705s-31.776 14.254-31.776 31.705z" fill="#cfd3df" fill-rule="evenodd"/></g><g><path clip-rule="evenodd" d="m97.079 194.98h73.331 85.576 85.576 73.331c12.302 0 22.337-10.04 22.337-22.287 0-12.275-10.034-22.315-22.337-22.315h-29.792-97.311-63.58-97.312-29.82c-12.274 0-22.337 10.04-22.337 22.315.001 12.246 10.064 22.287 22.338 22.287z" fill="#fff" fill-rule="evenodd"/></g><g><path clip-rule="evenodd" d="m255.986 194.98v96.643c56.862 0 79.709-56.085 85.576-96.643z" fill="#cfd3df" fill-rule="evenodd"/></g><g><path clip-rule="evenodd" d="m170.41 194.98c5.868 40.558 28.714 96.643 85.576 96.643v-96.643z" fill="#cfd3df" fill-rule="evenodd"/></g><g><path clip-rule="evenodd" d="m97.079 194.98c9.581 35.58 43.398 83.123 122.88 94.239 11.112 1.556 23.102 2.404 36.028 2.404-56.862 0-79.709-56.085-85.576-96.643z" fill="#cfd3df" fill-rule="evenodd"/></g><g><path clip-rule="evenodd" d="m341.562 194.98c-5.868 40.558-28.714 96.643-85.576 96.643 12.954 0 24.944-.848 36.028-2.404 79.482-11.115 113.327-58.659 122.88-94.239z" fill="#cfd3df" fill-rule="evenodd"/></g><g><path clip-rule="evenodd" d="m219.958 289.218v63.552h72.055v-63.552c-11.083 1.556-23.074 2.404-36.028 2.404-12.925 0-24.915-.848-36.027-2.404z" fill="#9ea6bf" fill-rule="evenodd"/></g><g><path clip-rule="evenodd" d="m162.303 374.915v22.146h187.395v-22.146c0-12.19-10.006-22.146-22.223-22.146h-35.461-72.055-35.461c-12.218.001-22.195 9.957-22.195 22.146z" fill="#fff" fill-rule="evenodd"/></g><g><path clip-rule="evenodd" d="m10 418.867c0 11.992 9.836 21.806 21.855 21.806h10.176 427.91 10.205c12.019 0 21.855-9.814 21.855-21.806s-9.836-21.806-21.855-21.806h-130.449-187.394-130.448c-12.019 0-21.855 9.814-21.855 21.806z" fill="#cfd3df" fill-rule="evenodd"/></g><g><path clip-rule="evenodd" d="m42.031 471.049c0 16.715 13.691 30.404 30.444 30.404h367.023c16.752 0 30.444-13.689 30.444-30.404v-30.376h-427.911z" fill="#9ea6bf" fill-rule="evenodd"/></g><g><path d="m480.146 387.061h-120.449v-12.146c0-17.726-14.455-32.146-32.223-32.146h-25.461v-44.99c29.25-5.199 54.363-15.661 74.983-31.303 27.735-21.038 40.148-46.152 45.598-62.43 14.123-3.46 24.634-16.202 24.634-31.354 0-17.818-14.506-32.314-32.337-32.314h-19.791v-23.176c0-23.041 18.797-41.786 41.901-41.786s41.901 18.745 41.901 41.786v60.836c0 5.522 4.478 10 10 10s10-4.478 10-10v-60.836c0-34.069-27.769-61.786-61.901-61.786s-61.901 27.717-61.901 61.786v23.176h-77.31v-10.393c0-19.558-13.568-36.007-31.805-40.49v-42.294c0-14.697 12.007-26.654 26.765-26.654 14.742 0 26.736 11.957 26.736 26.654 0 5.522 4.478 10 10 10s10-4.478 10-10c0-25.726-20.966-46.654-46.736-46.654-14.904 0-28.192 7-36.761 17.869-8.565-10.869-21.844-17.869-36.739-17.869-25.771 0-46.736 20.929-46.736 46.654v17.055c0 5.522 4.477 10 10 10s10-4.478 10-10v-17.055c0-14.697 11.994-26.654 26.736-26.654s26.736 11.957 26.736 26.654v42.295c-18.221 4.487-31.776 20.934-31.776 40.489v10.393h-77.312v-23.176c0-34.069-27.769-61.786-61.901-61.786s-61.901 27.717-61.901 61.786v60.836c0 5.522 4.477 10 10 10s10-4.478 10-10v-60.836c0-23.041 18.797-41.786 41.901-41.786s41.901 18.745 41.901 41.786v23.176h-19.82c-17.831 0-32.336 14.496-32.336 32.314 0 15.154 10.513 27.896 24.637 31.355 5.46 16.28 17.883 41.398 45.605 62.429 20.617 15.642 45.726 26.103 74.973 31.302v44.991h-25.46c-17.752 0-32.195 14.42-32.195 32.146v12.146h-120.448c-17.564 0-31.854 14.268-31.854 31.806s14.29 31.806 31.854 31.806h.176v20.376c0 22.279 18.143 40.404 40.444 40.404h367.022c22.301 0 40.443-18.125 40.443-40.404v-20.376h.205c17.564 0 31.854-14.268 31.854-31.806s-14.288-31.806-31.852-31.806zm-150.56-182.082c-5.502 25.276-21.169 69.842-63.599 75.938v-75.938zm-147.199 0h63.599v75.938c-42.431-6.095-58.098-50.662-63.599-75.938zm182.522 45.564c-13.19 10.005-28.613 17.61-46.139 22.796 16.372-18.332 26.448-43.374 31.244-68.359h50.86c-5.605 13.259-16.176 30.553-35.965 45.563zm-130.699-120.558c0-11.968 9.769-21.705 21.776-21.705 12.023 0 21.804 9.737 21.804 21.705v10.393h-43.58zm-137.131 30.393h317.814c6.803 0 12.337 5.524 12.337 12.314 0 6.775-5.534 12.287-12.337 12.287h-317.814c-6.802 0-12.336-5.512-12.336-12.287-.001-6.79 5.533-12.314 12.336-12.314zm14.026 44.601h50.853c4.796 24.984 14.872 50.026 31.243 68.358-17.522-5.186-32.941-12.791-46.127-22.794-19.778-15.005-30.356-32.3-35.969-45.564zm118.853 95.477c8.383.773 17.059 1.166 26.028 1.166s17.644-.393 26.028-1.166v42.313h-52.056zm-57.655 74.459c0-6.697 5.471-12.146 12.195-12.146h142.977c6.739 0 12.223 5.448 12.223 12.146v12.146h-167.395zm307.843 55.758h-179.26c-5.522 0-10 4.478-10 10s4.478 10 10 10h159.054v20.376c0 11.251-9.171 20.404-20.443 20.404h-367.022c-11.273 0-20.444-9.153-20.444-20.404v-20.376h159.055c5.523 0 10-4.478 10-10s-4.477-10-10-10h-179.232c-6.537 0-11.854-5.296-11.854-11.806s5.318-11.807 11.854-11.807h448.291c6.536 0 11.854 5.297 11.854 11.807s-5.317 11.806-11.853 11.806z"/><path d="m329.486 84.165c-5.522 0-10 4.492-10 10.015s4.478 10 10 10 10-4.478 10-10v-.028c0-5.523-4.477-9.987-10-9.987z"/><path d="m498.904 222.838c0-5.522-4.478-10-10-10s-10 4.478-10 10v29.896c0 5.522 4.478 10 10 10s10-4.478 10-10z"/><path d="m488.904 287.533c-5.522 0-10 4.478-10 10v29.896c0 5.522 4.478 10 10 10s10-4.478 10-10v-29.896c0-5.522-4.477-10-10-10z"/><path d="m23.096 262.733c5.523 0 10-4.478 10-10v-29.896c0-5.522-4.477-10-10-10s-10 4.478-10 10v29.896c0 5.523 4.477 10 10 10z"/><path d="m23.096 337.429c5.523 0 10-4.478 10-10v-29.896c0-5.522-4.477-10-10-10s-10 4.478-10 10v29.896c0 5.522 4.477 10 10 10z"/><path d="m255.986 430.673c-5.523 0-10 4.478-10 10s4.477 10 10 10h.057c5.523 0 9.971-4.478 9.971-10s-4.505-10-10.028-10z"/></g></g></svg>