<svg id="Flat" height="512" viewBox="0 0 64 64" width="512" xmlns="http://www.w3.org/2000/svg"><path d="m5 26a1 1 0 0 1 -1-1v-10a1 1 0 0 1 2 0v10a1 1 0 0 1 -1 1z" fill="#82502f"/><path d="m1 13c0-2.21 3-12 4-12s4 9.79 4 12a4 4 0 0 1 -8 0z" fill="#59b22b"/><path d="m3 13a4 4 0 0 0 3 3.86 4 4 0 0 0 3-3.86c0-1.68-1.73-7.72-3-10.54-1.27 2.82-3 8.86-3 10.54z" fill="#4b961f"/><path d="m16 26a1 1 0 0 1 -1-1v-8a1 1 0 0 1 2 0v8a1 1 0 0 1 -1 1z" fill="#82502f"/><path d="m13 16c0-1.66 2-9 3-9s3 7.34 3 9a3 3 0 0 1 -6 0z" fill="#59b22b"/><path d="m15 16a3 3 0 0 0 2 2.82 3 3 0 0 0 2-2.82 30.31 30.31 0 0 0 -2-7.57 30.31 30.31 0 0 0 -2 7.57z" fill="#4b961f"/><path d="m49 26a1 1 0 0 1 -1-1v-10a1 1 0 0 1 2 0v10a1 1 0 0 1 -1 1z" fill="#82502f"/><path d="m60 26a1 1 0 0 1 -1-1v-8a1 1 0 0 1 2 0v8a1 1 0 0 1 -1 1z" fill="#82502f"/><path d="m48 24a24.33 24.33 0 0 0 -32 0h-11v11h13v-7.59a24.5 24.5 0 0 1 28 0v7.59h13v-11z" fill="#c89164"/><path d="m16 26h-11v9h13v-7.59a24.5 24.5 0 0 1 28 0v7.59h13v-9h-11a24.33 24.33 0 0 0 -32 0z" fill="#aa6f45"/><path d="m1 24v26.81h25v-1.91a7 7 0 0 0 -5.36-6.8 6.86 6.86 0 0 0 .36-2.49 7.15 7.15 0 0 0 -4.94-6.38 6.68 6.68 0 0 0 -3.38-.2 7.12 7.12 0 0 0 .19-3.54 7 7 0 0 0 -5.67-5.49z" fill="#d2ff9f"/><path d="m25 50.81a7 7 0 0 0 -5.35-6.71 6.86 6.86 0 0 0 .35-2.49 7.15 7.15 0 0 0 -4.94-6.38 6.68 6.68 0 0 0 -3.38-.2 7.12 7.12 0 0 0 .19-3.54 7 7 0 0 0 -5.67-5.49h-5.2v24.81z" fill="#bef878"/><path d="m56.8 24a7 7 0 0 0 -5.66 5.49 7.12 7.12 0 0 0 .19 3.51 6.68 6.68 0 0 0 -3.38.2 7.15 7.15 0 0 0 -4.95 6.41 6.86 6.86 0 0 0 .35 2.49 7 7 0 0 0 -5.35 6.8v1.91h25v-26.81z" fill="#d2ff9f"/><path d="m58.8 26a7 7 0 0 0 -5.66 5.49 7.12 7.12 0 0 0 .19 3.51 6.68 6.68 0 0 0 -3.38.2 7.15 7.15 0 0 0 -4.95 6.41 6.86 6.86 0 0 0 .35 2.49 7 7 0 0 0 -5.35 6.71h23v-24.81z" fill="#bef878"/><path d="m24 59a7 7 0 0 0 -5.36-6.8 6.86 6.86 0 0 0 .36-2.49 7.15 7.15 0 0 0 -4.94-6.38 6.68 6.68 0 0 0 -3.38-.2 7.12 7.12 0 0 0 .19-3.54 7 7 0 0 0 -5.67-5.49 7 7 0 0 0 -4.2.6v28.3h23z" fill="#91e957"/><path d="m58.8 34.1a7 7 0 0 0 -5.66 5.49 7.12 7.12 0 0 0 .19 3.54 6.68 6.68 0 0 0 -3.38.2 7.15 7.15 0 0 0 -4.95 6.38 6.86 6.86 0 0 0 .35 2.49 7 7 0 0 0 -5.35 6.8v4h23v-28.3a7 7 0 0 0 -4.2-.6z" fill="#91e957"/><path d="m42 63h21v-26.92a6.78 6.78 0 0 0 -2.2 0 7 7 0 0 0 -5.66 5.49 7.12 7.12 0 0 0 .19 3.54 6.57 6.57 0 0 0 -3.38.2 7.14 7.14 0 0 0 -4.95 6.4 6.86 6.86 0 0 0 .35 2.49 7 7 0 0 0 -5.35 6.8z" fill="#82d246"/><path d="m22 63h-21v-26.92a6.78 6.78 0 0 1 2.2 0 7 7 0 0 1 5.66 5.49 7.12 7.12 0 0 1 -.19 3.54 6.57 6.57 0 0 1 3.38.2 7.14 7.14 0 0 1 4.95 6.4 6.86 6.86 0 0 1 -.35 2.49 7 7 0 0 1 5.35 6.8z" fill="#82d246"/><path d="m45 13c0-2.21 3-12 4-12s4 9.79 4 12a4 4 0 0 1 -8 0z" fill="#59b22b"/><path d="m47 13a4 4 0 0 0 3 3.86 4 4 0 0 0 3-3.86c0-1.68-1.73-7.72-3-10.54-1.27 2.82-3 8.86-3 10.54z" fill="#4b961f"/><path d="m57 16c0-1.66 2-9 3-9s3 7.34 3 9a3 3 0 0 1 -6 0z" fill="#59b22b"/><path d="m59 16a3 3 0 0 0 2 2.82 3 3 0 0 0 2-2.82 30.31 30.31 0 0 0 -2-7.57 30.31 30.31 0 0 0 -2 7.57z" fill="#4b961f"/><path d="m46 31h-28l-12 32h52z" fill="#5ce9e3"/><g fill="#48d8cf"><path d="m32 58a1 1 0 0 0 -1 1v4h2v-4a1 1 0 0 0 -1-1z"/><rect height="6" rx="1" width="2" x="31" y="41"/><rect height="2" rx="1" transform="matrix(.238 -.971 .971 .238 -39.34 57.87)" width="8.18" x="13.12" y="53"/><rect height="2" rx="1" transform="matrix(.238 -.971 .971 .238 -21.96 50.01)" width="6.12" x="17.83" y="38"/><rect height="9.21" rx="1" transform="matrix(.971 -.238 .238 .971 -11.63 12.74)" width="2" x="45.92" y="49.9"/><rect height="7.04" rx="1" transform="matrix(.992 -.124 .124 .992 -5.72 5.19)" width="2" x="37.85" y="44.98"/><path d="m42.62 37a1 1 0 0 0 .73-1.21l-1.17-4.79h-2.06l1.29 5.24a1 1 0 0 0 1.21.76z"/><path d="m23.09 56.88-.76 6.12h2l.74-5.88a1 1 0 0 0 -.86-1.12 1 1 0 0 0 -1.12.88z"/><path d="m26.83 35a1 1 0 0 0 1.17-.88l.34-3.12h-2l-.34 2.88a1 1 0 0 0 .83 1.12z"/></g></svg>