<?xml version="1.0" encoding="UTF-8" standalone="no"?>
<!-- Created with Inkscape (http://www.inkscape.org/) -->

<svg
   version="1.1"
   id="svg804"
   xml:space="preserve"
   width="682.66669"
   height="682.66669"
   viewBox="0 0 682.66669 682.66669"
   xmlns="http://www.w3.org/2000/svg"
   xmlns:svg="http://www.w3.org/2000/svg"><defs
     id="defs808"><clipPath
       clipPathUnits="userSpaceOnUse"
       id="clipPath818"><path
         d="M 0,512 H 512 V 0 H 0 Z"
         id="path816" /></clipPath></defs><g
     id="g810"
     transform="matrix(1.3333333,0,0,-1.3333333,0,682.66667)"><g
       id="g812"><g
         id="g814"
         clip-path="url(#clipPath818)"><g
           id="g820"
           transform="translate(301.3608,92.3857)"><path
             d="m 0,0 c 0,-25.052 -20.309,-45.361 -45.361,-45.361 -25.052,0 -45.361,20.309 -45.361,45.361 0,25.052 20.309,45.361 45.361,45.361 C -20.309,45.361 0,25.052 0,0"
             style="fill:#8ac9fe;fill-opacity:1;fill-rule:nonzero;stroke:none"
             id="path822" /></g><g
           id="g824"
           transform="translate(301.3599,92.3892)"><path
             d="m 0,0 c 0,-25.06 -20.31,-45.36 -45.36,-45.36 -16.91,0 -31.66,9.25 -39.46,22.97 5.32,-2.01 11.11,-3.05 17.14,-2.9 25.04,0.62 44.84,21.42 44.23,46.47 -0.19,7.74 -2.31,14.97 -5.88,21.26 C -12.19,35.97 0,19.4 0,0"
             style="fill:#60b8fe;fill-opacity:1;fill-rule:nonzero;stroke:none"
             id="path826" /></g><g
           id="g828"
           transform="translate(439.0605,233.1797)"><path
             d="m 0,0 c 15.395,16.204 13.17,42.163 -4.677,55.618 -49.482,37.302 -110.971,59.524 -177.637,59.851 v 0.019 c -0.25,0 -0.498,-0.009 -0.747,-0.009 -0.249,0 -0.496,0.009 -0.746,0.009 v -0.019 C -250.473,115.142 -311.962,92.92 -361.444,55.618 -379.292,42.163 -381.516,16.204 -366.121,0 c 13.035,-13.72 34.329,-15.597 49.429,-4.19 37.193,28.096 83.464,44.811 133.631,44.976 50.168,-0.165 96.439,-16.88 133.632,-44.976 C -34.329,-15.597 -13.035,-13.72 0,0"
             style="fill:#8ac9fe;fill-opacity:1;fill-rule:nonzero;stroke:none"
             id="path830" /></g><g
           id="g832"
           transform="translate(256,243.915)"><path
             d="m 0,0 c -37.618,0 -72.803,-10.415 -102.829,-28.519 -20.216,-12.188 -24.897,-39.515 -10.163,-57.958 12.289,-15.382 34.035,-19.215 50.926,-9.1 18.146,10.868 39.377,17.114 62.066,17.114 22.689,0 43.92,-6.246 62.066,-17.114 16.891,-10.115 38.637,-6.282 50.926,9.1 14.734,18.443 10.053,45.77 -10.163,57.958 C 72.803,-10.415 37.618,0 0,0"
             style="fill:#8ac9fe;fill-opacity:1;fill-rule:nonzero;stroke:none"
             id="path834" /></g><g
           id="g836"
           transform="translate(256,464.9751)"><path
             d="m 0,0 c -77.654,0 -167.285,-22.85 -229.862,-66.368 -20.244,-14.079 -24.695,-42.166 -9.632,-61.689 v 0 c 14.049,-18.208 39.853,-22.027 58.758,-8.933 49.136,34.034 121.058,51.646 180.736,51.646 59.678,0 131.6,-17.612 180.736,-51.646 18.905,-13.094 44.709,-9.275 58.758,8.933 v 0 c 15.063,19.523 10.612,47.61 -9.632,61.689 C 167.285,-22.85 77.654,0 0,0"
             style="fill:#8ac9fe;fill-opacity:1;fill-rule:nonzero;stroke:none"
             id="path838" /></g><g
           id="g840"
           transform="translate(504.4399,363.1099)"><path
             d="m 0,0 c 0,-9.14 -2.9,-18.36 -8.95,-26.19 -14.04,-18.21 -39.85,-22.03 -58.75,-8.93 -49.14,34.03 -121.06,51.64 -180.74,51.64 -59.68,0 -131.6,-17.61 -180.74,-51.64 -7.54,-5.23 -16.18,-7.76 -24.74,-7.76 -12.88,0 -25.57,5.75 -34.01,16.69 -9.93,12.86 -11.38,29.43 -5.43,43.27 1.45,-3.39 3.39,-6.66 5.8,-9.7 8.46,-10.66 20.97,-16.23 33.66,-16.23 8.74,0 17.57,2.64 25.21,8.09 48.68,34.69 120.35,53.27 180.03,54.07 59.67,0.8 131.82,-15.84 181.41,-49.21 19.08,-12.84 44.83,-8.68 58.63,9.72 1.45,1.94 2.72,3.96 3.79,6.04 C -1.64,13.7 0,6.87 0,0"
             style="fill:#60b8fe;fill-opacity:1;fill-rule:nonzero;stroke:none"
             id="path842" /></g><g
           id="g844"
           transform="translate(439.0601,233.1787)"><path
             d="m 0,0 c -13.03,-13.72 -34.33,-15.6 -49.43,-4.19 -37.19,28.1 -83.46,44.81 -133.63,44.98 -50.17,-0.17 -96.44,-16.88 -133.63,-44.98 -6.64,-5.02 -14.48,-7.47 -22.29,-7.47 -9.95,0 -19.84,3.97 -27.14,11.66 -7.33,7.71 -10.66,17.62 -10.22,27.35 0.3,-0.32 0.61,-0.64 0.93,-0.96 7.26,-7.24 16.84,-10.94 26.45,-10.94 8.14,0 16.29,2.65 23.08,8.06 36.44,29.07 82.25,47 132.39,48.49 50.16,1.16 96.85,-14.33 134.78,-41.44 15.39,-11 36.63,-8.56 49.3,5.5 4.33,4.81 7.17,10.41 8.56,16.24 C 13.41,38.23 14.22,14.96 0,0"
             style="fill:#60b8fe;fill-opacity:1;fill-rule:nonzero;stroke:none"
             id="path846" /></g><g
           id="g848"
           transform="translate(377.6001,181.9687)"><path
             d="m 0,0 c 0,-8.57 -2.79,-17.25 -8.61,-24.53 -12.29,-15.38 -34.03,-19.22 -50.92,-9.1 -18.15,10.87 -39.38,17.11 -62.07,17.11 -22.69,0 -43.92,-6.24 -62.07,-17.11 -6.33,-3.79 -13.34,-5.62 -20.27,-5.62 -11.58,0 -22.96,5.1 -30.65,14.72 -3.27,4.09 -5.58,8.62 -6.99,13.33 6.32,-3.99 13.62,-6.06 20.99,-6.06 7.26,0 14.59,2.01 21.121,6.141 15.067,9.529 32.232,15.486 49.733,18.589 15.707,2.785 28.831,2.642 44.515,0.991 11.8,-1.242 23.671,-4.06 34.78,-8.222 11.014,-4.126 22.053,-11.07 34.03,-5.357 11.598,5.532 19.731,18.327 19.731,31.178 0,2.13 -0.17,4.26 -0.51,6.36 C -5.98,24.92 0,12.56 0,0"
             style="fill:#60b8fe;fill-opacity:1;fill-rule:nonzero;stroke:none"
             id="path850" /></g><g
           id="g852"
           transform="translate(301.0586,97.6489)"><path
             d="m 0,0 c 0.2,-1.727 0.302,-3.483 0.302,-5.263 0,-25.052 -20.308,-45.361 -45.361,-45.361 -25.052,0 -45.36,20.309 -45.36,45.361 0,25.052 20.308,45.361 45.36,45.361 10.821,0 20.756,-3.789 28.553,-10.112"
             style="fill:none;stroke:#000000;stroke-width:15;stroke-linecap:round;stroke-linejoin:round;stroke-miterlimit:10;stroke-dasharray:none;stroke-opacity:1"
             id="path854" /></g><g
           id="g856"
           transform="translate(202.6123,267.3564)"><path
             d="m 0,0 c 17.101,4.261 34.982,6.549 53.388,6.609 50.167,-0.165 96.438,-16.88 133.632,-44.976 15.1,-11.407 36.394,-9.529 49.428,4.19 15.395,16.204 13.171,42.163 -4.677,55.618 C 182.29,58.744 120.8,80.965 54.134,81.292 v 0.02 c -0.25,0 -0.497,-0.009 -0.746,-0.01 -0.249,10e-4 -0.497,0.01 -0.746,0.01 v -0.02 C -14.024,80.965 -75.514,58.744 -124.996,21.441 c -17.847,-13.455 -20.072,-39.414 -4.677,-55.618 13.035,-13.719 34.329,-15.597 49.429,-4.19 14.37,10.856 30.096,20.012 46.878,27.172"
             style="fill:none;stroke:#000000;stroke-width:15;stroke-linecap:round;stroke-linejoin:round;stroke-miterlimit:10;stroke-dasharray:none;stroke-opacity:1"
             id="path858" /></g><g
           id="g860"
           transform="translate(256,243.915)"><path
             d="m 0,0 c -37.618,0 -72.803,-10.415 -102.829,-28.519 -20.216,-12.188 -24.897,-39.515 -10.163,-57.958 12.289,-15.382 34.035,-19.215 50.926,-9.1 18.146,10.868 39.377,17.114 62.066,17.114 22.689,0 43.92,-6.246 62.066,-17.114 16.891,-10.115 38.637,-6.282 50.926,9.1 14.734,18.443 10.053,45.77 -10.163,57.958 C 72.803,-10.415 37.618,0 0,0 Z"
             style="fill:none;stroke:#000000;stroke-width:15;stroke-linecap:round;stroke-linejoin:round;stroke-miterlimit:10;stroke-dasharray:none;stroke-opacity:1"
             id="path862" /></g><g
           id="g864"
           transform="translate(388.2158,444.6909)"><path
             d="m 0,0 c -43.378,13.403 -89.601,20.284 -132.216,20.284 -77.654,0 -167.285,-22.849 -229.862,-66.368 -20.244,-14.079 -24.695,-42.166 -9.632,-61.688 v -10e-4 c 14.049,-18.207 39.853,-22.027 58.758,-8.933 49.137,34.035 121.058,51.646 180.736,51.646 59.678,0 131.6,-17.611 180.736,-51.646 18.905,-13.094 44.709,-9.274 58.758,8.933 v 10e-4 c 15.063,19.522 10.612,47.609 -9.632,61.688 -19.488,13.553 -41.6,25.101 -65.156,34.579"
             style="fill:none;stroke:#000000;stroke-width:15;stroke-linecap:round;stroke-linejoin:round;stroke-miterlimit:10;stroke-dasharray:none;stroke-opacity:1"
             id="path866" /></g></g></g></g></svg>
