<svg id="Capa_1" enable-background="new 0 0 512.066 512.066" height="512" viewBox="0 0 512.066 512.066" width="512" xmlns="http://www.w3.org/2000/svg"><g><g><circle cx="256.033" cy="256.033" fill="#8fd5f3" r="132.023"/></g><g><circle cx="256.033" cy="30" fill="#f2cc73" r="20"/></g><g><circle cx="71.469" cy="71.47" fill="#e67e95" r="25.996"/></g><g><circle cx="256.033" cy="482.066" fill="#f2cc73" r="20"/></g><g><circle cx="482.066" cy="256.033" fill="#f2cc73" r="20"/></g><g><circle cx="30" cy="256.033" fill="#f2cc73" r="20"/></g><g><circle cx="440.597" cy="71.47" fill="#a1d8c2" r="25.996"/></g><g><circle cx="71.469" cy="440.596" fill="#a1d8c2" r="25.996"/></g><g><circle cx="440.597" cy="440.596" fill="#e67e95" r="25.996"/></g><g><path d="m285.452 304.158c2.56 0 5.118-.977 7.071-2.929 3.905-3.905 3.905-10.237 0-14.143-20.121-20.121-52.859-20.121-72.98 0-3.905 3.905-3.905 10.237 0 14.143 3.906 3.904 10.236 3.904 14.143 0 12.322-12.322 32.373-12.322 44.695 0 1.953 1.953 4.512 2.929 7.071 2.929z"/><path d="m314.871 274.739c2.56 0 5.118-.977 7.071-2.929 3.905-3.905 3.905-10.237 0-14.143-36.342-36.342-95.477-36.342-131.818 0-3.905 3.905-3.905 10.237 0 14.143 3.906 3.904 10.236 3.904 14.143 0 28.543-28.545 74.99-28.545 103.533 0 1.953 1.953 4.512 2.929 7.071 2.929z"/><path d="m160.513 228.056c-3.905 3.905-3.905 10.237 0 14.143 3.906 3.904 10.236 3.904 14.143 0 21.736-21.737 50.637-33.709 81.378-33.709s59.642 11.972 81.378 33.709c1.953 1.952 4.512 2.929 7.071 2.929s5.118-.977 7.071-2.929c3.905-3.905 3.905-10.237 0-14.143-25.515-25.515-59.438-39.566-95.521-39.566s-70.006 14.051-95.52 39.566z"/><path d="m255.981 313.576c-5.522 0-10 4.478-10 10s4.529 10 10.052 10 10.052-4.478 10.052-10-4.478-10-10-10z"/><path d="m384.374 195.14c-2.371-4.988-8.336-7.108-13.325-4.739-4.987 2.371-7.109 8.337-4.739 13.325 7.794 16.398 11.746 33.998 11.746 52.308 0 67.283-54.739 122.022-122.022 122.022s-122.022-54.739-122.022-122.022 54.739-122.022 122.022-122.022c18.312 0 35.91 3.952 52.309 11.746 4.984 2.37 10.953.25 13.324-4.738s.25-10.954-4.738-13.324c-19.102-9.08-39.59-13.684-60.895-13.684-78.312 0-142.022 63.711-142.022 142.022s63.711 142.022 142.022 142.022 142.022-63.711 142.022-142.022c0-21.304-4.604-41.792-13.682-60.894z"/><path d="m71.47 107.466c6.296 0 12.217-1.629 17.371-4.482l32.291 32.291c1.953 1.952 4.512 2.929 7.071 2.929s5.118-.977 7.071-2.929c3.905-3.905 3.905-10.237 0-14.143l-32.291-32.291c2.852-5.154 4.482-11.075 4.482-17.371 0-19.848-16.147-35.995-35.995-35.995-19.849 0-35.996 16.147-35.996 35.995s16.147 35.996 35.996 35.996zm0-51.991c8.819 0 15.995 7.176 15.995 15.995 0 8.82-7.176 15.996-15.995 15.996-8.82 0-15.996-7.176-15.996-15.996s7.175-15.995 15.996-15.995z"/><path d="m266.033 453.787v-25.731c0-5.522-4.478-10-10-10-89.34 0-162.022-72.683-162.022-162.022 0-5.522-4.478-10-10-10h-25.731c-4.128-11.639-15.243-20-28.28-20-16.542 0-30 13.458-30 30s13.458 30 30 30c13.036 0 24.152-8.361 28.28-20h16.002c2.323 42.667 19.417 81.464 46.234 111.375l-31.675 31.675c-5.154-2.853-11.075-4.482-17.371-4.482-19.849 0-35.996 16.147-35.996 35.996 0 19.848 16.147 35.995 35.996 35.995 19.848 0 35.995-16.147 35.995-35.995 0-6.296-1.629-12.217-4.482-17.371l31.676-31.675c29.91 26.817 68.707 43.911 111.374 46.234v16.002c-11.639 4.128-20 15.244-20 28.28 0 16.542 13.458 30 30 30s30-13.458 30-30c0-13.038-8.361-24.153-20-28.281zm-236.033-187.754c-5.514 0-10-4.486-10-10s4.486-10 10-10 10 4.486 10 10-4.486 10-10 10zm41.47 190.559c-8.82 0-15.996-7.176-15.996-15.995 0-8.82 7.176-15.996 15.996-15.996 8.819 0 15.995 7.176 15.995 15.996 0 8.819-7.176 15.995-15.995 15.995zm184.563 35.474c-5.514 0-10-4.486-10-10s4.486-10 10-10 10 4.486 10 10-4.486 10-10 10z"/><path d="m482.066 226.033c-13.036 0-24.152 8.361-28.28 20h-16.002c-2.323-42.667-19.417-81.464-46.234-111.375l31.675-31.675c5.154 2.853 11.075 4.482 17.371 4.482 19.849 0 35.996-16.147 35.996-35.996 0-19.848-16.147-35.995-35.996-35.995-19.848 0-35.995 16.147-35.995 35.995 0 6.296 1.629 12.217 4.481 17.371l-31.675 31.675c-29.91-26.817-68.708-43.911-111.375-46.234v-16.001c11.639-4.128 20-15.244 20-28.28 0-16.542-13.458-30-30-30s-30 13.458-30 30c0 13.036 8.361 24.152 20 28.28v25.731c0 5.522 4.478 10 10 10 89.34 0 162.022 72.683 162.022 162.022 0 5.522 4.478 10 10 10h25.731c4.128 11.639 15.243 20 28.28 20 16.542 0 30-13.458 30-30s-13.457-30-29.999-30zm-226.033-206.033c5.514 0 10 4.486 10 10s-4.486 10-10 10-10-4.486-10-10 4.487-10 10-10zm184.564 35.475c8.82 0 15.996 7.176 15.996 15.995 0 8.82-7.176 15.996-15.996 15.996-8.819 0-15.995-7.176-15.995-15.996s7.175-15.995 15.995-15.995zm41.469 210.558c-5.514 0-10-4.486-10-10s4.486-10 10-10 10 4.486 10 10-4.486 10-10 10z"/><path d="m440.597 404.601c-6.296 0-12.217 1.629-17.371 4.482l-32.291-32.291c-3.906-3.904-10.236-3.904-14.143 0-3.905 3.905-3.905 10.237 0 14.143l32.291 32.291c-2.852 5.154-4.481 11.075-4.481 17.371 0 19.848 16.147 35.995 35.995 35.995 19.849 0 35.996-16.147 35.996-35.995 0-19.849-16.148-35.996-35.996-35.996zm0 51.991c-8.819 0-15.995-7.176-15.995-15.995 0-8.82 7.176-15.996 15.995-15.996 8.82 0 15.996 7.176 15.996 15.996 0 8.819-7.176 15.995-15.996 15.995z"/><circle cx="349.383" cy="162.673" r="10"/></g></g></svg>